<svg width="47" height="47" viewBox="0 0 47 47" fill="none" xmlns="http://www.w3.org/2000/svg">
<path d="M45.8571 10.8806C45.3364 10.36 44.4924 10.3601 43.9717 10.8806C43.343 11.5093 42.6508 12.0055 41.9074 12.3995L34.6019 5.09416C34.9959 4.3507 35.4921 3.65843 36.1208 3.02971C36.6415 2.50907 36.6415 1.665 36.1208 1.14436C35.6002 0.623801 34.7561 0.623712 34.2355 1.14436C30.7696 4.61004 30.4664 9.26847 30.4399 13.9004C25.8082 13.927 21.1499 14.2301 17.6843 17.696C14.2185 21.1616 13.9152 25.8199 13.8887 30.4517C9.25671 30.4782 4.59829 30.7813 1.1326 34.2472C0.612049 34.7679 0.612049 35.6119 1.1326 36.1326C1.65325 36.6532 2.49732 36.6531 3.01796 36.1326C3.64668 35.5038 4.33886 35.0076 5.08232 34.6137L12.3877 41.919C11.9937 42.6625 11.4975 43.3547 10.8688 43.9835C10.3481 44.5041 10.3481 45.3482 10.8688 45.8688C11.3894 46.3894 12.2335 46.3895 12.7541 45.8688C16.22 42.4031 16.5232 37.7447 16.5496 33.1128C21.1814 33.0862 25.8397 32.783 29.3053 29.3172C32.7711 25.8516 33.0744 21.1933 33.1009 16.5615C37.7329 16.535 42.3913 16.2318 45.857 12.766C46.3777 12.2453 46.3776 11.4013 45.8571 10.8806ZM39.1311 13.3941C37.2746 13.81 35.2296 13.8828 33.1063 13.8952C33.1186 11.7719 33.1914 9.72681 33.6074 7.87034L39.1311 13.3941ZM29.9336 22.591L24.4104 17.0678C26.2668 16.652 28.3117 16.5791 30.4347 16.5667C30.4224 18.6897 30.3496 20.7346 29.9336 22.591ZM17.0562 24.4221L22.5794 29.9453C20.723 30.3611 18.6781 30.434 16.5551 30.4464C16.5674 28.3234 16.6402 26.2785 17.0562 24.4221ZM7.85867 33.619C9.71515 33.2031 11.7602 33.1303 13.8835 33.1179C13.8711 35.2412 13.7984 37.2863 13.3824 39.1428L7.85867 33.619ZM25.3555 28.9508L18.0506 21.6459C18.4446 20.9023 18.9408 20.2101 19.5697 19.5814C20.1985 18.9526 20.8908 18.4564 21.6342 18.0623L28.9392 25.3672C28.5452 26.1107 28.049 26.803 27.4201 27.4317C26.7914 28.0606 26.0991 28.5568 25.3555 28.9508Z" fill="#74AD45"/>
</svg>
