<svg width="65" height="64" viewBox="0 0 65 64" fill="none" xmlns="http://www.w3.org/2000/svg">
<path d="M52.7091 47.8752V21.5735L27.5586 7.29883" stroke="black" stroke-width="2" stroke-linecap="round" stroke-linejoin="round"/>
<path d="M52.7526 21.5503L63.2422 15.5967" stroke="black" stroke-width="2" stroke-linecap="round" stroke-linejoin="round"/>
<path d="M38.1328 2.09668V5.85923" stroke="black" stroke-width="2" stroke-linecap="round" stroke-linejoin="round"/>
<path d="M38.1328 11.127V14.8895" stroke="black" stroke-width="2" stroke-linecap="round" stroke-linejoin="round"/>
<path d="M38.1328 20.1562V23.9188" stroke="black" stroke-width="2" stroke-linecap="round" stroke-linejoin="round"/>
<path d="M39.6192 1.64796L62.1945 14.461C63.1366 14.9957 63.7188 15.9955 63.7188 17.0788V40.5416C63.7188 41.625 63.1365 42.6249 62.1941 43.1596L54.1949 47.6983C53.2735 48.2211 52.145 48.2211 51.2237 47.6981L28.648 34.8849C27.706 34.3502 27.1238 33.3505 27.1238 32.2673L27.1225 8.80697C27.1224 7.7236 27.7045 6.72377 28.6467 6.18901L36.6476 1.64796C37.5691 1.12496 38.6977 1.12496 39.6192 1.64796Z" stroke="black" stroke-width="2" stroke-linecap="round" stroke-linejoin="round"/>
<path d="M58.0756 39.3457L63.1055 42.1422" stroke="black" stroke-width="2" stroke-linecap="round" stroke-linejoin="round"/>
<path d="M53.5586 36.7833L49.0435 34.2207" stroke="black" stroke-width="2" stroke-linecap="round" stroke-linejoin="round"/>
<path d="M40.0135 29.0342L44.1523 31.4443" stroke="black" stroke-width="2" stroke-linecap="round" stroke-linejoin="round"/>
<path d="M35.875 28.9629L31.7362 31.373" stroke="black" stroke-width="2" stroke-linecap="round" stroke-linejoin="round"/>
<path d="M60.0965 49.9699C57.6672 53.2167 52.4453 55.4622 46.3953 55.4622C38.0265 55.4622 31.2422 51.1655 31.2422 45.8652C31.2422 44.5971 31.6305 43.3864 32.336 42.2783" stroke="black" stroke-width="2" stroke-linecap="round" stroke-linejoin="round"/>
<path d="M3.36825 55.627C3.05165 56.1761 2.87891 56.7691 2.87891 57.3876C2.87891 60.2225 6.50756 62.5207 10.9837 62.5207C15.4599 62.5207 19.0886 60.2225 19.0886 57.3876C19.0886 56.7944 18.9297 56.2247 18.6373 55.6946" stroke="black" stroke-width="2" stroke-linecap="round" stroke-linejoin="round"/>
<path d="M10.9861 32.6284C13.8305 32.6284 16.1363 30.3226 16.1363 27.4783C16.1363 24.6339 13.8305 22.3281 10.9861 22.3281C8.14174 22.3281 5.83594 24.6339 5.83594 27.4783C5.83594 30.3226 8.14174 32.6284 10.9861 32.6284Z" stroke="black" stroke-width="2" stroke-linecap="round" stroke-linejoin="round"/>
<path d="M19.9982 41.6417C19.9982 39.2513 19.0487 36.9589 17.3584 35.2687C15.6682 33.5785 13.3758 32.6289 10.9854 32.6289C8.5951 32.6289 6.30266 33.5785 4.61244 35.2687C2.92221 36.9589 1.97266 39.2513 1.97266 41.6417V45.5043H5.83528L7.12282 55.8046H14.8481L16.1356 45.5043H19.9982V41.6417Z" stroke="black" stroke-width="2" stroke-linecap="round" stroke-linejoin="round"/>
</svg>
