<svg width="64" height="64" viewBox="0 0 64 64" fill="none" xmlns="http://www.w3.org/2000/svg">
<path d="M38.1606 46.8368C43.0214 46.8368 46.9618 42.8964 46.9618 38.0356C46.9618 33.1748 43.0214 29.2344 38.1606 29.2344C33.2998 29.2344 29.3594 33.1748 29.3594 38.0356C29.3594 42.8964 33.2998 46.8368 38.1606 46.8368Z" stroke="#292D32" stroke-width="2" stroke-linecap="round" stroke-linejoin="round"/>
<path d="M34.0641 30.2462L26.7979 17.1641L17.0391 36.2756H29.5391" stroke="#292D32" stroke-width="2" stroke-linecap="round" stroke-linejoin="round"/>
<path d="M51.6522 51.3524L61.6314 61.3316" stroke="#292D32" stroke-width="2" stroke-linecap="round" stroke-linejoin="round"/>
<path d="M12.3478 12.6466L2.36858 2.66742" stroke="#292D32" stroke-width="2" stroke-linecap="round" stroke-linejoin="round"/>
<path d="M12.3478 51.3524L2.36858 61.3316" stroke="#292D32" stroke-width="2" stroke-linecap="round" stroke-linejoin="round"/>
<path d="M51.6522 12.6466L61.6314 2.66742" stroke="#292D32" stroke-width="2" stroke-linecap="round" stroke-linejoin="round"/>
<path d="M61.6289 44.7434L61.6289 19.2568" stroke="#292D32" stroke-width="2" stroke-linecap="round" stroke-linejoin="round"/>
<path d="M18.2575 61.332L46.0661 61.332" stroke="#292D32" stroke-width="2" stroke-linecap="round" stroke-linejoin="round"/>
<path d="M2.37109 44.7434L2.3711 19.2568" stroke="#292D32" stroke-width="2" stroke-linecap="round" stroke-linejoin="round"/>
<path d="M18.2575 2.66797L46.0661 2.66798" stroke="#292D32" stroke-width="2" stroke-linecap="round" stroke-linejoin="round"/>
<path d="M54.0625 61.3322H61.629V53.7656" stroke="#292D32" stroke-width="2" stroke-linecap="round" stroke-linejoin="round"/>
<path d="M9.9375 2.66783L2.37095 2.66783L2.37095 10.2344" stroke="#292D32" stroke-width="2" stroke-linecap="round" stroke-linejoin="round"/>
<path d="M9.9375 61.3322H2.37095V53.7656" stroke="#292D32" stroke-width="2" stroke-linecap="round" stroke-linejoin="round"/>
<path d="M54.0625 2.66783L61.629 2.66783L61.629 10.2344" stroke="#292D32" stroke-width="2" stroke-linecap="round" stroke-linejoin="round"/>
</svg>
