<svg width="64" height="65" viewBox="0 0 64 65" fill="none" xmlns="http://www.w3.org/2000/svg">
<path d="M12.7305 33.908C12.7305 28.3076 17.0069 23.6342 22.5852 23.1384L25.8577 22.8475C30.5713 22.4285 35.3128 22.4285 40.0264 22.8475L43.2939 23.1379C48.875 23.634 53.1536 28.3098 53.1536 33.9129V35.0819C53.1536 39.1744 50.4643 42.7804 46.5418 43.9477V43.9477C43.1437 44.9589 39.4643 44.1473 36.8068 41.8003L34.9024 40.1184C33.7834 39.1301 32.1028 39.1325 30.9867 40.124L29.1315 41.7721C26.4705 44.136 22.7776 44.9583 19.365 43.9468V43.9468C15.4299 42.7803 12.7305 39.1647 12.7305 35.0603V33.908Z" stroke="#292D32" stroke-width="2"/>
<path d="M41.3331 37.7122C40.9766 37.7122 40.6875 37.4231 40.6875 37.0665C40.6875 36.71 40.9766 36.4209 41.3331 36.4209" stroke="#292D32" stroke-width="2"/>
<path d="M41.3359 37.7122C41.6925 37.7122 41.9816 37.4231 41.9816 37.0665C41.9816 36.71 41.6925 36.4209 41.3359 36.4209" stroke="#292D32" stroke-width="2"/>
<path d="M24.548 37.7122C24.1914 37.7122 23.9023 37.4231 23.9023 37.0665C23.9023 36.71 24.1914 36.4209 24.548 36.4209" stroke="#292D32" stroke-width="2"/>
<path d="M24.5469 37.7122C24.9034 37.7122 25.1925 37.4231 25.1925 37.0665C25.1925 36.71 24.9034 36.4209 24.5469 36.4209" stroke="#292D32" stroke-width="2"/>
<path d="M20.0273 31.9017C20.673 31.2561 22.4807 29.9648 24.5468 29.9648C26.6128 29.9648 28.6357 31.2561 29.0662 31.9017" stroke="#292D32" stroke-width="2" stroke-linecap="round"/>
<path d="M45.8516 31.9017C45.2059 31.2561 43.3982 29.9648 41.3322 29.9648C39.2661 29.9648 37.2432 31.2561 36.8127 31.9017" stroke="#292D32" stroke-width="2" stroke-linecap="round"/>
<path d="M27.7734 51.4258C28.2039 51.8562 29.8395 52.717 32.9385 52.717C36.0375 52.717 37.6731 51.8562 38.1035 51.4258" stroke="#292D32" stroke-width="2" stroke-linecap="round"/>
<path d="M13.9063 29.0003L13.7301 29.0884C10.6457 30.5495 6.53097 29.356 5.44471 26.5591C8.86947 25.6744 10.6537 23.8052 12.6929 21.0014C8.14748 21.326 5.38347 16.553 4.70703 14.7267C11.8093 14.7267 14.6501 4.37774 29.0575 1.73985C40.5834 -0.370456 45.3589 8.57149 46.3059 13.3063C48.6733 12.4946 53.8139 12.2917 55.4373 17.9735C57.4665 25.0757 55.2344 30.1487 59.2928 30.1487C58.4811 31.231 56.2084 32.9896 53.611 31.3662C53.3806 31.2282 52.855 30.8548 52.5953 30.4653" stroke="#292D32" stroke-width="2" stroke-linecap="round" stroke-linejoin="round"/>
<path d="M39.3125 22.7865C39.25 22.6698 39.0577 22.3743 38.9694 22.2412C37.1794 19.6456 31.8004 16.1461 24.6045 22.9124L24.5469 22.9687" stroke="#292D32" stroke-width="2" stroke-linecap="round" stroke-linejoin="round"/>
<path d="M46.2194 13.2461L43.1315 16.0654L44.4742 19.2874L40.5809 22.1067L39.5781 22.8112" stroke="#292D32" stroke-width="2" stroke-linecap="round" stroke-linejoin="round"/>
<path d="M15.9922 42.1094L16.1559 42.8777C18.0211 51.6178 20.0297 63.047 32.9423 63.047C45.8549 63.047 47.8636 51.6178 49.7287 42.8777L49.8924 42.1094" stroke="#292D32" stroke-width="2" stroke-linecap="round"/>
<path d="M22.9336 59.458V62.9711" stroke="#292D32" stroke-width="2" stroke-linecap="round"/>
<path d="M17.3444 48.248H15.2117C9.65028 48.248 6.386 38.072 12.6284 36.5114L12.8275 36.4736" stroke="#292D32" stroke-width="2" stroke-linecap="round"/>
<path d="M48.5345 48.248H50.6672C56.2286 48.248 59.4929 38.072 53.2505 36.5114L53.0514 36.4736" stroke="#292D32" stroke-width="2" stroke-linecap="round"/>
<path d="M42.9492 59.458V62.9711" stroke="#292D32" stroke-width="2" stroke-linecap="round"/>
</svg>
