<svg width="60" height="60" viewBox="0 0 60 60" fill="none" xmlns="http://www.w3.org/2000/svg">
<path d="M55 32.5V22.5C55 10 50 5 37.5 5H22.5C10 5 5 10 5 22.5V37.5C5 50 10 55 22.5 55H32.5" stroke="white" stroke-width="2" stroke-linecap="round" stroke-linejoin="round"/>
<path d="M18.3242 36.2254L24.2742 28.5004C25.1242 27.4004 26.6992 27.2004 27.7992 28.0504L32.3743 31.6504C33.4743 32.5004 35.0492 32.3004 35.8992 31.2254L41.6743 23.7754" stroke="white" stroke-width="2" stroke-linecap="round" stroke-linejoin="round"/>
<path d="M48.701 39.5496L49.401 40.9746C49.751 41.6746 50.626 42.3246 51.401 42.4746L52.351 42.6246C55.201 43.0996 55.876 45.1996 53.826 47.2746L52.951 48.1496C52.376 48.7496 52.051 49.8996 52.226 50.6996L52.351 51.2246C53.126 54.6746 51.301 55.9996 48.301 54.1996L47.651 53.8246C46.876 53.3746 45.626 53.3746 44.851 53.8246L44.201 54.1996C41.176 56.0246 39.351 54.6746 40.151 51.2246L40.276 50.6996C40.451 49.8996 40.126 48.7496 39.551 48.1496L38.676 47.2746C36.626 45.1996 37.301 43.0996 40.151 42.6246L41.101 42.4746C41.851 42.3496 42.751 41.6746 43.101 40.9746L43.801 39.5496C45.151 36.8246 47.351 36.8246 48.701 39.5496Z" stroke="white" stroke-width="2" stroke-linecap="round" stroke-linejoin="round"/>
</svg>
