<svg width="60" height="60" viewBox="0 0 60 60" fill="none" xmlns="http://www.w3.org/2000/svg">
<path d="M25.1258 6.32521L10.0758 16.1502C5.25078 19.3002 5.25078 26.3502 10.0758 29.5002L25.1258 39.3252C27.8258 41.1002 32.2758 41.1002 34.9758 39.3252L49.9508 29.5002C54.7508 26.3502 54.7508 19.3252 49.9508 16.1752L34.9758 6.35021C32.2758 4.55021 27.8258 4.55021 25.1258 6.32521Z" stroke="white" stroke-width="2" stroke-linecap="round" stroke-linejoin="round"/>
<path d="M14.0758 32.7002L14.0508 44.4252C14.0508 47.6002 16.5008 51.0002 19.5008 52.0002L27.4758 54.6502C28.8508 55.1002 31.1258 55.1002 32.5258 54.6502L40.5008 52.0002C43.5008 51.0002 45.9508 47.6002 45.9508 44.4252V32.8252" stroke="white" stroke-width="2" stroke-linecap="round" stroke-linejoin="round"/>
<path d="M53.5 37.5V22.5" stroke="white" stroke-width="2" stroke-linecap="round" stroke-linejoin="round"/>
</svg>
