<svg width="64" height="64" viewBox="0 0 64 64" fill="none" xmlns="http://www.w3.org/2000/svg">
<path d="M32.1757 46.4666C35.7363 46.4666 38.6228 43.5801 38.6228 40.0194C38.6228 36.4588 35.7363 33.5723 32.1757 33.5723C28.615 33.5723 25.7285 36.4588 25.7285 40.0194C25.7285 43.5801 28.615 46.4666 32.1757 46.4666Z" stroke="white" strokeWidth="2" stroke-linecap="round" stroke-linejoin="round"/>
<path d="M43.4973 60.5785C43.1286 57.8369 41.7777 55.3221 39.6954 53.501C37.6131 51.68 34.9407 50.6763 32.1744 50.6763C29.4081 50.6763 26.7358 51.68 24.6534 53.501C22.5711 55.3221 21.2202 57.8369 20.8516 60.5785" stroke="white" strokeWidth="2" stroke-linecap="round" stroke-linejoin="round"/>
<path d="M49.4553 27.2553C52.0033 27.2553 54.0688 25.1898 54.0688 22.6418C54.0688 20.0939 52.0033 18.0283 49.4553 18.0283C46.9073 18.0283 44.8418 20.0939 44.8418 22.6418C44.8418 25.1898 46.9073 27.2553 49.4553 27.2553Z" stroke="white" strokeWidth="2" stroke-linecap="round" stroke-linejoin="round"/>
<path d="M49.4551 14.352V13.0767" stroke="white" strokeWidth="2" stroke-linecap="round" stroke-linejoin="round"/>
<path d="M55.3164 16.7801L56.2185 15.8779" stroke="white" strokeWidth="2" stroke-linecap="round" stroke-linejoin="round"/>
<path d="M57.7441 22.6421H59.0195" stroke="white" strokeWidth="2" stroke-linecap="round" stroke-linejoin="round"/>
<path d="M55.3164 28.5039L56.2185 29.406" stroke="white" strokeWidth="2" stroke-linecap="round" stroke-linejoin="round"/>
<path d="M49.4551 30.9321V32.2075" stroke="white" strokeWidth="2" stroke-linecap="round" stroke-linejoin="round"/>
<path d="M43.5935 28.5039L42.6914 29.406" stroke="white" strokeWidth="2" stroke-linecap="round" stroke-linejoin="round"/>
<path d="M41.1641 22.6421H39.8887" stroke="white" strokeWidth="2" stroke-linecap="round" stroke-linejoin="round"/>
<path d="M43.5935 16.7801L42.6914 15.8779" stroke="white" strokeWidth="2" stroke-linecap="round" stroke-linejoin="round"/>
<path d="M8.81759 33.9206H7.73817C6.8684 33.8134 6.06663 33.3956 5.48056 32.7441C4.89449 32.0925 4.56359 31.2511 4.54883 30.3749C4.54864 29.899 4.6445 29.4279 4.83066 28.9899C5.01682 28.5518 5.28946 28.1559 5.63225 27.8257C5.97503 27.4955 6.38092 27.2379 6.82561 27.0683C7.2703 26.8987 7.74464 26.8206 8.22024 26.8386C8.6879 25.8396 9.47558 25.0254 10.4584 24.5248C11.4413 24.0243 12.5631 23.8661 13.6461 24.0753C14.729 24.2845 15.7112 24.8492 16.4368 25.6799C17.1625 26.5106 17.5902 27.5596 17.652 28.6609C18.0386 28.5806 18.4382 28.5875 18.8218 28.681C19.2054 28.7745 19.5633 28.9522 19.8696 29.2013C20.1759 29.4504 20.4229 29.7646 20.5926 30.1211C20.7623 30.4776 20.8505 30.8674 20.8507 31.2622C20.8467 31.6253 20.7692 31.9838 20.623 32.3161C20.4769 32.6485 20.2649 32.9479 20.0001 33.1962C19.7352 33.4445 19.4228 33.6367 19.0817 33.7612C18.7407 33.8857 18.3779 33.9399 18.0153 33.9206H8.81642H8.81759Z" stroke="white" strokeWidth="2" stroke-linecap="round" stroke-linejoin="round"/>
<path d="M23.368 22.3072H22.5781C21.9416 22.2288 21.3549 21.923 20.926 21.4462C20.4971 20.9694 20.2549 20.3537 20.2441 19.7125C20.244 19.3642 20.3142 19.0194 20.4504 18.6989C20.5866 18.3784 20.7861 18.0886 21.037 17.847C21.2878 17.6054 21.5849 17.4168 21.9103 17.2927C22.2357 17.1686 22.5828 17.1114 22.9309 17.1246C23.2731 16.3936 23.8495 15.7977 24.5688 15.4314C25.288 15.0651 26.109 14.9493 26.9015 15.1024C27.694 15.2556 28.4127 15.6688 28.9437 16.2767C29.4747 16.8845 29.7877 17.6523 29.833 18.4582C30.1159 18.3994 30.4083 18.4045 30.689 18.4729C30.9697 18.5413 31.2316 18.6714 31.4558 18.8536C31.68 19.0359 31.8607 19.2659 31.9849 19.5267C32.1091 19.7876 32.1736 20.0729 32.1738 20.3618C32.1708 20.6275 32.1141 20.8898 32.0072 21.133C31.9002 21.3763 31.7451 21.5953 31.5513 21.7771C31.3574 21.9588 31.1288 22.0994 30.8792 22.1905C30.6296 22.2816 30.3642 22.3213 30.0989 22.3072H23.3671H23.368Z" stroke="white" strokeWidth="2" stroke-linecap="round" stroke-linejoin="round"/>
<path d="M60.3497 51.5019L58.127 50.9429" stroke="white" strokeWidth="2" stroke-linecap="round"/>
<path d="M52.9109 49.5659C52.0522 49.35 51.1933 49.1485 50.334 48.9614" stroke="white" strokeWidth="2" stroke-linecap="round"/>
<path d="M45.1491 47.9402C43.5974 47.6782 42.045 47.4633 40.4922 47.2954" stroke="white" strokeWidth="2" stroke-linecap="round"/>
<path d="M19.2129 47.9401C20.7645 47.6782 22.3168 47.4633 23.8697 47.2954" stroke="white" strokeWidth="2" stroke-linecap="round"/>
<path d="M60.3496 4.00015L58.1235 4.56006" stroke="white" strokeWidth="2" stroke-linecap="round"/>
<path d="M52.8301 5.96284C51.9714 6.17881 51.1124 6.38033 50.2531 6.56738" stroke="white" strokeWidth="2" stroke-linecap="round"/>
<path d="M45.1367 7.56541C36.499 9.02378 27.8383 9.02377 19.2006 7.56539" stroke="white" strokeWidth="2" stroke-linecap="round"/>
<path d="M11.4387 5.9404C12.2974 6.15637 13.1563 6.35787 14.0156 6.54492" stroke="white" strokeWidth="2" stroke-linecap="round"/>
<path d="M3.99992 4.00393L6.22266 4.56299" stroke="white" strokeWidth="2" stroke-linecap="round"/>
<path d="M11.5215 49.5425C12.3802 49.3266 13.2392 49.125 14.0985 48.938" stroke="white" strokeWidth="2" stroke-linecap="round"/>
<path d="M4 51.5052L6.2261 50.9453" stroke="white" strokeWidth="2" stroke-linecap="round"/>
</svg>
