<svg width="120" height="120" viewBox="0 0 120 120" fill="none" xmlns="http://www.w3.org/2000/svg">
<path d="M117.633 5.60425L113.079 6.58203" stroke="#292D32" stroke-width="4" stroke-linecap="round"/>
<path d="M102.25 9.03215C100.494 9.40932 98.7364 9.76123 96.9787 10.0879" stroke="#292D32" stroke-width="4" stroke-linecap="round"/>
<path d="M56.3773 46.5084C56.6966 44.1134 55.0139 41.9129 52.6189 41.5936C50.2238 41.2742 48.0234 42.9569 47.704 45.352C47.4041 47.6018 46.1119 51.0718 43.1681 53.9428C40.3287 56.7118 35.717 59.1571 28.2796 59.1571C19.0352 59.1571 12.7604 61.5711 8.71098 65.6399C4.73147 69.6384 3.59522 74.5599 3.13263 78.0293C2.81329 80.4244 4.49599 82.6248 6.89104 82.9442C9.28609 83.2635 11.4865 81.5808 11.8059 79.1858C12.1766 76.4052 12.9456 73.789 14.9129 71.8123C15.9142 70.8062 17.4214 69.7744 19.7615 69.0242L18.1842 77.7975L13.1926 103.536C12.7326 105.908 14.2826 108.204 16.6546 108.664C19.0267 109.124 21.3225 107.574 21.7825 105.202L26.0957 82.9615L29.8352 82.9615L31.9518 104.791C32.1849 107.196 34.3236 108.957 36.7286 108.724C39.1335 108.49 40.8941 106.352 40.6609 103.947L38.1813 78.3735V66.5734C42.8016 65.2237 46.4663 62.9484 49.2772 60.207C53.7555 55.8396 55.8439 50.5086 56.3773 46.5084Z" stroke="#292D32" stroke-width="4" stroke-linecap="round" stroke-linejoin="round"/>
<circle cx="8.30383" cy="8.30383" r="8.30383" transform="matrix(-1 0 0 1 98.4141 36.9062)" stroke="#292D32" stroke-width="4"/>
<path d="M63.6248 46.5084C63.3055 44.1134 64.9882 41.9129 67.3832 41.5936C69.7783 41.2742 71.9787 42.9569 72.2981 45.352C72.598 47.6018 73.8902 51.0718 76.8341 53.9428C79.6734 56.7118 84.2852 59.1571 91.7225 59.1571C100.967 59.1571 107.242 61.5711 111.291 65.6399C115.271 69.6384 116.407 74.5599 116.869 78.0293C117.189 80.4244 115.506 82.6248 113.111 82.9442C110.716 83.2635 108.516 81.5808 108.196 79.1858C107.825 76.4052 107.057 73.789 105.089 71.8123C104.088 70.8062 102.581 69.7744 100.241 69.0242L101.818 77.7974L106.81 103.536C107.27 105.908 105.72 108.204 103.347 108.664C100.975 109.124 98.6796 107.574 98.2196 105.202L93.9064 82.9615L90.167 82.9615L88.0504 104.791C87.8172 107.196 85.6785 108.957 83.2736 108.724C80.8686 108.49 79.108 106.352 79.3412 103.947L81.8208 78.3735V66.5734C77.2005 65.2237 73.5358 62.9484 70.7249 60.207C66.2466 55.8396 64.1582 50.5086 63.6248 46.5084Z" stroke="#292D32" stroke-width="4" stroke-linecap="round" stroke-linejoin="round"/>
<path d="M32.7474 37.411C31.8564 37.0845 30.8939 36.9062 29.8898 36.9062C25.3037 36.9062 21.5859 40.624 21.5859 45.2101C21.5859 49.7962 25.3037 53.5139 29.8898 53.5139C34.0117 53.5139 37.4322 50.5106 38.0823 46.5729" stroke="#292D32" stroke-width="4"/>
<path d="M36.9884 36.209C36.9884 36.209 30.6639 36.5655 29.8411 40.9795C29.0183 45.3936 32.9837 47.5306 40.6974 46.2497C41.6952 42.4997 39.7482 38.2167 36.9884 36.209Z" stroke="#292D32" stroke-width="4" stroke-linecap="round" stroke-linejoin="round"/>
<path d="M47.5141 104.211C55.8281 103.648 64.147 103.648 72.4609 104.211" stroke="#292D32" stroke-width="4" stroke-linecap="round"/>
<path d="M117.633 111.927L113.079 110.949" stroke="#292D32" stroke-width="4" stroke-linecap="round"/>
<path d="M2.37526 111.922L6.92188 110.945" stroke="#292D32" stroke-width="4" stroke-linecap="round"/>
<path d="M86.5156 11.8301C68.8472 14.3769 51.1316 14.3769 33.4632 11.8301" stroke="#292D32" stroke-width="4" stroke-linecap="round"/>
<path d="M17.5883 8.99118C19.3447 9.36833 21.1017 9.72023 22.8594 10.0469" stroke="#292D32" stroke-width="4" stroke-linecap="round"/>
<path d="M2.36745 5.61159L6.91406 6.58789" stroke="#292D32" stroke-width="4" stroke-linecap="round"/>
</svg>
