<svg width="24" height="24" viewBox="0 0 24 24" fill="none" xmlns="http://www.w3.org/2000/svg">
<g clip-path="url(#clip0_2500_9623)">
<path d="M16.2432 9.87821C16.4153 9.70604 16.6444 9.6026 16.8875 9.58732C17.1305 9.57204 17.3707 9.64596 17.5632 9.79521L17.6572 9.87821L19.7782 12.0002C20.7933 13.0164 21.3705 14.3894 21.3866 15.8257C21.4026 17.262 20.8562 18.6476 19.864 19.6862C18.8719 20.7249 17.5128 21.3342 16.0773 21.3839C14.6418 21.4336 13.2438 20.9197 12.1822 19.9522L12.0002 19.7782L9.87915 17.6572C9.6979 17.4777 9.59212 17.2356 9.58347 16.9807C9.57482 16.7257 9.66395 16.477 9.83262 16.2856C10.0013 16.0942 10.2367 15.9745 10.4908 15.951C10.7448 15.9275 10.9982 16.002 11.1992 16.1592L11.2932 16.2422L13.4142 18.3642C14.0579 19.0082 14.9272 19.376 15.8377 19.3895C16.7482 19.403 17.6281 19.0611 18.2906 18.4365C18.9531 17.8118 19.3462 16.9536 19.3862 16.0439C19.4263 15.1342 19.1102 14.2447 18.5052 13.5642L18.3642 13.4142L16.2432 11.2932C16.1502 11.2003 16.0764 11.0901 16.0261 10.9687C15.9758 10.8473 15.9499 10.7171 15.9499 10.5857C15.9499 10.4543 15.9758 10.3242 16.0261 10.2028C16.0764 10.0814 16.1502 9.97109 16.2432 9.87821ZM9.17015 9.17121C9.34235 8.99903 9.57145 8.8956 9.81447 8.88032C10.0575 8.86504 10.2977 8.93896 10.4902 9.08821L10.5852 9.17121L14.8272 13.4142C15.0065 13.5942 15.1106 13.8356 15.1184 14.0896C15.1261 14.3435 15.0369 14.5909 14.8689 14.7815C14.7009 14.9721 14.4666 15.0915 14.2137 15.1156C13.9608 15.1397 13.7081 15.0666 13.5072 14.9112L13.4132 14.8282L9.17015 10.5862C9.07718 10.4933 9.00342 10.3831 8.95309 10.2617C8.90277 10.1403 8.87687 10.0101 8.87687 9.87871C8.87687 9.7473 8.90277 9.61717 8.95309 9.49577C9.00342 9.37437 9.07718 9.26408 9.17015 9.17121ZM4.22015 4.22121C5.22095 3.22044 6.56902 2.644 7.98397 2.61178C9.39893 2.57956 10.7718 3.09404 11.8172 4.04821L11.9992 4.22221L14.1202 6.34221C14.3014 6.52175 14.4072 6.76378 14.4158 7.01876C14.4245 7.27374 14.3354 7.52238 14.1667 7.71379C13.998 7.90521 13.7626 8.02491 13.5085 8.04842C13.2545 8.07192 13.0011 7.99743 12.8002 7.84021L12.7062 7.75721L10.5852 5.63621C9.94143 4.99219 9.07206 4.6244 8.16158 4.6109C7.25111 4.59741 6.37122 4.93928 5.70869 5.56393C5.04616 6.18859 4.65316 7.04686 4.6131 7.95656C4.57304 8.86625 4.88909 9.75574 5.49415 10.4362L5.63515 10.5862L7.75615 12.7062C7.93741 12.8858 8.04319 13.1278 8.05184 13.3828C8.06049 13.6377 7.97136 13.8864 7.80269 14.0778C7.63402 14.2692 7.39857 14.3889 7.14453 14.4124C6.89049 14.4359 6.63707 14.3614 6.43615 14.2042L6.34215 14.1212L4.22215 12.0002C3.19076 10.9688 2.61133 9.56986 2.61133 8.11121C2.61133 6.65256 3.19076 5.25366 4.22215 4.22221L4.22015 4.22121Z" fill="#292D32"/>
</g>
<defs>
<clipPath id="clip0_2500_9623">
<rect width="24" height="24" fill="white"/>
</clipPath>
</defs>
</svg>
