<svg width="64" height="64" viewBox="0 0 64 64" fill="none" xmlns="http://www.w3.org/2000/svg">
<path d="M4.47266 57.502L6.62675 57.0394M11.6281 55.9239C12.4591 55.7455 13.2903 55.579 14.1218 55.4245M51.7792 55.8994C50.9483 55.721 50.1171 55.5545 49.2856 55.4M58.9991 57.4992L56.8482 57.0373M19.1938 54.5566C19.8225 54.466 20.4513 54.3822 21.0802 54.3052M44.291 54.5566C43.6624 54.466 43.0336 54.3822 42.4047 54.3052" stroke="white" strokeWidth="2" stroke-linecap="round"/>
<path d="M59 7.20423L56.8459 7.66678M51.7225 8.82582C50.8916 9.00424 50.0604 9.17072 49.2288 9.32525M11.6711 8.80677C12.502 8.98519 13.3332 9.15166 14.1647 9.30618M4.4736 7.20702L6.62444 7.66888M44.2788 10.1496C35.9205 11.3544 27.5399 11.3544 19.1816 10.1496" stroke="white" strokeWidth="2" stroke-linecap="round"/>
<path d="M22.553 25.5674C22.402 24.4343 21.361 23.6383 20.228 23.7894C19.095 23.9405 18.299 24.9814 18.45 26.1144C18.698 27.9742 19.6623 30.6102 21.7502 32.8096C23.0597 34.1889 24.7817 35.3637 26.9678 36.0698V41.6311L25.7948 53.7276C25.6844 54.8653 26.5173 55.877 27.655 55.9873C28.7927 56.0977 29.8044 55.2648 29.9147 54.1271L30.9161 43.8002L32.5133 43.8002L33.5146 54.1271C33.6249 55.2648 34.6366 56.0976 35.7743 55.9873C36.912 55.877 37.7449 54.8653 37.6346 53.7276L36.4616 41.6298V36.084C38.6687 35.3795 40.4051 34.1982 41.7234 32.8096C43.8113 30.6102 44.7756 27.9742 45.0236 26.1144C45.1746 24.9814 44.3786 23.9405 43.2456 23.7894C42.1126 23.6383 41.0716 24.4343 40.9206 25.5674C40.7743 26.6642 40.142 28.4632 38.7214 29.9597C37.3585 31.3952 35.1912 32.6412 31.7368 32.6412C28.2824 32.6412 26.1151 31.3952 24.7522 29.9597C23.3316 28.4632 22.6993 26.6642 22.553 25.5674Z" stroke="white" strokeWidth="2" stroke-linecap="round" stroke-linejoin="round"/>
<path d="M33.1336 22.2505C32.7121 22.096 32.2568 22.0117 31.7818 22.0117C29.6122 22.0117 27.8535 23.7705 27.8535 25.94C27.8535 28.1095 29.6122 29.8682 31.7818 29.8682C33.7317 29.8682 35.3498 28.4474 35.6574 26.5846" stroke="white" strokeWidth="2"/>
<path d="M35.1387 21.6826C35.1387 21.6826 32.1468 21.8513 31.7575 23.9394C31.3683 26.0275 33.2442 27.0385 36.8932 26.4325C37.3652 24.6585 36.4442 22.6324 35.1387 21.6826Z" stroke="white" strokeWidth="2" stroke-linecap="round" stroke-linejoin="round"/>
</svg>
