<svg width="30" height="30" viewBox="0 0 30 30" fill="none" xmlns="http://www.w3.org/2000/svg">
<path d="M25 12C25 7 23 5 18 5H12C7 5 5 7 5 12V18C5 23 7 25 12 25" stroke="#292D32" stroke-linecap="round" stroke-linejoin="round"/>
<path d="M20.4375 10C19.75 9.125 18.6 8.75 16.875 8.75H13.125C10 8.75 8.75 10 8.75 13.125V16.875C8.75 18.6 9.125 19.75 9.9875 20.4375" stroke="#292D32" stroke-linecap="round" stroke-linejoin="round"/>
<path d="M10.0156 5V2.5" stroke="#292D32" stroke-linecap="round" stroke-linejoin="round"/>
<path d="M15 5V2.5" stroke="#292D32" stroke-linecap="round" stroke-linejoin="round"/>
<path d="M20 5V2.5" stroke="#292D32" stroke-linecap="round" stroke-linejoin="round"/>
<path d="M25 10H27.5" stroke="#292D32" stroke-linecap="round" stroke-linejoin="round"/>
<path d="M10.0156 25V27.5" stroke="#292D32" stroke-linecap="round" stroke-linejoin="round"/>
<path d="M2.5 10H5" stroke="#292D32" stroke-linecap="round" stroke-linejoin="round"/>
<path d="M2.5 15H5" stroke="#292D32" stroke-linecap="round" stroke-linejoin="round"/>
<path d="M2.5 20H5" stroke="#292D32" stroke-linecap="round" stroke-linejoin="round"/>
<path d="M20.8898 23.2377C21.9875 23.2377 22.8773 22.3479 22.8773 21.2502C22.8773 20.1525 21.9875 19.2627 20.8898 19.2627C19.7922 19.2627 18.9023 20.1525 18.9023 21.2502C18.9023 22.3479 19.7922 23.2377 20.8898 23.2377Z" stroke="#292D32" stroke-miterlimit="10" stroke-linecap="round" stroke-linejoin="round"/>
<path d="M14.2617 21.8249V20.6624C14.2617 19.9749 14.8242 19.4124 15.5117 19.4124C16.7117 19.4124 17.1992 18.5624 16.5992 17.5249C16.2492 16.9249 16.4617 16.1499 17.0617 15.8124L18.1992 15.1499C18.7242 14.8374 19.3992 15.0249 19.7117 15.5499L19.7867 15.6749C20.3867 16.7124 21.3617 16.7124 21.9617 15.6749L22.0367 15.5499C22.3492 15.0249 23.0242 14.8499 23.5492 15.1499L24.6867 15.8124C25.2867 16.1624 25.4992 16.9249 25.1492 17.5249C24.5492 18.5624 25.0367 19.4124 26.2367 19.4124C26.9242 19.4124 27.4867 19.9749 27.4867 20.6624V21.8249C27.4867 22.5124 26.9242 23.0749 26.2367 23.0749C25.0367 23.0749 24.5492 23.9249 25.1492 24.9624C25.4992 25.5624 25.2867 26.3374 24.6867 26.6749L23.5492 27.3374C23.0242 27.6499 22.3492 27.4624 22.0367 26.9374L21.9617 26.8124C21.3617 25.7749 20.3867 25.7749 19.7867 26.8124L19.7117 26.9374C19.3992 27.4624 18.7242 27.6374 18.1992 27.3374L17.0617 26.6749C16.4617 26.3249 16.2492 25.5624 16.5992 24.9624C17.1992 23.9249 16.7117 23.0749 15.5117 23.0749C14.8242 23.0874 14.2617 22.5249 14.2617 21.8249Z" stroke="#292D32" stroke-miterlimit="10" stroke-linecap="round" stroke-linejoin="round"/>
</svg>
