<svg width="67" height="67" viewBox="0 0 67 67" fill="none" xmlns="http://www.w3.org/2000/svg">
<path d="M50.0889 48.9235C49.1367 48.9235 47.4253 48.4973 47.4253 47.645C47.4253 47.3054 47.5252 47.1455 47.6184 47.0124C47.6651 46.9524 47.6784 46.9325 47.6784 46.7793C47.6784 46.6395 47.0658 46.0801 44.2157 46.0801C42.9705 46.0801 41.8118 46.2466 40.5799 46.4197C39.1349 46.6261 37.4901 46.8592 35.4192 46.8592C31.9432 46.8592 25.1111 45.9136 21.5618 42.3644C19.8372 40.6397 18.9648 38.4755 18.9648 35.9252C18.9648 35.7254 18.9848 35.499 19.0314 35.2593L19.0581 35.0861L20.3299 34.5001C21.8548 33.8009 23.0601 33.2416 23.6328 32.9553C24.3786 32.5823 25.1044 31.397 25.4773 29.9387C25.7836 28.7401 25.7703 27.6547 25.4374 27.1753L25.2376 26.8889L25.5306 26.7025C25.8303 26.516 26.1366 26.3296 26.4562 26.1564C28.1209 25.2441 29.3862 24.5583 30.345 24.0522C31.7767 23.2931 32.5092 22.9268 32.8222 22.7737C33.0286 22.6738 33.2484 22.5939 33.4681 22.5339C33.8743 22.4341 34.5735 22.2942 35.599 22.1943L35.6789 22.8536C35.286 22.9068 31.7834 23.4928 30.3384 26.789C28.9 30.0719 28.4406 35.166 31.4638 39.6142C33.9809 43.3166 37.8564 43.7361 42.764 44.2555C43.3833 44.3221 44.0226 44.3887 44.6752 44.4686C46.5264 44.6884 48.311 44.9547 50.0357 45.2144C53.6049 45.7472 56.6946 46.2133 58.0597 45.8337L58.2861 46.4597C57.8666 46.6528 57.4005 46.8392 56.9011 47.0124C53.2786 48.2842 51.7137 48.757 50.7149 48.8902C50.4752 48.9168 50.2687 48.9302 50.069 48.9302L50.0889 48.9235ZM44.229 45.4142C47.6384 45.4142 48.3576 46.16 48.3576 46.7793C48.3576 47.1189 48.2577 47.2787 48.1645 47.4119C48.1179 47.4718 48.1046 47.4918 48.1046 47.645C48.1645 47.8381 49.1434 48.2576 50.1022 48.2576C50.2754 48.2576 50.4552 48.2509 50.6683 48.2243C51.5406 48.1111 52.9789 47.6849 56.0421 46.6195C54.4572 46.5396 52.373 46.2333 49.9691 45.8737C48.2511 45.614 46.4731 45.3476 44.6286 45.1345C43.9826 45.0613 43.3434 44.988 42.7241 44.9214C37.65 44.3754 33.6346 43.9492 30.9444 39.9871C27.768 35.3192 28.2541 29.972 29.7591 26.5227C30.1586 25.6104 30.698 24.8846 31.2906 24.3186C31.1042 24.4184 30.9044 24.525 30.6913 24.6382C29.7391 25.1443 28.4739 25.8301 26.8091 26.7358C26.596 26.8556 26.383 26.9755 26.1765 27.102C26.4629 27.7945 26.4562 28.88 26.1432 30.1052C25.8103 31.4104 25.0578 33.0019 23.9524 33.5546C23.3731 33.8476 22.1612 34.4003 20.6296 35.1061L19.6774 35.5456C19.6574 35.6854 19.6507 35.812 19.6507 35.9318C19.6507 38.3357 20.4365 40.2868 22.0546 41.9049C25.4507 45.301 32.0631 46.2066 35.4392 46.2066C37.4635 46.2066 39.0084 45.9869 40.5 45.7738C41.7519 45.594 42.9372 45.4275 44.229 45.4275V45.4142Z" fill="black"/>
<path d="M56.6951 46.6267C55.0303 46.6267 52.7063 46.2805 49.9628 45.8676C48.2448 45.6079 46.4669 45.3416 44.6223 45.1285C43.9764 45.0552 43.3372 44.982 42.7179 44.9154C37.6437 44.3693 33.6284 43.9432 30.9381 39.9811C27.7618 35.3131 28.2479 29.966 29.7528 26.5166C31.3443 22.8875 35.1799 22.2482 35.6061 22.1883H35.6727C37.4373 22.0151 39.5482 22.0418 41.9055 22.2615C42.8444 22.3481 43.8299 22.468 44.8288 22.6145C52.8062 23.7864 56.2423 24.6854 58.453 26.157C60.7504 27.6886 63.4273 31.4309 63.4273 36.9512C63.4273 42.1719 62.0356 44.7489 58.2932 46.4536C57.8604 46.5735 57.321 46.6267 56.6751 46.6267H56.6951ZM38.1631 22.741C37.2908 22.741 36.4717 22.7743 35.7126 22.8475C35.3131 22.9008 31.8105 23.4868 30.3655 26.783C28.9271 30.0659 28.4677 35.16 31.4908 39.6082C34.0079 43.3106 37.8835 43.7301 42.7911 44.2495C43.4104 44.3161 44.0497 44.3827 44.7023 44.4626C46.5534 44.6823 48.3381 44.9487 50.0627 45.2084C53.6386 45.7411 56.7217 46.2072 58.0868 45.8277C61.4962 44.2695 62.7814 41.8589 62.7814 36.9512C62.7814 31.6973 60.2576 28.1547 58.1001 26.7097C56.0092 25.318 52.5132 24.4124 44.7489 23.2737C43.7567 23.1272 42.7845 23.0073 41.8589 22.9208C40.547 22.8009 39.3085 22.7343 38.1698 22.7343L38.1631 22.741Z" fill="black"/>
<path d="M55.8827 45.2813C54.3875 45.2813 52.3003 44.9714 49.8363 44.6018C48.2933 44.3694 46.6964 44.131 45.0398 43.9403C44.4597 43.8747 43.8856 43.8092 43.3294 43.7495C38.7721 43.2608 35.1658 42.8794 32.7497 39.3331C29.8969 35.1551 30.3335 30.3692 31.6851 27.2819C33.1145 24.0337 36.5593 23.4615 36.9421 23.4079H37.0019C38.5867 23.2529 40.4826 23.2767 42.5997 23.4734C43.443 23.5509 44.3281 23.6582 45.2252 23.7893C52.39 24.8383 55.476 25.6429 57.4615 26.9601C59.5249 28.3309 61.9291 31.6804 61.9291 36.6213C61.9291 41.294 60.6791 43.6006 57.318 45.1263C56.9293 45.2336 56.4448 45.2813 55.8647 45.2813H55.8827Z" fill="black"/>
<path d="M50.6957 48.5504V50.0553C50.0031 50.7478 49.1441 51.0009 48.2851 51.0009C47.4261 51.0009 45.9545 50.6546 45.4417 49.9687C44.929 49.2829 45.0089 46.6925 45.0089 46.6925C43.1111 46.6925 39.8349 47.0388 36.6452 47.9844C36.0459 48.1642 35.3334 48.2907 34.5543 48.3772C31.1915 48.7435 26.6101 48.3373 24.5858 47.9844C22.6014 47.6448 19.4717 46.3729 17.6605 43.4896C17.1943 42.7437 16.8148 41.8914 16.5684 40.9192C16.2088 39.5008 16.0623 38.1357 16.1289 36.8173C17.2543 36.2912 18.3596 35.7785 19.3851 35.3057C19.3452 35.5321 19.3252 35.7385 19.3252 35.9183C19.3252 37.7295 19.758 40.0535 21.8223 42.1245C25.1851 45.4872 31.651 46.5194 35.4399 46.5194C39.2289 46.5194 41.473 45.7403 44.2298 45.7403C46.9866 45.7403 48.0254 46.2597 48.0254 46.7724C48.0254 47.2852 47.7657 47.1187 47.7657 47.6314C47.7657 48.1442 49.1441 48.577 50.0964 48.577C50.2828 48.577 50.4759 48.5637 50.7023 48.5371L50.6957 48.5504Z" fill="black"/>
<path d="M48.2844 51.3334C47.3588 51.3334 45.7806 50.9739 45.1746 50.1681C44.7085 49.5422 44.6619 47.8308 44.6685 47.0317C42.7907 47.0717 39.7276 47.418 36.7377 48.3103C36.1916 48.4701 35.5257 48.6033 34.7666 48.6898L34.5868 48.7098C31.2973 49.0694 26.7226 48.6965 24.5251 48.3169C22.2278 47.924 19.1446 46.4924 17.3734 43.669C16.8606 42.8566 16.481 41.9576 16.2413 41.0054C15.8751 39.5604 15.7219 38.1487 15.7952 36.8035L15.8085 36.6038L15.9883 36.5172C17.1137 35.9911 18.2257 35.4784 19.2445 35.0056L19.8172 34.7393L19.7107 35.3652C19.6774 35.5716 19.6574 35.7581 19.6574 35.9179C19.6574 38.3218 20.4431 40.2729 22.0613 41.891C25.4574 45.2871 32.0697 46.1927 35.4458 46.1927C37.4702 46.1927 39.015 45.973 40.5067 45.7599C41.7585 45.5801 42.9438 45.4136 44.2357 45.4136C47.6451 45.4136 48.3643 46.1594 48.3643 46.7787C48.3643 47.1183 48.2644 47.2781 48.1711 47.4113C48.1245 47.4712 48.1112 47.4912 48.1112 47.6444C48.1712 47.8375 49.15 48.257 50.1089 48.257C50.282 48.257 50.4618 48.2503 50.6749 48.2237L51.0478 48.1771V50.1948L50.9479 50.2946C50.2621 50.9805 49.3498 51.3401 48.2977 51.3401L48.2844 51.3334ZM45.0081 46.3592H45.3544L45.3411 46.7055C45.3078 47.6577 45.381 49.3357 45.7073 49.7686C46.1069 50.3013 47.3854 50.6675 48.2844 50.6675C49.1167 50.6675 49.8159 50.4145 50.362 49.9084V48.9096C50.2687 48.9096 50.1822 48.9162 50.0889 48.9162C49.1367 48.9162 47.4253 48.4901 47.4253 47.6377C47.4253 47.2981 47.5252 47.1383 47.6185 47.0051C47.6651 46.9452 47.6784 46.9252 47.6784 46.772C47.6784 46.6322 47.0658 46.0729 44.2157 46.0729C42.9705 46.0729 41.8118 46.2393 40.5799 46.4125C39.1349 46.6189 37.4901 46.8519 35.4192 46.8519C31.9432 46.8519 25.1111 45.9064 21.5619 42.3571C19.8372 40.6325 18.9648 38.4683 18.9648 35.9179C18.9648 35.8979 18.9648 35.8713 18.9648 35.8513C18.1525 36.2242 17.2934 36.6238 16.4278 37.0299C16.3878 38.2485 16.5343 39.5271 16.8673 40.8322C17.0937 41.7179 17.4466 42.5569 17.9194 43.3094C19.5708 45.9463 22.4608 47.2848 24.6183 47.651C26.7425 48.0173 31.1042 48.3769 34.3205 48.0572L34.3338 48.0372H34.5402C35.2993 47.9507 35.9852 47.8242 36.5379 47.6577C39.7875 46.6921 43.1236 46.3525 44.9948 46.3525L45.0081 46.3592Z" fill="black"/>
<path d="M3.38328 44.8949L3.14355 37.6299L3.15687 37.5766C3.62966 35.9319 6.30657 34.0607 11.8269 31.5036C12.5127 31.184 13.2452 30.8577 14.0044 30.5248C15.8356 29.719 17.76 28.88 19.4314 28.1941L20.1905 27.8812C23.9462 26.3562 25.0516 26.1831 25.551 26.3829C25.7508 26.4894 25.884 26.616 25.9972 26.7824C26.4433 27.435 26.4966 28.6669 26.1304 30.0919C25.7974 31.3971 25.0449 32.9886 23.9396 33.5413C23.3602 33.8343 22.1483 34.387 20.6167 35.0928L19.5047 35.6056C18.4859 36.0784 17.3738 36.5911 16.2551 37.1172C14.0443 38.156 12.293 39.0017 10.9079 39.7075C10.282 40.0271 9.70931 40.3268 9.20989 40.6065C8.85696 40.7996 8.53067 40.986 8.2177 41.1658C5.36766 42.8239 4.03586 44.0026 4.03586 44.8815L3.36996 44.8949H3.38328ZM3.81611 37.7165L4.00256 43.4565C4.67512 42.6508 5.92701 41.7385 7.89141 40.5998C8.20438 40.42 8.53733 40.2269 8.89692 40.0271C9.403 39.7475 9.98233 39.4412 10.6149 39.1215C12.0067 38.409 13.758 37.5633 15.9821 36.5179C17.1074 35.9918 18.2195 35.4791 19.2383 35.0063L20.3504 34.4935C21.8753 33.7943 23.0805 33.235 23.6532 32.9486C24.399 32.5757 25.1249 31.3904 25.4978 29.9321C25.8041 28.7335 25.7908 27.6481 25.4578 27.1686C25.4045 27.0887 25.3379 27.0288 25.2714 26.9889C25.0383 26.8956 23.9795 27.0688 20.4436 28.5071L19.771 28.7801C18.0863 29.4727 16.0487 30.365 14.2707 31.1374C13.5116 31.4703 12.7858 31.7966 12.1065 32.1096C8.82367 33.6279 4.40876 35.852 3.80945 37.7098L3.81611 37.7165Z" fill="black"/>
<path d="M17.7604 49.8691H17.594C15.3765 49.8691 13.2456 49.6494 11.2746 49.2165L10.7818 49.11L11.0748 48.6971C11.1148 48.6372 11.228 48.4308 11.228 48.2443C11.228 44.3555 10.8084 41.7718 10.8018 41.7452C10.7951 41.7252 10.4355 40.44 10.4355 39.4079V39.2014L10.6153 39.1082C12.0071 38.3957 13.7584 37.55 15.9825 36.5045L16.4886 36.2715L16.4619 36.8242C16.3953 38.096 16.5418 39.4478 16.8881 40.8262C17.1145 41.7119 17.4674 42.5509 17.9402 43.3034L17.9868 43.3833V43.4765C17.9935 43.6829 18.1267 48.4974 18.1267 48.8903C18.1267 49.3764 17.8869 49.7027 17.8603 49.7359L17.7604 49.8691ZM11.8273 48.6505C13.5786 49.0035 15.4498 49.1899 17.4008 49.2032C17.4341 49.1233 17.4608 49.0168 17.4608 48.8903C17.4608 48.5373 17.3409 44.2623 17.3276 43.5897C16.8415 42.7973 16.4752 41.925 16.2422 40.9994C15.9225 39.7475 15.7694 38.5222 15.7761 37.3502C13.8849 38.2359 12.3533 38.9817 11.1081 39.6143C11.1481 40.5199 11.4477 41.592 11.4544 41.6053C11.4677 41.6653 11.9005 44.3022 11.9005 48.2443C11.9005 48.3908 11.8739 48.5307 11.8339 48.6505H11.8273Z" fill="black"/>
<path d="M16.9209 49.8754L17.3271 49.3427C17.3271 49.3427 17.4603 49.1496 17.4603 48.8966C17.4603 48.517 17.3271 43.556 17.3204 43.5028L17.2871 42.2842L17.9331 43.323C19.5845 45.9599 22.4745 47.2984 24.632 47.6646C26.7962 48.0375 31.2843 48.4038 34.5139 48.0509L37.1376 47.7645L34.6671 48.6901C34.5472 48.7367 31.5906 49.7889 17.6001 49.8754H16.9209ZM18.0196 44.5749C18.0596 46.0731 18.1262 48.6235 18.1262 48.8966C18.1262 49.0098 18.1129 49.1096 18.0929 49.2029C23.2403 49.1629 26.8228 48.9898 29.2933 48.7967C27.4088 48.7034 25.6508 48.5103 24.5188 48.3172C22.4811 47.9643 19.8242 46.799 18.013 44.5682L18.0196 44.5749Z" fill="black"/>
<path d="M11.4868 49.2639L11.2737 49.2173C6.38601 48.1452 3.38281 45.9677 3.38281 44.8823C3.38281 43.697 4.68797 42.4518 7.89094 40.5939L8.01081 40.5273L11.4202 41.433L11.4535 41.6461C11.4535 41.6461 11.8863 44.303 11.8863 48.2518C11.8863 48.6913 11.64 49.0508 11.6067 49.0908L11.4801 49.2706L11.4868 49.2639ZM8.11069 41.2399C5.34055 42.858 4.04871 44.0167 4.04871 44.8823C4.04871 45.3018 6.27947 47.3861 11.1672 48.5115C11.2005 48.4316 11.2271 48.3383 11.2271 48.2451C11.2271 44.9889 10.9341 42.6516 10.8342 41.959L8.11069 41.2399Z" fill="black"/>
<path d="M30.5324 24.332C29.5802 24.8381 28.3083 25.524 26.6503 26.4363C26.3373 26.6094 26.031 26.7892 25.738 26.9756C25.6581 26.8558 25.5582 26.7626 25.4383 26.696C24.9056 26.4829 23.1077 27.0622 20.3242 28.1942C23.9201 24.7782 30.5324 24.3387 30.5324 24.3387V24.332Z" fill="black"/>
<path d="M18.8258 29.1598L20.0977 27.9479C23.7401 24.4919 30.2327 24.0191 30.5123 23.9991L32.0639 23.8926L30.6855 24.6251C29.7332 25.1311 28.468 25.817 26.8033 26.7226C26.497 26.8891 26.1973 27.0689 25.911 27.2487L25.638 27.4218L25.4582 27.1555C25.4049 27.0756 25.345 27.0156 25.2717 26.9823C25.0387 26.8891 23.9799 27.0623 20.444 28.5006L18.8125 29.1598H18.8258ZM28.7677 24.9047C27.1362 25.1844 24.6724 25.7771 22.5548 26.9823C24.4726 26.3031 25.1851 26.2365 25.5647 26.3897C25.6513 26.4363 25.7312 26.4896 25.7978 26.5495C26.0242 26.4097 26.2506 26.2765 26.4903 26.15C27.356 25.6772 28.1084 25.2643 28.7677 24.9114V24.9047Z" fill="black"/>
<path d="M11.4805 32.4033L11.6469 31.7308C11.6802 31.5909 15.2028 18.0266 26.3899 15.343C26.7429 15.2764 27.0958 15.2498 27.462 15.2631C28.9403 15.2964 30.5451 15.8957 31.9635 16.9478L32.5761 17.4006L31.8303 17.5405C30.978 17.7003 29.2 18.0399 25.8972 20.5836C22.6276 23.1007 19.9773 28.5611 19.9507 28.6144L19.8974 28.6876L19.7776 28.7808C18.0928 29.4734 16.0552 30.3657 14.2772 31.1381C13.5181 31.4711 12.7923 31.7973 12.1131 32.1103L11.4805 32.4033ZM27.3222 15.9223C27.0492 15.9223 26.7828 15.9423 26.5298 15.9889C17.1872 18.233 13.3716 28.4412 12.4993 31.2047C12.9854 30.985 13.4915 30.7585 14.0109 30.5321C15.8354 29.7331 17.7532 28.9007 19.4113 28.2082C19.7176 27.5889 22.308 22.5014 25.491 20.0509C28.1479 18.0066 29.8726 17.334 30.938 17.0544C29.7993 16.3485 28.5807 15.949 27.4421 15.9223C27.4021 15.9223 27.3621 15.9223 27.3155 15.9223H27.3222Z" fill="black"/>
<path d="M33.9417 23.0131L35.2602 22.3539C34.4145 20.3229 33.1493 18.6448 31.5711 17.4795C30.2593 16.5073 28.7943 15.9546 27.4492 15.9213V15.2554C30.0529 15.2155 34.4345 15.9812 35.7996 16.5006C40.4409 18.1121 42.119 22.294 42.1922 22.4737L42.3853 22.9732L41.8459 22.9199C39.7217 22.7201 37.8106 22.6868 36.1525 22.8067L36.1658 22.8467H35.6997L33.9417 23.0131ZM38.1569 22.0742C39.1491 22.0742 40.2078 22.1208 41.3332 22.2074C40.7405 21.0687 39.0026 18.3119 35.5732 17.1199C34.8074 16.8336 32.7498 16.3874 30.6655 16.1277C31.1117 16.3541 31.5445 16.6272 31.964 16.9401C33.6487 18.1854 35.0072 19.9899 35.8995 22.1541C36.6053 22.0942 37.3644 22.0675 38.1569 22.0675V22.0742Z" fill="black"/>
</svg>
