<svg width="60" height="60" viewBox="0 0 60 60" fill="none" xmlns="http://www.w3.org/2000/svg">
<path d="M26.8703 6.12578C28.5953 4.65078 31.4203 4.65078 33.1703 6.12578L37.1203 9.52605C37.8703 10.176 39.2703 10.701 40.2703 10.701H44.5203C47.1703 10.701 49.3453 12.8758 49.3453 15.5258V19.776C49.3453 20.751 49.8703 22.176 50.5203 22.926L53.9203 26.8759C55.3953 28.6009 55.3953 31.426 53.9203 33.176L50.5203 37.1258C49.8703 37.8758 49.3453 39.2759 49.3453 40.2759V44.5261C49.3453 47.176 47.1703 49.3509 44.5203 49.3509H40.2703C39.2953 49.3509 37.8703 49.8758 37.1203 50.5258L33.1703 53.9258C31.4453 55.4008 28.6203 55.4008 26.8703 53.9258L22.9203 50.5258C22.1703 49.8758 20.7703 49.3509 19.7703 49.3509H15.4453C12.7953 49.3509 10.6203 47.176 10.6203 44.5261V40.2508C10.6203 39.2758 10.0953 37.8758 9.47033 37.1258L6.09531 33.1509C4.64531 31.4259 4.64531 28.6259 6.09531 26.9009L9.47033 22.926C10.0953 22.176 10.6203 20.776 10.6203 19.801V15.5258C10.6203 12.8758 12.7953 10.701 15.4453 10.701H19.7703C20.7453 10.701 22.1703 10.176 22.9203 9.52605L26.8703 6.12578Z" stroke="white" stroke-width="3" stroke-linecap="round" stroke-linejoin="round"/>
<path d="M24.7297 37.05L28.3547 39.8499C28.8297 40.3249 29.8797 40.55 30.5797 40.55H35.0047C36.4047 40.55 37.9297 39.5001 38.2797 38.1001L41.0797 29.55C41.6547 27.925 40.6047 26.5 38.8547 26.5H34.1797C33.4797 26.5 32.9047 25.9252 33.0047 25.1002L33.5797 21.3502C33.8047 20.3002 33.1047 19.1251 32.0547 18.7751C31.1297 18.4251 29.9547 18.9 29.4797 19.6L24.6797 26.7249" stroke="white" stroke-width="3" stroke-miterlimit="10"/>
<path d="M18.75 37.049V25.5991C18.75 23.9491 19.45 23.374 21.1 23.374H22.275C23.9 23.374 24.625 23.9491 24.625 25.5991V37.049C24.625 38.674 23.925 39.274 22.275 39.274H21.1C19.45 39.274 18.75 38.699 18.75 37.049Z" stroke="white" stroke-width="3" stroke-linecap="round" stroke-linejoin="round"/>
</svg>
