<svg width="28" height="25" viewBox="0 0 28 25" fill="none" xmlns="http://www.w3.org/2000/svg">
<path d="M1 17.5928C1 14.0368 3.71539 11.0693 7.25747 10.7545L9.33536 10.5698C12.3284 10.3037 15.339 10.3037 18.332 10.5698L20.4068 10.7542C23.9506 11.0692 26.6674 14.0382 26.6674 17.596V18.3382C26.6674 20.9368 24.9598 23.2266 22.4691 23.9677V23.9677C20.3114 24.6098 17.9751 24.0945 16.2877 22.6042L15.0784 21.5362C14.3679 20.9087 13.3008 20.9103 12.5921 21.5398L11.4141 22.5863C9.7245 24.0873 7.37959 24.6094 5.21274 23.9671V23.9671C2.71404 23.2265 1 20.9307 1 18.3245V17.5928Z" stroke="#292D32" stroke-width="1.2"/>
<path d="M6.37891 10.8415V4.92425L13.835 1L21.2911 4.92425V10.8415" stroke="#292D32" stroke-width="1.2" stroke-linecap="round" stroke-linejoin="round"/>
<path d="M6.37109 5.05859L13.8599 9.11591L21.3126 5.05859" stroke="#292D32" stroke-width="1.2" stroke-linejoin="round"/>
<path d="M13.8242 18.2673L13.8242 16.3779" stroke="#292D32" stroke-width="1.2" stroke-linecap="round" stroke-linejoin="round"/>
<path d="M13.8242 13.9486L13.8242 13.0967" stroke="#292D32" stroke-width="1.2" stroke-linecap="round" stroke-linejoin="round"/>
<path d="M19.3281 15.3754L21.2903 14.3427V13.625" stroke="#292D32" stroke-width="1.2" stroke-linecap="round" stroke-linejoin="round"/>
<path d="M11.8711 17.2344L13.8332 18.2671L15.7953 17.2344" stroke="#292D32" stroke-width="1.2" stroke-linecap="round" stroke-linejoin="round"/>
<path d="M8.34103 15.3754L6.37891 14.3427V13.625" stroke="#292D32" stroke-width="1.2" stroke-linecap="round" stroke-linejoin="round"/>
</svg>
