<svg width="30" height="30" viewBox="0 0 30 30" fill="none" xmlns="http://www.w3.org/2000/svg">
<path d="M10.4727 14.9996L13.4852 18.0246L19.5227 11.9746" stroke="#292D32" stroke-width="1.875" stroke-linecap="round" stroke-linejoin="round"/>
<path d="M13.4352 3.06289C14.2977 2.32539 15.7102 2.32539 16.5852 3.06289L18.5602 4.76289C18.9352 5.08789 19.6352 5.35039 20.1352 5.35039H22.2602C23.5852 5.35039 24.6727 6.43789 24.6727 7.76289V9.88789C24.6727 10.3754 24.9352 11.0879 25.2602 11.4629L26.9602 13.4379C27.6977 14.3004 27.6977 15.7129 26.9602 16.5879L25.2602 18.5629C24.9352 18.9379 24.6727 19.6379 24.6727 20.1379V22.2629C24.6727 23.5879 23.5852 24.6754 22.2602 24.6754H20.1352C19.6477 24.6754 18.9352 24.9379 18.5602 25.2629L16.5852 26.9629C15.7227 27.7004 14.3102 27.7004 13.4352 26.9629L11.4602 25.2629C11.0852 24.9379 10.3852 24.6754 9.88516 24.6754H7.72266C6.39766 24.6754 5.31016 23.5879 5.31016 22.2629V20.1254C5.31016 19.6379 5.04766 18.9379 4.73516 18.5629L3.04766 16.5754C2.32266 15.7129 2.32266 14.3129 3.04766 13.4504L4.73516 11.4629C5.04766 11.0879 5.31016 10.3879 5.31016 9.90039V7.75039C5.31016 6.42539 6.39766 5.33789 7.72266 5.33789H9.88516C10.3727 5.33789 11.0852 5.07539 11.4602 4.75039L13.4352 3.06289Z" stroke="#292D32" stroke-width="1.875" stroke-linecap="round" stroke-linejoin="round"/>
</svg>
