<svg width="34" height="34" viewBox="0 0 34 34" fill="none" xmlns="http://www.w3.org/2000/svg">
<g clip-path="url(#clip0_922_6295)">
<path d="M24.0202 24.6496C23.171 24.6493 22.3365 24.4276 21.5991 24.0065L18.5779 22.2802C18.0971 22.0067 17.5534 21.8629 17.0002 21.8629C16.447 21.8629 15.9033 22.0067 15.4225 22.2802L12.401 24.0068C11.6588 24.4308 10.8183 24.6525 9.96358 24.6496C9.10884 24.6467 8.26986 24.4194 7.5306 23.9903C6.79134 23.5613 6.17773 22.9456 5.75119 22.2049C5.32464 21.4642 5.10012 20.6245 5.1001 19.7698V14.2295C5.10156 12.9357 5.61615 11.6953 6.53098 10.7805C7.44582 9.86566 8.68618 9.35107 9.97995 9.34961H24.0202C25.314 9.35107 26.5544 9.86566 27.4692 10.7805C28.384 11.6953 28.8986 12.9357 28.9001 14.2295V19.7698C28.8986 21.0635 28.384 22.3039 27.4692 23.2187C26.5544 24.1336 25.314 24.6482 24.0202 24.6496ZM17.0001 20.1642C17.8491 20.1633 18.6836 20.3839 19.4213 20.8042L22.4427 22.5308C22.9263 22.8071 23.474 22.9516 24.031 22.9497C24.588 22.9479 25.1347 22.7998 25.6165 22.5202C26.0982 22.2406 26.4981 21.8394 26.776 21.3567C27.0539 20.874 27.2002 20.3267 27.2001 19.7698V14.2295C27.1992 13.3864 26.8639 12.5781 26.2677 11.982C25.6716 11.3859 24.8633 11.0505 24.0202 11.0496H9.97995C9.13688 11.0505 8.32861 11.3859 7.73248 11.982C7.13634 12.5781 6.80102 13.3864 6.8001 14.2295V19.7698C6.80009 20.3267 6.94639 20.874 7.22434 21.3566C7.5023 21.8393 7.90216 22.2405 8.3839 22.5201C8.86565 22.7996 9.41237 22.9477 9.96935 22.9496C10.5263 22.9514 11.074 22.8069 11.5576 22.5306L14.5791 20.8042C15.3167 20.3839 16.1512 20.1633 17.0001 20.1642Z" fill="white"/>
<path d="M3.57021 19.8904C3.34478 19.8904 3.12858 19.8008 2.96917 19.6414C2.80977 19.482 2.72021 19.2658 2.72021 19.0404V14.9604C2.72021 14.7349 2.80977 14.5187 2.96917 14.3593C3.12858 14.1999 3.34478 14.1104 3.57021 14.1104C3.79565 14.1104 4.01185 14.1999 4.17126 14.3593C4.33066 14.5187 4.42021 14.7349 4.42021 14.9604V19.0404C4.42021 19.2658 4.33066 19.482 4.17126 19.6414C4.01185 19.8008 3.79565 19.8904 3.57021 19.8904Z" fill="white"/>
<path d="M30.4301 19.8904C30.2046 19.8904 29.9884 19.8008 29.829 19.6414C29.6696 19.482 29.5801 19.2658 29.5801 19.0404V14.9604C29.5801 14.7349 29.6696 14.5187 29.829 14.3593C29.9884 14.1999 30.2046 14.1104 30.4301 14.1104C30.6555 14.1104 30.8717 14.1999 31.0311 14.3593C31.1905 14.5187 31.2801 14.7349 31.2801 14.9604V19.0404C31.2801 19.2658 31.1905 19.482 31.0311 19.6414C30.8717 19.8008 30.6555 19.8904 30.4301 19.8904Z" fill="white"/>
</g>
<defs>
<clipPath id="clip0_922_6295">
<rect width="34" height="34" fill="white"/>
</clipPath>
</defs>
</svg>
