<svg width="60" height="60" viewBox="0 0 60 60" fill="none" xmlns="http://www.w3.org/2000/svg">
<path d="M30 23.749C32.7614 23.749 35 21.5104 35 18.749C35 15.9876 32.7614 13.749 30 13.749C27.2386 13.749 25 15.9876 25 18.749C25 21.5104 27.2386 23.749 30 23.749Z" stroke="#292D32" stroke-width="1.875" stroke-linecap="round" stroke-linejoin="round"/>
<path d="M38.75 32.5C38.75 30.1794 37.8281 27.9538 36.1872 26.3128C34.5462 24.6719 32.3206 23.75 30 23.75C27.6794 23.75 25.4538 24.6719 23.8128 26.3128C22.1719 27.9538 21.25 30.1794 21.25 32.5V36.25H25L26.25 46.25H33.75L35 36.25H38.75V32.5Z" stroke="#292D32" stroke-width="1.875" stroke-linecap="round" stroke-linejoin="round"/>
<path d="M9.82759 16.3731H10.7651C10.7651 15.9599 10.4946 15.5955 10.0991 15.4758L9.82759 16.3731ZM50.1724 16.3731L49.9009 15.4758C49.5054 15.5955 49.2349 15.9599 49.2349 16.3731H50.1724ZM49.2349 51.4344C49.2349 51.9522 49.6546 52.3719 50.1724 52.3719C50.6902 52.3719 51.1099 51.9522 51.1099 51.4344H49.2349ZM8.89009 51.4442C8.89009 51.9619 9.30982 52.3817 9.82759 52.3817C10.3454 52.3817 10.7651 51.9619 10.7651 51.4442H8.89009ZM3.4375 11.1314C3.4375 10.5505 3.86638 9.78116 5.17917 8.9107C6.45569 8.06428 8.3647 7.26569 10.8077 6.58054C15.6807 5.21389 22.4665 4.35645 30 4.35645V2.48145C22.3456 2.48145 15.3814 3.35049 10.3014 4.77519C7.76791 5.48572 5.64963 6.34902 4.14301 7.34801C2.67264 8.32295 1.5625 9.58251 1.5625 11.1314H3.4375ZM30 4.35645C37.5335 4.35645 44.3193 5.21389 49.1923 6.58054C51.6353 7.26569 53.5443 8.06428 54.8208 8.9107C56.1336 9.78116 56.5625 10.5505 56.5625 11.1314H58.4375C58.4375 9.58251 57.3274 8.32295 55.857 7.34801C54.3504 6.34902 52.2321 5.48572 49.6986 4.77519C44.6186 3.35049 37.6544 2.48145 30 2.48145V4.35645ZM10.0991 15.4758C7.87131 14.8018 6.14508 14.0325 4.9965 13.2276C3.82073 12.4036 3.4375 11.682 3.4375 11.1314H1.5625C1.5625 12.6048 2.56928 13.8161 3.92041 14.7631C5.29873 15.729 7.2363 16.5686 9.5561 17.2705L10.0991 15.4758ZM56.5625 11.1314C56.5625 11.682 56.1793 12.4036 55.0035 13.2276C53.8549 14.0325 52.1287 14.8018 49.9009 15.4758L50.4439 17.2705C52.7637 16.5686 54.7013 15.729 56.0796 14.7631C57.4307 13.8161 58.4375 12.6048 58.4375 11.1314H56.5625ZM49.2349 16.3731V51.4344H51.1099V16.3731H49.2349ZM8.89009 16.3731V51.4442H10.7651V16.3731H8.89009Z" fill="#292D32"/>
<path d="M2.5 11.2094V46.2094C2.5 50.4689 14.8122 53.9219 30 53.9219C45.1878 53.9219 57.5 50.4689 57.5 46.2094V11.2504" stroke="#292D32" stroke-width="1.875" stroke-linecap="round"/>
<path d="M57.5 28.3848C57.5 30.4282 54.7314 32.2903 50.1889 33.6922" stroke="#292D32" stroke-width="1.875" stroke-linecap="round"/>
<path d="M14.842 39.9502C13.0056 40.2906 11.3237 40.6912 9.83203 41.1418" stroke="#292D32" stroke-width="1.875" stroke-linecap="round"/>
<path d="M45.1562 39.9502C46.9927 40.2906 48.6746 40.6912 50.1663 41.1418" stroke="#292D32" stroke-width="1.875" stroke-linecap="round"/>
<path d="M17.5039 4.30273V16.8027" stroke="#292D32" stroke-width="1.875" stroke-linecap="round"/>
<path d="M42.5 4.30273V16.8027" stroke="#292D32" stroke-width="1.875" stroke-linecap="round"/>
<path d="M2.5 28.3848C2.5 30.4317 5.27806 32.2967 9.83447 33.6993" stroke="#292D32" stroke-width="1.875" stroke-linecap="round"/>
</svg>
