<svg width="60" height="60" viewBox="0 0 60 60" fill="none" xmlns="http://www.w3.org/2000/svg">
<path d="M55 26.5V31.95C55 40.85 52.775 43.05 43.9 43.05H16.1C7.225 43.05 5 40.825 5 31.95V16.1C5 7.225 7.225 5 16.1 5H34" stroke="#292D32" stroke-width="2" stroke-linecap="round" stroke-linejoin="round"/>
<path d="M30 43.0488V54.9988" stroke="#292D32" stroke-width="2" stroke-linecap="round" stroke-linejoin="round"/>
<path d="M5 32.5H55" stroke="#292D32" stroke-width="2" stroke-linecap="round" stroke-linejoin="round"/>
<path d="M18.75 55H41.25" stroke="#292D32" stroke-width="2" stroke-linecap="round" stroke-linejoin="round"/>
<path d="M48.1784 9.86836C48.0571 9.86032 47.931 9.86075 47.8109 9.86846C45.9953 9.78065 44.5586 8.28484 44.5586 6.44C44.5586 4.54082 46.0923 3 47.9986 3C49.8956 3 51.4375 4.54115 51.4386 6.4379C51.4298 8.285 49.9916 9.77953 48.1784 9.86836Z" stroke="#292D32" stroke-width="2" stroke-linecap="round" stroke-linejoin="round"/>
<path d="M43.7127 19.5974L43.7148 19.5989C44.8909 20.3858 46.5009 20.81 48.1638 20.81C49.8265 20.81 51.4364 20.3858 52.6125 19.599L43.7127 19.5974ZM43.7127 19.5974C42.7114 18.9313 42.3438 18.1518 42.3438 17.4987C42.3438 16.8455 42.7117 16.0633 43.7132 15.3922C44.8951 14.6092 46.5084 14.1875 48.1713 14.1875C49.8353 14.1875 51.4428 14.6098 52.6133 15.3916L52.6148 15.3926M43.7127 19.5974L52.6148 15.3926M52.6148 15.3926C53.6161 16.0587 53.9838 16.8382 53.9838 17.4913M52.6148 15.3926L53.9838 17.4913M53.9838 17.4913C53.9838 18.1449 53.6154 18.9276 52.6127 19.5989L53.9838 17.4913Z" stroke="#292D32" stroke-width="2" stroke-linecap="round" stroke-linejoin="round"/>
</svg>
