<svg width="62" height="59" viewBox="0 0 62 59" fill="none" xmlns="http://www.w3.org/2000/svg">
<path d="M17.7629 25.8564H23.6915M2.49022 51.9369L1.26502 55.6542C0.989969 56.4888 1.61153 57.3481 2.49022 57.3481H59.5545C60.4332 57.3481 61.0548 56.4888 60.7797 55.6542L59.5545 51.937" stroke="#292D32" stroke-width="2" stroke-linecap="round"/>
<path d="M38.4453 25.8564H44.2552" stroke="#292D32" stroke-width="2" stroke-linecap="round"/>
<path d="M9.72117 31.1289C12.4731 31.1289 14.704 28.8979 14.704 26.146C14.704 23.394 12.4731 21.1631 9.72117 21.1631C6.96919 21.1631 4.73828 23.394 4.73828 26.146C4.73828 28.8979 6.96919 31.1289 9.72117 31.1289Z" stroke="#292D32" stroke-width="2" stroke-linecap="round" stroke-linejoin="round"/>
<path d="M52.1548 31.1289C54.9067 31.1289 57.1376 28.8979 57.1376 26.146C57.1376 23.394 54.9067 21.1631 52.1548 21.1631C49.4028 21.1631 47.1719 23.394 47.1719 26.146C47.1719 28.8979 49.4028 31.1289 52.1548 31.1289Z" stroke="#292D32" stroke-width="2" stroke-linecap="round" stroke-linejoin="round"/>
<path d="M31.0203 9.92343C33.4844 9.92343 35.482 7.92585 35.482 5.46172C35.482 2.99758 33.4844 1 31.0203 1C28.5562 1 26.5586 2.99758 26.5586 5.46172C26.5586 7.92585 28.5562 9.92343 31.0203 9.92343Z" stroke="#292D32" stroke-width="2" stroke-linecap="round" stroke-linejoin="round"/>
<path d="M18.4401 39.849C18.4401 37.5363 17.5214 35.3183 15.886 33.6829C14.2507 32.0476 12.0327 31.1289 9.72005 31.1289C7.40735 31.1289 5.18937 32.0476 3.55404 33.6829C1.91872 35.3183 1 37.5363 1 39.849V43.5861H4.73716L5.98288 53.5519H13.4572L14.7029 43.5861H18.4401V39.849Z" stroke="#292D32" stroke-width="2" stroke-linecap="round" stroke-linejoin="round"/>
<path d="M60.9987 39.849C60.9987 37.5363 60.08 35.3183 58.4446 33.6829C56.8093 32.0476 54.5913 31.1289 52.2786 31.1289C49.9659 31.1289 47.748 32.0476 46.1126 33.6829C44.4773 35.3183 43.5586 37.5363 43.5586 39.849V43.5861H47.2958L48.5415 53.5519H56.0158L57.2615 43.5861H60.9987V39.849Z" stroke="#292D32" stroke-width="2" stroke-linecap="round" stroke-linejoin="round"/>
<path d="M38.8269 17.7309C38.8269 15.66 38.0043 13.674 36.54 12.2098C35.0757 10.7455 33.0897 9.92285 31.0189 9.92285C28.9481 9.92285 26.9621 10.7455 25.4978 12.2098C24.0336 13.674 23.2109 15.66 23.2109 17.7309V21.0771H26.5572L27.6727 30.0006H34.3652L35.4807 21.0771H38.8269V17.7309Z" stroke="#292D32" stroke-width="2" stroke-linecap="round" stroke-linejoin="round"/>
</svg>
