<svg width="64" height="60" viewBox="0 0 64 60" fill="none" xmlns="http://www.w3.org/2000/svg">
<path d="M46.4701 0H24.4322V7.00062H17.2915C7.75669 7.00062 0 18.6917 0 33.0709C0 47.4502 7.75669 59.1273 17.2915 59.1273H39.0915C48.3043 59.1273 55.809 47.6742 55.809 33.603V32.2029H38.7975V28.0025H63.9997V26.6024C64.0557 11.9571 56.173 0 46.4701 0ZM17.2915 56.327C9.29683 56.327 2.80025 45.8961 2.80025 33.0709C2.80025 20.9179 8.62477 10.907 16.0314 9.88488V35.0031H31.7128C31.0968 46.9322 24.8662 56.327 17.2915 56.327ZM39.0915 56.327H25.0902C30.3547 52.3087 34.079 44.3279 34.5271 35.0031H52.9807C52.5187 46.7082 46.3441 56.327 39.0915 56.327ZM35.9972 32.2029H18.8317V9.80087H24.4322V28.0025H35.9972V32.2029ZM27.2324 25.2022V3.44431C34.233 4.5364 39.8335 13.7632 40.2816 25.2022H27.2324ZM43.0678 25.2022C42.7178 15.2054 38.6154 6.67859 32.8469 2.80025H46.4281C54.3108 2.80025 60.8354 12.7271 61.2275 25.2022H43.0678Z" fill="#292D32"/>
</svg>
