<svg width="120" height="120" viewBox="0 0 120 120" fill="none" xmlns="http://www.w3.org/2000/svg">
<path d="M5 108.242L23.6707 75.9596C24.5644 74.4145 26.214 73.4629 27.999 73.4629H92.001C93.786 73.4629 95.4356 74.4145 96.3293 75.9596L115 108.242H5Z" stroke="#292D32" stroke-width="4" stroke-linecap="round" stroke-linejoin="round"/>
<path d="M16.0469 89.1289H103.946" stroke="#292D32" stroke-width="4" stroke-linecap="round"/>
<path d="M60 73.457V108.242" stroke="#292D32" stroke-width="4" stroke-linecap="round"/>
<path d="M16.5312 33.4538V35.9316C16.5312 44.7577 22.336 52.5327 30.798 55.041C38.1362 57.2162 46.0774 55.448 51.7995 50.3647L55.7889 46.8207C58.1889 44.6886 61.8028 44.6833 64.209 46.8085L68.3043 50.4254C74.0187 55.4723 81.9308 57.2175 89.2382 55.043C97.673 52.533 103.456 44.7786 103.456 35.9781V33.4644C103.456 21.4155 94.2553 11.3608 82.2538 10.294L75.2275 9.66945C64.209 9.09663 64.3671 9.12695 60.1897 9.12695L59.7974 9.12723C55.62 9.12723 55.7781 9.09736 44.7596 9.67019L37.7333 10.2947C25.7318 11.3616 16.5312 21.4162 16.5312 33.4652" stroke="#292D32" stroke-width="4"/>
<path d="M80.5484 26.1216L74.0647 25.5453C69.4925 25.1389 64.907 24.9311 60.3213 24.9221C55.7356 24.9311 51.15 25.1387 46.5778 25.5451L40.094 26.1215" stroke="#292D32" stroke-width="4" stroke-linecap="round"/>
</svg>
