<svg width="60" height="60" viewBox="0 0 60 60" fill="none" xmlns="http://www.w3.org/2000/svg">
<path d="M30 2.5C14.8122 2.5 2.5 14.8122 2.5 30C2.5 45.1878 14.8122 57.5 30 57.5C43.4804 57.5 54.6953 47.8006 57.0466 35M18.3767 54.062C18.6001 46.7887 20.7027 34.7562 28.6195 39.9833C38.5156 46.5173 36.4243 44.6628 41.901 43.5421C46.2823 42.6455 50.1661 44.894 51.5602 46.1303M6.15139 41.7273C6.31702 37.8894 7.93774 29.265 13.0955 25.4707C19.5428 20.7277 26.4637 23.8763 21.3338 4.3844M50 15L43.5669 19.8617C43.3229 20.0461 42.9271 20.0461 42.6831 19.8617L40 17.834M57.5 17.5C57.5 24.4036 51.9036 30 45 30C38.0964 30 32.5 24.4036 32.5 17.5C32.5 10.5964 38.0964 5 45 5C51.9036 5 57.5 10.5964 57.5 17.5Z" stroke="white" stroke-width="2" stroke-linecap="round"/>
</svg>
