<svg width="64" height="64" viewBox="0 0 64 64" fill="none" xmlns="http://www.w3.org/2000/svg">
<path d="M18.761 28.8569H24.6896M3.48826 54.9374L2.26307 58.6547C1.98802 59.4893 2.60957 60.3486 3.48826 60.3486H60.5526C61.4313 60.3486 62.0528 59.4893 61.7778 58.6547L60.5526 54.9374" stroke="white" strokeWidth="2" stroke-linecap="round"/>
<path d="M39.4453 28.8564H45.2552" stroke="white" strokeWidth="2" stroke-linecap="round"/>
<path d="M10.7212 34.1289C13.4731 34.1289 15.704 31.8979 15.704 29.146C15.704 26.394 13.4731 24.1631 10.7212 24.1631C7.96919 24.1631 5.73828 26.394 5.73828 29.146C5.73828 31.8979 7.96919 34.1289 10.7212 34.1289Z" stroke="white" strokeWidth="2" stroke-linecap="round" stroke-linejoin="round"/>
<path d="M53.1567 34.1289C55.9087 34.1289 58.1396 31.8979 58.1396 29.146C58.1396 26.394 55.9087 24.1631 53.1567 24.1631C50.4047 24.1631 48.1738 26.394 48.1738 29.146C48.1738 31.8979 50.4047 34.1289 53.1567 34.1289Z" stroke="white" strokeWidth="2" stroke-linecap="round" stroke-linejoin="round"/>
<path d="M32.0203 12.9234C34.4844 12.9234 36.482 10.9259 36.482 8.46172C36.482 5.99758 34.4844 4 32.0203 4C29.5562 4 27.5586 5.99758 27.5586 8.46172C27.5586 10.9259 29.5562 12.9234 32.0203 12.9234Z" stroke="white" strokeWidth="2" stroke-linecap="round" stroke-linejoin="round"/>
<path d="M19.4401 42.8485C19.4401 40.5358 18.5214 38.3178 16.886 36.6825C15.2507 35.0471 13.0327 34.1284 10.72 34.1284C8.40735 34.1284 6.18937 35.0471 4.55404 36.6825C2.91872 38.3178 2 40.5358 2 42.8485V46.5856H5.73716L6.98288 56.5514H14.4572L15.7029 46.5856H19.4401V42.8485Z" stroke="white" strokeWidth="2" stroke-linecap="round" stroke-linejoin="round"/>
<path d="M62.0006 42.8485C62.0006 40.5358 61.0819 38.3178 59.4466 36.6825C57.8113 35.0471 55.5933 34.1284 53.2806 34.1284C50.9679 34.1284 48.7499 35.0471 47.1146 36.6825C45.4793 38.3178 44.5605 40.5358 44.5605 42.8485V46.5856H48.2977L49.5434 56.5514H57.0178L58.2635 46.5856H62.0006V42.8485Z" stroke="white" strokeWidth="2" stroke-linecap="round" stroke-linejoin="round"/>
<path d="M39.8289 20.7309C39.8289 18.66 39.0063 16.674 37.542 15.2098C36.0777 13.7455 34.0917 12.9229 32.0209 12.9229C29.9501 12.9229 27.9641 13.7455 26.4998 15.2098C25.0355 16.674 24.2129 18.66 24.2129 20.7309V24.0771H27.5592L28.6746 33.0006H35.3672L36.4826 24.0771H39.8289V20.7309Z" stroke="white" strokeWidth="2" stroke-linecap="round" stroke-linejoin="round"/>
</svg>
