<svg width="59" height="59" viewBox="0 0 59 59" fill="none" xmlns="http://www.w3.org/2000/svg">
<path d="M29.1737 43.4666C32.7344 43.4666 35.6209 40.5801 35.6209 37.0194C35.6209 33.4588 32.7344 30.5723 29.1737 30.5723C25.6131 30.5723 22.7266 33.4588 22.7266 37.0194C22.7266 40.5801 25.6131 43.4666 29.1737 43.4666Z" stroke="#292D32" stroke-width="2" stroke-linecap="round" stroke-linejoin="round"/>
<path d="M40.4973 57.578C40.1286 54.8364 38.7777 52.3216 36.6954 50.5005C34.6131 48.6795 31.9407 47.6758 29.1744 47.6758C26.4081 47.6758 23.7358 48.6795 21.6534 50.5005C19.5711 52.3216 18.2202 54.8364 17.8516 57.578" stroke="#292D32" stroke-width="2" stroke-linecap="round" stroke-linejoin="round"/>
<path d="M46.4534 24.2553C49.0013 24.2553 51.0669 22.1898 51.0669 19.6418C51.0669 17.0939 49.0013 15.0283 46.4534 15.0283C43.9054 15.0283 41.8398 17.0939 41.8398 19.6418C41.8398 22.1898 43.9054 24.2553 46.4534 24.2553Z" stroke="#292D32" stroke-width="2" stroke-linecap="round" stroke-linejoin="round"/>
<path d="M46.4531 11.3516V10.0762" stroke="#292D32" stroke-width="2" stroke-linecap="round" stroke-linejoin="round"/>
<path d="M52.3164 13.7801L53.2185 12.8779" stroke="#292D32" stroke-width="2" stroke-linecap="round" stroke-linejoin="round"/>
<path d="M54.7461 19.6416H56.0215" stroke="#292D32" stroke-width="2" stroke-linecap="round" stroke-linejoin="round"/>
<path d="M52.3164 25.5039L53.2185 26.406" stroke="#292D32" stroke-width="2" stroke-linecap="round" stroke-linejoin="round"/>
<path d="M46.4531 27.9326V29.208" stroke="#292D32" stroke-width="2" stroke-linecap="round" stroke-linejoin="round"/>
<path d="M40.5935 25.5039L39.6914 26.406" stroke="#292D32" stroke-width="2" stroke-linecap="round" stroke-linejoin="round"/>
<path d="M38.166 19.6416H36.8906" stroke="#292D32" stroke-width="2" stroke-linecap="round" stroke-linejoin="round"/>
<path d="M40.5935 13.7801L39.6914 12.8779" stroke="#292D32" stroke-width="2" stroke-linecap="round" stroke-linejoin="round"/>
<path d="M5.81954 30.9206H4.74013C3.87035 30.8134 3.06858 30.3956 2.48251 29.7441C1.89644 29.0925 1.56555 28.2511 1.55078 27.3749C1.5506 26.899 1.64646 26.4279 1.83262 25.9899C2.01878 25.5518 2.29141 25.1559 2.6342 24.8257C2.97699 24.4955 3.38287 24.2379 3.82756 24.0683C4.27225 23.8987 4.7466 23.8206 5.2222 23.8386C5.68985 22.8396 6.47754 22.0254 7.4604 21.5248C8.44326 21.0243 9.56507 20.8661 10.648 21.0753C11.731 21.2845 12.7131 21.8492 13.4388 22.6799C14.1644 23.5106 14.5921 24.5596 14.654 25.6609C15.0406 25.5806 15.4401 25.5875 15.8237 25.681C16.2073 25.7745 16.5653 25.9522 16.8716 26.2013C17.1779 26.4504 17.4248 26.7646 17.5945 27.1211C17.7642 27.4776 17.8524 27.8674 17.8526 28.2622C17.8486 28.6253 17.7712 28.9838 17.625 29.3161C17.4788 29.6485 17.2669 29.9479 17.002 30.1962C16.7371 30.4445 16.4248 30.6367 16.0837 30.7612C15.7426 30.8857 15.3799 30.9399 15.0173 30.9206H5.81838H5.81954Z" stroke="#292D32" stroke-width="2" stroke-linecap="round" stroke-linejoin="round"/>
<path d="M20.3699 19.3067H19.58C18.9435 19.2283 18.3568 18.9225 17.9279 18.4457C17.499 17.9689 17.2569 17.3532 17.2461 16.712C17.246 16.3637 17.3161 16.019 17.4523 15.6984C17.5886 15.3779 17.7881 15.0881 18.0389 14.8465C18.2898 14.6049 18.5868 14.4164 18.9122 14.2922C19.2377 14.1681 19.5848 14.1109 19.9328 14.1241C20.275 13.3931 20.8515 12.7972 21.5707 12.4309C22.29 12.0646 23.1109 11.9488 23.9034 12.102C24.6959 12.2551 25.4146 12.6683 25.9457 13.2762C26.4767 13.8841 26.7897 14.6518 26.8349 15.4577C27.1178 15.3989 27.4103 15.404 27.691 15.4724C27.9717 15.5408 28.2336 15.6709 28.4578 15.8532C28.6819 16.0355 28.8626 16.2654 28.9868 16.5262C29.111 16.7871 29.1755 17.0724 29.1757 17.3613C29.1728 17.627 29.1161 17.8893 29.0091 18.1325C28.9021 18.3758 28.7471 18.5948 28.5532 18.7766C28.3594 18.9583 28.1308 19.099 27.8812 19.1901C27.6316 19.2812 27.3661 19.3208 27.1008 19.3067H20.3691H20.3699Z" stroke="#292D32" stroke-width="2" stroke-linecap="round" stroke-linejoin="round"/>
<path d="M57.3477 48.5024L55.125 47.9434" stroke="#292D32" stroke-width="2" stroke-linecap="round"/>
<path d="M49.9128 46.5664C49.0542 46.3505 48.1952 46.149 47.3359 45.9619" stroke="#292D32" stroke-width="2" stroke-linecap="round"/>
<path d="M42.1491 44.9407C40.5974 44.6787 39.045 44.4638 37.4922 44.2959" stroke="#292D32" stroke-width="2" stroke-linecap="round"/>
<path d="M16.2148 44.9406C17.7664 44.6787 19.3188 44.4638 20.8716 44.2959" stroke="#292D32" stroke-width="2" stroke-linecap="round"/>
<path d="M57.3516 0.999664L55.1255 1.55957" stroke="#292D32" stroke-width="2" stroke-linecap="round"/>
<path d="M49.8281 2.96284C48.9694 3.17881 48.1104 3.38033 47.2511 3.56738" stroke="#292D32" stroke-width="2" stroke-linecap="round"/>
<path d="M42.1367 4.56541C33.499 6.02378 24.8383 6.02377 16.2006 4.56539" stroke="#292D32" stroke-width="2" stroke-linecap="round"/>
<path d="M8.43872 2.9404C9.29736 3.15637 10.1563 3.35787 11.0156 3.54492" stroke="#292D32" stroke-width="2" stroke-linecap="round"/>
<path d="M0.999916 1.00344L3.22266 1.5625" stroke="#292D32" stroke-width="2" stroke-linecap="round"/>
<path d="M8.52344 46.543C9.38212 46.327 10.2411 46.1255 11.1005 45.9385" stroke="#292D32" stroke-width="2" stroke-linecap="round"/>
<path d="M1 48.5052L3.2261 47.9453" stroke="#292D32" stroke-width="2" stroke-linecap="round"/>
</svg>
