<svg width="44" height="44" viewBox="0 0 44 44" fill="none" xmlns="http://www.w3.org/2000/svg">
<path d="M22.1199 31.9469C24.5679 31.9469 26.5523 29.9624 26.5523 27.5145C26.5523 25.0665 24.5679 23.082 22.1199 23.082C19.672 23.082 17.6875 25.0665 17.6875 27.5145C17.6875 29.9624 19.672 31.9469 22.1199 31.9469Z" stroke="black" stroke-width="1.25" stroke-linecap="round" stroke-linejoin="round"/>
<path d="M29.9049 41.6486C29.6514 39.7637 28.7227 38.0348 27.2911 36.7828C25.8595 35.5309 24.0222 34.8408 22.1204 34.8408C20.2186 34.8408 18.3813 35.5309 16.9497 36.7828C15.5181 38.0348 14.5894 39.7637 14.3359 41.6486" stroke="black" stroke-width="1.25" stroke-linecap="round" stroke-linejoin="round"/>
<path d="M33.996 18.7391C35.7477 18.7391 37.1678 17.319 37.1678 15.5673C37.1678 13.8156 35.7477 12.3955 33.996 12.3955C32.2443 12.3955 30.8242 13.8156 30.8242 15.5673C30.8242 17.319 32.2443 18.7391 33.996 18.7391Z" stroke="black" stroke-width="1.25" stroke-linecap="round" stroke-linejoin="round"/>
<path d="M34 9.86706V8.99023" stroke="black" stroke-width="1.25" stroke-linecap="round" stroke-linejoin="round"/>
<path d="M38.0312 11.5362L38.6515 10.916" stroke="black" stroke-width="1.25" stroke-linecap="round" stroke-linejoin="round"/>
<path d="M39.6992 15.5674H40.576" stroke="black" stroke-width="1.25" stroke-linecap="round" stroke-linejoin="round"/>
<path d="M38.0312 19.5977L38.6515 20.2179" stroke="black" stroke-width="1.25" stroke-linecap="round" stroke-linejoin="round"/>
<path d="M34 21.2666V22.1434" stroke="black" stroke-width="1.25" stroke-linecap="round" stroke-linejoin="round"/>
<path d="M29.9718 19.5977L29.3516 20.2179" stroke="black" stroke-width="1.25" stroke-linecap="round" stroke-linejoin="round"/>
<path d="M28.3026 15.5674H27.4258" stroke="black" stroke-width="1.25" stroke-linecap="round" stroke-linejoin="round"/>
<path d="M29.9718 11.5362L29.3516 10.916" stroke="black" stroke-width="1.25" stroke-linecap="round" stroke-linejoin="round"/>
<path d="M6.06368 23.3207H5.32158C4.72361 23.247 4.17239 22.9598 3.76947 22.5118C3.36655 22.0639 3.13906 21.4855 3.12891 20.8831C3.12878 20.5558 3.19468 20.232 3.32267 19.9308C3.45065 19.6297 3.63809 19.3575 3.87376 19.1305C4.10942 18.9035 4.38847 18.7264 4.69419 18.6098C4.99992 18.4932 5.32603 18.4394 5.653 18.4518C5.97452 17.7651 6.51605 17.2052 7.19177 16.8611C7.86749 16.517 8.63873 16.4082 9.38326 16.5521C10.1278 16.6959 10.803 17.0842 11.3019 17.6552C11.8008 18.2263 12.0948 18.9476 12.1374 19.7047C12.4031 19.6495 12.6778 19.6542 12.9416 19.7185C13.2053 19.7828 13.4514 19.905 13.6619 20.0762C13.8725 20.2475 14.0423 20.4635 14.159 20.7086C14.2757 20.9536 14.3363 21.2216 14.3364 21.4931C14.3337 21.7427 14.2804 21.9891 14.1799 22.2176C14.0794 22.4461 13.9337 22.652 13.7516 22.8227C13.5695 22.9934 13.3548 23.1256 13.1203 23.2111C12.8858 23.2967 12.6364 23.334 12.3871 23.3207H6.06288H6.06368Z" stroke="black" stroke-width="1.25" stroke-linecap="round" stroke-linejoin="round"/>
<path d="M16.0656 15.3374H15.5226C15.085 15.2835 14.6816 15.0732 14.3867 14.7454C14.0919 14.4177 13.9254 13.9943 13.918 13.5535C13.9179 13.3141 13.9661 13.0771 14.0598 12.8567C14.1534 12.6363 14.2906 12.4371 14.463 12.271C14.6355 12.1049 14.8397 11.9753 15.0634 11.8899C15.2872 11.8046 15.5258 11.7653 15.7651 11.7743C16.0004 11.2718 16.3967 10.8621 16.8911 10.6103C17.3856 10.3584 17.95 10.2789 18.4949 10.3841C19.0397 10.4894 19.5338 10.7735 19.8989 11.1914C20.264 11.6093 20.4792 12.1371 20.5103 12.6912C20.7048 12.6508 20.9058 12.6543 21.0988 12.7013C21.2918 12.7483 21.4719 12.8377 21.626 12.9631C21.7801 13.0884 21.9043 13.2465 21.9897 13.4258C22.0751 13.6052 22.1195 13.8013 22.1196 13.9999C22.1175 14.1826 22.0786 14.3629 22.005 14.5302C21.9315 14.6974 21.8249 14.848 21.6916 14.9729C21.5584 15.0979 21.4012 15.1946 21.2296 15.2572C21.058 15.3198 20.8755 15.3471 20.6931 15.3374H16.065H16.0656Z" stroke="black" stroke-width="1.25" stroke-linecap="round" stroke-linejoin="round"/>
<path d="M41.4891 35.4088L39.9609 35.0244" stroke="black" stroke-width="1.25" stroke-linecap="round"/>
<path d="M36.3771 34.0777C35.7868 33.9292 35.1962 33.7907 34.6055 33.6621" stroke="black" stroke-width="1.25" stroke-linecap="round"/>
<path d="M31.0415 32.9589C29.9747 32.7788 28.9074 32.631 27.8398 32.5156" stroke="black" stroke-width="1.25" stroke-linecap="round"/>
<path d="M13.207 32.9589C14.2738 32.7788 15.341 32.631 16.4086 32.5156" stroke="black" stroke-width="1.25" stroke-linecap="round"/>
<path d="M41.4922 2.75081L39.9617 3.13574" stroke="black" stroke-width="1.25" stroke-linecap="round"/>
<path d="M36.3203 4.10098C35.73 4.24946 35.1394 4.388 34.5486 4.5166" stroke="black" stroke-width="1.25" stroke-linecap="round"/>
<path d="M31.0312 5.20116C25.0928 6.20379 19.1386 6.20378 13.2002 5.20115" stroke="black" stroke-width="1.25" stroke-linecap="round"/>
<path d="M7.86509 4.08439C8.45541 4.23287 9.04596 4.3714 9.63672 4.5" stroke="black" stroke-width="1.25" stroke-linecap="round"/>
<path d="M2.75312 2.75334L4.28125 3.1377" stroke="black" stroke-width="1.25" stroke-linecap="round"/>
<path d="M7.92187 34.0611C8.51222 33.9127 9.1028 33.7741 9.69358 33.6455" stroke="black" stroke-width="1.25" stroke-linecap="round"/>
<path d="M2.75 35.4113L4.28044 35.0264" stroke="black" stroke-width="1.25" stroke-linecap="round"/>
</svg>
