<svg width="64" height="64" viewBox="0 0 64 64" fill="none" xmlns="http://www.w3.org/2000/svg">
<path d="M32.1757 46.4666C35.7363 46.4666 38.6228 43.5801 38.6228 40.0194C38.6228 36.4588 35.7363 33.5723 32.1757 33.5723C28.615 33.5723 25.7285 36.4588 25.7285 40.0194C25.7285 43.5801 28.615 46.4666 32.1757 46.4666Z" stroke="white" strokeWidth="2" stroke-linecap="round" stroke-linejoin="round"/>
<path d="M43.4973 60.578C43.1286 57.8364 41.7777 55.3216 39.6954 53.5005C37.6131 51.6795 34.9407 50.6758 32.1744 50.6758C29.4081 50.6758 26.7358 51.6795 24.6534 53.5005C22.5711 55.3216 21.2202 57.8364 20.8516 60.578" stroke="white" strokeWidth="2" stroke-linecap="round" stroke-linejoin="round"/>
<path d="M49.4553 27.2553C52.0033 27.2553 54.0688 25.1898 54.0688 22.6418C54.0688 20.0939 52.0033 18.0283 49.4553 18.0283C46.9073 18.0283 44.8418 20.0939 44.8418 22.6418C44.8418 25.1898 46.9073 27.2553 49.4553 27.2553Z" stroke="white" strokeWidth="2" stroke-linecap="round" stroke-linejoin="round"/>
<path d="M49.4551 14.3516V13.0762" stroke="white" strokeWidth="2" stroke-linecap="round" stroke-linejoin="round"/>
<path d="M55.3164 16.7801L56.2185 15.8779" stroke="white" strokeWidth="2" stroke-linecap="round" stroke-linejoin="round"/>
<path d="M57.7441 22.6426H59.0195" stroke="white" strokeWidth="2" stroke-linecap="round" stroke-linejoin="round"/>
<path d="M55.3164 28.5039L56.2185 29.406" stroke="white" strokeWidth="2" stroke-linecap="round" stroke-linejoin="round"/>
<path d="M49.4551 30.9316V32.207" stroke="white" strokeWidth="2" stroke-linecap="round" stroke-linejoin="round"/>
<path d="M43.5935 28.5039L42.6914 29.406" stroke="white" strokeWidth="2" stroke-linecap="round" stroke-linejoin="round"/>
<path d="M41.165 22.6426H39.8896" stroke="white" strokeWidth="2" stroke-linecap="round" stroke-linejoin="round"/>
<path d="M43.5935 16.7801L42.6914 15.8779" stroke="white" strokeWidth="2" stroke-linecap="round" stroke-linejoin="round"/>
<path d="M8.81857 33.9206H7.73915C6.86937 33.8134 6.06761 33.3956 5.48154 32.7441C4.89547 32.0925 4.56457 31.2511 4.5498 30.3749C4.54962 29.899 4.64548 29.4279 4.83164 28.9899C5.0178 28.5518 5.29044 28.1559 5.63322 27.8257C5.97601 27.4955 6.3819 27.2379 6.82659 27.0683C7.27128 26.8987 7.74562 26.8206 8.22122 26.8386C8.68888 25.8396 9.47656 25.0254 10.4594 24.5248C11.4423 24.0243 12.5641 23.8661 13.6471 24.0753C14.73 24.2845 15.7121 24.8492 16.4378 25.6799C17.1635 26.5106 17.5911 27.5596 17.653 28.6609C18.0396 28.5806 18.4392 28.5875 18.8228 28.681C19.2063 28.7745 19.5643 28.9522 19.8706 29.2013C20.1769 29.4504 20.4239 29.7646 20.5936 30.1211C20.7633 30.4776 20.8514 30.8674 20.8517 31.2622C20.8476 31.6253 20.7702 31.9838 20.624 32.3161C20.4778 32.6485 20.2659 32.9479 20.001 33.1962C19.7362 33.4445 19.4238 33.6367 19.0827 33.7612C18.7416 33.8857 18.3789 33.9399 18.0163 33.9206H8.8174H8.81857Z" stroke="white" strokeWidth="2" stroke-linecap="round" stroke-linejoin="round"/>
<path d="M23.368 22.3076H22.5781C21.9416 22.2292 21.3549 21.9235 20.926 21.4467C20.4971 20.9699 20.2549 20.3542 20.2441 19.713C20.244 19.3647 20.3142 19.0199 20.4504 18.6994C20.5866 18.3788 20.7861 18.0891 21.037 17.8475C21.2878 17.6058 21.5849 17.4173 21.9103 17.2932C22.2357 17.1691 22.5828 17.1119 22.9309 17.1251C23.2731 16.3941 23.8495 15.7982 24.5688 15.4319C25.288 15.0656 26.109 14.9498 26.9015 15.1029C27.694 15.2561 28.4127 15.6693 28.9437 16.2772C29.4747 16.885 29.7877 17.6528 29.833 18.4586C30.1159 18.3999 30.4083 18.4049 30.689 18.4734C30.9697 18.5418 31.2316 18.6718 31.4558 18.8541C31.68 19.0364 31.8607 19.2664 31.9849 19.5272C32.1091 19.7881 32.1736 20.0733 32.1738 20.3623C32.1708 20.628 32.1141 20.8903 32.0072 21.1335C31.9002 21.3767 31.7451 21.5958 31.5513 21.7776C31.3574 21.9593 31.1288 22.0999 30.8792 22.191C30.6296 22.2821 30.3642 22.3218 30.0989 22.3076H23.3671H23.368Z" stroke="white" strokeWidth="2" stroke-linecap="round" stroke-linejoin="round"/>
<path d="M60.3497 51.5024L58.127 50.9434" stroke="white" strokeWidth="2" stroke-linecap="round"/>
<path d="M52.9119 49.5655C52.0532 49.3495 51.1942 49.148 50.335 48.9609" stroke="white" strokeWidth="2" stroke-linecap="round"/>
<path d="M45.1491 47.9397C43.5974 47.6777 42.045 47.4628 40.4922 47.2949" stroke="white" strokeWidth="2" stroke-linecap="round"/>
<path d="M19.2139 47.9397C20.7655 47.6777 22.3178 47.4628 23.8706 47.2949" stroke="white" strokeWidth="2" stroke-linecap="round"/>
<path d="M60.3496 4.00064L58.1235 4.56055" stroke="white" strokeWidth="2" stroke-linecap="round"/>
<path d="M52.8291 5.96284C51.9704 6.17881 51.1114 6.38033 50.2521 6.56738" stroke="white" strokeWidth="2" stroke-linecap="round"/>
<path d="M45.1367 7.56541C36.499 9.02378 27.8383 9.02377 19.2006 7.56539" stroke="white" strokeWidth="2" stroke-linecap="round"/>
<path d="M11.4387 5.9404C12.2974 6.15637 13.1563 6.35787 14.0156 6.54492" stroke="white" strokeWidth="2" stroke-linecap="round"/>
<path d="M3.99992 4.00344L6.22266 4.5625" stroke="white" strokeWidth="2" stroke-linecap="round"/>
<path d="M11.5215 49.542C12.3802 49.3261 13.2392 49.1246 14.0985 48.9375" stroke="white" strokeWidth="2" stroke-linecap="round"/>
<path d="M4 51.5052L6.2261 50.9453" stroke="white" strokeWidth="2" stroke-linecap="round"/>
</svg>
