<svg width="60" height="61" viewBox="0 0 60 61" fill="none" xmlns="http://www.w3.org/2000/svg">
<path d="M20.058 19.3223L3.12926 28.9305C2.34677 29.3746 1.86328 30.205 1.86328 31.1047V42.1449C1.86328 43.0447 2.34677 43.875 3.12927 44.3192L28.6891 58.8261C29.4544 59.2605 30.3918 59.2605 31.1571 58.8261L56.717 44.3192C57.4995 43.875 57.983 43.0447 57.983 42.1449V31.1047C57.983 30.205 57.4995 29.3746 56.717 28.9305L50.0764 25.1615" stroke="white" stroke-width="1.875" stroke-linecap="round" stroke-linejoin="round"/>
<path d="M1.86328 37.3516L28.6891 52.577C29.4544 53.0114 30.3918 53.0114 31.1571 52.577L57.983 37.3516" stroke="white" stroke-width="1.875" stroke-linejoin="round"/>
<path d="M57.9844 30.2754L29.9245 46.2012L1.86469 30.2754" stroke="white" stroke-width="1.875" stroke-linejoin="round"/>
<path d="M29.918 58.9028V46.2012" stroke="white" stroke-width="1.875" stroke-linejoin="round"/>
<path d="M45.0031 5.08398V23.3619C45.0031 24.8426 43.0222 26.1383 40.0625 26.848" stroke="white" stroke-width="1.875" stroke-linecap="round"/>
<ellipse cx="34.8419" cy="5.08519" rx="10.1544" ry="4.06175" stroke="white" stroke-width="1.875"/>
<path d="M37.5965 31.5414C38.1472 32.4777 38.5115 33.657 37.756 34.4375C36.286 35.9562 32.5991 37.0332 28.2833 37.0332C23.9675 37.0332 20.2806 35.9562 18.8105 34.4375C18.055 33.657 18.4193 32.4777 18.9701 31.5414L28.2833 15.709L37.5965 31.5414Z" stroke="white" stroke-width="1.875" stroke-linejoin="round"/>
<path d="M24.6875 5.08398V15.3997" stroke="white" stroke-width="1.875" stroke-linecap="round"/>
</svg>
