<svg width="60" height="60" viewBox="0 0 60 60" fill="none" xmlns="http://www.w3.org/2000/svg">
<path d="M35.7785 43.9095C40.3355 43.9095 44.0296 40.2154 44.0296 35.6584C44.0296 31.1014 40.3355 27.4072 35.7785 27.4072C31.2215 27.4072 27.5273 31.1014 27.5273 35.6584C27.5273 40.2154 31.2215 43.9095 35.7785 43.9095Z" stroke="white" stroke-width="1.875" stroke-linecap="round" stroke-linejoin="round"/>
<path d="M31.9337 28.3563L25.1215 16.0918L15.9727 34.0089H27.6915" stroke="white" stroke-width="1.875" stroke-linecap="round" stroke-linejoin="round"/>
<path d="M48.4218 48.1435L57.7773 57.4989" stroke="white" stroke-width="1.875" stroke-linecap="round" stroke-linejoin="round"/>
<path d="M11.5782 11.8565L2.22274 2.50107" stroke="white" stroke-width="1.875" stroke-linecap="round" stroke-linejoin="round"/>
<path d="M11.5782 48.1435L2.22274 57.4989" stroke="white" stroke-width="1.875" stroke-linecap="round" stroke-linejoin="round"/>
<path d="M48.4218 11.8565L57.7773 2.50107" stroke="white" stroke-width="1.875" stroke-linecap="round" stroke-linejoin="round"/>
<path d="M57.7812 41.9475L57.7813 18.0538" stroke="white" stroke-width="1.875" stroke-linecap="round" stroke-linejoin="round"/>
<path d="M17.1169 57.498L43.1875 57.4981" stroke="white" stroke-width="1.875" stroke-linecap="round" stroke-linejoin="round"/>
<path d="M2.21875 41.9475L2.21876 18.0538" stroke="white" stroke-width="1.875" stroke-linecap="round" stroke-linejoin="round"/>
<path d="M17.1169 2.50195L43.1875 2.50196" stroke="white" stroke-width="1.875" stroke-linecap="round" stroke-linejoin="round"/>
<path d="M50.6836 57.4989H57.7772V50.4053" stroke="white" stroke-width="1.875" stroke-linecap="round" stroke-linejoin="round"/>
<path d="M9.31641 2.50109L2.22277 2.50109L2.22277 9.59473" stroke="white" stroke-width="1.875" stroke-linecap="round" stroke-linejoin="round"/>
<path d="M9.31641 57.4989H2.22277V50.4053" stroke="white" stroke-width="1.875" stroke-linecap="round" stroke-linejoin="round"/>
<path d="M50.6836 2.50109L57.7772 2.50109L57.7772 9.59473" stroke="white" stroke-width="1.875" stroke-linecap="round" stroke-linejoin="round"/>
</svg>
