<svg width="60" height="60" viewBox="0 0 60 60" fill="none" xmlns="http://www.w3.org/2000/svg">
<path d="M30.3672 41.25V46.5" stroke="white" stroke-width="2.25" stroke-linecap="round" stroke-linejoin="round"/>
<path d="M17.8711 55H42.8711V52.5C42.8711 49.75 40.6211 47.5 37.8711 47.5H22.8711C20.1211 47.5 17.8711 49.75 17.8711 52.5V55V55Z" stroke="white" stroke-width="2.25" stroke-miterlimit="10"/>
<path d="M15.3672 55H45.3672" stroke="white" stroke-width="2.25" stroke-linecap="round" stroke-linejoin="round"/>
<path d="M30 40C20.325 40 12.5 32.175 12.5 22.5V15C12.5 9.475 16.975 5 22.5 5H37.5C43.025 5 47.5 9.475 47.5 15V22.5C47.5 32.175 39.675 40 30 40Z" stroke="white" stroke-width="2.25" stroke-linecap="round" stroke-linejoin="round"/>
<path d="M13.6727 29.123C11.7977 28.523 10.1477 27.423 8.84766 26.123C6.59766 23.623 5.09766 20.623 5.09766 17.123C5.09766 13.623 7.84766 10.873 11.3477 10.873H12.9727C12.4727 12.023 12.2227 13.298 12.2227 14.623V22.123C12.2227 24.623 12.7477 26.973 13.6727 29.123Z" stroke="white" stroke-width="2.25" stroke-linecap="round" stroke-linejoin="round"/>
<path d="M46.3281 29.123C48.2031 28.523 49.8531 27.423 51.1531 26.123C53.4031 23.623 54.9031 20.623 54.9031 17.123C54.9031 13.623 52.1531 10.873 48.6531 10.873H47.0281C47.5281 12.023 47.7781 13.298 47.7781 14.623V22.123C47.7781 24.623 47.2531 26.973 46.3281 29.123Z" stroke="white" stroke-width="2.25" stroke-linecap="round" stroke-linejoin="round"/>
</svg>
