<svg width="60" height="60" viewBox="0 0 60 60" fill="none" xmlns="http://www.w3.org/2000/svg">
<path d="M30.2969 31.9512C30.1219 31.9262 29.8969 31.9262 29.6969 31.9512C25.2969 31.8012 21.7969 28.2012 21.7969 23.7762C21.7969 19.2512 25.4469 15.5762 29.9969 15.5762C34.5219 15.5762 38.1969 19.2512 38.1969 23.7762C38.1719 28.2012 34.6969 31.8012 30.2969 31.9512Z" stroke="#292D32" stroke-width="2" stroke-linecap="round" stroke-linejoin="round"/>
<path d="M46.8562 48.4484C42.4062 52.5234 36.5062 54.9984 30.0062 54.9984C23.5062 54.9984 17.6062 52.5234 13.1562 48.4484C13.4062 46.0984 14.9062 43.7984 17.5812 41.9984C24.4312 37.4484 35.6312 37.4484 42.4312 41.9984C45.1062 43.7984 46.6062 46.0984 46.8562 48.4484Z" stroke="#292D32" stroke-width="2" stroke-linecap="round" stroke-linejoin="round"/>
<path d="M30 55C43.8071 55 55 43.8071 55 30C55 16.1929 43.8071 5 30 5C16.1929 5 5 16.1929 5 30C5 43.8071 16.1929 55 30 55Z" stroke="#292D32" stroke-width="2" stroke-linecap="round" stroke-linejoin="round"/>
</svg>
