<svg width="60" height="60" viewBox="0 0 60 60" fill="none" xmlns="http://www.w3.org/2000/svg">
<path d="M25.1219 6.32619L10.0719 16.1512C5.24688 19.3012 5.24688 26.3512 10.0719 29.5012L25.1219 39.3262C27.8219 41.1012 32.2719 41.1012 34.9719 39.3262L49.9469 29.5012C54.7469 26.3512 54.7469 19.3262 49.9469 16.1762L34.9719 6.35119C32.2719 4.55119 27.8219 4.55119 25.1219 6.32619Z" stroke="#292D32" stroke-width="2" stroke-linecap="round" stroke-linejoin="round"/>
<path d="M14.0797 32.7002L14.0547 44.4252C14.0547 47.6002 16.5047 51.0002 19.5047 52.0002L27.4797 54.6502C28.8547 55.1002 31.1297 55.1002 32.5297 54.6502L40.5047 52.0002C43.5047 51.0002 45.9547 47.6002 45.9547 44.4252V32.8252" stroke="#292D32" stroke-width="2" stroke-linecap="round" stroke-linejoin="round"/>
<path d="M53.4961 37.5V22.5" stroke="#292D32" stroke-width="2" stroke-linecap="round" stroke-linejoin="round"/>
</svg>
