<svg width="60" height="60" viewBox="0 0 60 60" fill="none" xmlns="http://www.w3.org/2000/svg">
<path d="M35.3292 28.3485C36.3042 24.2485 32.7292 20.6734 28.6292 21.6484C26.7042 22.1234 25.1292 23.6984 24.6542 25.6234C23.6792 29.7234 27.2542 33.2984 31.3542 32.3234C33.3042 31.8484 34.8792 30.2735 35.3292 28.3485Z" stroke="#292D32" stroke-width="2" stroke-linecap="round" stroke-linejoin="round"/>
<path d="M45.0273 42.975C49.3023 38.975 51.9773 33.2999 51.9773 26.9749C51.9773 14.8249 42.1273 5 30.0023 5C17.8773 5 8.02734 14.8499 8.02734 26.9749C8.02734 33.3249 10.7273 39.0499 15.0523 43.0499" stroke="#292D32" stroke-width="2" stroke-linecap="round" stroke-linejoin="round"/>
<path d="M20.0063 36.375C17.7063 33.925 16.2812 30.625 16.2812 26.975C16.2812 19.4 22.4313 13.25 30.0063 13.25C37.5813 13.25 43.7313 19.4 43.7313 26.975C43.7313 30.625 42.3063 33.9 40.0063 36.375" stroke="#292D32" stroke-width="2" stroke-linecap="round" stroke-linejoin="round"/>
<path d="M25.7498 41.6512L22.1498 46.1263C19.2998 49.7013 21.8248 54.9762 26.3998 54.9762H33.5748C38.1498 54.9762 40.6998 49.6763 37.8248 46.1263L34.2248 41.6512C32.0748 38.9262 27.9248 38.9262 25.7498 41.6512Z" stroke="#292D32" stroke-width="2" stroke-linecap="round" stroke-linejoin="round"/>
</svg>
