<svg width="58" height="52" viewBox="0 0 58 52" fill="none" xmlns="http://www.w3.org/2000/svg">
<path d="M16.5661 30.5971C18.8723 30.1949 24.029 29.7451 28.8988 29.7451C33.7686 29.7451 38.9253 30.1949 41.2316 30.5971C41.7997 30.6962 42.2723 31.0162 42.5234 31.4679C44.4921 35.0092 45.7593 42.2183 45.702 45.3112C45.6407 48.6199 43.0151 50.5195 39.7009 50.4999C35.5667 50.4755 34.3777 45.3066 33.4987 43.5528H24.2993C23.4203 45.3066 22.231 50.4756 18.0968 50.4999C14.7825 50.5195 12.1569 48.6199 12.0956 45.3112C12.0383 42.2183 13.3055 35.0092 15.2742 31.4679C15.5253 31.0162 15.9979 30.6962 16.5661 30.5971Z" stroke="#292D32" stroke-width="2" stroke-linecap="round" stroke-linejoin="round"/>
<path d="M21.9453 34.3223V38.8583" stroke="#292D32" stroke-width="2" stroke-linecap="round" stroke-linejoin="round"/>
<path d="M24.5664 36.5898L19.3201 36.5898" stroke="#292D32" stroke-width="2" stroke-linecap="round" stroke-linejoin="round"/>
<path d="M29.0312 18.5312V29.6906" stroke="#292D32" stroke-width="2" stroke-linecap="round" stroke-linejoin="round"/>
<path d="M8.43403 12.8632H9.43403C9.43403 12.4084 9.12711 12.0108 8.6871 11.8957L8.43403 12.8632ZM49.3649 12.8632L49.1118 11.8957C48.6718 12.0108 48.3649 12.4084 48.3649 12.8632H49.3649ZM48.3649 28.1669C48.3649 28.7192 48.8126 29.1669 49.3649 29.1669C49.9172 29.1669 50.3649 28.7192 50.3649 28.1669H48.3649ZM7.43403 28.0555C7.43403 28.6078 7.88174 29.0555 8.43403 29.0555C8.98631 29.0555 9.43403 28.6078 9.43403 28.0555H7.43403ZM2 8.2652C2 7.918 2.31954 7.28501 3.68984 6.49942C4.98423 5.75735 6.92372 5.05553 9.40722 4.45332C14.3586 3.25269 21.2506 2.5 28.8995 2.5V0.5C21.1399 0.5 14.0822 1.26175 8.93591 2.50964C6.3706 3.13169 4.2243 3.88765 2.69512 4.76433C1.24183 5.5975 0 6.74424 0 8.2652H2ZM28.8995 2.5C36.5483 2.5 43.4404 3.25269 48.3917 4.45332C50.8752 5.05553 52.8147 5.75735 54.1091 6.49942C55.4794 7.28501 55.7989 7.918 55.7989 8.2652H57.7989C57.7989 6.74424 56.5571 5.5975 55.1038 4.76433C53.5746 3.88765 51.4283 3.13169 48.863 2.50964C43.7167 1.26175 36.659 0.5 28.8995 0.5V2.5ZM8.6871 11.8957C6.42196 11.3032 4.66865 10.6272 3.50513 9.92215C2.28012 9.17985 2 8.59144 2 8.2652H0C0 9.71437 1.13008 10.8215 2.46867 11.6326C3.86876 12.481 5.83246 13.2163 8.18095 13.8306L8.6871 11.8957ZM55.7989 8.2652C55.7989 8.59144 55.5188 9.17985 54.2938 9.92215C53.1303 10.6272 51.377 11.3032 49.1118 11.8957L49.618 13.8306C51.9665 13.2163 53.9302 12.481 55.3302 11.6326C56.6688 10.8215 57.7989 9.71437 57.7989 8.2652H55.7989ZM48.3649 12.8632V28.1669H50.3649V12.8632H48.3649ZM7.43403 12.8632V28.0555H9.43403V12.8632H7.43403Z" fill="#292D32"/>
<path d="M56.7995 8.36861L57.0004 23.5096C57.0004 25.3105 54.0987 26.947 49.3672 28.1592" stroke="#292D32" stroke-width="2" stroke-linecap="round"/>
<path d="M8.44141 20.6097C13.5452 19.2471 20.9102 18.3916 29.0992 18.3916C37.0811 18.3916 44.2802 19.2044 49.3655 20.5073" stroke="#292D32" stroke-width="2" stroke-linecap="round"/>
<path d="M36.3644 38.7834C34.9637 38.7834 33.8281 37.8015 33.8281 36.5904C33.8281 35.3793 34.9637 34.3975 36.3644 34.3975" stroke="#292D32" stroke-width="2"/>
<path d="M36.3672 38.7834C37.768 38.7834 38.9035 37.8015 38.9035 36.5904C38.9035 35.3793 37.768 34.3975 36.3672 34.3975" stroke="#292D32" stroke-width="2"/>
<path d="M1 8.33257L1.20092 23.5095C1.20092 25.2601 3.94303 26.8554 8.44254 28.0566" stroke="#292D32" stroke-width="2" stroke-linecap="round"/>
</svg>
