<svg width="22" height="21" viewBox="0 0 22 21" fill="none" xmlns="http://www.w3.org/2000/svg">
<path d="M4.71471 21V15.4311C3.46458 14.2933 2.59272 12.8115 2.21301 11.1793C1.83329 9.54707 1.96336 7.8403 2.58623 6.28185C3.2091 4.72339 4.29582 3.38569 5.70448 2.44342C7.11314 1.50115 8.77827 0.998119 10.4824 1.00001C11.971 1.00001 13.1907 1.27807 14.2145 1.77789C17.8575 3.55643 19.0211 8.1428 21 13H18.2858V15.6667C18.2858 16.3739 17.9998 17.0522 17.4908 17.5523C16.9818 18.0524 16.2914 18.3333 15.5716 18.3333H14.2145V21" fill="#292D32" fill-opacity="0.1"/>
<path d="M3.71471 21V15.4311C2.46458 14.2933 1.59272 12.8115 1.21301 11.1793C0.833295 9.54707 0.963365 7.8403 1.58623 6.28185C2.2091 4.72339 3.29582 3.38569 4.70448 2.44342C6.11314 1.50115 7.77827 0.998119 9.48242 1.00001C10.971 1.00001 12.1907 1.27807 13.2145 1.77789C16.8575 3.55643 18.0211 8.1428 20 13H17.2858V15.6667C17.2858 16.3739 16.9998 17.0522 16.4908 17.5523C15.9818 18.0524 15.2914 18.3333 14.5716 18.3333H13.2145V21" fill="white" fill-opacity="0.1"/>
<path d="M17.3973 10.7195V8.13047C17.3973 6.85946 18.4276 5.8291 19.6986 5.8291C20.9696 5.8291 22 6.85946 22 8.13047V10.7195C22 11.9905 20.9696 13.0209 19.6986 13.0209C18.4276 13.0209 17.3973 11.9905 17.3973 10.7195Z" fill="#292D32"/>
<path d="M20.2739 9.28125H0.999953" stroke="#292D32" strokeWidth="2" stroke-linecap="round" stroke-linejoin="round"/>
<path d="M8.47949 1.80176L8.47949 9.28121" stroke="#292D32" strokeWidth="2" stroke-linecap="round" stroke-linejoin="round"/>
<circle cx="2.30137" cy="2.30137" r="2.30137" transform="matrix(-1 0 0 1 10.7808 6.98047)" fill="#6A6E73"/>
</svg>
