<svg width="60" height="60" viewBox="0 0 60 60" fill="none" xmlns="http://www.w3.org/2000/svg">
<path d="M36.1016 47.6262L39.9016 51.4262L47.5016 43.8262" stroke="white" stroke-width="3" stroke-linecap="round" stroke-linejoin="round"/>
<path d="M30.3985 27.175C30.1485 27.15 29.8485 27.15 29.5735 27.175C23.6235 26.975 18.8985 22.1 18.8985 16.1C18.8735 9.975 23.8485 5 29.9735 5C36.0985 5 41.0735 9.975 41.0735 16.1C41.0735 22.1 36.3235 26.975 30.3985 27.175Z" stroke="white" stroke-width="3" stroke-linecap="round" stroke-linejoin="round"/>
<path d="M29.9727 54.5242C25.4227 54.5242 20.8977 53.3742 17.4477 51.0742C11.3977 47.0242 11.3977 40.4242 17.4477 36.3992C24.3227 31.7992 35.5977 31.7992 42.4727 36.3992" stroke="white" stroke-width="3" stroke-linecap="round" stroke-linejoin="round"/>
</svg>
