<svg width="60" height="61" viewBox="0 0 60 61" fill="none" xmlns="http://www.w3.org/2000/svg">
<path d="M41.2978 34.4977L42.2242 32.1063C42.3804 31.7015 42.6553 31.3532 43.0128 31.1072C43.3703 30.8611 43.7938 30.7288 44.2278 30.7275H45.9943C46.4283 30.7288 46.8518 30.8611 47.2093 31.1072C47.5668 31.3532 47.8417 31.7015 47.9979 32.1063L48.9243 34.4977L52.0697 36.3073L54.6118 35.9196C55.0351 35.8621 55.4659 35.9318 55.8495 36.1198C56.2331 36.3077 56.5522 36.6055 56.7662 36.9752L57.6279 38.4833C57.8488 38.8589 57.9505 39.2926 57.9197 39.7272C57.889 40.1619 57.7271 40.5769 57.4556 40.9177L55.8829 42.9213V46.5406L57.4987 48.5441C57.7702 48.8849 57.932 49.3 57.9628 49.7346C57.9936 50.1692 57.8918 50.603 57.671 50.9786L56.8093 52.4866C56.5953 52.8564 56.2762 53.1541 55.8926 53.3421C55.509 53.5301 55.0782 53.5997 54.6549 53.5423L52.1128 53.1545L48.9674 54.9642L48.041 57.3555C47.8848 57.7604 47.6099 58.1087 47.2524 58.3547C46.8949 58.6007 46.4714 58.733 46.0374 58.7343H44.2278C43.7938 58.733 43.3703 58.6007 43.0128 58.3547C42.6553 58.1087 42.3804 57.7604 42.2242 57.3555L41.2978 54.9642L38.1524 53.1545L35.6103 53.5423C35.187 53.5997 34.7562 53.5301 34.3726 53.3421C33.989 53.1541 33.6699 52.8564 33.4559 52.4866L32.5942 50.9786C32.3733 50.603 32.2716 50.1692 32.3024 49.7346C32.3331 49.3 32.495 48.8849 32.7665 48.5441L34.3392 46.5406V42.9213L32.7234 40.9177C32.4519 40.5769 32.2901 40.1619 32.2593 39.7272C32.2285 39.2926 32.3303 38.8589 32.5511 38.4833L33.4128 36.9752C33.6268 36.6055 33.9459 36.3077 34.3295 36.1198C34.7131 35.9318 35.1439 35.8621 35.5672 35.9196L38.1093 36.3073L41.2978 34.4977Z" stroke="black" stroke-width="1.875" stroke-linecap="round" stroke-linejoin="round"/>
<circle cx="45.111" cy="44.7312" r="3.71652" stroke="black" stroke-width="1.875" stroke-linecap="round" stroke-linejoin="round"/>
<path d="M56.5128 30.3846C57.549 28.516 58.1289 26.377 58.1289 24.1329V22.5295C58.1289 14.7364 52.1781 8.23321 44.4157 7.54322L39.862 7.13845C33.3029 6.55541 26.7049 6.55541 20.1458 7.13845L15.599 7.54261C7.83267 8.23295 1.87891 14.7394 1.87891 22.5364V24.163C1.87891 29.8578 5.62107 34.8758 11.0794 36.5C15.808 37.9072 20.928 36.7778 24.6259 33.5119L27.276 31.1714C28.131 30.4163 29.2216 30.0768 30.2884 30.1526" stroke="black" stroke-width="1.875" stroke-linecap="round"/>
<path d="M43.2947 14.6437L39.099 14.2707C33.0463 13.7327 26.9579 13.7327 20.9052 14.2707L16.7031 14.6442" stroke="black" stroke-width="1.875" stroke-linecap="round"/>
</svg>
