<svg width="60" height="60" viewBox="0 0 60 60" fill="none" xmlns="http://www.w3.org/2000/svg">
<path d="M23.2734 36.75L27.0234 40.5L37.0234 30.5" stroke="white" stroke-width="3" stroke-linecap="round" stroke-linejoin="round"/>
<path d="M25 15H35C40 15 40 12.5 40 10C40 5 37.5 5 35 5H25C22.5 5 20 5 20 10C20 15 22.5 15 25 15Z" stroke="white" stroke-width="3" stroke-miterlimit="10" stroke-linecap="round" stroke-linejoin="round"/>
<path d="M40 10.0488C48.325 10.4988 52.5 13.5738 52.5 24.9988V39.9988C52.5 49.9988 50 54.9988 37.5 54.9988H22.5C10 54.9988 7.5 49.9988 7.5 39.9988V24.9988C7.5 13.5988 11.675 10.4988 20 10.0488" stroke="white" stroke-width="3" stroke-miterlimit="10" stroke-linecap="round" stroke-linejoin="round"/>
</svg>
