<svg width="64" height="64" viewBox="0 0 64 64" fill="none" xmlns="http://www.w3.org/2000/svg">
<path d="M4.47266 57.5025L6.62675 57.0399M11.6281 55.9244C12.4591 55.746 13.2903 55.5795 14.1218 55.425M51.7792 55.8999C50.9483 55.7215 50.1171 55.555 49.2856 55.4005M58.9991 57.4997L56.8482 57.0378M19.1938 54.5571C19.8225 54.4665 20.4513 54.3827 21.0802 54.3057M44.291 54.5571C43.6624 54.4665 43.0336 54.3827 42.4047 54.3057" stroke="#292D32" stroke-width="2" stroke-linecap="round"/>
<path d="M59 7.20374L56.8459 7.66629M51.7225 8.82533C50.8916 9.00376 50.0604 9.17023 49.2288 9.32477M11.6711 8.80629C12.502 8.9847 13.3332 9.15117 14.1647 9.3057M4.4736 7.20654L6.62444 7.66839M44.2788 10.1491C35.9205 11.3539 27.5399 11.3539 19.1816 10.1491" stroke="#292D32" stroke-width="2" stroke-linecap="round"/>
<path d="M22.5511 25.5669C22.4 24.4339 21.3591 23.6378 20.226 23.7889C19.093 23.94 18.297 24.9809 18.4481 26.1139C18.696 27.9737 19.6603 30.6097 21.7483 32.8091C23.0578 34.1885 24.7798 35.3632 26.9658 36.0693V41.6306L25.7928 53.7271C25.6825 54.8648 26.5153 55.8765 27.653 55.9868C28.7907 56.0972 29.8025 55.2643 29.9128 54.1266L30.9142 43.7997L32.5113 43.7997L33.5126 54.1266C33.6229 55.2643 34.6347 56.0972 35.7724 55.9868C36.9101 55.8765 37.7429 54.8648 37.6326 53.7271L36.4596 41.6293V36.0835C38.6667 35.379 40.4031 34.1977 41.7214 32.8091C43.8094 30.6097 44.7736 27.9737 45.0216 26.1139C45.1727 24.9809 44.3767 23.94 43.2436 23.7889C42.1106 23.6378 41.0697 24.4339 40.9186 25.5669C40.7724 26.6638 40.1401 28.4627 38.7194 29.9592C37.3566 31.3948 35.1893 32.6407 31.7348 32.6407C28.2804 32.6407 26.1131 31.3948 24.7503 29.9592C23.3296 28.4627 22.6973 26.6638 22.5511 25.5669Z" stroke="#292D32" stroke-width="2" stroke-linecap="round" stroke-linejoin="round"/>
<path d="M33.1355 22.2505C32.7141 22.096 32.2587 22.0117 31.7837 22.0117C29.6142 22.0117 27.8555 23.7705 27.8555 25.94C27.8555 28.1095 29.6142 29.8682 31.7837 29.8682C33.7337 29.8682 35.3518 28.4474 35.6593 26.5846" stroke="#292D32" stroke-width="2"/>
<path d="M35.1387 21.6826C35.1387 21.6826 32.1468 21.8513 31.7575 23.9394C31.3683 26.0275 33.2442 27.0385 36.8932 26.4325C37.3652 24.6585 36.4442 22.6324 35.1387 21.6826Z" stroke="#292D32" stroke-width="2" stroke-linecap="round" stroke-linejoin="round"/>
</svg>
