<svg width="31" height="30" viewBox="0 0 31 30" fill="none" xmlns="http://www.w3.org/2000/svg">
<path d="M15 29.375H15.625V28.125H15V29.375ZM27.9086 12.6129L28.0215 13.2276L29.2509 13.0018L29.138 12.3871L27.9086 12.6129ZM9.81306 2.95011C9.80247 2.60509 9.51418 2.33399 9.16917 2.34459C8.82415 2.35519 8.55306 2.64347 8.56365 2.98849L9.81306 2.95011ZM14.3098 10.0086L14.6541 10.5302L14.3098 10.0086ZM20.9505 8.22926L21.0758 7.61695H21.0758L20.9505 8.22926ZM26.1948 7.40279C26.4531 7.17378 26.4768 6.77876 26.2477 6.5205C26.0187 6.26224 25.6237 6.23853 25.3655 6.46754L26.1948 7.40279ZM3.70011 9.10939C3.68523 8.76453 3.3936 8.49703 3.04874 8.51191C2.70389 8.5268 2.43639 8.81842 2.45127 9.16328L3.70011 9.10939ZM6.54777 17.2647L6.17741 17.7681L6.54777 17.2647ZM10.0625 27.6487C9.97463 27.9825 10.174 28.3244 10.5078 28.4122C10.8416 28.5001 11.1835 28.3007 11.2713 27.9669L10.0625 27.6487ZM21.7159 24.1058L21.2217 23.7232L20.4565 24.7116L20.9507 25.0942L21.7159 24.1058ZM23.1417 26L23.5836 25.5581L23.5556 25.53L23.5243 25.5058L23.1417 26ZM28.1 25.125L27.5063 24.9298L27.4992 24.9514L27.4937 24.9734L28.1 25.125ZM29.5 20.8667L28.9114 20.6565L28.9087 20.6639L28.9063 20.6715L29.5 20.8667ZM25.475 18.65L24.8574 18.5535L24.8563 18.5616L25.475 18.65ZM25.7667 16.7833L25.1565 16.6478L25.1522 16.6672L25.1492 16.6868L25.7667 16.7833ZM25.0083 15.5L24.7889 16.0852L24.7997 16.0893L24.8107 16.0929L25.0083 15.5ZM23.725 15.9083L24.2437 16.257L24.245 16.255L23.725 15.9083ZM20.8146 19.118L20.466 19.6367L21.5034 20.334L21.8521 19.8153L20.8146 19.118ZM15 0.625C7.06091 0.625 0.625 7.0609 0.625 15H1.875C1.875 7.75126 7.75126 1.875 15 1.875V0.625ZM0.625 15C0.625 22.9391 7.06091 29.375 15 29.375V28.125C7.75126 28.125 1.875 22.2487 1.875 15H0.625ZM29.138 12.3871C27.9088 5.69548 22.0472 0.625 15 0.625V1.875C21.4331 1.875 26.7864 6.50393 27.9086 12.6129L29.138 12.3871ZM8.56365 2.98849C8.6201 4.82594 8.91262 7.3468 9.74151 9.09996C10.155 9.97457 10.7535 10.7678 11.6304 11.1059C12.5422 11.4575 13.5655 11.249 14.6541 10.5302L13.9654 9.48707C13.0748 10.0751 12.4823 10.0947 12.0801 9.9396C11.6432 9.77111 11.2296 9.323 10.8716 8.56567C10.1573 7.05492 9.86833 4.74933 9.81306 2.95011L8.56365 2.98849ZM14.6541 10.5302C15.8935 9.71194 16.7389 9.16882 17.3584 8.81705C17.9855 8.46097 18.3216 8.33681 18.5529 8.30158C18.7556 8.2707 18.9224 8.29954 19.2658 8.40764C19.611 8.51627 20.1002 8.69322 20.8252 8.84157L21.0758 7.61695C20.4316 7.48513 20.0247 7.33603 19.6411 7.2153C19.2558 7.09404 18.8613 6.99018 18.3647 7.06583C17.8966 7.13712 17.3952 7.35868 16.7411 7.73007C16.0795 8.10577 15.2001 8.67186 13.9654 9.48707L14.6541 10.5302ZM20.8252 8.84157C23.2766 9.34322 25.4117 8.09724 26.1948 7.40279L25.3655 6.46754C24.7544 7.0094 23.0057 8.01188 21.0758 7.61695L20.8252 8.84157ZM2.45127 9.16328C2.495 10.1764 2.72783 11.7943 3.28473 13.4121C3.83801 15.0194 4.74003 16.7107 6.17741 17.7681L6.91813 16.7612C5.77661 15.9215 4.98399 14.5081 4.46667 13.0052C3.95296 11.5129 3.73921 10.0152 3.70011 9.10939L2.45127 9.16328ZM6.17741 17.7681C7.04644 18.4074 7.93497 18.7816 8.65158 19.1101C9.39569 19.4512 9.92762 19.7328 10.3007 20.1742C10.6537 20.5919 10.9207 21.2265 10.9337 22.3893C10.9469 23.5664 10.6985 25.232 10.0625 27.6487L11.2713 27.9669C11.9178 25.5106 12.1987 23.7183 12.1837 22.3754C12.1685 21.0182 11.8499 20.0708 11.2554 19.3674C10.681 18.6877 9.90372 18.309 9.17251 17.9738C8.4138 17.626 7.6609 17.3076 6.91813 16.7612L6.17741 17.7681ZM20.9507 25.0942L22.7591 26.4942L23.5243 25.5058L21.7159 24.1058L20.9507 25.0942ZM22.6997 26.4419C22.9275 26.6697 23.2379 26.7942 23.4804 26.8635C23.7381 26.9371 24.0146 26.975 24.25 26.975V25.725C24.1354 25.725 23.9744 25.7046 23.8238 25.6615C23.7503 25.6405 23.6893 25.617 23.6436 25.5941C23.5955 25.5701 23.5805 25.5549 23.5836 25.5581L22.6997 26.4419ZM24.25 26.975H26.4667V25.725H24.25V26.975ZM26.4667 26.975C26.9665 26.975 27.4579 26.7908 27.8493 26.5044C28.2411 26.2177 28.5766 25.7957 28.7063 25.2766L27.4937 24.9734C27.4484 25.1543 27.3172 25.3448 27.1111 25.4956C26.9046 25.6467 26.6669 25.725 26.4667 25.725V26.975ZM28.6937 25.3202L30.0937 21.0619L28.9063 20.6715L27.5063 24.9298L28.6937 25.3202ZM30.0886 21.0769C30.2961 20.4958 30.2279 19.8946 29.8865 19.4313C29.5481 18.972 28.9983 18.725 28.3917 18.725V19.975C28.6601 19.975 28.8103 20.078 28.8802 20.1728C28.9471 20.2637 28.9956 20.4208 28.9114 20.6565L30.0886 21.0769ZM28.3917 18.725H26.0583V19.975H28.3917V18.725ZM26.0583 18.725C26.058 18.725 26.0609 18.725 26.0658 18.7272C26.0706 18.7294 26.0766 18.7333 26.0822 18.7396C26.0881 18.7463 26.0913 18.7531 26.0925 18.7574C26.0939 18.7619 26.0911 18.7569 26.0937 18.7384L24.8563 18.5616C24.7426 19.3572 25.3389 19.975 26.0583 19.975V18.725ZM26.0925 18.7465L26.3842 16.8798L25.1492 16.6868L24.8575 18.5535L26.0925 18.7465ZM26.3768 16.9189C26.5679 16.0589 26.0126 15.176 25.206 14.9071L24.8107 16.0929C25.0541 16.174 25.1988 16.4577 25.1565 16.6478L26.3768 16.9189ZM25.2278 14.9148C24.8303 14.7657 24.4151 14.7997 24.076 14.9162C23.7411 15.0313 23.4126 15.2503 23.205 15.5616L24.245 16.255C24.2708 16.2164 24.3505 16.1437 24.4823 16.0983C24.6099 16.0545 24.7197 16.0593 24.7889 16.0852L25.2278 14.9148ZM23.2063 15.5597L20.8146 19.118L21.8521 19.8153L24.2437 16.257L23.2063 15.5597ZM18.9818 24.5995V18.8828H17.7318V24.5995H18.9818ZM18.9818 18.8828C18.9818 18.5449 19.0568 18.4826 19.0578 18.4816C19.0711 18.4694 19.163 18.3995 19.5234 18.3995V17.1495C19.0672 17.1495 18.5758 17.2254 18.2099 17.5631C17.8318 17.9122 17.7318 18.404 17.7318 18.8828H18.9818ZM19.5234 18.3995H20.1068V17.1495H19.5234V18.3995ZM20.1068 18.3995C20.4672 18.3995 20.5591 18.4694 20.5724 18.4816C20.5734 18.4826 20.6484 18.5449 20.6484 18.8828H21.8984C21.8984 18.404 21.7984 17.9122 21.4203 17.5631C21.0544 17.2254 20.563 17.1495 20.1068 17.1495V18.3995ZM20.6484 18.8828V24.5995H21.8984V18.8828H20.6484ZM20.6484 24.5995C20.6484 24.9374 20.5734 24.9997 20.5724 25.0006C20.5591 25.0129 20.4672 25.0828 20.1068 25.0828V26.3328C20.563 26.3328 21.0544 26.2569 21.4203 25.9191C21.7984 25.5701 21.8984 25.0782 21.8984 24.5995H20.6484ZM20.1068 25.0828H19.5234V26.3328H20.1068V25.0828ZM19.5234 25.0828C19.163 25.0828 19.0711 25.0129 19.0578 25.0006C19.0568 24.9997 18.9818 24.9374 18.9818 24.5995H17.7318C17.7318 25.0782 17.8318 25.5701 18.2099 25.9191C18.5758 26.2569 19.0672 26.3328 19.5234 26.3328V25.0828Z" fill="#292D32"/>
</svg>
