<svg width="30" height="30" viewBox="0 0 30 30" fill="none" xmlns="http://www.w3.org/2000/svg">
<path d="M17.5 26.875H12.5M15 3.125V4.375M26.25 13.125H25M3.75 13.125H5M23.75 6.875L22.8661 7.75888M6.25 6.875L7.13388 7.75888M8.75 14.375C8.75 10.9232 11.5482 8.125 15 8.125C18.4518 8.125 21.25 10.9232 21.25 14.375C21.25 16.4229 20.2651 18.2407 18.7431 19.3807C18.1289 19.8407 17.8218 20.0707 17.7004 20.2583C17.6381 20.3547 17.6172 20.3964 17.5774 20.5041C17.5 20.7137 17.5 20.9914 17.5 21.5467C17.5 22.4395 17.5 22.886 17.2824 23.2047C17.1946 23.3334 17.0834 23.4446 16.9547 23.5324C16.636 23.75 16.1895 23.75 15.2967 23.75H14.7033C13.8105 23.75 13.364 23.75 13.0453 23.5324C12.9166 23.4446 12.8054 23.3334 12.7176 23.2047C12.5 22.886 12.5 22.4395 12.5 21.5467C12.5 20.9914 12.5 20.7137 12.4226 20.5041C12.3828 20.3964 12.3619 20.3547 12.2996 20.2583C12.1782 20.0707 11.8711 19.8407 11.257 19.3807C9.73494 18.2407 8.75 16.4229 8.75 14.375Z" stroke="#292D32" stroke-linecap="round"/>
</svg>
