<svg width="24" height="24" viewBox="0 0 24 24" fill="none" xmlns="http://www.w3.org/2000/svg">
<path d="M6.21314 20.3646C4.88433 21.1276 3.3865 21.4013 2.49956 21.4995C2.59775 20.6125 2.8714 19.1147 3.63359 17.7851C3.83319 17.4382 3.71327 16.9955 3.36638 16.7959C3.01627 16.5955 2.57602 16.717 2.37722 17.0639C1.01219 19.4447 0.996094 22.1635 0.996094 22.2786C0.996094 22.6786 1.32045 23.0029 1.72046 23.0029C1.83555 23.0029 4.55434 22.9868 6.93509 21.6218C7.28198 21.4222 7.4019 20.9803 7.2023 20.6326C7.00431 20.2858 6.56244 20.165 6.21314 20.3646Z" fill="#292D32"/>
<path d="M23.9997 1.7586C24.0085 1.28293 23.8291 0.837045 23.4942 0.503032C23.1602 0.169019 22.6773 0.00402426 22.2411 0C20.2354 0.037828 14.8252 0.613296 9.70633 5.20819C8.79363 4.85325 7.41814 4.32608 6.37425 4.46049C4.83859 4.65767 2.56972 6.74707 0.347523 8.97651C0.0529478 9.27189 -0.0645604 9.69041 0.0344363 10.0961C0.132628 10.5033 0.430423 10.8228 0.829629 10.9508L4.36293 12.0856C4.09652 12.5718 3.83414 13.0692 3.58061 13.5939C3.26189 14.2539 3.3971 15.0467 3.91704 15.565L8.43467 20.0826C8.76627 20.4151 9.21055 20.5905 9.65885 20.5905C9.91238 20.5905 10.1683 20.535 10.4066 20.4199C10.9313 20.1664 11.4287 19.904 11.9132 19.6384L13.0489 23.1709C13.1769 23.5701 13.4964 23.8679 13.9044 23.9669C13.9986 23.9894 14.0936 24.0007 14.1885 24.0007C14.4984 24.0007 14.797 23.8791 15.024 23.653C17.2534 21.4308 19.3428 19.1627 19.5392 17.6279C19.6752 16.5743 19.1464 15.2069 18.7915 14.2942C23.3856 9.1753 23.9619 3.76509 23.9997 1.7586ZM1.67231 9.70087C2.85142 8.52659 5.41245 6.04524 6.55856 5.89795C7.06964 5.83276 7.87208 6.07502 8.54976 6.3205C7.35295 7.55755 6.19074 9.04009 5.10741 10.8035L1.67231 9.70087ZM9.77636 19.1152C9.67414 19.1651 9.54295 19.1426 9.45924 19.0589L4.94081 14.5404C4.85791 14.4575 4.83457 14.3272 4.88527 14.2233C10.512 2.56828 19.6132 1.49944 22.2693 1.44954H22.2757C22.3715 1.44954 22.4343 1.49219 22.4713 1.52922C22.5019 1.5598 22.5542 1.62741 22.5526 1.73204C22.5011 4.38805 21.4314 13.4893 9.77636 19.1152ZM18.1025 17.4427C17.9553 18.588 15.4739 21.1499 14.2996 22.3282L13.1954 18.8939C14.9604 17.8106 16.4429 16.6475 17.68 15.4507C17.9263 16.1276 18.1685 16.9284 18.1025 17.4427Z" fill="#292D32"/>
<path d="M18.5412 9.75796C19.726 8.57241 19.726 6.64399 18.5412 5.45844C17.3919 4.31073 15.3894 4.31073 14.2417 5.45844C13.6679 6.0323 13.3516 6.79611 13.3516 7.6082C13.3516 8.4203 13.6687 9.1841 14.2417 9.75796C14.8156 10.3318 15.5794 10.6481 16.3915 10.6481C17.2036 10.6481 17.9666 10.3318 18.5412 9.75796ZM17.5159 8.73338C16.9146 9.33541 15.8659 9.33541 15.2663 8.73338C14.9653 8.43317 14.7995 8.03316 14.7995 7.6082C14.7995 7.18324 14.9653 6.78403 15.2663 6.48302C15.5665 6.18281 15.9657 6.01701 16.3907 6.01701C16.8148 6.01701 17.2148 6.18281 17.5151 6.48302C18.1364 7.10356 18.1364 8.11284 17.5159 8.73338Z" fill="#292D32"/>
</svg>
