<svg width="61" height="61" viewBox="0 0 61 61" fill="none" xmlns="http://www.w3.org/2000/svg">
<path d="M50.5716 35.7839C53.5171 35.7839 55.9049 33.396 55.9049 30.4505C55.9049 27.505 53.5171 25.1172 50.5716 25.1172C47.6261 25.1172 45.2383 27.505 45.2383 30.4505C45.2383 33.396 47.6261 35.7839 50.5716 35.7839Z" stroke="#292D32" stroke-width="2" stroke-linecap="round" stroke-linejoin="round"/>
<path d="M59.901 45.1175C59.901 42.6422 58.9177 40.2682 57.1674 38.5179C55.417 36.7675 53.0431 35.7842 50.5677 35.7842C48.0924 35.7842 45.7184 36.7675 43.968 38.5179C42.2177 40.2682 41.2344 42.6422 41.2344 45.1175V49.1175H45.2344L46.5677 59.7842H54.5677L55.901 49.1175H59.901V45.1175Z" stroke="#292D32" stroke-width="2" stroke-linecap="round" stroke-linejoin="round"/>
<path d="M13.3828 15.6201C15.5013 15.6201 17.2187 13.9027 17.2187 11.7842C17.2187 9.66565 15.5013 7.94824 13.3828 7.94824C11.2643 7.94824 9.54688 9.66565 9.54688 11.7842C9.54688 13.9027 11.2643 15.6201 13.3828 15.6201Z" stroke="#292D32" stroke-width="2" stroke-linecap="round" stroke-linejoin="round"/>
<path d="M13.3828 36.9531C15.5013 36.9531 17.2187 35.2357 17.2187 33.1172C17.2187 30.9987 15.5013 29.2812 13.3828 29.2812C11.2643 29.2812 9.54688 30.9987 9.54688 33.1172C9.54688 35.2357 11.2643 36.9531 13.3828 36.9531Z" stroke="#292D32" stroke-width="2" stroke-linecap="round" stroke-linejoin="round"/>
<path d="M39.7109 15.6201C41.8295 15.6201 43.5469 13.9027 43.5469 11.7842C43.5469 9.66565 41.8295 7.94824 39.7109 7.94824C37.5924 7.94824 35.875 9.66565 35.875 11.7842C35.875 13.9027 37.5924 15.6201 39.7109 15.6201Z" stroke="#292D32" stroke-width="2" stroke-linecap="round" stroke-linejoin="round"/>
<path d="M20.0936 22.333C20.0936 20.5526 19.3863 18.8452 18.1274 17.5863C16.8685 16.3274 15.161 15.6201 13.3807 15.6201C11.6003 15.6201 9.89304 16.3274 8.63413 17.5863C7.37522 18.8452 6.66797 20.5526 6.66797 22.333" stroke="#292D32" stroke-width="2" stroke-linecap="round" stroke-linejoin="round"/>
<path d="M20.0936 43.667C20.0936 41.8866 19.3863 40.1792 18.1274 38.9203C16.8685 37.6614 15.161 36.9541 13.3807 36.9541C11.6003 36.9541 9.89304 37.6614 8.63413 38.9203C7.37522 40.1792 6.66797 41.8866 6.66797 43.667" stroke="#292D32" stroke-width="2" stroke-linecap="round" stroke-linejoin="round"/>
<path d="M44.4594 17.5863C43.2005 16.3274 41.4931 15.6201 39.7127 15.6201C37.9323 15.6201 36.2251 16.3274 34.9662 17.5863C33.7072 18.8452 33 20.5526 33 22.333" stroke="#292D32" stroke-width="2" stroke-linecap="round" stroke-linejoin="round"/>
<path d="M51.6667 14.3333V2.81062C51.6667 1.81064 50.856 1 49.856 1H2.81062C1.81064 1 1 1.81064 1 2.81062V41.856C1 42.856 1.81064 43.6667 2.81062 43.6667H33" stroke="#292D32" stroke-width="2" stroke-linecap="round"/>
<path d="M26.332 1V43.6667" stroke="#292D32" stroke-width="2"/>
<path d="M1 22.333H38.3333" stroke="#292D32" stroke-width="2" stroke-linecap="round"/>
</svg>
