<svg width="64" height="64" viewBox="0 0 64 64" fill="none" xmlns="http://www.w3.org/2000/svg">
<path d="M31.5 14.0526C31.0256 14.0526 30.6303 14.0526 30.156 14.1316C29.7607 12.8684 28.5748 12 27.1517 12C25.4124 12 23.9893 13.4211 23.9893 15.1579C23.9893 15.3158 23.9893 15.4737 24.0684 15.6316C17.3483 18.5526 13 25.1842 13 32.5263C13 42.7105 21.3013 51 31.5 51C35.2949 51 38.7735 49.8947 41.6987 47.9211C42.015 48.0789 42.3312 48.1579 42.7265 48.1579C43.9915 48.1579 45.0192 47.1316 45.0192 45.8684C45.0192 45.6316 44.9402 45.3947 44.9402 45.1579C48.0235 41.8421 50 37.421 50 32.5263C50 22.3421 41.6987 14.0526 31.5 14.0526ZM27.1517 13.5789C28.0214 13.5789 28.7329 14.2895 28.7329 15.1579C28.7329 16.0263 28.0214 16.7368 27.1517 16.7368C26.2821 16.7368 25.5705 16.0263 25.5705 15.1579C25.5705 14.2895 26.2821 13.5789 27.1517 13.5789ZM14.5812 32.5263C14.5812 25.8158 18.5342 19.8158 24.7009 17.0526C25.2543 17.8421 26.203 18.3158 27.2308 18.3158C28.812 18.3158 30.0769 17.1316 30.3932 15.6316C30.7885 15.6316 31.1838 15.5526 31.5791 15.5526C40.9081 15.5526 48.4979 23.1316 48.4979 32.4474C48.4979 36.7895 46.8376 40.8158 44.0705 43.8158C43.6752 43.5789 43.2799 43.4211 42.8056 43.4211C41.5406 43.4211 40.5128 44.4474 40.5128 45.7105C40.5128 46.0263 40.5919 46.3421 40.6709 46.5789C38.062 48.2368 34.8996 49.2632 31.5791 49.2632C22.1709 49.4211 14.5812 41.8421 14.5812 32.5263Z" fill="white"/>
<path d="M31.5 23C26.2669 23 22 27.2669 22 32.5C22 37.733 26.2669 42 31.5 42C36.7331 42 41 37.733 41 32.5C41 27.2669 36.7331 23 31.5 23ZM31.5 40.3898C27.1525 40.3898 23.6102 36.8475 23.6102 32.5C23.6102 28.1525 27.1525 24.6102 31.5 24.6102C35.8475 24.6102 39.3898 28.1525 39.3898 32.5C39.3898 36.8475 35.8475 40.3898 31.5 40.3898Z" fill="white"/>
<path d="M59.4822 27.0906C56.9458 13.6884 45.3738 4 31.9789 4C23.1017 4 15.1757 8.27904 10.0238 14.8187C9.86526 14.8187 9.70674 14.738 9.54822 14.738C8.28005 14.738 7.24967 15.7875 7.24967 17.0793C7.24967 17.5637 7.40819 18.0482 7.64597 18.3711C5.34742 22.5694 4 27.3329 4 32.4193C4 42.2691 8.91414 50.9079 16.3646 56.0751C16.3646 56.2365 16.3646 56.3173 16.3646 56.4787C16.3646 57.7705 17.395 58.8201 18.6631 58.8201C19.218 58.8201 19.7728 58.5779 20.1691 58.255C23.8151 60.0312 27.8573 61 32.1374 61C45.8494 61 57.7384 50.6657 59.7992 36.9405C62.177 36.5368 64 34.5184 64 31.9348C63.8415 29.5127 61.9392 27.4136 59.4822 27.0906ZM31.9789 59.5467C28.0159 59.5467 24.2114 58.6586 20.8032 57.0439C20.8032 56.8824 20.8824 56.8017 20.8824 56.6402C20.8824 55.3484 19.852 54.2989 18.5839 54.2989C18.0291 54.2989 17.4742 54.5411 17.0779 54.864C10.103 50.0198 5.5852 41.8654 5.5852 32.6615C5.5852 27.898 6.77411 23.4575 8.91414 19.5014C9.15192 19.5822 9.31044 19.5822 9.54822 19.5822C10.8164 19.5822 11.8468 18.5326 11.8468 17.2408C11.8468 16.6756 11.6882 16.1912 11.3712 15.7875C16.2061 9.65156 23.6565 5.69547 31.9789 5.69547C44.5812 5.69547 55.3606 14.738 57.897 27.2521C55.6777 27.7365 53.934 29.755 53.934 32.177C53.934 34.6799 55.6777 36.6983 58.0555 37.102C55.9155 49.9391 44.819 59.5467 31.9789 59.5467ZM58.9273 35.4872C57.1044 35.4872 55.5984 33.9533 55.5984 32.0963C55.5984 30.2394 57.1044 28.7054 58.9273 28.7054C60.7503 28.7054 62.2563 30.2394 62.2563 32.0963C62.2563 33.9533 60.7503 35.4872 58.9273 35.4872Z" fill="white"/>
</svg>
