<svg width="30" height="30" viewBox="0 0 30 30" fill="none" xmlns="http://www.w3.org/2000/svg">
<path d="M16.8372 13.0872L16.2677 12.8296C16.1605 13.0666 16.2113 13.3452 16.3952 13.5291L16.8372 13.0872ZM6.76672 3.23081L6.49694 2.66703C6.314 2.75457 6.1849 2.92544 6.15068 3.12535C6.11646 3.32525 6.18136 3.52934 6.32477 3.67275L6.76672 3.23081ZM11.5156 7.9797L11.9576 7.53776L11.5156 7.9797ZM9.39429 11.5152L9.83623 11.9572H9.83623L9.39429 11.5152ZM7.98008 11.5152L7.53814 11.9572L7.53814 11.9572L7.98008 11.5152ZM3.23105 6.76621L3.67299 6.32426C3.52959 6.18086 3.32551 6.11595 3.12561 6.15016C2.92571 6.18438 2.75484 6.31346 2.66729 6.49639L3.23105 6.76621ZM12.1787 17.1787L12.6206 16.7367C12.4576 16.5737 12.218 16.5137 11.9974 16.5805L12.1787 17.1787ZM25.3787 25.8713L25.8206 26.3133L25.3787 25.8713ZM16.875 10C16.875 11.0099 16.6576 11.9674 16.2677 12.8296L17.4067 13.3447C17.8683 12.3239 18.125 11.1911 18.125 10H16.875ZM10 3.125C13.797 3.125 16.875 6.20304 16.875 10H18.125C18.125 5.51269 14.4873 1.875 10 1.875V3.125ZM7.03649 3.79458C7.93309 3.36556 8.93758 3.125 10 3.125V1.875C8.74689 1.875 7.55839 2.15911 6.49694 2.66703L7.03649 3.79458ZM11.9576 7.53776L7.20866 2.78886L6.32477 3.67275L11.0737 8.42164L11.9576 7.53776ZM11.9576 9.83586C12.5922 9.20125 12.5922 8.17236 11.9576 7.53776L11.0737 8.42164C11.2201 8.56809 11.2201 8.80553 11.0737 8.95197L11.9576 9.83586ZM9.83623 11.9572L11.9576 9.83586L11.0737 8.95197L8.95235 11.0733L9.83623 11.9572ZM7.53814 11.9572C8.17274 12.5918 9.20163 12.5918 9.83623 11.9572L8.95235 11.0733C8.8059 11.2197 8.56847 11.2197 8.42202 11.0733L7.53814 11.9572ZM2.78911 7.20815L7.53814 11.9572L8.42202 11.0733L3.67299 6.32426L2.78911 7.20815ZM3.125 10C3.125 8.93739 3.36564 7.93274 3.79481 7.03602L2.66729 6.49639C2.15921 7.55798 1.875 8.74667 1.875 10H3.125ZM10 16.875C6.20304 16.875 3.125 13.797 3.125 10H1.875C1.875 14.4873 5.51269 18.125 10 18.125V16.875ZM11.9974 16.5805C11.366 16.7719 10.6956 16.875 10 16.875V18.125C10.8198 18.125 11.6123 18.0034 12.36 17.7768L11.9974 16.5805ZM21.4456 25.5617L12.6206 16.7367L11.7367 17.6206L20.5617 26.4456L21.4456 25.5617ZM24.8044 25.5617C23.8769 26.4892 22.3731 26.4892 21.4456 25.5617L20.5617 26.4456C21.9774 27.8613 24.2726 27.8613 25.6883 26.4456L24.8044 25.5617ZM24.9367 25.4294L24.8044 25.5617L25.6883 26.4456L25.8206 26.3133L24.9367 25.4294ZM24.9367 22.0706C25.8642 22.9981 25.8642 24.5019 24.9367 25.4294L25.8206 26.3133C27.2363 24.8976 27.2363 22.6024 25.8206 21.1867L24.9367 22.0706ZM16.3952 13.5291L24.9367 22.0706L25.8206 21.1867L17.2791 12.6452L16.3952 13.5291Z" fill="#292D32"/>
</svg>
