<svg width="64" height="64" viewBox="0 0 64 64" fill="none" xmlns="http://www.w3.org/2000/svg">
<path d="M62.4971 21.8228C62.4357 16.2535 44.2395 14.2305 32 14.2305C19.7605 14.2305 1.56433 16.2535 1.50287 21.8228C1.50281 21.8278 1.5 39.3369 1.5 39.3369C1.5 41.8428 5.07764 43.8311 12.1333 45.2471C12.1981 45.2599 12.264 45.2664 12.3301 45.2666C12.5953 45.2666 12.8496 45.1612 13.0372 44.9737C13.2247 44.7861 13.33 44.5318 13.3301 44.2666V35.2487C16.112 34.7424 18.9176 34.3764 21.7363 34.1522C22.0616 37.3067 23.1101 40.3437 24.8002 43.0271C26.4903 45.7105 28.7765 47.968 31.481 49.624C31.6374 49.7192 31.817 49.7695 32 49.7695C32.1831 49.7695 32.3627 49.7192 32.5191 49.624C35.2236 47.968 37.5098 45.7105 39.1999 43.0271C40.89 40.3438 41.9385 37.3067 42.2638 34.1522C45.0824 34.3769 47.8879 34.7426 50.6699 35.248V44.2666C50.67 44.5318 50.7753 44.7861 50.9628 44.9737C51.1504 45.1612 51.4047 45.2666 51.6699 45.2666C51.736 45.2664 51.8019 45.2599 51.8667 45.2471C58.9224 43.8311 62.5 41.8428 62.5 39.3369C62.5 39.3369 62.4972 21.8278 62.4971 21.8228ZM11.3301 43.0322C10.339 42.8096 9.47557 42.5808 8.70513 42.3509V41.4131C8.70513 41.3136 8.66562 41.2183 8.59529 41.1479C8.52497 41.0776 8.42959 41.0381 8.33013 41.0381C8.23067 41.0381 8.13529 41.0776 8.06497 41.1479C7.99464 41.2183 7.95513 41.3136 7.95513 41.4131V42.1166C4.54034 40.9951 3.5 39.8831 3.5 39.3369V24.794C4.88943 25.6445 6.3926 26.2933 7.96448 26.7211C7.9603 26.7364 7.95716 26.7519 7.95508 26.7676V27.7676C7.95508 27.8169 7.96478 27.8656 7.98362 27.9111C8.00247 27.9566 8.03009 27.998 8.06491 28.0328C8.09974 28.0676 8.14108 28.0952 8.18657 28.1141C8.23207 28.1329 8.28083 28.1426 8.33008 28.1426C8.37933 28.1426 8.42809 28.1329 8.47359 28.1141C8.51908 28.0952 8.56042 28.0676 8.59525 28.0328C8.63007 27.998 8.65769 27.9566 8.67653 27.9111C8.69538 27.8656 8.70508 27.8169 8.70508 27.7676V26.9375C9.51398 27.1624 10.3862 27.3771 11.3301 27.5801L11.3301 43.0322ZM40.3789 32.1045C40.3687 35.1764 39.5982 38.198 38.1361 40.8997C36.6741 43.6013 34.566 45.8991 32 47.5879C29.434 45.8991 27.3259 43.6013 25.8639 40.8997C24.4018 38.198 23.6313 35.1764 23.6211 32.1045V27.917L32 25.7598L40.3789 27.917V32.1045ZM51.4731 25.7861C51.2466 25.8316 51.0427 25.9541 50.8963 26.1328C50.7499 26.3116 50.6699 26.5355 50.6699 26.7666V33.2164C48.1578 32.762 45.3802 32.4048 42.3773 32.1545C42.3773 32.1378 42.3789 32.1213 42.3789 32.1045V27.1416C42.3788 26.9197 42.3049 26.7042 42.169 26.5289C42.0331 26.3535 41.8427 26.2283 41.6279 26.1728L32.2495 23.7588C32.0857 23.7178 31.9143 23.7178 31.7505 23.7588L22.3721 26.1728C22.1572 26.2283 21.9669 26.3535 21.831 26.5289C21.6951 26.7042 21.6212 26.9197 21.6211 27.1416V32.1045C21.6211 32.1212 21.6227 32.1378 21.6227 32.1545C18.618 32.4047 15.8404 32.7619 13.3301 33.2169V26.7666C13.3301 26.5355 13.2501 26.3116 13.1037 26.1328C12.9572 25.9541 12.7534 25.8316 12.5268 25.7861C5.40672 24.3575 3.51164 22.5867 3.50102 21.8437C3.52313 19.5519 14.6198 16.2305 32 16.2305C49.3802 16.2305 60.4769 19.5519 60.499 21.8437C60.4883 22.5867 58.5933 24.3575 51.4731 25.7861ZM60.5 39.3369C60.5 39.8831 59.4597 40.9951 56.0449 42.1166V41.4131C56.0449 41.3136 56.0054 41.2183 55.9351 41.1479C55.8648 41.0776 55.7694 41.0381 55.6699 41.0381C55.5705 41.0381 55.4751 41.0776 55.4048 41.1479C55.3344 41.2183 55.2949 41.3136 55.2949 41.4131V42.351C54.5245 42.5809 53.6611 42.8097 52.6699 43.0323V27.5801C53.6138 27.3771 54.486 27.1625 55.2949 26.9376V27.7676C55.2949 27.867 55.3344 27.9624 55.4048 28.0327C55.4751 28.103 55.5705 28.1426 55.6699 28.1426C55.7694 28.1426 55.8648 28.103 55.9351 28.0327C56.0054 27.9624 56.0449 27.867 56.0449 27.7676V26.7676C56.0428 26.7519 56.0397 26.7363 56.0355 26.721C57.6074 26.2933 59.1106 25.6444 60.5 24.794V39.3369ZM8.70508 30.916V33.0156C8.70508 33.1151 8.66557 33.2104 8.59525 33.2808C8.52492 33.3511 8.42954 33.3906 8.33008 33.3906C8.23062 33.3906 8.13524 33.3511 8.06491 33.2808C7.99459 33.2104 7.95508 33.1151 7.95508 33.0156V30.916C7.95508 30.8165 7.99459 30.7212 8.06491 30.6508C8.13524 30.5805 8.23062 30.541 8.33008 30.541C8.42954 30.541 8.52492 30.5805 8.59525 30.6508C8.66557 30.7212 8.70508 30.8165 8.70508 30.916ZM8.70508 36.164V38.2636C8.70508 38.3631 8.66557 38.4584 8.59525 38.5288C8.52492 38.5991 8.42954 38.6386 8.33008 38.6386C8.23062 38.6386 8.13524 38.5991 8.06491 38.5288C7.99459 38.4584 7.95508 38.3631 7.95508 38.2636V36.1641C7.95508 36.0646 7.99459 35.9692 8.06491 35.8989C8.13524 35.8286 8.23062 35.7891 8.33008 35.7891C8.42954 35.7891 8.52492 35.8286 8.59525 35.8989C8.66557 35.9692 8.70508 36.0645 8.70508 36.164ZM56.0449 30.916V33.0156C56.0449 33.1151 56.0054 33.2104 55.9351 33.2808C55.8648 33.3511 55.7694 33.3906 55.6699 33.3906C55.5705 33.3906 55.4751 33.3511 55.4048 33.2808C55.3344 33.2104 55.2949 33.1151 55.2949 33.0156V30.916C55.2949 30.8165 55.3344 30.7212 55.4048 30.6508C55.4751 30.5805 55.5705 30.541 55.6699 30.541C55.7694 30.541 55.8648 30.5805 55.9351 30.6508C56.0054 30.7212 56.0449 30.8165 56.0449 30.916ZM56.0449 36.164V38.2636C56.0449 38.3631 56.0054 38.4584 55.9351 38.5288C55.8648 38.5991 55.7694 38.6386 55.6699 38.6386C55.5705 38.6386 55.4751 38.5991 55.4048 38.5288C55.3344 38.4584 55.2949 38.3631 55.2949 38.2636V36.1641C55.2949 36.0646 55.3344 35.9692 55.4048 35.8989C55.4751 35.8286 55.5705 35.7891 55.6699 35.7891C55.7694 35.7891 55.8648 35.8286 55.9351 35.8989C56.0054 35.9692 56.0449 36.0645 56.0449 36.164ZM31.3403 36.876L34.604 32.9258C34.7731 32.7221 35.0161 32.5938 35.2797 32.569C35.5433 32.5442 35.8059 32.6249 36.0101 32.7935C36.2142 32.9621 36.3432 33.2048 36.3686 33.4683C36.3941 33.7318 36.3141 33.9947 36.146 34.1992L32.6943 38.377C32.5264 38.5793 32.3161 38.7421 32.0782 38.854C31.8403 38.9659 31.5808 39.0241 31.3179 39.0245C31.2842 39.0245 31.2505 39.0235 31.2168 39.0215C30.9376 39.005 30.6661 38.9233 30.4241 38.7829C30.1822 38.6424 29.9766 38.4472 29.8237 38.2129L28.5366 36.2325C28.4649 36.1224 28.4156 35.9992 28.3915 35.87C28.3674 35.7409 28.369 35.6082 28.3962 35.4797C28.4234 35.3511 28.4756 35.2292 28.55 35.1208C28.6243 35.0125 28.7193 34.9199 28.8295 34.8483C28.9397 34.7766 29.0629 34.7275 29.1921 34.7035C29.3213 34.6795 29.4539 34.6813 29.5824 34.7086C29.711 34.736 29.8329 34.7884 29.9411 34.8628C30.0494 34.9373 30.1419 35.0324 30.2134 35.1426L31.3403 36.876Z" fill="white"/>
</svg>
