<svg width="62" height="36" viewBox="0 0 62 36" fill="none" xmlns="http://www.w3.org/2000/svg">
<path d="M61.4971 7.82281C61.4357 2.25348 43.2395 0.230469 31 0.230469C18.7605 0.230469 0.56433 2.25347 0.50287 7.82281C0.50281 7.82781 0.5 25.3369 0.5 25.3369C0.5 27.8428 4.07764 29.8311 11.1333 31.2471C11.1981 31.2599 11.264 31.2664 11.3301 31.2666C11.5953 31.2666 11.8496 31.1612 12.0372 30.9737C12.2247 30.7861 12.33 30.5318 12.3301 30.2666V21.2487C15.112 20.7424 17.9176 20.3764 20.7363 20.1522C21.0616 23.3067 22.1101 26.3437 23.8002 29.0271C25.4903 31.7105 27.7765 33.968 30.481 35.624C30.6374 35.7192 30.817 35.7695 31 35.7695C31.1831 35.7695 31.3627 35.7192 31.5191 35.624C34.2236 33.968 36.5098 31.7105 38.1999 29.0271C39.89 26.3438 40.9385 23.3067 41.2638 20.1522C44.0824 20.3769 46.8879 20.7426 49.6699 21.248V30.2666C49.67 30.5318 49.7753 30.7861 49.9628 30.9737C50.1504 31.1612 50.4047 31.2666 50.6699 31.2666C50.736 31.2664 50.8019 31.2599 50.8667 31.2471C57.9224 29.8311 61.5 27.8428 61.5 25.3369C61.5 25.3369 61.4972 7.82782 61.4971 7.82281ZM10.3301 29.0322C9.33898 28.8096 8.47557 28.5808 7.70513 28.3509V27.4131C7.70513 27.3136 7.66562 27.2183 7.59529 27.1479C7.52497 27.0776 7.42959 27.0381 7.33013 27.0381C7.23067 27.0381 7.13529 27.0776 7.06497 27.1479C6.99464 27.2183 6.95513 27.3136 6.95513 27.4131V28.1166C3.54034 26.9951 2.5 25.8831 2.5 25.3369V10.794C3.88943 11.6445 5.3926 12.2933 6.96448 12.7211C6.9603 12.7364 6.95716 12.7519 6.95508 12.7676V13.7676C6.95508 13.8169 6.96478 13.8656 6.98362 13.9111C7.00247 13.9566 7.03009 13.998 7.06491 14.0328C7.09974 14.0676 7.14108 14.0952 7.18657 14.1141C7.23207 14.1329 7.28083 14.1426 7.33008 14.1426C7.37933 14.1426 7.42809 14.1329 7.47359 14.1141C7.51908 14.0952 7.56042 14.0676 7.59525 14.0328C7.63007 13.998 7.65769 13.9566 7.67653 13.9111C7.69538 13.8656 7.70508 13.8169 7.70508 13.7676V12.9375C8.51398 13.1624 9.38623 13.3771 10.3301 13.5801L10.3301 29.0322ZM39.3789 18.1045C39.3687 21.1764 38.5982 24.198 37.1361 26.8997C35.6741 29.6013 33.566 31.8991 31 33.5879C28.434 31.8991 26.3259 29.6013 24.8639 26.8997C23.4018 24.198 22.6313 21.1764 22.6211 18.1045V13.917L31 11.7598L39.3789 13.917V18.1045ZM50.4731 11.7861C50.2466 11.8316 50.0427 11.9541 49.8963 12.1328C49.7499 12.3116 49.6699 12.5355 49.6699 12.7666V19.2164C47.1578 18.762 44.3802 18.4048 41.3773 18.1545C41.3773 18.1378 41.3789 18.1213 41.3789 18.1045V13.1416C41.3788 12.9197 41.3049 12.7042 41.169 12.5289C41.0331 12.3535 40.8427 12.2283 40.6279 12.1728L31.2495 9.75879C31.0857 9.71777 30.9143 9.71777 30.7505 9.75879L21.3721 12.1728C21.1572 12.2283 20.9669 12.3535 20.831 12.5289C20.6951 12.7042 20.6212 12.9197 20.6211 13.1416V18.1045C20.6211 18.1212 20.6227 18.1378 20.6227 18.1545C17.618 18.4047 14.8404 18.7619 12.3301 19.2169V12.7666C12.3301 12.5355 12.2501 12.3116 12.1037 12.1328C11.9572 11.9541 11.7534 11.8316 11.5268 11.7861C4.40672 10.3575 2.51164 8.58673 2.50102 7.84369C2.52313 5.55188 13.6198 2.23047 31 2.23047C48.3802 2.23047 59.4769 5.55188 59.499 7.84369C59.4883 8.58673 57.5933 10.3575 50.4731 11.7861ZM59.5 25.3369C59.5 25.8831 58.4597 26.9951 55.0449 28.1166V27.4131C55.0449 27.3136 55.0054 27.2183 54.9351 27.1479C54.8648 27.0776 54.7694 27.0381 54.6699 27.0381C54.5705 27.0381 54.4751 27.0776 54.4048 27.1479C54.3344 27.2183 54.2949 27.3136 54.2949 27.4131V28.351C53.5245 28.5809 52.6611 28.8097 51.6699 29.0323V13.5801C52.6138 13.3771 53.486 13.1625 54.2949 12.9376V13.7676C54.2949 13.867 54.3344 13.9624 54.4048 14.0327C54.4751 14.103 54.5705 14.1426 54.6699 14.1426C54.7694 14.1426 54.8648 14.103 54.9351 14.0327C55.0054 13.9624 55.0449 13.867 55.0449 13.7676V12.7676C55.0428 12.7519 55.0397 12.7363 55.0355 12.721C56.6074 12.2933 58.1106 11.6444 59.5 10.794V25.3369ZM7.70508 16.916V19.0156C7.70508 19.1151 7.66557 19.2104 7.59525 19.2808C7.52492 19.3511 7.42954 19.3906 7.33008 19.3906C7.23062 19.3906 7.13524 19.3511 7.06491 19.2808C6.99459 19.2104 6.95508 19.1151 6.95508 19.0156V16.916C6.95508 16.8165 6.99459 16.7212 7.06491 16.6508C7.13524 16.5805 7.23062 16.541 7.33008 16.541C7.42954 16.541 7.52492 16.5805 7.59525 16.6508C7.66557 16.7212 7.70508 16.8165 7.70508 16.916ZM7.70508 22.164V24.2636C7.70508 24.3631 7.66557 24.4584 7.59525 24.5288C7.52492 24.5991 7.42954 24.6386 7.33008 24.6386C7.23062 24.6386 7.13524 24.5991 7.06491 24.5288C6.99459 24.4584 6.95508 24.3631 6.95508 24.2636V22.1641C6.95508 22.0646 6.99459 21.9692 7.06491 21.8989C7.13524 21.8286 7.23062 21.7891 7.33008 21.7891C7.42954 21.7891 7.52492 21.8286 7.59525 21.8989C7.66557 21.9692 7.70508 22.0645 7.70508 22.164ZM55.0449 16.916V19.0156C55.0449 19.1151 55.0054 19.2104 54.9351 19.2808C54.8648 19.3511 54.7694 19.3906 54.6699 19.3906C54.5705 19.3906 54.4751 19.3511 54.4048 19.2808C54.3344 19.2104 54.2949 19.1151 54.2949 19.0156V16.916C54.2949 16.8165 54.3344 16.7212 54.4048 16.6508C54.4751 16.5805 54.5705 16.541 54.6699 16.541C54.7694 16.541 54.8648 16.5805 54.9351 16.6508C55.0054 16.7212 55.0449 16.8165 55.0449 16.916ZM55.0449 22.164V24.2636C55.0449 24.3631 55.0054 24.4584 54.9351 24.5288C54.8648 24.5991 54.7694 24.6386 54.6699 24.6386C54.5705 24.6386 54.4751 24.5991 54.4048 24.5288C54.3344 24.4584 54.2949 24.3631 54.2949 24.2636V22.1641C54.2949 22.0646 54.3344 21.9692 54.4048 21.8989C54.4751 21.8286 54.5705 21.7891 54.6699 21.7891C54.7694 21.7891 54.8648 21.8286 54.9351 21.8989C55.0054 21.9692 55.0449 22.0645 55.0449 22.164ZM30.3403 22.876L33.604 18.9258C33.7731 18.7221 34.0161 18.5938 34.2797 18.569C34.5433 18.5442 34.8059 18.6249 35.0101 18.7935C35.2142 18.9621 35.3432 19.2048 35.3686 19.4683C35.3941 19.7318 35.3141 19.9947 35.146 20.1992L31.6943 24.377C31.5264 24.5793 31.3161 24.7421 31.0782 24.854C30.8403 24.9659 30.5808 25.0241 30.3179 25.0245C30.2842 25.0245 30.2505 25.0235 30.2168 25.0215C29.9376 25.005 29.6661 24.9233 29.4241 24.7829C29.1822 24.6424 28.9766 24.4472 28.8237 24.2129L27.5366 22.2325C27.4649 22.1224 27.4156 21.9992 27.3915 21.87C27.3674 21.7409 27.369 21.6082 27.3962 21.4797C27.4234 21.3511 27.4756 21.2292 27.55 21.1208C27.6243 21.0125 27.7193 20.9199 27.8295 20.8483C27.9397 20.7766 28.0629 20.7275 28.1921 20.7035C28.3213 20.6795 28.4539 20.6813 28.5824 20.7086C28.711 20.736 28.8329 20.7884 28.9411 20.8628C29.0494 20.9373 29.1419 21.0324 29.2134 21.1426L30.3403 22.876Z" fill="#292D32"/>
</svg>
