<svg width="28" height="26" viewBox="0 0 28 26" fill="none" xmlns="http://www.w3.org/2000/svg">
<path d="M14.0486 17.7446C15.9588 17.7446 17.5073 16.1961 17.5073 14.2859C17.5073 12.3757 15.9588 10.8271 14.0486 10.8271C12.1384 10.8271 10.5898 12.3757 10.5898 14.2859C10.5898 16.1961 12.1384 17.7446 14.0486 17.7446Z" stroke="#292D32" stroke-width="1.2" stroke-linecap="round" stroke-linejoin="round"/>
<path d="M20.2001 25.0004C19.9999 23.5116 19.2663 22.146 18.1355 21.157C17.0046 20.1681 15.5534 19.623 14.0512 19.623C12.549 19.623 11.0977 20.1681 9.96694 21.157C8.83613 22.146 8.10254 23.5116 7.90234 25.0004" stroke="#292D32" stroke-width="1.2" stroke-linecap="round" stroke-linejoin="round"/>
<path d="M27.1016 1.00045L26.0705 1.25977" stroke="#292D32" stroke-width="1.2" stroke-linecap="round"/>
<path d="M27.0998 20.2091L26.0703 19.9502" stroke="#292D32" stroke-width="1.2" stroke-linecap="round"/>
<path d="M6.0137 6.16853L1 4.77344V16.0488L6.0137 14.6538V6.16853Z" stroke="#292D32" stroke-width="1.2" stroke-linecap="round" stroke-linejoin="round"/>
<path d="M19.1164 14.3608H19.6669V6.46098L8.42969 6.46094L8.42969 14.3608H8.97908" stroke="#292D32" stroke-width="1.2" stroke-linecap="round" stroke-linejoin="round"/>
<path d="M22.0879 6.16853L27.1016 4.77344V16.0488L22.0879 14.6538V6.16853Z" stroke="#292D32" stroke-width="1.2" stroke-linecap="round" stroke-linejoin="round"/>
<path d="M23.6172 1.90848C23.2195 2.00851 22.8216 2.10184 22.4236 2.18848" stroke="#292D32" stroke-width="1.2" stroke-linecap="round"/>
<path d="M20.0547 2.65162C16.0542 3.32707 12.0429 3.32706 8.04239 2.65162" stroke="#292D32" stroke-width="1.2" stroke-linecap="round"/>
<path d="M4.44322 1.89873C4.8409 1.99875 5.23874 2.09208 5.63672 2.17871" stroke="#292D32" stroke-width="1.2" stroke-linecap="round"/>
<path d="M1.00179 1.00181L2.03125 1.26074" stroke="#292D32" stroke-width="1.2" stroke-linecap="round"/>
<path d="M23.6544 19.3112C23.2568 19.2112 22.8589 19.1179 22.4609 19.0312" stroke="#292D32" stroke-width="1.2" stroke-linecap="round"/>
<path d="M20.059 18.5592C19.1908 18.4126 18.3221 18.2978 17.4531 18.2148" stroke="#292D32" stroke-width="1.2" stroke-linecap="round"/>
<path d="M8.04688 18.5592C8.915 18.4126 9.78363 18.2978 10.6526 18.2148" stroke="#292D32" stroke-width="1.2" stroke-linecap="round"/>
<path d="M4.48438 19.3015C4.88207 19.2015 5.27993 19.1081 5.67792 19.0215" stroke="#292D32" stroke-width="1.2" stroke-linecap="round"/>
<path d="M1 20.2095L2.03102 19.9502" stroke="#292D32" stroke-width="1.2" stroke-linecap="round"/>
</svg>
