<svg width="125" height="28" viewBox="0 0 125 28" fill="none" xmlns="http://www.w3.org/2000/svg">
<g clip-path="url(#clip0_1182_6740)">
<path d="M24.0202 25.6496C23.171 25.6493 22.3365 25.4276 21.5991 25.0065L18.5779 23.2802C18.0971 23.0067 17.5534 22.8629 17.0002 22.8629C16.447 22.8629 15.9033 23.0067 15.4225 23.2802L12.401 25.0068C11.6588 25.4308 10.8183 25.6525 9.96357 25.6496C9.10884 25.6467 8.26986 25.4194 7.5306 24.9903C6.79134 24.5613 6.17773 23.9456 5.75119 23.2049C5.32464 22.4642 5.10012 21.6245 5.1001 20.7698V15.2295C5.10156 13.9357 5.61615 12.6953 6.53098 11.7805C7.44582 10.8657 8.68618 10.3511 9.97995 10.3496H24.0202C25.314 10.3511 26.5544 10.8657 27.4692 11.7805C28.384 12.6953 28.8986 13.9357 28.9001 15.2295V20.7698C28.8986 22.0635 28.384 23.3039 27.4692 24.2187C26.5544 25.1336 25.314 25.6482 24.0202 25.6496ZM17.0001 21.1642C17.8491 21.1633 18.6836 21.3839 19.4213 21.8042L22.4427 23.5308C22.9263 23.8071 23.474 23.9516 24.031 23.9498C24.588 23.9479 25.1347 23.7998 25.6165 23.5202C26.0982 23.2406 26.4981 22.8394 26.776 22.3567C27.0539 21.874 27.2002 21.3267 27.2001 20.7698V15.2295C27.1992 14.3864 26.8639 13.5781 26.2677 12.982C25.6716 12.3859 24.8633 12.0505 24.0202 12.0496H9.97995C9.13688 12.0505 8.32861 12.3859 7.73248 12.982C7.13634 13.5781 6.80102 14.3864 6.8001 15.2295V20.7698C6.80009 21.3267 6.94639 21.874 7.22434 22.3566C7.50229 22.8393 7.90216 23.2405 8.3839 23.5201C8.86565 23.7996 9.41237 23.9477 9.96935 23.9496C10.5263 23.9514 11.074 23.8069 11.5576 23.5306L14.5791 21.8042C15.3167 21.3839 16.1512 21.1633 17.0001 21.1642Z" fill="white"/>
<path d="M3.57021 20.8904C3.34478 20.8904 3.12858 20.8008 2.96917 20.6414C2.80977 20.482 2.72021 20.2658 2.72021 20.0404V15.9604C2.72021 15.7349 2.80977 15.5187 2.96917 15.3593C3.12858 15.1999 3.34478 15.1104 3.57021 15.1104C3.79565 15.1104 4.01185 15.1999 4.17126 15.3593C4.33066 15.5187 4.42021 15.7349 4.42021 15.9604V20.0404C4.42021 20.2658 4.33066 20.482 4.17126 20.6414C4.01185 20.8008 3.79565 20.8904 3.57021 20.8904Z" fill="white"/>
<path d="M30.4301 20.8904C30.2046 20.8904 29.9884 20.8008 29.829 20.6414C29.6696 20.482 29.5801 20.2658 29.5801 20.0404V15.9604C29.5801 15.7349 29.6696 15.5187 29.829 15.3593C29.9884 15.1999 30.2046 15.1104 30.4301 15.1104C30.6555 15.1104 30.8717 15.1999 31.0311 15.3593C31.1905 15.5187 31.2801 15.7349 31.2801 15.9604V20.0404C31.2801 20.2658 31.1905 20.482 31.0311 20.6414C30.8717 20.8008 30.6555 20.8904 30.4301 20.8904Z" fill="white"/>
<path d="M73.9998 2.33301H59.9998C58.7112 2.33301 57.6665 3.37768 57.6665 4.66634V23.333C57.6665 24.6217 58.7112 25.6663 59.9998 25.6663H73.9998C75.2885 25.6663 76.3332 24.6217 76.3332 23.333V4.66634C76.3332 3.37768 75.2885 2.33301 73.9998 2.33301Z" stroke="white" strokeWidth="1.5" stroke-linecap="round" stroke-linejoin="round"/>
<path d="M67 21H67.0117" stroke="white" strokeWidth="2" stroke-linecap="round" stroke-linejoin="round"/>
<rect x="117.5" y="1.91699" width="22.1667" height="30" rx="1" transform="rotate(90 117.5 1.91699)" stroke="white" strokeWidth="1.5" stroke-linecap="round" stroke-linejoin="round"/>
<path d="M83.7498 24.0836H121.25" stroke="white" strokeWidth="1.5" stroke-linecap="round"/>
<path d="M87.5 20.6802H117.5" stroke="white" strokeWidth="1.5" stroke-linecap="round"/>
<path fill-rule="evenodd" clip-rule="evenodd" d="M39.5 8.75C39.1712 8.75 38.75 9.08436 38.75 9.7V23.3C38.75 23.9156 39.1712 24.25 39.5 24.25H48.5C48.8288 24.25 49.25 23.9156 49.25 23.3V9.7C49.25 9.08436 48.8288 8.75 48.5 8.75H39.5ZM37.25 9.7C37.25 8.43787 38.1719 7.25 39.5 7.25H48.5C49.8281 7.25 50.75 8.43787 50.75 9.7V23.3C50.75 24.5621 49.8281 25.75 48.5 25.75H39.5C38.1719 25.75 37.25 24.5621 37.25 23.3V9.7Z" fill="white"/>
<path fill-rule="evenodd" clip-rule="evenodd" d="M41.5 10C41.5 9.72386 41.7239 9.5 42 9.5H46C46.2761 9.5 46.5 9.72386 46.5 10C46.5 10.2761 46.2761 10.5 46 10.5H42C41.7239 10.5 41.5 10.2761 41.5 10Z" fill="white"/>
<path fill-rule="evenodd" clip-rule="evenodd" d="M43 22C43 21.4477 43.4477 21 44 21H44.0083C44.5606 21 45.0083 21.4477 45.0083 22C45.0083 22.5523 44.5606 23 44.0083 23H44C43.4477 23 43 22.5523 43 22Z" fill="white"/>
</g>
<defs>
<clipPath id="clip0_1182_6740">
<rect width="125" height="28" fill="white"/>
</clipPath>
</defs>
</svg>
