<svg width="173" height="126" viewBox="0 0 173 126" fill="none" xmlns="http://www.w3.org/2000/svg">
<g filter="url(#filter0_dd_2336_8666)">
<g clip-path="url(#clip0_2336_8666)">
<rect x="17" y="6" width="139" height="93" rx="20" fill="white"/>
<path d="M156 6H17V99H156V6Z" fill="#012169"/>
<mask id="mask0_2336_8666" style="mask-type:luminance" maskUnits="userSpaceOnUse" x="17" y="6" width="70" height="47">
<path d="M17 6H86.5V52.5H17V6Z" fill="white"/>
</mask>
<g mask="url(#mask0_2336_8666)">
<path d="M17 6L86.5 52.5L17 6ZM86.5 6L17 52.5L86.5 6Z" fill="#000008"/>
<path d="M17 6L86.5 52.5M86.5 6L17 52.5" stroke="white" stroke-width="14.7"/>
</g>
<mask id="mask1_2336_8666" style="mask-type:luminance" maskUnits="userSpaceOnUse" x="17" y="6" width="70" height="47">
<path d="M17 6V29.25H86.5V52.5L17 6ZM86.5 6H51.75V52.5H17L86.5 6Z" fill="white"/>
</mask>
<g mask="url(#mask1_2336_8666)">
<path d="M17 6L86.5 52.5L17 6ZM86.5 6L17 52.5L86.5 6Z" fill="#000008"/>
<path d="M17 6L86.5 52.5M86.5 6L17 52.5" stroke="#E4002B" stroke-width="9.8"/>
</g>
<path d="M51.75 6V52.5V6ZM17 29.25H86.5H17Z" fill="#000008"/>
<path d="M51.75 6V52.5M17 29.25H86.5" stroke="white" stroke-width="24.5"/>
<path d="M51.75 6V52.5V6ZM17 29.25H86.5H17Z" fill="#000008"/>
<path d="M51.75 6V52.5M17 29.25H86.5" stroke="#E4002B" stroke-width="14.7"/>
<path d="M44.8851 60.3018L47.1432 67.3639L54.0403 64.7366L49.959 70.9156L56.3014 74.7015L48.9541 75.3444L49.9658 82.6927L44.8851 77.3154L39.8043 82.6927L40.8161 75.3444L33.4688 74.7015L39.8112 70.9156L35.7299 64.7366L42.627 67.3639L44.8851 60.3018Z" fill="white"/>
<path d="M122.952 73.0146L124.027 76.3776L127.312 75.1265L125.368 78.0688L128.388 79.8716L124.89 80.1778L125.371 83.677L122.952 81.1164L120.533 83.677L121.014 80.1778L117.516 79.8716L120.536 78.0688L118.592 75.1265L121.877 76.3776L122.952 73.0146Z" fill="white"/>
<path d="M103.436 41.9316L104.512 45.2946L107.796 44.0434L105.853 46.9858L108.873 48.7886L105.374 49.0948L105.856 52.594L103.436 50.0334L101.017 52.594L101.499 49.0948L98 48.7886L101.02 46.9858L99.0767 44.0434L102.361 45.2946L103.436 41.9316Z" fill="white"/>
<path d="M122.952 20.665L124.027 24.028L127.312 22.7768L125.368 25.7192L128.388 27.522L124.89 27.8282L125.371 31.3274L122.952 28.7668L120.533 31.3274L121.014 27.8282L117.516 27.522L120.536 25.7192L118.592 22.7768L121.877 24.028L122.952 20.665Z" fill="white"/>
<path d="M140.3 36.6973L141.375 40.0602L144.659 38.8091L142.716 41.7515L145.736 43.5543L142.237 43.8604L142.719 47.3596L140.3 44.799L137.88 47.3596L138.362 43.8604L134.863 43.5543L137.883 41.7515L135.94 38.8091L139.224 40.0602L140.3 36.6973Z" fill="white"/>
<path d="M130.758 52.4492L131.607 54.5446L133.851 54.71L132.133 56.1704L132.67 58.3681L130.758 57.1752L128.846 58.3681L129.383 56.1704L127.664 54.71L129.908 54.5446L130.758 52.4492Z" fill="white"/>
</g>
<rect x="17" y="6" width="139" height="93" rx="20" stroke="#A8B7D4" stroke-width="0.663062" stroke-linejoin="round"/>
</g>
<defs>
<filter id="filter0_dd_2336_8666" x="0.704167" y="0.347678" width="171.592" height="125.59" filterUnits="userSpaceOnUse" color-interpolation-filters="sRGB">
<feFlood flood-opacity="0" result="BackgroundImageFix"/>
<feColorMatrix in="SourceAlpha" type="matrix" values="0 0 0 0 0 0 0 0 0 0 0 0 0 0 0 0 0 0 127 0" result="hardAlpha"/>
<feOffset dy="10.6425"/>
<feGaussianBlur stdDeviation="7.9819"/>
<feComposite in2="hardAlpha" operator="out"/>
<feColorMatrix type="matrix" values="0 0 0 0 0.258824 0 0 0 0 0.278431 0 0 0 0 0.298039 0 0 0 0.08 0"/>
<feBlend mode="normal" in2="BackgroundImageFix" result="effect1_dropShadow_2336_8666"/>
<feColorMatrix in="SourceAlpha" type="matrix" values="0 0 0 0 0 0 0 0 0 0 0 0 0 0 0 0 0 0 127 0" result="hardAlpha"/>
<feOffset/>
<feGaussianBlur stdDeviation="0.665158"/>
<feComposite in2="hardAlpha" operator="out"/>
<feColorMatrix type="matrix" values="0 0 0 0 0.258824 0 0 0 0 0.278431 0 0 0 0 0.298039 0 0 0 0.32 0"/>
<feBlend mode="normal" in2="effect1_dropShadow_2336_8666" result="effect2_dropShadow_2336_8666"/>
<feBlend mode="normal" in="SourceGraphic" in2="effect2_dropShadow_2336_8666" result="shape"/>
</filter>
<clipPath id="clip0_2336_8666">
<rect x="17" y="6" width="139" height="93" rx="20" fill="white"/>
</clipPath>
</defs>
</svg>
