<svg width="89" height="72" viewBox="0 0 89 72" fill="none" xmlns="http://www.w3.org/2000/svg">
<g filter="url(#filter0_dd_2336_8307)">
<g clip-path="url(#clip0_2336_8307)">
<rect x="16" y="6" width="57" height="39" rx="6" fill="white"/>
<path d="M15.918 6.06641H72.918V45.0664H15.918V6.06641Z" fill="#D52B1E"/>
<path d="M30.8772 6.06641H58.0541V45.0664H30.8772V6.06641Z" fill="white"/>
<path d="M44.7579 32.2046L45.0126 37.2307H43.9936L44.2483 32.2046C44.252 32.122 44.2377 32.0395 44.2063 31.9633C44.1749 31.8871 44.1273 31.8192 44.067 31.7644C44.0067 31.7096 43.9353 31.6695 43.8579 31.6469C43.7805 31.6243 43.6991 31.6199 43.6198 31.6339L38.7564 32.5133L39.4132 30.6497C39.4398 30.5755 39.4432 30.4946 39.4229 30.4184C39.4026 30.3421 39.3596 30.2743 39.3 30.2245L33.9723 25.7867L35.1725 25.2101C35.2536 25.1707 35.3179 25.1022 35.3534 25.0175C35.3888 24.9328 35.393 24.8377 35.3651 24.75L34.312 21.4187L37.3806 22.0885C37.4637 22.1063 37.5503 22.094 37.6256 22.0537C37.701 22.0134 37.7604 21.9475 37.7939 21.8672L38.3884 20.4287L40.7833 23.0727C40.8381 23.1321 40.9101 23.1717 40.9886 23.1855C41.067 23.1992 41.1477 23.1864 41.2185 23.149C41.2893 23.1116 41.3464 23.0516 41.3813 22.978C41.4161 22.9044 41.4268 22.8212 41.4118 22.7408L40.2568 16.614L42.1082 17.7147C42.1517 17.7409 42.1999 17.7577 42.2499 17.7639C42.2999 17.7702 42.3507 17.7658 42.399 17.751C42.4472 17.7363 42.4921 17.7115 42.5307 17.6782C42.5693 17.6449 42.6009 17.6038 42.6234 17.5575L44.5031 13.7603L46.3828 17.5575C46.4053 17.6038 46.4369 17.6449 46.4755 17.6782C46.5141 17.7115 46.559 17.7363 46.6073 17.751C46.6556 17.7658 46.7063 17.7702 46.7563 17.7639C46.8063 17.7577 46.8545 17.7409 46.898 17.7147L48.7494 16.614L47.5944 22.7408C47.5794 22.8212 47.5901 22.9044 47.625 22.978C47.6598 23.0516 47.7169 23.1116 47.7877 23.149C47.8585 23.1864 47.9392 23.1992 48.0176 23.1855C48.0961 23.1717 48.1681 23.1321 48.2229 23.0727L50.6178 20.4287L51.2123 21.8672C51.2458 21.9475 51.3052 22.0134 51.3806 22.0537C51.4559 22.094 51.5425 22.1063 51.6256 22.0885L54.6943 21.4187L53.6411 24.75C53.6132 24.8377 53.6174 24.9328 53.6529 25.0175C53.6883 25.1022 53.7526 25.1707 53.8337 25.2101L55.0339 25.7867L49.7062 30.2245C49.6466 30.2743 49.6036 30.3421 49.5833 30.4184C49.563 30.4946 49.5664 30.5755 49.593 30.6497L50.2498 32.5133L45.3864 31.6339C45.3071 31.6199 45.2257 31.6243 45.1483 31.6469C45.071 31.6695 44.9995 31.7096 44.9392 31.7644C44.8789 31.8192 44.8313 31.8871 44.7999 31.9633C44.7685 32.0395 44.7542 32.122 44.7579 32.2046Z" fill="#D52B1E"/>
</g>
</g>
<defs>
<filter id="filter0_dd_2336_8307" x="0.0361986" y="0.678733" width="88.9276" height="70.9276" filterUnits="userSpaceOnUse" color-interpolation-filters="sRGB">
<feFlood flood-opacity="0" result="BackgroundImageFix"/>
<feColorMatrix in="SourceAlpha" type="matrix" values="0 0 0 0 0 0 0 0 0 0 0 0 0 0 0 0 0 0 127 0" result="hardAlpha"/>
<feOffset dy="10.6425"/>
<feGaussianBlur stdDeviation="7.9819"/>
<feComposite in2="hardAlpha" operator="out"/>
<feColorMatrix type="matrix" values="0 0 0 0 0.258824 0 0 0 0 0.278431 0 0 0 0 0.298039 0 0 0 0.08 0"/>
<feBlend mode="normal" in2="BackgroundImageFix" result="effect1_dropShadow_2336_8307"/>
<feColorMatrix in="SourceAlpha" type="matrix" values="0 0 0 0 0 0 0 0 0 0 0 0 0 0 0 0 0 0 127 0" result="hardAlpha"/>
<feOffset/>
<feGaussianBlur stdDeviation="0.665158"/>
<feComposite in2="hardAlpha" operator="out"/>
<feColorMatrix type="matrix" values="0 0 0 0 0.258824 0 0 0 0 0.278431 0 0 0 0 0.298039 0 0 0 0.32 0"/>
<feBlend mode="normal" in2="effect1_dropShadow_2336_8307" result="effect2_dropShadow_2336_8307"/>
<feBlend mode="normal" in="SourceGraphic" in2="effect2_dropShadow_2336_8307" result="shape"/>
</filter>
<clipPath id="clip0_2336_8307">
<rect x="16" y="6" width="57" height="39" rx="6" fill="white"/>
</clipPath>
</defs>
</svg>
