<svg width="80" height="61" viewBox="0 0 80 61" fill="none" xmlns="http://www.w3.org/2000/svg">
<g filter="url(#filter0_dd_2336_8273)">
<g clip-path="url(#clip0_2336_8273)">
<rect x="12" y="4" width="56" height="37" rx="6" fill="white"/>
<path d="M12 4H68V41H12V4Z" fill="#EE1C25"/>
<path d="M17.1434 18.7581L20.6748 8.23438L24.2063 18.7581L14.7891 12.3269H26.5606L17.1434 18.7581Z" fill="#FFFF00"/>
<path d="M32.4618 8.4365L28.8275 9.2365L31.2517 6.43046L31.014 10.207L28.9972 6.86363L32.4618 8.4365Z" fill="#FFFF00"/>
<path d="M36.1276 13.0527L32.4654 12.39L35.7955 10.7375L34.1018 14.1269L33.5482 10.2682L36.1276 13.0527Z" fill="#FFFF00"/>
<path d="M35.5916 19.5315L32.5199 17.4427L36.2389 17.283L33.3009 19.6915L34.3798 15.9441L35.5916 19.5315Z" fill="#FFFF00"/>
<path d="M30.9738 23.7635L28.9527 20.6583L32.4452 21.9379L28.7987 23.0323L31.2509 19.9896L30.9738 23.7635Z" fill="#FFFF00"/>
</g>
</g>
<defs>
<filter id="filter0_dd_2336_8273" x="0" y="0" width="80" height="61" filterUnits="userSpaceOnUse" color-interpolation-filters="sRGB">
<feFlood flood-opacity="0" result="BackgroundImageFix"/>
<feColorMatrix in="SourceAlpha" type="matrix" values="0 0 0 0 0 0 0 0 0 0 0 0 0 0 0 0 0 0 127 0" result="hardAlpha"/>
<feOffset dy="8"/>
<feGaussianBlur stdDeviation="6"/>
<feComposite in2="hardAlpha" operator="out"/>
<feColorMatrix type="matrix" values="0 0 0 0 0.258824 0 0 0 0 0.278431 0 0 0 0 0.298039 0 0 0 0.08 0"/>
<feBlend mode="normal" in2="BackgroundImageFix" result="effect1_dropShadow_2336_8273"/>
<feColorMatrix in="SourceAlpha" type="matrix" values="0 0 0 0 0 0 0 0 0 0 0 0 0 0 0 0 0 0 127 0" result="hardAlpha"/>
<feOffset/>
<feGaussianBlur stdDeviation="0.5"/>
<feComposite in2="hardAlpha" operator="out"/>
<feColorMatrix type="matrix" values="0 0 0 0 0.258824 0 0 0 0 0.278431 0 0 0 0 0.298039 0 0 0 0.32 0"/>
<feBlend mode="normal" in2="effect1_dropShadow_2336_8273" result="effect2_dropShadow_2336_8273"/>
<feBlend mode="normal" in="SourceGraphic" in2="effect2_dropShadow_2336_8273" result="shape"/>
</filter>
<clipPath id="clip0_2336_8273">
<rect x="12" y="4" width="56" height="37" rx="6" fill="white"/>
</clipPath>
</defs>
</svg>
