<svg width="89" height="70" viewBox="0 0 89 70" fill="none" xmlns="http://www.w3.org/2000/svg">
<g filter="url(#filter0_dd_2336_8311)">
<g clip-path="url(#clip0_2336_8311)">
<path d="M73 12H16V50H73V12Z" fill="#003399"/>
<path d="M43.7558 19.0538L42.5525 18.175H44.0408L44.5 16.75L44.9592 18.175H46.4475L45.2442 19.0538L45.7033 20.4867L44.5 19.6L43.2967 20.4867L43.7558 19.0538ZM45.2442 43.825L45.7033 45.25L44.5 44.3713L43.2967 45.25L43.7558 43.825L42.5525 42.9463H44.0408L44.5 41.5133L44.9592 42.9463H46.4475L45.2442 43.825ZM32.1975 31.95L30.9942 32.8367L31.4533 31.4117L30.25 30.5567H31.7383L32.1975 29.1317L32.6567 30.5567H34.1529L32.9417 31.4433L33.4008 32.8683L32.1975 31.9817V31.95ZM39.0929 20.7083L39.5521 22.1333L38.3488 21.2625L37.1454 22.1413L37.6046 20.7163L36.4013 19.8375H37.8896L38.3488 18.4125L38.8079 19.8375H40.2963L39.0929 20.7083ZM33.4167 24.3658L33.8758 22.9408L34.3429 24.3658H35.7917L34.5883 25.2525L35.0475 26.6775L33.8363 25.7908L32.625 26.6775L33.0842 25.2525L31.8808 24.3658H33.4167ZM31.8967 36.7475H33.4167L33.8758 35.3225L34.3429 36.7475H35.7917L34.5883 37.6342L35.0475 39.0592L33.8363 38.1804L32.625 39.0592L33.0842 37.6342L31.8808 36.7475H31.8967ZM37.6046 42.1625L36.4013 41.2917H37.8896L38.3488 39.8667L38.8079 41.2917H40.2963L39.0929 42.1625L39.5521 43.5875L38.3488 42.7088L37.1454 43.5875L37.6046 42.1625ZM57.5467 31.4433L58.0058 32.8683L56.8025 31.9817L55.5833 32.8683L56.0425 31.4433L54.8312 30.5567H56.375L56.8342 29.1317L57.2933 30.5567H58.75L57.5467 31.4433ZM49.9071 20.7083L48.7038 19.8375H50.1921L50.6513 18.4125L51.1104 19.8375H52.5988L51.3954 20.7083L51.8546 22.1333L50.6513 21.2625L49.4479 22.1413L49.9071 20.7163V20.7083ZM54.6571 24.3579L55.1242 22.9329L55.5833 24.3579H57.0717L55.9 25.2525L56.3592 26.6775L55.1558 25.7908L53.9446 26.6775L54.4037 25.2525L53.2083 24.3658H54.6571V24.3579ZM55.5833 36.7475H57.0717L55.9 37.6342L56.3592 39.0592L55.1558 38.1804L53.9446 39.0592L54.4037 37.6342L53.2083 36.7475H54.6967L55.1638 35.3225L55.6229 36.7475H55.5833ZM52.5988 41.2917L51.3954 42.1625L51.8546 43.5875L50.6513 42.7088L49.4479 43.5875L49.9071 42.1625L48.7038 41.2917H50.1921L50.6513 39.8667L51.1104 41.2917H52.5988Z" fill="#FFCC00"/>
</g>
</g>
<defs>
<filter id="filter0_dd_2336_8311" x="0.04" y="0.04" width="88.92" height="69.92" filterUnits="userSpaceOnUse" color-interpolation-filters="sRGB">
<feFlood flood-opacity="0" result="BackgroundImageFix"/>
<feColorMatrix in="SourceAlpha" type="matrix" values="0 0 0 0 0 0 0 0 0 0 0 0 0 0 0 0 0 0 127 0" result="hardAlpha"/>
<feOffset dy="4"/>
<feGaussianBlur stdDeviation="7.98"/>
<feComposite in2="hardAlpha" operator="out"/>
<feColorMatrix type="matrix" values="0 0 0 0 0 0 0 0 0 0 0 0 0 0 0 0 0 0 0.08 0"/>
<feBlend mode="normal" in2="BackgroundImageFix" result="effect1_dropShadow_2336_8311"/>
<feColorMatrix in="SourceAlpha" type="matrix" values="0 0 0 0 0 0 0 0 0 0 0 0 0 0 0 0 0 0 127 0" result="hardAlpha"/>
<feOffset/>
<feGaussianBlur stdDeviation="0.665"/>
<feComposite in2="hardAlpha" operator="out"/>
<feColorMatrix type="matrix" values="0 0 0 0 0 0 0 0 0 0 0 0 0 0 0 0 0 0 0.32 0"/>
<feBlend mode="normal" in2="effect1_dropShadow_2336_8311" result="effect2_dropShadow_2336_8311"/>
<feBlend mode="normal" in="SourceGraphic" in2="effect2_dropShadow_2336_8311" result="shape"/>
</filter>
<clipPath id="clip0_2336_8311">
<rect x="16" y="12" width="57" height="38" rx="6" fill="white"/>
</clipPath>
</defs>
</svg>
