<svg width="546" height="373" viewBox="0 0 546 373" fill="none" xmlns="http://www.w3.org/2000/svg">
<path d="M351.377 289.524L347.872 287.136L348.194 286.793L352.85 286.977V282.322L352.311 282.184V278.911L346.933 280.729L329.897 279.718V281.393L328.273 282.384V287.042L332.28 289.398L332.603 291.199L338.417 291.126L337.181 291.309V295.963L338.805 296.892L341.102 295.849V296.876L341.837 297.732L344.869 298.356L345.424 298.201V294.936L349.659 295.698L350.414 295.266V294.606L352.85 295.046L354.18 294.586V289.931L351.377 289.524Z" fill="#C6830E"/>
<path d="M338.507 297.914V296.317L327.408 291.866V287.909L319.606 283.006L323.238 284.208L324.442 282.166V277.512L323.597 277.761V274.79L322.156 270.767L323.046 269.336V268.766L322.805 268.75V265.069L317.488 270.738V273.049L315.93 280.12V285.944L327.624 297.478L332.741 298.86L335.724 301.228V302.813L336.777 303.938L343.448 304.883V300.229L338.507 297.914Z" fill="#C6830E"/>
<path d="M375.753 314.411V312.145L365.193 302.788V299.515L359.203 297.009V299.617L358.211 301.223V305.877L360.864 305.783V307.397L361.692 308.42L360.378 309.166V313.82L361.729 314.163V314.477L346.48 322.469L343.844 316.816L350.683 314.835V310.177L280.434 311.237V315.891L282.164 318.454L289.529 319.612L293.32 322.326L304.904 324.58L309.956 327.417L305.48 330.518V334.541L304.978 334.944V339.598L306.059 343.201L309.38 343.274V345.805H313.636L316.705 347.277L318.908 347.216L321.757 345.911L336.483 344.668L349.928 339.745L351.283 333.95L354.062 331.158V327.873L358.97 324.331V321.646L362.002 319.2V316.408L364.006 317.888L365.846 318.071L365.875 316.629L367.849 317.607L368.931 316.987L369.755 317.562L369.743 317.823V322.481L373.101 325.273L373.856 324.837L373.991 319.111L375.345 319.889L376.186 319.159V314.505L375.753 314.411Z" fill="#C6830E"/>
<path d="M303.473 343.523L303.534 341.318L296.422 344.595V349.249L296.965 349.987L297.373 350.126L298.503 349.767L299.923 350.647L302.702 349.759L303.75 350.028L306.852 349.033L306.925 348.455V343.8L303.473 343.523Z" fill="#C6830E"/>
<path d="M353.257 360.783L348.63 364.406L341.432 367.088L337.156 367.736L337.152 367.765V365.038L327.746 366.444L312.555 364.736V369.391L313.35 371.628L317.39 372.166L318.292 372.598L325.041 371.587L327.787 372.745L329.158 371.812L330.456 372.248L335.438 372.04L337.152 369.692L337.156 372.39L342.24 372.806L345.231 372.504V371.909L347.075 371.979L347.594 372.594L352.437 371.844V367.243L354.224 366.02V361.366L353.257 360.783Z" fill="#C6830E"/>
<path d="M375.809 277.728V273.074L364.658 277.728V280.7L363.735 281.608V283.593L358.863 283.658V288.313L360.671 288.741V289.617L361.246 291.789L366.008 291.414L367.526 288.064L370.884 286.76V281.07L375.809 277.728Z" fill="#C6830E"/>
<path d="M489.589 179.482L482.097 176.173V174.225L478.943 175.439L475.307 173.793L471.961 174.547V179.201L474.462 179.063L474.238 181.63L476.38 183.167L477.078 182.943L476.127 183.664V188.318L478.11 188.506L480.024 189.724L481.538 190.058L481.754 187.947V183.468L486.055 182.91L490.527 186.146L492.91 186.064V181.41L489.589 179.482Z" fill="#C6830E"/>
<path d="M117.97 168.373L112.082 155.294L113.763 154.471L116.073 150.832V146.177L53.8826 141.976L54.0213 150.306L55.1802 154.32L0 187.389V192.044L3.60714 199.738L9.38508 200.57L10.3481 200.154V195.5L9.75232 194.848L11.4539 191.934L15.2324 191.697L19.9045 190.956L21.2592 189.684V188.164L36.255 184.687L38.0422 182.67L46.3256 185.621L73.7178 181.834L75.8845 179.662L87.0527 180.375L88.7869 182.197L92.6838 182.446L102.501 179.96L107.12 175.99L114.629 175.656L119.68 175.742L123.724 172.098V167.444L117.97 168.373Z" fill="#C6830E"/>
<path d="M327.035 91.288L328.761 90.5625V85.9082L306.78 85.1746V71.7783H301.798L300.859 69.2352V64.5809L273.83 55.1011L251.347 51.1234L253.289 46.9296V42.2754L242.859 44.2846L244.573 42.5525V37.8982L234.25 36.5614V39.3736L232.507 39.4266V35.5303H224.852L215.83 40.1642V44.8185L221.604 46.4732L224.346 49.701L229.357 49.9741L224.175 51.7021L215.067 53.1978L210.995 56.5969L202.487 55.9611L203.915 53.0145L210.844 51.1519L215.896 51.319L217.124 50.5324V45.8782L210.844 45.7396L206.441 46.9215V44.2113L208.461 43.5795L210.481 40.6003V35.946L199.366 34.6256L189.258 34.3729V39.0272L190.556 39.4632V43.2494L182.321 43.3961L181.318 37.6252L183.052 35.4733V30.819L167.126 30.0365L168.762 25.7938V21.1396L161.711 29.9427L155.366 25.7409L164.143 16.5912L167.032 14.7043L167.464 7.48238L136.282 4.17303V7.97552L134.694 7.91846V3.25195L131.662 4.1608L126.843 6.03148L119.535 3.82661V8.48089L124.036 11.0607L99.4675 13.506V17.3697L84.5983 15.9065V20.5608L91.8167 22.8798L104.809 24.0373L106.976 22.7942L115.206 23.2099L119.392 26.4378L122.016 39.8178L68.7416 74.9939L65.3222 81.7023L61.0703 82.5255L61.2131 90.7378L63.6655 90.159L63.9552 88.5044L67.5542 85.3662L66.7177 91.7689L62.0782 92.209V96.8633L68.7375 107.158L72.0998 108.104L72.5283 111.625L76.7638 115.994L75.6702 118.264V122.918L77.7798 126.179L83.0926 126.211V121.557L80.8484 119.703L86.1897 118.46V113.805L82.8886 112.151L85.6143 111.837L88.3564 110.594L91.2454 110.427L91.6045 109.392V104.737L76.4863 104.713L76.5149 102.149L88.2095 96.2724L97.5946 98.5343V100.165L100.769 102.149L104.234 101.652L109.159 105.149L102.499 110.105L96.652 107.631V112.285L100.263 114.356L99.035 115.04L99.3247 120.852L108.42 126.729L114.051 128.465V123.811L103.079 117.482L103.511 114.645L109.865 111.499L113.186 107.774L118.527 106.2L131.23 107.358L137.151 104.957L151.155 106.363L154.909 104.379L160.683 106.681V108.515L172.52 111.164L174.687 110.256V105.98C175.254 106.021 177.625 106.07 178.139 106.213L178.298 111.001L182.954 115.158L185.659 114.559L188.295 112.098V109.795L190.568 109.265L194.612 106.286V99.6999L197.644 99.9118L202.985 93.8719V89.2176L199.231 89.7352V85.0809L192.445 86.8171L191.723 89.0505V91.3654L161.972 87.0861L167.758 85.4273V80.773L163.196 78.291V75.2507L166.028 71.8557L175.691 70.2866L188.838 72.2511V75.8253L189.695 78.3114L196.436 77.9242L197.933 74.5823L201.83 73.5063L207.172 74.5823L210.779 72.679L215.545 72.4304L217.711 70.36L221.192 72.4711L220.331 74.8268L213.239 74.5619V78.5152L201.349 76.0821V80.7364L203.018 81.6941L203.748 90.6155L206.886 90.966L208.906 88.647L211.06 88.4921V90.5544L213.525 90.4647L216.699 85.3336L219.152 86.0794L219.756 88.9649L224.926 89.2257V82.8679L228.247 83.1858L230.989 80.4551V78.7027L232.577 77.8876V73.1721L236.184 72.1777L238.061 70.9347V66.2804L232.556 64.9314V60.6439L229.471 58.4023L232.144 58.6876L235.466 64.1489L240.582 67.8495L245.002 66.9447L245.283 64.8132V63.0444L247.882 62.1029V65.8035L251.636 67.4582L255.68 66.3008L259.577 64.8947L263.188 66.9651L256.643 68.2774V72.9317L257.414 75.1366L262.107 77.0724L250.722 88.6144L241.468 87.3428V91.9971L222.645 99.1212V103.775L223.2 104.957V109.086L225.256 110.264L232.511 108.214L236.624 107.843L238.958 106.506L243.986 106.245L246.899 107.916C251.367 108.89 255.06 108.951 259.65 108.825L262.609 110.52L264.396 110.484L267.481 111.817L277.278 112.281L285.778 107.655L288.483 108.462L290.217 108.026L298.664 104.179V102.691L300.614 102.382L301.1 102.903V104.15L301.912 104.864L304.401 103.808L305.731 101.656C313.513 99.704 319.935 98.7095 327.949 98.5017L329.031 97.8822V93.2279L327.031 91.2513L327.035 91.288Z" fill="#C6830E"/>
<path d="M202.945 245.608V250.263L203.916 251.787L207.222 252.965C211.624 251.909 216.027 250.854 220.43 249.798L229.525 246.322L230.717 244.646V239.992L202.945 245.608Z" fill="#C6830E"/>
<path d="M538.333 223.793V219.138L515.919 212.194V207.16L502.437 206.696V202.041L467.157 193.821L458.853 188.417L461.342 188.478L461.559 185.128V180.474L454.52 181.778L448.456 179.357V174.703L440.369 172.408L444.29 171.132V166.478L438.28 163.095V158.441L437.08 158.274L438.018 156.098V151.443L433.175 149.573V145.978L431.241 144.221V141.821L424.447 140.537V142.53L422.998 143.288V147.942L424.549 147.861V149.12L428.699 153.485L429.854 153.563V157.275L429.294 157.198V161.852L423.663 162.101V157.447L407.962 158.376V163.03L388.633 161.697V157.043L380.011 161.029L375.314 160.393V167.33L373.033 166.274L366.329 155.364L368.169 153.697L377.481 150.53L390.367 150.779L392.317 149.662V145.008L378.17 145.147L360.808 148.917V153.571L361.24 154.687H361.673V156.55L362.681 159.146L357.523 158.999V155.486L347.057 155.552V151.969L339.549 156.293V151.639L334.281 144.776V140.121L329.315 136.747L277.762 141.295V145.95L272.4 151.749L262.485 149.658V147.409L263.542 144.25L263.554 143.088L266.986 142.29V140.496L267.74 140.113V135.459L265.537 134.306L258.457 138.585V140.961L257.515 142.306V137.273L249.321 136.466V138.459L245.804 138.234V142.889L247.248 143.904L248.934 144.152L248.954 147.103L245.567 146.251V150.905L247.734 152.642L246.363 154.174L224.202 155.458V150.803L223.88 151.692L221.603 153.037V157.691L224.981 161.579L229.976 163.483L231.526 162.924L236.06 163.083L236.688 162.036L242.029 161.62L242.895 162.199L245.494 162.117L247.008 161.001L249.533 161.041L251.121 163.523L256.389 163.564L256.686 163.829L256.821 165.614V170.937L252.618 170.786L249.713 168.695V173.349L252.133 176.431L254.442 175.603L255.956 176.308L259.494 175.359V174.613L260.971 174.348L261.081 175.44L261.767 175.762L262.056 175.64V176.744L261.767 177.551V182.206L263.391 182.145L263.827 181.672L264.55 182.1L265.994 182.14L266.643 181.521L267.655 178.542L268.667 178.358V179.495L269.532 179.72V180.755L269.458 180.836V185.491L270.54 186.681V187.683L272.523 188.49L273.351 188.099L275.012 189.383V190.903L266.17 193.087L247.942 180.963L246.102 175.562L245.38 174.609L244.939 174.348L246.889 172.983V168.328L187.633 164.697L172.617 175.889V180.543L173.629 181.537L174.387 185.266L183.336 190.577L192.721 193.108V196.495L193.623 197.301L197.377 198.545L198.099 200.326L196.908 201.255L189.546 203.863L188.824 205.188L188.967 208.456L181.422 216.049L176.334 216.318L169.332 219.379L165.002 225.875L160.167 229.971L155.156 232.844V237.499L155.756 239.447L165.472 243.852L181.822 244.04L186.368 242.923L187.127 242.116L193.08 243.045L196.655 241.122L198.495 238.95L211.055 240.441L215.062 240.005L220.909 236.655V234.67L224.267 232.747L224.7 231.504L231.09 229.951L240.103 230.322L246.681 230.819L264.007 228.708L267.255 226.845V223.043L269.287 223.1L274.269 224.575L278.052 225.378L279.37 225.614L280.765 225.174L286.041 226.376L288.359 225.382L293.925 224.97V220.316L293.509 218.441V216.86L294.374 216.929V219.187L299.788 223.409L307.582 226.886L306.121 229.898V238.261L297.948 246.314V250.968L299.127 251.429V255.256L300.817 256.087L303.632 255.468L304.297 253.361L305.473 252.362V250.911L306.338 250.83L312.454 246.868L321.472 247.516L330.645 246.624L337.933 250.968L332.853 253.283V257.938L336.027 258.822L330.351 262.686L328.776 266.048L324.455 270.511V275.165L325.573 278.165L326.944 278.454L327.556 276.322L330.645 273.82V269.166L330.478 268.656L331.073 267.91L336.035 265.416L337.986 266.985V267.719L337.627 267.963V272.618L338.892 272.968L342.682 272.451L343.584 273.09L347.697 273.298L352.786 268.933V264.279L357.115 262.478L368.663 266.765L381.573 267.935L383.067 266.553L388.788 266.048L391.334 264.899L392.631 261.671L395.553 258.255V256.177L396.745 255.712L402.212 256.364L403.457 255.9V251.445L406.868 252.941V256.026L404.975 256.768L404.542 258.011V262.665L406.407 262.686L406.309 263.513L404.812 264.87V269.524L406.705 270.344L410.202 268.668L412.736 269.834L415.143 269.557L415.388 268.175L415.964 268.126V269.72L416.196 270.58L419.012 270.45L420.313 269.757L422.529 271.301L424.027 270.743V271.737L426.32 271.937L430.196 268.986V268.2L431.008 267.735L432.306 268.171L435.011 265.812L435.986 263.513V262.543L437.517 262.115L440.042 263.521L441.777 262.869L443.837 263.48L445.841 263.077L446.816 261.65V256.996H446.677L447.95 256.263L450.288 252.093L452.28 252.786L454.373 248.026L454.3 246.412L456.319 244.676L456.103 243.229L457.548 241.574V236.92L454.912 238.99L452.765 240.506V235.09L449.248 238.844V235.167L462.509 230.868L464.729 230.713L473.013 233.659L474.906 233.195L476.151 234.026V236.451L481.749 236.887L482.324 234.96L485.466 234.34L489.473 232.168L491.856 233.7V235.526L473.017 252.525V257.18L475.885 256.527L477.995 255.317L479.133 253.858L481.622 254.604L482.055 252.99L484.381 251.967L486.384 252.558L487.413 251.967L488.061 249.668L489.796 248.49L490.012 249.42L491.15 249.265L493.476 245.76L492.774 244.859V243.245L495.157 242.002L495.643 240.604L496.671 240.013L498.287 240.967L501.025 240.539L505.493 241.163L505.873 242.993L506.848 243.799L512.099 240.853L520.926 239.642L522.766 241.317L524.5 240.323V235.669L522.656 232.698L525.365 233.806L529.209 232.037V229.115L529.858 228.312L531.098 228.341V230.578L533.269 230.142L535.056 230.611V232.033L539.606 234.018L541.14 229.649L542.964 229.857L543.829 229.547L544.156 228.618L545.943 227.656V223.002L538.308 223.776L538.333 223.793ZM264.162 170.941L263.15 174.625L263.04 174.67V170.59L262.244 170.366V167.032L260.657 166.596L262.787 165.374L264.015 165.7V169.18L264.374 170.256L264.958 170.558L264.158 170.941H264.162ZM265.855 199.926V204.866L262.497 204.951V208.595L261.306 208.489V213.812L257.625 215.568V219.138L256.434 219.424V216.004L256.405 215.303L259.143 211.411V208.856L261.526 206.944L261.093 205.208L264.668 199.062L265.945 199.596L265.855 199.93V199.926ZM286.323 213.714V210.294L286.592 209.83L288.326 208.464L289.192 208.77V212.499L291.052 215.034L286.323 213.714ZM296.23 191.082L280.749 179.785L283.671 178.232L284.536 178.729L286.539 178.077L289.138 177.955L289.865 178.493L289.893 181.741L293.953 181.586L294.765 181.896V184.411L296.226 187.125V191.082H296.23ZM296.487 154.582L291.844 156.603V161.257L292.819 161.816L291.701 162.676L288.335 160.801L287.204 160.776L286.384 159.957V159.032L286.576 159.077L287.131 159.643V155.861L291.656 153.632L294.712 153.978L296.491 153.42V154.582H296.487ZM301.323 149.251V153.049H296.92L297.446 151.631V150.306L300.021 148.831L302.318 148.68L301.319 149.255L301.323 149.251ZM311.279 191.828V199.144L304.869 202.355L302.347 199.246L305.705 199.123L305.693 194.824L307.492 192.822V191.433L310.092 190.772L311.675 191.294L311.283 191.828H311.279ZM443.862 256.059L443.535 256.515V252.562L439.12 256.511L435.138 257.436L432.387 261.296L424.855 263.941V261.593L419.848 263.762L412.018 261.675L412.944 260.664L412.728 259.172L413.487 258.243L412.675 256.597L413.866 255.912L418.848 255.973L420.742 254.204L425.259 253.768L426.589 255.631L433.681 255.227L443.858 251.413V256.055L443.862 256.059Z" fill="#C6830E"/>
<path d="M346.441 114.115V110.691L336.987 113.797V115.17L334.738 116.079V120.734L337.448 123.387L341.549 122.034V124.267L343.062 125.71L347.302 125.176V120.522L346.404 119.446L347.988 119.454L352.256 121.867L356.642 120.803V116.144L346.441 114.115Z" fill="#C6830E"/>
<path d="M265.369 118.427V113.772L259 113.874V115.395L257.547 115.969V120.623L261.697 123.872H263.141L267.45 125.176L271.433 124.715V120.061L265.369 118.427Z" fill="#C6830E"/>
<path d="M352.442 367.19L347.598 367.94L347.08 367.325L344.917 367.243L345.236 367.851L337.16 367.737L337.156 366.767L340.062 366.881L341.955 364.386L344.301 364.986L348.451 363.751L354.013 358.799L354.229 361.366L351.083 363.518L349.859 365.898L352.025 366.477L352.442 367.19Z" fill="#F5FAFB"/>
<path d="M335.438 367.387L330.456 367.595L329.158 367.159L327.787 368.092L325.041 366.93L318.292 367.945L317.39 367.513L313.35 366.975L312.555 364.738L314.721 363.996L328.003 365.443L335.944 364.408L337.152 365.039L335.438 367.387Z" fill="#F5FAFB"/>
<path d="M306.852 344.38L303.75 345.374L302.702 345.105L299.923 345.994L298.503 345.109L297.373 345.468L296.965 345.333L296.422 344.596L302.967 340.883L303.534 341.319L303.281 342.705L306.925 343.801L306.852 344.38Z" fill="#F5FAFB"/>
<path d="M349.928 335.092L336.483 340.016L321.757 341.259L318.908 342.559L316.705 342.624L313.636 341.153H309.38L309.27 339.934L310.572 338.65L306.059 338.549L304.978 334.946L305.733 333.768L308.442 332.879L308.911 331.657L305.48 330.52L306.455 327.769L309.054 326.277L308.442 321.912L304.904 319.927L293.32 317.67L289.529 314.959L282.164 313.802L280.434 311.238L282.311 310.162L287.942 309.168L293.732 304.306L294.401 302.9L303.713 299.672L316.599 304.078L322.226 302.753L335.149 303.788L335.655 306.148L345.24 305.769L350.683 310.179L344.893 311.858L346.48 317.816L348.288 318.436L353.123 317.152L354.927 315.705L360.415 314.132L362.002 314.548L357.526 318.313L358.97 319.679L352.833 324.105L354.062 326.505L351.283 329.297L349.928 335.092Z" fill="#F5FAFB"/>
<path d="M373.97 320.118L373.101 320.619L369.742 317.824L369.906 313.948L370.391 313.357L368.93 312.334L367.849 312.953L365.413 311.743L365.846 313.418L364.005 313.23L361.728 311.555L362.704 309.758L360.378 309.167L360.757 308.018L362.487 308.454L363.569 306.094L360.863 302.744V301.13L358.211 301.224L358.639 299.614L359.908 298.758L359.202 297.01L360.068 296.517L363.409 297.621L365.193 299.516L362.434 300.91L362.855 302.288L369.31 302.618L374.831 309.322L375.753 312.146L374.398 312.55L376.185 314.506L375.345 315.236L373.99 314.457L373.37 315.806L373.99 316.291L373.97 320.118Z" fill="#F5FAFB"/>
<path d="M342.975 299.031L343.448 300.229L336.777 299.284L335.724 298.159L336.524 297.205L332.741 294.206L327.624 292.824L315.93 281.286L318.415 281.147L327.408 287.909L326.91 289.568L329.167 291.369L331.75 292.09L332.937 293.737L338.507 296.317L337.805 297.303L342.975 299.031Z" fill="#F5FAFB"/>
<path d="M324.441 277.513L323.237 279.555L321.528 278.988L319.039 280.484L315.929 280.121L315.754 274.106L318.304 271.432L317.488 270.739L319.41 265.555L319.508 262.935L322.805 265.07L321.793 266.7L323.046 268.767L322.442 269.72L323.597 274.79L321.915 274.823L321.985 277.126L324.441 277.513Z" fill="#F5FAFB"/>
<path d="M492.91 181.411L490.527 181.492L486.055 178.256L481.215 178.884L480.383 178.244L478.057 177.971L476.38 178.513L474.238 176.976L474.556 174.401L471.961 174.547L472.683 173.39L475.168 173.308L477.208 172.184L478.506 172.367L478.69 174.209L479.481 174.539L480.53 173.94L482.097 174.225L481.754 175.432L483.958 175.326L486.618 177.555L489.633 178.374L492.943 180.477L492.91 181.411Z" fill="#F5FAFB"/>
<path d="M481.756 183.294L481.54 185.405L480.026 185.071L478.112 183.852L476.129 183.665L477.859 180.478L479.43 181.154L479.193 181.822L481.756 183.294Z" fill="#F5FAFB"/>
<path d="M543.204 220.376L538.927 220.47L539.307 222.985L538.711 223.388L537.034 221.929L538.332 219.138L524.797 209.083L521.765 208.835L518.137 206.817L516.999 208.464L517.921 210.73L516.783 211.504L514.673 211.162L515.322 209.919L513.482 208.863L515.918 207.155L505.578 205.199L504.439 206.222L500.812 204.017L502.436 202.032L499.889 198.711L488.468 194.892L488.631 191.138L478.508 186.513L475.043 186.949L475.423 190.083L471.742 190.89L470.767 188.469L468.005 188.066L465.405 185.706L464.483 185.987L462.427 189.586L459.88 188.004L458.852 183.754L461.341 183.815L461.558 180.465L454.519 177.114L453.707 179.193L447.317 176.153L448.455 174.694L438.278 170.471L431.782 171.401L431.023 170.781L444.289 166.469L442.285 160.727L438.821 160.042L437.466 160.943L435.679 160.661L438.278 158.428L436.006 154.581L429.293 157.189L430.97 159.516L421.442 158.4L423.662 157.438L420.198 156.382L418.521 157.095L413.216 156.786L407.965 158.367L408.56 160.82L399.791 158.526L398.547 159.239L397.625 161.444L387.232 158.587L388.64 157.034L384.69 154.52L380.25 157.747L377.382 157.654V160.013L375.325 160.384L376.406 164.668L373.807 165.414L371.857 159.765L367.58 155.139L366.336 155.355L366.931 158.86L366.605 160.164L363.247 160.413L364.544 158.738L361.027 157.65L358.158 157.931L355.216 156.72L357.452 156.513L357.526 155.477L343.811 155.147L347.06 151.96L344.693 150.603L342.367 153.904L340.274 154.524L338.76 153.407L333.708 153.656L333.202 155.021L331.252 155.062L330.632 152.168L328.004 152.539L328.869 154.031L328.726 154.939H327.281L325.331 152.168L328.653 149.6L327.787 148.525V146.291L328.726 146.499L328.942 147.783L330.746 150.306L335.655 152.539L339.551 151.63L339.335 149.107L337.242 144.93L334.353 143.438L333.994 141.409L330.746 140.043L330.456 138.8L332.345 140.104L334.284 140.113L332.117 136.526L328.616 135.014L324.05 135.458L322.156 134.227L316.272 133.359L310.176 135.707L305.769 135.242L304.072 136.237L294.964 137.402L294.65 138.266L293.291 138.079L293.279 137.439L289.092 136.86L288.297 137.317L285.771 136.282L284.118 137.749L282.453 137.989L280.936 140.239L279.96 139.827L277.761 141.286L278.483 143.023L280.36 143.601L285.053 143.642L286.497 143.063L287.293 143.353L285.775 143.972L285.632 144.632L283.682 146.413L282.743 149.022L281.662 149.144L278.773 148.647L278.483 147.738L280.36 147.656L280.217 146.499L281.539 146.401L282.67 145.835L280.854 145.521L279.948 145.655L278.336 145.089L274.872 146.715L274.798 147.196L273.138 149.14L271.187 149.181L270.971 148.394L266.642 147.237L260.578 148.231L258.774 147.526L257.114 148.48L253.25 146.548L251.413 147.856L249.393 146.862L249.536 146.201L246.647 145.044L245.566 146.242L247.733 147.978L246.362 149.511L247.59 150.627L242.538 152.531L240.804 152.698L235.03 147.734L231.925 147.114L230.913 147.693L230.338 148.688L227.449 150.424L224.201 150.795L223.878 151.683L221.601 153.028L224.98 156.916L229.975 158.819L231.525 158.261L236.059 158.42L236.687 157.373L242.028 156.957L242.893 157.536L245.493 157.454L247.011 156.337L249.536 156.378L251.124 158.86L256.392 158.901L257.689 160.058L256.534 161.794L256.824 165.601L258.269 167.423L257.546 167.92V170.321L255.31 170.777L252.278 169.534L251.197 168.25L249.716 168.686L252.136 171.767L254.445 170.94L255.963 171.645L259.501 170.691V169.946L260.978 169.681L261.088 170.773L261.774 171.095L263.039 170.569L261.668 168.209L262.247 167.011L261.055 166.575L260.66 165.438L261.239 164.321L261.313 162.707L260.664 161.921L262.794 160.698L264.671 161.195L265.14 163.201L264.022 164.505L264.381 165.581L265.826 166.327V169.346L266.332 169.884L264.165 170.92L263.153 174.604L262.072 175.06L262.361 175.929L261.786 177.542L263.41 177.481L263.847 177.009L264.569 177.436L266.013 177.477L266.662 176.858L267.674 173.879L269.155 173.61L268.686 174.828L269.877 175.138L270.42 174.661L272.55 174.848L273.705 175.843L273.162 176.528L271.501 177.481L272.73 177.938L271.681 178.704L270.816 178.374L270.057 178.353L269.551 179.014L270.563 179.592L269.482 180.835L270.816 182.303L270.563 183.028L272.546 183.835L273.374 183.444L275.035 184.728L274.998 185.494L277.235 186.737L279.365 186.59L279.871 188.286L277.451 189.671L269.726 191.407L266.189 188.428L263.3 188.18L258.317 184.165L258.162 182.319L254.094 179.719L251.674 179.821L249.871 181.064L247.957 180.962L246.117 175.562L245.395 174.608L242.906 173.141L241.392 170.948L242.077 170.019L244.028 170.349L246.908 168.332L246.627 167.37L237.172 162.528L228.404 160.812L224.037 157.483L215.77 157.091L210.645 158L208.711 159.374L203.827 159.096L202.346 158.29L187.656 160.05L182.315 164.354L176.251 165.304L175.096 166.917L174.448 172.587L173.329 173.809L172.644 175.9L173.656 176.894L174.415 180.624L183.363 185.934L193.434 188.726L194.156 190.091L192.748 191.848L193.65 192.655L197.404 193.898L198.126 195.679L196.935 196.608L189.574 199.216L188.852 200.541L188.994 203.809L181.45 211.402L176.361 211.671L169.359 214.732L165.03 221.228L160.194 225.324L159.978 227.643L155.184 232.852L155.783 234.8L165.499 239.206L181.849 239.393L186.395 238.276L187.154 237.469L193.107 238.399L196.682 236.475L198.522 234.303L211.082 235.794L215.089 235.358L220.936 232.008L220.071 230.516L224.295 228.096L224.727 226.853L231.117 225.3L246.709 226.168L264.034 224.057L267.282 222.194L266.417 221.697H264.683L255.698 218.408L256.457 215.987L256.241 210.897L259.162 206.74L257.754 205.313L261.545 202.273L261.113 200.537L264.687 194.391L267.07 195.385L265.879 199.917L266.311 202.399L262.52 204.942L263.279 206.744L261.329 208.48L262.194 211.211L257.648 215.555L266.862 218.384L269.314 218.449L279.397 220.959L280.793 220.519L286.069 221.721L288.386 220.727L293.952 220.315L293.663 217.996L291.643 216.175L293.536 213.786L292.887 213.289L288.774 213.786L284.282 211.895L286.338 210.281L286.607 205.162L288.342 203.797L291.157 204.792L289.207 207.832L292.345 212.115L295.107 212.331L295.972 212.951L294.401 214.532L307.61 222.227L306.096 224.212L306.149 229.889L310.992 230.39L306.638 232.791L300.791 240.595L300.901 242.209L298.792 244.536L297.98 246.305L299.334 246.831L306.373 246.167L312.49 242.205L321.181 242.865L330.681 241.957L337.026 245.739L336.018 251.22L334.173 251.795L332.888 253.27L336.063 254.155L337.699 254.126L338.205 255.353L333.394 260.317L328.493 262.025L327.934 266.263L325.217 268.179L324.495 270.498L325.613 273.497L326.984 273.787L327.596 271.655L330.685 269.153L329.436 265.346L331.113 263.247L336.075 260.753L339.107 263.194L338.025 264.767L340.514 266.899L339.323 266.838L337.662 267.954L338.927 268.305L342.718 267.787L343.62 268.427L347.733 268.635L352.821 264.27L352.531 259.388L357.151 257.815L368.698 262.102L381.609 263.272L383.102 261.89L388.823 261.385L391.369 260.235L392.667 257.008L395.589 253.592L394.397 251.978L396.78 251.049L402.248 251.701L403.492 251.237L401.22 249.932L401.705 249.28L399.812 248.816L398.241 249.28L397.319 248.816L397.213 246.395L399.053 245.217L408.773 249.235L409.65 250.809L406.904 252.072L407.606 252.663L408.634 252.757L409.23 253.283L407.226 254.493L407.063 255.952L405.006 256.759L404.574 258.002L407.336 258.035L407.879 258.78L409.613 258.842L411.184 257.941L412.971 255.985L412.755 254.493L413.514 253.564L412.702 251.917L413.894 251.232L418.876 251.294L420.769 249.525L425.286 249.089L426.616 250.951L433.708 250.548L444.97 246.326L450.773 241.251L452.434 241.003L450.316 245.046L447.284 247.116L447.427 248.025L443.889 251.375L446.125 252.659L448.002 251.583L450.34 247.414L452.332 248.107L454.425 243.346L454.351 241.732L456.371 239.996L456.155 238.549L457.599 236.895L456.02 236.377L453.523 239.686L452.099 240.07L452.821 235.061L450.818 234.657L449.626 235.403L448.112 234.718L449.304 234.16L449.251 232.452L447.141 231.988L446.656 230.965L462.574 226.184L464.793 226.029L473.077 228.976L474.97 228.511L478.867 231.12L476.81 230.81L476.215 231.772L481.813 232.208L482.388 230.28L485.53 229.661L489.537 227.488L491.741 228.907L494.246 228.572L494.193 229.473L491.92 230.468L492.569 232.143L497.796 230.985L499.498 228.169L501.824 228.572L498.09 232.823L494.626 233.259L485.963 237.665L484.286 237.51L482.878 238.875L480.336 239.401L476.872 242.878L473.081 252.5L475.949 251.848L478.059 250.637L479.197 249.178L481.686 249.924L482.119 248.31L484.445 247.287L486.448 247.878L487.477 247.287L488.125 244.989L489.86 243.811L490.076 244.74L491.214 244.585L493.54 241.08L492.834 240.18L491.263 240.832L491.643 239.185L495.217 237.323L495.703 235.925L496.731 235.334L498.347 236.287L501.085 235.86L505.553 236.483L505.933 238.313L506.908 239.12L512.159 236.173L520.986 234.963L522.826 236.638L524.56 235.643L524.18 232.2L523.205 231.332L524.07 229.966L522.393 229.004L521.149 226.49L522.503 226.457L523.532 228.348L525.425 229.123L529.269 227.354L528.51 225.369L529.918 223.633L531.272 223.665L531.162 225.899L533.329 225.463L535.332 225.989L535.116 227.354L539.666 229.339L540.968 225.634L540.045 224.839L543.024 225.182L543.889 224.872L544.216 223.943L546.003 222.981L543.24 220.344L543.204 220.376ZM296.229 186.427L293.683 186.395L290.108 184.719L287.346 181.215L285.016 179.817L282.69 179.165L280.797 179.381L280.095 178.48L278.418 177.767L277.553 176.524L278.634 175.28L280.744 175.126L283.665 173.573L284.53 174.07L286.534 173.418L289.133 173.296L291.785 175.252L291.459 176.181L289.998 176.087L289.888 177.082L293.948 176.927L296.547 177.921L294.76 179.751L297.465 184.781L296.221 186.427H296.229ZM297.2 156.076L297.037 155.302L297.633 154.153L295.846 153.749L292.867 154.589L291.839 156.606L292.814 157.165L291.696 158.029L288.329 156.154L287.199 156.129L286.379 155.31L287.126 154.992L286.571 154.426L280.964 153.171L279.711 153.472L279.063 152.519L279.352 151.801L278.463 151.096L276.969 150.848L275.455 149.649L276.345 148.117L276.802 148.325L277.324 149.955L278.14 150.424L281.225 149.454L281.874 149.633L281.225 150.473L282.453 151.039L284.787 150.693L285.844 151.659L291.643 148.969L294.699 149.315L296.817 148.655L297.441 146.972L296.817 146.723L296.915 145.949L300.02 144.168L309.597 143.781L309.523 143.214L312.796 142.305L316.187 144.278L315.15 145.366L307.234 145.904L307.018 145.557L305.116 146.067L303.337 148.08L301.317 149.238L302.354 150.273L302.884 150.411L303.076 151.736L306.226 152.604L307.022 152.453L310.246 153.945L310.221 154.952L307.173 155.408L306.067 154.768L305.002 153.448L299.779 152.36L298.698 152.706L298.265 152.457L297.449 152.677L296.486 153.338L296.919 153.505L297.759 153.326L299.636 153.656L300.791 154.564L298.824 155.693L297.2 156.064V156.076ZM316.746 190.678L315.391 189.59L312.739 189.317L312.465 190.213L311.274 191.827L312.629 193.347L309.327 195.736L308.589 199.4L304.819 200.663L299.2 196.074L302.342 194.582L305.7 194.46L305.647 190.209L307.487 188.159L306.781 186.949L310.082 186.109L311.87 186.7L313.873 186.297L317.284 186.888L317.337 187.662L317.933 188.127L318.582 188.066L319.341 188.75L316.742 190.674L316.746 190.678Z" fill="#F5FAFB"/>
<path d="M329.033 93.2607L327.947 93.8843L305.729 97.0347L304.399 99.1907L301.91 100.246L301.098 99.533L301.853 99.0969L300.608 97.7642L297.36 98.8157L298.662 99.5615L288.481 103.845L285.776 103.038L277.276 107.664L267.479 107.195L264.39 105.862L262.603 105.899L259.644 104.204L246.893 103.295L243.979 101.624L238.952 101.889L236.618 103.225L225.25 105.646L223.194 104.464L224.169 102.418L222.639 99.154L234.292 90.2204L240.246 89.23L241.76 90.2204L244.306 89.3849L247.664 89.3197L247.542 88.5738L243.584 88.639L241.833 87.8973L241.462 87.3756L243.404 85.8473L244.379 85.7291L245.065 86.1733L247.183 85.9899L248.529 83.7973L251.398 82.8355L252.21 83.1778L253.944 82.6806L254.593 81.6862L260.873 77.1541L263.349 76.4531L262.101 72.451L257.408 70.5151L256.637 68.3102L264.337 65.6733L264.01 64.9275L264.716 63.6559L267.479 63.501L274.787 66.574L275.542 67.5684L281.634 66.8348L279.765 65.5796L280.145 64.9275L282.528 64.6177L281.663 63.3339L273.179 61.2473L263.182 62.3436L259.571 60.2732L251.634 62.8408L247.88 61.182L248.745 59.0302L248.166 57.3755L245.228 58.4433L243.384 54.9057L240.789 54.3474L238.728 55.3377L240.299 57.6648L245.281 60.1917L245 62.3232L240.58 63.228L235.464 59.5274L232.142 54.0661L227.523 53.5689L229.473 56.0102L228.551 56.5196L221.3 56.4626L216.261 55.3703L215.073 56.2384L221.729 58.2558L229.743 58.3821L232.13 59.8534L232.558 60.6767L225.952 60.1795L226.115 61.1413L230.122 61.019L234.313 62.4292L238.063 66.3132L236.186 67.5562L232.289 68.6322L232.575 73.2661L229.832 74.6721L230.987 75.8337L228.245 78.5643L224.781 78.2301L224.924 84.6042L219.754 84.3434L219.15 81.4579L216.697 80.7162L213.519 85.8473L211.058 85.9329L211.209 83.8584L208.9 84.0255L206.88 86.3404L203.738 85.9899L202.971 81.299L205.293 80.9648L207.112 79.4201L201.339 76.1108L203.416 74.2605L206.733 76.3268L215.253 76.2453L213.229 74.5906L213.951 73.0175L219.582 73.5962L218.57 71.0327L222.614 68.7137L217.705 65.7344L215.543 67.8048L210.777 68.0534L207.165 69.9567L201.824 68.8808L197.927 69.9567L196.43 73.2987L189.689 73.6858L188.832 71.1957L192.443 68.302L175.211 66.1828L166.022 67.2261L162.847 71.0327L164.145 72.4387L165.447 78.4787L167.756 80.7977L161.403 82.6195L159.808 85.024L160.681 87.1678L164.541 86.1163L168.764 83.3612L176.994 84.2741L181.471 82.5339L181.903 79.6402L187.677 80.4676L190.456 78.3768L194.463 77.4027L198.074 79.9703L199.229 85.1015L192.443 86.8377L191.721 89.0711L195.907 89.6539L201.824 88.5779L202.979 89.2382L197.638 95.2781L194.463 95.1151L194.03 97.8457L194.606 101.652L190.566 104.632L186.669 105.54L188.293 107.464L185.657 109.93L182.948 110.529L178.292 106.368L178.149 104.632L182.336 104.053L182.932 102.386L170.641 101.155L169.486 103.804L174.685 105.626L172.518 106.535L160.681 103.886L161.546 102.398L154.907 99.749L151.153 101.734L137.149 100.328L131.232 102.728L118.525 101.571L113.184 103.144L109.863 106.865L103.513 110.011L107.41 116.218L103.799 116.797L110.732 119.609L114.049 122.34V123.831L108.418 122.095L99.3268 116.218L99.0371 115.061L103.077 113.899L100.265 109.722L96.6541 107.652L99.4696 106.702L103.513 109.017L105.676 106.783L106.831 103.474L108.998 102.561L110.295 101.322L104.232 97.0184L100.767 97.5156L97.5926 95.5267L98.1679 94.0392L88.2075 91.6387L76.5129 97.5156L75.505 101.734L79.5447 104.383L85.6083 102.398L91.6025 104.754L91.2393 105.789L88.3544 105.956L85.6083 107.195L82.0011 107.611L79.8344 108.52L83.8781 110.174L86.0449 112.412L86.1877 113.818L80.8464 115.061L79.1122 118.37L83.4456 120.192L85.6083 122.258L85.1757 124.826L89.7948 123.004L98.6046 124.577L100.335 128.384L103.366 131.775L107.843 132.688L106.688 135.83L108.998 137.154V141.291L112.172 142.123L116.073 146.178L113.763 149.817L111.74 150.812L111.597 152.878L115.061 157.019L114.629 158.755L119.68 161.485L121.414 163.47L121.7 166.286L123.724 167.444L119.68 171.087L107.12 171.336L102.501 175.306L92.6838 177.788L88.7869 177.539L87.0527 175.721L75.8845 175.008L73.7178 177.18L46.3256 180.967L38.0422 178.016L36.255 180.033L20.7002 183.636L21.2592 185.03L19.9045 186.302L11.4539 187.28L8.34864 193.307L10.3481 195.5L9.38508 195.912L3.60714 195.084L0 187.39L6.06358 179.94L10.5399 179.198L24.9398 167.713L33.0967 165.439L38.4217 161.229L55.8698 152.051L53.8826 141.976L55.1802 141.23L58.4691 134.84L57.604 132.521L65.8669 128.156L78.7857 126.908L81.891 124.761L81.5604 121.57L77.7778 121.533L75.6682 118.276L77.129 111.727L72.5263 106.979L71.9305 103.409L68.7355 102.512L62.0762 92.2174L63.235 90.8928L66.1199 90.7298L67.1319 83.8584L73.3383 75.9967L71.6082 75.0063L68.862 76.5754L67.2747 80.9648L63.9532 83.8584L63.6676 85.5131L61.2111 86.0918L61.0683 82.5339L64.1001 81.2949L63.8104 78.6458L65.8302 77.4883L67.2747 74.8392L71.751 71.4443L70.8859 68.4651L77.0923 60.9375L84.4535 56.7152L95.2831 55.1421L99.9021 52.3299L103.044 48.3767L108.708 46.2859L109.14 42.5649L114.049 39.7487L119.105 34.369L121.267 29.4865L119.39 21.7918L115.204 18.564L106.978 18.1483L104.811 19.3913L91.8187 17.757L84.6004 15.9149L85.0329 14.5088L102.359 15.6663L99.4696 13.5144L100.767 8.46885L105.243 5.57114H116.216L119.97 8.55036L126.033 7.55593L119.537 3.83087L119.949 2.26994L124.014 2.09469L124.732 0.358504L133.395 2.5104L134.696 3.25215L131.665 4.16507L131.375 5.65265L136.859 6.47998L136.284 4.16507L139.026 3.25215L141.192 0.191406L145.522 0.358504L146.534 2.09469L157.792 3.41924L167.467 7.47442L167.034 10.0379L164.145 12.0268L166.169 13.6815L166.602 16.7422L168.764 21.1275L166.312 27.5017L171.363 26.7559L183.058 30.811L181.324 32.9629L178.582 34.5361L182.193 36.1092L183.201 41.9821L186.38 42.1492L185.784 40.0096L188.399 39.5001L191.721 42.5649L193.598 41.8191L190.566 38.5913L192.153 37.6824L195.907 39.0029L195.185 36.7695L199.372 36.5209L196.483 35.3634L192.729 35.5305L189.264 34.369L193.165 31.3082L202.836 32.3842L205.868 30.648L209.622 33.4601L210.487 35.9422L208.467 38.9214L205.288 39.9158L206.447 43.3923L202.979 45.3771L204.281 46.1229L207.455 44.4682L214.098 44.134L217.13 45.8743L215.902 46.6609L210.85 46.4938L203.917 48.3563L200.021 54.5634L208.9 55.1828L209.487 52.4767L214.041 48.45L215.885 49.3792L220.843 48.7149L224.059 51.1684L229.832 48.6864L230.412 45.3771L224.348 45.0469L221.602 41.8191L215.828 40.1644V37.5153L218.86 36.2723L218.717 33.8718L222.953 32.0663L226.25 33.4601L230.032 33.5906L232.509 35.5264L228.825 36.9366L227.633 39.2311L234.452 39.0477L234.252 36.5576L239.507 36.1908L244.575 37.8943L243.008 39.4797L238.026 40.5964L241.058 42.8339L251.259 40.8002L253.291 42.2756L250.043 49.3507L252.789 50.9198L256.539 49.2651L258.996 47.0317L268.956 47.2803L270.364 45.4789L277.186 48.6864L278.447 50.1169L279.749 50.8587L281.083 50.0925L286.318 51.2744L286.282 53.0717L290.468 55.1421L292.635 54.2332L294.945 55.5578L295.52 57.0454L299.706 58.2884L300.861 64.577L298.552 66.2317L292.488 64.0798L288.387 64.9764L289.999 66.9775L293.41 66.0157L297.829 66.7289L299.923 68.1349L301.873 68.3836L306.782 71.7785L305.733 73.368L303.207 74.9004L303.93 75.854L305.411 76.286L305.754 75.202L310.226 72.7648L317.093 73.5106L317.228 74.9533L319.395 75.5117L322.198 75.2183L326.001 77.3742L327.082 79.2367L328.759 80.5695V85.9084L323.642 87.1718L323.022 89.1363L323.508 90.0981L325.189 89.7557L327.352 90.5016L329.033 93.2607Z" fill="#F5FAFB"/>
<path d="M445.861 258.426L443.857 258.829L441.797 258.218L440.062 258.87L437.537 257.464L435.088 258.149L436.011 258.862L435.035 261.157L432.33 263.516L431.032 263.08L430.22 263.545V264.331L426.344 267.282L424.051 267.082L425.785 266.214L425.022 265.725L422.557 266.646L420.342 265.102L419.04 265.795L416.224 265.925L415.992 265.065L417.726 264.071L416.588 263.418L415.416 263.52L415.172 264.902L412.764 265.179L410.23 264.014L406.733 265.689L404.84 264.869L406.337 263.512L406.517 261.98L410.034 261.927L410.757 261.389L415.07 261.295L419.864 262.966L423.516 261.295L424.871 261.576L424.561 262.286L426.079 262.872C428.098 261.756 430.282 260.924 432.395 259.995L436.129 255.618H438.728L441.813 253.788L442.082 252.639L443.543 252.545L443.164 254.933L444.086 256.889L446.848 256.983L445.873 258.41L445.861 258.426Z" fill="#F5FAFB"/>
<path d="M262.218 145.871L259.476 146.825L257.068 146.89L248.887 143.634L248.932 143.165L252.208 143.132L253.832 144.062L255.546 143.736L252.184 142.607L252.208 141.518L254.616 141.563L255.024 140.398L256.162 140.365L256.378 141.172L257.623 141.698L258.729 140.072L260.255 139.668L260.177 139.305L258.459 138.588L258.851 136.774C261.038 135.821 263.156 134.676 265.539 134.305L267.738 135.458L267.114 135.776L265.36 135.654L265.392 136.298L266.988 137.19L266.935 137.647L263.417 138.466L263.544 139.595L262.43 142.916L260.969 144.432L262.483 144.999L262.218 145.867V145.871Z" fill="#F5FAFB"/>
<path d="M354.183 289.931L352.853 290.391L350.674 289.996L347.874 287.6L346.038 288.301L346.736 289.181L350.417 290.607L349.662 291.043L345.385 290.269L345.043 291.973L343.839 291.928L345.426 293.546L344.871 293.697L341.839 293.077L341.105 292.221L342.374 291.194L340.999 290.856L340.889 291.292L338.808 292.238L337.184 291.308L338.347 290.64H339.212L340.187 289.584L339.159 289.242L340.648 288.297L344.753 287.628L346.059 286.683L349.551 287.135L352.53 289.523L354.183 289.931Z" fill="#F5FAFB"/>
<path d="M437.506 152.63L433.609 153.005L432.275 152.28L429.855 152.838L430.288 151.31L432.022 150.148L431.157 148.991L428.7 148.823L424.551 144.459L426.779 143.513L425.877 143.13L423 143.281L423.037 141.377L424.959 142.417L425.538 141.964L424.453 140.53L427.04 138.398L430.255 137.84L431.247 141.814L427.762 142.327L428.484 142.865H430.794L433.177 145.971L431.447 148.343L432.826 149.027L434.405 148.037L436.494 148.33L438.024 151.436L437.506 152.63Z" fill="#F5FAFB"/>
<path d="M392.314 145.009L390.368 146.125L377.481 145.877L368.17 149.044L366.113 150.902L366.329 154.566L364.922 155.063L362.322 153.571L361.674 151.896L362.865 151.587L362.755 150.034H361.241L360.809 148.917L364.595 146.745L367.574 146.651L367.521 145.07L370.606 145.037L373.854 142.682L380.734 142.999L381.921 142.4L386.524 143.798L391.016 143.085L392.314 145.009Z" fill="#F5FAFB"/>
<path d="M366.008 286.76L361.246 287.135L360.704 285.085L362.544 284.526L358.863 283.658V282.912L362.005 282.603L364.168 283.841L365.576 283.035L363.735 281.608L365.037 279.248L368.012 279.652L367.526 278.071L364.658 277.728L368.824 272.234L370.668 272.919L373.373 271.366L375.809 273.074L368.718 277.883L371.317 279.994L370.884 282.105L367.526 283.409L366.008 286.76Z" fill="#F5FAFB"/>
<path d="M351.226 280.76L352.85 282.321L348.194 282.138L346.06 284.404L346.032 285.798L343.596 284.897L341.727 286.43L332.603 286.544L332.28 284.742L328.273 282.383L329.196 281.237L330.656 280.773L329.897 279.717L332.007 277.573L334.337 277.357L336.022 279.037L338.018 278.413L341.266 279.22L344.922 278.519L346.897 279.53L352.311 278.91L351.226 280.76Z" fill="#F5FAFB"/>
<path d="M257.516 137.281L256.508 138.748L254.774 138.581L253.06 140L251.574 140.35L249.975 139.657L247.249 139.254L245.805 138.243L246.311 137.538L249.106 137.183L249.669 137.452L250.407 137.363L249.322 136.474L251.619 135.777L252.95 136.544L254.667 135.851L256.308 136.152L257.516 137.281Z" fill="#F5FAFB"/>
<path d="M229.525 241.667C222.103 244.504 214.958 246.456 207.222 248.31L203.916 247.132L202.945 245.608L206.544 242.674C208.886 242.531 210.706 242.213 212.959 241.545L214.203 239.898L217.182 239.124C219.186 240.224 221.707 240.383 223.919 240.836L229.362 239.715L230.717 239.996L229.525 241.671V241.667Z" fill="#F5FAFB"/>
<path d="M303.642 250.821L300.826 251.444L299.137 250.613L300.447 249.117L304.731 247.218L305.482 247.719L304.307 248.713L303.642 250.821Z" fill="#F5FAFB"/>
<path d="M356.642 116.144L352.256 117.208L347.988 114.799L346.404 114.791L347.302 120.521L343.062 121.055L341.549 119.612L343.63 118.968L344.548 116.393L337.448 118.732L334.738 116.079L338.011 114.754L340.716 114.71L341.087 113.511L339.957 113.279L338.974 114.147L336.987 113.797L339.043 109.432L342.369 108.89L342.242 110.854L346.441 110.691L345.613 112.949L346.878 113.092L348.645 111.335L351.26 111.013L352.346 112.941L353.965 112.476L356.642 116.144Z" fill="#F5FAFB"/>
<path d="M271.433 120.062L267.45 120.522L263.141 119.218H261.697L257.547 115.97L260.326 114.874L259 113.875L260.391 112.852L264.288 112.2L265.369 113.773L263.321 115.082L264.937 115.273L266.083 114.397L271.457 117.009L271.433 120.062Z" fill="#F5FAFB"/>
</svg>
