<svg width="83" height="65" viewBox="0 0 83 65" fill="none" xmlns="http://www.w3.org/2000/svg">
<g filter="url(#filter0_dd_2336_8350)">
<g clip-path="url(#clip0_2336_8350)">
<rect x="13" y="5" width="57" height="39" rx="6" fill="white"/>
<path d="M13.0013 5.0004H70.0013V24.5004H41.5013L13.0013 5.0004Z" fill="#E03C31"/>
<path d="M13.0013 44.0004H70.0013L70.0013 24.5004H41.5013L13.0013 44.0004Z" fill="#001489"/>
<path fill-rule="evenodd" clip-rule="evenodd" d="M6.66797 -7.15723L43.4153 17.9857H70.0013V31.0151H43.4153L6.66797 56.158V-7.15723Z" fill="white"/>
<path d="M13.0013 5.0004L41.5013 24.5004L13.0013 44.0004V5.0004Z" fill="black"/>
<path fill-rule="evenodd" clip-rule="evenodd" d="M34.64 24.5004L10.8967 8.25502L15.1059 1.74578L42.6497 20.5916H70.0013V28.4092H42.6497L15.1059 47.255L10.8967 40.7458L34.64 24.5004Z" fill="#007749"/>
<path d="M10.8967 8.25502L34.64 24.5004L10.8967 40.7458L9.49371 38.576L30.0658 24.5004L9.49371 10.4247L10.8967 8.25502Z" fill="#FFB81C"/>
</g>
<rect x="13" y="5" width="57" height="39" rx="6" stroke="#A8B7D4" stroke-width="0.498424" stroke-linejoin="round"/>
</g>
<defs>
<filter id="filter0_dd_2336_8350" x="0.75" y="0.750977" width="81.5" height="63.498" filterUnits="userSpaceOnUse" color-interpolation-filters="sRGB">
<feFlood flood-opacity="0" result="BackgroundImageFix"/>
<feColorMatrix in="SourceAlpha" type="matrix" values="0 0 0 0 0 0 0 0 0 0 0 0 0 0 0 0 0 0 127 0" result="hardAlpha"/>
<feOffset dy="8"/>
<feGaussianBlur stdDeviation="6"/>
<feComposite in2="hardAlpha" operator="out"/>
<feColorMatrix type="matrix" values="0 0 0 0 0.258824 0 0 0 0 0.278431 0 0 0 0 0.298039 0 0 0 0.08 0"/>
<feBlend mode="normal" in2="BackgroundImageFix" result="effect1_dropShadow_2336_8350"/>
<feColorMatrix in="SourceAlpha" type="matrix" values="0 0 0 0 0 0 0 0 0 0 0 0 0 0 0 0 0 0 127 0" result="hardAlpha"/>
<feOffset/>
<feGaussianBlur stdDeviation="0.5"/>
<feComposite in2="hardAlpha" operator="out"/>
<feColorMatrix type="matrix" values="0 0 0 0 0.258824 0 0 0 0 0.278431 0 0 0 0 0.298039 0 0 0 0.32 0"/>
<feBlend mode="normal" in2="effect1_dropShadow_2336_8350" result="effect2_dropShadow_2336_8350"/>
<feBlend mode="normal" in="SourceGraphic" in2="effect2_dropShadow_2336_8350" result="shape"/>
</filter>
<clipPath id="clip0_2336_8350">
<rect x="13" y="5" width="57" height="39" rx="6" fill="white"/>
</clipPath>
</defs>
</svg>
