<svg width="83" height="64" viewBox="0 0 83 64" fill="none" xmlns="http://www.w3.org/2000/svg">
<g filter="url(#filter0_dd_2336_8363)">
<g clip-path="url(#clip0_2336_8363)">
<rect x="13" y="5" width="57" height="38" rx="6" fill="white"/>
<mask id="mask0_2336_8363" style="mask-type:luminance" maskUnits="userSpaceOnUse" x="13" y="5" width="57" height="38">
<path d="M13 5H70V43H13V5Z" fill="white"/>
</mask>
<g mask="url(#mask0_2336_8363)">
<path fill-rule="evenodd" clip-rule="evenodd" d="M11.2188 5H75.3438V43H11.2188V5Z" fill="white"/>
<path fill-rule="evenodd" clip-rule="evenodd" d="M11.2188 5H75.3438V24H11.2188V5Z" fill="#DF0000"/>
<path fill-rule="evenodd" clip-rule="evenodd" d="M23.9733 8.5269C22.639 8.8143 21.444 9.55305 20.5889 10.6191C19.7338 11.6852 19.2706 13.0137 19.2772 14.3815C19.2838 15.7494 19.7598 17.0733 20.6252 18.131C21.4905 19.1888 22.6927 19.9159 24.0297 20.1903C23.2637 20.4125 22.4616 20.4809 21.6692 20.3916C20.8768 20.3024 20.1098 20.0572 19.4122 19.6702C18.7146 19.2832 18.1 18.762 17.6038 18.1364C17.1076 17.5109 16.7395 16.7933 16.5206 16.0248C16.0858 14.4801 16.2789 12.8257 17.0577 11.4233C17.8365 10.0209 19.1376 8.98463 20.6766 8.54102C21.8037 8.21625 22.8462 8.20919 23.9804 8.5269H23.9733Z" fill="white"/>
<path fill-rule="evenodd" clip-rule="evenodd" d="M23.0584 13.4551L23.4036 14.5141L22.4879 13.8646L21.5862 14.5282L21.9173 13.4551L21.0156 12.7985L22.1357 12.7844L22.4879 11.7254L22.8401 12.7844H23.9531L23.0584 13.4551ZM24.2912 17.1264L24.6434 18.1925L23.7276 17.5429L22.8189 18.1995L23.1571 17.1335L22.2554 16.4698L23.3754 16.4627L23.7206 15.3966L24.0728 16.4557H25.1999L24.2912 17.1264ZM28.412 17.0981L28.7572 18.1713L27.8415 17.5147L26.9398 18.1713L27.2709 17.1052L26.3692 16.4486L27.4893 16.4345L27.8415 15.3755L28.1937 16.4345H29.3067L28.412 17.0981ZM29.6377 13.4551L29.9829 14.5212L29.0672 13.8716L28.1655 14.5282L28.5036 13.4622L27.5949 12.7985L28.722 12.7914L29.0601 11.7254L29.4123 12.7844H30.5394L29.6377 13.4551ZM26.3763 11.0335L26.7285 12.1066L25.8127 11.45L24.904 12.1137L25.2421 11.0405L24.3405 10.3769L25.4535 10.3698L25.8057 9.30371L26.1579 10.3627H27.285L26.3763 11.0335Z" fill="white"/>
</g>
</g>
<rect x="13" y="5" width="57" height="38" rx="6" stroke="#A8B7D4" stroke-width="0.498424" stroke-linejoin="round"/>
</g>
<defs>
<filter id="filter0_dd_2336_8363" x="0.75" y="0.750977" width="81.5" height="62.498" filterUnits="userSpaceOnUse" color-interpolation-filters="sRGB">
<feFlood flood-opacity="0" result="BackgroundImageFix"/>
<feColorMatrix in="SourceAlpha" type="matrix" values="0 0 0 0 0 0 0 0 0 0 0 0 0 0 0 0 0 0 127 0" result="hardAlpha"/>
<feOffset dy="8"/>
<feGaussianBlur stdDeviation="6"/>
<feComposite in2="hardAlpha" operator="out"/>
<feColorMatrix type="matrix" values="0 0 0 0 0.258824 0 0 0 0 0.278431 0 0 0 0 0.298039 0 0 0 0.08 0"/>
<feBlend mode="normal" in2="BackgroundImageFix" result="effect1_dropShadow_2336_8363"/>
<feColorMatrix in="SourceAlpha" type="matrix" values="0 0 0 0 0 0 0 0 0 0 0 0 0 0 0 0 0 0 127 0" result="hardAlpha"/>
<feOffset/>
<feGaussianBlur stdDeviation="0.5"/>
<feComposite in2="hardAlpha" operator="out"/>
<feColorMatrix type="matrix" values="0 0 0 0 0.258824 0 0 0 0 0.278431 0 0 0 0 0.298039 0 0 0 0.32 0"/>
<feBlend mode="normal" in2="effect1_dropShadow_2336_8363" result="effect2_dropShadow_2336_8363"/>
<feBlend mode="normal" in="SourceGraphic" in2="effect2_dropShadow_2336_8363" result="shape"/>
</filter>
<clipPath id="clip0_2336_8363">
<rect x="13" y="5" width="57" height="38" rx="6" fill="white"/>
</clipPath>
</defs>
</svg>
