<svg width="160" height="115" viewBox="0 0 160 115" fill="none" xmlns="http://www.w3.org/2000/svg">
<g filter="url(#filter0_dd_2336_8861)">
<g clip-path="url(#clip0_2336_8861)">
<rect x="12" y="4" width="136" height="91" rx="20" fill="white"/>
<mask id="mask0_2336_8861" style="mask-type:luminance" maskUnits="userSpaceOnUse" x="12" y="4" width="136" height="91">
<path d="M12 4V95H148V4H12Z" fill="white"/>
</mask>
<g mask="url(#mask0_2336_8861)">
<path d="M12 4V95H148V4H12Z" fill="#012169"/>
<path d="M12 4L148 95L12 4ZM148 4L12 95L148 4Z" fill="#000008"/>
<path d="M12 4L148 95M148 4L12 95" stroke="white" stroke-width="22.1"/>
<mask id="mask1_2336_8861" style="mask-type:luminance" maskUnits="userSpaceOnUse" x="12" y="4" width="136" height="91">
<path d="M80 49.5H148V95L80 49.5ZM80 49.5V95H12L80 49.5ZM80 49.5H12V4L80 49.5ZM80 49.5V4H148L80 49.5Z" fill="white"/>
</mask>
<g mask="url(#mask1_2336_8861)">
<path d="M12 4L148 95L12 4ZM148 4L12 95L148 4Z" fill="#000008"/>
<path d="M12 4L148 95M148 4L12 95" stroke="#C8102E" stroke-width="14.7333"/>
</g>
<path d="M80 4V95V4ZM12 49.5H148H12Z" fill="#000008"/>
<path d="M80 4V95M12 49.5H148" stroke="white" stroke-width="36.8333"/>
<path d="M80 4V95V4ZM12 49.5H148H12Z" fill="#000008"/>
<path d="M80 4V95M12 49.5H148" stroke="#C8102E" stroke-width="22.1"/>
</g>
</g>
</g>
<defs>
<filter id="filter0_dd_2336_8861" x="0" y="0" width="160" height="115" filterUnits="userSpaceOnUse" color-interpolation-filters="sRGB">
<feFlood flood-opacity="0" result="BackgroundImageFix"/>
<feColorMatrix in="SourceAlpha" type="matrix" values="0 0 0 0 0 0 0 0 0 0 0 0 0 0 0 0 0 0 127 0" result="hardAlpha"/>
<feOffset dy="8"/>
<feGaussianBlur stdDeviation="6"/>
<feComposite in2="hardAlpha" operator="out"/>
<feColorMatrix type="matrix" values="0 0 0 0 0.258824 0 0 0 0 0.278431 0 0 0 0 0.298039 0 0 0 0.08 0"/>
<feBlend mode="normal" in2="BackgroundImageFix" result="effect1_dropShadow_2336_8861"/>
<feColorMatrix in="SourceAlpha" type="matrix" values="0 0 0 0 0 0 0 0 0 0 0 0 0 0 0 0 0 0 127 0" result="hardAlpha"/>
<feOffset/>
<feGaussianBlur stdDeviation="0.5"/>
<feComposite in2="hardAlpha" operator="out"/>
<feColorMatrix type="matrix" values="0 0 0 0 0.258824 0 0 0 0 0.278431 0 0 0 0 0.298039 0 0 0 0.32 0"/>
<feBlend mode="normal" in2="effect1_dropShadow_2336_8861" result="effect2_dropShadow_2336_8861"/>
<feBlend mode="normal" in="SourceGraphic" in2="effect2_dropShadow_2336_8861" result="shape"/>
</filter>
<clipPath id="clip0_2336_8861">
<rect x="12" y="4" width="136" height="91" rx="20" fill="white"/>
</clipPath>
</defs>
</svg>
