<svg width="165" height="117" viewBox="0 0 165 117" fill="none" xmlns="http://www.w3.org/2000/svg">
<g filter="url(#filter0_dd_2336_8522)">
<g clip-path="url(#clip0_2336_8522)">
<rect x="12" y="4" width="141" height="93" rx="20" fill="white"/>
<path d="M12 4H153V35H12V4Z" fill="#FF9933"/>
<path d="M12 35.001H153V66.001H12V35.001Z" fill="white"/>
<path d="M12 66.001H153V97.001H12V66.001Z" fill="#128807"/>
<path d="M82.9799 62.4397C89.6524 62.4397 95.0615 57.076 95.0615 50.4596C95.0615 43.8432 89.6524 38.4795 82.9799 38.4795C76.3075 38.4795 70.8984 43.8432 70.8984 50.4596C70.8984 57.076 76.3075 62.4397 82.9799 62.4397Z" fill="#000088"/>
<path d="M82.9776 60.9407C88.8159 60.9407 93.5489 56.2475 93.5489 50.4582C93.5489 44.6688 88.8159 39.9756 82.9776 39.9756C77.1392 39.9756 72.4062 44.6688 72.4062 50.4582C72.4062 56.2475 77.1392 60.9407 82.9776 60.9407Z" fill="white"/>
<path d="M82.9775 52.5563C84.1452 52.5563 85.0918 51.6177 85.0918 50.4598C85.0918 49.3019 84.1452 48.3633 82.9775 48.3633C81.8099 48.3633 80.8633 49.3019 80.8633 50.4598C80.8633 51.6177 81.8099 52.5563 82.9775 52.5563Z" fill="#000088"/>
<path d="M93.3893 52.3669C93.687 52.4058 93.9601 52.198 93.9993 51.9028C94.0384 51.6076 93.8289 51.3368 93.5312 51.2979C93.2335 51.259 92.9604 51.4668 92.9212 51.762C92.882 52.0572 93.0916 52.328 93.3893 52.3669Z" fill="#000088"/>
<path d="M82.9796 60.9418L83.3421 54.6522L82.9796 51.6572L82.6172 54.6522L82.9796 60.9418Z" fill="#000088"/>
<path d="M92.5149 54.9849C92.7857 55.0928 93.1037 54.9523 93.2253 54.6712C93.3468 54.39 93.2259 54.0746 92.9551 53.9668C92.6843 53.8589 92.3663 53.9994 92.2448 54.2806C92.1232 54.5617 92.2442 54.8771 92.5149 54.9849Z" fill="#000088"/>
<path d="M80.2056 60.5962L82.2078 54.5915L82.6878 51.6089L81.5665 54.4245L80.2056 60.5962Z" fill="#000088"/>
<path d="M91.0173 57.2823C91.2486 57.457 91.5899 57.4019 91.7796 57.1592C91.9692 56.9164 91.9354 56.578 91.7041 56.4033C91.4727 56.2286 91.1314 56.2837 90.9418 56.5264C90.7521 56.7692 90.7859 57.1076 91.0173 57.2823Z" fill="#000088"/>
<path d="M77.6709 59.5507L81.1632 54.2553L82.3919 51.4861L80.5748 53.9199L77.6709 59.5507Z" fill="#000088"/>
<path d="M88.9666 59.1159C89.1433 59.3464 89.4845 59.3817 89.7288 59.1947C89.9731 59.0077 90.0279 58.6693 89.8512 58.4388C89.6745 58.2083 89.3332 58.1731 89.0889 58.36C88.8446 58.547 88.7898 58.8855 88.9666 59.1159Z" fill="#000088"/>
<path d="M75.4867 57.8826L80.2327 53.6599L82.1338 51.2924L79.7464 53.1766L75.4867 57.8826Z" fill="#000088"/>
<path d="M86.5328 60.3362C86.6552 60.6184 86.9732 60.7607 87.2432 60.6539C87.5132 60.5471 87.6329 60.2318 87.5105 59.9495C87.3882 59.6673 87.0702 59.525 86.8002 59.6318C86.5302 59.7386 86.4105 60.0539 86.5328 60.3362Z" fill="#000088"/>
<path d="M73.839 55.678L79.5085 52.8931L81.9211 51.077L79.1194 52.2293L73.839 55.678Z" fill="#000088"/>
<path d="M83.8258 60.908C83.8724 61.2105 84.1455 61.4303 84.4358 61.3988C84.7262 61.3673 84.9238 61.0965 84.8772 60.7939C84.8307 60.4914 84.5576 60.2716 84.2673 60.3031C83.9769 60.3346 83.7793 60.6054 83.8258 60.908Z" fill="#000088"/>
<path d="M72.7762 53.1413L78.993 51.9353L81.7995 50.8017L78.7846 51.1776L72.7762 53.1413Z" fill="#000088"/>
<path d="M81.0434 60.77C81.0123 61.0585 81.2349 61.3293 81.5407 61.3749C81.8465 61.4205 82.1196 61.2237 82.1507 60.9353C82.1818 60.6469 81.9592 60.3761 81.6534 60.3305C81.3476 60.2848 81.0746 60.4816 81.0434 60.77Z" fill="#000088"/>
<path d="M72.4184 50.3701L78.7574 50.7619L81.7605 50.5531L78.7364 50.2261L72.4184 50.3701Z" fill="#000088"/>
<path d="M78.4292 59.9314C78.3179 60.2038 78.4556 60.5192 78.7367 60.6358C79.0177 60.7523 79.3358 60.626 79.447 60.3536C79.5583 60.0812 79.4206 59.7658 79.1395 59.6492C78.8585 59.5326 78.5404 59.659 78.4292 59.9314Z" fill="#000088"/>
<path d="M72.7703 47.7336L78.8168 49.713L81.826 50.1611L78.9929 49.0431L72.7703 47.7336Z" fill="#000088"/>
<path d="M76.1159 58.4559C75.9261 58.6987 75.9598 59.0371 76.191 59.2117C76.4222 59.3863 76.7635 59.331 76.9533 59.0882C77.143 58.8453 77.1094 58.5069 76.8782 58.3323C76.647 58.1577 76.3057 58.213 76.1159 58.4559Z" fill="#000088"/>
<path d="M73.8328 45.2378L79.1131 48.6865L81.9148 49.8388L79.5023 48.0227L73.8328 45.2378Z" fill="#000088"/>
<path d="M74.2671 56.4206C74.0219 56.6085 73.9656 56.9469 74.1413 57.1765C74.3171 57.4062 74.6584 57.44 74.9036 57.2522C75.1489 57.0644 75.2052 56.726 75.0294 56.4963C74.8536 56.2667 74.5123 56.2328 74.2671 56.4206Z" fill="#000088"/>
<path d="M75.5139 43.0604L79.705 47.7565L82.1027 49.5954L80.2496 47.2181L75.5139 43.0604Z" fill="#000088"/>
<path d="M73.0094 53.9799C72.7266 54.0987 72.586 54.414 72.6955 54.6842C72.805 54.9544 73.123 55.0771 73.4058 54.9583C73.6887 54.8395 73.8292 54.5241 73.7198 54.2539C73.6103 53.9837 73.2923 53.861 73.0094 53.9799Z" fill="#000088"/>
<path d="M77.7075 41.3926L80.5285 47.0161L82.3581 49.4159L81.1873 46.6394L77.7075 41.3926Z" fill="#000088"/>
<path d="M72.4307 51.2978C72.1274 51.3414 71.9089 51.6122 71.9425 51.9027C71.9761 52.1931 72.2492 52.3931 72.5525 52.3495C72.8557 52.3059 73.0743 52.0351 73.0407 51.7447C73.0071 51.4542 72.734 51.2542 72.4307 51.2978Z" fill="#000088"/>
<path d="M80.258 40.3402L81.4939 46.506L82.6341 49.295L82.2413 46.3067L80.258 40.3402Z" fill="#000088"/>
<path d="M72.5812 48.543C72.2918 48.5108 72.0187 48.7293 71.9712 49.031C71.9238 49.3328 72.12 49.6036 72.4095 49.6359C72.6989 49.6682 72.972 49.4497 73.0195 49.1479C73.0669 48.8461 72.8707 48.5753 72.5812 48.543Z" fill="#000088"/>
<path d="M83.0821 39.9884L82.6818 46.2749L82.8691 49.2557L83.1937 46.2576L83.0821 39.9884Z" fill="#000088"/>
<path d="M73.4279 45.9355C73.1574 45.8273 72.8394 45.9674 72.7176 46.2483C72.5958 46.5292 72.7163 46.8446 72.9868 46.9527C73.2573 47.0608 73.5753 46.9207 73.6971 46.6398C73.819 46.3589 73.6984 46.0436 73.4279 45.9355Z" fill="#000088"/>
<path d="M85.7392 40.3242L83.7366 46.3279L83.2547 49.3107L84.3757 46.4957L85.7392 40.3242Z" fill="#000088"/>
<path d="M74.9338 43.6387C74.7028 43.4639 74.3615 43.5189 74.1715 43.7616C73.9815 44.0042 74.0148 44.3426 74.2458 44.5175C74.4768 44.6923 74.8181 44.6373 75.0081 44.3946C75.198 44.152 75.1648 43.8136 74.9338 43.6387Z" fill="#000088"/>
<path d="M88.2811 41.3733L84.7885 46.6683L83.5583 49.4376L85.375 47.0041L88.2811 41.3733Z" fill="#000088"/>
<path d="M76.9884 41.804C76.8128 41.574 76.4715 41.5397 76.2261 41.7272C75.9808 41.9147 75.9243 42.2532 76.0999 42.4831C76.2756 42.713 76.6169 42.7474 76.8622 42.5598C77.1076 42.3723 77.1641 42.0339 76.9884 41.804Z" fill="#000088"/>
<path d="M90.4652 43.0371L85.7185 47.2626L83.8138 49.6296L86.2003 47.7435L90.4652 43.0371Z" fill="#000088"/>
<path d="M79.4241 40.5779C79.3018 40.2957 78.9838 40.1534 78.7138 40.2601C78.4438 40.3669 78.3241 40.6822 78.4465 40.9645C78.5688 41.2468 78.8868 41.389 79.1568 41.2823C79.4268 41.1755 79.5465 40.8602 79.4241 40.5779Z" fill="#000088"/>
<path d="M92.118 45.239L86.4485 48.0239L84.0359 49.84L86.8376 48.6877L92.118 45.239Z" fill="#000088"/>
<path d="M82.1312 40.01C82.0847 39.7074 81.8116 39.4877 81.5213 39.5192C81.2309 39.5506 81.0333 39.8214 81.0798 40.124C81.1263 40.4266 81.3994 40.6464 81.6898 40.6149C81.9801 40.5834 82.1778 40.3126 82.1312 40.01Z" fill="#000088"/>
<path d="M93.1809 47.7767L86.9641 48.9826L84.1575 50.1162L87.1725 49.7404L93.1809 47.7767Z" fill="#000088"/>
<path d="M84.9152 40.1498C84.9454 39.8625 84.7214 39.5916 84.4147 39.5449C84.1081 39.4982 83.835 39.6933 83.8048 39.9807C83.7745 40.268 83.9986 40.5388 84.3052 40.5855C84.6118 40.6322 84.8849 40.4372 84.9152 40.1498Z" fill="#000088"/>
<path d="M93.5354 50.5625L87.1967 50.1668L84.1954 50.358L87.2199 50.6812L93.5354 50.5625Z" fill="#000088"/>
<path d="M87.5379 40.9906C87.6479 40.7194 87.5082 40.4041 87.2259 40.2862C86.9436 40.1683 86.6255 40.2926 86.5156 40.5637C86.4056 40.8349 86.5453 41.1502 86.8276 41.2681C87.1099 41.386 87.4279 41.2617 87.5379 40.9906Z" fill="#000088"/>
<path d="M93.1965 53.1895L87.1454 51.2081L84.1368 50.7508L86.9732 51.8668L93.1965 53.1895Z" fill="#000088"/>
<path d="M89.8524 42.4805C90.0316 42.2475 89.9809 41.9091 89.7391 41.7246C89.4973 41.5401 89.156 41.5795 88.9768 41.8125C88.7976 42.0455 88.8484 42.3839 89.0902 42.5684C89.332 42.7528 89.6733 42.7135 89.8524 42.4805Z" fill="#000088"/>
<path d="M92.1364 55.7108L86.809 52.2514L84.0144 51.0497L86.4599 52.8551L92.1364 55.7108Z" fill="#000088"/>
<path d="M91.7014 44.5166C91.936 44.3386 91.975 44.0002 91.7886 43.7607C91.6022 43.5213 91.2609 43.4714 91.0263 43.6494C90.7917 43.8274 90.7527 44.1658 90.9391 44.4053C91.1255 44.6448 91.4668 44.6946 91.7014 44.5166Z" fill="#000088"/>
<path d="M90.4592 57.8784L86.2118 53.1743L83.8226 51.2989L85.7151 53.6683L90.4592 57.8784Z" fill="#000088"/>
<path d="M92.9598 46.9534C93.2338 46.8426 93.3599 46.5272 93.2415 46.249C93.1232 45.9708 92.8051 45.8351 92.5312 45.9459C92.2572 46.0567 92.1311 46.372 92.2495 46.6502C92.3678 46.9285 92.6859 47.0642 92.9598 46.9534Z" fill="#000088"/>
<path d="M88.2745 59.5393L85.3947 53.9108L83.5739 51.4878L84.7858 54.2594L88.2745 59.5393Z" fill="#000088"/>
<path d="M93.5388 49.635C93.833 49.5993 94.037 49.3285 93.9943 49.0301C93.9517 48.7318 93.6786 48.5188 93.3843 48.5545C93.0901 48.5902 92.8861 48.861 92.9288 49.1594C92.9714 49.4577 93.2445 49.6707 93.5388 49.635Z" fill="#000088"/>
<path d="M85.7285 60.5893L84.4048 54.4195L83.2778 51.6125L83.732 54.5969L85.7285 60.5893Z" fill="#000088"/>
</g>
</g>
<defs>
<filter id="filter0_dd_2336_8522" x="0" y="0" width="165" height="117" filterUnits="userSpaceOnUse" color-interpolation-filters="sRGB">
<feFlood flood-opacity="0" result="BackgroundImageFix"/>
<feColorMatrix in="SourceAlpha" type="matrix" values="0 0 0 0 0 0 0 0 0 0 0 0 0 0 0 0 0 0 127 0" result="hardAlpha"/>
<feOffset dy="8"/>
<feGaussianBlur stdDeviation="6"/>
<feComposite in2="hardAlpha" operator="out"/>
<feColorMatrix type="matrix" values="0 0 0 0 0.258824 0 0 0 0 0.278431 0 0 0 0 0.298039 0 0 0 0.08 0"/>
<feBlend mode="normal" in2="BackgroundImageFix" result="effect1_dropShadow_2336_8522"/>
<feColorMatrix in="SourceAlpha" type="matrix" values="0 0 0 0 0 0 0 0 0 0 0 0 0 0 0 0 0 0 127 0" result="hardAlpha"/>
<feOffset/>
<feGaussianBlur stdDeviation="0.5"/>
<feComposite in2="hardAlpha" operator="out"/>
<feColorMatrix type="matrix" values="0 0 0 0 0.258824 0 0 0 0 0.278431 0 0 0 0 0.298039 0 0 0 0.32 0"/>
<feBlend mode="normal" in2="effect1_dropShadow_2336_8522" result="effect2_dropShadow_2336_8522"/>
<feBlend mode="normal" in="SourceGraphic" in2="effect2_dropShadow_2336_8522" result="shape"/>
</filter>
<clipPath id="clip0_2336_8522">
<rect x="12" y="4" width="141" height="93" rx="20" fill="white"/>
</clipPath>
</defs>
</svg>
