<svg width="172" height="125" viewBox="0 0 172 125" fill="none" xmlns="http://www.w3.org/2000/svg">
<g filter="url(#filter0_dd_2336_8767)">
<g clip-path="url(#clip0_2336_8767)">
<rect x="16" y="6" width="140" height="93" rx="20" fill="white"/>
<path d="M156 6H16V99H156V6Z" fill="#B31942"/>
<path d="M16 16.7305H156H16ZM156 31.0382H16H156ZM16 45.3459H156H16ZM156 59.6535H16H156ZM16 73.9612H156H16ZM156 88.2689H16H156Z" fill="#000008"/>
<path d="M16 16.7305H156M156 31.0382H16M16 45.3459H156M156 59.6535H16M16 73.9612H156M156 88.2689H16" stroke="white" stroke-width="11.3077"/>
<path d="M86.7729 6H16V56.0769H86.7729V6Z" fill="#0A3161"/>
<path d="M21.8969 8.14648L23.5811 13.3231L19.1719 10.1238H24.622L20.2128 13.3231L21.8969 8.14648Z" fill="white"/>
<path d="M21.8969 18.1621L23.5811 23.3387L19.1719 20.1394H24.622L20.2128 23.3387L21.8969 18.1621Z" fill="white"/>
<path d="M21.8969 28.1777L23.5811 33.3543L19.1719 30.155H24.622L20.2128 33.3543L21.8969 28.1777Z" fill="white"/>
<path d="M21.8969 38.1924L23.5811 43.369L19.1719 40.1697H24.622L20.2128 43.369L21.8969 38.1924Z" fill="white"/>
<path d="M21.8969 48.208L23.5811 53.3846L19.1719 50.1853H24.622L20.2128 53.3846L21.8969 48.208Z" fill="white"/>
<path d="M27.7954 13.1543L29.4796 18.3309L25.0703 15.1316H30.5204L26.1112 18.3309L27.7954 13.1543Z" fill="white"/>
<path d="M27.7954 23.1699L29.4796 28.3465L25.0703 25.1472H30.5204L26.1112 28.3465L27.7954 23.1699Z" fill="white"/>
<path d="M27.7954 33.1855L29.4796 38.3621L25.0703 35.1628H30.5204L26.1112 38.3621L27.7954 33.1855Z" fill="white"/>
<path d="M27.7954 43.2002L29.4796 48.3768L25.0703 45.1775H30.5204L26.1112 48.3768L27.7954 43.2002Z" fill="white"/>
<path d="M33.6938 8.14648L35.378 13.3231L30.9688 10.1238H36.4189L32.0096 13.3231L33.6938 8.14648Z" fill="white"/>
<path d="M33.6938 18.1621L35.378 23.3387L30.9688 20.1394H36.4189L32.0096 23.3387L33.6938 18.1621Z" fill="white"/>
<path d="M33.6938 28.1777L35.378 33.3543L30.9688 30.155H36.4189L32.0096 33.3543L33.6938 28.1777Z" fill="white"/>
<path d="M33.6938 38.1934L35.378 43.3699L30.9688 40.1706H36.4189L32.0096 43.3699L33.6938 38.1934Z" fill="white"/>
<path d="M33.6938 48.208L35.378 53.3846L30.9688 50.1853H36.4189L32.0096 53.3846L33.6938 48.208Z" fill="white"/>
<path d="M39.5923 13.1543L41.2764 18.3309L36.8672 15.1316H42.3173L37.9081 18.3309L39.5923 13.1543Z" fill="white"/>
<path d="M39.5923 23.1699L41.2764 28.3465L36.8672 25.1472H42.3173L37.9081 28.3465L39.5923 23.1699Z" fill="white"/>
<path d="M39.5923 33.1855L41.2764 38.3621L36.8672 35.1628H42.3173L37.9081 38.3621L39.5923 33.1855Z" fill="white"/>
<path d="M39.5923 43.2002L41.2764 48.3768L36.8672 45.1775H42.3173L37.9081 48.3768L39.5923 43.2002Z" fill="white"/>
<path d="M45.4868 8.14648L47.171 13.3231L42.7617 10.1238H48.2118L43.8026 13.3231L45.4868 8.14648Z" fill="white"/>
<path d="M45.4868 18.1621L47.171 23.3387L42.7617 20.1394H48.2118L43.8026 23.3387L45.4868 18.1621Z" fill="white"/>
<path d="M45.4868 28.1777L47.171 33.3543L42.7617 30.155H48.2118L43.8026 33.3543L45.4868 28.1777Z" fill="white"/>
<path d="M45.4868 38.1934L47.171 43.3699L42.7617 40.1706H48.2118L43.8026 43.3699L45.4868 38.1934Z" fill="white"/>
<path d="M45.4868 48.208L47.171 53.3846L42.7617 50.1853H48.2118L43.8026 53.3846L45.4868 48.208Z" fill="white"/>
<path d="M51.3852 13.1543L53.0694 18.3309L48.6602 15.1316H54.1103L49.701 18.3309L51.3852 13.1543Z" fill="white"/>
<path d="M51.3852 23.1699L53.0694 28.3465L48.6602 25.1472H54.1103L49.701 28.3465L51.3852 23.1699Z" fill="white"/>
<path d="M51.3852 33.1855L53.0694 38.3621L48.6602 35.1628H54.1103L49.701 38.3621L51.3852 33.1855Z" fill="white"/>
<path d="M51.3852 43.2002L53.0694 48.3768L48.6602 45.1775H54.1103L49.701 48.3768L51.3852 43.2002Z" fill="white"/>
<path d="M57.2837 8.14648L58.9678 13.3231L54.5586 10.1238H60.0087L55.5995 13.3231L57.2837 8.14648Z" fill="white"/>
<path d="M57.2837 18.1621L58.9678 23.3387L54.5586 20.1394H60.0087L55.5995 23.3387L57.2837 18.1621Z" fill="white"/>
<path d="M57.2837 28.1777L58.9678 33.3543L54.5586 30.155H60.0087L55.5995 33.3543L57.2837 28.1777Z" fill="white"/>
<path d="M57.2837 38.1924L58.9678 43.369L54.5586 40.1697H60.0087L55.5995 43.369L57.2837 38.1924Z" fill="white"/>
<path d="M57.2837 48.208L58.9678 53.3846L54.5586 50.1853H60.0087L55.5995 53.3846L57.2837 48.208Z" fill="white"/>
<path d="M63.1821 13.1543L64.8663 18.3309L60.457 15.1316H65.9072L61.4979 18.3309L63.1821 13.1543Z" fill="white"/>
<path d="M63.1821 23.1699L64.8663 28.3465L60.457 25.1472H65.9072L61.4979 28.3465L63.1821 23.1699Z" fill="white"/>
<path d="M63.1821 33.1855L64.8663 38.3621L60.457 35.1628H65.9072L61.4979 38.3621L63.1821 33.1855Z" fill="white"/>
<path d="M63.1821 43.2002L64.8663 48.3768L60.457 45.1775H65.9072L61.4979 48.3768L63.1821 43.2002Z" fill="white"/>
<path d="M69.0766 8.14648L70.7608 13.3231L66.3516 10.1238H71.8017L67.3924 13.3231L69.0766 8.14648Z" fill="white"/>
<path d="M69.0766 18.1621L70.7608 23.3387L66.3516 20.1394H71.8017L67.3924 23.3387L69.0766 18.1621Z" fill="white"/>
<path d="M69.0766 28.1777L70.7608 33.3543L66.3516 30.155H71.8017L67.3924 33.3543L69.0766 28.1777Z" fill="white"/>
<path d="M69.0766 38.1924L70.7608 43.369L66.3516 40.1697H71.8017L67.3924 43.369L69.0766 38.1924Z" fill="white"/>
<path d="M69.0766 48.208L70.7608 53.3846L66.3516 50.1853H71.8017L67.3924 53.3846L69.0766 48.208Z" fill="white"/>
<path d="M74.9751 13.1543L76.6592 18.3309L72.25 15.1316H77.7001L73.2909 18.3309L74.9751 13.1543Z" fill="white"/>
<path d="M74.9751 23.1699L76.6592 28.3465L72.25 25.1472H77.7001L73.2909 28.3465L74.9751 23.1699Z" fill="white"/>
<path d="M74.9751 33.1855L76.6592 38.3621L72.25 35.1628H77.7001L73.2909 38.3621L74.9751 33.1855Z" fill="white"/>
<path d="M74.9751 43.2002L76.6592 48.3768L72.25 45.1775H77.7001L73.2909 48.3768L74.9751 43.2002Z" fill="white"/>
<path d="M80.8735 8.14648L82.5577 13.3231L78.1484 10.1238H83.5986L79.1893 13.3231L80.8735 8.14648Z" fill="white"/>
<path d="M80.8735 18.1621L82.5577 23.3387L78.1484 20.1394H83.5986L79.1893 23.3387L80.8735 18.1621Z" fill="white"/>
<path d="M80.8735 28.1777L82.5577 33.3543L78.1484 30.155H83.5986L79.1893 33.3543L80.8735 28.1777Z" fill="white"/>
<path d="M80.8735 38.1924L82.5577 43.369L78.1484 40.1697H83.5986L79.1893 43.369L80.8735 38.1924Z" fill="white"/>
<path d="M80.8735 48.208L82.5577 53.3846L78.1484 50.1853H83.5986L79.1893 53.3846L80.8735 48.208Z" fill="white"/>
</g>
</g>
<defs>
<filter id="filter0_dd_2336_8767" x="0.834381" y="0.944794" width="170.331" height="123.331" filterUnits="userSpaceOnUse" color-interpolation-filters="sRGB">
<feFlood flood-opacity="0" result="BackgroundImageFix"/>
<feColorMatrix in="SourceAlpha" type="matrix" values="0 0 0 0 0 0 0 0 0 0 0 0 0 0 0 0 0 0 127 0" result="hardAlpha"/>
<feOffset dy="10.1104"/>
<feGaussianBlur stdDeviation="7.58281"/>
<feComposite in2="hardAlpha" operator="out"/>
<feColorMatrix type="matrix" values="0 0 0 0 0.258824 0 0 0 0 0.278431 0 0 0 0 0.298039 0 0 0 0.08 0"/>
<feBlend mode="normal" in2="BackgroundImageFix" result="effect1_dropShadow_2336_8767"/>
<feColorMatrix in="SourceAlpha" type="matrix" values="0 0 0 0 0 0 0 0 0 0 0 0 0 0 0 0 0 0 127 0" result="hardAlpha"/>
<feOffset/>
<feGaussianBlur stdDeviation="0.631901"/>
<feComposite in2="hardAlpha" operator="out"/>
<feColorMatrix type="matrix" values="0 0 0 0 0.258824 0 0 0 0 0.278431 0 0 0 0 0.298039 0 0 0 0.32 0"/>
<feBlend mode="normal" in2="effect1_dropShadow_2336_8767" result="effect2_dropShadow_2336_8767"/>
<feBlend mode="normal" in="SourceGraphic" in2="effect2_dropShadow_2336_8767" result="shape"/>
</filter>
<clipPath id="clip0_2336_8767">
<rect x="16" y="6" width="140" height="93" rx="20" fill="white"/>
</clipPath>
</defs>
</svg>
