<svg width="64" height="65" viewBox="0 0 64 65" fill="none" xmlns="http://www.w3.org/2000/svg">
<path d="M12.7295 33.908C12.7295 28.3076 17.0059 23.6342 22.5843 23.1384L25.8567 22.8475C30.5703 22.4285 35.3118 22.4285 40.0254 22.8475L43.2929 23.1379C48.8741 23.634 53.1526 28.3098 53.1526 33.9129V35.0819C53.1526 39.1744 50.4634 42.7804 46.5409 43.9477V43.9477C43.1427 44.9589 39.4633 44.1473 36.8059 41.8003L34.9014 40.1184C33.7824 39.1301 32.1018 39.1325 30.9857 40.124L29.1305 41.7721C26.4695 44.136 22.7766 44.9583 19.3641 43.9468V43.9468C15.4289 42.7803 12.7295 39.1647 12.7295 35.0603V33.908Z" stroke="#292D32" strokeWidth="2"/>
<path d="M41.3351 37.7122C40.9785 37.7122 40.6895 37.4231 40.6895 37.0665C40.6895 36.71 40.9785 36.4209 41.3351 36.4209" stroke="#292D32" strokeWidth="2"/>
<path d="M41.334 37.7122C41.6906 37.7122 41.9796 37.4231 41.9796 37.0665C41.9796 36.71 41.6906 36.4209 41.334 36.4209" stroke="#292D32" strokeWidth="2"/>
<path d="M24.548 37.7122C24.1914 37.7122 23.9023 37.4231 23.9023 37.0665C23.9023 36.71 24.1914 36.4209 24.548 36.4209" stroke="#292D32" strokeWidth="2"/>
<path d="M24.5469 37.7122C24.9034 37.7122 25.1925 37.4231 25.1925 37.0665C25.1925 36.71 24.9034 36.4209 24.5469 36.4209" stroke="#292D32" strokeWidth="2"/>
<path d="M20.0283 31.9017C20.674 31.2561 22.4817 29.9648 24.5477 29.9648C26.6137 29.9648 28.6367 31.2561 29.0671 31.9017" stroke="#292D32" strokeWidth="2" stroke-linecap="round"/>
<path d="M45.8525 31.9017C45.2069 31.2561 43.3991 29.9648 41.3331 29.9648C39.2671 29.9648 37.2441 31.2561 36.8137 31.9017" stroke="#292D32" strokeWidth="2" stroke-linecap="round"/>
<path d="M27.7754 51.4258C28.2058 51.8562 29.8414 52.717 32.9404 52.717C36.0395 52.717 37.675 51.8562 38.1055 51.4258" stroke="#292D32" strokeWidth="2" stroke-linecap="round"/>
<path d="M13.9072 29.0003L13.7311 29.0884C10.6467 30.5495 6.53195 29.356 5.44569 26.5591C8.87045 25.6744 10.6547 23.8052 12.6939 21.0014C8.14846 21.326 5.38445 16.553 4.70801 14.7267C11.8102 14.7267 14.6511 4.37774 29.0585 1.73985C40.5844 -0.370456 45.3598 8.57149 46.3068 13.3063C48.6743 12.4946 53.8149 12.2917 55.4383 17.9735C57.4675 25.0757 55.2354 30.1487 59.2938 30.1487C58.4821 31.231 56.2094 32.9896 53.612 31.3662C53.3816 31.2282 52.8559 30.8548 52.5963 30.4653" stroke="#292D32" strokeWidth="2" stroke-linecap="round" stroke-linejoin="round"/>
<path d="M39.3125 22.7865C39.25 22.6698 39.0577 22.3743 38.9694 22.2412C37.1794 19.6456 31.8004 16.1461 24.6045 22.9124L24.5469 22.9687" stroke="#292D32" strokeWidth="2" stroke-linecap="round" stroke-linejoin="round"/>
<path d="M46.2204 13.2461L43.1325 16.0654L44.4751 19.2874L40.5818 22.1067L39.5791 22.8112" stroke="#292D32" strokeWidth="2" stroke-linecap="round" stroke-linejoin="round"/>
<path d="M15.9902 42.1094L16.154 42.8777C18.0191 51.6178 20.0278 63.047 32.9404 63.047C45.853 63.047 47.8616 51.6178 49.7267 42.8777L49.8905 42.1094" stroke="#292D32" strokeWidth="2" stroke-linecap="round"/>
<path d="M22.9336 59.458V62.9711" stroke="#292D32" strokeWidth="2" stroke-linecap="round"/>
<path d="M17.3453 48.248H15.2127C9.65126 48.248 6.38698 38.072 12.6294 36.5114L12.8284 36.4736" stroke="#292D32" strokeWidth="2" stroke-linecap="round"/>
<path d="M48.5345 48.248H50.6672C56.2286 48.248 59.4929 38.072 53.2505 36.5114L53.0514 36.4736" stroke="#292D32" strokeWidth="2" stroke-linecap="round"/>
<path d="M42.9482 59.458V62.9711" stroke="#292D32" strokeWidth="2" stroke-linecap="round"/>
</svg>
