<svg width="64" height="64" viewBox="0 0 64 64" fill="none" xmlns="http://www.w3.org/2000/svg">
<path d="M58.6668 44.6399V12.4532C58.6668 9.25319 56.0535 6.87985 52.8802 7.14652H52.7202C47.1202 7.62652 38.6135 10.4799 33.8668 13.4665L33.4135 13.7599C32.6402 14.2399 31.3602 14.2399 30.5868 13.7599L29.9202 13.3599C25.1735 10.3999 16.6935 7.57319 11.0935 7.11985C7.92016 6.85319 5.3335 9.25319 5.3335 12.4265V44.6399C5.3335 47.1999 7.4135 49.5999 9.9735 49.9199L10.7468 50.0265C16.5335 50.7999 25.4668 53.7332 30.5868 56.5332L30.6935 56.5865C31.4135 56.9865 32.5602 56.9865 33.2535 56.5865C38.3735 53.7599 47.3335 50.7999 53.1468 50.0265L54.0268 49.9199C56.5868 49.5999 58.6668 47.1999 58.6668 44.6399Z" stroke="#292D32" stroke-width="2.5098" stroke-linecap="round" stroke-linejoin="round"/>
<path d="M32 14.6396V54.6396" stroke="#292D32" stroke-width="2.5098" stroke-linecap="round" stroke-linejoin="round"/>
<path d="M20.6665 22.6396H14.6665" stroke="#292D32" stroke-width="2.5098" stroke-linecap="round" stroke-linejoin="round"/>
<path d="M22.6665 30.6396H14.6665" stroke="#292D32" stroke-width="2.5098" stroke-linecap="round" stroke-linejoin="round"/>
</svg>
