<svg width="80" height="80" viewBox="0 0 80 80" fill="none" xmlns="http://www.w3.org/2000/svg">
<path d="M78.4214 3.73584L75.3857 4.3877" stroke="white" strokeWidth="2.66667" stroke-linecap="round"/>
<path d="M68.1655 6.02176C66.9946 6.2732 65.8231 6.50781 64.6513 6.72559" stroke="white" strokeWidth="2.66667" stroke-linecap="round"/>
<path d="M37.5829 31.0056C37.7958 29.4089 36.674 27.9419 35.0773 27.729C33.4806 27.5162 32.0136 28.638 31.8007 30.2347C31.6008 31.7345 30.7393 34.0478 28.7768 35.9618C26.8839 37.8079 23.8094 39.4381 18.8511 39.4381C12.6881 39.4381 8.50497 41.0474 5.80537 43.7599C3.15236 46.4256 2.39486 49.7066 2.08647 52.0196C1.87358 53.6163 2.99537 55.0832 4.59207 55.2961C6.18877 55.509 7.65574 54.3872 7.86863 52.7905C8.1158 50.9368 8.62842 49.1927 9.93997 47.8749C10.6075 47.2041 11.6123 46.5163 13.1723 46.0161L12.1208 51.865L8.79311 69.024C8.48642 70.6054 9.51976 72.1359 11.1011 72.4426C12.6825 72.7493 14.2131 71.716 14.5197 70.1346L17.3952 55.3076L19.8881 55.3076L21.2992 69.8608C21.4547 71.4641 22.8804 72.6378 24.4838 72.4824C26.0871 72.3269 27.2608 70.9011 27.1053 69.2978L25.4523 52.249V44.3823C28.5324 43.4825 30.9756 41.9656 32.8495 40.138C35.8351 37.2264 37.2273 33.6724 37.5829 31.0056Z" stroke="white" strokeWidth="2.66667" stroke-linecap="round" stroke-linejoin="round"/>
<circle cx="5.53589" cy="5.53589" r="5.53589" transform="matrix(-1 0 0 1 65.6094 24.6045)" stroke="white" strokeWidth="2.66667"/>
<path d="M42.417 31.0056C42.2041 29.4089 43.3259 27.9419 44.9226 27.729C46.5193 27.5162 47.9863 28.638 48.1992 30.2347C48.3992 31.7345 49.2606 34.0478 51.2232 35.9618C53.1161 37.8079 56.1906 39.4381 61.1488 39.4381C67.3118 39.4381 71.495 41.0474 74.1946 43.7599C76.8476 46.4256 77.6051 49.7066 77.9135 52.0196C78.1264 53.6163 77.0046 55.0832 75.4079 55.2961C73.8112 55.509 72.3442 54.3872 72.1313 52.7905C71.8841 50.9368 71.3715 49.1927 70.06 47.8749C69.3924 47.2041 68.3876 46.5163 66.8276 46.0161L67.8791 51.8649L71.2068 69.024C71.5135 70.6054 70.4802 72.1359 68.8988 72.4426C67.3174 72.7493 65.7869 71.716 65.4802 70.1346L62.6047 55.3076L60.1118 55.3076L58.7007 69.8608C58.5453 71.4641 57.1195 72.6378 55.5162 72.4824C53.9129 72.3269 52.7392 70.9011 52.8946 69.2978L54.5477 52.249V44.3823C51.4675 43.4825 49.0244 41.9656 47.1504 40.138C44.1649 37.2264 42.7726 33.6724 42.417 31.0056Z" stroke="white" strokeWidth="2.66667" stroke-linecap="round" stroke-linejoin="round"/>
<path d="M21.8321 24.941C21.2381 24.7233 20.5964 24.6045 19.927 24.6045C16.8696 24.6045 14.3911 27.083 14.3911 30.1404C14.3911 33.1978 16.8696 35.6763 19.927 35.6763C22.675 35.6763 24.9553 33.6741 25.3887 31.0489" stroke="white" strokeWidth="2.66667"/>
<path d="M24.6563 24.1396C24.6563 24.1396 20.44 24.3773 19.8915 27.32C19.3429 30.2627 21.9866 31.6874 27.129 30.8335C27.7942 28.3335 26.4962 25.4781 24.6563 24.1396Z" stroke="white" strokeWidth="2.66667" stroke-linecap="round" stroke-linejoin="round"/>
<path d="M31.6759 69.4738C37.2186 69.0986 42.7645 69.0986 48.3071 69.4738" stroke="white" strokeWidth="2.66667" stroke-linecap="round"/>
<path d="M78.4214 74.6177L75.3857 73.9658" stroke="white" strokeWidth="2.66667" stroke-linecap="round"/>
<path d="M1.58074 74.6147L4.61182 73.9639" stroke="white" strokeWidth="2.66667" stroke-linecap="round"/>
<path d="M57.6753 7.88677C45.8963 9.58462 34.0859 9.58462 22.307 7.88675" stroke="white" strokeWidth="2.66667" stroke-linecap="round"/>
<path d="M11.7218 5.99445C12.8927 6.24588 14.0641 6.48048 15.2358 6.69824" stroke="white" strokeWidth="2.66667" stroke-linecap="round"/>
<path d="M1.57879 3.74073L4.60986 4.3916" stroke="white" strokeWidth="2.66667" stroke-linecap="round"/>
</svg>
