<svg width="35" height="35" viewBox="0 0 35 35" fill="none" xmlns="http://www.w3.org/2000/svg">
<path d="M0.681152 32.4609L1.99064 32.1797M5.031 31.5016C5.53612 31.3931 6.04143 31.2919 6.54692 31.198M29.439 31.4867C28.9339 31.3783 28.4286 31.2771 27.9231 31.1831M33.828 32.4592L32.5205 32.1785M9.63021 30.6704C10.0124 30.6153 10.3946 30.5644 10.7769 30.5176M24.8869 30.6704C24.5047 30.6153 24.1225 30.5644 23.7402 30.5176" stroke="white" strokeWidth="1.07842" stroke-linecap="round"/>
<path d="M33.8276 1.88382L32.5182 2.165M29.4036 2.86959C28.8985 2.97805 28.3932 3.07925 27.8877 3.17319M5.05623 2.85801C5.56132 2.96647 6.06661 3.06766 6.57208 3.1616M0.680829 1.88551L1.98833 2.16628M24.8786 3.67433C19.7975 4.40673 14.7029 4.40673 9.6219 3.67433" stroke="white" strokeWidth="1.07842" stroke-linecap="round"/>
<path d="M11.6717 13.0471C11.5798 12.3583 10.947 11.8744 10.2583 11.9663C9.56951 12.0581 9.08561 12.6909 9.17744 13.3797C9.32818 14.5102 9.91437 16.1126 11.1836 17.4497C11.9797 18.2882 13.0265 19.0023 14.3554 19.4315V22.8123L13.6423 30.1658C13.5753 30.8574 14.0816 31.4724 14.7732 31.5395C15.4648 31.6066 16.0798 31.1003 16.1469 30.4087L16.7556 24.1309L17.7266 24.1309L18.3352 30.4087C18.4023 31.1003 19.0173 31.6066 19.7089 31.5395C20.4006 31.4725 20.9069 30.8574 20.8398 30.1658L20.1267 22.8115V19.4402C21.4684 19.0119 22.524 18.2938 23.3254 17.4497C24.5947 16.1126 25.1809 14.5102 25.3316 13.3797C25.4234 12.6909 24.9395 12.0581 24.2508 11.9663C23.562 11.8744 22.9292 12.3583 22.8374 13.0471C22.7485 13.7139 22.3641 14.8075 21.5005 15.7172C20.672 16.5899 19.3545 17.3473 17.2545 17.3473C15.1545 17.3473 13.837 16.5899 13.0086 15.7172C12.145 14.8075 11.7606 13.7139 11.6717 13.0471Z" stroke="white" strokeWidth="1.07842" stroke-linecap="round" stroke-linejoin="round"/>
<path d="M18.1043 11.0309C17.8481 10.937 17.5713 10.8857 17.2825 10.8857C15.9637 10.8857 14.8945 11.9549 14.8945 13.2737C14.8945 14.5926 15.9637 15.6617 17.2825 15.6617C18.4679 15.6617 19.4516 14.798 19.6385 13.6656" stroke="white" strokeWidth="1.07842"/>
<path d="M19.3232 10.6855C19.3232 10.6855 17.5044 10.7881 17.2678 12.0575C17.0311 13.3268 18.1715 13.9414 20.3898 13.573C20.6767 12.4946 20.1168 11.2629 19.3232 10.6855Z" stroke="white" strokeWidth="1.07842" stroke-linecap="round" stroke-linejoin="round"/>
</svg>
