<svg width="44" height="44" viewBox="0 0 44 44" fill="none" xmlns="http://www.w3.org/2000/svg">
<path d="M22.3438 17.832C24.3372 17.832 25.9531 16.2161 25.9531 14.2227C25.9531 12.2293 24.3372 10.6133 22.3438 10.6133C20.3503 10.6133 18.7344 12.2293 18.7344 14.2227C18.7344 16.2161 20.3503 17.832 22.3438 17.832Z" stroke="black" stroke-width="1.13285" stroke-linecap="round" stroke-linejoin="round"/>
<path d="M18.1621 21.3596H14.1426C13.1685 21.3596 12.3789 20.5699 12.3789 19.5959C12.3789 18.6218 13.1685 17.8322 14.1426 17.8322L30.5487 17.832C31.5228 17.832 32.3124 18.6217 32.3124 19.5957C32.3124 20.5698 31.5228 21.3594 30.5488 21.3594H26.5292L25.6159 32.6854C25.5526 33.4699 24.8974 34.0744 24.1103 34.0744H22.3457H20.581C19.7939 34.0744 19.1387 33.4699 19.0754 32.6854L18.1621 21.3596Z" stroke="black" stroke-width="1.13285" stroke-linecap="round" stroke-linejoin="round"/>
<path d="M22.3438 34.0747V26.0898" stroke="black" stroke-width="1.13285" stroke-linecap="round" stroke-linejoin="round"/>
<path d="M7.78179 12.5076H8.34821C8.34821 12.2579 8.18477 12.0377 7.94582 11.9654L7.78179 12.5076ZM36.9057 12.5076L36.7417 11.9654C36.5027 12.0377 36.3393 12.2579 36.3393 12.5076H36.9057ZM36.3393 37.8174C36.3393 38.1302 36.5929 38.3838 36.9057 38.3838C37.2185 38.3838 37.4721 38.1302 37.4721 37.8174H36.3393ZM7.21537 37.8244C7.21537 38.1373 7.46896 38.3909 7.78179 38.3909C8.09462 38.3909 8.34821 38.1373 8.34821 37.8244H7.21537ZM3.05861 8.72366C3.05861 8.24739 3.4083 7.66316 4.36524 7.02865C5.30027 6.40867 6.69065 5.82838 8.45953 5.33229C11.9894 4.34233 16.8984 3.72267 22.3438 3.72267V2.58983C16.8254 2.58983 11.8086 3.21648 8.15362 4.24153C6.33008 4.75294 4.81326 5.37233 3.73921 6.0845C2.68706 6.78214 1.92576 7.66254 1.92576 8.72366H3.05861ZM22.3438 3.72267C27.7891 3.72267 32.6981 4.34233 36.228 5.33229C37.9969 5.82838 39.3872 6.40867 40.3223 7.02865C41.2792 7.66316 41.6289 8.24739 41.6289 8.72366H42.7617C42.7617 7.66254 42.0004 6.78214 40.9483 6.0845C39.8742 5.37233 38.3574 4.75294 36.5339 4.24153C32.8789 3.21648 27.8621 2.58983 22.3438 2.58983V3.72267ZM7.94582 11.9654C6.33223 11.4772 5.07367 10.9178 4.23103 10.3272C3.37194 9.72515 3.05861 9.17542 3.05861 8.72366H1.92576C1.92576 9.73299 2.61584 10.5786 3.58087 11.2549C4.56233 11.9428 5.94857 12.5447 7.61776 13.0497L7.94582 11.9654ZM41.6289 8.72366C41.6289 9.17542 41.3156 9.72515 40.4565 10.3272C39.6138 10.9178 38.3553 11.4772 36.7417 11.9654L37.0697 13.0497C38.7389 12.5447 40.1252 11.9428 41.1066 11.2549C42.0717 10.5786 42.7617 9.73299 42.7617 8.72366H41.6289ZM36.3393 12.5076V37.8174H37.4721V12.5076H36.3393ZM7.21537 12.5076V37.8244H8.34821V12.5076H7.21537Z" fill="black"/>
<path d="M2.49219 8.77926V34.0449C2.49219 37.1197 11.38 39.6123 22.3438 39.6123C33.3075 39.6123 42.1953 37.1197 42.1953 34.0449V8.80881" stroke="black" stroke-width="1.13285" stroke-linecap="round"/>
<path d="M42.1953 21.1787C42.1953 22.6538 40.1967 23.998 36.9176 25.01" stroke="black" stroke-width="1.13285" stroke-linecap="round"/>
<path d="M11.4018 29.5264C10.0761 29.7721 8.86196 30.0613 7.78516 30.3866" stroke="black" stroke-width="1.13285" stroke-linecap="round"/>
<path d="M33.2852 29.5264C34.6108 29.7721 35.8249 30.0613 36.9018 30.3866" stroke="black" stroke-width="1.13285" stroke-linecap="round"/>
<path d="M13.3203 3.79395V12.8174" stroke="black" stroke-width="1.13285" stroke-linecap="round"/>
<path d="M31.3672 3.79395V12.8174" stroke="black" stroke-width="1.13285" stroke-linecap="round"/>
<path d="M2.49219 21.1787C2.49219 22.6564 4.4976 24.0026 7.78676 25.0152" stroke="black" stroke-width="1.13285" stroke-linecap="round"/>
</svg>
