<svg width="60" height="61" viewBox="0 0 60 61" fill="none" xmlns="http://www.w3.org/2000/svg">
<path d="M11.9375 31.7877C11.9375 26.5374 15.9466 22.1561 21.1763 21.6912L24.2443 21.4185C28.6633 21.0257 33.1084 21.0257 37.5274 21.4185L40.5907 21.6908C45.823 22.1559 49.8342 26.5394 49.8342 31.7923V32.8882C49.8342 36.725 47.313 40.1056 43.6357 41.1999V41.1999C40.4499 42.148 37.0004 41.3871 34.5091 39.1868L32.7237 37.6099C31.6746 36.6834 30.0991 36.6857 29.0527 37.6152L27.3134 39.1603C24.8188 41.3765 21.3567 42.1474 18.1574 41.1991V41.1991C14.4682 40.1055 11.9375 36.7159 11.9375 32.868V31.7877Z" stroke="white" stroke-width="1.875"/>
<path d="M38.7498 35.3551C38.4155 35.3551 38.1445 35.0841 38.1445 34.7498C38.1445 34.4155 38.4155 34.1445 38.7498 34.1445" stroke="white" stroke-width="1.875"/>
<path d="M38.75 35.3551C39.0843 35.3551 39.3553 35.0841 39.3553 34.7498C39.3553 34.4155 39.0843 34.1445 38.75 34.1445" stroke="white" stroke-width="1.875"/>
<path d="M23.0154 35.3551C22.6811 35.3551 22.4102 35.0841 22.4102 34.7498C22.4102 34.4155 22.6811 34.1445 23.0154 34.1445" stroke="white" stroke-width="1.875"/>
<path d="M23.0156 35.3561C23.3499 35.3561 23.6209 35.0851 23.6209 34.7508C23.6209 34.4165 23.3499 34.1455 23.0156 34.1455" stroke="white" stroke-width="1.875"/>
<path d="M18.7734 29.9076C19.3787 29.3024 21.0735 28.0918 23.0104 28.0918C24.9473 28.0918 26.8438 29.3024 27.2473 29.9076" stroke="white" stroke-width="1.875" stroke-linecap="round"/>
<path d="M42.9805 29.9076C42.3752 29.3024 40.6804 28.0918 38.7435 28.0918C36.8066 28.0918 34.9101 29.3024 34.5066 29.9076" stroke="white" stroke-width="1.875" stroke-linecap="round"/>
<path d="M26.0391 48.2109C26.4426 48.6145 27.976 49.4215 30.8813 49.4215C33.7866 49.4215 35.32 48.6145 35.7235 48.2109" stroke="white" stroke-width="1.875" stroke-linecap="round"/>
<path d="M13.0383 27.1888L12.8732 27.2715C9.98157 28.6412 6.12401 27.5223 5.10564 24.9002C8.31635 24.0708 9.9891 22.3184 11.9008 19.6898C7.63949 19.9942 5.04823 15.5195 4.41406 13.8074C11.0724 13.8074 13.7357 4.10517 27.2426 1.63215C38.0481 -0.346265 42.5251 8.03681 43.413 12.4757C45.6324 11.7147 50.4518 11.5245 51.9737 16.8512C53.8761 23.5095 51.7835 28.2655 55.5882 28.2655C54.8273 29.2801 52.6966 30.9288 50.2616 29.4069C50.0456 29.2775 49.5528 28.9274 49.3093 28.5622" stroke="white" stroke-width="1.875" stroke-linecap="round" stroke-linejoin="round"/>
<path d="M36.8584 21.3627C36.7998 21.2533 36.6195 20.9763 36.5367 20.8515C34.8586 18.4181 29.8158 15.1373 23.0696 21.4808L23.0156 21.5336" stroke="white" stroke-width="1.875" stroke-linecap="round" stroke-linejoin="round"/>
<path d="M43.3278 12.4189L40.4329 15.0621L41.6916 18.0827L38.0416 20.7258L37.1016 21.3862" stroke="white" stroke-width="1.875" stroke-linecap="round" stroke-linejoin="round"/>
<path d="M14.9961 39.4775L15.1496 40.1979C16.8982 48.3916 18.7813 59.1066 30.8868 59.1066C42.9924 59.1066 44.8755 48.3916 46.6241 40.1979L46.7776 39.4775" stroke="white" stroke-width="1.875" stroke-linecap="round"/>
<path d="M21.5 55.7412V59.0347" stroke="white" stroke-width="1.875" stroke-linecap="round"/>
<path d="M16.2633 45.2328H14.2639C9.05007 45.2328 5.9898 35.6928 11.842 34.2297L12.0287 34.1943" stroke="white" stroke-width="1.875" stroke-linecap="round"/>
<path d="M45.5023 45.2328H47.5017C52.7156 45.2328 55.7758 35.6928 49.9236 34.2297L49.7369 34.1943" stroke="white" stroke-width="1.875" stroke-linecap="round"/>
<path d="M40.2656 55.7412V59.0347" stroke="white" stroke-width="1.875" stroke-linecap="round"/>
</svg>
