<svg width="60" height="56" viewBox="0 0 60 56" fill="none" xmlns="http://www.w3.org/2000/svg">
<path d="M43.5658 0H22.9052V6.56308H16.2108C7.2719 6.56308 0 17.5234 0 31.004C0 44.4846 7.2719 55.4318 16.2108 55.4318H36.6483C45.2853 55.4318 52.3209 44.6946 52.3209 31.5028V30.1902H36.3726V26.2523H59.9997V24.9397C60.0522 11.2097 52.6622 0 43.5658 0ZM16.2108 52.8066C8.71578 52.8066 2.62523 43.0276 2.62523 31.004C2.62523 19.6105 8.08572 10.2253 15.0295 9.26708V32.8154H29.7308C29.1532 43.9989 23.3121 52.8066 16.2108 52.8066ZM36.6483 52.8066H23.5221C28.4575 49.0394 31.9491 41.5574 32.3691 32.8154H49.6694C49.2363 43.7889 43.4476 52.8066 36.6483 52.8066ZM33.7474 30.1902H17.6547V9.18832H22.9052V26.2523H33.7474V30.1902ZM25.5304 23.6271V3.22904C32.0935 4.25288 37.3439 12.903 37.764 23.6271H25.5304ZM40.3761 23.6271C40.0479 14.255 36.202 6.26118 30.794 2.62523H43.5264C50.9164 2.62523 57.0332 11.9317 57.4007 23.6271H40.3761Z" fill="white"/>
</svg>
