<svg width="60" height="60" viewBox="0 0 60 60" fill="none" xmlns="http://www.w3.org/2000/svg">
<path d="M44.9953 17.9C44.8453 17.875 44.6703 17.875 44.5203 17.9C41.0703 17.775 38.3203 14.95 38.3203 11.45C38.3203 7.875 41.1953 5 44.7703 5C48.3453 5 51.2203 7.9 51.2203 11.45C51.1953 14.95 48.4453 17.775 44.9953 17.9Z" stroke="white" stroke-width="2.25" stroke-linecap="round" stroke-linejoin="round"/>
<path d="M42.4188 36.1004C45.8438 36.6754 49.6188 36.0754 52.2688 34.3004C55.7938 31.9504 55.7938 28.1004 52.2688 25.7504C49.5938 23.9754 45.7688 23.3754 42.3438 23.9754" stroke="white" stroke-width="2.25" stroke-linecap="round" stroke-linejoin="round"/>
<path d="M14.9281 17.9C15.0781 17.875 15.2531 17.875 15.4031 17.9C18.8531 17.775 21.6031 14.95 21.6031 11.45C21.6031 7.875 18.7281 5 15.1531 5C11.5781 5 8.70312 7.9 8.70312 11.45C8.72812 14.95 11.4781 17.775 14.9281 17.9Z" stroke="white" stroke-width="2.25" stroke-linecap="round" stroke-linejoin="round"/>
<path d="M17.5055 36.1004C14.0805 36.6754 10.3055 36.0754 7.65547 34.3004C4.13047 31.9504 4.13047 28.1004 7.65547 25.7504C10.3305 23.9754 14.1555 23.3754 17.5805 23.9754" stroke="white" stroke-width="2.25" stroke-linecap="round" stroke-linejoin="round"/>
<path d="M29.9953 36.5748C29.8453 36.5498 29.6703 36.5498 29.5203 36.5748C26.0703 36.4498 23.3203 33.6248 23.3203 30.1248C23.3203 26.5498 26.1953 23.6748 29.7703 23.6748C33.3453 23.6748 36.2203 26.5748 36.2203 30.1248C36.1953 33.6248 33.4453 36.4748 29.9953 36.5748Z" stroke="white" stroke-width="2.25" stroke-linecap="round" stroke-linejoin="round"/>
<path d="M22.7219 44.4484C19.1969 46.7984 19.1969 50.6484 22.7219 52.9984C26.7219 55.6734 33.2719 55.6734 37.2719 52.9984C40.7969 50.6484 40.7969 46.7984 37.2719 44.4484C33.2969 41.7984 26.7219 41.7984 22.7219 44.4484Z" stroke="white" stroke-width="2.25" stroke-linecap="round" stroke-linejoin="round"/>
</svg>
