<svg width="140" height="150" viewBox="0 0 140 150" fill="none" xmlns="http://www.w3.org/2000/svg">
<path d="M16.2704 57.6833C14.9934 58.9659 14.1999 60.651 14.0248 62.4524C13.8497 64.2538 14.3037 66.0602 15.3098 67.5647C16.3159 69.0692 17.8118 70.1789 19.5435 70.7052C21.2752 71.2315 23.1356 71.1419 24.8087 70.4517C25.7607 70.0259 26.6345 69.4433 27.3937 68.7283C28.0983 68.0065 28.6569 67.1553 29.0387 66.2217C29.4865 65.2673 29.7013 64.2202 29.6654 63.1667C29.6567 61.1117 28.8409 59.1424 27.3937 57.6833C26.6655 56.9491 25.7991 56.3664 24.8446 55.9687C23.89 55.571 22.8661 55.3662 21.8321 55.3662C20.798 55.3662 19.7741 55.571 18.8195 55.9687C17.865 56.3664 16.9986 56.9491 16.2704 57.6833ZM21.8321 16.1667C23.9096 16.1667 25.902 16.992 27.3711 18.461C28.8401 19.93 29.6654 21.9225 29.6654 24C29.6654 26.0775 28.8401 28.07 27.3711 29.539C25.902 31.008 23.9096 31.8333 21.8321 31.8333C19.7545 31.8333 17.7621 32.6586 16.2931 34.1277C14.824 35.5967 13.9987 37.5891 13.9987 39.6667C13.9987 41.7442 14.824 43.7366 16.2931 45.2057C17.7621 46.6747 19.7545 47.5 21.8321 47.5C25.9565 47.4974 30.0077 46.4092 33.5784 44.345C37.1491 42.2808 40.1137 39.3131 42.1742 35.7402C44.2347 32.1673 45.3186 28.1151 45.317 23.9906C45.3153 19.8661 44.2282 15.8147 42.1648 12.2435C40.1014 8.67224 37.1345 5.70696 33.5621 3.64558C29.9897 1.5842 25.9377 0.49934 21.8132 0.5C17.6887 0.500661 13.6371 1.58682 10.0654 3.64934C6.49362 5.71186 3.52763 8.6781 1.46539 12.25C0.947457 13.144 0.611514 14.1317 0.476911 15.1562C0.342308 16.1806 0.411703 17.2215 0.681101 18.219C0.950498 19.2165 1.41457 20.1509 2.0466 20.9683C2.67863 21.7856 3.46612 22.4699 4.36372 22.9817C6.16239 24.0029 8.29197 24.2713 10.2878 23.7283C12.2836 23.1854 13.9837 21.8751 15.0171 20.0833C15.7072 18.8879 16.701 17.8961 17.8977 17.2083C19.0945 16.5205 20.4517 16.1612 21.8321 16.1667ZM115.832 24H68.8321C66.7545 24 64.7621 24.8253 63.2931 26.2943C61.824 27.7634 60.9987 29.7558 60.9987 31.8333C60.9987 33.9109 61.824 35.9033 63.2931 37.3723C64.7621 38.8414 66.7545 39.6667 68.8321 39.6667H115.832C117.91 39.6667 119.902 40.492 121.371 41.961C122.84 43.43 123.665 45.4225 123.665 47.5V123.64L111.367 112.282C109.922 110.929 108.019 110.173 106.04 110.167H37.4987C35.4212 110.167 33.4288 109.341 31.9597 107.872C30.4907 106.403 29.6654 104.411 29.6654 102.333V94.5C29.6654 92.4225 28.8401 90.43 27.3711 88.961C25.902 87.492 23.9096 86.6667 21.8321 86.6667C19.7545 86.6667 17.7621 87.492 16.2931 88.961C14.824 90.43 13.9987 92.4225 13.9987 94.5V102.333C13.9987 108.566 16.4746 114.543 20.8817 118.95C25.2888 123.357 31.2661 125.833 37.4987 125.833H102.985L126.485 147.218C127.85 148.5 129.629 149.25 131.499 149.333C132.573 149.322 133.636 149.109 134.632 148.707C136.033 148.095 137.225 147.087 138.06 145.806C138.895 144.526 139.337 143.029 139.332 141.5V47.5C139.332 41.2674 136.856 35.2901 132.449 30.883C128.042 26.4759 122.065 24 115.832 24Z" fill="#292D32"/>
</svg>
