<svg width="188" height="188" viewBox="0 0 188 188" fill="none" xmlns="http://www.w3.org/2000/svg">
<g filter="url(#filter0_d_2209_22710)">
<path d="M49.2704 80.6833C47.9934 81.9659 47.1999 83.651 47.0248 85.4524C46.8497 87.2538 47.3037 89.0602 48.3098 90.5647C49.3159 92.0692 50.8118 93.1789 52.5435 93.7052C54.2752 94.2315 56.1356 94.1419 57.8087 93.4517C58.7607 93.0259 59.6345 92.4433 60.3937 91.7283C61.0983 91.0065 61.6569 90.1553 62.0387 89.2217C62.4865 88.2673 62.7013 87.2202 62.6654 86.1667C62.6567 84.1117 61.8409 82.1424 60.3937 80.6833C59.6655 79.9491 58.7991 79.3664 57.8446 78.9687C56.89 78.571 55.8661 78.3662 54.8321 78.3662C53.798 78.3662 52.7741 78.571 51.8195 78.9687C50.865 79.3664 49.9986 79.9491 49.2704 80.6833ZM54.8321 39.1667C56.9096 39.1667 58.902 39.992 60.3711 41.461C61.8401 42.93 62.6654 44.9225 62.6654 47C62.6654 49.0775 61.8401 51.07 60.3711 52.539C58.902 54.008 56.9096 54.8333 54.8321 54.8333C52.7545 54.8333 50.7621 55.6586 49.2931 57.1277C47.824 58.5967 46.9987 60.5891 46.9987 62.6667C46.9987 64.7442 47.824 66.7366 49.2931 68.2057C50.7621 69.6747 52.7545 70.5 54.8321 70.5C58.9565 70.4974 63.0077 69.4092 66.5784 67.345C70.1491 65.2808 73.1137 62.3131 75.1742 58.7402C77.2347 55.1673 78.3186 51.1151 78.317 46.9906C78.3153 42.8661 77.2282 38.8147 75.1648 35.2435C73.1014 31.6722 70.1345 28.707 66.5621 26.6456C62.9897 24.5842 58.9377 23.4993 54.8132 23.5C50.6887 23.5007 46.6371 24.5868 43.0654 26.6493C39.4936 28.7119 36.5276 31.6781 34.4654 35.25C33.9475 36.144 33.6115 37.1317 33.4769 38.1562C33.3423 39.1806 33.4117 40.2215 33.6811 41.219C33.9505 42.2165 34.4146 43.1509 35.0466 43.9683C35.6786 44.7856 36.4661 45.4699 37.3637 45.9817C39.1624 47.0029 41.292 47.2713 43.2878 46.7283C45.2836 46.1854 46.9837 44.8751 48.0171 43.0833C48.7072 41.8879 49.701 40.8961 50.8977 40.2083C52.0945 39.5205 53.4517 39.1612 54.8321 39.1667ZM148.832 47H101.832C99.7545 47 97.7621 47.8253 96.2931 49.2943C94.824 50.7634 93.9987 52.7558 93.9987 54.8333C93.9987 56.9109 94.824 58.9033 96.2931 60.3723C97.7621 61.8414 99.7545 62.6667 101.832 62.6667H148.832C150.91 62.6667 152.902 63.492 154.371 64.961C155.84 66.43 156.665 68.4225 156.665 70.5V146.64L144.367 135.282C142.922 133.929 141.019 133.173 139.04 133.167H70.4987C68.4212 133.167 66.4288 132.341 64.9597 130.872C63.4907 129.403 62.6654 127.411 62.6654 125.333V117.5C62.6654 115.422 61.8401 113.43 60.3711 111.961C58.902 110.492 56.9096 109.667 54.8321 109.667C52.7545 109.667 50.7621 110.492 49.2931 111.961C47.824 113.43 46.9987 115.422 46.9987 117.5V125.333C46.9987 131.566 49.4746 137.543 53.8817 141.95C58.2888 146.357 64.2661 148.833 70.4987 148.833H135.985L159.485 170.218C160.85 171.5 162.629 172.25 164.499 172.333C165.573 172.322 166.636 172.109 167.632 171.707C169.033 171.095 170.225 170.087 171.06 168.806C171.895 167.526 172.337 166.029 172.332 164.5V70.5C172.332 64.2674 169.856 58.2901 165.449 53.883C161.042 49.4759 155.065 47 148.832 47Z" fill="#292D32"/>
</g>
<defs>
<filter id="filter0_d_2209_22710" x="-4" y="0" width="196" height="196" filterUnits="userSpaceOnUse" color-interpolation-filters="sRGB">
<feFlood flood-opacity="0" result="BackgroundImageFix"/>
<feColorMatrix in="SourceAlpha" type="matrix" values="0 0 0 0 0 0 0 0 0 0 0 0 0 0 0 0 0 0 127 0" result="hardAlpha"/>
<feOffset dy="4"/>
<feGaussianBlur stdDeviation="2"/>
<feComposite in2="hardAlpha" operator="out"/>
<feColorMatrix type="matrix" values="0 0 0 0 0 0 0 0 0 0 0 0 0 0 0 0 0 0 0.25 0"/>
<feBlend mode="normal" in2="BackgroundImageFix" result="effect1_dropShadow_2209_22710"/>
<feBlend mode="normal" in="SourceGraphic" in2="effect1_dropShadow_2209_22710" result="shape"/>
</filter>
</defs>
</svg>
