<svg width="60" height="60" viewBox="0 0 60 60" fill="none" xmlns="http://www.w3.org/2000/svg">
<path d="M25 32.4999C26.0736 33.9352 27.4434 35.1229 29.0164 35.9823C30.5894 36.8417 32.3288 37.3527 34.1166 37.4807C35.9045 37.6088 37.699 37.3508 39.3784 36.7244C41.0578 36.0979 42.5828 35.1176 43.85 33.8499L51.35 26.3499C53.627 23.9924 54.8869 20.8349 54.8584 17.5574C54.8299 14.2799 53.5153 11.1448 51.1977 8.82718C48.8801 6.50958 45.745 5.19497 42.4675 5.16649C39.1901 5.13801 36.0325 6.39794 33.675 8.67491L29.375 12.9499" stroke="#292D32" stroke-width="2" stroke-linecap="round" stroke-linejoin="round"/>
<path d="M34.9956 27.5011C33.922 26.0657 32.5522 24.8781 30.9792 24.0187C29.4063 23.1593 27.6668 22.6483 25.879 22.5202C24.0911 22.3922 22.2966 22.6501 20.6173 23.2766C18.9379 23.9031 17.4128 24.8834 16.1456 26.1511L8.64562 33.6511C6.36864 36.0086 5.10871 39.1661 5.13719 42.4436C5.16567 45.721 6.48028 48.8562 8.79788 51.1738C11.1155 53.4914 14.2506 54.806 17.5281 54.8345C20.8056 54.863 23.9631 53.603 26.3206 51.3261L30.5956 47.0511" stroke="#292D32" stroke-width="2" stroke-linecap="round" stroke-linejoin="round"/>
</svg>
