<svg width="64" height="64" viewBox="0 0 64 64" fill="none" xmlns="http://www.w3.org/2000/svg">
<path d="M19.5661 36.5971C21.8723 36.1949 27.029 35.7451 31.8988 35.7451C36.7686 35.7451 41.9253 36.1949 44.2316 36.5971C44.7997 36.6962 45.2723 37.0162 45.5234 37.4679C47.4921 41.0092 48.7593 48.2183 48.702 51.3112C48.6407 54.6199 46.0151 56.5195 42.7009 56.4999C38.5667 56.4755 37.3777 51.3066 36.4987 49.5528H27.2993C26.4203 51.3066 25.231 56.4756 21.0968 56.4999C17.7825 56.5195 15.1569 54.6199 15.0956 51.3112C15.0383 48.2183 16.3055 41.0092 18.2742 37.4679C18.5253 37.0162 18.9979 36.6962 19.5661 36.5971Z" stroke="white" strokeWidth="2" stroke-linecap="round" stroke-linejoin="round"/>
<path d="M24.9453 40.3218V44.8578" stroke="white" strokeWidth="2" stroke-linecap="round" stroke-linejoin="round"/>
<path d="M27.5684 42.5898L22.3221 42.5898" stroke="white" strokeWidth="2" stroke-linecap="round" stroke-linejoin="round"/>
<path d="M32.0332 24.5312V35.6906" stroke="white" strokeWidth="2" stroke-linecap="round" stroke-linejoin="round"/>
<path d="M11.434 18.8632H12.434C12.434 18.4084 12.1271 18.0108 11.6871 17.8957L11.434 18.8632ZM52.3649 18.8632L52.1118 17.8957C51.6718 18.0108 51.3649 18.4084 51.3649 18.8632H52.3649ZM51.3649 34.1669C51.3649 34.7192 51.8126 35.1669 52.3649 35.1669C52.9172 35.1669 53.3649 34.7192 53.3649 34.1669H51.3649ZM10.434 34.0555C10.434 34.6078 10.8817 35.0555 11.434 35.0555C11.9863 35.0555 12.434 34.6078 12.434 34.0555H10.434ZM5 14.2652C5 13.918 5.31954 13.285 6.68984 12.4994C7.98423 11.7573 9.92372 11.0555 12.4072 10.4533C17.3586 9.25269 24.2506 8.5 31.8995 8.5V6.5C24.1399 6.5 17.0822 7.26175 11.9359 8.50964C9.3706 9.13169 7.2243 9.88765 5.69512 10.7643C4.24183 11.5975 3 12.7442 3 14.2652H5ZM31.8995 8.5C39.5483 8.5 46.4404 9.25269 51.3917 10.4533C53.8752 11.0555 55.8147 11.7573 57.1091 12.4994C58.4794 13.285 58.7989 13.918 58.7989 14.2652H60.7989C60.7989 12.7442 59.5571 11.5975 58.1038 10.7643C56.5746 9.88765 54.4283 9.13169 51.863 8.50964C46.7167 7.26175 39.659 6.5 31.8995 6.5V8.5ZM11.6871 17.8957C9.42196 17.3032 7.66865 16.6272 6.50513 15.9221C5.28012 15.1799 5 14.5914 5 14.2652H3C3 15.7144 4.13008 16.8215 5.46867 17.6326C6.86876 18.481 8.83246 19.2163 11.181 19.8306L11.6871 17.8957ZM58.7989 14.2652C58.7989 14.5914 58.5188 15.1799 57.2938 15.9221C56.1303 16.6272 54.377 17.3032 52.1118 17.8957L52.618 19.8306C54.9665 19.2163 56.9302 18.481 58.3302 17.6326C59.6688 16.8215 60.7989 15.7144 60.7989 14.2652H58.7989ZM51.3649 18.8632V34.1669H53.3649V18.8632H51.3649ZM10.434 18.8632V34.0555H12.434V18.8632H10.434Z" fill="white"/>
<path d="M59.7995 14.3681L60.0004 29.5092C60.0004 31.31 57.0987 32.9465 52.3672 34.1587" stroke="white" strokeWidth="2" stroke-linecap="round"/>
<path d="M11.4414 26.6097C16.5452 25.2471 23.9102 24.3916 32.0992 24.3916C40.0811 24.3916 47.2802 25.2044 52.3655 26.5073" stroke="white" strokeWidth="2" stroke-linecap="round"/>
<path d="M39.3664 44.7829C37.9656 44.7829 36.8301 43.8011 36.8301 42.5899C36.8301 41.3788 37.9656 40.397 39.3664 40.397" stroke="white" strokeWidth="2"/>
<path d="M39.3652 44.7829C40.766 44.7829 41.9015 43.8011 41.9015 42.5899C41.9015 41.3788 40.766 40.397 39.3652 40.397" stroke="white" strokeWidth="2"/>
<path d="M4 14.3326L4.20092 29.5095C4.20092 31.2601 6.94303 32.8554 11.4425 34.0566" stroke="white" strokeWidth="2" stroke-linecap="round"/>
</svg>
