<svg width="64" height="64" viewBox="0 0 64 64" fill="none" xmlns="http://www.w3.org/2000/svg">
<path d="M38.1616 46.8368C43.0224 46.8368 46.9628 42.8964 46.9628 38.0356C46.9628 33.1748 43.0224 29.2344 38.1616 29.2344C33.3008 29.2344 29.3604 33.1748 29.3604 38.0356C29.3604 42.8964 33.3008 46.8368 38.1616 46.8368Z" stroke="white" stroke-width="2" stroke-linecap="round" stroke-linejoin="round"/>
<path d="M34.0632 30.2462L26.7969 17.1641L17.0381 36.2756H29.5382" stroke="white" stroke-width="2" stroke-linecap="round" stroke-linejoin="round"/>
<path d="M51.6513 51.3524L61.6304 61.3316" stroke="white" stroke-width="2" stroke-linecap="round" stroke-linejoin="round"/>
<path d="M12.3497 12.6466L2.37053 2.66742" stroke="white" stroke-width="2" stroke-linecap="round" stroke-linejoin="round"/>
<path d="M12.3497 51.3524L2.37053 61.3316" stroke="white" stroke-width="2" stroke-linecap="round" stroke-linejoin="round"/>
<path d="M51.6513 12.6466L61.6304 2.66742" stroke="white" stroke-width="2" stroke-linecap="round" stroke-linejoin="round"/>
<path d="M61.6299 44.7434L61.6299 19.2568" stroke="white" stroke-width="2" stroke-linecap="round" stroke-linejoin="round"/>
<path d="M18.2585 61.332L46.0671 61.332" stroke="white" stroke-width="2" stroke-linecap="round" stroke-linejoin="round"/>
<path d="M2.37012 44.7434L2.37012 19.2568" stroke="white" stroke-width="2" stroke-linecap="round" stroke-linejoin="round"/>
<path d="M18.2585 2.66797L46.0671 2.66798" stroke="white" stroke-width="2" stroke-linecap="round" stroke-linejoin="round"/>
<path d="M54.0635 61.3322H61.63V53.7656" stroke="white" stroke-width="2" stroke-linecap="round" stroke-linejoin="round"/>
<path d="M9.9375 2.66783L2.37095 2.66783L2.37095 10.2344" stroke="white" stroke-width="2" stroke-linecap="round" stroke-linejoin="round"/>
<path d="M9.9375 61.3322H2.37095V53.7656" stroke="white" stroke-width="2" stroke-linecap="round" stroke-linejoin="round"/>
<path d="M54.0635 2.66783L61.63 2.66783L61.63 10.2344" stroke="white" stroke-width="2" stroke-linecap="round" stroke-linejoin="round"/>
</svg>
