<svg width="24" height="24" viewBox="0 0 24 24" fill="none" xmlns="http://www.w3.org/2000/svg">
<path d="M16 8C16 5.79086 14.2091 4 12 4C9.79082 4 7.99995 5.79086 7.99995 8M19.4453 10.674L20.3786 16.274C20.5923 17.5559 20.6993 18.1968 20.5138 18.6964C20.351 19.1347 20.0399 19.5022 19.6343 19.7349C19.172 20 18.522 20 17.2224 20H6.7773C5.47768 20 4.8284 20 4.36617 19.7349C3.96053 19.5022 3.64877 19.1347 3.48595 18.6964C3.30041 18.1968 3.40739 17.5559 3.62105 16.274L4.55438 10.674C4.71271 9.72398 4.79213 9.24902 5.02916 8.89258C5.2381 8.57838 5.53166 8.32965 5.87593 8.17521C6.26649 8 6.74782 8 7.71089 8H16.2893C17.2524 8 17.7336 8 18.1242 8.17521C18.4685 8.32965 18.7617 8.57838 18.9707 8.89258C19.2077 9.24902 19.2869 9.72399 19.4453 10.674Z" stroke="#292D32" stroke-width="2" stroke-linecap="round" stroke-linejoin="round"/>
</svg>
