<svg width="24" height="24" viewBox="0 0 24 24" fill="none" xmlns="http://www.w3.org/2000/svg">
<path fill-rule="evenodd" clip-rule="evenodd" d="M15.0039 2C15.5562 2 16.0039 2.44772 16.0039 3V6H17.0039C18.6608 6 20.0039 7.34315 20.0039 9V12C20.0039 15.3137 17.3176 18 14.0039 18H13.0039V21C13.0039 21.5523 12.5562 22 12.0039 22C11.4516 22 11.0039 21.5523 11.0039 21V18H10.0039C6.6902 18 4.00391 15.3137 4.00391 12V9C4.00391 7.34315 5.34705 6 7.00391 6H8.00391V3C8.00391 2.44772 8.45162 2 9.00391 2C9.55619 2 10.0039 2.44772 10.0039 3V6H14.0039V3C14.0039 2.44772 14.4516 2 15.0039 2ZM17.0003 7.99988L7.00025 7.99988C6.44797 7.99988 6.00025 8.4476 6.00025 8.99988V11.9999C6.00025 14.209 7.79111 15.9999 10.0003 15.9999L14.0003 15.9999C16.2094 15.9999 18.0003 14.209 18.0003 11.9999V8.99988C18.0003 8.4476 17.5525 7.99988 17.0003 7.99988Z" fill="#292D32"/>
</svg>
