<svg width="42" height="42" viewBox="0 0 42 42" fill="none" xmlns="http://www.w3.org/2000/svg">
<path d="M29.75 38.5H12.25C5.25 38.5 3.5 36.75 3.5 29.75V26.25C3.5 19.25 5.25 17.5 12.25 17.5H29.75C36.75 17.5 38.5 19.25 38.5 26.25V29.75C38.5 36.75 36.75 38.5 29.75 38.5Z" stroke="#292D32" stroke-width="2.625" stroke-linecap="round" stroke-linejoin="round"/>
<path d="M10.5 17.5V14C10.5 8.2075 12.25 3.5 21 3.5C28.875 3.5 31.5 7 31.5 12.25" stroke="#292D32" stroke-width="2.625" stroke-linecap="round" stroke-linejoin="round"/>
<path d="M21 32.375C23.4162 32.375 25.375 30.4162 25.375 28C25.375 25.5838 23.4162 23.625 21 23.625C18.5838 23.625 16.625 25.5838 16.625 28C16.625 30.4162 18.5838 32.375 21 32.375Z" stroke="#292D32" stroke-width="2.625" stroke-linecap="round" stroke-linejoin="round"/>
</svg>
