<svg width="40" height="40" viewBox="0 0 40 40" fill="none" xmlns="http://www.w3.org/2000/svg">
<path d="M6.64816 24.4344L4.11484 21.901C3.08151 20.8677 3.08151 19.1677 4.11484 18.1343L6.64816 15.601C7.08149 15.1676 7.43149 14.3176 7.43149 13.7176V10.1343C7.43149 8.66759 8.6315 7.46763 10.0982 7.46763H13.6815C14.2815 7.46763 15.1315 7.11768 15.5648 6.68434L18.0982 4.15098C19.1315 3.11764 20.8315 3.11764 21.8648 4.15098L24.3982 6.68434C24.8315 7.11768 25.6815 7.46763 26.2815 7.46763H29.8649C31.3315 7.46763 32.5315 8.66759 32.5315 10.1343V13.7176C32.5315 14.3176 32.8815 15.1676 33.3148 15.601L35.8482 18.1343C36.8815 19.1677 36.8815 20.8677 35.8482 21.901L33.3148 24.4344C32.8815 24.8677 32.5315 25.7177 32.5315 26.3177V29.9009C32.5315 31.3676 31.3315 32.5677 29.8649 32.5677H26.2815C25.6815 32.5677 24.8315 32.9177 24.3982 33.351L21.8648 35.8844C20.8315 36.9177 19.1315 36.9177 18.0982 35.8844L15.5648 33.351C15.1315 32.9177 14.2815 32.5677 13.6815 32.5677H10.0982C8.6315 32.5677 7.43149 31.3676 7.43149 29.9009V26.3177C7.43149 25.7011 7.08149 24.851 6.64816 24.4344Z" stroke="#ECC243" stroke-width="2.5" stroke-linecap="round" stroke-linejoin="round"/>
<path d="M15 25L25 15" stroke="#ECC243" stroke-width="2.5" stroke-linecap="round" stroke-linejoin="round"/>
<path d="M24.1562 24.1663H24.1712" stroke="#ECC243" stroke-width="3.33333" stroke-linecap="round" stroke-linejoin="round"/>
<path d="M15.8242 15.8333H15.8391" stroke="#ECC243" stroke-width="3.33333" stroke-linecap="round" stroke-linejoin="round"/>
</svg>
