<svg width="91" height="28" viewBox="0 0 91 28" fill="none" xmlns="http://www.w3.org/2000/svg">
<path d="M39.9998 2.33301H25.9998C24.7112 2.33301 23.6665 3.37768 23.6665 4.66634V23.333C23.6665 24.6217 24.7112 25.6663 25.9998 25.6663H39.9998C41.2885 25.6663 42.3332 24.6217 42.3332 23.333V4.66634C42.3332 3.37768 41.2885 2.33301 39.9998 2.33301Z" stroke="white" stroke-width="1.5" stroke-linecap="round" stroke-linejoin="round"/>
<path d="M33 21H33.0117" stroke="white" stroke-width="2" stroke-linecap="round" stroke-linejoin="round"/>
<rect x="83.5" y="2.91699" width="22.1667" height="30" rx="1" transform="rotate(90 83.5 2.91699)" stroke="white" stroke-width="1.5" stroke-linecap="round" stroke-linejoin="round"/>
<path d="M49.7498 25.0836H87.2498" stroke="white" stroke-width="1.5" stroke-linecap="round"/>
<path d="M53.5 21.6802H83.5" stroke="white" stroke-width="1.5" stroke-linecap="round"/>
<path fill-rule="evenodd" clip-rule="evenodd" d="M5.5 8.75C5.17125 8.75 4.75 9.08436 4.75 9.7V23.3C4.75 23.9156 5.17125 24.25 5.5 24.25H14.5C14.8288 24.25 15.25 23.9156 15.25 23.3V9.7C15.25 9.08436 14.8288 8.75 14.5 8.75H5.5ZM3.25 9.7C3.25 8.43787 4.1719 7.25 5.5 7.25H14.5C15.8281 7.25 16.75 8.43787 16.75 9.7V23.3C16.75 24.5621 15.8281 25.75 14.5 25.75H5.5C4.1719 25.75 3.25 24.5621 3.25 23.3V9.7Z" fill="white"/>
<path fill-rule="evenodd" clip-rule="evenodd" d="M7.5 10C7.5 9.72386 7.72386 9.5 8 9.5H12C12.2761 9.5 12.5 9.72386 12.5 10C12.5 10.2761 12.2761 10.5 12 10.5H8C7.72386 10.5 7.5 10.2761 7.5 10Z" fill="white"/>
<path fill-rule="evenodd" clip-rule="evenodd" d="M9 22C9 21.4477 9.44772 21 10 21H10.0083C10.5606 21 11.0083 21.4477 11.0083 22C11.0083 22.5523 10.5606 23 10.0083 23H10C9.44772 23 9 22.5523 9 22Z" fill="white"/>
</svg>
