<svg width="24" height="24" viewBox="0 0 24 24" fill="none" xmlns="http://www.w3.org/2000/svg">
<path d="M20.75 14C20.75 13.5858 20.4142 13.25 20 13.25C19.5858 13.25 19.25 13.5858 19.25 14H20.75ZM4.75 13.7324C4.75 13.3182 4.41421 12.9824 4 12.9824C3.58579 12.9824 3.25 13.3182 3.25 13.7324H4.75ZM5 6.75H19V5.25H5V6.75ZM20.25 8V12H21.75V8H20.25ZM3.75 12V8H2.25V12H3.75ZM19 13.25H14V14.75H19V13.25ZM10 13.25H5V14.75H10V13.25ZM2.25 12C2.25 13.5188 3.48122 14.75 5 14.75V13.25C4.30964 13.25 3.75 12.6904 3.75 12H2.25ZM20.25 12C20.25 12.6904 19.6904 13.25 19 13.25V14.75C20.5188 14.75 21.75 13.5188 21.75 12H20.25ZM19 6.75C19.6904 6.75 20.25 7.30964 20.25 8H21.75C21.75 6.48122 20.5188 5.25 19 5.25V6.75ZM5 5.25C3.48122 5.25 2.25 6.48122 2.25 8H3.75C3.75 7.30964 4.30964 6.75 5 6.75V5.25ZM19.25 14V19H20.75V14H19.25ZM18 20.25H6V21.75H18V20.25ZM4.75 19V13.7324H3.25V19H4.75ZM6 20.25C5.30964 20.25 4.75 19.6904 4.75 19H3.25C3.25 20.5188 4.48122 21.75 6 21.75V20.25ZM19.25 19C19.25 19.6904 18.6904 20.25 18 20.25V21.75C19.5188 21.75 20.75 20.5188 20.75 19H19.25ZM11 12.75H13V11.25H11V12.75ZM13.25 13V15H14.75V13H13.25ZM13 15.25H11V16.75H13V15.25ZM10.75 15V13H9.25V15H10.75ZM11 15.25C10.8619 15.25 10.75 15.1381 10.75 15H9.25C9.25 15.9665 10.0335 16.75 11 16.75V15.25ZM13.25 15C13.25 15.1381 13.1381 15.25 13 15.25V16.75C13.9665 16.75 14.75 15.9665 14.75 15H13.25ZM13 12.75C13.1381 12.75 13.25 12.8619 13.25 13H14.75C14.75 12.0335 13.9665 11.25 13 11.25V12.75ZM11 11.25C10.0335 11.25 9.25 12.0335 9.25 13H10.75C10.75 12.8619 10.8619 12.75 11 12.75V11.25ZM10 3.75H14V2.25H10V3.75ZM14.25 3.9998V5.23828H15.75V3.9998H14.25ZM9.75 5.23828V3.9998H8.25V5.23828H9.75ZM14 3.75C14.1383 3.75 14.25 3.86192 14.25 3.9998H15.75C15.75 3.03311 14.9663 2.25 14 2.25V3.75ZM10 2.25C9.0337 2.25 8.25 3.03311 8.25 3.9998H9.75C9.75 3.86192 9.86173 3.75 10 3.75V2.25Z" fill="#292D32"/>
</svg>
