<svg width="67" height="67" viewBox="0 0 67 67" fill="none" xmlns="http://www.w3.org/2000/svg">
<path d="M16.9111 48.9235C17.8633 48.9235 19.5747 48.4973 19.5747 47.645C19.5747 47.3054 19.4748 47.1455 19.3816 47.0124C19.3349 46.9524 19.3216 46.9325 19.3216 46.7793C19.3216 46.6395 19.9342 46.0801 22.7843 46.0801C24.0295 46.0801 25.1882 46.2466 26.4201 46.4197C27.8651 46.6261 29.5099 46.8592 31.5808 46.8592C35.0568 46.8592 41.8889 45.9136 45.4382 42.3644C47.1628 40.6397 48.0352 38.4755 48.0352 35.9252C48.0352 35.7254 48.0152 35.499 47.9686 35.2593L47.9419 35.0861L46.6701 34.5001C45.1452 33.8009 43.9399 33.2416 43.3672 32.9553C42.6214 32.5823 41.8956 31.397 41.5227 29.9387C41.2164 28.7401 41.2297 27.6547 41.5626 27.1753L41.7624 26.8889L41.4694 26.7025C41.1697 26.516 40.8634 26.3296 40.5438 26.1564C38.8791 25.2441 37.6138 24.5583 36.655 24.0522C35.2233 23.2931 34.4908 22.9268 34.1778 22.7737C33.9714 22.6738 33.7516 22.5939 33.5319 22.5339C33.1257 22.4341 32.4265 22.2942 31.401 22.1943L31.3211 22.8536C31.714 22.9068 35.2166 23.4928 36.6616 26.789C38.1 30.0719 38.5594 35.166 35.5362 39.6142C33.0191 43.3166 29.1436 43.7361 24.236 44.2555C23.6167 44.3221 22.9774 44.3887 22.3248 44.4686C20.4736 44.6884 18.689 44.9547 16.9643 45.2144C13.3951 45.7472 10.3054 46.2133 8.94027 45.8337L8.71386 46.4597C9.13338 46.6528 9.59951 46.8392 10.0989 47.0124C13.7214 48.2842 15.2863 48.757 16.2851 48.8902C16.5248 48.9168 16.7313 48.9302 16.931 48.9302L16.9111 48.9235ZM22.771 45.4142C19.3616 45.4142 18.6424 46.16 18.6424 46.7793C18.6424 47.1189 18.7423 47.2787 18.8355 47.4119C18.8821 47.4718 18.8954 47.4918 18.8954 47.645C18.8355 47.8381 17.8566 48.2576 16.8978 48.2576C16.7246 48.2576 16.5448 48.2509 16.3317 48.2243C15.4594 48.1111 14.0211 47.6849 10.9579 46.6195C12.5428 46.5396 14.627 46.2333 17.0309 45.8737C18.7489 45.614 20.5269 45.3476 22.3714 45.1345C23.0174 45.0613 23.6566 44.988 24.2759 44.9214C29.35 44.3754 33.3654 43.9492 36.0556 39.9871C39.232 35.3192 38.7459 29.972 37.2409 26.5227C36.8414 25.6104 36.302 24.8846 35.7094 24.3186C35.8958 24.4184 36.0956 24.525 36.3087 24.6382C37.2609 25.1443 38.5261 25.8301 40.1909 26.7358C40.404 26.8556 40.617 26.9755 40.8235 27.102C40.5371 27.7945 40.5438 28.88 40.8568 30.1052C41.1897 31.4104 41.9422 33.0019 43.0476 33.5546C43.6269 33.8476 44.8388 34.4003 46.3704 35.1061L47.3226 35.5456C47.3426 35.6854 47.3493 35.812 47.3493 35.9318C47.3493 38.3357 46.5635 40.2868 44.9454 41.9049C41.5493 45.301 34.9369 46.2066 31.5608 46.2066C29.5365 46.2066 27.9916 45.9869 26.5 45.7738C25.2481 45.594 24.0628 45.4275 22.771 45.4275V45.4142Z" fill="black"/>
<path d="M10.3059 46.6267C11.9706 46.6267 14.2946 46.2805 17.0381 45.8676C18.7561 45.6079 20.5341 45.3416 22.3786 45.1285C23.0246 45.0552 23.6638 44.982 24.2831 44.9154C29.3572 44.3693 33.3726 43.9432 36.0628 39.9811C39.2392 35.3131 38.7531 29.966 37.2481 26.5166C35.6566 22.8875 31.8211 22.2482 31.3949 22.1883H31.3283C29.5637 22.0151 27.4528 22.0418 25.0955 22.2615C24.1566 22.3481 23.1711 22.468 22.1722 22.6145C14.1947 23.7864 10.7587 24.6854 8.54793 26.157C6.25058 27.6886 3.57367 31.4309 3.57367 36.9512C3.57367 42.1719 4.96539 44.7489 8.70774 46.4536C9.14058 46.5735 9.67995 46.6267 10.3259 46.6267H10.3059ZM28.8378 22.741C29.7102 22.741 30.5292 22.7743 31.2884 22.8475C31.6879 22.9008 35.1905 23.4868 36.6355 26.783C38.0739 30.0659 38.5333 35.16 35.5101 39.6082C32.9931 43.3106 29.1175 43.7301 24.2099 44.2495C23.5906 44.3161 22.9513 44.3827 22.2987 44.4626C20.4475 44.6823 18.6629 44.9487 16.9382 45.2084C13.3624 45.7411 10.2793 46.2072 8.91417 45.8277C5.50477 44.2695 4.21959 41.8589 4.21959 36.9512C4.21959 31.6973 6.74334 28.1547 8.90085 26.7097C10.9918 25.318 14.4877 24.4124 22.2521 23.2737C23.2443 23.1272 24.2165 23.0073 25.1421 22.9208C26.4539 22.8009 27.6925 22.7343 28.8312 22.7343L28.8378 22.741Z" fill="black"/>
<path d="M16.3053 48.5504V50.0553C16.9978 50.7478 17.8568 51.0009 18.7159 51.0009C19.5749 51.0009 21.0465 50.6546 21.5592 49.9687C22.072 49.2829 21.9921 46.6925 21.9921 46.6925C23.8899 46.6925 27.1661 47.0388 30.3558 47.9844C30.9551 48.1642 31.6676 48.2907 32.4467 48.3772C35.8095 48.7435 40.3908 48.3373 42.4152 47.9844C44.3996 47.6448 47.5293 46.3729 49.3405 43.4896C49.8067 42.7437 50.1862 41.8914 50.4326 40.9192C50.7922 39.5008 50.9387 38.1357 50.8721 36.8173C49.7467 36.2912 48.6413 35.7785 47.6158 35.3057C47.6558 35.5321 47.6758 35.7385 47.6758 35.9183C47.6758 37.7295 47.2429 40.0535 45.1787 42.1245C41.8159 45.4872 35.35 46.5194 31.561 46.5194C27.7721 46.5194 25.528 45.7403 22.7712 45.7403C20.0144 45.7403 18.9756 46.2597 18.9756 46.7724C18.9756 47.2852 19.2353 47.1187 19.2353 47.6314C19.2353 48.1442 17.8568 48.577 16.9046 48.577C16.7182 48.577 16.5251 48.5637 16.2986 48.5371L16.3053 48.5504Z" fill="black"/>
<path d="M18.7156 51.3334C19.6412 51.3334 21.2194 50.9739 21.8254 50.1681C22.2915 49.5422 22.3381 47.8308 22.3315 47.0317C24.2093 47.0717 27.2724 47.418 30.2623 48.3103C30.8084 48.4701 31.4743 48.6033 32.2334 48.6898L32.4132 48.7098C35.7027 49.0694 40.2774 48.6965 42.4749 48.3169C44.7722 47.924 47.8554 46.4924 49.6266 43.669C50.1394 42.8566 50.519 41.9576 50.7587 41.0054C51.1249 39.5604 51.2781 38.1487 51.2048 36.8035L51.1915 36.6038L51.0117 36.5172C49.8863 35.9911 48.7743 35.4784 47.7555 35.0056L47.1828 34.7393L47.2893 35.3652C47.3226 35.5716 47.3426 35.7581 47.3426 35.9179C47.3426 38.3218 46.5569 40.2729 44.9387 41.891C41.5426 45.2871 34.9303 46.1927 31.5542 46.1927C29.5298 46.1927 27.985 45.973 26.4933 45.7599C25.2415 45.5801 24.0562 45.4136 22.7643 45.4136C19.3549 45.4136 18.6357 46.1594 18.6357 46.7787C18.6357 47.1183 18.7356 47.2781 18.8289 47.4113C18.8755 47.4712 18.8888 47.4912 18.8888 47.6444C18.8288 47.8375 17.85 48.257 16.8911 48.257C16.718 48.257 16.5382 48.2503 16.3251 48.2237L15.9522 48.1771V50.1948L16.0521 50.2946C16.7379 50.9805 17.6502 51.3401 18.7023 51.3401L18.7156 51.3334ZM21.9919 46.3592H21.6456L21.6589 46.7055C21.6922 47.6577 21.619 49.3357 21.2927 49.7686C20.8931 50.3013 19.6146 50.6675 18.7156 50.6675C17.8833 50.6675 17.1841 50.4145 16.638 49.9084V48.9096C16.7313 48.9096 16.8178 48.9162 16.9111 48.9162C17.8633 48.9162 19.5747 48.4901 19.5747 47.6377C19.5747 47.2981 19.4748 47.1383 19.3815 47.0051C19.3349 46.9452 19.3216 46.9252 19.3216 46.772C19.3216 46.6322 19.9342 46.0729 22.7843 46.0729C24.0295 46.0729 25.1882 46.2393 26.4201 46.4125C27.8651 46.6189 29.5099 46.8519 31.5808 46.8519C35.0568 46.8519 41.8889 45.9064 45.4381 42.3571C47.1628 40.6325 48.0352 38.4683 48.0352 35.9179C48.0352 35.8979 48.0352 35.8713 48.0352 35.8513C48.8475 36.2242 49.7066 36.6238 50.5722 37.0299C50.6122 38.2485 50.4657 39.5271 50.1327 40.8322C49.9063 41.7179 49.5534 42.5569 49.0806 43.3094C47.4292 45.9463 44.5392 47.2848 42.3817 47.651C40.2575 48.0173 35.8958 48.3769 32.6795 48.0572L32.6662 48.0372H32.4598C31.7007 47.9507 31.0148 47.8242 30.4621 47.6577C27.2125 46.6921 23.8764 46.3525 22.0052 46.3525L21.9919 46.3592Z" fill="black"/>
<path d="M63.6177 44.8949L63.8574 37.6299L63.8441 37.5766C63.3713 35.9319 60.6944 34.0607 55.1741 31.5036C54.4882 31.184 53.7557 30.8577 52.9966 30.5248C51.1654 29.719 49.241 28.88 47.5695 28.1941L46.8104 27.8812C43.0548 26.3562 41.9494 26.1831 41.4499 26.3829C41.2502 26.4894 41.117 26.616 41.0038 26.7824C40.5576 27.435 40.5044 28.6669 40.8706 30.0919C41.2036 31.3971 41.956 32.9886 43.0614 33.5413C43.6407 33.8343 44.8527 34.387 46.3843 35.0928L47.4963 35.6056C48.5151 36.0784 49.6272 36.5911 50.7459 37.1172C52.9567 38.156 54.708 39.0017 56.093 39.7075C56.719 40.0271 57.2917 40.3268 57.7911 40.6065C58.144 40.7996 58.4703 40.986 58.7833 41.1658C61.6333 42.8239 62.9651 44.0026 62.9651 44.8815L63.631 44.8949H63.6177ZM63.1849 37.7165L62.9984 43.4565C62.3259 42.6508 61.074 41.7385 59.1096 40.5998C58.7966 40.42 58.4636 40.2269 58.1041 40.0271C57.598 39.7475 57.0186 39.4412 56.386 39.1215C54.9943 38.409 53.243 37.5633 51.0189 36.5179C49.8935 35.9918 48.7815 35.4791 47.7627 35.0063L46.6506 34.4935C45.1257 33.7943 43.9204 33.235 43.3478 32.9486C42.6019 32.5757 41.8761 31.3904 41.5032 29.9321C41.1969 28.7335 41.2102 27.6481 41.5432 27.1686C41.5964 27.0887 41.663 27.0288 41.7296 26.9889C41.9627 26.8956 43.0215 27.0688 46.5574 28.5071L47.2299 28.7801C48.9147 29.4727 50.9523 30.365 52.7303 31.1374C53.4894 31.4703 54.2152 31.7966 54.8944 32.1096C58.1773 33.6279 62.5922 35.852 63.1915 37.7098L63.1849 37.7165Z" fill="black"/>
<path d="M49.2405 49.8691H49.407C51.6245 49.8691 53.7553 49.6494 55.7264 49.2165L56.2192 49.11L55.9262 48.6971C55.8862 48.6372 55.773 48.4308 55.773 48.2443C55.773 44.3555 56.1925 41.7718 56.1992 41.7452C56.2058 41.7252 56.5654 40.44 56.5654 39.4079V39.2014L56.3856 39.1082C54.9939 38.3957 53.2426 37.55 51.0185 36.5045L50.5124 36.2715L50.5391 36.8242C50.6056 38.096 50.4591 39.4478 50.1129 40.8262C49.8865 41.7119 49.5335 42.5509 49.0608 43.3034L49.0141 43.3833V43.4765C49.0075 43.6829 48.8743 48.4974 48.8743 48.8903C48.8743 49.3764 49.114 49.7027 49.1407 49.7359L49.2405 49.8691ZM55.1737 48.6505C53.4224 49.0035 51.5512 49.1899 49.6001 49.2032C49.5668 49.1233 49.5402 49.0168 49.5402 48.8903C49.5402 48.5373 49.6601 44.2623 49.6734 43.5897C50.1595 42.7973 50.5257 41.925 50.7588 40.9994C51.0784 39.7475 51.2316 38.5222 51.2249 37.3502C53.1161 38.2359 54.6476 38.9817 55.8929 39.6143C55.8529 40.5199 55.5533 41.592 55.5466 41.6053C55.5333 41.6653 55.1005 44.3022 55.1005 48.2443C55.1005 48.3908 55.1271 48.5307 55.167 48.6505H55.1737Z" fill="black"/>
<path d="M50.0801 49.8754L49.6739 49.3427C49.6739 49.3427 49.5407 49.1496 49.5407 48.8966C49.5407 48.517 49.6739 43.556 49.6805 43.5028L49.7138 42.2842L49.0679 43.323C47.4165 45.9599 44.5265 47.2984 42.369 47.6646C40.2048 48.0375 35.7167 48.4038 32.487 48.0509L29.8634 47.7645L32.3339 48.6901C32.4537 48.7367 35.4103 49.7889 49.4009 49.8754H50.0801ZM48.9813 44.5749C48.9414 46.0731 48.8748 48.6235 48.8748 48.8966C48.8748 49.0098 48.8881 49.1096 48.9081 49.2029C43.7607 49.1629 40.1782 48.9898 37.7077 48.7967C39.5922 48.7034 41.3502 48.5103 42.4822 48.3172C44.5198 47.9643 47.1768 46.799 48.988 44.5682L48.9813 44.5749Z" fill="black"/>
<path d="M55.5142 49.2639L55.7273 49.2173C60.615 48.1452 63.6182 45.9677 63.6182 44.8823C63.6182 43.697 62.313 42.4518 59.11 40.5939L58.9902 40.5273L55.5808 41.433L55.5475 41.6461C55.5475 41.6461 55.1146 44.303 55.1146 48.2518C55.1146 48.6913 55.361 49.0508 55.3943 49.0908L55.5208 49.2706L55.5142 49.2639ZM58.8903 41.2399C61.6604 42.858 62.9523 44.0167 62.9523 44.8823C62.9523 45.3018 60.7215 47.3861 55.8338 48.5115C55.8005 48.4316 55.7739 48.3383 55.7739 48.2451C55.7739 44.9889 56.0669 42.6516 56.1668 41.959L58.8903 41.2399Z" fill="black"/>
<path d="M36.4695 24.332C37.4217 24.8381 38.6936 25.524 40.3517 26.4363C40.6647 26.6094 40.971 26.7892 41.264 26.9756C41.3439 26.8558 41.4438 26.7626 41.5636 26.696C42.0964 26.4829 43.8943 27.0622 46.6777 28.1942C43.0819 24.7782 36.4695 24.3387 36.4695 24.3387V24.332Z" fill="black"/>
<path d="M48.1761 29.1598L46.9043 27.9479C43.2618 24.4919 36.7693 24.0191 36.4896 23.9991L34.9381 23.8926L36.3165 24.6251C37.2687 25.1311 38.5339 25.817 40.1987 26.7226C40.505 26.8891 40.8046 27.0689 41.091 27.2487L41.364 27.4218L41.5438 27.1555C41.5971 27.0756 41.657 27.0156 41.7302 26.9823C41.9633 26.8891 43.0221 27.0623 46.558 28.5006L48.1895 29.1598H48.1761ZM38.2343 24.9047C39.8657 25.1844 42.3295 25.7771 44.4471 26.9823C42.5293 26.3031 41.8168 26.2365 41.4372 26.3897C41.3507 26.4363 41.2708 26.4896 41.2042 26.5495C40.9778 26.4097 40.7514 26.2765 40.5116 26.15C39.646 25.6772 38.8935 25.2643 38.2343 24.9114V24.9047Z" fill="black"/>
<path d="M55.5205 32.4033L55.354 31.7308C55.3207 31.5909 51.7981 18.0266 40.611 15.343C40.2581 15.2764 39.9052 15.2498 39.5389 15.2631C38.0607 15.2964 36.4558 15.8957 35.0375 16.9478L34.4249 17.4006L35.1707 17.5405C36.023 17.7003 37.801 18.0399 41.1038 20.5836C44.3734 23.1007 47.0236 28.5611 47.0503 28.6144L47.1036 28.6876L47.2234 28.7808C48.9081 29.4734 50.9458 30.3657 52.7237 31.1381C53.4829 31.4711 54.2087 31.7973 54.8879 32.1103L55.5205 32.4033ZM39.6788 15.9223C39.9518 15.9223 40.2182 15.9423 40.4712 15.9889C49.8138 18.233 53.6294 28.4412 54.5017 31.2047C54.0156 30.985 53.5095 30.7585 52.9901 30.5321C51.1655 29.7331 49.2477 28.9007 47.5897 28.2082C47.2833 27.5889 44.693 22.5014 41.51 20.0509C38.8531 18.0066 37.1284 17.334 36.063 17.0544C37.2016 16.3485 38.4202 15.949 39.5589 15.9223C39.5989 15.9223 39.6388 15.9223 39.6854 15.9223H39.6788Z" fill="black"/>
<path d="M33.0592 23.0131L31.7408 22.3539C32.5865 20.3229 33.8517 18.6448 35.4298 17.4795C36.7417 16.5073 38.2066 15.9546 39.5518 15.9213V15.2554C36.9481 15.2155 32.5665 15.9812 31.2014 16.5006C26.5601 18.1121 24.882 22.294 24.8088 22.4737L24.6157 22.9732L25.155 22.9199C27.2793 22.7201 29.1904 22.6868 30.8485 22.8067L30.8351 22.8467H31.3013L33.0592 23.0131ZM28.8441 22.0742C27.8519 22.0742 26.7931 22.1208 25.6678 22.2074C26.2604 21.0687 27.9984 18.3119 31.4278 17.1199C32.1936 16.8336 34.2512 16.3874 36.3355 16.1277C35.8893 16.3541 35.4565 16.6272 35.037 16.9401C33.3522 18.1854 31.9938 19.9899 31.1015 22.1541C30.3957 22.0942 29.6365 22.0675 28.8441 22.0675V22.0742Z" fill="black"/>
</svg>
