<svg width="67" height="67" viewBox="0 0 67 67" fill="none" xmlns="http://www.w3.org/2000/svg">
<path d="M16.6894 48.9235C17.6416 48.9235 19.353 48.4973 19.353 47.645C19.353 47.3054 19.2531 47.1455 19.1599 47.0124C19.1133 46.9524 19.0999 46.9325 19.0999 46.7793C19.0999 46.6395 19.7126 46.0801 22.5626 46.0801C23.8078 46.0801 24.9665 46.2466 26.1984 46.4197C27.6434 46.6261 29.2882 46.8592 31.3591 46.8592C34.8351 46.8592 41.6672 45.9136 45.2165 42.3644C46.9411 40.6397 47.8135 38.4755 47.8135 35.9252C47.8135 35.7254 47.7935 35.499 47.7469 35.2593L47.7202 35.0861L46.4484 34.5001C44.9235 33.8009 43.7182 33.2416 43.1455 32.9553C42.3997 32.5823 41.6739 31.397 41.301 29.9387C40.9947 28.7401 41.008 27.6547 41.3409 27.1753L41.5407 26.8889L41.2477 26.7025C40.9481 26.516 40.6418 26.3296 40.3221 26.1564C38.6574 25.2441 37.3922 24.5583 36.4333 24.0522C35.0016 23.2931 34.2691 22.9268 33.9561 22.7737C33.7497 22.6738 33.53 22.5939 33.3102 22.5339C32.904 22.4341 32.2048 22.2942 31.1793 22.1943L31.0994 22.8536C31.4923 22.9068 34.9949 23.4928 36.4399 26.789C37.8783 30.0719 38.3377 35.166 35.3146 39.6142C32.7975 43.3166 28.9219 43.7361 24.0143 44.2555C23.395 44.3221 22.7557 44.3887 22.1031 44.4686C20.2519 44.6884 18.4673 44.9547 16.7427 45.2144C13.1735 45.7472 10.0837 46.2133 8.71859 45.8337L8.49218 46.4597C8.9117 46.6528 9.37783 46.8392 9.87725 47.0124C13.4997 48.2842 15.0646 48.757 16.0634 48.8902C16.3032 48.9168 16.5096 48.9302 16.7094 48.9302L16.6894 48.9235ZM22.5493 45.4142C19.1399 45.4142 18.4207 46.16 18.4207 46.7793C18.4207 47.1189 18.5206 47.2787 18.6138 47.4119C18.6604 47.4718 18.6738 47.4918 18.6738 47.645C18.6138 47.8381 17.635 48.2576 16.6761 48.2576C16.5029 48.2576 16.3232 48.2509 16.1101 48.2243C15.2377 48.1111 13.7994 47.6849 10.7363 46.6195C12.3211 46.5396 14.4054 46.2333 16.8093 45.8737C18.5273 45.614 20.3052 45.3476 22.1498 45.1345C22.7957 45.0613 23.4349 44.988 24.0542 44.9214C29.1284 44.3754 33.1437 43.9492 35.834 39.9871C39.0103 35.3192 38.5242 29.972 37.0193 26.5227C36.6197 25.6104 36.0803 24.8846 35.4877 24.3186C35.6741 24.4184 35.8739 24.525 36.087 24.6382C37.0392 25.1443 38.3045 25.8301 39.9692 26.7358C40.1823 26.8556 40.3954 26.9755 40.6018 27.102C40.3155 27.7945 40.3221 28.88 40.6351 30.1052C40.968 31.4104 41.7205 33.0019 42.8259 33.5546C43.4052 33.8476 44.6172 34.4003 46.1487 35.1061L47.101 35.5456C47.1209 35.6854 47.1276 35.812 47.1276 35.9318C47.1276 38.3357 46.3418 40.2868 44.7237 41.9049C41.3276 45.301 34.7153 46.2066 31.3392 46.2066C29.3148 46.2066 27.7699 45.9869 26.2783 45.7738C25.0264 45.594 23.8411 45.4275 22.5493 45.4275V45.4142Z" fill="black"/>
<path d="M10.0842 46.6267C11.749 46.6267 14.073 46.2805 16.8165 45.8676C18.5345 45.6079 20.3124 45.3416 22.1569 45.1285C22.8029 45.0552 23.4421 44.982 24.0614 44.9154C29.1356 44.3693 33.1509 43.9432 35.8412 39.9811C39.0175 35.3131 38.5314 29.966 37.0265 26.5166C35.435 22.8875 31.5994 22.2482 31.1732 22.1883H31.1066C29.342 22.0151 27.2311 22.0418 24.8738 22.2615C23.9349 22.3481 22.9494 22.468 21.9505 22.6145C13.9731 23.7864 10.537 24.6854 8.32625 26.157C6.0289 27.6886 3.35199 31.4309 3.35199 36.9512C3.35199 42.1719 4.74371 44.7489 8.48606 46.4536C8.9189 46.5735 9.45827 46.6267 10.1042 46.6267H10.0842ZM28.6162 22.741C29.4885 22.741 30.3075 22.7743 31.0667 22.8475C31.4662 22.9008 34.9688 23.4868 36.4138 26.783C37.8522 30.0659 38.3116 35.16 35.2885 39.6082C32.7714 43.3106 28.8958 43.7301 23.9882 44.2495C23.3689 44.3161 22.7296 44.3827 22.077 44.4626C20.2258 44.6823 18.4412 44.9487 16.7166 45.2084C13.1407 45.7411 10.0576 46.2072 8.69249 45.8277C5.28309 44.2695 3.99791 41.8589 3.99791 36.9512C3.99791 31.6973 6.52166 28.1547 8.67917 26.7097C10.7701 25.318 14.2661 24.4124 22.0304 23.2737C23.0226 23.1272 23.9948 23.0073 24.9204 22.9208C26.2322 22.8009 27.4708 22.7343 28.6095 22.7343L28.6162 22.741Z" fill="black"/>
<path d="M16.0836 48.5504V50.0553C16.7762 50.7478 17.6352 51.0009 18.4942 51.0009C19.3532 51.0009 20.8248 50.6546 21.3376 49.9687C21.8503 49.2829 21.7704 46.6925 21.7704 46.6925C23.6682 46.6925 26.9444 47.0388 30.1341 47.9844C30.7334 48.1642 31.4459 48.2907 32.225 48.3772C35.5878 48.7435 40.1692 48.3373 42.1935 47.9844C44.1779 47.6448 47.3076 46.3729 49.1188 43.4896C49.585 42.7437 49.9645 41.8914 50.2109 40.9192C50.5705 39.5008 50.717 38.1357 50.6504 36.8173C49.525 36.2912 48.4196 35.7785 47.3942 35.3057C47.4341 35.5321 47.4541 35.7385 47.4541 35.9183C47.4541 37.7295 47.0213 40.0535 44.957 42.1245C41.5942 45.4872 35.1283 46.5194 31.3394 46.5194C27.5504 46.5194 25.3063 45.7403 22.5495 45.7403C19.7927 45.7403 18.7539 46.2597 18.7539 46.7724C18.7539 47.2852 19.0136 47.1187 19.0136 47.6314C19.0136 48.1442 17.6352 48.577 16.6829 48.577C16.4965 48.577 16.3034 48.5637 16.077 48.5371L16.0836 48.5504Z" fill="black"/>
<path d="M18.494 51.3334C19.4196 51.3334 20.9977 50.9739 21.6037 50.1681C22.0698 49.5422 22.1165 47.8308 22.1098 47.0317C23.9876 47.0717 27.0508 47.418 30.0406 48.3103C30.5867 48.4701 31.2526 48.6033 32.0117 48.6898L32.1915 48.7098C35.481 49.0694 40.0558 48.6965 42.2532 48.3169C44.5506 47.924 47.6337 46.4924 49.405 43.669C49.9177 42.8566 50.2973 41.9576 50.537 41.0054C50.9032 39.5604 51.0564 38.1487 50.9831 36.8035L50.9698 36.6038L50.79 36.5172C49.6647 35.9911 48.5526 35.4784 47.5338 35.0056L46.9611 34.7393L47.0677 35.3652C47.101 35.5716 47.1209 35.7581 47.1209 35.9179C47.1209 38.3218 46.3352 40.2729 44.717 41.891C41.321 45.2871 34.7086 46.1927 31.3325 46.1927C29.3082 46.1927 27.7633 45.973 26.2717 45.7599C25.0198 45.5801 23.8345 45.4136 22.5426 45.4136C19.1332 45.4136 18.4141 46.1594 18.4141 46.7787C18.4141 47.1183 18.5139 47.2781 18.6072 47.4113C18.6538 47.4712 18.6671 47.4912 18.6671 47.6444C18.6072 47.8375 17.6283 48.257 16.6694 48.257C16.4963 48.257 16.3165 48.2503 16.1034 48.2237L15.7305 48.1771V50.1948L15.8304 50.2946C16.5163 50.9805 17.4285 51.3401 18.4807 51.3401L18.494 51.3334ZM21.7702 46.3592H21.4239L21.4372 46.7055C21.4705 47.6577 21.3973 49.3357 21.071 49.7686C20.6715 50.3013 19.3929 50.6675 18.494 50.6675C17.6616 50.6675 16.9624 50.4145 16.4164 49.9084V48.9096C16.5096 48.9096 16.5962 48.9162 16.6894 48.9162C17.6416 48.9162 19.353 48.4901 19.353 47.6377C19.353 47.2981 19.2531 47.1383 19.1599 47.0051C19.1133 46.9452 19.0999 46.9252 19.0999 46.772C19.0999 46.6322 19.7126 46.0729 22.5626 46.0729C23.8078 46.0729 24.9665 46.2393 26.1984 46.4125C27.6434 46.6189 29.2882 46.8519 31.3591 46.8519C34.8351 46.8519 41.6672 45.9064 45.2165 42.3571C46.9411 40.6325 47.8135 38.4683 47.8135 35.9179C47.8135 35.8979 47.8135 35.8713 47.8135 35.8513C48.6259 36.2242 49.4849 36.6238 50.3505 37.0299C50.3905 38.2485 50.244 39.5271 49.911 40.8322C49.6846 41.7179 49.3317 42.5569 48.8589 43.3094C47.2075 45.9463 44.3175 47.2848 42.16 47.651C40.0358 48.0173 35.6741 48.3769 32.4579 48.0572L32.4445 48.0372H32.2381C31.479 47.9507 30.7931 47.8242 30.2404 47.6577C26.9908 46.6921 23.6547 46.3525 21.7835 46.3525L21.7702 46.3592Z" fill="black"/>
<path d="M63.396 44.8949L63.6357 37.6299L63.6224 37.5766C63.1496 35.9319 60.4727 34.0607 54.9524 31.5036C54.2666 31.184 53.5341 30.8577 52.7749 30.5248C50.9437 29.719 49.0193 28.88 47.3479 28.1941L46.5887 27.8812C42.8331 26.3562 41.7277 26.1831 41.2283 26.3829C41.0285 26.4894 40.8953 26.616 40.7821 26.7824C40.336 27.435 40.2827 28.6669 40.6489 30.0919C40.9819 31.3971 41.7343 32.9886 42.8397 33.5413C43.4191 33.8343 44.631 34.387 46.1626 35.0928L47.2746 35.6056C48.2934 36.0784 49.4055 36.5911 50.5242 37.1172C52.735 38.156 54.4863 39.0017 55.8714 39.7075C56.4973 40.0271 57.07 40.3268 57.5694 40.6065C57.9223 40.7996 58.2486 40.986 58.5616 41.1658C61.4116 42.8239 62.7434 44.0026 62.7434 44.8815L63.4093 44.8949H63.396ZM62.9632 37.7165L62.7767 43.4565C62.1042 42.6508 60.8523 41.7385 58.8879 40.5998C58.5749 40.42 58.242 40.2269 57.8824 40.0271C57.3763 39.7475 56.797 39.4412 56.1644 39.1215C54.7726 38.409 53.0213 37.5633 50.7972 36.5179C49.6719 35.9918 48.5598 35.4791 47.541 35.0063L46.4289 34.4935C44.904 33.7943 43.6987 33.235 43.1261 32.9486C42.3803 32.5757 41.6544 31.3904 41.2815 29.9321C40.9752 28.7335 40.9885 27.6481 41.3215 27.1686C41.3748 27.0887 41.4414 27.0288 41.5079 26.9889C41.741 26.8956 42.7998 27.0688 46.3357 28.5071L47.0083 28.7801C48.693 29.4727 50.7306 30.365 52.5086 31.1374C53.2677 31.4703 53.9935 31.7966 54.6728 32.1096C57.9556 33.6279 62.3705 35.852 62.9698 37.7098L62.9632 37.7165Z" fill="black"/>
<path d="M49.0189 49.8691H49.1853C51.4028 49.8691 53.5337 49.6494 55.5047 49.2165L55.9975 49.11L55.7045 48.6971C55.6645 48.6372 55.5513 48.4308 55.5513 48.2443C55.5513 44.3555 55.9708 41.7718 55.9775 41.7452C55.9842 41.7252 56.3438 40.44 56.3438 39.4079V39.2014L56.164 39.1082C54.7722 38.3957 53.0209 37.55 50.7968 36.5045L50.2907 36.2715L50.3174 36.8242C50.384 38.096 50.2375 39.4478 49.8912 40.8262C49.6648 41.7119 49.3119 42.5509 48.8391 43.3034L48.7925 43.3833V43.4765C48.7858 43.6829 48.6526 48.4974 48.6526 48.8903C48.6526 49.3764 48.8923 49.7027 48.919 49.7359L49.0189 49.8691ZM54.952 48.6505C53.2007 49.0035 51.3295 49.1899 49.3785 49.2032C49.3452 49.1233 49.3185 49.0168 49.3185 48.8903C49.3185 48.5373 49.4384 44.2623 49.4517 43.5897C49.9378 42.7973 50.3041 41.925 50.5371 40.9994C50.8567 39.7475 51.0099 38.5222 51.0032 37.3502C52.8944 38.2359 54.426 38.9817 55.6712 39.6143C55.6312 40.5199 55.3316 41.592 55.3249 41.6053C55.3116 41.6653 54.8788 44.3022 54.8788 48.2443C54.8788 48.3908 54.9054 48.5307 54.9454 48.6505H54.952Z" fill="black"/>
<path d="M49.8584 49.8754L49.4522 49.3427C49.4522 49.3427 49.319 49.1496 49.319 48.8966C49.319 48.517 49.4522 43.556 49.4589 43.5028L49.4922 42.2842L48.8462 43.323C47.1948 45.9599 44.3048 47.2984 42.1473 47.6646C39.9831 48.0375 35.495 48.4038 32.2654 48.0509L29.6417 47.7645L32.1122 48.6901C32.2321 48.7367 35.1887 49.7889 49.1792 49.8754H49.8584ZM48.7597 44.5749C48.7197 46.0731 48.6531 48.6235 48.6531 48.8966C48.6531 49.0098 48.6664 49.1096 48.6864 49.2029C43.539 49.1629 39.9565 48.9898 37.486 48.7967C39.3705 48.7034 41.1285 48.5103 42.2605 48.3172C44.2981 47.9643 46.9551 46.799 48.7663 44.5682L48.7597 44.5749Z" fill="black"/>
<path d="M55.2925 49.2639L55.5056 49.2173C60.3933 48.1452 63.3965 45.9677 63.3965 44.8823C63.3965 43.697 62.0913 42.4518 58.8884 40.5939L58.7685 40.5273L55.3591 41.433L55.3258 41.6461C55.3258 41.6461 54.893 44.303 54.893 48.2518C54.893 48.6913 55.1393 49.0508 55.1726 49.0908L55.2992 49.2706L55.2925 49.2639ZM58.6686 41.2399C61.4387 42.858 62.7306 44.0167 62.7306 44.8823C62.7306 45.3018 60.4998 47.3861 55.6121 48.5115C55.5788 48.4316 55.5522 48.3383 55.5522 48.2451C55.5522 44.9889 55.8452 42.6516 55.9451 41.959L58.6686 41.2399Z" fill="black"/>
<path d="M36.2478 24.332C37.2001 24.8381 38.4719 25.524 40.13 26.4363C40.443 26.6094 40.7493 26.7892 41.0423 26.9756C41.1222 26.8558 41.2221 26.7626 41.342 26.696C41.8747 26.4829 43.6726 27.0622 46.4561 28.1942C42.8602 24.7782 36.2478 24.3387 36.2478 24.3387V24.332Z" fill="black"/>
<path d="M47.9545 29.1598L46.6826 27.9479C43.0401 24.4919 36.5476 24.0191 36.2679 23.9991L34.7164 23.8926L36.0948 24.6251C37.047 25.1311 38.3122 25.817 39.977 26.7226C40.2833 26.8891 40.583 27.0689 40.8693 27.2487L41.1423 27.4218L41.3221 27.1555C41.3754 27.0756 41.4353 27.0156 41.5086 26.9823C41.7416 26.8891 42.8004 27.0623 46.3363 28.5006L47.9678 29.1598H47.9545ZM38.0126 24.9047C39.644 25.1844 42.1079 25.7771 44.2254 26.9823C42.3076 26.3031 41.5951 26.2365 41.2156 26.3897C41.129 26.4363 41.0491 26.4896 40.9825 26.5495C40.7561 26.4097 40.5297 26.2765 40.29 26.15C39.4243 25.6772 38.6718 25.2643 38.0126 24.9114V24.9047Z" fill="black"/>
<path d="M55.2988 32.4033L55.1324 31.7308C55.0991 31.5909 51.5765 18.0266 40.3894 15.343C40.0364 15.2764 39.6835 15.2498 39.3173 15.2631C37.839 15.2964 36.2342 15.8957 34.8158 16.9478L34.2032 17.4006L34.949 17.5405C35.8013 17.7003 37.5793 18.0399 40.8821 20.5836C44.1517 23.1007 46.802 28.5611 46.8286 28.6144L46.8819 28.6876L47.0017 28.7808C48.6865 29.4734 50.7241 30.3657 52.5021 31.1381C53.2612 31.4711 53.987 31.7973 54.6662 32.1103L55.2988 32.4033ZM39.4571 15.9223C39.7301 15.9223 39.9965 15.9423 40.2495 15.9889C49.5921 18.233 53.4077 28.4412 54.28 31.2047C53.7939 30.985 53.2878 30.7585 52.7684 30.5321C50.9439 29.7331 49.0261 28.9007 47.368 28.2082C47.0617 27.5889 44.4713 22.5014 41.2883 20.0509C38.6314 18.0066 36.9067 17.334 35.8413 17.0544C36.98 16.3485 38.1986 15.949 39.3372 15.9223C39.3772 15.9223 39.4172 15.9223 39.4638 15.9223H39.4571Z" fill="black"/>
<path d="M32.8376 23.0131L31.5191 22.3539C32.3648 20.3229 33.63 18.6448 35.2082 17.4795C36.52 16.5073 37.985 15.9546 39.3301 15.9213V15.2554C36.7264 15.2155 32.3448 15.9812 30.9797 16.5006C26.3384 18.1121 24.6603 22.294 24.5871 22.4737L24.394 22.9732L24.9334 22.9199C27.0576 22.7201 28.9687 22.6868 30.6268 22.8067L30.6135 22.8467H31.0796L32.8376 23.0131ZM28.6224 22.0742C27.6302 22.0742 26.5715 22.1208 25.4461 22.2074C26.0387 21.0687 27.7767 18.3119 31.2061 17.1199C31.9719 16.8336 34.0295 16.3874 36.1138 16.1277C35.6676 16.3541 35.2348 16.6272 34.8153 16.9401C33.1306 18.1854 31.7721 19.9899 30.8798 22.1541C30.174 22.0942 29.4149 22.0675 28.6224 22.0675V22.0742Z" fill="black"/>
<rect x="9.84467" y="29.6328" width="3.32949" height="9.98847" rx="1.66475" stroke="black" stroke-width="0.665898"/>
<rect x="17.1699" y="28.3007" width="3.32949" height="9.98847" rx="1.66475" stroke="black" stroke-width="0.665898"/>
<rect x="24.4941" y="26.9697" width="3.32949" height="9.98847" rx="1.66475" stroke="black" stroke-width="0.665898"/>
</svg>
