<svg width="64" height="64" viewBox="0 0 64 64" fill="none" xmlns="http://www.w3.org/2000/svg">
<path d="M38.1606 46.8368C43.0214 46.8368 46.9618 42.8964 46.9618 38.0356C46.9618 33.1748 43.0214 29.2344 38.1606 29.2344C33.2998 29.2344 29.3594 33.1748 29.3594 38.0356C29.3594 42.8964 33.2998 46.8368 38.1606 46.8368Z" stroke="#292D32" strokeWidth="2" stroke-linecap="round" stroke-linejoin="round"/>
<path d="M34.0622 30.2457L26.7959 17.1636L17.0371 36.2751H29.5372" stroke="#292D32" strokeWidth="2" stroke-linecap="round" stroke-linejoin="round"/>
<path d="M51.6503 51.3529L61.6295 61.3321" stroke="#292D32" strokeWidth="2" stroke-linecap="round" stroke-linejoin="round"/>
<path d="M12.3497 12.6466L2.37053 2.66742" stroke="#292D32" strokeWidth="2" stroke-linecap="round" stroke-linejoin="round"/>
<path d="M12.3497 51.3529L2.37053 61.3321" stroke="#292D32" strokeWidth="2" stroke-linecap="round" stroke-linejoin="round"/>
<path d="M51.6503 12.6466L61.6295 2.66742" stroke="#292D32" strokeWidth="2" stroke-linecap="round" stroke-linejoin="round"/>
<path d="M61.6309 44.7439L61.6309 19.2573" stroke="#292D32" strokeWidth="2" stroke-linecap="round" stroke-linejoin="round"/>
<path d="M18.2595 61.332L46.068 61.332" stroke="#292D32" strokeWidth="2" stroke-linecap="round" stroke-linejoin="round"/>
<path d="M2.36914 44.7439L2.36915 19.2573" stroke="#292D32" strokeWidth="2" stroke-linecap="round" stroke-linejoin="round"/>
<path d="M18.2595 2.66748L46.068 2.66749" stroke="#292D32" strokeWidth="2" stroke-linecap="round" stroke-linejoin="round"/>
<path d="M54.0645 61.3327H61.631V53.7661" stroke="#292D32" strokeWidth="2" stroke-linecap="round" stroke-linejoin="round"/>
<path d="M9.9375 2.66734L2.37095 2.66734L2.37095 10.2339" stroke="#292D32" strokeWidth="2" stroke-linecap="round" stroke-linejoin="round"/>
<path d="M9.9375 61.3322H2.37095V53.7656" stroke="#292D32" strokeWidth="2" stroke-linecap="round" stroke-linejoin="round"/>
<path d="M54.0645 2.66734L61.631 2.66734L61.631 10.2339" stroke="#292D32" strokeWidth="2" stroke-linecap="round" stroke-linejoin="round"/>
</svg>
