<svg width="30" height="32" viewBox="0 0 30 32" fill="none" xmlns="http://www.w3.org/2000/svg">
<path d="M26.25 17H23.75C22.3693 17 21.25 18.1193 21.25 19.5V22C21.25 23.3807 22.3693 24.5 23.75 24.5V24.5C25.1307 24.5 26.25 23.3807 26.25 22V17C26.25 10.7868 21.2132 5.75 15 5.75C8.7868 5.75 3.75 10.7868 3.75 17V22C3.75 23.3807 4.86929 24.5 6.25 24.5V24.5C7.63071 24.5 8.75 23.3807 8.75 22V19.5C8.75 18.1193 7.63071 17 6.25 17H3.75" stroke="#292D32" stroke-width="1.25"/>
<path d="M26.25 19.5V24.5C26.25 24.5 26.25 28.25 23.75 28.25C21.25 28.25 17.5 28.25 17.5 28.25" stroke="#292D32" stroke-width="1.25" stroke-linejoin="round"/>
</svg>
