<svg width="31" height="31" viewBox="0 0 31 31" fill="none" xmlns="http://www.w3.org/2000/svg">
<path d="M9.57568 14.3037H12.448M2.17625 26.9394L1.58266 28.7403C1.4494 29.1446 1.75054 29.561 2.17625 29.561H29.8231C30.2488 29.561 30.55 29.1446 30.4167 28.7403L29.8231 26.9394" stroke="black" stroke-width="0.9375" stroke-linecap="round"/>
<path d="M19.5977 14.3027H22.4124" stroke="black" stroke-width="0.9375" stroke-linecap="round"/>
<path d="M5.67976 16.8576C7.01305 16.8576 8.0939 15.7767 8.0939 14.4434C8.0939 13.1101 7.01305 12.0293 5.67976 12.0293C4.34647 12.0293 3.26562 13.1101 3.26562 14.4434C3.26562 15.7767 4.34647 16.8576 5.67976 16.8576Z" stroke="black" stroke-width="0.9375" stroke-linecap="round" stroke-linejoin="round"/>
<path d="M26.2423 16.8576C27.5756 16.8576 28.6564 15.7767 28.6564 14.4434C28.6564 13.1101 27.5756 12.0293 26.2423 12.0293C24.909 12.0293 23.8281 13.1101 23.8281 14.4434C23.8281 15.7767 24.909 16.8576 26.2423 16.8576Z" stroke="black" stroke-width="0.9375" stroke-linecap="round" stroke-linejoin="round"/>
<path d="M16.0015 6.58402C17.1953 6.58402 18.1631 5.61622 18.1631 4.42238C18.1631 3.22854 17.1953 2.26074 16.0015 2.26074C14.8076 2.26074 13.8398 3.22854 13.8398 4.42238C13.8398 5.61622 14.8076 6.58402 16.0015 6.58402Z" stroke="black" stroke-width="0.9375" stroke-linecap="round" stroke-linejoin="round"/>
<path d="M9.90651 21.0812C9.90651 19.9607 9.46141 18.8861 8.66912 18.0938C7.87682 17.3016 6.80224 16.8564 5.68177 16.8564C4.5613 16.8564 3.48672 17.3016 2.69443 18.0938C1.90214 18.8861 1.45703 19.9607 1.45703 21.0812V22.8918H3.26763L3.87117 27.7201H7.49238L8.09591 22.8918H9.90651V21.0812Z" stroke="black" stroke-width="0.9375" stroke-linecap="round" stroke-linejoin="round"/>
<path d="M30.5237 21.0812C30.5237 19.9607 30.0786 18.8861 29.2863 18.0938C28.494 17.3016 27.4194 16.8564 26.299 16.8564C25.1785 16.8564 24.1039 17.3016 23.3116 18.0938C22.5193 18.8861 22.0742 19.9607 22.0742 21.0812V22.8918H23.8848L24.4884 27.7201H28.1096L28.7131 22.8918H30.5237V21.0812Z" stroke="black" stroke-width="0.9375" stroke-linecap="round" stroke-linejoin="round"/>
<path d="M19.7845 10.3669C19.7845 9.36357 19.3859 8.40139 18.6765 7.69196C17.9671 6.98254 17.0049 6.58398 16.0016 6.58398C14.9983 6.58398 14.0362 6.98254 13.3267 7.69196C12.6173 8.40139 12.2188 9.36357 12.2188 10.3669V11.9881H13.84L14.3804 16.3114H17.6228L18.1633 11.9881H19.7845V10.3669Z" stroke="black" stroke-width="0.9375" stroke-linecap="round" stroke-linejoin="round"/>
</svg>
