<svg width="80" height="80" viewBox="0 0 80 80" fill="none" xmlns="http://www.w3.org/2000/svg">
<path d="M3.33398 72.1606L15.7811 50.6391C16.3769 49.609 17.4767 48.9746 18.6666 48.9746H61.3347C62.5247 48.9746 63.6244 49.609 64.2202 50.6391L76.6673 72.1606H3.33398Z" stroke="white" stroke-width="2.66667" stroke-linecap="round" stroke-linejoin="round"/>
<path d="M10.6968 59.4189H69.2962" stroke="white" stroke-width="2.66667" stroke-linecap="round"/>
<path d="M39.9995 48.9717V72.1616" stroke="white" stroke-width="2.66667" stroke-linecap="round"/>
<path d="M11.0254 22.3019V23.9538C11.0254 29.8378 14.8952 35.0212 20.5366 36.6934C25.4287 38.1435 30.7228 36.9647 34.5375 33.5758L37.1972 31.2131C38.7972 29.7917 41.2064 29.7882 42.8106 31.205L45.5408 33.6163C49.3504 36.9809 54.6251 38.1444 59.4967 36.6947C65.1199 35.0213 68.9751 29.8517 68.9751 23.9848V22.309C68.9751 14.2763 62.8414 7.57323 54.8404 6.86203L50.1562 6.44565C42.8106 6.06377 42.916 6.08398 40.131 6.08398L39.8695 6.08417C37.0846 6.08417 37.19 6.06426 29.8443 6.44614L25.1601 6.86252C17.1591 7.57372 11.0254 14.2768 11.0254 22.3095" stroke="white" stroke-width="2.66667"/>
<path d="M53.6983 17.4151L49.3758 17.0309C46.3277 16.7599 43.2707 16.6214 40.2136 16.6154C37.1564 16.6214 34.0993 16.7598 31.0512 17.0307L26.7287 17.415" stroke="white" stroke-width="2.66667" stroke-linecap="round"/>
</svg>
