<svg width="39" height="39" viewBox="0 0 39 39" fill="none" xmlns="http://www.w3.org/2000/svg">
<path d="M27.8788 16.9275C28.9051 16.9275 29.7371 16.0955 29.7371 15.0692C29.7371 14.0429 28.9051 13.2109 27.8788 13.2109C26.8525 13.2109 26.0205 14.0429 26.0205 15.0692C26.0205 16.0955 26.8525 16.9275 27.8788 16.9275Z" stroke="white" stroke-width="1.5" stroke-linecap="round" stroke-linejoin="round"/>
<path d="M19.4999 12.7468C20.5262 12.7468 21.3582 11.9149 21.3582 10.8886C21.3582 9.86226 20.5262 9.03027 19.4999 9.03027C18.4736 9.03027 17.6416 9.86226 17.6416 10.8886C17.6416 11.9149 18.4736 12.7468 19.4999 12.7468Z" stroke="white" stroke-width="1.5" stroke-linecap="round" stroke-linejoin="round"/>
<path d="M11.1202 16.9275C10.0939 16.9275 9.26195 16.0955 9.26195 15.0692C9.26195 14.0429 10.0939 13.2109 11.1202 13.2109C12.1465 13.2109 12.9785 14.0429 12.9785 15.0692C12.9785 16.0955 12.1465 16.9275 11.1202 16.9275Z" stroke="white" stroke-width="1.5" stroke-linecap="round" stroke-linejoin="round"/>
<path d="M31.1309 20.1797C31.1309 19.3172 30.7883 18.4901 30.1785 17.8802C29.5686 17.2704 28.7414 16.9277 27.8789 16.9277C27.0165 16.9277 26.1893 17.2704 25.5794 17.8802C24.9696 18.4901 24.627 19.3172 24.627 20.1797V21.5734H26.0207L26.4852 25.29H29.2727L29.7372 21.5734H31.1309V20.1797Z" stroke="white" stroke-width="1.5" stroke-linecap="round" stroke-linejoin="round"/>
<path d="M22.752 15.9981C22.752 15.1356 22.4094 14.3084 21.7996 13.6986C21.1897 13.0887 20.3625 12.7461 19.5 12.7461C18.6376 12.7461 17.8104 13.0887 17.2005 13.6986C16.5907 14.3084 16.248 15.1356 16.248 15.9981V17.3918H17.6418L18.1063 21.1084H20.8938L21.3583 17.3918H22.752V15.9981Z" stroke="white" stroke-width="1.5" stroke-linecap="round" stroke-linejoin="round"/>
<path d="M7.86808 20.1797C7.86808 19.3172 8.2107 18.4901 8.82057 17.8802C9.43043 17.2704 10.2576 16.9277 11.1201 16.9277C11.9826 16.9277 12.8097 17.2704 13.4196 17.8802C14.0295 18.4901 14.3721 19.3172 14.3721 20.1797V21.5734H12.9784L12.5138 25.29H9.72636L9.26179 21.5734H7.86808V20.1797Z" stroke="white" stroke-width="1.5" stroke-linecap="round" stroke-linejoin="round"/>
<path d="M4.90182 22.2529C4.29497 22.797 3.96387 23.3846 3.96387 23.9974C3.96387 26.8063 10.9192 29.0834 19.499 29.0834C28.0788 29.0834 35.0341 26.8063 35.0341 23.9974C35.0341 23.4097 34.7295 22.8452 34.1692 22.3199" stroke="white" stroke-width="1.5" stroke-linecap="round" stroke-linejoin="round"/>
<circle cx="19.4997" cy="19.4997" r="18.7175" stroke="white" stroke-width="1.5"/>
</svg>
