<svg width="61" height="60" viewBox="0 0 61 60" fill="none" xmlns="http://www.w3.org/2000/svg">
<path d="M24.2344 34.5004L28.2779 37.6254C28.8053 38.1504 29.9858 38.4003 30.7643 38.4003H35.7371C37.2943 38.4003 39.0021 37.2254 39.404 35.6754L42.5434 26.2003C43.1964 24.3753 42.016 22.8253 40.057 22.8253H34.833C34.0544 22.8253 33.4015 22.1753 33.527 21.2753L34.18 17.1253C34.4312 15.9503 33.6526 14.6502 32.4722 14.2752C31.4173 13.8752 30.1113 14.4002 29.609 15.1752L24.2595 23.1003" stroke="#292D32" stroke-width="2" stroke-miterlimit="10"/>
<path d="M17.582 34.501V21.7758C17.582 19.9508 18.3606 19.3008 20.194 19.3008H21.5C23.3334 19.3008 24.112 19.9508 24.112 21.7758V34.501C24.112 36.326 23.3334 36.976 21.5 36.976H20.194C18.3606 36.976 17.582 36.326 17.582 34.501Z" stroke="#292D32" stroke-width="2" stroke-linecap="round" stroke-linejoin="round"/>
<path d="M45.208 47.1494H43.2992C41.29 47.1494 39.3812 47.9243 37.9748 49.3243L33.6801 53.5495C31.7211 55.4745 28.5315 55.4745 26.5725 53.5495L22.2778 49.3243C20.8713 47.9243 18.9375 47.1494 16.9534 47.1494H15.0697C10.9006 47.1494 7.53516 43.8244 7.53516 39.7244V12.4493C7.53516 8.34934 10.9006 5.02441 15.0697 5.02441H45.208C49.3771 5.02441 52.7425 8.34934 52.7425 12.4493V39.7244C52.7425 43.7994 49.3771 47.1494 45.208 47.1494Z" stroke="#292D32" stroke-width="2" stroke-miterlimit="10" stroke-linecap="round" stroke-linejoin="round"/>
</svg>
