<svg width="51" height="56" viewBox="0 0 51 56" fill="none" xmlns="http://www.w3.org/2000/svg">
<path d="M38.9356 31.1649L36.4688 25.7213C36.0713 24.8438 35.1923 24.2764 34.2281 24.2764C33.8789 24.2764 33.5369 24.3517 33.2147 24.4968L27.5756 27.0518C26.3426 27.6108 25.7929 29.0721 26.3511 30.3059L28.9061 35.9443C29.3043 36.8218 30.1826 37.3885 31.1468 37.3885C31.4974 37.3885 31.8387 37.3146 32.1602 37.1681L37.7978 34.6131C38.398 34.3421 38.8546 33.8543 39.0857 33.2406C39.3175 32.6248 39.2947 31.9571 39.0238 31.3576L38.9356 31.1649ZM27.2606 29.8934C26.9285 29.161 27.2549 28.2934 27.9881 27.9606L33.6279 25.4063C33.8185 25.3196 34.0204 25.2755 34.2281 25.2755C34.8019 25.2755 35.3232 25.6125 35.5607 26.1338L37.8192 31.1215L29.5212 34.8819L27.2606 29.8934ZM38.152 32.8901C38.0147 33.2541 37.7431 33.5436 37.3882 33.705L31.7491 36.26C31.5571 36.3468 31.3545 36.3916 31.1475 36.3916C30.6711 36.3916 30.2338 36.1548 29.9614 35.7786L38.2067 32.0424C38.2729 32.3219 38.2551 32.6141 38.152 32.8901Z" fill="white"/>
<path d="M32.4912 28.7422C32.2053 28.7422 31.9273 28.8019 31.667 28.9207C31.1799 29.1411 30.8073 29.5386 30.6203 30.0385C30.4311 30.5377 30.4489 31.081 30.67 31.5674C30.9929 32.2807 31.7083 32.7422 32.4933 32.7422C32.7785 32.7422 33.0558 32.6825 33.3175 32.5637C34.3209 32.1079 34.7675 30.9203 34.3131 29.9162C33.9895 29.203 33.2748 28.7422 32.4912 28.7422ZM32.9058 31.6563C32.4115 31.8789 31.8007 31.6435 31.5803 31.1557C31.4693 30.9125 31.4601 30.6409 31.5547 30.3905C31.6492 30.1402 31.8348 29.9411 32.078 29.8302C32.211 29.7712 32.3483 29.7406 32.4912 29.7406C32.8837 29.7406 33.2428 29.9717 33.4043 30.3301C33.6325 30.8329 33.4099 31.4259 32.9058 31.6563Z" fill="white"/>
<path d="M45.238 11.4042C46.2186 11.4042 47.0158 10.6063 47.0158 9.6257C47.0158 8.64579 46.2186 7.84863 45.238 7.84863C44.2588 7.84863 43.4609 8.64579 43.4609 9.6257C43.4609 10.6063 44.2588 11.4042 45.238 11.4042ZM45.238 8.84632C45.6675 8.84632 46.0181 9.19619 46.0181 9.62499C46.0181 10.0552 45.6675 10.4051 45.238 10.4051C44.8085 10.4051 44.4593 10.0552 44.4593 9.62499C44.4593 9.1969 44.8078 8.84632 45.238 8.84632Z" fill="white"/>
<path d="M34.3162 7.555C34.5815 7.555 34.8716 7.52513 35.1695 7.48318C35.9496 8.259 37.017 8.71838 38.1591 8.71838C38.7407 8.71838 39.3082 8.60033 39.8458 8.36709C41.4643 7.66451 42.4236 6.06735 42.398 4.40406C43.3928 3.63749 44.052 2.79838 43.7349 2.0638C43.4554 1.41811 42.5722 1.21473 41.1223 1.44442C40.3443 0.683532 39.2869 0.233398 38.1555 0.233398C37.5745 0.233398 37.0078 0.350732 36.4702 0.583976C34.8289 1.29509 33.8696 2.92709 33.923 4.61526C32.8655 5.47002 32.4567 6.21882 32.724 6.83891C32.9502 7.3566 33.5475 7.555 34.3162 7.555ZM39.4483 7.45118C39.038 7.62895 38.6035 7.71998 38.1591 7.71998C37.5361 7.71998 36.9438 7.53793 36.4375 7.22078C37.3676 6.97473 38.3048 6.63269 39.0373 6.31482C39.7271 6.01544 40.5576 5.60229 41.332 5.1294C41.1237 6.1278 40.4538 7.01598 39.4483 7.45118ZM42.8147 2.44567C42.8247 2.57153 42.6348 2.86238 42.2159 3.24709C42.1697 3.09278 42.1157 2.93989 42.051 2.78771C41.9855 2.6398 41.9116 2.49829 41.8327 2.36033C42.4933 2.31126 42.7735 2.41082 42.8147 2.44567ZM36.8677 1.49918C37.2787 1.32069 37.7125 1.23038 38.1562 1.23038C39.4497 1.23038 40.6195 1.99838 41.1351 3.18451C41.2396 3.42771 41.3093 3.67731 41.3534 3.92833C40.697 4.38344 39.8053 4.89331 38.6405 5.3982C37.3989 5.93651 36.3656 6.24371 35.5628 6.40584C35.4156 6.20744 35.2833 5.99695 35.1823 5.76442C34.4712 4.12389 35.2279 2.21029 36.8677 1.49918ZM34.1199 5.77011C34.1626 5.90166 34.2103 6.03251 34.2664 6.16264C34.3255 6.29846 34.3937 6.4286 34.4641 6.55518C33.9991 6.57935 33.716 6.52815 33.6442 6.45349C33.6378 6.38735 33.7367 6.15055 34.1199 5.77011Z" fill="white"/>
<path d="M50.2205 46.2867C49.791 45.3359 48.8395 44.7236 47.797 44.7236C47.5211 44.7236 47.253 44.767 46.9927 44.8502C46.5241 43.8156 44.2663 38.8328 42.2141 34.3052L43.4535 33.7448C43.5915 33.6815 43.7209 33.6083 43.8468 33.5293C44.3453 33.8735 44.9412 34.1025 45.6665 34.0698C46.4594 34.0328 47.7849 33.6076 47.7394 31.1734C47.7081 29.5393 46.9031 28.2095 46.0093 26.8783C44.9533 25.3032 43.7237 23.9876 42.3101 22.8932L39.5431 16.7862C39.1591 15.94 38.4509 15.3078 37.6089 14.9928L35.9264 11.278C35.8717 11.1578 35.77 11.0632 35.6469 11.017C35.5225 10.9708 35.3853 10.9743 35.2651 11.0291L33.9189 11.6385C32.1753 9.21218 29.3415 7.71387 26.2837 7.71387C24.9433 7.71387 23.6391 7.9976 22.4103 8.5544C20.1227 9.59049 18.3769 11.455 17.4923 13.8045C16.8281 15.5695 16.7108 17.449 17.131 19.2445L15.9129 19.7971C15.7927 19.8511 15.6989 19.9521 15.6512 20.0758C15.605 20.1996 15.6093 20.3368 15.6647 20.4577L17.3429 24.1619C17.3408 24.1676 17.3373 24.1732 17.3351 24.1789C17.0123 25.038 17.0421 25.9724 17.4212 26.8086L20.0807 32.6788C19.9897 33.828 20.0231 34.9828 20.1803 36.1476L14.6144 30.4744L8.71148 24.4584C8.6681 24.415 8.61903 24.3844 8.56641 24.3603C8.55148 24.3532 8.53726 24.3468 8.52232 24.3425C8.47539 24.3254 8.42703 24.3148 8.37726 24.3126C8.37014 24.3119 8.36232 24.3098 8.3545 24.3098C8.30828 24.3098 8.26134 24.3155 8.21512 24.329C8.20659 24.3311 8.19806 24.3368 8.18952 24.3404C8.1753 24.3453 8.16179 24.3524 8.14828 24.3581C8.10348 24.3788 8.06152 24.4051 8.02312 24.4392C8.01743 24.4442 8.00961 24.4456 8.00463 24.452C8.0025 24.4541 8.0025 24.4563 7.99965 24.4591C7.9577 24.5011 7.92712 24.5501 7.90366 24.6013C7.89654 24.6156 7.89228 24.6312 7.8873 24.6461C7.8809 24.6646 7.87166 24.6824 7.86739 24.703C7.74437 25.2748 7.67539 25.8486 7.60926 26.4047C7.44286 27.7935 7.28499 29.1048 6.31148 30.0605C6.16997 30.1999 6.00997 30.3329 5.83717 30.4538C5.25477 30.8641 4.58206 31.1706 3.87023 31.4941C2.8825 31.9407 1.86206 32.4044 1.06846 33.1823C0.682322 33.562 0.385077 33.9795 0.158944 34.4573C0.0700552 34.6472 0.107744 34.8712 0.254233 35.0198L6.15646 41.0351C6.27094 41.1517 6.43521 41.2058 6.59592 41.178C6.75663 41.1517 6.8953 41.0472 6.96428 40.8993C7.1385 40.5288 7.36961 40.206 7.67041 39.9116C8.33743 39.2566 9.23485 38.8492 10.1849 38.4175C10.9081 38.089 11.797 37.7498 12.4569 37.284C12.6745 37.1354 13.1965 36.9676 13.1965 36.7919C13.1965 36.7905 13.1965 36.7905 13.1965 36.7905C14.6187 35.5901 14.4665 34.0399 14.6464 32.5409C14.6734 32.3204 14.6308 32.0972 14.6613 31.8739L20.5465 37.9062C20.5842 38.0634 20.6041 38.2198 20.6453 38.3784C21.0571 39.9279 21.5172 41.4099 22.7253 42.5107C24.0985 43.7601 25.114 43.6399 25.7653 43.258L28.6617 46.212C28.8551 46.4097 29.1694 46.4118 29.3664 46.2191C29.5627 46.0264 29.5662 45.71 29.3735 45.513L26.4971 42.5832C26.842 42.1231 27.0055 41.6196 27.0603 41.1133C27.2416 41.0657 27.4208 41.0074 27.595 40.9277L28.7143 40.42C30.8007 45.0266 33.1069 50.1146 33.5179 51.0234C32.5842 51.7636 32.2315 53.07 32.7456 54.2035C33.1758 55.1521 34.1259 55.7665 35.1698 55.7665C35.5481 55.7665 35.9165 55.6868 36.2649 55.529L39.6889 53.9766C40.336 53.6829 40.8295 53.156 41.0791 52.4904C41.3294 51.8262 41.3053 51.1044 41.0123 50.4573C40.8174 50.0257 40.5102 49.6694 40.139 49.4028L37.3252 43.1926C37.0912 42.7162 36.7797 41.7832 36.949 41.311C36.9888 41.2015 37.05 41.134 37.1517 41.0877C37.2533 41.0422 37.3437 41.0415 37.4532 41.0828C37.9197 41.2676 38.416 42.116 38.6265 42.6216L41.8244 49.6794C41.8599 49.7996 41.899 49.9155 41.9517 50.0307C42.3819 50.9814 43.3333 51.5951 44.3765 51.5951C44.7556 51.5951 45.1246 51.514 45.4724 51.3569L48.8949 49.8052C50.2311 49.2001 50.8263 47.6207 50.2205 46.2867ZM13.5136 32.4214C13.3472 33.8116 13.1901 35.1229 12.2151 36.0794C12.0736 36.218 11.9136 36.3517 11.7415 36.4726C11.1591 36.8836 10.4857 37.1887 9.77388 37.5116C8.78614 37.9603 7.76499 38.4218 6.9721 39.2012C6.75877 39.4109 6.57174 39.6321 6.4089 39.8696L1.22348 34.5839C1.37281 34.3357 1.55201 34.1089 1.7689 33.897C2.43592 33.242 3.33406 32.8353 4.2841 32.4036C5.00659 32.0758 5.75397 31.7359 6.41317 31.2708C6.63006 31.118 6.83059 30.9516 7.01121 30.7745C8.23503 29.5741 8.42134 28.0232 8.60197 26.5249C8.62757 26.3037 8.65459 26.0804 8.68517 25.8564L13.7184 30.9871C13.6274 31.4692 13.5698 31.9535 13.5136 32.4214ZM43.0411 32.8339L41.803 33.3949C40.9134 31.4301 40.0893 29.614 39.5076 28.3283C40.2116 29.1219 41.1538 30.2788 42.3015 31.8653C42.5141 32.1583 42.7623 32.5004 43.0596 32.8268C43.0532 32.8282 43.0475 32.831 43.0411 32.8339ZM46.3492 29.4689C46.5803 30.0193 46.7303 30.5818 46.741 31.1912C46.7751 33.018 45.9353 33.0572 45.6196 33.0728C45.2562 33.0877 44.9355 33.0017 44.6425 32.8452C44.4974 32.7684 44.3602 32.6746 44.2272 32.5658C44.1021 32.4627 43.9812 32.3468 43.8638 32.2216C43.7045 32.0538 43.5531 31.8689 43.4037 31.6748L44.4555 30.8883L44.971 30.5021L45.4404 30.1516L46.3492 29.4689ZM38.6343 17.198L40.7157 21.791C40.0245 21.3764 39.2964 21.0052 38.5241 20.6774C37.2078 20.1178 36.0203 19.7338 34.9145 19.5084C35.3284 18.6031 35.5538 17.6452 35.5773 16.6625L37.2313 15.913C37.8421 16.1327 38.3577 16.5864 38.6343 17.198ZM35.2231 12.1441L36.4107 14.766L36.5707 15.1165L36.2215 15.2751L35.5246 15.5901C35.5175 15.5311 35.5097 15.4714 35.5005 15.4124C35.477 15.2481 35.4478 15.0838 35.413 14.9188C35.2907 14.3585 35.1051 13.796 34.8519 13.2356C34.7353 12.9782 34.6045 12.7308 34.4665 12.4876L35.2231 12.1441ZM22.8235 9.4632C23.9214 8.96471 25.0877 8.71227 26.2845 8.71227C28.9497 8.71227 31.4272 9.98302 32.9952 12.0573C33.0969 12.1917 33.1922 12.3318 33.2868 12.4733C33.3792 12.6127 33.4667 12.7564 33.5513 12.9014C33.6907 13.1432 33.8244 13.39 33.941 13.6481C34.1934 14.2056 34.3627 14.761 34.4672 15.3121C34.4999 15.4828 34.5333 15.6527 34.5518 15.822C34.5597 15.8902 34.5582 15.9578 34.5639 16.026C34.5725 16.1363 34.5789 16.2472 34.5817 16.3567C34.5838 16.425 34.5902 16.4947 34.5888 16.5629C34.5881 16.7514 34.5753 16.9391 34.5568 17.1254C34.4807 17.8977 34.2567 18.6465 33.8948 19.3562C33.7781 19.5852 33.6445 19.8099 33.5001 20.0296C33.4909 20.0438 33.4809 20.0573 33.4709 20.0716C32.5614 21.4319 31.115 22.6173 29.1794 23.4941C27.6861 24.1711 26.1579 24.5288 24.7598 24.5288C24.4228 24.5288 24.0957 24.5075 23.7778 24.4669C23.7593 24.4648 23.7415 24.4627 23.7237 24.4598C23.4621 24.425 23.2082 24.3731 22.96 24.3119C22.1806 24.1171 21.4695 23.79 20.8416 23.3405C20.6894 23.2317 20.5408 23.1172 20.3986 22.9935C20.3453 22.948 20.2948 22.9011 20.2443 22.8527C20.1632 22.778 20.0821 22.7041 20.0053 22.6244C19.9591 22.5768 19.9157 22.5242 19.8702 22.4751C19.7543 22.3485 19.6434 22.2163 19.5367 22.0776C19.1925 21.6346 18.8896 21.1375 18.6386 20.5836C18.5213 20.3247 18.4189 20.0637 18.3293 19.7992C18.2752 19.6392 18.2276 19.4785 18.1835 19.3178C18.1387 19.1528 18.0996 18.9878 18.0654 18.8228C17.2846 15.0589 19.179 11.1144 22.8235 9.4632ZM16.7805 20.4996L17.4169 20.2124C17.5093 20.4755 17.6117 20.7364 17.7291 20.9946C17.9858 21.5613 18.288 22.0776 18.6301 22.5441C18.7296 22.6799 18.832 22.8129 18.938 22.9402C18.9728 22.9814 19.0105 23.0184 19.0453 23.0589L18.4757 23.3164L18.1287 23.4742L17.9709 23.1251L16.7805 20.4996ZM20.3374 30.8236L18.3314 26.3976C18.0619 25.8038 18.0405 25.1404 18.2702 24.5302C18.2745 24.5181 18.2816 24.5089 18.2859 24.4975L19.8055 23.8084C20.5557 24.4456 21.4233 24.9121 22.3904 25.1965C21.8372 26.17 21.3458 27.3128 20.9013 28.6625C20.6638 29.3843 20.4775 30.1039 20.3374 30.8236ZM21.8251 29.8173L23.0525 30.042L22.5127 32.9832L21.2853 32.7592L21.8251 29.8173ZM26.0277 41.2257C25.9822 41.449 25.9061 41.6616 25.7853 41.8579C25.7191 41.9667 25.6373 42.0705 25.5428 42.1693C25.5221 42.1921 25.4958 42.2184 25.466 42.2461C25.3657 42.3414 25.2221 42.4538 25.0158 42.4993C24.6695 42.5768 24.1518 42.4673 23.3888 41.774C22.9429 41.3658 22.618 40.8851 22.3591 40.3524L22.8085 40.2486L23.3774 40.1164L23.5972 40.0659L23.9477 39.9841L24.1611 39.935L24.7812 39.7907L25.9431 39.5212C25.9915 39.7615 26.0313 39.9983 26.0555 40.228C26.074 40.4001 26.0832 40.5679 26.0804 40.73C26.0754 40.9014 26.0605 41.0657 26.0277 41.2257ZM27.1826 40.0182C27.1371 40.0381 27.0916 40.0538 27.0468 40.0716C26.9963 39.6378 26.9038 39.2289 26.8242 38.8769C26.3861 36.9683 26.1373 35.4948 26.0057 34.4431C26.586 35.7245 27.4109 37.5428 28.3019 39.5112L27.1826 40.0182ZM40.075 50.8172C40.0836 50.8342 40.0957 50.8513 40.1035 50.8698C40.1682 51.0113 40.2045 51.1606 40.2265 51.3128C40.2677 51.5887 40.2457 51.8717 40.1454 52.1398C39.9897 52.5558 39.6804 52.8844 39.2757 53.0685L35.8532 54.6202C35.6356 54.7176 35.4059 54.7695 35.1698 54.7695C34.5177 54.7695 33.9225 54.3862 33.6544 53.7917C33.2768 52.9583 33.648 51.972 34.4814 51.5937L34.8142 51.4429L35.9797 50.916L37.1438 50.3876L37.9061 50.042C38.1237 49.9432 38.3541 49.8941 38.5895 49.8941C38.8612 49.8941 39.12 49.9638 39.3533 50.084C39.6597 50.2426 39.915 50.4957 40.075 50.8172ZM42.0228 47.6982L41.008 45.4596L44.4228 43.9116C44.6738 43.7992 44.7854 43.502 44.6717 43.2509C44.5579 43.0006 44.2621 42.8876 44.0103 43.0013L40.5963 44.5501L39.9378 43.0966L41.6608 42.3158C41.9125 42.202 42.0235 41.9076 41.9104 41.6559C41.7966 41.4042 41.5001 41.2925 41.2491 41.4063L39.5275 42.1871C39.4066 41.9048 38.7801 40.5338 37.8222 40.1548C37.4631 40.0132 37.0891 40.0196 36.7406 40.1775C36.3922 40.3354 36.139 40.6106 36.0096 40.9768C35.6455 41.9972 36.3502 43.4707 36.4242 43.62L36.9853 44.8566L33.7341 46.33C33.4823 46.4438 33.3714 46.7396 33.4845 46.9914C33.5684 47.1748 33.7504 47.2836 33.9403 47.2836C34.01 47.2836 34.0797 47.2694 34.1465 47.2388L37.397 45.7661L38.8221 48.9114C38.7453 48.905 38.667 48.895 38.5895 48.895C38.2105 48.895 37.8414 48.9747 37.4937 49.1318L34.5881 50.4502L34.3563 50.4552C33.7966 49.22 31.61 44.3951 29.6238 40.0097C29.5541 39.8568 29.4859 39.706 29.4176 39.5546C29.3479 39.4024 29.2797 39.2495 29.2114 39.0988C27.605 35.5553 26.2212 32.4996 26.0782 32.1832C25.8286 31.6321 25.4119 31.7388 25.3309 31.7665C24.9348 31.9002 24.779 32.2778 24.9604 34.0627C25.0485 34.9295 25.2555 36.3972 25.7277 38.5462L24.0288 38.9409L23.5246 39.0589L23.1285 39.15L23.0261 39.1741L22.5582 39.2808L21.9901 39.4145L21.9773 39.418C21.9737 39.4088 21.9723 39.4017 21.9687 39.3939C21.8571 39.0639 21.7561 38.7219 21.6601 38.3677C21.6373 38.2852 21.6146 38.2063 21.5933 38.1231C21.53 37.8856 21.4738 37.6474 21.4205 37.4099C21.2277 36.543 21.1076 35.6847 21.0578 34.8307C21.0365 34.4623 21.0279 34.0947 21.0329 33.7277L21.1118 33.742L21.7085 33.8508L22.8242 34.0556C22.8541 34.062 22.8839 34.0648 22.9152 34.0648C23.1513 34.0648 23.3611 33.897 23.4045 33.6552L24.1241 29.7313C24.1483 29.6012 24.1198 29.4675 24.0437 29.3587C23.9691 29.2492 23.8546 29.1752 23.723 29.1503L21.9019 28.8168C22.3549 27.4735 22.8526 26.3556 23.4158 25.4234C23.8482 25.4895 24.2955 25.5272 24.7591 25.5272C26.298 25.5272 27.9691 25.1389 29.5904 24.4044C31.7742 23.4145 33.4091 22.0292 34.4139 20.4292C35.5346 20.6284 36.7556 21.0116 38.1323 21.5969C39.3675 22.1217 40.4839 22.7695 41.5029 23.5347C41.7995 23.7565 42.0882 23.9898 42.3677 24.2323C42.7012 24.5231 43.0226 24.8296 43.3319 25.151C43.9989 25.8422 44.6176 26.596 45.1801 27.4344C45.4368 27.8177 45.6765 28.1903 45.8919 28.5629L45.1353 29.1297L44.725 29.4376L44.3111 29.7476L42.8093 30.8719C41.4859 29.0728 40.5067 27.9329 39.9079 27.2893C38.6869 25.9773 38.2987 25.8436 37.9381 26.0548C37.8642 26.0982 37.5079 26.3393 37.7568 26.8911C37.9012 27.2068 39.2857 30.2632 40.8921 33.8088C40.9604 33.9596 41.0293 34.111 41.0983 34.2632C41.1666 34.4147 41.2349 34.5654 41.3038 34.719C43.2914 39.1023 45.4773 43.9272 46.0377 45.1631L45.8805 45.3338L43.2765 46.5135C42.731 46.7596 42.2965 47.1748 42.0228 47.6982ZM48.4832 48.8972L45.0599 50.4481C44.843 50.5469 44.6133 50.596 44.3773 50.596C43.8375 50.596 43.339 50.3308 43.0311 49.9027C42.9671 49.8152 42.9074 49.7206 42.8619 49.6196C42.8334 49.5549 42.8157 49.4881 42.795 49.4227C42.7275 49.2051 42.7054 48.9796 42.7296 48.7556C42.7445 48.6191 42.7709 48.4812 42.8213 48.3503C42.9764 47.9336 43.285 47.6051 43.6896 47.4216L44.1504 47.2125L45.3159 46.6842L46.48 46.1572L47.1129 45.87C47.3312 45.7725 47.5609 45.722 47.7977 45.722C48.4491 45.722 49.0436 46.1053 49.3117 46.6984C49.6885 47.5311 49.3173 48.5188 48.4832 48.8972Z" fill="white"/>
<path d="M19.5457 18.6993C19.589 18.8615 19.6331 19.0236 19.6879 19.1829C19.7583 19.3848 19.8358 19.5861 19.9254 19.7838C20.2113 20.4124 20.5718 20.9564 20.9956 21.4151C21.1172 21.5473 21.2431 21.6739 21.3754 21.7912C21.4294 21.8389 21.4856 21.8816 21.541 21.9264C21.6314 22.0003 21.7245 22.0707 21.8191 22.1376C21.8802 22.1802 21.94 22.225 22.0026 22.2648C22.1768 22.3765 22.3595 22.4753 22.548 22.5656C23.3039 22.9304 24.1636 23.1232 25.1094 23.1232C25.903 23.1232 26.7435 22.9795 27.5848 22.7093C27.9389 22.5955 28.2909 22.4618 28.6422 22.3032C28.9928 22.144 29.3206 21.9669 29.6349 21.7792C30.8929 21.0325 31.8536 20.0739 32.4338 18.9617C32.6145 18.6154 32.7503 18.2584 32.852 17.8965C32.9067 17.696 32.9515 17.4933 32.9821 17.2892C32.9935 17.2152 33.0013 17.1413 33.0091 17.0666C33.0226 16.95 33.0298 16.8334 33.0354 16.7168C33.0376 16.6456 33.0411 16.576 33.0411 16.5048C33.0411 16.3271 33.0354 16.1479 33.0162 15.968C32.9515 15.345 32.7773 14.715 32.4936 14.0878C32.404 13.8901 32.3016 13.7002 32.1963 13.5139C32.1124 13.3674 32.0235 13.2252 31.9304 13.0858C31.8344 12.9443 31.7348 12.8071 31.6296 12.6741C30.3389 11.0357 28.3492 10.0352 26.2066 10.0352C25.2232 10.0352 24.266 10.2428 23.3629 10.651C21.6854 11.4112 20.4026 12.78 19.754 14.5052C19.3032 15.7034 19.2036 16.9735 19.4347 18.2001C19.4653 18.3694 19.5016 18.5351 19.5457 18.6993ZM20.6877 14.8586C21.2417 13.3838 22.3389 12.2133 23.7739 11.5626C24.5469 11.212 25.3647 11.0357 26.2059 11.0357C27.9538 11.0357 29.5844 11.8129 30.6902 13.1022C30.8011 13.2316 30.9057 13.3674 31.0052 13.5075C31.1041 13.644 31.1958 13.7856 31.2818 13.9306C31.3906 14.1148 31.4945 14.304 31.5841 14.5024C31.8749 15.1431 32.0207 15.7859 32.0356 16.4138C32.0399 16.6016 32.0342 16.7872 32.015 16.972C32.0065 17.0474 31.9944 17.1214 31.9823 17.196C31.9617 17.3205 31.9396 17.4456 31.9083 17.568C31.887 17.6504 31.8571 17.7308 31.8308 17.8126C31.7569 18.0401 31.6701 18.2656 31.557 18.4853C31.5535 18.491 31.5514 18.4967 31.5485 18.5016C30.9362 19.675 29.7572 20.7032 28.2283 21.3952C27.1738 21.8737 26.095 22.1262 25.1087 22.1262C24.6657 22.1262 24.2482 22.0728 23.8536 21.9747C23.6118 21.9143 23.3793 21.8375 23.1581 21.7415C23.0806 21.708 23.0059 21.6718 22.932 21.6348C22.8168 21.5765 22.7058 21.5153 22.5985 21.4478C22.5345 21.408 22.4726 21.3653 22.4114 21.3226C22.2593 21.216 22.1121 21.0993 21.9734 20.9728C21.5105 20.5482 21.1258 20.012 20.8342 19.3713C20.7446 19.1729 20.6692 18.9717 20.6017 18.769C20.5498 18.6083 20.5014 18.4462 20.4637 18.284C20.4239 18.1162 20.3947 17.9477 20.3698 17.7784C20.229 16.8042 20.3322 15.8058 20.6877 14.8586Z" fill="white"/>
<path d="M21.7116 18.2669C21.7394 18.449 21.7728 18.6353 21.8183 18.8294C21.8716 19.0591 22.0764 19.2148 22.3033 19.2148C22.3403 19.2148 22.3787 19.2113 22.4171 19.202C22.6844 19.1394 22.853 18.8714 22.7904 18.6026C22.7278 18.3309 22.6901 18.0778 22.6645 17.8346C22.6453 17.6482 22.6347 17.4698 22.6339 17.3012C22.6332 17.1021 22.6439 16.9158 22.6638 16.7387C22.8295 15.3051 23.6139 14.6232 23.6629 14.5812C23.8763 14.4084 23.9083 14.0955 23.7355 13.8815C23.5634 13.6667 23.2498 13.6326 23.035 13.8061C22.9675 13.8602 21.6633 14.9474 21.6348 17.2045C21.6341 17.3773 21.6391 17.5572 21.6533 17.7442C21.6661 17.9135 21.6846 18.087 21.7116 18.2669Z" fill="white"/>
</svg>
