<svg width="18" height="18" viewBox="0 0 18 18" fill="none" xmlns="http://www.w3.org/2000/svg">
<path d="M10.2967 2.63199L11.6167 5.27199C11.7967 5.63949 12.2767 5.99199 12.6817 6.05949L15.0742 6.45699C16.6042 6.71199 16.9642 7.82199 15.8617 8.91699L14.0017 10.777C13.6867 11.092 13.5142 11.6995 13.6117 12.1345L14.1442 14.437C14.5642 16.2595 13.5967 16.9645 11.9842 16.012L9.7417 14.6845C9.3367 14.4445 8.6692 14.4445 8.2567 14.6845L6.0142 16.012C4.4092 16.9645 3.4342 16.252 3.8542 14.437L4.3867 12.1345C4.4842 11.6995 4.3117 11.092 3.9967 10.777L2.1367 8.91699C1.0417 7.82199 1.3942 6.71199 2.9242 6.45699L5.3167 6.05949C5.7142 5.99199 6.1942 5.63949 6.3742 5.27199L7.6942 2.63199C8.4142 1.19949 9.5842 1.19949 10.2967 2.63199Z" stroke="#292D32" stroke-width="1.125" stroke-linecap="round" stroke-linejoin="round"/>
</svg>
