<svg width="28" height="26" viewBox="0 0 28 26" fill="none" xmlns="http://www.w3.org/2000/svg">
<path d="M1 24.9999L2.02781 24.7792M4.4142 24.247C4.81067 24.1618 5.20729 24.0824 5.60404 24.0087M23.5721 24.2353C23.1756 24.1502 22.779 24.0707 22.3823 23.997M27.017 24.9986L25.9907 24.7782M8.02412 23.5946C8.32409 23.5513 8.62411 23.5113 8.92419 23.4746M19.9991 23.5946C19.6991 23.5513 19.3991 23.5113 19.099 23.4746" stroke="#292D32" stroke-width="1.2" stroke-linecap="round"/>
<path d="M27.0195 1.00039L25.9917 1.22109M23.5471 1.77412C23.1507 1.85926 22.754 1.93869 22.3573 2.01242M4.43683 1.76503C4.83328 1.85016 5.22988 1.92959 5.62662 2.00332M1.00257 1.00172L2.02883 1.22209M19.9954 2.40577C16.0073 2.98063 12.0085 2.98063 8.02043 2.40576" stroke="#292D32" stroke-width="1.2" stroke-linecap="round"/>
<path d="M9.63056 9.7624C9.55848 9.22179 9.0618 8.84197 8.52119 8.91405C7.98058 8.98613 7.60076 9.48282 7.67284 10.0234C7.79116 10.9108 8.25126 12.1686 9.2475 13.218C9.87232 13.8761 10.694 14.4366 11.737 14.7736V17.4271L11.1773 23.1989C11.1247 23.7417 11.5221 24.2245 12.0649 24.2771C12.6078 24.3298 13.0905 23.9324 13.1432 23.3895L13.621 18.4621L14.383 18.4621L14.8608 23.3895C14.9134 23.9324 15.3962 24.3297 15.939 24.2771C16.4819 24.2245 16.8793 23.7417 16.8266 23.1989L16.2669 17.4265V14.7803C17.32 14.4442 18.1486 13.8806 18.7776 13.218C19.7738 12.1686 20.2339 10.9108 20.3522 10.0234C20.4243 9.48282 20.0445 8.98613 19.5039 8.91405C18.9633 8.84197 18.4666 9.22179 18.3945 9.7624C18.3247 10.2858 18.023 11.1441 17.3452 11.8582C16.6949 12.5431 15.6608 13.1376 14.0125 13.1376C12.3643 13.1376 11.3302 12.5431 10.6799 11.8582C10.002 11.1441 9.70034 10.2858 9.63056 9.7624Z" stroke="#292D32" stroke-width="1.2" stroke-linecap="round" stroke-linejoin="round"/>
<path d="M14.6756 8.17937C14.4745 8.10566 14.2572 8.06543 14.0306 8.06543C12.9954 8.06543 12.1562 8.9046 12.1562 9.93977C12.1562 10.9749 12.9954 11.8141 14.0306 11.8141C14.961 11.8141 15.7331 11.1362 15.8798 10.2474" stroke="#292D32" stroke-width="1.2"/>
<path d="M15.6335 7.9082C15.6335 7.9082 14.2059 7.98867 14.0202 8.98501C13.8345 9.98136 14.7295 10.4637 16.4707 10.1746C16.6959 9.32815 16.2564 8.36138 15.6335 7.9082Z" stroke="#292D32" stroke-width="1.2" stroke-linecap="round" stroke-linejoin="round"/>
</svg>
