<svg width="24" height="24" viewBox="0 0 24 24" fill="none" xmlns="http://www.w3.org/2000/svg">
<path d="M21.6602 10.4395L20.6802 14.6195C19.8402 18.2295 18.1802 19.6895 15.0602 19.3895C14.5602 19.3495 14.0202 19.2595 13.4402 19.1195L11.7602 18.7195C7.59018 17.7295 6.30018 15.6695 7.28018 11.4895L8.26018 7.29952C8.46018 6.44952 8.70018 5.70952 9.00018 5.09952C10.1702 2.67952 12.1602 2.02952 15.5002 2.81952L17.1702 3.20952C21.3602 4.18952 22.6402 6.25952 21.6602 10.4395Z" stroke="#292D32" stroke-width="1.5" stroke-linecap="round" stroke-linejoin="round"/>
<path d="M15.0584 19.3896C14.4384 19.8096 13.6584 20.1596 12.7084 20.4696L11.1284 20.9896C7.15839 22.2696 5.06839 21.1996 3.77839 17.2296L2.49839 13.2796C1.21839 9.30961 2.27839 7.20961 6.24839 5.92961L7.82839 5.40961C8.23839 5.27961 8.62839 5.16961 8.99839 5.09961C8.69839 5.70961 8.45839 6.44961 8.25839 7.29961L7.27839 11.4896C6.29839 15.6696 7.58839 17.7296 11.7584 18.7196L13.4384 19.1196C14.0184 19.2596 14.5584 19.3496 15.0584 19.3896Z" stroke="#292D32" stroke-width="1.5" stroke-linecap="round" stroke-linejoin="round"/>
<path d="M12.6406 8.53027L17.4906 9.76027" stroke="#292D32" stroke-width="1.5" stroke-linecap="round" stroke-linejoin="round"/>
<path d="M11.6602 12.4004L14.5602 13.1404" stroke="#292D32" stroke-width="1.5" stroke-linecap="round" stroke-linejoin="round"/>
</svg>
