<svg width="60" height="60" viewBox="0 0 60 60" fill="none" xmlns="http://www.w3.org/2000/svg">
<path d="M46.575 17.8754C46.675 19.4004 46.55 21.1254 46.25 23.0504L44.425 34.7754C42.875 44.5504 38.35 47.8504 28.575 46.3254L16.85 44.4754C13.475 43.9504 10.875 43.0504 8.97498 41.7004C5.34998 39.1754 4.29998 35.0253 5.29998 28.6253L7.14998 16.9004C8.69998 7.12535 13.225 3.82535 23 5.35035L34.725 7.20035C42.575 8.42535 46.25 11.6254 46.575 17.8754Z" stroke="white" stroke-width="3" stroke-linecap="round" stroke-linejoin="round"/>
<path d="M51.2516 33.676L47.5016 44.951C44.3766 54.351 39.3766 56.851 29.9766 53.726L18.7016 49.976C13.0266 48.101 9.87656 45.501 8.97656 41.701C10.8766 43.051 13.4766 43.951 16.8516 44.476L28.5766 46.326C38.3516 47.851 42.8766 44.551 44.4266 34.776L46.2516 23.051C46.5516 21.126 46.6766 19.401 46.5766 17.876C52.5516 21.051 53.8516 25.851 51.2516 33.676Z" stroke="white" stroke-width="3" stroke-linecap="round" stroke-linejoin="round"/>
<path d="M20.6 22.45C23.0024 22.45 24.95 20.5024 24.95 18.1C24.95 15.6976 23.0024 13.75 20.6 13.75C18.1976 13.75 16.25 15.6976 16.25 18.1C16.25 20.5024 18.1976 22.45 20.6 22.45Z" stroke="white" stroke-width="3" stroke-linecap="round" stroke-linejoin="round"/>
</svg>
