<svg xmlns="http://www.w3.org/2000/svg">
<defs>
<font id="AtypDisplayTRIAL-Medium" horiz-adv-x="1304" >
  <font-face 
    font-family="Atyp Display TRIAL Medium"
    font-weight="500"
    font-stretch="normal"
    units-per-em="2048"
    panose-1="0 0 0 0 0 0 0 0 0 0"
    ascent="1638"
    descent="-410"
    x-height="1047"
    cap-height="1434"
    bbox="-27 -430 2073 1516"
    underline-thickness="102"
    underline-position="-255"
    unicode-range="U+000D-2011"
  />
<missing-glyph horiz-adv-x="1617" 
d="M205 0v1208h377v113q0 54 29 83.5t83 29.5h230q54 0 83 -29.5t29 -83.5v-113h377v-1208h-1208zM377 961q0 -33 28 -49t56 -22.5t28 -17.5q0 -18 -30 -18t-72 25l-8 -50q34 -22 80 -22q36 0 60 18.5t24 53.5q0 25 -18 40.5t-39.5 19.5t-39.5 10.5t-18 15.5q0 18 33 18
q28 0 63 -18l8 49q-32 18 -71 18q-36 0 -60 -18t-24 -53zM381 344h70v-168h49v168h63l6 49h-182zM383 602q0 -56 28 -84.5t70 -28.5t78 25l-10 49q-44 -24 -68 -24q-45 0 -45 63q0 64 39 64q33 0 33 -64l53 6q0 47 -21 77t-65 30q-43 0 -67.5 -32t-24.5 -81zM600 897
q0 -40 23.5 -65t64.5 -25t64.5 25t23.5 65v131h-49v-131q0 -41 -39 -41t-39 41v131h-49v-131zM604 393l74 -153v-64h49v64l74 153h-56l-43 -92l-40 92h-58zM606 494h51l11 55h65l10 -55h50l-37 217h-111zM676 598l10 64h29l10 -64h-49zM694 1208h230v113h-230v-113zM840 811
h149l6 49h-53v119h47l6 49h-149l-6 -49h53v-119h-47zM846 643q0 -26 17.5 -41.5t38.5 -20t38.5 -11t17.5 -15.5q0 -18 -30 -18q-32 0 -72 24l-8 -49q36 -23 80 -23q36 0 60 18.5t24 53.5q0 25 -18 40.5t-39.5 19.5t-39.5 10.5t-18 15.5q0 19 33 19q26 0 63 -19l8 49
q-34 19 -71 19q-36 0 -60 -18.5t-24 -53.5zM852 176h49v68h39q35 0 58.5 21t23.5 52t-23.5 53.5t-58.5 22.5h-88v-217zM901 293v51h39q12 0 20.5 -8t8.5 -19q0 -10 -8.5 -17t-20.5 -7h-39zM1051 979h69v-168h49v168h64l6 49h-182zM1081 176h146l6 49h-103v35h97l6 49h-103
v35h97l6 49h-152v-217zM1081 494h146l6 49h-103v35h97l6 49h-103v35h97l6 49h-152v-217z" />
    <glyph glyph-name=".notdef" horiz-adv-x="1617" 
d="M205 0v1208h377v113q0 54 29 83.5t83 29.5h230q54 0 83 -29.5t29 -83.5v-113h377v-1208h-1208zM377 961q0 -33 28 -49t56 -22.5t28 -17.5q0 -18 -30 -18t-72 25l-8 -50q34 -22 80 -22q36 0 60 18.5t24 53.5q0 25 -18 40.5t-39.5 19.5t-39.5 10.5t-18 15.5q0 18 33 18
q28 0 63 -18l8 49q-32 18 -71 18q-36 0 -60 -18t-24 -53zM381 344h70v-168h49v168h63l6 49h-182zM383 602q0 -56 28 -84.5t70 -28.5t78 25l-10 49q-44 -24 -68 -24q-45 0 -45 63q0 64 39 64q33 0 33 -64l53 6q0 47 -21 77t-65 30q-43 0 -67.5 -32t-24.5 -81zM600 897
q0 -40 23.5 -65t64.5 -25t64.5 25t23.5 65v131h-49v-131q0 -41 -39 -41t-39 41v131h-49v-131zM604 393l74 -153v-64h49v64l74 153h-56l-43 -92l-40 92h-58zM606 494h51l11 55h65l10 -55h50l-37 217h-111zM676 598l10 64h29l10 -64h-49zM694 1208h230v113h-230v-113zM840 811
h149l6 49h-53v119h47l6 49h-149l-6 -49h53v-119h-47zM846 643q0 -26 17.5 -41.5t38.5 -20t38.5 -11t17.5 -15.5q0 -18 -30 -18q-32 0 -72 24l-8 -49q36 -23 80 -23q36 0 60 18.5t24 53.5q0 25 -18 40.5t-39.5 19.5t-39.5 10.5t-18 15.5q0 19 33 19q26 0 63 -19l8 49
q-34 19 -71 19q-36 0 -60 -18.5t-24 -53.5zM852 176h49v68h39q35 0 58.5 21t23.5 52t-23.5 53.5t-58.5 22.5h-88v-217zM901 293v51h39q12 0 20.5 -8t8.5 -19q0 -10 -8.5 -17t-20.5 -7h-39zM1051 979h69v-168h49v168h64l6 49h-182zM1081 176h146l6 49h-103v35h97l6 49h-103
v35h97l6 49h-152v-217zM1081 494h146l6 49h-103v35h97l6 49h-103v35h97l6 49h-152v-217z" />
    <glyph glyph-name=".null" horiz-adv-x="0" 
 />
    <glyph glyph-name="nonmarkingreturn" horiz-adv-x="682" 
 />
    <glyph glyph-name="CR" unicode="&#xd;" horiz-adv-x="614" 
 />
    <glyph glyph-name="space" unicode=" " horiz-adv-x="614" 
 />
    <glyph glyph-name="asterisk" unicode="*" horiz-adv-x="858" 
d="M356 713l9 248l-211 -132l-72 127l219 117l-219 117l72 127l211 -129l-9 246h146l-8 -246l211 129l71 -127l-219 -117l219 -117l-71 -127l-211 132l8 -248h-146z" />
    <glyph glyph-name="comma" unicode="," horiz-adv-x="479" 
d="M94 -221q97 42 139 102t39 119q-65 -18 -121.5 19t-56.5 110q0 60 43.5 102.5t104.5 42.5q87 0 140.5 -68.5t53.5 -166.5q0 -131 -68 -228.5t-186 -148.5z" />
    <glyph glyph-name="hyphen" unicode="-" horiz-adv-x="659" 
d="M80 430v191h500v-191h-500z" />
    <glyph glyph-name="period" unicode="." horiz-adv-x="479" 
d="M94 129q0 60 43 102.5t103 42.5t102.5 -42.5t42.5 -102.5q0 -59 -42.5 -102t-102.5 -43t-103 43t-43 102z" />
    <glyph glyph-name="zero" unicode="0" horiz-adv-x="1357" 
d="M100 717q0 208 74.5 376.5t207 264.5t296.5 96q165 0 298 -96t207 -264.5t74 -376.5t-74 -376.5t-207 -264.5t-298 -96q-164 0 -296.5 96t-207 264.5t-74.5 376.5zM334 717q0 -227 97 -378t247 -151t248 151t98 378t-98 377.5t-248 150.5t-247 -150.5t-97 -377.5z" />
    <glyph glyph-name="one" unicode="1" horiz-adv-x="1095" 
d="M80 0v203h416v993l-416 -109v201l643 166v-1251h352v-203h-995z" />
    <glyph glyph-name="two" unicode="2" horiz-adv-x="1257" 
d="M127 0v178l604 574q143 139 143 272q0 102 -68.5 162.5t-178.5 60.5q-127 0 -198 -75t-71 -207h-233q0 222 138.5 355.5t369.5 133.5q215 0 344 -115t129 -311q0 -223 -229 -434l-420 -391h678v-203h-1008z" />
    <glyph glyph-name="three" unicode="3" horiz-adv-x="1177" 
d="M293 451q6 -123 79 -193t197 -70q130 0 203.5 69t73.5 183q0 111 -80 179.5t-234 68.5h-110v178l332 365h-629v203h905v-179l-371 -399q190 -15 304 -132.5t114 -299.5q0 -194 -140 -319t-370 -125q-225 0 -359 117t-149 327z" />
    <glyph glyph-name="four" unicode="4" horiz-adv-x="1234" 
d="M18 303v201l549 930h418v-930h191v-201h-191v-303h-227v303h-740zM256 504h502v860z" />
    <glyph glyph-name="five" unicode="5" horiz-adv-x="1204" 
d="M332 424q11 -107 83 -171.5t187 -64.5q126 0 207.5 77.5t81.5 197.5q0 123 -76.5 199.5t-200.5 76.5q-86 0 -152 -36t-106 -97l-211 29l99 799h768v-203h-588l-68 -533q52 104 148 154.5t209 50.5q80 0 152.5 -27.5t130.5 -80.5t92 -138.5t34 -193.5q0 -209 -147 -346
t-373 -137q-217 0 -350 112t-152 305z" />
    <glyph glyph-name="six" unicode="6" horiz-adv-x="1189" 
d="M80 463q0 136 98 301l400 670h258l-390 -654q54 52 126 77.5t144.5 23.5t144 -32t126.5 -81t89 -130.5t34 -174.5q0 -206 -146 -344.5t-370 -138.5t-369 136.5t-145 346.5zM313 463q0 -120 79.5 -197.5t201.5 -77.5t202.5 77.5t80.5 197.5t-80.5 198t-202.5 78
t-201.5 -78t-79.5 -198z" />
    <glyph glyph-name="seven" unicode="7" horiz-adv-x="1095" 
d="M205 0l293 616h-459v201h555l197 414h-752v203h997v-179l-202 -438h202v-201h-297l-286 -616h-248z" />
    <glyph glyph-name="eight" unicode="8" horiz-adv-x="1265" 
d="M160 1075q0 159 136 269t337 110q202 0 337.5 -110t135.5 -269q0 -113 -74 -204t-198 -136q155 -41 243 -137.5t88 -222.5q0 -170 -145.5 -282.5t-386.5 -112.5q-240 0 -386.5 113t-146.5 282q0 125 89 222t245 138q-126 45 -200 136t-74 204zM328 410q0 -99 85 -163.5
t220 -64.5t220 64.5t85 163.5q0 100 -86 166.5t-219 66.5t-219 -66.5t-86 -166.5zM387 1038q0 -89 70 -149t176 -60t176 60t70 149q0 91 -70 152t-176 61t-176 -61t-70 -152z" />
    <glyph glyph-name="nine" unicode="9" horiz-adv-x="1189" 
d="M80 971q0 206 145 344.5t369 138.5q225 0 370.5 -136.5t145.5 -346.5q0 -136 -98 -301l-400 -670h-258l391 657q-53 -53 -125 -79.5t-145 -24.5t-144.5 32t-127 81t-89.5 130.5t-34 174.5zM313 971q0 -120 79.5 -198.5t201.5 -78.5t202.5 78.5t80.5 198.5
q0 119 -80.5 196.5t-202.5 77.5t-201.5 -77t-79.5 -197z" />
    <glyph glyph-name="A" unicode="A" horiz-adv-x="1486" 
d="M18 0l525 1434h401l524 -1434h-241l-123 346h-731l-123 -346h-232zM446 549h584l-291 819z" />
    <glyph glyph-name="B" unicode="B" horiz-adv-x="1294" 
d="M121 0v1434h598q187 0 304.5 -108.5t117.5 -268.5q0 -130 -80.5 -218t-222.5 -116q168 -17 266 -110.5t98 -237.5q0 -161 -117 -268t-305 -107h-659zM342 197h403q103 0 166.5 60.5t63.5 152.5t-63.5 151.5t-166.5 59.5h-403v-424zM342 813h358q102 0 166 60.5t64 152.5
t-64 151.5t-166 59.5h-358v-424z" />
    <glyph glyph-name="C" unicode="C" horiz-adv-x="1570" 
d="M80 717q0 154 58 290.5t157 234.5t238.5 155t295.5 57q155 0 292 -59.5t228 -151.5t142 -205l-209 -82q-61 129 -181 209t-272 80q-218 0 -367 -152t-149 -376t149 -376.5t367 -152.5q152 0 272 80t181 209l209 -82q-51 -113 -142 -205t-227.5 -151t-292.5 -59t-295.5 57
t-238.5 155t-157 234.5t-58 290.5z" />
    <glyph glyph-name="D" unicode="D" horiz-adv-x="1466" 
d="M121 0v1434h536q155 0 290.5 -55.5t231.5 -150.5t151.5 -228t55.5 -283t-55.5 -283t-151.5 -228t-231.5 -150.5t-290.5 -55.5h-536zM348 203h293q223 0 367.5 146t144.5 368q0 223 -144 368.5t-368 145.5h-293v-1028z" />
    <glyph glyph-name="E" unicode="E" horiz-adv-x="1130" 
d="M121 0v1434h917v-203h-690v-414h670v-201h-670v-413h690v-203h-917z" />
    <glyph glyph-name="F" unicode="F" horiz-adv-x="1048" 
d="M121 0v1434h876v-203h-649v-434h629v-203h-629v-594h-227z" />
    <glyph glyph-name="G" unicode="G" horiz-adv-x="1640" 
d="M80 717q0 154 58 290.5t157 234.5t238.5 155t295.5 57q155 0 292 -59.5t228 -151.5t142 -205l-209 -82q-61 129 -181 209t-272 80q-218 0 -367 -152t-149 -376t149 -376.5t367 -152.5q194 0 328 117.5t154 282.5h-598v203h843q15 -177 -39 -330.5t-156 -257.5
t-240.5 -163.5t-291.5 -59.5q-156 0 -295.5 57t-238.5 155t-157 234.5t-58 290.5z" />
    <glyph glyph-name="H" unicode="H" horiz-adv-x="1464" 
d="M121 0v1434h227v-617h770v617h225v-1434h-225v616h-770v-616h-227z" />
    <glyph glyph-name="I" unicode="I" horiz-adv-x="468" 
d="M121 0v1434h227v-1434h-227z" />
    <glyph glyph-name="J" unicode="J" horiz-adv-x="1083" 
d="M264 430q6 -122 74.5 -182t171.5 -60q114 0 181 75.5t67 195.5v975h225v-975q0 -216 -134.5 -347.5t-344.5 -131.5q-192 0 -321 110.5t-146 306.5z" />
    <glyph glyph-name="K" unicode="K" horiz-adv-x="1337" 
d="M1055 0l-498 674l-209 -230v-444h-227v1434h227v-678l617 678h284l-536 -588l616 -846h-274z" />
    <glyph glyph-name="L" unicode="L" horiz-adv-x="1079" 
d="M121 0v1434h227v-1231h690v-203h-917z" />
    <glyph glyph-name="M" unicode="M" horiz-adv-x="1759" 
d="M121 0v1434h420l340 -1377l342 1377h415v-1434h-215v1384l-344 -1384h-399l-344 1384v-1384h-215z" />
    <glyph glyph-name="N" unicode="N" horiz-adv-x="1486" 
d="M121 0v1434h440l580 -1389v1389h225v-1434h-440l-578 1389v-1389h-227z" />
    <glyph glyph-name="O" unicode="O" horiz-adv-x="1656" 
d="M80 717q0 154 58 290.5t157 234.5t238.5 155t295.5 57q208 0 379.5 -97t270 -266t98.5 -374t-98.5 -374t-270 -266t-379.5 -97q-156 0 -295.5 57t-238.5 155t-157 234.5t-58 290.5zM313 717q0 -224 149 -376.5t367 -152.5t366 152.5t148 376.5t-148 376t-366 152
t-367 -152t-149 -376z" />
    <glyph glyph-name="P" unicode="P" horiz-adv-x="1216" 
d="M121 0v1434h573q219 0 356.5 -129t137.5 -326q0 -195 -137.5 -322t-356.5 -127h-346v-530h-227zM348 733h346q116 0 188 70.5t72 177.5q0 109 -72 179.5t-188 70.5h-346v-498z" />
    <glyph glyph-name="Q" unicode="Q" horiz-adv-x="1656" 
d="M1376 -156l-186 222q-166 -86 -361 -86q-156 0 -295.5 57t-238.5 155t-157 234.5t-58 290.5t58 290.5t157 234.5t238.5 155t295.5 57q208 0 379.5 -97t270 -266t98.5 -374q0 -153 -56 -287.5t-157 -234.5l176 -211zM313 717q0 -224 149 -376.5t367 -152.5q116 0 218 48
l-197 233l164 139l205 -243q124 149 124 352q0 224 -148 376t-366 152t-367 -152t-149 -376z" />
    <glyph glyph-name="R" unicode="R" horiz-adv-x="1286" 
d="M121 0v1434h594q211 0 343 -124.5t132 -314.5q0 -159 -94.5 -275t-253.5 -151l385 -569h-273l-374 557h-232v-557h-227zM348 764h367q106 0 173.5 66.5t67.5 166.5q0 101 -67.5 167.5t-173.5 66.5h-367v-467z" />
    <glyph glyph-name="S" unicode="S" horiz-adv-x="1267" 
d="M324 420q19 -115 103 -178.5t222 -63.5q128 0 208.5 58.5t80.5 148.5q0 54 -27.5 94t-74.5 65.5t-107.5 45.5t-127.5 38t-133.5 38.5t-127 52t-107.5 73t-74.5 107.5t-27.5 150q0 173 144.5 289t359.5 116q214 0 354.5 -109.5t167.5 -283.5l-229 -47q-19 109 -98.5 176
t-202.5 67q-115 0 -188.5 -55.5t-73.5 -140.5q0 -51 27.5 -89t74 -62t107 -43t127.5 -37t134 -38.5t127.5 -53.5t107 -77t74 -113t27.5 -157q0 -178 -151.5 -294.5t-376.5 -116.5t-373 106.5t-174 286.5z" />
    <glyph glyph-name="T" unicode="T" horiz-adv-x="1191" 
d="M483 0v1231h-463v203h1151v-203h-462v-1231h-226z" />
    <glyph glyph-name="U" unicode="U" horiz-adv-x="1404" 
d="M100 1434h228v-887q0 -158 104 -258.5t270 -100.5q169 0 273 100.5t104 258.5v887h226v-887q0 -249 -169.5 -408t-433.5 -159q-173 0 -310.5 72t-214.5 201.5t-77 293.5v887z" />
    <glyph glyph-name="V" unicode="V" horiz-adv-x="1425" 
d="M516 0l-498 1434h242l459 -1366l459 1366h229l-498 -1434h-393z" />
    <glyph glyph-name="W" unicode="W" horiz-adv-x="2162" 
d="M389 0l-297 1434h227l285 -1373l266 1373h424l269 -1368l280 1368h230l-297 -1434h-430l-267 1366l-266 -1366h-424z" />
    <glyph glyph-name="X" unicode="X" horiz-adv-x="1353" 
d="M18 0l523 715l-523 719h277l385 -537l387 537h268l-520 -715l520 -719h-274l-385 541l-387 -541h-271z" />
    <glyph glyph-name="Y" unicode="Y" horiz-adv-x="1310" 
d="M285 0v203h258v293l-545 938h266l398 -715l397 715h254l-545 -938v-293h258v-203h-741z" />
    <glyph glyph-name="Z" unicode="Z" horiz-adv-x="1222" 
d="M102 0v395l940 836h-940v203h1018v-396l-940 -835h940v-203h-1018z" />
    <glyph glyph-name="a" unicode="a" horiz-adv-x="1087" 
d="M59 272q0 64 21.5 116.5t57 88t86 61.5t104.5 40t116 20l203 20q58 5 86.5 29t28.5 74q0 76 -59 121t-152 45q-96 0 -162 -49t-86 -144l-213 51q29 147 154 234.5t307 87.5q189 0 307.5 -98.5t118.5 -282.5v-686h-215v279q-96 -299 -387 -299q-134 0 -225 80t-91 212z
M274 289q0 -61 46.5 -98t123.5 -37q132 0 225 89.5t93 207.5v57q-24 -42 -119 -51l-199 -25q-78 -9 -124 -45.5t-46 -97.5z" />
    <glyph glyph-name="b" unicode="b" 
d="M121 0v1516h215v-773q50 149 159.5 236.5t256.5 87.5q202 0 337.5 -156.5t135.5 -388.5q0 -151 -61.5 -275.5t-170 -195.5t-241.5 -71q-147 0 -256.5 87t-159.5 236v-303h-215zM336 522q0 -148 97 -246t247 -98q135 0 228 98.5t93 245.5q0 148 -93 247t-228 99
q-150 0 -247 -98t-97 -248z" />
    <glyph glyph-name="c" unicode="c" horiz-adv-x="1206" 
d="M80 522q0 152 72.5 277t200 196.5t282.5 71.5q169 0 303.5 -87.5t198.5 -242.5l-199 -67q-40 93 -120.5 145.5t-182.5 52.5q-142 0 -238 -98.5t-96 -247.5q0 -147 96 -245.5t238 -98.5q103 0 183 52.5t120 146.5l199 -68q-64 -154 -198 -241.5t-304 -87.5
q-236 0 -395.5 156t-159.5 386z" />
    <glyph glyph-name="d" unicode="d" 
d="M80 522q0 232 135.5 388.5t337.5 156.5q147 0 256.5 -87.5t159.5 -236.5v773h215v-1516h-215v303q-50 -149 -159.5 -236t-256.5 -87q-133 0 -241.5 71t-170 195.5t-61.5 275.5zM301 522q0 -146 94.5 -245t229.5 -99q150 0 247 98t97 246q0 150 -97 248t-247 98
q-135 0 -229.5 -99t-94.5 -247z" />
    <glyph glyph-name="e" unicode="e" horiz-adv-x="1249" 
d="M80 522q0 152 71.5 277t196.5 196.5t277 71.5q124 0 231 -48.5t179 -131t107 -196.5t21 -240h-866q24 -126 117.5 -205.5t226.5 -79.5q102 0 183 49.5t126 136.5l180 -80q-70 -133 -199 -212.5t-296 -79.5q-236 0 -395.5 156t-159.5 386zM303 618h643q-27 117 -113 190
t-208 73q-119 0 -206.5 -73t-115.5 -190z" />
    <glyph glyph-name="f" unicode="f" horiz-adv-x="831" 
d="M262 0v856h-223v191h223v86q0 194 96.5 288.5t298.5 94.5h115v-191h-115q-95 0 -137.5 -43t-42.5 -139v-96h295v-191h-295v-856h-215z" />
    <glyph glyph-name="g" unicode="g" 
d="M80 535q0 226 135.5 379t337.5 153q146 0 255.5 -85.5t160.5 -231.5v297h215v-934q0 -230 -159.5 -386.5t-395.5 -156.5q-166 0 -296 80.5t-196 214.5l195 96q42 -91 119 -142.5t178 -51.5q142 0 241 99t99 247v204q-51 -144 -160.5 -229.5t-255.5 -85.5
q-202 0 -337.5 153t-135.5 380zM301 535q0 -142 96 -239t234 -97q146 0 242 96.5t96 239.5t-96 238t-242 95q-139 0 -234.5 -95.5t-95.5 -237.5z" />
    <glyph glyph-name="h" unicode="h" horiz-adv-x="1226" 
d="M121 0v1516h215v-740q43 135 142 213t233 78q179 0 291 -124.5t112 -317.5v-625h-215v592q0 121 -77.5 199.5t-192.5 78.5q-129 0 -211 -78t-82 -200v-592h-215z" />
    <glyph glyph-name="i" unicode="i" horiz-adv-x="456" 
d="M121 0v1047h215v-1047h-215zM94 1348q0 55 39.5 94t95.5 39q55 0 94 -38.5t39 -94.5t-39 -95t-94 -39q-56 0 -95.5 39.5t-39.5 94.5z" />
    <glyph glyph-name="j" unicode="j" horiz-adv-x="497" 
d="M135 1348q0 55 39.5 94t95.5 39t94.5 -38.5t38.5 -94.5t-39 -95t-94 -39q-56 0 -95.5 39.5t-39.5 94.5zM-27 -426v193q113 -3 151 35.5t38 150.5v1094h215v-1094q0 -400 -404 -379z" />
    <glyph glyph-name="k" unicode="k" horiz-adv-x="1128" 
d="M336 274v-274h-215v1516h215v-959l442 490h271l-404 -437l483 -610h-272l-356 451z" />
    <glyph glyph-name="l" unicode="l" horiz-adv-x="456" 
d="M121 0v1516h215v-1516h-215z" />
    <glyph glyph-name="m" unicode="m" horiz-adv-x="1841" 
d="M121 0v1047h215v-256q42 128 129.5 202t204.5 74q125 0 216.5 -79t127.5 -212q37 133 130 212t218 79q162 0 265.5 -124.5t103.5 -317.5v-625h-215v592q0 120 -67 199t-165 79q-110 0 -181 -78t-71 -200v-592h-215v592q0 121 -65.5 199.5t-163.5 78.5q-110 0 -181 -78
t-71 -200v-592h-215z" />
    <glyph glyph-name="n" unicode="n" horiz-adv-x="1226" 
d="M121 0v1047h215v-271q43 135 142 213t233 78q179 0 291 -124.5t112 -317.5v-625h-215v592q0 121 -77.5 199.5t-192.5 78.5q-129 0 -211 -78t-82 -200v-592h-215z" />
    <glyph glyph-name="o" unicode="o" horiz-adv-x="1269" 
d="M80 522q0 152 72.5 277t200 196.5t282.5 71.5t282.5 -71.5t200 -196.5t72.5 -277q0 -230 -159.5 -386t-395.5 -156t-395.5 156t-159.5 386zM301 522q0 -147 96 -245.5t238 -98.5q143 0 238.5 98t95.5 246q0 149 -95.5 247.5t-238.5 98.5q-142 0 -238 -98.5t-96 -247.5z
" />
    <glyph glyph-name="p" unicode="p" 
d="M121 -410v1457h215v-304q50 149 159.5 236.5t256.5 87.5q202 0 337.5 -156.5t135.5 -388.5q0 -151 -61.5 -275.5t-170 -195.5t-241.5 -71q-147 0 -256.5 87t-159.5 236v-713h-215zM336 522q0 -148 97 -246t247 -98q135 0 228 98.5t93 245.5q0 148 -93 247t-228 99
q-150 0 -247 -98t-97 -248z" />
    <glyph glyph-name="q" unicode="q" 
d="M80 522q0 232 135.5 388.5t337.5 156.5q147 0 256.5 -87.5t159.5 -236.5v304h215v-1457h-215v713q-50 -149 -159.5 -236t-256.5 -87q-133 0 -241.5 71t-170 195.5t-61.5 275.5zM301 522q0 -146 94.5 -245t229.5 -99q150 0 247 98t97 246q0 150 -97 248t-247 98
q-135 0 -229.5 -99t-94.5 -247z" />
    <glyph glyph-name="r" unicode="r" horiz-adv-x="786" 
d="M121 0v1047h215v-277q27 95 71.5 160.5t97 95.5t115 38.5t125.5 -9.5v-205q-117 28 -208 5.5t-146 -93.5t-55 -170v-592h-215z" />
    <glyph glyph-name="s" unicode="s" horiz-adv-x="1007" 
d="M274 322q13 -82 72.5 -125t157.5 -43q101 0 164 40t63 101q0 49 -35.5 79.5t-92 45.5t-124.5 26t-136.5 29.5t-125 47t-92 86.5t-35.5 141q0 137 118 227t296 90t291 -80t137 -217l-215 -45q-12 82 -67 125t-146 43q-87 0 -142 -36.5t-55 -96.5q0 -41 27.5 -69.5
t72.5 -41.5t102.5 -26t118 -22.5t118 -31.5t102.5 -52.5t72.5 -86t27.5 -131.5q0 -137 -127.5 -228t-316.5 -91q-186 0 -303 79.5t-142 216.5z" />
    <glyph glyph-name="t" unicode="t" horiz-adv-x="851" 
d="M39 856v191h223v339l215 68v-407h295v-191h-295v-483q0 -96 42.5 -139.5t137.5 -43.5h115v-190h-115q-202 0 -298.5 94.5t-96.5 288.5v473h-223z" />
    <glyph glyph-name="u" unicode="u" horiz-adv-x="1175" 
d="M111 1047h215v-613q0 -115 73.5 -185.5t188.5 -70.5q112 0 186 71t74 185v613h215v-613q0 -201 -134.5 -327.5t-340.5 -126.5q-208 0 -342.5 126.5t-134.5 327.5v613z" />
    <glyph glyph-name="v" unicode="v" horiz-adv-x="1093" 
d="M365 0l-367 1047h233l324 -981l322 981h219l-367 -1047h-364z" />
    <glyph glyph-name="w" unicode="w" horiz-adv-x="1732" 
d="M291 0l-273 1047h209l242 -992l205 992h387l205 -992l243 992h205l-270 -1047h-359l-219 991l-219 -991h-356z" />
    <glyph glyph-name="x" unicode="x" horiz-adv-x="1097" 
d="M31 0l387 518l-387 529h266l256 -375l262 375h252l-387 -521l387 -526h-264l-258 375l-262 -375h-252z" />
    <glyph glyph-name="y" unicode="y" horiz-adv-x="1093" 
d="M385 -410l139 410h-170l-356 1047h233l314 -988l332 988h219l-492 -1457h-219z" />
    <glyph glyph-name="z" unicode="z" horiz-adv-x="1077" 
d="M102 0v352l813 504h-813v191h873v-353l-811 -504h811v-190h-873z" />
    <glyph glyph-name="uni00A0" unicode="&#xa0;" horiz-adv-x="614" 
 />
    <glyph glyph-name="uni00AD" unicode="&#xad;" horiz-adv-x="659" 
d="M80 430v191h500v-191h-500z" />
    <glyph glyph-name="uni2011" unicode="&#x2011;" horiz-adv-x="659" 
d="M80 430v191h500v-191h-500z" />
    </font>
</defs>
</svg>
