<svg xmlns="http://www.w3.org/2000/svg">
<defs>
<font id="AtypKidoTRIAL-Semibold" horiz-adv-x="1300" >
  <font-face 
    font-family="Atyp Kido TRIAL Semibold"
    font-weight="600"
    font-stretch="normal"
    units-per-em="2048"
    panose-1="0 0 0 0 0 0 0 0 0 0"
    ascent="1638"
    descent="-410"
    x-height="1057"
    cap-height="1452"
    bbox="-80 -430 2022.54 1534"
    underline-thickness="102"
    underline-position="-255"
    unicode-range="U+000D-2011"
  />
<missing-glyph horiz-adv-x="1617" 
d="M205 0v1208h377v113q0 54 29 83.5t83 29.5h230q54 0 83 -29.5t29 -83.5v-113h377v-1208h-1208zM377 961q0 -33 28 -49t56 -22.5t28 -17.5q0 -18 -30 -18t-72 25l-8 -50q34 -22 80 -22q36 0 60 18.5t24 53.5q0 25 -18 40.5t-39.5 19.5t-39.5 10.5t-18 15.5q0 18 33 18
q28 0 63 -18l8 49q-32 18 -71 18q-36 0 -60 -18t-24 -53zM381 344h70v-168h49v168h63l6 49h-182zM383 602q0 -56 28 -84.5t70 -28.5t78 25l-10 49q-44 -24 -68 -24q-45 0 -45 63q0 64 39 64q33 0 33 -64l53 6q0 47 -21 77t-65 30q-43 0 -67.5 -32t-24.5 -81zM600 897
q0 -40 23.5 -65t64.5 -25t64.5 25t23.5 65v131h-49v-131q0 -41 -39 -41t-39 41v131h-49v-131zM604 393l74 -153v-64h49v64l74 153h-56l-43 -92l-40 92h-58zM606 494h51l11 55h65l10 -55h50l-37 217h-111zM676 598l10 64h29l10 -64h-49zM694 1208h230v113h-230v-113zM840 811
h149l6 49h-53v119h47l6 49h-149l-6 -49h53v-119h-47zM846 643q0 -26 17.5 -41.5t38.5 -20t38.5 -11t17.5 -15.5q0 -18 -30 -18q-32 0 -72 24l-8 -49q36 -23 80 -23q36 0 60 18.5t24 53.5q0 25 -18 40.5t-39.5 19.5t-39.5 10.5t-18 15.5q0 19 33 19q26 0 63 -19l8 49
q-34 19 -71 19q-36 0 -60 -18.5t-24 -53.5zM852 176h49v68h39q35 0 58.5 21t23.5 52t-23.5 53.5t-58.5 22.5h-88v-217zM901 293v51h39q12 0 20.5 -8t8.5 -19q0 -10 -8.5 -17t-20.5 -7h-39zM1051 979h69v-168h49v168h64l6 49h-182zM1081 176h146l6 49h-103v35h97l6 49h-103
v35h97l6 49h-152v-217zM1081 494h146l6 49h-103v35h97l6 49h-103v35h97l6 49h-152v-217z" />
    <glyph glyph-name=".notdef" horiz-adv-x="1617" 
d="M205 0v1208h377v113q0 54 29 83.5t83 29.5h230q54 0 83 -29.5t29 -83.5v-113h377v-1208h-1208zM377 961q0 -33 28 -49t56 -22.5t28 -17.5q0 -18 -30 -18t-72 25l-8 -50q34 -22 80 -22q36 0 60 18.5t24 53.5q0 25 -18 40.5t-39.5 19.5t-39.5 10.5t-18 15.5q0 18 33 18
q28 0 63 -18l8 49q-32 18 -71 18q-36 0 -60 -18t-24 -53zM381 344h70v-168h49v168h63l6 49h-182zM383 602q0 -56 28 -84.5t70 -28.5t78 25l-10 49q-44 -24 -68 -24q-45 0 -45 63q0 64 39 64q33 0 33 -64l53 6q0 47 -21 77t-65 30q-43 0 -67.5 -32t-24.5 -81zM600 897
q0 -40 23.5 -65t64.5 -25t64.5 25t23.5 65v131h-49v-131q0 -41 -39 -41t-39 41v131h-49v-131zM604 393l74 -153v-64h49v64l74 153h-56l-43 -92l-40 92h-58zM606 494h51l11 55h65l10 -55h50l-37 217h-111zM676 598l10 64h29l10 -64h-49zM694 1208h230v113h-230v-113zM840 811
h149l6 49h-53v119h47l6 49h-149l-6 -49h53v-119h-47zM846 643q0 -26 17.5 -41.5t38.5 -20t38.5 -11t17.5 -15.5q0 -18 -30 -18q-32 0 -72 24l-8 -49q36 -23 80 -23q36 0 60 18.5t24 53.5q0 25 -18 40.5t-39.5 19.5t-39.5 10.5t-18 15.5q0 19 33 19q26 0 63 -19l8 49
q-34 19 -71 19q-36 0 -60 -18.5t-24 -53.5zM852 176h49v68h39q35 0 58.5 21t23.5 52t-23.5 53.5t-58.5 22.5h-88v-217zM901 293v51h39q12 0 20.5 -8t8.5 -19q0 -10 -8.5 -17t-20.5 -7h-39zM1051 979h69v-168h49v168h64l6 49h-182zM1081 176h146l6 49h-103v35h97l6 49h-103
v35h97l6 49h-152v-217zM1081 494h146l6 49h-103v35h97l6 49h-103v35h97l6 49h-152v-217z" />
    <glyph glyph-name=".null" horiz-adv-x="0" 
 />
    <glyph glyph-name="nonmarkingreturn" horiz-adv-x="682" 
 />
    <glyph glyph-name="CR" unicode="&#xd;" horiz-adv-x="614" 
 />
    <glyph glyph-name="space" unicode=" " horiz-adv-x="614" 
 />
    <glyph glyph-name="asterisk" unicode="*" horiz-adv-x="870" 
d="M436 674q-38 0 -63.5 26t-24.5 64l6 160l-133 -86q-34 -20 -69 -11t-54 41q-19 34 -9 69t44 52l141 74l-141 74q-34 19 -44 53.5t9 66.5q19 34 54 42.5t69 -11.5l133 -86l-6 160q-1 38 24.5 64t63.5 26q37 0 62 -26t24 -64l-6 -160l133 86q34 20 69 11.5t54 -42.5
q19 -32 9 -66.5t-44 -53.5l-141 -74l141 -74q34 -17 44 -52t-9 -67q-19 -34 -54 -43t-69 11l-133 86l6 -160q1 -38 -24 -64t-62 -26z" />
    <glyph glyph-name="comma" unicode="," horiz-adv-x="530" 
d="M82 -268q0 56 61 84q73 35 110 83.5t40 100.5q-79 -18 -145 28.5t-66 135.5q0 76 54 130t130 54q102 0 165 -78.5t63 -189.5q0 -158 -79 -267.5t-202 -158.5q-24 -8 -43 -8q-35 0 -61.5 25.5t-26.5 60.5z" />
    <glyph glyph-name="hyphen" unicode="-" horiz-adv-x="679" 
d="M174 410q-53 0 -88 35t-35 87q0 51 35.5 86t87.5 35h332q52 0 86.5 -35t34.5 -86q0 -53 -34.5 -87.5t-86.5 -34.5h-332z" />
    <glyph glyph-name="period" unicode="." horiz-adv-x="530" 
d="M82 164q0 76 54 130t130 54q74 0 128.5 -54t54.5 -130q0 -72 -55 -127t-128 -55q-76 0 -130 54.5t-54 127.5z" />
    <glyph glyph-name="zero" unicode="0" horiz-adv-x="1353" 
d="M90 717q0 208 75.5 376.5t210.5 264.5t302 96t301.5 -96t209.5 -264.5t75 -376.5t-75 -376.5t-209.5 -264.5t-301.5 -96t-302 96t-210.5 264.5t-75.5 376.5zM393 717q0 -202 80.5 -335.5t204.5 -133.5q123 0 203 133.5t80 335.5t-80 335.5t-203 133.5
q-124 0 -204.5 -133.5t-80.5 -335.5z" />
    <glyph glyph-name="one" unicode="1" horiz-adv-x="1089" 
d="M51 129q0 55 37.5 93t93.5 38h279v893l-246 -63q-62 -15 -113 21.5t-51 102.5q0 48 28 81t71 44l405 107q87 21 143 -19.5t56 -121.5v-1045h217q54 0 91.5 -38t37.5 -93q0 -54 -37.5 -91.5t-91.5 -37.5h-789q-55 0 -93 37.5t-38 91.5z" />
    <glyph glyph-name="two" unicode="2" horiz-adv-x="1269" 
d="M1047 260q55 0 93 -38t38 -93q0 -54 -38 -91.5t-93 -37.5h-816q-55 0 -93 37.5t-38 91.5q0 59 52 107l567 544q119 111 119 226q0 85 -57 132.5t-150 47.5q-83 0 -137.5 -44.5t-75.5 -121.5q-22 -55 -55 -86t-91 -31q-61 0 -102 41t-41 103q1 79 38 152.5t102 130
t161.5 90.5t208.5 34q227 0 363.5 -119t136.5 -323q0 -224 -234 -439l-334 -313h476z" />
    <glyph glyph-name="three" unicode="3" horiz-adv-x="1183" 
d="M221 492q100 0 141 -103q21 -65 75.5 -103t135.5 -38q103 0 160.5 55t57.5 150q0 93 -67.5 146.5t-195.5 53.5h-34q-55 0 -92 37.5t-37 93.5q0 51 36 93l267 297h-439q-54 0 -91.5 38t-37.5 93q0 54 37.5 91.5t91.5 37.5h703q55 0 92 -37.5t37 -91.5q0 -56 -35 -91
l-317 -352q169 -23 277 -138t108 -294q0 -196 -145.5 -323t-377.5 -127q-188 0 -314 80.5t-173 230.5q-27 75 14.5 138t122.5 63z" />
    <glyph glyph-name="four" unicode="4" horiz-adv-x="1239" 
d="M164 272q-72 0 -123 50t-51 122q0 62 41 115l651 823q56 70 147 70q78 0 131.5 -53t53.5 -131v-738h63q55 0 93 -37.5t38 -91.5q0 -55 -37.5 -92t-93.5 -37h-63v-143q0 -63 -42 -105t-104 -42q-63 0 -105 42t-42 105v143h-557zM328 530h393v502z" />
    <glyph glyph-name="five" unicode="5" horiz-adv-x="1210" 
d="M270 453q83 0 138 -80q59 -125 200 -125q100 0 165 64.5t65 164.5q0 101 -62 165.5t-158 64.5q-43 0 -83.5 -14t-61.5 -27t-53 -37q-26 -17 -41 -25.5t-38.5 -16t-47.5 -7.5q-68 0 -110 47t-33 114l69 568q6 52 46 88.5t97 36.5h558q54 0 91.5 -37.5t37.5 -91.5
q0 -55 -37.5 -93t-91.5 -38h-455l-62 -478q42 111 133.5 165t204.5 54q82 0 153.5 -28.5t127 -82t87.5 -138t32 -189.5q0 -215 -151.5 -356t-381.5 -141q-166 0 -285.5 65t-175.5 184q-20 34 -21 74t15 73t50.5 55t78.5 22z" />
    <glyph glyph-name="six" unicode="6" horiz-adv-x="1200" 
d="M70 477q0 136 102 314l338 585q44 76 129 76q54 0 95 -34t50 -83.5t-18 -103.5l-264 -451q50 53 117 79t136 25t137 -29t120.5 -77.5t85 -128t32.5 -172.5q0 -212 -150.5 -354.5t-379.5 -142.5q-230 0 -380 141t-150 356zM373 477q0 -100 64.5 -164.5t162.5 -64.5
t162.5 64.5t64.5 164.5t-64.5 165t-162.5 65t-162.5 -65t-64.5 -165z" />
    <glyph glyph-name="seven" unicode="7" horiz-adv-x="1101" 
d="M262 190l191 398h-312q-56 0 -93.5 37t-37.5 92t37.5 92t93.5 37h434l156 328h-590q-55 0 -93 38t-38 93q0 54 38 91.5t93 37.5h799q55 0 93 -37.5t38 -91.5q0 -31 -12 -58l-182 -401h63q56 0 93.5 -37t37.5 -92t-37.5 -92t-93.5 -37h-180l-234 -518q-18 -43 -53.5 -65.5
t-77.5 -22.5q-84 0 -127 66.5t-6 141.5z" />
    <glyph glyph-name="eight" unicode="8" horiz-adv-x="1255" 
d="M143 1069q0 161 139 273t345 112q207 0 346 -112t139 -273q0 -107 -68 -195.5t-184 -136.5q144 -45 223.5 -140t79.5 -214q0 -174 -144 -288.5t-392 -114.5q-247 0 -392 114.5t-145 288.5q0 119 79.5 214t223.5 140q-115 48 -182.5 136.5t-67.5 195.5zM385 426
q0 -81 66 -133.5t176 -52.5t176.5 52.5t66.5 133.5q0 83 -67.5 137.5t-175.5 54.5q-106 0 -174 -54.5t-68 -137.5zM436 1022q0 -71 55 -119.5t136 -48.5t135.5 48.5t54.5 119.5q0 72 -54.5 122t-135.5 50t-136 -50t-55 -122z" />
    <glyph glyph-name="nine" unicode="9" horiz-adv-x="1200" 
d="M70 956q0 212 150.5 355t379.5 143t379.5 -141.5t150.5 -356.5q0 -135 -102 -313l-338 -586q-44 -75 -131 -75q-54 0 -94 34t-49 83.5t18 103.5l266 454q-49 -53 -116.5 -80.5t-136.5 -27t-137.5 28t-121 77t-85.5 128t-33 173.5zM373 956q0 -100 64.5 -164.5
t162.5 -64.5t162.5 64.5t64.5 164.5t-64.5 165t-162.5 65t-162.5 -65t-64.5 -165z" />
    <glyph glyph-name="A" unicode="A" horiz-adv-x="1470" 
d="M520 1300q27 71 85.5 111.5t129.5 40.5t128.5 -40.5t86.5 -113.5l457 -1114q31 -75 -14.5 -138.5t-122.5 -63.5q-43 0 -79.5 25t-53.5 67l-95 237h-630l-97 -241q-15 -40 -49.5 -64t-75.5 -24q-74 0 -116 60.5t-13 131.5zM516 571h422l-211 533z" />
    <glyph glyph-name="B" unicode="B" horiz-adv-x="1314" 
d="M111 1288q0 62 42 104t105 42h477q193 0 312.5 -108.5t119.5 -268.5q0 -122 -70.5 -209.5t-199.5 -124.5q156 -26 244 -120t88 -230q0 -160 -119.5 -266.5t-312.5 -106.5h-539q-63 0 -105 41.5t-42 103.5v1143zM395 252h350q86 0 137.5 48.5t51.5 123.5t-51.5 123.5
t-137.5 48.5h-350v-344zM395 838h312q86 0 138 49.5t52 124.5t-52 122.5t-138 47.5h-312v-344z" />
    <glyph glyph-name="C" unicode="C" horiz-adv-x="1509" 
d="M70 717q0 154 58 290.5t158 234.5t240 155t297 57q187 0 340 -76.5t244 -203.5q31 -45 31 -91q0 -60 -41.5 -100.5t-102.5 -40.5q-63 0 -114 57q-61 83 -154 135t-203 52q-190 0 -320 -135.5t-130 -333.5t130 -333.5t320 -135.5q110 0 203 51.5t154 134.5q52 58 114 58
q61 0 102.5 -41t41.5 -101q0 -45 -31 -90q-91 -127 -244 -203.5t-340 -76.5q-157 0 -297 57t-240 155t-158 234.5t-58 290.5z" />
    <glyph glyph-name="D" unicode="D" horiz-adv-x="1482" 
d="M655 260q200 0 327.5 129t127.5 328q0 200 -127.5 328.5t-327.5 128.5h-252v-914h252zM111 145v1143q0 62 42 104t105 42h422q156 0 292.5 -55.5t233 -150.5t152 -228t55.5 -283t-55.5 -283t-152 -228t-233 -150.5t-292.5 -55.5h-422q-63 0 -105 41.5t-42 103.5z" />
    <glyph glyph-name="E" unicode="E" horiz-adv-x="1150" 
d="M111 1288q0 62 42 104t105 42h694q55 0 93 -37.5t38 -91.5q0 -55 -37.5 -93t-93.5 -38h-549v-328h529q56 0 93.5 -37t37.5 -92t-37.5 -92t-93.5 -37h-529v-328h549q56 0 93.5 -38t37.5 -93q0 -54 -38 -91.5t-93 -37.5h-694q-63 0 -105 41.5t-42 103.5v1143z" />
    <glyph glyph-name="F" unicode="F" horiz-adv-x="1069" 
d="M111 1288q0 62 42 104t105 42h653q55 0 93 -37.5t38 -91.5q0 -55 -38 -93t-93 -38h-508v-359h488q55 0 93 -37.5t38 -93.5q0 -54 -38 -91.5t-93 -37.5h-488v-426q0 -63 -41.5 -105t-103.5 -42q-63 0 -105 42t-42 105v1159z" />
    <glyph glyph-name="G" unicode="G" horiz-adv-x="1632" 
d="M70 717q0 154 58 290.5t158 234.5t240 155t297 57q187 0 340 -76.5t244 -203.5q31 -45 31 -91q0 -60 -41.5 -100.5t-102.5 -40.5q-63 0 -114 57q-62 84 -154.5 135.5t-202.5 51.5q-190 0 -320 -135.5t-130 -333.5t130 -333.5t320 -135.5q162 0 273.5 88.5t138.5 210.5
h-424q-55 0 -93 37.5t-38 91.5q0 56 38 93.5t93 37.5h600q67 0 108.5 -50.5t32.5 -131.5q-14 -182 -116 -330.5t-263.5 -231.5t-349.5 -83q-157 0 -297 57t-240 155t-158 234.5t-58 290.5z" />
    <glyph glyph-name="H" unicode="H" horiz-adv-x="1470" 
d="M1067 588h-664v-459q0 -63 -41.5 -105t-103.5 -42q-63 0 -105 42t-42 105v1178q0 62 42 103.5t105 41.5q62 0 103.5 -42t41.5 -103v-461h664v461q0 61 41.5 103t103.5 42q63 0 105.5 -41.5t42.5 -103.5v-1178q0 -63 -42.5 -105t-105.5 -42q-62 0 -103.5 42t-41.5 105v459
z" />
    <glyph glyph-name="I" unicode="I" horiz-adv-x="514" 
d="M111 1307q0 62 42 103.5t105 41.5q62 0 103.5 -42t41.5 -103v-1178q0 -63 -41.5 -105t-103.5 -42q-63 0 -105 42t-42 105v1178z" />
    <glyph glyph-name="J" unicode="J" horiz-adv-x="1116" 
d="M512 -20q-161 0 -287.5 80t-167.5 212q-27 76 10 141.5t119 65.5q92 0 138 -98q25 -66 77.5 -99.5t118.5 -33.5q96 0 154.5 62.5t58.5 164.5v832q0 61 42 103t104 42q63 0 105 -41.5t42 -103.5v-832q0 -151 -70.5 -265t-186 -172t-257.5 -58z" />
    <glyph glyph-name="K" unicode="K" horiz-adv-x="1347" 
d="M111 1307q0 62 42 103.5t105 41.5q62 0 103.5 -42t41.5 -103v-516l621 620q44 41 96 41q42 0 76.5 -25t51 -60t10 -78t-40.5 -75l-406 -399l475 -596q38 -53 33.5 -106t-46.5 -92t-99 -39q-72 0 -115 55l-457 573l-199 -196v-285q0 -63 -41.5 -105t-103.5 -42
q-63 0 -105 42t-42 105v1178z" />
    <glyph glyph-name="L" unicode="L" horiz-adv-x="1105" 
d="M111 1307q0 62 42 103.5t105 41.5q62 0 103.5 -42t41.5 -103v-1047h549q56 0 93.5 -38t37.5 -93q0 -54 -38 -91.5t-93 -37.5h-694q-63 0 -105 41.5t-42 103.5v1162z" />
    <glyph glyph-name="M" unicode="M" horiz-adv-x="1667" 
d="M111 1290q0 69 46.5 115.5t116.5 46.5q93 0 140 -80l426 -696l426 696q51 80 141 80q63 0 106 -42t43 -103v-1178q0 -63 -42 -105t-105 -42q-62 0 -103.5 42t-41.5 105v702l-308 -493q-43 -66 -122 -66q-83 0 -123 66l-308 491v-700q0 -63 -41.5 -105t-103.5 -42
q-63 0 -105 42t-42 105v1161z" />
    <glyph glyph-name="N" unicode="N" horiz-adv-x="1503" 
d="M111 129v1159q0 69 47 116.5t116 47.5q84 0 136 -68l690 -876v799q0 61 42 103t103 42q63 0 105.5 -41.5t42.5 -103.5v-1162q0 -69 -48 -116t-118 -47q-79 0 -133 67l-691 875v-795q0 -63 -41.5 -105t-103.5 -42q-63 0 -105 42t-42 105z" />
    <glyph glyph-name="O" unicode="O" horiz-adv-x="1646" 
d="M70 717q0 154 58 290.5t158 234.5t240 155t297 57q210 0 383 -97t272 -266t99 -374t-99 -374t-272 -266t-383 -97q-157 0 -297 57t-240 155t-158 234.5t-58 290.5zM373 717q0 -198 130 -333.5t320 -135.5q192 0 321.5 135.5t129.5 333.5t-129.5 333.5t-321.5 135.5
q-190 0 -320 -135.5t-130 -333.5z" />
    <glyph glyph-name="P" unicode="P" horiz-adv-x="1267" 
d="M111 1288q0 62 42 104t105 42h459q236 0 381 -135.5t145 -344.5t-144.5 -341t-381.5 -132h-314v-352q0 -63 -41.5 -105t-103.5 -42q-63 0 -105 42t-42 105v1159zM403 741h314q100 0 161.5 60.5t61.5 154.5q0 95 -61.5 156.5t-161.5 61.5h-314v-433z" />
    <glyph glyph-name="Q" unicode="Q" horiz-adv-x="1646" 
d="M874 383q-37 44 -31.5 101t50.5 94q44 38 99.5 33t92.5 -50l105 -123q84 124 84 279q0 198 -129.5 333.5t-321.5 135.5q-190 0 -320 -135.5t-130 -333.5t130 -333.5t320 -135.5q79 0 146 24zM70 717q0 154 58 290.5t158 234.5t240 155t297 57q210 0 383 -97t272 -266
t99 -374q0 -145 -51.5 -274.5t-145.5 -229.5l88 -104q38 -44 33 -101.5t-49 -95.5q-44 -37 -100.5 -31.5t-94.5 49.5l-102 121q-148 -71 -332 -71q-157 0 -297 57t-240 155t-158 234.5t-58 290.5z" />
    <glyph glyph-name="R" unicode="R" horiz-adv-x="1320" 
d="M111 1288q0 62 42 104t105 42h469q227 0 366.5 -130t139.5 -329q0 -152 -82 -265.5t-227 -160.5l250 -330q36 -54 30.5 -106.5t-47.5 -91.5t-98 -39q-70 0 -117 59l-362 477h-177v-389q0 -63 -41.5 -105t-103.5 -42q-63 0 -105 42t-42 105v1159zM403 778h324
q91 0 148 55.5t57 141.5q0 87 -57 143t-148 56h-324v-396z" />
    <glyph glyph-name="S" unicode="S" horiz-adv-x="1288" 
d="M651 -20q-221 0 -371.5 99t-158.5 234q-1 63 40.5 102.5t104.5 39.5q39 0 67 -16t56 -48q94 -158 287 -158q104 0 162.5 47t58.5 119q0 44 -26 76.5t-70 53.5t-101 38t-120 34.5t-126 38t-120 53t-101 75.5t-70 110t-26 152q0 181 152 302.5t375 121.5
q206 0 352.5 -100.5t154.5 -233.5q1 -63 -41 -102t-106 -39q-39 0 -66.5 16t-54.5 47q-44 69 -109 114.5t-149 45.5q-94 0 -149.5 -43t-55.5 -112q0 -42 26 -73t70 -51t101 -36.5t120 -33.5t126 -38t120 -55t101 -79t70 -115t26 -158q0 -121 -73 -219.5t-198.5 -153.5
t-277.5 -55z" />
    <glyph glyph-name="T" unicode="T" horiz-adv-x="1212" 
d="M459 129v1045h-328q-54 0 -91.5 38t-37.5 93q0 54 37.5 91.5t91.5 37.5h948q55 0 93 -37.5t38 -91.5q0 -55 -38 -93t-93 -38h-327v-1045q0 -63 -42 -105t-104 -42q-63 0 -105 42t-42 105z" />
    <glyph glyph-name="U" unicode="U" horiz-adv-x="1421" 
d="M90 1307q0 62 42.5 103.5t105.5 41.5q62 0 103.5 -42t41.5 -103v-744q0 -138 90 -226.5t238 -88.5q149 0 238 88t89 227v744q0 61 42 103t104 42q63 0 105 -41.5t42 -103.5v-744q0 -255 -174.5 -419t-445.5 -164q-179 0 -320.5 74.5t-221 207.5t-79.5 301v744z" />
    <glyph glyph-name="V" unicode="V" horiz-adv-x="1441" 
d="M932 133q-26 -71 -83.5 -111t-129.5 -40t-129.5 40.5t-83.5 112.5l-430 1114q-29 75 15.5 139t119.5 64q46 0 83.5 -26.5t55.5 -75.5l377 -1018l379 1018q18 50 54 76t79 26q73 0 113.5 -59.5t13.5 -132.5z" />
    <glyph glyph-name="W" unicode="W" horiz-adv-x="2113" 
d="M100 1262q-19 72 23 131t119 59q57 0 94.5 -33.5t48.5 -85.5l246 -1001l239 966q16 71 72.5 112.5t122.5 41.5q67 0 123 -40.5t72 -113.5l241 -968l244 1009q11 49 47 81t90 32q72 0 112.5 -56.5t22.5 -125.5l-315 -1131q-21 -76 -79.5 -116.5t-129.5 -40.5
q-70 0 -128 40.5t-77 116.5l-231 873l-232 -873q-19 -73 -78 -115t-129 -42q-69 0 -127 40.5t-79 116.5z" />
    <glyph glyph-name="X" unicode="X" horiz-adv-x="1341" 
d="M76 223l405 494l-405 493q-43 57 -35.5 111t51 92.5t96.5 38.5q70 0 113 -55l371 -459l368 459q43 55 113 55q53 0 97 -38.5t51.5 -92.5t-35.5 -111l-406 -493l406 -494q42 -57 35 -110.5t-51 -92t-99 -38.5q-68 0 -111 55l-368 459l-371 -459q-43 -55 -111 -55
q-55 0 -98.5 38.5t-50.5 92t35 110.5z" />
    <glyph glyph-name="Y" unicode="Y" horiz-adv-x="1357" 
d="M410 0q-55 0 -92 37.5t-37 91.5q0 56 37 93.5t92 37.5h122v236l-469 729q-32 56 -25 106t49 85.5t99 35.5q76 0 123 -70l369 -579l373 586q44 63 123 63q54 0 95 -36t48.5 -86.5t-23.5 -104.5l-469 -729v-236h123q54 0 91.5 -38t37.5 -93q0 -54 -37.5 -91.5t-91.5 -37.5
h-538z" />
    <glyph glyph-name="Z" unicode="Z" horiz-adv-x="1249" 
d="M115 219l649 955h-551q-54 0 -91.5 38t-37.5 93q0 54 37.5 91.5t91.5 37.5h821q55 0 93 -37.5t38 -91.5q0 -45 -32 -91l-648 -954h549q56 0 93.5 -38t37.5 -93q0 -54 -38 -91.5t-93 -37.5h-821q-54 0 -91.5 37.5t-37.5 91.5q0 37 31 90z" />
    <glyph glyph-name="a" unicode="a" horiz-adv-x="1103" 
d="M49 283q0 70 24 126.5t62.5 93t93 62.5t110 39t118.5 19l172 16q50 3 74 23t24 61q0 58 -48.5 92.5t-123.5 34.5q-72 0 -126 -30t-110 -97q-45 -45 -100 -45q-54 0 -91.5 37t-37.5 92q0 75 71.5 138.5t177.5 97.5t214 34q131 0 231 -43t160 -137t60 -229v-547
q0 -60 -40 -99.5t-100 -39.5q-59 0 -98 39.5t-39 99.5v131q-92 -272 -365 -272q-129 0 -221 84t-92 219zM326 305q0 -48 36.5 -77t98.5 -29q108 0 187 73.5t79 169.5v23q-22 -17 -94 -27l-178 -20q-60 -8 -94.5 -37.5t-34.5 -75.5z" />
    <glyph glyph-name="b" unicode="b" 
d="M111 1395q0 60 40 99.5t99 39.5t98 -39.5t39 -99.5v-619q51 140 151 220.5t234 80.5q197 0 328 -157.5t131 -391.5t-131 -391t-328 -157q-134 0 -234 80.5t-151 220.5v-160q0 -60 -39 -99.5t-98 -39.5t-99 39.5t-40 99.5v1274zM387 528q0 -128 81.5 -211.5t205.5 -83.5
q115 0 192.5 84t77.5 211q0 126 -78 210.5t-192 84.5q-124 0 -205.5 -84.5t-81.5 -210.5z" />
    <glyph glyph-name="c" unicode="c" horiz-adv-x="1196" 
d="M70 528q0 153 73.5 279t203 198t288.5 72q128 0 240 -52t182 -144q43 -52 43 -101q0 -54 -38 -91.5t-93 -37.5q-60 0 -103 51q-95 121 -231 121q-119 0 -199 -84.5t-80 -210.5q0 -127 80 -211t199 -84q136 0 231 121q44 52 103 52q55 0 93 -38t38 -94q0 -49 -43 -98
q-70 -92 -182 -144t-240 -52q-241 0 -403 157.5t-162 390.5z" />
    <glyph glyph-name="d" unicode="d" 
d="M70 528q0 234 131.5 391.5t328.5 157.5q132 0 232 -79.5t151 -215.5v613q0 60 40 99.5t100 39.5q59 0 98 -39.5t39 -99.5v-1274q0 -60 -39 -99.5t-98 -39.5q-60 0 -100 39.5t-40 99.5v153q-51 -136 -151 -215t-232 -79q-197 0 -328.5 157t-131.5 391zM356 528
q0 -126 78.5 -210.5t192.5 -84.5q125 0 205.5 83.5t80.5 211.5q0 127 -80.5 211t-205.5 84q-113 0 -192 -85t-79 -210z" />
    <glyph glyph-name="e" unicode="e" horiz-adv-x="1249" 
d="M70 528q0 233 159.5 391t395.5 158q224 0 377 -140.5t174 -352.5q6 -63 -34.5 -108.5t-103.5 -45.5h-684q28 -96 105 -154.5t184 -58.5q147 0 252 105q49 36 96 36q50 0 84.5 -32.5t34.5 -81.5t-41 -90q-75 -81 -186 -127.5t-248 -46.5q-241 0 -403 157.5t-162 390.5z
M358 641h535q-28 91 -99.5 145t-168.5 54q-93 0 -165 -54.5t-102 -144.5z" />
    <glyph glyph-name="f" unicode="f" horiz-adv-x="841" 
d="M242 1106q0 220 111 328.5t335 81.5q54 -6 88.5 -38t34.5 -83q0 -53 -36 -89.5t-87 -33.5q-88 8 -129 -28t-41 -122v-65h170q52 0 87.5 -35.5t35.5 -87.5q0 -51 -35.5 -86t-87.5 -35h-170v-692q0 -60 -39 -99.5t-98 -39.5t-99 39.5t-40 99.5v692h-109q-52 0 -87.5 35
t-35.5 86q0 52 35 87.5t88 35.5h109v49z" />
    <glyph glyph-name="g" unicode="g" 
d="M70 545q0 227 131.5 379.5t328.5 152.5q132 0 232 -77t151 -209v145q0 59 40 99t100 40q58 0 97.5 -40t39.5 -99v-817q0 -153 -73.5 -279t-203 -198t-288.5 -72q-127 0 -239 52.5t-183 144.5q-46 60 -41.5 111t42.5 84.5t87 33.5q57 0 104 -51q93 -123 230 -123
q122 0 205 84t83 213v180q-51 -132 -151 -209.5t-232 -77.5q-197 0 -328.5 153t-131.5 380zM356 545q0 -120 80 -200.5t199 -80.5q120 0 199 80.5t79 200.5t-79 199t-199 79q-119 0 -199 -79t-80 -199z" />
    <glyph glyph-name="h" unicode="h" horiz-adv-x="1245" 
d="M111 1395q0 60 40 99.5t99 39.5t98 -39.5t39 -99.5v-596q45 129 140.5 203.5t222.5 74.5q177 0 285 -122.5t108 -313.5v-520q0 -60 -39 -99.5t-98 -39.5t-99.5 39.5t-40.5 99.5v471q0 102 -65.5 167.5t-165.5 65.5q-109 0 -178.5 -65t-69.5 -168v-471q0 -60 -39 -99.5
t-98 -39.5t-99 39.5t-40 99.5v1274z" />
    <glyph glyph-name="i" unicode="i" horiz-adv-x="497" 
d="M111 936q0 58 40.5 98.5t98.5 40.5t97.5 -40t39.5 -99v-815q0 -60 -39 -99.5t-98 -39.5t-99 39.5t-40 99.5v815zM82 1350q0 69 49.5 117.5t118.5 48.5q68 0 117 -48.5t49 -117.5q0 -68 -49 -117t-117 -49q-69 0 -118.5 49t-49.5 117z" />
    <glyph glyph-name="j" unicode="j" horiz-adv-x="538" 
d="M152 936q0 58 40 98.5t99 40.5q58 0 97.5 -40t39.5 -99v-936q0 -99 -21 -177.5t-65.5 -138t-120.5 -89.5t-178 -23q-54 5 -88.5 37.5t-34.5 83.5q0 53 35 88t88 35q60 -2 84.5 32.5t24.5 120.5v967zM123 1350q0 69 49.5 117.5t118.5 48.5q68 0 117 -48.5t49 -117.5
q0 -68 -49.5 -117t-116.5 -49q-69 0 -118.5 49t-49.5 117z" />
    <glyph glyph-name="k" unicode="k" horiz-adv-x="1091" 
d="M111 1395q0 60 40 99.5t99 39.5t98 -39.5t39 -99.5v-770l377 385q65 65 119 65q53 0 90 -36.5t37 -88.5q0 -51 -39 -90l-256 -256l309 -397q31 -36 31 -86q0 -60 -40.5 -99.5t-99.5 -39.5q-65 0 -108 55l-289 369l-131 -132v-153q0 -60 -39 -99.5t-98 -39.5t-99 39.5
t-40 99.5v1274z" />
    <glyph glyph-name="l" unicode="l" horiz-adv-x="497" 
d="M111 1395q0 60 40 99.5t99 39.5t98 -39.5t39 -99.5v-1274q0 -60 -39 -99.5t-98 -39.5t-99 39.5t-40 99.5v1274z" />
    <glyph glyph-name="m" unicode="m" horiz-adv-x="1837" 
d="M111 936q0 58 40.5 98.5t98.5 40.5t97.5 -40t39.5 -99v-123q40 122 125 193t197 71q121 0 208 -75t121 -203q40 130 129 204t207 74q161 0 262 -122.5t101 -313.5v-520q0 -60 -40.5 -99.5t-99.5 -39.5t-98 39.5t-39 99.5v471q0 102 -54 167.5t-138 65.5q-91 0 -149 -65
t-58 -168v-471q0 -60 -39 -99.5t-98 -39.5t-99.5 39.5t-40.5 99.5v471q0 102 -54 167.5t-136 65.5q-91 0 -149 -65t-58 -168v-471q0 -60 -39 -99.5t-98 -39.5t-99 39.5t-40 99.5v815z" />
    <glyph glyph-name="n" unicode="n" horiz-adv-x="1245" 
d="M111 936q0 58 40.5 98.5t98.5 40.5t97.5 -40t39.5 -99v-137q45 129 140.5 203.5t222.5 74.5q177 0 285 -122.5t108 -313.5v-520q0 -60 -39 -99.5t-98 -39.5t-99.5 39.5t-40.5 99.5v471q0 102 -65.5 167.5t-165.5 65.5q-109 0 -178.5 -65t-69.5 -168v-471q0 -60 -39 -99.5
t-98 -39.5t-99 39.5t-40 99.5v815z" />
    <glyph glyph-name="o" unicode="o" horiz-adv-x="1269" 
d="M70 528q0 153 73.5 279t203 198t288.5 72t288.5 -72t203 -198t73.5 -279q0 -233 -162 -390.5t-403 -157.5t-403 157.5t-162 390.5zM356 528q0 -127 80 -211t199 -84q120 0 199 84t79 211q0 126 -79 210.5t-199 84.5q-119 0 -199 -84.5t-80 -210.5z" />
    <glyph glyph-name="p" unicode="p" 
d="M387 528q0 -128 81.5 -211.5t205.5 -83.5q115 0 192.5 84t77.5 211q0 126 -78 210.5t-192 84.5q-124 0 -205.5 -84.5t-81.5 -210.5zM111 -289v1225q0 58 40.5 98.5t98.5 40.5t97.5 -40t39.5 -99v-160q51 140 151 220.5t234 80.5q197 0 328 -157.5t131 -391.5t-131 -391
t-328 -157q-134 0 -234 80.5t-151 220.5v-570q0 -60 -39 -99.5t-98 -39.5t-99 39.5t-40 99.5z" />
    <glyph glyph-name="q" unicode="q" 
d="M70 528q0 234 131.5 391.5t328.5 157.5q132 0 232 -79.5t151 -215.5v154q0 59 40 99t100 40q58 0 97.5 -40t39.5 -99v-1225q0 -60 -39 -99.5t-98 -39.5q-60 0 -100 39.5t-40 99.5v563q-51 -136 -151 -215t-232 -79q-197 0 -328.5 157t-131.5 391zM356 528
q0 -126 78.5 -210.5t192.5 -84.5q125 0 205.5 83.5t80.5 211.5q0 127 -80.5 211t-205.5 84q-113 0 -192 -85t-79 -210z" />
    <glyph glyph-name="r" unicode="r" horiz-adv-x="823" 
d="M111 936q0 58 40.5 98.5t98.5 40.5t97.5 -40t39.5 -99v-141q19 72 48.5 126.5t59 83.5t64 46.5t59.5 22t50 3.5q57 0 95 -37.5t38 -93.5q0 -58 -45.5 -98.5t-118.5 -30.5q-79 9 -137.5 -23t-85.5 -85t-27 -117v-471q0 -60 -39 -99.5t-98 -39.5t-99 39.5t-40 99.5v815z
" />
    <glyph glyph-name="s" unicode="s" horiz-adv-x="1028" 
d="M514 -20q-101 0 -185.5 23.5t-135.5 61t-79 81t-28 85.5q0 53 34 87t87 34q41 0 78 -26q32 -29 50.5 -43.5t54.5 -38t75.5 -34.5t83.5 -11q66 0 108.5 28t42.5 74q0 33 -21 55.5t-57 35.5t-82.5 22t-98 18t-103 21t-98 34t-82.5 53.5t-57 83t-21 119.5q0 143 124 238.5
t310 95.5q100 0 183 -24t134 -61.5t79 -81t28 -85.5q0 -52 -34 -86t-87 -34q-43 0 -80 26q-6 6 -28 27t-32 30t-32.5 25.5t-41 24t-45.5 14t-56 6.5q-64 0 -104 -27t-40 -75q0 -36 26.5 -59.5t70.5 -34t99.5 -22t114 -21t114 -31.5t99.5 -53.5t70.5 -88t26.5 -133.5
q0 -93 -62 -170t-168.5 -120t-234.5 -43z" />
    <glyph glyph-name="t" unicode="t" horiz-adv-x="862" 
d="M133 813q-52 0 -87.5 35t-35.5 86q0 52 35 87.5t88 35.5h109v256q0 60 40 99.5t99 39.5t98 -39.5t39 -99.5v-256h170q52 0 87.5 -35.5t35.5 -87.5q0 -51 -35.5 -86t-87.5 -35h-170v-420q0 -86 41 -121.5t129 -27.5q51 3 87 -33.5t36 -89.5q0 -51 -34.5 -83t-88.5 -38
q-224 -27 -335 81.5t-111 328.5v403h-109z" />
    <glyph glyph-name="u" unicode="u" horiz-adv-x="1193" 
d="M100 936q0 58 40.5 98.5t99.5 40.5q58 0 97.5 -40t39.5 -99v-490q0 -96 61 -154.5t158 -58.5q96 0 157.5 58.5t61.5 154.5v490q0 58 40.5 98.5t98.5 40.5t98 -40t40 -99v-490q0 -208 -139.5 -337t-356.5 -129q-218 0 -357 129t-139 337v490z" />
    <glyph glyph-name="v" unicode="v" horiz-adv-x="1110" 
d="M49 881q-32 77 13 135.5t114 58.5q43 0 78 -24t49 -68l258 -680l252 678q14 43 48 68.5t81 25.5q69 0 108.5 -58.5t12.5 -125.5l-322 -770q-58 -139 -188 -139q-131 0 -186 139z" />
    <glyph glyph-name="w" unicode="w" horiz-adv-x="1734" 
d="M61 887q-23 75 16 131.5t111 56.5q50 0 85.5 -28.5t48.5 -79.5l192 -664l193 643q19 66 66 97.5t104 31.5q56 0 103.5 -31.5t66.5 -97.5l192 -645l193 672q12 47 45 74.5t79 27.5q69 0 106.5 -53.5t14.5 -122.5l-260 -793q-18 -60 -69.5 -92t-112.5 -32q-62 0 -114 32.5
t-70 91.5l-183 539l-182 -539q-19 -59 -70.5 -91.5t-113.5 -32.5q-63 0 -115 32t-70 92z" />
    <glyph glyph-name="x" unicode="x" horiz-adv-x="1073" 
d="M78 209l274 319l-274 318q-29 33 -32 74.5t14 75t51.5 56.5t74.5 23q63 0 105 -51l246 -301l245 301q42 51 105 51q40 0 74.5 -23t51.5 -56.5t14 -75t-32 -74.5l-274 -318l274 -319q29 -32 32 -73t-14 -74.5t-51.5 -56.5t-74.5 -23q-63 0 -105 51l-245 301l-246 -301
q-42 -51 -105 -51q-41 0 -75.5 23t-51.5 56.5t-13.5 74.5t32.5 73z" />
    <glyph glyph-name="y" unicode="y" horiz-adv-x="1110" 
d="M49 881q-29 77 15 135.5t112 58.5q43 0 78 -24t49 -68l258 -702l252 700q14 42 48.5 68t80.5 26q68 0 107.5 -58.5t13.5 -125.5l-492 -1229q-17 -43 -51 -66.5t-76 -23.5q-69 0 -114.5 58.5t-12.5 133.5l93 207z" />
    <glyph glyph-name="z" unicode="z" horiz-adv-x="1093" 
d="M115 205l499 608h-409q-52 0 -86.5 35t-34.5 86q0 53 34.5 88t86.5 35h682q53 0 88 -35.5t35 -87.5q0 -46 -29 -82l-502 -608h408q53 0 88 -35t35 -88q0 -52 -35 -86.5t-88 -34.5h-682q-53 0 -87 34t-34 87q0 42 31 84z" />
    <glyph glyph-name="uni00A0" unicode="&#xa0;" horiz-adv-x="614" 
 />
    <glyph glyph-name="uni00AD" unicode="&#xad;" horiz-adv-x="679" 
d="M174 410q-53 0 -88 35t-35 87q0 51 35.5 86t87.5 35h332q52 0 86.5 -35t34.5 -86q0 -53 -34.5 -87.5t-86.5 -34.5h-332z" />
    <glyph glyph-name="uni2011" unicode="&#x2011;" horiz-adv-x="679" 
d="M174 410q-53 0 -88 35t-35 87q0 51 35.5 86t87.5 35h332q52 0 86.5 -35t34.5 -86q0 -53 -34.5 -87.5t-86.5 -34.5h-332z" />
    </font>
</defs>
</svg>
