<svg xmlns="http://www.w3.org/2000/svg">
<defs>
<font id="AtypTextTRIAL-SemiboldItalic" horiz-adv-x="1300" >
  <font-face 
    font-family="Atyp Text TRIAL Semibold"
    font-weight="600"
    font-style="italic"
    font-stretch="normal"
    units-per-em="2048"
    panose-1="0 0 0 0 0 0 0 0 0 0"
    ascent="1638"
    descent="-410"
    x-height="1057"
    cap-height="1434"
    bbox="-231 -430 2286 1516"
    underline-thickness="102"
    underline-position="-255"
    slope="-12"
    unicode-range="U+000D-2011"
  />
<missing-glyph horiz-adv-x="1617" 
d="M205 0v1208h377v113q0 54 29 83.5t83 29.5h230q54 0 83 -29.5t29 -83.5v-113h377v-1208h-1208zM377 961q0 -33 28 -49t56 -22.5t28 -17.5q0 -18 -30 -18t-72 25l-8 -50q34 -22 80 -22q36 0 60 18.5t24 53.5q0 25 -18 40.5t-39.5 19.5t-39.5 10.5t-18 15.5q0 18 33 18
q28 0 63 -18l8 49q-32 18 -71 18q-36 0 -60 -18t-24 -53zM381 344h70v-168h49v168h63l6 49h-182zM383 602q0 -56 28 -84.5t70 -28.5t78 25l-10 49q-44 -24 -68 -24q-45 0 -45 63q0 64 39 64q33 0 33 -64l53 6q0 47 -21 77t-65 30q-43 0 -67.5 -32t-24.5 -81zM600 897
q0 -40 23.5 -65t64.5 -25t64.5 25t23.5 65v131h-49v-131q0 -41 -39 -41t-39 41v131h-49v-131zM604 393l74 -153v-64h49v64l74 153h-56l-43 -92l-40 92h-58zM606 494h51l11 55h65l10 -55h50l-37 217h-111zM676 598l10 64h29l10 -64h-49zM694 1208h230v113h-230v-113zM840 811
h149l6 49h-53v119h47l6 49h-149l-6 -49h53v-119h-47zM846 643q0 -26 17.5 -41.5t38.5 -20t38.5 -11t17.5 -15.5q0 -18 -30 -18q-32 0 -72 24l-8 -49q36 -23 80 -23q36 0 60 18.5t24 53.5q0 25 -18 40.5t-39.5 19.5t-39.5 10.5t-18 15.5q0 19 33 19q26 0 63 -19l8 49
q-34 19 -71 19q-36 0 -60 -18.5t-24 -53.5zM852 176h49v68h39q35 0 58.5 21t23.5 52t-23.5 53.5t-58.5 22.5h-88v-217zM901 293v51h39q12 0 20.5 -8t8.5 -19q0 -10 -8.5 -17t-20.5 -7h-39zM1051 979h69v-168h49v168h64l6 49h-182zM1081 176h146l6 49h-103v35h97l6 49h-103
v35h97l6 49h-152v-217zM1081 494h146l6 49h-103v35h97l6 49h-103v35h97l6 49h-152v-217z" />
    <glyph glyph-name=".notdef" horiz-adv-x="1617" 
d="M205 0v1208h377v113q0 54 29 83.5t83 29.5h230q54 0 83 -29.5t29 -83.5v-113h377v-1208h-1208zM377 961q0 -33 28 -49t56 -22.5t28 -17.5q0 -18 -30 -18t-72 25l-8 -50q34 -22 80 -22q36 0 60 18.5t24 53.5q0 25 -18 40.5t-39.5 19.5t-39.5 10.5t-18 15.5q0 18 33 18
q28 0 63 -18l8 49q-32 18 -71 18q-36 0 -60 -18t-24 -53zM381 344h70v-168h49v168h63l6 49h-182zM383 602q0 -56 28 -84.5t70 -28.5t78 25l-10 49q-44 -24 -68 -24q-45 0 -45 63q0 64 39 64q33 0 33 -64l53 6q0 47 -21 77t-65 30q-43 0 -67.5 -32t-24.5 -81zM600 897
q0 -40 23.5 -65t64.5 -25t64.5 25t23.5 65v131h-49v-131q0 -41 -39 -41t-39 41v131h-49v-131zM604 393l74 -153v-64h49v64l74 153h-56l-43 -92l-40 92h-58zM606 494h51l11 55h65l10 -55h50l-37 217h-111zM676 598l10 64h29l10 -64h-49zM694 1208h230v113h-230v-113zM840 811
h149l6 49h-53v119h47l6 49h-149l-6 -49h53v-119h-47zM846 643q0 -26 17.5 -41.5t38.5 -20t38.5 -11t17.5 -15.5q0 -18 -30 -18q-32 0 -72 24l-8 -49q36 -23 80 -23q36 0 60 18.5t24 53.5q0 25 -18 40.5t-39.5 19.5t-39.5 10.5t-18 15.5q0 19 33 19q26 0 63 -19l8 49
q-34 19 -71 19q-36 0 -60 -18.5t-24 -53.5zM852 176h49v68h39q35 0 58.5 21t23.5 52t-23.5 53.5t-58.5 22.5h-88v-217zM901 293v51h39q12 0 20.5 -8t8.5 -19q0 -10 -8.5 -17t-20.5 -7h-39zM1051 979h69v-168h49v168h64l6 49h-182zM1081 176h146l6 49h-103v35h97l6 49h-103
v35h97l6 49h-152v-217zM1081 494h146l6 49h-103v35h97l6 49h-103v35h97l6 49h-152v-217z" />
    <glyph glyph-name=".null" horiz-adv-x="0" 
 />
    <glyph glyph-name="nonmarkingreturn" horiz-adv-x="682" 
 />
    <glyph glyph-name="CR" unicode="&#xd;" horiz-adv-x="614" 
 />
    <glyph glyph-name="space" unicode=" " horiz-adv-x="614" 
 />
    <glyph glyph-name="asterisk" unicode="*" horiz-adv-x="870" 
d="M381 692l55 223l-209 -114l-65 166l229 106l-184 111l108 141l181 -131l43 240h178l-55 -224l208 115l66 -164l-229 -108l184 -111l-109 -141l-180 131l-43 -240h-178z" />
    <glyph glyph-name="comma" unicode="," horiz-adv-x="530" 
d="M-70 -197q215 67 256 195q-72 -9 -126 38.5t-54 127.5q0 78 54.5 131t138.5 53q95 0 155 -71t60 -177q0 -158 -113.5 -284t-292.5 -172z" />
    <glyph glyph-name="hyphen" unicode="-" horiz-adv-x="679" 
d="M45 410l53 243h539l-51 -243h-541z" />
    <glyph glyph-name="period" unicode="." horiz-adv-x="530" 
d="M6 164q0 77 53 130.5t129 53.5q75 0 129 -54t54 -130q0 -73 -54.5 -127.5t-128.5 -54.5q-75 0 -128.5 54.5t-53.5 127.5z" />
    <glyph glyph-name="zero" unicode="0" horiz-adv-x="1353" 
d="M111 549q0 135 38 269t107.5 247.5t160 201t203.5 137.5t230 50q225 0 349 -157.5t124 -411.5q0 -135 -38 -269t-107.5 -247.5t-160 -201t-203.5 -137.5t-230 -50q-150 0 -258 74.5t-161.5 201.5t-53.5 293zM414 549q0 -135 54.5 -218t149.5 -83q98 0 192 92.5t152 241
t58 303.5q0 135 -54.5 218t-150.5 83q-97 0 -191 -92.5t-152 -241t-58 -303.5z" />
    <glyph glyph-name="one" unicode="1" horiz-adv-x="1089" 
d="M-41 0l55 260h389l183 850l-412 -100l55 268l721 176l-254 -1194h328l-55 -260h-1010z" />
    <glyph glyph-name="two" unicode="2" horiz-adv-x="1269" 
d="M8 0l51 244l713 536q172 131 172 260q0 67 -44 106.5t-128 39.5q-103 0 -174 -60.5t-92 -171.5h-303q35 230 205.5 365t408.5 135q201 0 319.5 -105t118.5 -268q0 -144 -81 -268.5t-242 -239.5l-432 -313h602l-55 -260h-1039z" />
    <glyph glyph-name="three" unicode="3" horiz-adv-x="1183" 
d="M330 471q-14 -104 31.5 -163.5t142.5 -59.5q121 0 196.5 68t75.5 173q0 75 -53 119.5t-164 44.5h-135l47 221l338 300h-553l55 260h926l-47 -226l-397 -344q54 -11 103 -38.5t92 -71t68 -111t25 -149.5q0 -103 -45.5 -197.5t-123.5 -164t-188.5 -111t-234.5 -41.5
q-240 0 -359 117.5t-99 338.5z" />
    <glyph glyph-name="four" unicode="4" horiz-adv-x="1239" 
d="M-47 272l55 258l897 904h301l-192 -904h176l-55 -258h-177l-55 -272h-293l58 272h-715zM344 530h379l104 490z" />
    <glyph glyph-name="five" unicode="5" horiz-adv-x="1210" 
d="M365 442q-4 -90 43.5 -142t132.5 -52q121 0 207 85.5t86 201.5q0 77 -48.5 124.5t-130.5 47.5q-73 0 -135 -32.5t-102 -86.5l-264 33l274 813h795l-56 -260h-557l-94 -279q112 53 242 53q165 0 275 -100.5t110 -274.5q0 -116 -50 -225t-134 -190t-201.5 -129.5
t-245.5 -48.5q-221 0 -338 112.5t-108 315.5z" />
    <glyph glyph-name="six" unicode="6" horiz-adv-x="1200" 
d="M55 389q0 186 172 402l508 643h369l-375 -480q181 3 291 -98t110 -287q0 -118 -52 -228t-136.5 -188.5t-195.5 -125.5t-226 -47q-211 0 -338 111.5t-127 297.5zM356 424q0 -77 51 -126.5t134 -49.5q114 0 198 84.5t84 197.5q0 78 -51 127.5t-133 49.5q-114 0 -198.5 -85
t-84.5 -198z" />
    <glyph glyph-name="seven" unicode="7" horiz-adv-x="1101" 
d="M59 0l394 588h-412l55 258h529l219 328h-678l55 260h1022l-47 -226l-238 -362h162l-55 -258h-277l-385 -588h-344z" />
    <glyph glyph-name="eight" unicode="8" horiz-adv-x="1255" 
d="M244 989q0 119 76 226t206 173t279 66q185 0 304.5 -99t119.5 -255q0 -101 -63 -197.5t-169 -163.5q150 -95 150 -274q0 -131 -80 -242t-222.5 -177t-314.5 -66q-221 0 -348 99t-127 263q0 127 79.5 236t215.5 172q-106 92 -106 239zM360 397q0 -73 55.5 -115t157.5 -42
q116 0 197.5 63.5t81.5 151.5q0 73 -56.5 118t-156.5 45q-115 0 -197 -66.5t-82 -154.5zM539 989q0 -59 43.5 -97t113.5 -38q91 0 160.5 61t69.5 142q0 61 -43.5 99t-114.5 38q-91 0 -160 -61.5t-69 -143.5z" />
    <glyph glyph-name="nine" unicode="9" horiz-adv-x="1200" 
d="M150 864q0 158 87.5 295t228.5 216t296 79q211 0 338 -112t127 -298q0 -183 -174 -401l-508 -643h-369l377 479q-182 -3 -292.5 98t-110.5 287zM459 903q0 -78 50.5 -127t133.5 -49q114 0 198.5 85t84.5 198q0 77 -52 126.5t-133 49.5q-115 0 -198.5 -85t-83.5 -198z" />
    <glyph glyph-name="A" unicode="A" horiz-adv-x="1503" 
d="M-102 0l884 1434h326l274 -1434h-295l-57 311h-631l-190 -311h-311zM557 571h426l-98 539z" />
    <glyph glyph-name="B" unicode="B" horiz-adv-x="1314" 
d="M0 0l305 1434h596q169 0 274 -93.5t105 -230.5q0 -126 -61 -227t-168 -160q72 -44 111.5 -113t39.5 -151q0 -198 -143.5 -328.5t-364.5 -130.5h-694zM338 252h338q98 0 165.5 62t67.5 149q0 60 -41.5 96.5t-117.5 36.5h-338zM461 838h315q99 0 166.5 63t67.5 150
q0 59 -42 95t-118 36h-315z" />
    <glyph glyph-name="C" unicode="C" horiz-adv-x="1562" 
d="M100 586q0 230 120 430.5t323.5 319t437.5 118.5q238 0 400.5 -116.5t217.5 -299.5l-288 -102q-31 110 -122 180t-224 70q-152 0 -282.5 -81t-206 -213.5t-75.5 -281.5q0 -158 101 -260t262 -102q138 0 260.5 68t196.5 182l264 -111q-53 -83 -127 -154.5t-166.5 -129
t-207.5 -90.5t-236 -33q-284 0 -466 167t-182 439z" />
    <glyph glyph-name="D" unicode="D" horiz-adv-x="1482" 
d="M0 0l305 1434h551q133 0 247.5 -44.5t193.5 -122t124 -184t45 -227.5q0 -171 -69.5 -328.5t-187 -273.5t-281 -185t-342.5 -69h-586zM348 260h252q114 0 218.5 45.5t180 122.5t120 181.5t44.5 217.5q0 157 -99.5 252t-268.5 95h-252z" />
    <glyph glyph-name="E" unicode="E" horiz-adv-x="1150" 
d="M0 0l305 1434h952l-55 -260h-659l-72 -328h641l-55 -258h-641l-68 -328h660l-56 -260h-952z" />
    <glyph glyph-name="F" unicode="F" horiz-adv-x="1069" 
d="M0 0l305 1434h912l-56 -260h-618l-78 -359h598l-55 -260h-598l-117 -555h-293z" />
    <glyph glyph-name="G" unicode="G" horiz-adv-x="1632" 
d="M100 586q0 230 120 430.5t323.5 319t437.5 118.5q238 0 400.5 -116.5t217.5 -299.5l-288 -102q-31 110 -122 180t-224 70q-152 0 -282.5 -81t-206 -213.5t-75.5 -281.5q0 -158 101 -260t262 -102q162 0 296.5 91.5t186.5 207.5h-536l55 260h858q-9 -145 -62 -275.5
t-138 -229.5t-193 -172.5t-232 -111.5t-251 -38q-284 0 -466 167t-182 439z" />
    <glyph glyph-name="H" unicode="H" horiz-adv-x="1470" 
d="M0 0l305 1434h293l-127 -588h664l125 588h292l-305 -1434h-293l125 588h-663l-123 -588h-293z" />
    <glyph glyph-name="I" unicode="I" horiz-adv-x="514" 
d="M0 0l305 1434h293l-305 -1434h-293z" />
    <glyph glyph-name="J" unicode="J" horiz-adv-x="1116" 
d="M287 467q-19 -114 29.5 -166.5t146.5 -52.5q93 0 164.5 62t93.5 165l203 959h293l-207 -975q-33 -152 -122.5 -262t-210.5 -163.5t-261 -53.5q-100 0 -183 29.5t-141 85t-85 140.5t-13 189z" />
    <glyph glyph-name="K" unicode="K" horiz-adv-x="1378" 
d="M938 0l-320 633l-239 -219l-86 -414h-293l305 1434h293l-125 -572l629 572h397l-653 -596l418 -838h-326z" />
    <glyph glyph-name="L" unicode="L" horiz-adv-x="1105" 
d="M0 0l305 1434h293l-250 -1174h660l-56 -260h-952z" />
    <glyph glyph-name="M" unicode="M" horiz-adv-x="1804" 
d="M0 0l305 1434h365l198 -1022l635 1022h385l-305 -1434h-276l211 993l-613 -993h-229l-191 985l-209 -985h-276z" />
    <glyph glyph-name="N" unicode="N" horiz-adv-x="1503" 
d="M0 0l305 1434h285l493 -979l209 979h293l-305 -1434h-285l-493 979l-209 -979h-293z" />
    <glyph glyph-name="O" unicode="O" horiz-adv-x="1646" 
d="M100 586q0 230 120 430.5t323.5 319t437.5 118.5q187 0 333 -74.5t229 -213t83 -318.5q0 -173 -71 -333t-189.5 -277.5t-280.5 -187.5t-337 -70q-284 0 -466 167t-182 439zM401 610q0 -158 101 -260t262 -102q151 0 281 80.5t205 213t75 281.5q0 159 -100 261t-262 102
q-113 0 -217.5 -48t-179.5 -127t-120 -184.5t-45 -216.5z" />
    <glyph glyph-name="P" unicode="P" horiz-adv-x="1267" 
d="M0 0l305 1434h565q206 0 336.5 -115.5t130.5 -284.5q0 -161 -78.5 -287t-219 -196t-318.5 -70h-326l-102 -481h-293zM451 741h303q120 0 200 78t80 191q0 75 -50 119.5t-138 44.5h-303z" />
    <glyph glyph-name="Q" unicode="Q" horiz-adv-x="1646" 
d="M1223 -162l-144 209q-159 -67 -331 -67q-284 0 -466 167t-182 439q0 230 120 430.5t323.5 319t437.5 118.5q187 0 333 -74.5t229 -213t83 -318.5q0 -190 -83.5 -361t-227.5 -294l135 -199zM401 610q0 -158 101 -260t262 -102q86 0 162 24l-154 226l229 157l158 -233
q78 81 122 185t44 216q0 159 -100 261t-262 102q-113 0 -217.5 -48t-179.5 -127t-120 -184.5t-45 -216.5z" />
    <glyph glyph-name="R" unicode="R" horiz-adv-x="1320" 
d="M0 0l305 1434h576q199 0 324.5 -111t125.5 -274q0 -189 -118.5 -329t-313.5 -185l262 -535h-323l-252 518h-185l-108 -518h-293zM457 778h317q107 0 181.5 72t74.5 172q0 67 -46 109.5t-124 42.5h-317z" />
    <glyph glyph-name="S" unicode="S" horiz-adv-x="1288" 
d="M365 438q32 -205 253 -205q112 0 184 51t72 128q0 43 -28 77t-74.5 55.5t-105.5 44t-120.5 42t-120.5 52t-105.5 71t-74.5 101t-28 140.5q0 129 75.5 234.5t205.5 165t288 59.5q219 0 341.5 -107t156.5 -292l-291 -60q-18 99 -75.5 153t-157.5 54q-101 0 -164.5 -47
t-63.5 -119q0 -41 28 -73t74 -52.5t105 -42.5t120 -42t120 -53t105 -73t74 -104t28 -145q0 -139 -80.5 -247.5t-215.5 -166t-298 -57.5q-225 0 -355 105.5t-163 293.5z" />
    <glyph glyph-name="T" unicode="T" horiz-adv-x="1212" 
d="M348 0l250 1174h-440l55 260h1171l-55 -260h-438l-250 -1174h-293z" />
    <glyph glyph-name="U" unicode="U" horiz-adv-x="1421" 
d="M285 1434h293l-187 -869q-30 -139 41.5 -228t218.5 -89q148 0 256.5 88t139.5 227l184 871h293l-193 -908q-35 -167 -138 -291.5t-253 -189.5t-328 -65q-181 0 -310 80.5t-181 222.5t-15 319z" />
    <glyph glyph-name="V" unicode="V" horiz-adv-x="1441" 
d="M446 0l-243 1434h295l170 -1112l645 1112h313l-854 -1434h-326z" />
    <glyph glyph-name="W" unicode="W" horiz-adv-x="2179" 
d="M371 0l-90 1434h292l31 -1104l506 1104h328l37 -1104l499 1104h312l-701 -1434h-344l-47 1018l-481 -1018h-342z" />
    <glyph glyph-name="X" unicode="X" horiz-adv-x="1384" 
d="M-102 0l661 727l-356 707h336l235 -484l430 484h365l-662 -727l357 -707h-338l-234 485l-430 -485h-364z" />
    <glyph glyph-name="Y" unicode="Y" horiz-adv-x="1357" 
d="M186 0l56 260h233l51 236l-344 938h326l219 -648l492 648h344l-744 -938l-51 -236h236l-56 -260h-762z" />
    <glyph glyph-name="Z" unicode="Z" horiz-adv-x="1249" 
d="M-10 0l49 225l854 949h-653l55 260h1044l-49 -226l-852 -948h652l-56 -260h-1044z" />
    <glyph glyph-name="a" unicode="a" horiz-adv-x="1103" 
d="M-2 256q0 153 116 249t326 116l211 20q58 7 84.5 26.5t32.5 55.5q10 58 -30 92.5t-113 34.5q-86 0 -149 -40.5t-87 -119.5l-262 62q48 142 187 233.5t335 91.5q99 0 176.5 -25t133.5 -78t73.5 -135.5t-4.5 -197.5l-137 -641h-277l23 109q-59 -58 -151.5 -93.5
t-188.5 -35.5q-131 0 -215 76t-84 200zM276 291q0 -43 30 -67.5t85 -24.5q108 0 203.5 73t114.5 168l4 25q-38 -20 -101 -27l-180 -20q-78 -9 -117 -43t-39 -84z" />
    <glyph glyph-name="b" unicode="b" 
d="M0 0l322 1516h276l-123 -582q166 143 348 143q186 0 303 -119.5t117 -318.5q0 -104 -32 -204t-90 -181.5t-134 -143.5t-169.5 -96t-190.5 -34q-101 0 -184.5 38.5t-139.5 110.5l-27 -129h-276zM385 459q0 -100 61 -163t162 -63q141 0 244.5 110.5t103.5 254.5
q0 99 -61 162t-160 63q-143 0 -246.5 -110t-103.5 -254z" />
    <glyph glyph-name="c" unicode="c" horiz-adv-x="1196" 
d="M63 436q0 127 52.5 245.5t140 205t208.5 138.5t253 52q172 0 298.5 -90t158.5 -246l-252 -88q-19 81 -78.5 125.5t-145.5 44.5q-141 0 -244.5 -110t-103.5 -254q0 -101 60.5 -163.5t160.5 -62.5q91 0 170 44.5t131 125.5l250 -88q-89 -158 -239.5 -246.5t-325.5 -88.5
q-220 0 -357 124.5t-137 331.5z" />
    <glyph glyph-name="d" unicode="d" 
d="M59 418q0 130 50.5 252t133.5 211t196.5 142.5t234.5 53.5q103 0 187 -39t138 -114l125 592h277l-322 -1516h-276l26 125q-164 -145 -352 -145q-186 0 -302 119.5t-116 318.5zM344 459q0 -100 61 -163t162 -63q141 0 244.5 110.5t103.5 254.5q0 99 -61 162t-160 63
q-143 0 -246.5 -110t-103.5 -254z" />
    <glyph glyph-name="e" unicode="e" horiz-adv-x="1249" 
d="M63 436q0 127 52.5 245.5t140 205t208.5 138.5t253 52q102 0 188.5 -33t146 -92t96 -140.5t37.5 -177.5t-30 -204h-819q7 -100 71 -156.5t164 -56.5q183 0 299 148l220 -103q-83 -123 -226.5 -202.5t-306.5 -79.5q-219 0 -356.5 124.5t-137.5 331.5zM379 641h532
q-6 83 -67.5 141t-153.5 58q-95 0 -179.5 -53.5t-131.5 -145.5z" />
    <glyph glyph-name="f" unicode="f" horiz-adv-x="841" 
d="M131 0l172 813h-213l53 244h213l11 49q44 222 161.5 316t350.5 94h125l-54 -244h-123q-86 0 -124.5 -32.5t-57.5 -117.5l-12 -65h272l-51 -244h-274l-172 -813h-277z" />
    <glyph glyph-name="g" unicode="g" 
d="M61 451q0 167 80 311t217.5 229.5t298.5 85.5q106 0 195.5 -37.5t146.5 -109.5l27 127h277l-207 -971q-50 -234 -221 -375t-408 -141q-168 0 -296 84.5t-169 212.5l250 119q63 -162 229 -162q123 0 219.5 82.5t124.5 212.5l6 26q-156 -133 -331 -133q-192 0 -315.5 116
t-123.5 323zM348 475q0 -94 62 -152.5t163 -58.5q141 0 244 106t103 244q0 92 -63 150.5t-163 58.5q-143 0 -244.5 -104.5t-101.5 -243.5z" />
    <glyph glyph-name="h" unicode="h" horiz-adv-x="1245" 
d="M0 0l322 1516h276l-127 -596q145 157 344 157q131 0 220 -65t121 -172t5 -234l-129 -606h-276l125 590q22 107 -29 171t-162 64q-103 0 -185 -65.5t-104 -167.5l-125 -592h-276z" />
    <glyph glyph-name="i" unicode="i" horiz-adv-x="497" 
d="M0 0l225 1057h277l-226 -1057h-276zM258 1350q0 69 49.5 117.5t118.5 48.5q68 0 117 -48.5t49 -117.5q0 -68 -49 -117t-117 -49q-69 0 -118.5 49t-49.5 117z" />
    <glyph glyph-name="j" unicode="j" horiz-adv-x="538" 
d="M297 1350q0 69 49.5 117.5t118.5 48.5t117.5 -48.5t48.5 -117.5q0 -68 -48.5 -117t-117.5 -49t-118.5 49t-49.5 117zM-231 -428l51 244q111 -1 153 35.5t66 148.5l225 1057h277l-226 -1057q-33 -159 -93 -253t-170.5 -139t-282.5 -36z" />
    <glyph glyph-name="k" unicode="k" horiz-adv-x="1171" 
d="M332 258l-56 -258h-276l322 1516h276l-182 -850l430 391h381l-512 -457l356 -600h-319l-246 414z" />
    <glyph glyph-name="l" unicode="l" horiz-adv-x="497" 
d="M0 0l322 1516h276l-322 -1516h-276z" />
    <glyph glyph-name="m" unicode="m" horiz-adv-x="1837" 
d="M0 0l225 1057h277l-27 -129q131 149 299 149q94 0 167 -48t112 -130q151 178 364 178q121 0 208 -64.5t120 -172.5t6 -234l-127 -606h-276l125 590q22 107 -17.5 171t-130.5 64q-87 0 -157.5 -65.5t-92.5 -167.5l-125 -592h-276l125 590q22 107 -17.5 171t-132.5 64
q-85 0 -155.5 -65.5t-92.5 -167.5l-125 -592h-276z" />
    <glyph glyph-name="n" unicode="n" horiz-adv-x="1245" 
d="M0 0l225 1057h277l-31 -137q145 157 344 157q131 0 220 -65t121 -172t5 -234l-129 -606h-276l125 590q22 107 -29 171t-162 64q-103 0 -185 -65.5t-104 -167.5l-125 -592h-276z" />
    <glyph glyph-name="o" unicode="o" horiz-adv-x="1269" 
d="M63 436q0 127 52.5 245.5t140 205t208.5 138.5t253 52q216 0 352.5 -125.5t136.5 -333.5q0 -127 -52 -244.5t-139 -204t-207.5 -138t-250.5 -51.5q-219 0 -356.5 124.5t-137.5 331.5zM350 459q0 -101 60.5 -163.5t160.5 -62.5q141 0 245 110.5t104 254.5q0 99 -61 162
t-161 63q-141 0 -244.5 -110t-103.5 -254z" />
    <glyph glyph-name="p" unicode="p" 
d="M-88 -410l311 1467h277l-27 -123q166 143 350 143q186 0 303 -119.5t117 -318.5q0 -104 -32 -204t-90 -181.5t-134 -143.5t-169.5 -96t-190.5 -34q-102 0 -186 39t-138 112l-115 -541h-276zM385 459q0 -100 61 -163t162 -63q141 0 244.5 110.5t103.5 254.5q0 99 -61 162
t-160 63q-143 0 -246.5 -110t-103.5 -254z" />
    <glyph glyph-name="q" unicode="q" 
d="M59 418q0 130 50.5 252t133.5 211t196.5 142.5t234.5 53.5q212 0 323 -151l29 131h277l-312 -1467h-276l112 535q-78 -69 -168.5 -107t-181.5 -38q-186 0 -302 119.5t-116 318.5zM344 459q0 -100 61 -163t162 -63q141 0 244.5 110.5t103.5 254.5q0 99 -61 162t-160 63
q-143 0 -246.5 -110t-103.5 -254z" />
    <glyph glyph-name="r" unicode="r" horiz-adv-x="823" 
d="M0 0l225 1057h277l-33 -142q83 100 201 141t227 5l-57 -262q-153 56 -282 -6.5t-157 -200.5l-125 -592h-276z" />
    <glyph glyph-name="s" unicode="s" horiz-adv-x="1028" 
d="M276 342q9 -70 55.5 -106.5t123.5 -36.5q96 0 152.5 33.5t56.5 89.5q0 35 -30 57t-78.5 34t-106.5 22.5t-116.5 29t-107 47.5t-78.5 83.5t-30 131.5q0 143 129.5 246.5t324.5 103.5q180 0 297.5 -84t141.5 -221l-271 -57q-9 70 -54 106.5t-122 36.5q-74 0 -121 -31
t-47 -84q0 -31 23.5 -52t62 -32t87.5 -22.5t100.5 -21t100.5 -31.5t87.5 -51t62 -80t23.5 -119q0 -105 -71 -187.5t-181 -124.5t-235 -42q-186 0 -306.5 84t-142.5 221z" />
    <glyph glyph-name="t" unicode="t" horiz-adv-x="862" 
d="M90 813l53 244h213l66 311l295 86l-84 -397h272l-51 -244h-274l-88 -420q-15 -77 12.5 -113t103.5 -36h125l-53 -244h-105q-211 0 -303 113t-51 315l82 385h-213z" />
    <glyph glyph-name="u" unicode="u" horiz-adv-x="1193" 
d="M213 1057h276l-129 -608q-22 -97 27.5 -156.5t147.5 -59.5q96 0 170 58.5t94 154.5l129 611h276l-137 -647q-42 -205 -196 -317.5t-371 -112.5q-146 0 -249.5 64t-146 179.5t-12.5 261.5z" />
    <glyph glyph-name="v" unicode="v" horiz-adv-x="1122" 
d="M293 0l-193 1057h281l119 -781l450 781h297l-643 -1057h-311z" />
    <glyph glyph-name="w" unicode="w" horiz-adv-x="1734" 
d="M236 0l-115 1057h272l51 -766l387 766h281l59 -764l377 764h291l-565 -1057h-305l-78 645l-352 -645h-303z" />
    <glyph glyph-name="x" unicode="x" horiz-adv-x="1146" 
d="M-86 0l496 532l-273 525h322l153 -336l283 336h340l-496 -535l271 -522h-322l-153 336l-283 -336h-338z" />
    <glyph glyph-name="y" unicode="y" horiz-adv-x="1122" 
d="M55 -410l242 392l-197 1075h281l121 -774l446 774h299l-893 -1467h-299z" />
    <glyph glyph-name="z" unicode="z" horiz-adv-x="1093" 
d="M-10 0l49 225l641 588h-516l51 244h889l-49 -228l-639 -585h516l-53 -244h-889z" />
    <glyph glyph-name="uni00A0" unicode="&#xa0;" horiz-adv-x="614" 
 />
    <glyph glyph-name="uni00AD" unicode="&#xad;" horiz-adv-x="679" 
d="M45 410l53 243h539l-51 -243h-541z" />
    <glyph glyph-name="uni2011" unicode="&#x2011;" horiz-adv-x="679" 
d="M45 410l53 243h539l-51 -243h-541z" />
    </font>
</defs>
</svg>
