<svg xmlns="http://www.w3.org/2000/svg">
<defs>
<font id="AtypTEST-Variable" horiz-adv-x="300" >
  <font-face 
    font-family="Atyp TEST Variable"
    font-weight="400"
    font-stretch="normal"
    units-per-em="1000"
    panose-1="0 0 0 0 0 0 0 0 0 0"
    ascent="800"
    descent="-200"
    x-height="500"
    cap-height="700"
    bbox="-10 -210 990 740"
    underline-thickness="50"
    underline-position="-125"
    unicode-range="U+000D-2011"
  />
<missing-glyph horiz-adv-x="790" 
d="M100 590h184v55q0 26 14.5 40.5t40.5 14.5h112q26 0 40.5 -14.5t14.5 -40.5v-55h184v-590h-590v590zM264 334.5q-10 14.5 -32 14.5q-21 0 -33 -15.5t-12 -39.5q0 -27 14 -41t34 -14q22 0 38 12l-5 24q-21 -12 -33 -12q-22 0 -22 31q0 14 5 22.5t14 8.5q10 0 13 -8t3 -23
l26 3q0 23 -10 37.5zM244 86v82h31l3 24h-89l-3 -24h34v-82h24zM355 86v31l36 75h-27l-21 -45l-20 45h-28l36 -75v-31h24zM321 241l5 27h32l5 -27h24l-18 106h-54l-19 -106h25zM304.5 406q11.5 -12 31.5 -12t31.5 12t11.5 32v64h-24v-64q0 -9 -5 -14.5t-14 -5.5t-14 5.5
t-5 14.5v64h-24v-64q0 -20 11.5 -32zM451 590v55h-112v-55h112zM483 396l3 24h-26v58h23l3 24h-73l-3 -24h26v-58h-23l-3 -24h73zM453 239q18 0 29.5 9t11.5 26q0 15 -10.5 21.5t-27.5 10.5q-18 4 -18 10q0 9 16 9q14 0 31 -9l4 24q-15 9 -35 9q-18 0 -29.5 -9t-11.5 -26
q0 -15 10 -22t27 -11q7 -2 12.5 -4.5t5.5 -5.5q0 -4 -4 -6.5t-11 -2.5q-15 0 -35 12l-4 -24q17 -11 39 -11zM440 86v33h19q17 0 28.5 10.5t11.5 25.5t-11.5 26t-28.5 11h-43v-106h24zM599 86l3 24h-50v17h47l3 24h-50v17h47l3 24h-74v-106h71zM599 241l3 24h-50v17h47l3 24
h-50v17h47l3 24h-74v-106h71zM571 396v82h31l3 24h-89l-3 -24h34v-82h24zM440 168h19q6 0 10 -4t4 -9t-4 -8.5t-10 -3.5h-19v25zM335 323h14l5 -31h-24zM224 394q18 0 29.5 9t11.5 26q0 15 -10.5 21.5t-27.5 10.5q-18 4 -18 10q0 9 16 9q14 0 31 -9l4 24q-15 9 -35 9
q-18 0 -29.5 -9t-11.5 -26q0 -15 10 -22t27 -11q7 -2 12.5 -4.5t5.5 -5.5q0 -4 -4 -6.5t-11 -2.5q-15 0 -35 12l-4 -24q17 -11 39 -11z" />
    <glyph glyph-name=".notdef" horiz-adv-x="790" 
d="M100 590h184v55q0 26 14.5 40.5t40.5 14.5h112q26 0 40.5 -14.5t14.5 -40.5v-55h184v-590h-590v590zM264 334.5q-10 14.5 -32 14.5q-21 0 -33 -15.5t-12 -39.5q0 -27 14 -41t34 -14q22 0 38 12l-5 24q-21 -12 -33 -12q-22 0 -22 31q0 14 5 22.5t14 8.5q10 0 13 -8t3 -23
l26 3q0 23 -10 37.5zM244 86v82h31l3 24h-89l-3 -24h34v-82h24zM355 86v31l36 75h-27l-21 -45l-20 45h-28l36 -75v-31h24zM321 241l5 27h32l5 -27h24l-18 106h-54l-19 -106h25zM304.5 406q11.5 -12 31.5 -12t31.5 12t11.5 32v64h-24v-64q0 -9 -5 -14.5t-14 -5.5t-14 5.5
t-5 14.5v64h-24v-64q0 -20 11.5 -32zM451 590v55h-112v-55h112zM483 396l3 24h-26v58h23l3 24h-73l-3 -24h26v-58h-23l-3 -24h73zM453 239q18 0 29.5 9t11.5 26q0 15 -10.5 21.5t-27.5 10.5q-18 4 -18 10q0 9 16 9q14 0 31 -9l4 24q-15 9 -35 9q-18 0 -29.5 -9t-11.5 -26
q0 -15 10 -22t27 -11q7 -2 12.5 -4.5t5.5 -5.5q0 -4 -4 -6.5t-11 -2.5q-15 0 -35 12l-4 -24q17 -11 39 -11zM440 86v33h19q17 0 28.5 10.5t11.5 25.5t-11.5 26t-28.5 11h-43v-106h24zM599 86l3 24h-50v17h47l3 24h-50v17h47l3 24h-74v-106h71zM599 241l3 24h-50v17h47l3 24
h-50v17h47l3 24h-74v-106h71zM571 396v82h31l3 24h-89l-3 -24h34v-82h24zM440 168h19q6 0 10 -4t4 -9t-4 -8.5t-10 -3.5h-19v25zM335 323h14l5 -31h-24zM224 394q18 0 29.5 9t11.5 26q0 15 -10.5 21.5t-27.5 10.5q-18 4 -18 10q0 9 16 9q14 0 31 -9l4 24q-15 9 -35 9
q-18 0 -29.5 -9t-11.5 -26q0 -15 10 -22t27 -11q7 -2 12.5 -4.5t5.5 -5.5q0 -4 -4 -6.5t-11 -2.5q-15 0 -35 12l-4 -24q17 -11 39 -11z" />
    <glyph glyph-name=".null" horiz-adv-x="0" 
 />
    <glyph glyph-name="nonmarkingreturn" unicode="&#xd;" 
 />
    <glyph glyph-name="space" unicode=" " 
 />
    <glyph glyph-name="asterisk" unicode="*" horiz-adv-x="406" 
d="M186 519l12 -7l-128 -76l-19 33l130 72v-12l-130 72l19 33l128 -76l-12 -7l-2 149h38l-2 -149l-12 7l128 76l19 -33l-130 -72v12l130 -72l-19 -33l-128 76l12 7l2 -149h-38z" />
    <glyph glyph-name="comma" unicode="," horiz-adv-x="180" 
d="M98.5 -75q13.5 24 13.5 44.5t-11 30.5l17 13q-5 -13 -19.5 -16.5t-26.5 4.5t-12 24q0 13 9 21.5t23 8.5q26 0 43 -23t17 -57q0 -20 -6.5 -41t-21 -41.5t-36.5 -37.5l-30 25q27 21 40.5 45z" />
    <glyph glyph-name="hyphen" unicode="-" 
d="M50 269h200v-38h-200v38z" />
    <glyph glyph-name="period" unicode="." horiz-adv-x="180" 
d="M68.5 46.5q8.5 8.5 21.5 8.5t21.5 -8.5t8.5 -21.5t-8.5 -21.5t-21.5 -8.5t-21.5 8.5t-8.5 21.5t8.5 21.5z" />
    <glyph glyph-name="zero" unicode="0" horiz-adv-x="666" 
d="M95 533.5q35 82.5 97.5 129.5t140.5 47t140.5 -47t97.5 -129.5t35 -183.5t-35 -183.5t-97.5 -129.5t-140.5 -47t-140.5 47t-97.5 129.5t-35 183.5t35 183.5zM130 185.5q30 -73.5 83 -115.5t120 -42t120 42t83 115.5t30 164.5t-30 164.5t-83 115.5t-120 42t-120 -42
t-83 -115.5t-30 -164.5t30 -164.5z" />
    <glyph glyph-name="one" unicode="1" horiz-adv-x="540" 
d="M50 38h230v642l17 -13l-247 -65v38l270 70v-672h200v-38h-470v38z" />
    <glyph glyph-name="two" unicode="2" horiz-adv-x="600" 
d="M70 36l301 302q44 45 69 89t25 92q0 68 -45 110.5t-118 42.5q-90 0 -138.5 -52t-48.5 -139h-40q0 66 26 118t77.5 81.5t123.5 29.5q60 0 106 -24t71.5 -67.5t25.5 -99.5q0 -58 -27.5 -107.5t-78.5 -100.5l-286 -286l-7 13h424v-38h-460v36z" />
    <glyph glyph-name="three" unicode="3" horiz-adv-x="570" 
d="M137 74.5q51 -46.5 137 -46.5q60 0 104.5 22.5t68 62t23.5 87.5q0 75 -51.5 124t-154.5 49h-34v36l211 253h-372v38h419v-36l-222 -268v14q79 1 134 -26.5t82.5 -75.5t27.5 -108q0 -59 -28 -107t-81.5 -75.5t-126.5 -27.5q-70 0 -121 25.5t-79.5 71.5t-33.5 107l40 5
q6 -78 57 -124.5z" />
    <glyph glyph-name="four" unicode="4" horiz-adv-x="600" 
d="M20 218l377 482h53v-482h110v-38h-110v-180h-40v180h-390v38zM428 218l-18 -18v500h35l-399 -510l-20 28h402z" />
    <glyph glyph-name="five" unicode="5" horiz-adv-x="580" 
d="M156.5 73q50.5 -45 132.5 -45q58 0 104 23.5t71.5 65.5t25.5 94q0 84 -52 134t-143 50q-52 0 -97.5 -21.5t-74.5 -58.5l-39 9l46 376h346v-38h-312l-38 -311l-7 9q35 35 81.5 54t94.5 19q72 0 125 -27.5t81.5 -78t28.5 -116.5q0 -63 -31 -113.5t-85.5 -79t-124.5 -28.5
q-67 0 -117 25t-78.5 69t-33.5 100l40 5q6 -71 56.5 -116z" />
    <glyph glyph-name="six" unicode="6" horiz-adv-x="570" 
d="M61 278q11 33 32 67l225 355h47l-196 -309l-2 9q80 42 162.5 29t136.5 -72.5t54 -145.5q0 -63 -29.5 -113t-83 -79t-122.5 -29t-122.5 29t-83 79t-29.5 113q0 34 11 67zM115.5 117q25.5 -42 70 -65.5t99.5 -23.5t99.5 23.5t70 65.5t25.5 94t-25.5 94t-70 66t-99.5 24
t-99.5 -24t-70 -66t-25.5 -94t25.5 -94z" />
    <glyph glyph-name="seven" unicode="7" horiz-adv-x="530" 
d="M455 678l9 -16h-434v38h460v-36l-311 -664h-44zM490 331h-460v38h460v-38z" />
    <glyph glyph-name="eight" unicode="8" horiz-adv-x="630" 
d="M123.5 619.5q28.5 42.5 79 66.5t112.5 24t112.5 -24t79 -66.5t28.5 -95.5q0 -52 -28.5 -93.5t-79 -65.5t-112.5 -24t-112.5 24t-79 65.5t-28.5 93.5q0 53 28.5 95.5zM158.5 448.5q23.5 -33.5 64.5 -52.5t92 -19t92 19t64.5 52.5t23.5 75.5t-23.5 76t-64.5 53t-92 19
t-92 -19t-64.5 -53t-23.5 -76t23.5 -75.5zM537 84q-33 -44 -91.5 -69t-130.5 -25t-130.5 25t-91.5 69t-33 99q0 54 33 98t91.5 69t130.5 25t130.5 -25t91.5 -69t33 -98q0 -55 -33 -99zM128 103.5q28 -35.5 77 -55.5t110 -20t110 20t77 55.5t28 79.5t-28 80t-77 56t-110 20
t-110 -20t-77 -56t-28 -80t28 -79.5z" />
    <glyph glyph-name="nine" unicode="9" horiz-adv-x="570" 
d="M79.5 602q29.5 50 83 79t122.5 29t122.5 -29t83 -79t29.5 -113q0 -34 -11 -67t-32 -67l-225 -355h-47l196 309l2 -9q-80 -42 -162.5 -29t-136.5 72.5t-54 145.5q0 63 29.5 113zM115.5 395q25.5 -42 70 -66t99.5 -24t99.5 24t70 66t25.5 94t-25.5 94t-70 65.5t-99.5 23.5
t-99.5 -23.5t-70 -65.5t-25.5 -94t25.5 -94z" />
    <glyph glyph-name="A" unicode="A" horiz-adv-x="710" 
d="M335 700h40l315 -700h-43l-312 692h40l-312 -692h-43zM140 244h430v-38h-430v38z" />
    <glyph glyph-name="B" unicode="B" horiz-adv-x="610" 
d="M70 700h265q55 0 100 -24.5t70 -66.5t25 -93t-25 -93t-70 -66.5t-100 -24.5h-225v36h255q55 0 100 -24t70 -66t25 -93t-25 -93.5t-70 -67t-100 -24.5h-295v700zM414.5 388.5q35.5 19.5 55.5 53t20 74.5t-20 74t-55.5 52.5t-79.5 19.5h-225v-293h225q44 0 79.5 19.5z
M444.5 57.5q35.5 19.5 55.5 53t20 74.5t-20 74t-55.5 52.5t-79.5 19.5h-255v-293h255q44 0 79.5 19.5z" />
    <glyph glyph-name="C" unicode="C" horiz-adv-x="776" 
d="M97.5 532.5q47.5 82.5 130 130t182.5 47.5q73 0 135.5 -27t108.5 -72.5t72 -102.5l-36 -17q-37 81 -112 131t-168 50q-89 0 -162 -42.5t-115.5 -116t-42.5 -163.5t42.5 -163.5t115.5 -116t162 -42.5q93 0 168 50t112 131l36 -17q-26 -57 -72 -102.5t-108.5 -72.5
t-135.5 -27q-100 0 -182.5 47.5t-130 130t-47.5 182.5t47.5 182.5z" />
    <glyph glyph-name="D" unicode="D" horiz-adv-x="700" 
d="M70 700h228q98 0 179 -46t127 -126t46 -178t-46 -178t-127 -126t-179 -46h-228v700zM456.5 79q71.5 41 112.5 112.5t41 158.5t-41 158.5t-112.5 112.5t-158.5 41h-188v-624h188q87 0 158.5 41z" />
    <glyph glyph-name="E" unicode="E" horiz-adv-x="530" 
d="M70 700h410v-38h-370v-293h360v-38h-360v-293h370v-38h-410v700z" />
    <glyph glyph-name="F" unicode="F" horiz-adv-x="490" 
d="M70 700h390v-38h-350v-293h340v-38h-340v-331h-40v700z" />
    <glyph glyph-name="G" unicode="G" horiz-adv-x="810" 
d="M97.5 532.5q47.5 82.5 130 130t182.5 47.5q73 0 135.5 -27t108.5 -72.5t72 -102.5l-36 -17q-37 81 -112 131t-168 50q-89 0 -162 -42.5t-115.5 -116t-42.5 -163.5t42.5 -163.5t115.5 -116t162 -42.5q87 0 157.5 43t111 115.5t40.5 157.5l18 -13h-381v38h403
q6 -106 -40 -192.5t-128.5 -136.5t-180.5 -50q-100 0 -182.5 47.5t-130 130t-47.5 182.5t47.5 182.5z" />
    <glyph glyph-name="H" unicode="H" horiz-adv-x="710" 
d="M70 700h40v-331h490v331h40v-700h-40v331h-490v-331h-40v700z" />
    <glyph glyph-name="I" unicode="I" horiz-adv-x="180" 
d="M70 700h40v-700h-40v700z" />
    <glyph glyph-name="J" unicode="J" horiz-adv-x="495" 
d="M128 64.5q43 -36.5 109 -36.5q75 0 116.5 50.5t41.5 129.5v492h40v-492q0 -62 -23 -111.5t-67.5 -78t-107.5 -28.5q-54 0 -97 20.5t-69.5 60t-30.5 94.5l40 5q5 -69 48 -105.5z" />
    <glyph glyph-name="K" unicode="K" horiz-adv-x="610" 
d="M233 390l28 28l339 -418h-51zM70 700h40v-416l-13 5l401 411h52l-440 -450v-250h-40v700z" />
    <glyph glyph-name="L" unicode="L" horiz-adv-x="500" 
d="M70 700h40v-662h370v-38h-410v700z" />
    <glyph glyph-name="M" unicode="M" horiz-adv-x="810" 
d="M70 700h40v-700h-40v700zM80 700h43l300 -688h-36l300 688h43l-305 -700h-40zM700 700h40v-700h-40v700z" />
    <glyph glyph-name="N" unicode="N" horiz-adv-x="710" 
d="M70 700h40l519 -672l-29 -10v682h40v-700h-40l-519 672l29 10v-682h-40v700z" />
    <glyph glyph-name="O" unicode="O" horiz-adv-x="820" 
d="M97.5 532.5q47.5 82.5 130 130t182.5 47.5t182.5 -47.5t130 -130t47.5 -182.5t-47.5 -182.5t-130 -130t-182.5 -47.5t-182.5 47.5t-130 130t-47.5 182.5t47.5 182.5zM132.5 186.5q42.5 -73.5 115.5 -116t162 -42.5t162 42.5t115.5 116t42.5 163.5t-42.5 163.5t-115.5 116
t-162 42.5t-162 -42.5t-115.5 -116t-42.5 -163.5t42.5 -163.5z" />
    <glyph glyph-name="P" unicode="P" horiz-adv-x="540" 
d="M70 700h245q58 0 105 -25.5t73.5 -70t26.5 -98.5t-26.5 -98.5t-73.5 -70.5t-105 -26h-205v-311h-40v700zM400.5 370q37.5 21 58.5 56.5t21 79.5t-21 79.5t-58.5 56t-85.5 20.5h-205v-313h205q48 0 85.5 21z" />
    <glyph glyph-name="Q" unicode="Q" horiz-adv-x="820" 
d="M469 224l31 26l246 -293l-31 -26zM97.5 532.5q47.5 82.5 130 130t182.5 47.5t182.5 -47.5t130 -130t47.5 -182.5t-47.5 -182.5t-130 -130t-182.5 -47.5t-182.5 47.5t-130 130t-47.5 182.5t47.5 182.5zM132.5 186.5q42.5 -73.5 115.5 -116t162 -42.5t162 42.5t115.5 116
t42.5 163.5t-42.5 163.5t-115.5 116t-162 42.5t-162 -42.5t-115.5 -116t-42.5 -163.5t42.5 -163.5z" />
    <glyph glyph-name="R" unicode="R" horiz-adv-x="590" 
d="M70 700h266q56 0 101.5 -25t71.5 -68.5t26 -95.5t-26 -95.5t-71.5 -69t-101.5 -25.5h-226v-321h-40v700zM418 379q36 20 56.5 55t20.5 77t-20.5 76.5t-56.5 54.5t-82 20h-226v-303h226q46 0 82 20zM254 349h49l247 -349h-50z" />
    <glyph glyph-name="S" unicode="S" horiz-adv-x="597" 
d="M160.5 69q55.5 -41 145.5 -41q57 0 101.5 18.5t69.5 51.5t25 75q0 52 -27.5 83.5t-68 48.5t-109.5 36q-73 20 -117 38.5t-74.5 55.5t-30.5 98q0 50 28 90t78.5 63.5t114.5 23.5t114.5 -24t82 -66.5t39.5 -96.5l-40 -8q-10 69 -62.5 113t-133.5 44q-52 0 -93 -18
t-64.5 -49.5t-23.5 -71.5q0 -49 26.5 -78t65 -44.5t105.5 -33.5q75 -20 120.5 -39.5t77.5 -59t32 -105.5q0 -54 -31 -95.5t-85 -64.5t-120 -23q-103 0 -171 50t-80 137l40 8q10 -75 65.5 -116z" />
    <glyph glyph-name="T" unicode="T" horiz-adv-x="560" 
d="M260 662h-250v38h540v-38h-250v-662h-40v662z" />
    <glyph glyph-name="U" unicode="U" horiz-adv-x="670" 
d="M100 700v-450q0 -65 30 -115.5t83.5 -78.5t121.5 -28t121.5 28t83.5 78.5t30 115.5v450h40v-450q0 -76 -35 -135t-97.5 -92t-142.5 -33q-79 0 -141.5 33t-98 92.5t-35.5 134.5v450h40z" />
    <glyph glyph-name="V" unicode="V" horiz-adv-x="680" 
d="M20 700h43l296 -692h-38l296 692h43l-300 -700h-40z" />
    <glyph glyph-name="W" unicode="W" horiz-adv-x="1040" 
d="M50 700h42l223 -692h-37l220 692h44l223 -692h-37l220 692h42l-225 -700h-40l-223 692h36l-223 -692h-40z" />
    <glyph glyph-name="X" unicode="X" horiz-adv-x="630" 
d="M301 363v-28l-281 365h50l256 -333h-22l257 333h49l-281 -363v28l281 -365h-50l-256 333h22l-257 -333h-49z" />
    <glyph glyph-name="Y" unicode="Y" horiz-adv-x="590" 
d="M125 38h150v205l-265 457h47l248 -433h-18l247 433h46l-265 -457v-205h150v-38h-340v38z" />
    <glyph glyph-name="Z" unicode="Z" horiz-adv-x="570" 
d="M50 36l443 659l17 -33h-460v38h470v-36l-443 -659l-17 33h460v-38h-470v36z" />
    <glyph glyph-name="a" unicode="a" horiz-adv-x="513" 
d="M84.5 220.5q44.5 35.5 120.5 44.5l131 15q36 4 54 20t18 49q0 58 -38.5 90.5t-103.5 32.5q-62 0 -109 -30.5t-64 -97.5l-38 14q14 52 46.5 86t75 50t91.5 16q79 0 129.5 -42t50.5 -115v-353h-40v128l10 -3q-35 -67 -91.5 -101t-128.5 -34q-47 0 -83 16t-55.5 46.5
t-19.5 70.5q0 62 44.5 97.5zM113.5 53.5q33.5 -25.5 86.5 -25.5q61 0 108 28t73.5 74.5t26.5 99.5v59l10 -3q-9 -21 -30 -30.5t-62 -14.5l-121 -14q-56 -7 -90.5 -32.5t-34.5 -71.5q0 -44 33.5 -69.5z" />
    <glyph glyph-name="b" unicode="b" horiz-adv-x="640" 
d="M70 740h40v-740h-40v740zM105.5 382.5q33.5 59.5 92.5 93.5t132 34t132.5 -34t93.5 -93.5t34 -132.5t-34 -132.5t-93.5 -93.5t-132.5 -34t-132 34t-92.5 93.5t-33.5 132.5t33.5 132.5zM139 137q29 -51 79 -80t112 -29t112 29t79 80t29 113t-29 113t-79 80t-112 29
t-112 -29t-79 -80t-29 -113t29 -113z" />
    <glyph glyph-name="c" unicode="c" horiz-adv-x="599" 
d="M84 382.5q34 59.5 93.5 93.5t132.5 34q82 0 145.5 -42t93.5 -112l-38 -13q-27 59 -80 94t-121 35q-62 0 -112 -29t-79 -80t-29 -113t29 -113t79 -80t112 -29q68 0 121 35t80 94l38 -13q-30 -70 -93.5 -112t-145.5 -42q-73 0 -132.5 34t-93.5 93.5t-34 132.5t34 132.5z
" />
    <glyph glyph-name="d" unicode="d" horiz-adv-x="640" 
d="M84 382.5q34 59.5 93.5 93.5t132.5 34t132 -34t92.5 -93.5t33.5 -132.5t-33.5 -132.5t-92.5 -93.5t-132 -34t-132.5 34t-93.5 93.5t-34 132.5t34 132.5zM119 137q29 -51 79 -80t112 -29t112 29t79 80t29 113t-29 113t-79 80t-112 29t-112 -29t-79 -80t-29 -113t29 -113z
M530 740h40v-740h-40v740z" />
    <glyph glyph-name="e" unicode="e" horiz-adv-x="610" 
d="M80 279h449l-10 -12q-3 56 -31.5 103t-76.5 74.5t-106 27.5q-60 0 -109 -29t-77.5 -80t-28.5 -113t29 -113t79 -80t112 -29q68 0 121 35t80 94l38 -13q-30 -70 -93.5 -112t-145.5 -42q-73 0 -132.5 34t-93.5 93.5t-34 132.5t33.5 132.5t92 93.5t129.5 34q72 0 131 -34.5
t92 -96t32 -138.5h-480v38z" />
    <glyph glyph-name="f" unicode="f" horiz-adv-x="395" 
d="M150 462h-120v38h120v80q0 55 17 90.5t52.5 52.5t90.5 17h45v-38h-45q-44 0 -70.5 -12t-38 -38.5t-11.5 -71.5v-80h165v-38h-165v-462h-40v462z" />
    <glyph glyph-name="g" unicode="g" horiz-adv-x="640" 
d="M84 382.5q34 59.5 93.5 93.5t132.5 34t132 -34t92.5 -93.5t33.5 -132.5t-33.5 -132.5t-92.5 -93.5t-132 -34t-132.5 34t-93.5 93.5t-34 132.5t34 132.5zM119 137q29 -51 79 -80t112 -29t112 29t79 80t29 113t-29 113t-79 80t-112 29t-112 -29t-79 -80t-29 -113t29 -113z
M189 -137q53 -35 121 -35q62 0 112 29t79 80t29 113v450h40v-450q0 -73 -34 -132.5t-93.5 -93.5t-132.5 -34q-82 0 -145.5 42t-93.5 112l38 13q27 -59 80 -94z" />
    <glyph glyph-name="h" unicode="h" horiz-adv-x="579" 
d="M70 740h40v-345l-6 8q27 49 77 78t111 29q62 0 113 -29t80 -79.5t29 -112.5v-289h-40v289q0 51 -24 93t-65.5 66t-92.5 24t-92.5 -24t-65.5 -66t-24 -93v-289h-40v740z" />
    <glyph glyph-name="i" unicode="i" horiz-adv-x="180" 
d="M70 500h40v-500h-40v500zM68.5 676.5q8.5 8.5 21.5 8.5t21.5 -8.5t8.5 -21.5t-8.5 -21.5t-21.5 -8.5t-21.5 8.5t-8.5 21.5t8.5 21.5z" />
    <glyph glyph-name="j" unicode="j" horiz-adv-x="200" 
d="M88.5 676.5q8.5 8.5 21.5 8.5t21.5 -8.5t8.5 -21.5t-8.5 -21.5t-21.5 -8.5t-21.5 8.5t-8.5 21.5t8.5 21.5zM48.5 -160.5q21.5 8.5 31.5 29.5t10 57v574h40v-574q0 -42 -13 -72t-44 -46t-83 -13v38q37 -2 58.5 6.5z" />
    <glyph glyph-name="k" unicode="k" horiz-adv-x="504" 
d="M494 0h-54l-223 275l27 29zM110 0h-40v740h40v-556l-12 5l293 311h53l-334 -350v-150z" />
    <glyph glyph-name="l" unicode="l" horiz-adv-x="180" 
d="M70 740h40v-740h-40v740z" />
    <glyph glyph-name="m" unicode="m" horiz-adv-x="903" 
d="M70 500h40v-99l-6 8q25 45 69 73t99 28q66 0 117 -38t71 -101h-8q22 64 70.5 101.5t113.5 37.5q57 0 103 -29t72.5 -79.5t26.5 -112.5v-289h-40v289q0 51 -21.5 93t-58.5 66t-82 24t-82 -24t-58.5 -66t-21.5 -93v-289h-40v289q0 51 -21.5 93t-58.5 66t-82 24t-82 -24
t-58.5 -66t-21.5 -93v-289h-40v500z" />
    <glyph glyph-name="n" unicode="n" horiz-adv-x="579" 
d="M70 500h40v-105l-6 8q27 49 77 78t111 29q62 0 113 -29t80 -79.5t29 -112.5v-289h-40v289q0 51 -24 93t-65.5 66t-92.5 24t-92.5 -24t-65.5 -66t-24 -93v-289h-40v500z" />
    <glyph glyph-name="o" unicode="o" horiz-adv-x="620" 
d="M84 382.5q34 59.5 93.5 93.5t132.5 34t132.5 -34t93.5 -93.5t34 -132.5t-34 -132.5t-93.5 -93.5t-132.5 -34t-132.5 34t-93.5 93.5t-34 132.5t34 132.5zM119 137q29 -51 79 -80t112 -29t112 29t79 80t29 113t-29 113t-79 80t-112 29t-112 -29t-79 -80t-29 -113t29 -113z
" />
    <glyph glyph-name="p" unicode="p" horiz-adv-x="640" 
d="M70 500h40v-700h-40v700zM105.5 382.5q33.5 59.5 92.5 93.5t132 34t132.5 -34t93.5 -93.5t34 -132.5t-34 -132.5t-93.5 -93.5t-132.5 -34t-132 34t-92.5 93.5t-33.5 132.5t33.5 132.5zM139 137q29 -51 79 -80t112 -29t112 29t79 80t29 113t-29 113t-79 80t-112 29
t-112 -29t-79 -80t-29 -113t29 -113z" />
    <glyph glyph-name="q" unicode="q" horiz-adv-x="640" 
d="M84 382.5q34 59.5 93.5 93.5t132.5 34t132 -34t92.5 -93.5t33.5 -132.5t-33.5 -132.5t-92.5 -93.5t-132 -34t-132.5 34t-93.5 93.5t-34 132.5t34 132.5zM119 137q29 -51 79 -80t112 -29t112 29t79 80t29 113t-29 113t-79 80t-112 29t-112 -29t-79 -80t-29 -113t29 -113z
M530 500h40v-700h-40v700z" />
    <glyph glyph-name="r" unicode="r" horiz-adv-x="344" 
d="M70 500h40v-107l-6 8q20 37 52.5 63t75 38t92.5 7v-41q-57 8 -106.5 -13t-78.5 -65t-29 -101v-289h-40v500z" />
    <glyph glyph-name="s" unicode="s" horiz-adv-x="470" 
d="M130.5 56q39.5 -28 104.5 -28q67 0 111 28t44 73q0 37 -21.5 58t-52.5 31t-85 21q-58 12 -93 24t-59 38t-24 71q0 40 22.5 71.5t63.5 49t94 17.5q77 0 125 -36.5t60 -99.5l-41 -8q-10 50 -46.5 78t-97.5 28q-62 0 -101 -27t-39 -71q0 -32 20 -51t49.5 -28t79.5 -19
q61 -12 97.5 -25t62.5 -41.5t26 -78.5q0 -41 -25 -73t-69.5 -50t-100.5 -18q-54 0 -95 16.5t-66.5 47.5t-33.5 72l41 8q10 -50 49.5 -78z" />
    <glyph glyph-name="t" unicode="t" horiz-adv-x="405" 
d="M30 500h120v198l40 12v-210h165v-38h-165v-302q0 -66 27 -94t93 -28h45v-38h-45q-82 0 -121 39t-39 121v302h-120v38z" />
    <glyph glyph-name="u" unicode="u" horiz-adv-x="554" 
d="M105 500v-299q0 -50 22.5 -89.5t62 -61.5t87.5 -22t87.5 22t62 61.5t22.5 89.5v299h40v-299q0 -61 -28 -109t-76 -75t-108 -27t-108 27t-76 75t-28 109v299h40z" />
    <glyph glyph-name="v" unicode="v" horiz-adv-x="504" 
d="M10 500h44l215 -493h-32l215 493h42l-219 -500h-46z" />
    <glyph glyph-name="w" unicode="w" horiz-adv-x="844" 
d="M20 500h44l182 -493h-26l182 493h42l182 -493h-26l182 493h42l-189 -500h-46l-186 493h38l-186 -493h-46z" />
    <glyph glyph-name="x" unicode="x" horiz-adv-x="484" 
d="M228 264v-28l-208 264h52l181 -232h-22l183 232h50l-208 -264v28l208 -264h-51l-182 233h22l-183 -233h-50z" />
    <glyph glyph-name="y" unicode="y" horiz-adv-x="504" 
d="M230 -1v0l-220 501h44l217 -499h-36l217 499h42l-310 -700h-42z" />
    <glyph glyph-name="z" unicode="z" horiz-adv-x="510" 
d="M50 36l388 459l12 -33h-400v38h410v-36l-388 -459l-12 33h400v-38h-410v36z" />
    <glyph glyph-name="uni00A0" unicode="&#xa0;" 
 />
    <glyph glyph-name="uni00AD" unicode="&#xad;" 
d="M50 269h200v-38h-200v38z" />
    <glyph glyph-name="uni2011" unicode="&#x2011;" 
d="M50 269h200v-38h-200v38z" />
    </font>
</defs>
</svg>
