<svg xmlns="http://www.w3.org/2000/svg">
<defs>
<font id="AtypDisplayTRIAL-Semibold" horiz-adv-x="1300" >
  <font-face 
    font-family="Atyp Display TRIAL Semibold"
    font-weight="600"
    font-stretch="normal"
    units-per-em="2048"
    panose-1="0 0 0 0 0 0 0 0 0 0"
    ascent="1638"
    descent="-410"
    x-height="1057"
    cap-height="1434"
    bbox="-29 -430 2093 1516"
    underline-thickness="102"
    underline-position="-255"
    unicode-range="U+000D-2011"
  />
<missing-glyph horiz-adv-x="1617" 
d="M205 0v1208h377v113q0 54 29 83.5t83 29.5h230q54 0 83 -29.5t29 -83.5v-113h377v-1208h-1208zM377 961q0 -33 28 -49t56 -22.5t28 -17.5q0 -18 -30 -18t-72 25l-8 -50q34 -22 80 -22q36 0 60 18.5t24 53.5q0 25 -18 40.5t-39.5 19.5t-39.5 10.5t-18 15.5q0 18 33 18
q28 0 63 -18l8 49q-32 18 -71 18q-36 0 -60 -18t-24 -53zM381 344h70v-168h49v168h63l6 49h-182zM383 602q0 -56 28 -84.5t70 -28.5t78 25l-10 49q-44 -24 -68 -24q-45 0 -45 63q0 64 39 64q33 0 33 -64l53 6q0 47 -21 77t-65 30q-43 0 -67.5 -32t-24.5 -81zM600 897
q0 -40 23.5 -65t64.5 -25t64.5 25t23.5 65v131h-49v-131q0 -41 -39 -41t-39 41v131h-49v-131zM604 393l74 -153v-64h49v64l74 153h-56l-43 -92l-40 92h-58zM606 494h51l11 55h65l10 -55h50l-37 217h-111zM676 598l10 64h29l10 -64h-49zM694 1208h230v113h-230v-113zM840 811
h149l6 49h-53v119h47l6 49h-149l-6 -49h53v-119h-47zM846 643q0 -26 17.5 -41.5t38.5 -20t38.5 -11t17.5 -15.5q0 -18 -30 -18q-32 0 -72 24l-8 -49q36 -23 80 -23q36 0 60 18.5t24 53.5q0 25 -18 40.5t-39.5 19.5t-39.5 10.5t-18 15.5q0 19 33 19q26 0 63 -19l8 49
q-34 19 -71 19q-36 0 -60 -18.5t-24 -53.5zM852 176h49v68h39q35 0 58.5 21t23.5 52t-23.5 53.5t-58.5 22.5h-88v-217zM901 293v51h39q12 0 20.5 -8t8.5 -19q0 -10 -8.5 -17t-20.5 -7h-39zM1051 979h69v-168h49v168h64l6 49h-182zM1081 176h146l6 49h-103v35h97l6 49h-103
v35h97l6 49h-152v-217zM1081 494h146l6 49h-103v35h97l6 49h-103v35h97l6 49h-152v-217z" />
    <glyph glyph-name=".notdef" horiz-adv-x="1617" 
d="M205 0v1208h377v113q0 54 29 83.5t83 29.5h230q54 0 83 -29.5t29 -83.5v-113h377v-1208h-1208zM377 961q0 -33 28 -49t56 -22.5t28 -17.5q0 -18 -30 -18t-72 25l-8 -50q34 -22 80 -22q36 0 60 18.5t24 53.5q0 25 -18 40.5t-39.5 19.5t-39.5 10.5t-18 15.5q0 18 33 18
q28 0 63 -18l8 49q-32 18 -71 18q-36 0 -60 -18t-24 -53zM381 344h70v-168h49v168h63l6 49h-182zM383 602q0 -56 28 -84.5t70 -28.5t78 25l-10 49q-44 -24 -68 -24q-45 0 -45 63q0 64 39 64q33 0 33 -64l53 6q0 47 -21 77t-65 30q-43 0 -67.5 -32t-24.5 -81zM600 897
q0 -40 23.5 -65t64.5 -25t64.5 25t23.5 65v131h-49v-131q0 -41 -39 -41t-39 41v131h-49v-131zM604 393l74 -153v-64h49v64l74 153h-56l-43 -92l-40 92h-58zM606 494h51l11 55h65l10 -55h50l-37 217h-111zM676 598l10 64h29l10 -64h-49zM694 1208h230v113h-230v-113zM840 811
h149l6 49h-53v119h47l6 49h-149l-6 -49h53v-119h-47zM846 643q0 -26 17.5 -41.5t38.5 -20t38.5 -11t17.5 -15.5q0 -18 -30 -18q-32 0 -72 24l-8 -49q36 -23 80 -23q36 0 60 18.5t24 53.5q0 25 -18 40.5t-39.5 19.5t-39.5 10.5t-18 15.5q0 19 33 19q26 0 63 -19l8 49
q-34 19 -71 19q-36 0 -60 -18.5t-24 -53.5zM852 176h49v68h39q35 0 58.5 21t23.5 52t-23.5 53.5t-58.5 22.5h-88v-217zM901 293v51h39q12 0 20.5 -8t8.5 -19q0 -10 -8.5 -17t-20.5 -7h-39zM1051 979h69v-168h49v168h64l6 49h-182zM1081 176h146l6 49h-103v35h97l6 49h-103
v35h97l6 49h-152v-217zM1081 494h146l6 49h-103v35h97l6 49h-103v35h97l6 49h-152v-217z" />
    <glyph glyph-name=".null" horiz-adv-x="0" 
 />
    <glyph glyph-name="nonmarkingreturn" horiz-adv-x="682" 
 />
    <glyph glyph-name="CR" unicode="&#xd;" horiz-adv-x="614" 
 />
    <glyph glyph-name="space" unicode=" " horiz-adv-x="614" 
 />
    <glyph glyph-name="asterisk" unicode="*" horiz-adv-x="870" 
d="M346 692l10 234l-196 -125l-90 155l204 109l-204 106l90 154l196 -123l-10 232h178l-10 -232l197 123l90 -154l-205 -106l205 -109l-90 -155l-197 125l10 -234h-178z" />
    <glyph glyph-name="comma" unicode="," horiz-adv-x="530" 
d="M82 -209q107 35 156.5 90.5t54.5 118.5q-80 -16 -145.5 30t-65.5 134q0 76 54 130t130 54q102 0 165 -78.5t63 -189.5q0 -164 -85 -277t-227 -159z" />
    <glyph glyph-name="hyphen" unicode="-" horiz-adv-x="679" 
d="M70 410v243h540v-243h-540z" />
    <glyph glyph-name="period" unicode="." horiz-adv-x="530" 
d="M82 164q0 76 54 130t130 54q74 0 128.5 -54t54.5 -130q0 -72 -55 -127t-128 -55q-76 0 -130 54.5t-54 127.5z" />
    <glyph glyph-name="zero" unicode="0" horiz-adv-x="1353" 
d="M90 717q0 208 75.5 376.5t210.5 264.5t302 96t301.5 -96t209.5 -264.5t75 -376.5t-75 -376.5t-209.5 -264.5t-301.5 -96t-302 96t-210.5 264.5t-75.5 376.5zM393 717q0 -202 80.5 -335.5t204.5 -133.5q123 0 203 133.5t80 335.5t-80 335.5t-203 133.5
q-124 0 -204.5 -133.5t-80.5 -335.5z" />
    <glyph glyph-name="one" unicode="1" horiz-adv-x="1089" 
d="M70 0v260h391v862l-391 -102v258l684 176v-1194h327v-260h-1011z" />
    <glyph glyph-name="two" unicode="2" horiz-adv-x="1269" 
d="M119 0v225l600 555q119 111 119 226q0 85 -57 132.5t-150 47.5q-100 0 -157.5 -60.5t-57.5 -171.5h-303q0 231 146 365.5t380 134.5q227 0 363.5 -119t136.5 -323q0 -231 -234 -439l-354 -313h608v-260h-1040z" />
    <glyph glyph-name="three" unicode="3" horiz-adv-x="1183" 
d="M352 471q3 -107 61.5 -165t159.5 -58q103 0 160.5 55t57.5 150q0 93 -67.5 146.5t-195.5 53.5h-131v228l287 293h-565v260h923v-226l-340 -346q171 -21 281.5 -136.5t110.5 -295.5q0 -196 -145.5 -323t-377.5 -127q-231 0 -369 118.5t-153 337.5z" />
    <glyph glyph-name="four" unicode="4" horiz-adv-x="1239" 
d="M8 272v258l465 904h541v-904h176v-258h-176v-272h-293v272h-713zM303 530h418v816z" />
    <glyph glyph-name="five" unicode="5" horiz-adv-x="1210" 
d="M391 442q9 -91 67 -142.5t150 -51.5q100 0 165 64.5t65 164.5q0 101 -62 165.5t-158 64.5q-147 0 -212 -119l-273 33l100 813h797v-260h-565l-62 -478q24 59 62 102t84.5 67.5t95.5 36t103 11.5q77 0 146.5 -27.5t125 -79.5t88.5 -137t33 -192q0 -215 -151.5 -356
t-381.5 -141q-223 0 -359.5 113t-158.5 315z" />
    <glyph glyph-name="six" unicode="6" horiz-adv-x="1200" 
d="M70 477q0 136 102 314l371 643h334l-381 -662q46 55 112.5 83.5t136.5 29t139.5 -27t123.5 -77t88 -128.5t34 -175q0 -212 -150.5 -354.5t-379.5 -142.5q-230 0 -380 141t-150 356zM373 477q0 -100 64.5 -164.5t162.5 -64.5t162.5 64.5t64.5 164.5t-64.5 165t-162.5 65
t-162.5 -65t-64.5 -165z" />
    <glyph glyph-name="seven" unicode="7" horiz-adv-x="1101" 
d="M172 0l281 588h-424v258h546l156 328h-702v260h1024v-226l-168 -362h168v-258h-287l-272 -588h-322z" />
    <glyph glyph-name="eight" unicode="8" horiz-adv-x="1255" 
d="M143 1071q0 160 139.5 271.5t344.5 111.5q207 0 346 -111.5t139 -271.5q0 -108 -71.5 -198t-192.5 -136q149 -43 232 -139.5t83 -216.5q0 -173 -144 -287t-392 -114q-247 0 -392 114t-145 287q0 119 84 215.5t232 140.5q-120 46 -191.5 136t-71.5 198zM385 426
q0 -81 66 -133.5t176 -52.5t176.5 52.5t66.5 133.5q0 83 -67.5 137.5t-175.5 54.5q-106 0 -174 -54.5t-68 -137.5zM436 1022q0 -71 55 -119.5t136 -48.5t135.5 48.5t54.5 119.5q0 72 -54.5 122t-135.5 50t-136 -50t-55 -122z" />
    <glyph glyph-name="nine" unicode="9" horiz-adv-x="1200" 
d="M70 956q0 212 150.5 355t379.5 143t379.5 -141.5t150.5 -356.5q0 -135 -102 -313l-371 -643h-333l385 668q-46 -56 -113 -86t-137 -31.5t-140.5 25.5t-125 76t-89 128.5t-34.5 175.5zM373 956q0 -100 64.5 -164.5t162.5 -64.5t162.5 64.5t64.5 164.5t-64.5 165t-162.5 65
t-162.5 -65t-64.5 -165z" />
    <glyph glyph-name="A" unicode="A" horiz-adv-x="1503" 
d="M8 0l484 1434h520l483 -1434h-313l-103 311h-673l-101 -311h-297zM489 571h506l-252 777z" />
    <glyph glyph-name="B" unicode="B" horiz-adv-x="1314" 
d="M111 0v1434h624q193 0 312.5 -108.5t119.5 -268.5q0 -129 -80 -217t-223 -117q170 -20 267.5 -114.5t97.5 -235.5q0 -160 -119.5 -266.5t-312.5 -106.5h-686zM395 252h350q86 0 137.5 48.5t51.5 123.5t-51.5 123.5t-137.5 48.5h-350v-344zM395 838h312q86 0 138 49.5
t52 124.5t-52 122.5t-138 47.5h-312v-344z" />
    <glyph glyph-name="C" unicode="C" horiz-adv-x="1562" 
d="M70 717q0 154 58 290.5t158 234.5t240 155t297 57q121 0 231 -34.5t194 -93.5t146 -132t99 -156l-270 -104q-53 111 -159.5 181.5t-240.5 70.5q-190 0 -320 -135.5t-130 -333.5t130 -333.5t320 -135.5q134 0 240.5 70.5t159.5 181.5l270 -105q-37 -83 -99 -156
t-146 -131.5t-194 -93t-231 -34.5q-157 0 -297 57t-240 155t-158 234.5t-58 290.5z" />
    <glyph glyph-name="D" unicode="D" horiz-adv-x="1482" 
d="M111 0v1434h569q156 0 292.5 -55.5t233 -150.5t152 -228t55.5 -283t-55.5 -283t-152 -228t-233 -150.5t-292.5 -55.5h-569zM403 260h252q200 0 327.5 129t127.5 328q0 200 -127.5 328.5t-327.5 128.5h-252v-914z" />
    <glyph glyph-name="E" unicode="E" horiz-adv-x="1150" 
d="M111 0v1434h954v-260h-662v-328h641v-258h-641v-328h662v-260h-954z" />
    <glyph glyph-name="F" unicode="F" horiz-adv-x="1069" 
d="M111 0v1434h913v-260h-621v-359h601v-260h-601v-555h-292z" />
    <glyph glyph-name="G" unicode="G" horiz-adv-x="1632" 
d="M70 717q0 154 58 290.5t158 234.5t240 155t297 57q121 0 231 -34.5t194 -93.5t146 -132t99 -156l-270 -104q-53 111 -159.5 181.5t-240.5 70.5q-190 0 -320 -135.5t-130 -333.5t130 -333.5t320 -135.5q162 0 273.5 88.5t138.5 210.5h-530v260h854q14 -147 -19 -279
t-102 -230.5t-165 -171t-211.5 -109.5t-238.5 -37q-157 0 -297 57t-240 155t-158 234.5t-58 290.5z" />
    <glyph glyph-name="H" unicode="H" horiz-adv-x="1470" 
d="M111 0v1434h292v-588h664v588h293v-1434h-293v588h-664v-588h-292z" />
    <glyph glyph-name="I" unicode="I" horiz-adv-x="514" 
d="M111 0v1434h292v-1434h-292z" />
    <glyph glyph-name="J" unicode="J" horiz-adv-x="1116" 
d="M309 467q4 -112 63.5 -165.5t147.5 -53.5q96 0 154.5 62.5t58.5 164.5v959h293v-959q0 -151 -70.5 -265t-186 -172t-257.5 -58q-203 0 -340.5 117.5t-155.5 326.5z" />
    <glyph glyph-name="K" unicode="K" horiz-adv-x="1378" 
d="M1022 0l-432 625l-187 -211v-414h-292v1434h292v-613l537 613h365l-517 -584l586 -850h-352z" />
    <glyph glyph-name="L" unicode="L" horiz-adv-x="1105" 
d="M111 0v1434h292v-1174h662v-260h-954z" />
    <glyph glyph-name="M" unicode="M" horiz-adv-x="1804" 
d="M111 0v1434h540l254 -1358l256 1358h533v-1434h-277v1358l-256 -1358h-518l-256 1368v-1368h-276z" />
    <glyph glyph-name="N" unicode="N" horiz-adv-x="1503" 
d="M111 0v1434h567l422 -1371v1371h293v-1434h-570l-420 1370v-1370h-292z" />
    <glyph glyph-name="O" unicode="O" horiz-adv-x="1646" 
d="M70 717q0 154 58 290.5t158 234.5t240 155t297 57q210 0 383 -97t272 -266t99 -374t-99 -374t-272 -266t-383 -97q-157 0 -297 57t-240 155t-158 234.5t-58 290.5zM373 717q0 -198 130 -333.5t320 -135.5q192 0 321.5 135.5t129.5 333.5t-129.5 333.5t-321.5 135.5
q-190 0 -320 -135.5t-130 -333.5z" />
    <glyph glyph-name="P" unicode="P" horiz-adv-x="1267" 
d="M111 0v1434h606q236 0 381 -135.5t145 -344.5t-144.5 -341t-381.5 -132h-314v-481h-292zM403 741h314q100 0 161.5 60.5t61.5 154.5q0 95 -61.5 156.5t-161.5 61.5h-314v-433z" />
    <glyph glyph-name="Q" unicode="Q" horiz-adv-x="1646" 
d="M1335 -162l-180 213q-155 -71 -332 -71q-157 0 -297 57t-240 155t-158 234.5t-58 290.5t58 290.5t158 234.5t240 155t297 57q210 0 383 -97t272 -266t99 -374q0 -145 -51.5 -274.5t-145.5 -229.5l166 -197zM373 717q0 -198 130 -333.5t320 -135.5q77 0 148 24l-172 203
l211 178l180 -215q84 124 84 279q0 198 -129.5 333.5t-321.5 135.5q-190 0 -320 -135.5t-130 -333.5z" />
    <glyph glyph-name="R" unicode="R" horiz-adv-x="1320" 
d="M111 0v1434h616q227 0 366.5 -130t139.5 -331q0 -154 -84.5 -270.5t-233.5 -163.5l357 -539h-348l-336 510h-185v-510h-292zM403 778h324q91 0 148 55.5t57 141.5q0 87 -57 143t-148 56h-324v-396z" />
    <glyph glyph-name="S" unicode="S" horiz-adv-x="1288" 
d="M385 438q18 -97 87 -151t187 -54q105 0 171.5 48t66.5 118q0 44 -26.5 76.5t-71.5 53.5t-103 38t-122.5 34.5t-129 38t-122.5 53t-103 75.5t-71.5 110t-26.5 152q0 119 69.5 216.5t190 152.5t266.5 55q223 0 368.5 -110.5t172.5 -288.5l-297 -60q-18 95 -84.5 151
t-169.5 56q-95 0 -154 -43.5t-59 -111.5q0 -42 26.5 -73t71.5 -51t103 -36.5t122.5 -33.5t129 -38t122.5 -55t103 -79t71.5 -115t26.5 -158q0 -121 -73 -219.5t-198.5 -153.5t-277.5 -55q-232 0 -383.5 108.5t-179.5 290.5z" />
    <glyph glyph-name="T" unicode="T" horiz-adv-x="1212" 
d="M459 0v1174h-439v260h1172v-260h-440v-1174h-293z" />
    <glyph glyph-name="U" unicode="U" horiz-adv-x="1421" 
d="M90 1434h293v-871q0 -138 90 -226.5t238 -88.5q149 0 238 88t89 227v871h293v-871q0 -255 -174.5 -419t-445.5 -164q-179 0 -320.5 74.5t-221 207.5t-79.5 301v871z" />
    <glyph glyph-name="V" unicode="V" horiz-adv-x="1441" 
d="M465 0l-457 1434h311l410 -1350l408 1350h297l-459 -1434h-510z" />
    <glyph glyph-name="W" unicode="W" horiz-adv-x="2179" 
d="M322 0l-236 1434h293l223 -1352l213 1352h549l213 -1356l221 1356h295l-235 -1434h-564l-209 1341l-211 -1341h-552z" />
    <glyph glyph-name="X" unicode="X" horiz-adv-x="1384" 
d="M8 0l510 715l-510 719h357l331 -484l332 484h348l-510 -715l510 -719h-356l-332 483l-332 -483h-348z" />
    <glyph glyph-name="Y" unicode="Y" horiz-adv-x="1357" 
d="M299 0v260h233v236l-544 938h344l356 -648l354 648h328l-545 -938v-236h234v-260h-760z" />
    <glyph glyph-name="Z" unicode="Z" horiz-adv-x="1249" 
d="M102 0v518l953 656h-953v260h1045v-519l-952 -655h952v-260h-1045z" />
    <glyph glyph-name="a" unicode="a" horiz-adv-x="1103" 
d="M49 283q0 70 24 126t62.5 92.5t93.5 62.5t109.5 39.5t118.5 19.5l172 16q50 3 74 23t24 61q0 58 -48.5 92.5t-123.5 34.5q-83 0 -135 -42t-66 -118l-274 62q23 141 149.5 233t323.5 92q131 0 231 -43t160 -137t60 -229v-668h-277v262q-88 -282 -365 -282q-129 0 -221 84
t-92 219zM326 305q0 -48 36.5 -77t98.5 -29q108 0 187 73.5t79 169.5v27q-25 -22 -94 -31l-178 -20q-60 -8 -94.5 -37.5t-34.5 -75.5z" />
    <glyph glyph-name="b" unicode="b" 
d="M111 0v1516h276v-762q47 149 149 236t240 87q129 0 233.5 -72t163 -197.5t58.5 -279.5t-58.5 -279.5t-163 -197t-233.5 -71.5q-138 0 -240 87t-149 236v-303h-276zM387 528q0 -128 81.5 -211.5t207.5 -83.5q113 0 190.5 84t77.5 211q0 125 -77.5 210t-190.5 85
q-125 0 -207 -84t-82 -211z" />
    <glyph glyph-name="c" unicode="c" horiz-adv-x="1196" 
d="M70 528q0 153 73.5 279t203 198t288.5 72q171 0 306 -88t202 -248l-254 -88q-35 81 -102 125.5t-152 44.5q-119 0 -199 -84.5t-80 -210.5q0 -127 80 -211t199 -84q85 0 152 44.5t102 125.5l254 -88q-67 -159 -202 -247t-306 -88q-241 0 -403 157.5t-162 390.5z" />
    <glyph glyph-name="d" unicode="d" 
d="M70 528q0 154 59 279.5t163 197.5t232 72q137 0 239.5 -86t149.5 -231v756h277v-1516h-277v297q-47 -145 -149.5 -231t-239.5 -86q-128 0 -232 71.5t-163 197t-59 279.5zM356 528q0 -126 78.5 -210.5t190.5 -84.5q127 0 207.5 83.5t80.5 211.5q0 127 -81 211t-207 84
q-111 0 -190 -85t-79 -210z" />
    <glyph glyph-name="e" unicode="e" horiz-adv-x="1249" 
d="M70 528q0 233 159.5 391t395.5 158q104 0 197.5 -33t163.5 -93.5t117.5 -140.5t65 -178t0.5 -202h-815q28 -96 105 -154.5t184 -58.5q86 0 154.5 39.5t107.5 108.5l228 -103q-71 -129 -201 -205.5t-297 -76.5q-241 0 -403 157.5t-162 390.5zM358 641h535
q-28 91 -99.5 145t-168.5 54q-93 0 -165 -54.5t-102 -144.5z" />
    <glyph glyph-name="f" unicode="f" horiz-adv-x="841" 
d="M242 0v813h-213v244h213v49q0 207 104.5 308.5t321.5 101.5h125v-244h-125q-76 0 -113 -37t-37 -113v-65h275v-244h-275v-813h-276z" />
    <glyph glyph-name="g" unicode="g" 
d="M70 545q0 226 130 379t324 153q137 0 239.5 -84t149.5 -225v289h277v-938q0 -153 -73.5 -279t-203 -198t-288.5 -72q-163 0 -293 77.5t-199 207.5l248 131q80 -164 244 -164q122 0 205 84t83 213v203q-47 -141 -149.5 -225.5t-239.5 -84.5q-194 0 -324 153.5t-130 379.5z
M356 545q0 -120 80 -200.5t197 -80.5q121 0 200.5 80.5t79.5 200.5t-79.5 199t-200.5 79q-118 0 -197.5 -79.5t-79.5 -198.5z" />
    <glyph glyph-name="h" unicode="h" horiz-adv-x="1245" 
d="M111 0v1516h276v-730q42 135 139 213t228 78q175 0 282 -122.5t107 -313.5v-641h-277v592q0 102 -65 167.5t-164 65.5q-110 0 -180 -65t-70 -168v-592h-276z" />
    <glyph glyph-name="i" unicode="i" horiz-adv-x="497" 
d="M111 0v1057h276v-1057h-276zM82 1350q0 69 49.5 117.5t118.5 48.5q68 0 117 -48.5t49 -117.5q0 -68 -49 -117t-117 -49q-69 0 -118.5 49t-49.5 117z" />
    <glyph glyph-name="j" unicode="j" horiz-adv-x="538" 
d="M123 1350q0 69 49.5 117.5t118.5 48.5q68 0 117 -48.5t49 -117.5q0 -68 -49.5 -117t-116.5 -49q-69 0 -118.5 49t-49.5 117zM-29 -428v244q112 -1 146.5 36t34.5 148v1057h276v-1057q0 -100 -22.5 -177t-73.5 -138t-142 -90.5t-219 -22.5z" />
    <glyph glyph-name="k" unicode="k" horiz-adv-x="1171" 
d="M387 258v-258h-276v1516h276v-889l379 430h348l-405 -447l475 -610h-348l-316 403z" />
    <glyph glyph-name="l" unicode="l" horiz-adv-x="497" 
d="M111 0v1516h276v-1516h-276z" />
    <glyph glyph-name="m" unicode="m" horiz-adv-x="1837" 
d="M111 0v1057h276v-256q40 129 126 202.5t200 73.5q122 0 208.5 -75.5t120.5 -204.5q38 130 128 205t208 75q160 0 259.5 -122.5t99.5 -313.5v-641h-277v592q0 102 -54 167.5t-136 65.5q-92 0 -150.5 -65t-58.5 -168v-592h-277v592q0 102 -54 167.5t-134 65.5
q-92 0 -150.5 -65t-58.5 -168v-592h-276z" />
    <glyph glyph-name="n" unicode="n" horiz-adv-x="1245" 
d="M111 0v1057h276v-271q42 135 139 213t228 78q175 0 282 -122.5t107 -313.5v-641h-277v592q0 102 -65 167.5t-164 65.5q-110 0 -180 -65t-70 -168v-592h-276z" />
    <glyph glyph-name="o" unicode="o" horiz-adv-x="1269" 
d="M70 528q0 153 73.5 279t203 198t288.5 72t288.5 -72t203 -198t73.5 -279q0 -233 -162 -390.5t-403 -157.5t-403 157.5t-162 390.5zM356 528q0 -127 80 -211t199 -84q120 0 199 84t79 211q0 126 -79 210.5t-199 84.5q-119 0 -199 -84.5t-80 -210.5z" />
    <glyph glyph-name="p" unicode="p" 
d="M111 -410v1467h276v-303q47 149 149 236t240 87q129 0 233.5 -72t163 -197.5t58.5 -279.5t-58.5 -279.5t-163 -197t-233.5 -71.5q-138 0 -240 87t-149 236v-713h-276zM387 528q0 -128 81.5 -211.5t207.5 -83.5q113 0 190.5 84t77.5 211q0 125 -77.5 210t-190.5 85
q-125 0 -207 -84t-82 -211z" />
    <glyph glyph-name="q" unicode="q" 
d="M70 528q0 154 59 279.5t163 197.5t232 72q137 0 239.5 -86t149.5 -231v297h277v-1467h-277v707q-47 -145 -149.5 -231t-239.5 -86q-128 0 -232 71.5t-163 197t-59 279.5zM356 528q0 -126 78.5 -210.5t190.5 -84.5q127 0 207.5 83.5t80.5 211.5q0 127 -81 211t-207 84
q-111 0 -190 -85t-79 -210z" />
    <glyph glyph-name="r" unicode="r" horiz-adv-x="823" 
d="M111 0v1057h276v-275q21 80 54 138.5t71.5 92.5t84 50t91.5 14.5t94 -16.5v-262q-114 36 -201.5 21.5t-140.5 -76.5t-53 -152v-592h-276z" />
    <glyph glyph-name="s" unicode="s" horiz-adv-x="1028" 
d="M326 342q18 -143 188 -143q84 0 135 31.5t51 78.5q0 35 -26.5 58.5t-70 34t-99.5 21t-114 19.5t-114 31t-99.5 52.5t-70 86t-26.5 131.5q0 143 124 238.5t310 95.5q187 0 307 -82.5t144 -222.5l-275 -57q-21 143 -176 143q-67 0 -111.5 -28.5t-44.5 -73.5
q0 -36 26.5 -59.5t70.5 -34t99.5 -22t114 -21t114 -31.5t99.5 -53.5t70.5 -88t26.5 -133.5q0 -93 -62 -170t-168.5 -120t-234.5 -43q-194 0 -317.5 82.5t-147.5 222.5z" />
    <glyph glyph-name="t" unicode="t" horiz-adv-x="862" 
d="M29 813v244h213v311l276 86v-397h275v-244h-275v-420q0 -76 36.5 -112.5t113.5 -36.5h125v-244h-125q-217 0 -321.5 101.5t-104.5 308.5v403h-213z" />
    <glyph glyph-name="u" unicode="u" horiz-adv-x="1193" 
d="M100 1057h277v-611q0 -96 61 -154.5t158 -58.5q96 0 157.5 58.5t61.5 154.5v611h277v-611q0 -208 -139.5 -337t-356.5 -129q-218 0 -357 129t-139 337v611z" />
    <glyph glyph-name="v" unicode="v" horiz-adv-x="1122" 
d="M328 0l-340 1057h299l284 -975l283 975h281l-340 -1057h-467z" />
    <glyph glyph-name="w" unicode="w" horiz-adv-x="1734" 
d="M236 0l-228 1057h262l195 -981l153 981h498l156 -983l194 983h260l-227 -1057h-459l-172 987l-174 -987h-458z" />
    <glyph glyph-name="x" unicode="x" horiz-adv-x="1146" 
d="M25 0l383 522l-383 535h340l215 -334l221 334h321l-383 -522l383 -535h-340l-215 334l-221 -334h-321z" />
    <glyph glyph-name="y" unicode="y" horiz-adv-x="1122" 
d="M410 -410l125 410h-224l-323 1057h299l270 -983l297 983h281l-445 -1467h-280z" />
    <glyph glyph-name="z" unicode="z" horiz-adv-x="1093" 
d="M102 0v457l813 356h-813v244h889v-457l-813 -356h813v-244h-889z" />
    <glyph glyph-name="uni00A0" unicode="&#xa0;" horiz-adv-x="614" 
 />
    <glyph glyph-name="uni00AD" unicode="&#xad;" horiz-adv-x="679" 
d="M70 410v243h540v-243h-540z" />
    <glyph glyph-name="uni2011" unicode="&#x2011;" horiz-adv-x="679" 
d="M70 410v243h540v-243h-540z" />
    </font>
</defs>
</svg>
