<svg xmlns="http://www.w3.org/2000/svg">
<defs>
<font id="AtypKidoTRIAL-Bold" horiz-adv-x="1298" >
  <font-face 
    font-family="Atyp Kido TRIAL"
    font-weight="700"
    font-stretch="normal"
    units-per-em="2048"
    panose-1="0 0 0 0 0 0 0 0 0 0"
    ascent="1638"
    descent="-410"
    x-height="1065"
    cap-height="1454"
    bbox="-92 -431.256 2023.53 1546"
    underline-thickness="102"
    underline-position="-255"
    unicode-range="U+000D-2011"
  />
<missing-glyph horiz-adv-x="1617" 
d="M205 0v1208h377v113q0 54 29 83.5t83 29.5h230q54 0 83 -29.5t29 -83.5v-113h377v-1208h-1208zM377 961q0 -33 28 -49t56 -22.5t28 -17.5q0 -18 -30 -18t-72 25l-8 -50q34 -22 80 -22q36 0 60 18.5t24 53.5q0 25 -18 40.5t-39.5 19.5t-39.5 10.5t-18 15.5q0 18 33 18
q28 0 63 -18l8 49q-32 18 -71 18q-36 0 -60 -18t-24 -53zM381 344h70v-168h49v168h63l6 49h-182zM383 602q0 -56 28 -84.5t70 -28.5t78 25l-10 49q-44 -24 -68 -24q-45 0 -45 63q0 64 39 64q33 0 33 -64l53 6q0 47 -21 77t-65 30q-43 0 -67.5 -32t-24.5 -81zM600 897
q0 -40 23.5 -65t64.5 -25t64.5 25t23.5 65v131h-49v-131q0 -41 -39 -41t-39 41v131h-49v-131zM604 393l74 -153v-64h49v64l74 153h-56l-43 -92l-40 92h-58zM606 494h51l11 55h65l10 -55h50l-37 217h-111zM676 598l10 64h29l10 -64h-49zM694 1208h230v113h-230v-113zM840 811
h149l6 49h-53v119h47l6 49h-149l-6 -49h53v-119h-47zM846 643q0 -26 17.5 -41.5t38.5 -20t38.5 -11t17.5 -15.5q0 -18 -30 -18q-32 0 -72 24l-8 -49q36 -23 80 -23q36 0 60 18.5t24 53.5q0 25 -18 40.5t-39.5 19.5t-39.5 10.5t-18 15.5q0 19 33 19q26 0 63 -19l8 49
q-34 19 -71 19q-36 0 -60 -18.5t-24 -53.5zM852 176h49v68h39q35 0 58.5 21t23.5 52t-23.5 53.5t-58.5 22.5h-88v-217zM901 293v51h39q12 0 20.5 -8t8.5 -19q0 -10 -8.5 -17t-20.5 -7h-39zM1051 979h69v-168h49v168h64l6 49h-182zM1081 176h146l6 49h-103v35h97l6 49h-103
v35h97l6 49h-152v-217zM1081 494h146l6 49h-103v35h97l6 49h-103v35h97l6 49h-152v-217z" />
    <glyph glyph-name=".notdef" horiz-adv-x="1617" 
d="M205 0v1208h377v113q0 54 29 83.5t83 29.5h230q54 0 83 -29.5t29 -83.5v-113h377v-1208h-1208zM377 961q0 -33 28 -49t56 -22.5t28 -17.5q0 -18 -30 -18t-72 25l-8 -50q34 -22 80 -22q36 0 60 18.5t24 53.5q0 25 -18 40.5t-39.5 19.5t-39.5 10.5t-18 15.5q0 18 33 18
q28 0 63 -18l8 49q-32 18 -71 18q-36 0 -60 -18t-24 -53zM381 344h70v-168h49v168h63l6 49h-182zM383 602q0 -56 28 -84.5t70 -28.5t78 25l-10 49q-44 -24 -68 -24q-45 0 -45 63q0 64 39 64q33 0 33 -64l53 6q0 47 -21 77t-65 30q-43 0 -67.5 -32t-24.5 -81zM600 897
q0 -40 23.5 -65t64.5 -25t64.5 25t23.5 65v131h-49v-131q0 -41 -39 -41t-39 41v131h-49v-131zM604 393l74 -153v-64h49v64l74 153h-56l-43 -92l-40 92h-58zM606 494h51l11 55h65l10 -55h50l-37 217h-111zM676 598l10 64h29l10 -64h-49zM694 1208h230v113h-230v-113zM840 811
h149l6 49h-53v119h47l6 49h-149l-6 -49h53v-119h-47zM846 643q0 -26 17.5 -41.5t38.5 -20t38.5 -11t17.5 -15.5q0 -18 -30 -18q-32 0 -72 24l-8 -49q36 -23 80 -23q36 0 60 18.5t24 53.5q0 25 -18 40.5t-39.5 19.5t-39.5 10.5t-18 15.5q0 19 33 19q26 0 63 -19l8 49
q-34 19 -71 19q-36 0 -60 -18.5t-24 -53.5zM852 176h49v68h39q35 0 58.5 21t23.5 52t-23.5 53.5t-58.5 22.5h-88v-217zM901 293v51h39q12 0 20.5 -8t8.5 -19q0 -10 -8.5 -17t-20.5 -7h-39zM1051 979h69v-168h49v168h64l6 49h-182zM1081 176h146l6 49h-103v35h97l6 49h-103
v35h97l6 49h-152v-217zM1081 494h146l6 49h-103v35h97l6 49h-103v35h97l6 49h-152v-217z" />
    <glyph glyph-name=".null" horiz-adv-x="0" 
 />
    <glyph glyph-name="nonmarkingreturn" horiz-adv-x="682" 
 />
    <glyph glyph-name="CR" unicode="&#xd;" horiz-adv-x="614" 
 />
    <glyph glyph-name="space" unicode=" " horiz-adv-x="614" 
 />
    <glyph glyph-name="asterisk" unicode="*" horiz-adv-x="880" 
d="M440 655q-43 0 -72 30t-28 73l6 135l-113 -74q-37 -23 -77 -12.5t-62 47.5q-22 38 -10.5 78.5t49.5 60.5l121 62l-121 61q-38 20 -49.5 60.5t10.5 78.5q22 37 62 47.5t77 -12.5l113 -73l-6 135q-1 43 28 72.5t72 29.5t72.5 -29.5t28.5 -72.5l-6 -135l112 73
q37 23 77 12.5t62 -47.5q22 -38 11 -78.5t-49 -60.5l-121 -61l121 -62q38 -20 49 -60t-11 -77q-22 -38 -62 -49t-77 12l-112 74l6 -135q1 -43 -28.5 -73t-72.5 -30z" />
    <glyph glyph-name="comma" unicode="," horiz-adv-x="573" 
d="M72 -270q0 68 71 96q143 57 166 172q-92 -14 -164.5 41.5t-72.5 155.5q0 89 63 152t152 63q116 0 186 -86t70 -209q0 -185 -92.5 -306.5t-233.5 -170.5q-30 -9 -45 -9q-41 0 -70.5 30.5t-29.5 70.5z" />
    <glyph glyph-name="hyphen" unicode="-" horiz-adv-x="696" 
d="M184 393q-61 0 -102 41t-41 103q0 61 40.5 102t102.5 41h328q62 0 102.5 -41t40.5 -102q0 -62 -41 -103t-102 -41h-328z" />
    <glyph glyph-name="period" unicode="." horiz-adv-x="573" 
d="M72 195q0 89 63 152t152 63q88 0 151.5 -63t63.5 -152q0 -87 -64 -151t-151 -64q-89 0 -152 64t-63 151z" />
    <glyph glyph-name="zero" unicode="0" horiz-adv-x="1351" 
d="M82 717q0 155 45 292t123 234.5t188.5 154t237.5 56.5t237.5 -56.5t188.5 -154t123 -234.5t45 -292t-45 -292t-123 -234.5t-188.5 -154t-237.5 -56.5t-237.5 56.5t-188.5 154t-123 234.5t-45 292zM442 717q0 -180 66.5 -299t167.5 -119t167 119t66 299t-66 299t-167 119
t-167.5 -119t-66.5 -299z" />
    <glyph glyph-name="one" unicode="1" horiz-adv-x="1085" 
d="M41 154q0 64 44.5 108.5t109.5 44.5h235v793l-194 -51q-72 -19 -133.5 25t-61.5 122q0 57 33 97.5t84 52.5l387 100q101 26 167 -22.5t66 -143.5v-973h174q65 0 109.5 -44.5t44.5 -108.5t-45 -109t-109 -45h-757q-65 0 -109.5 45t-44.5 109z" />
    <glyph glyph-name="two" unicode="2" horiz-adv-x="1280" 
d="M1044 307q65 0 109.5 -44.5t44.5 -108.5t-45 -109t-109 -45h-798q-64 0 -109 45t-45 109q0 69 62 127l555 522q98 90 98 186q0 70 -47.5 109t-124.5 39q-58 0 -102.5 -30.5t-67.5 -84.5q-27 -66 -65.5 -101.5t-106.5 -35.5q-73 0 -121.5 48.5t-48.5 121.5q0 77 38.5 149
t106 127.5t166 89t211.5 33.5q237 0 379.5 -121.5t142.5 -333.5q0 -226 -239 -442l-277 -250h393z" />
    <glyph glyph-name="three" unicode="3" horiz-adv-x="1187" 
d="M246 512q114 0 168 -119q20 -45 62 -69.5t99 -24.5q83 0 126.5 43t43.5 123q0 76 -57.5 118t-161.5 42h-34q-65 0 -109.5 44.5t-44.5 108.5q0 61 45 109l223 239h-360q-64 0 -109 45t-45 109t45 109t109 45h676q64 0 108.5 -44.5t44.5 -109.5q0 -63 -43 -106l-289 -306
q156 -30 259.5 -143.5t103.5 -290.5q0 -198 -149.5 -326t-383.5 -128q-184 0 -309.5 74t-179.5 218q-17 44 -10.5 87t27 77t59.5 55t86 21z" />
    <glyph glyph-name="four" unicode="4" horiz-adv-x="1241" 
d="M188 246q-88 0 -148 60.5t-60 148.5q0 74 47 133l612 782q66 84 176 84q95 0 159 -64t64 -159v-678h29q65 0 109.5 -44.5t44.5 -109.5q0 -64 -44.5 -108.5t-109.5 -44.5h-29v-92q0 -74 -50 -124t-124 -50t-124 50t-50 124v92h-502zM373 553h317v408z" />
    <glyph glyph-name="five" unicode="5" horiz-adv-x="1216" 
d="M299 469q95 0 162 -92q57 -78 151 -78q79 0 131 53.5t52 136.5q0 82 -50 136.5t-122 54.5q-33 0 -65 -10.5t-50 -20.5t-49 -31q-31 -20 -46.5 -29t-43.5 -18.5t-56 -9.5q-81 0 -131 57t-41 136l66 530q8 63 56 106.5t116 43.5h532q65 0 109.5 -45t44.5 -109t-44.5 -109
t-109.5 -45h-413l-56 -436q36 119 127.5 176.5t206.5 57.5q75 0 142 -27.5t120.5 -79.5t85 -137t31.5 -191q0 -145 -70.5 -262t-194.5 -182t-278 -65q-160 0 -278 56.5t-182 164.5q-25 40 -26.5 87.5t17.5 87.5t60.5 66.5t95.5 26.5z" />
    <glyph glyph-name="six" unicode="6" horiz-adv-x="1208" 
d="M61 489q0 134 107 324l307 551q51 90 154 90q64 0 112 -40t59 -98.5t-22 -123.5l-237 -420q42 54 104.5 83.5t129 31.5t134 -23.5t120 -73.5t85.5 -126.5t33 -174.5q0 -216 -155.5 -362.5t-387.5 -146.5q-154 0 -278 65t-194.5 182t-70.5 262zM422 489q0 -83 52 -136.5
t130 -53.5t130 53.5t52 136.5t-52 137t-130 54t-130 -54t-52 -137z" />
    <glyph glyph-name="seven" unicode="7" horiz-adv-x="1105" 
d="M252 229l160 334h-258q-64 0 -109 44.5t-45 109.5q0 64 44.5 108.5t109.5 44.5h405l123 256h-528q-64 0 -109 45t-45 109t45 109t109 45h778q64 0 108.5 -44.5t44.5 -109.5q0 -38 -14 -66l-153 -344h14q64 0 108.5 -44t44.5 -109t-44.5 -109.5t-108.5 -44.5h-150
l-215 -481q-22 -50 -64.5 -76t-92.5 -26q-64 0 -112 37.5t-59.5 93t13.5 118.5z" />
    <glyph glyph-name="eight" unicode="8" horiz-adv-x="1245" 
d="M129 1067q0 161 142 274t352 113t351.5 -113t141.5 -274q0 -104 -69 -193.5t-185 -136.5q144 -45 222.5 -140t78.5 -212q0 -176 -143 -290.5t-397 -114.5t-397.5 114.5t-143.5 290.5q0 117 78.5 212t222.5 140q-116 47 -185 136.5t-69 193.5zM432 440q0 -67 50.5 -109
t140.5 -42t140 42t50 109q0 68 -52 113t-138 45t-138.5 -45t-52.5 -113zM479 1010q0 -56 41.5 -94.5t102.5 -38.5t102 38.5t41 94.5q0 57 -41 96t-102 39t-102.5 -39t-41.5 -96z" />
    <glyph glyph-name="nine" unicode="9" horiz-adv-x="1208" 
d="M61 944q0 216 155.5 363t387.5 147q154 0 278 -65.5t194.5 -182.5t70.5 -262q0 -133 -107 -323l-307 -551q-51 -90 -153 -90q-64 0 -112.5 40t-59.5 98.5t22 123.5l238 420q-42 -54 -104.5 -83.5t-129.5 -31.5t-134 23.5t-120 73t-86 126t-33 174.5zM422 944
q0 -83 52 -136.5t130 -53.5t130 53.5t52 136.5t-52 137t-130 54t-130 -54t-52 -137z" />
    <glyph glyph-name="A" unicode="A" horiz-adv-x="1474" 
d="M479 1272q33 86 102.5 134t155.5 48t154.5 -48t103.5 -136l416 -1049q36 -90 -18 -165.5t-146 -75.5q-52 0 -94.5 29t-62.5 81l-74 193h-578l-76 -199q-18 -48 -59.5 -76t-89.5 -28q-87 0 -136 71.5t-16 155.5zM555 590h344l-172 450z" />
    <glyph glyph-name="B" unicode="B" horiz-adv-x="1331" 
d="M102 1260q0 74 50 124t124 50h472q198 0 319 -108t121 -269q0 -128 -79.5 -216t-225.5 -120q173 -20 269.5 -114.5t96.5 -235.5q0 -160 -120.5 -265.5t-319.5 -105.5h-533q-74 0 -124 50t-50 124v1086zM440 297h305q72 0 113 38.5t41 100.5q0 61 -41 99t-113 38h-305
v-276zM440 860h273q72 0 113.5 39t41.5 100t-41.5 99.5t-113.5 38.5h-273v-277z" />
    <glyph glyph-name="C" unicode="C" horiz-adv-x="1488" 
d="M61 717q0 205 99.5 374t273.5 266t385 97q180 0 329.5 -69t240.5 -183q38 -48 38 -108q0 -71 -49 -119.5t-121 -48.5q-76 0 -135 65q-129 144 -303 144q-169 0 -283 -120.5t-114 -297.5t114 -297.5t283 -120.5q175 0 303 143q60 66 135 66q72 0 121 -48.5t49 -119.5
q0 -61 -38 -109q-91 -114 -240.5 -182.5t-329.5 -68.5q-211 0 -385 97t-273.5 266t-99.5 374z" />
    <glyph glyph-name="D" unicode="D" horiz-adv-x="1495" 
d="M668 307q181 0 293 115t112 295q0 181 -111.5 295t-293.5 114h-217v-819h217zM102 174v1086q0 74 50 124t124 50h422q157 0 294 -55.5t234 -150.5t152.5 -228t55.5 -283t-55.5 -283t-152.5 -228t-234 -150.5t-294 -55.5h-422q-74 0 -124 50t-50 124z" />
    <glyph glyph-name="E" unicode="E" horiz-adv-x="1167" 
d="M102 1260q0 74 50 124t124 50h676q64 0 109 -45t45 -109t-45 -109t-109 -45h-501v-256h481q64 0 108.5 -44t44.5 -109t-44.5 -109.5t-108.5 -44.5h-481v-256h501q65 0 109.5 -44.5t44.5 -108.5t-45 -109t-109 -45h-676q-74 0 -124 50t-50 124v1086z" />
    <glyph glyph-name="F" unicode="F" horiz-adv-x="1085" 
d="M102 1260q0 74 50 124t124 50h635q65 0 109.5 -45t44.5 -109t-44.5 -109t-109.5 -45h-460v-297h440q65 0 109 -44.5t44 -108.5q0 -65 -44.5 -109.5t-108.5 -44.5h-440v-368q0 -73 -50.5 -123.5t-124.5 -50.5t-124 50t-50 124v1106z" />
    <glyph glyph-name="G" unicode="G" horiz-adv-x="1626" 
d="M61 717q0 205 99.5 374t273.5 266t385 97q180 0 329.5 -69t240.5 -183q38 -48 38 -108q0 -71 -49 -119.5t-121 -48.5q-76 0 -135 65q-130 144 -303 144q-169 0 -283 -120.5t-114 -297.5t114 -297.5t283 -120.5q131 0 223.5 63t124.5 150h-336q-64 0 -108.5 44.5
t-44.5 109.5q0 64 44 108.5t109 44.5h553q79 0 128.5 -60.5t39.5 -156.5q-19 -176 -122.5 -319t-264.5 -223t-346 -80q-211 0 -385 97t-273.5 266t-99.5 374z" />
    <glyph glyph-name="H" unicode="H" horiz-adv-x="1474" 
d="M1024 563h-573v-409q0 -73 -50.5 -123.5t-124.5 -50.5t-124 50t-50 124v1126q0 74 50 124t124 50t124.5 -50.5t50.5 -123.5v-410h573v410q0 74 50 124t124 50t124 -50t50 -124v-1126q0 -74 -50 -124t-124 -50t-124 50t-50 124v409z" />
    <glyph glyph-name="I" unicode="I" horiz-adv-x="552" 
d="M102 1280q0 74 50 124t124 50t124.5 -50.5t50.5 -123.5v-1126q0 -73 -50.5 -123.5t-124.5 -50.5t-124 50t-50 124v1126z" />
    <glyph glyph-name="J" unicode="J" horiz-adv-x="1142" 
d="M520 -20q-163 0 -294 78.5t-177 205.5q-33 92 11.5 170t142.5 78q103 0 162 -113q51 -100 165 -100q81 0 132 51t51 137v793q0 74 50.5 124t123.5 50t123.5 -50t50.5 -124v-793q0 -119 -44.5 -217t-119.5 -160.5t-172 -96t-205 -33.5z" />
    <glyph glyph-name="K" unicode="K" horiz-adv-x="1372" 
d="M102 1280q0 74 50 124t124 50t124.5 -50.5t50.5 -123.5v-444l575 569q49 49 115 49q50 0 91 -29.5t60 -72t11 -93t-48 -88.5l-372 -364l432 -545q35 -43 38.5 -94t-17.5 -92t-63 -68.5t-93 -27.5q-85 0 -138 65l-411 518l-180 -176v-233q0 -73 -50.5 -123.5t-124.5 -50.5
t-124 50t-50 124v1126z" />
    <glyph glyph-name="L" unicode="L" horiz-adv-x="1126" 
d="M102 1280q0 74 50 124t124 50t124.5 -50.5t50.5 -123.5v-973h501q65 0 109.5 -44.5t44.5 -108.5t-45 -109t-109 -45h-676q-74 0 -124 50t-50 124v1106z" />
    <glyph glyph-name="M" unicode="M" horiz-adv-x="1679" 
d="M102 1260q0 83 56 138.5t139 55.5q110 0 168 -94l383 -631l383 631q58 94 168 94q75 0 126.5 -50.5t51.5 -123.5v-1126q0 -74 -50.5 -124t-123.5 -50t-123.5 50t-50.5 124v561l-244 -391q-49 -78 -145 -78q-43 0 -82.5 20t-63.5 58l-243 391v-561q0 -73 -50.5 -123.5
t-124.5 -50.5t-124 50t-50 124v1106z" />
    <glyph glyph-name="N" unicode="N" horiz-adv-x="1515" 
d="M102 154v1106q0 83 56 138.5t139 55.5q97 0 158 -78l610 -770v674q0 74 50.5 124t123.5 50t123.5 -50t50.5 -124v-1106q0 -83 -55.5 -138.5t-138.5 -55.5q-95 0 -158 77l-610 770v-673q0 -73 -50.5 -123.5t-124.5 -50.5t-124 50t-50 124z" />
    <glyph glyph-name="O" unicode="O" horiz-adv-x="1638" 
d="M61 717q0 205 99.5 374t273.5 266t385 97t385 -97t273.5 -266t99.5 -374t-99.5 -374t-273.5 -266t-385 -97t-385 97t-273.5 266t-99.5 374zM422 717q0 -177 114 -297.5t283 -120.5t283.5 120.5t114.5 297.5t-114.5 297.5t-283.5 120.5t-283 -120.5t-114 -297.5z" />
    <glyph glyph-name="P" unicode="P" horiz-adv-x="1310" 
d="M102 1260q0 74 50 124t124 50h459q251 0 403 -141t152 -361q0 -219 -151 -355.5t-404 -136.5h-284v-286q0 -73 -50.5 -123.5t-124.5 -50.5t-124 50t-50 124v1106zM451 748h284q88 0 141.5 52.5t53.5 135.5q0 84 -53.5 137t-141.5 53h-284v-378z" />
    <glyph glyph-name="Q" unicode="Q" horiz-adv-x="1638" 
d="M848 369q-45 52 -39.5 119.5t59.5 111.5q52 45 119 39.5t111 -59.5l65 -78q54 97 54 215q0 177 -114.5 297.5t-283.5 120.5t-283 -120.5t-114 -297.5t114 -297.5t283 -120.5q47 0 80 8zM61 717q0 205 99.5 374t273.5 266t385 97t385 -97t273.5 -266t99.5 -374
q0 -139 -47.5 -264.5t-134.5 -223.5l63 -75q44 -52 39 -120t-57 -112q-54 -44 -121 -38t-111 59l-82 96q-142 -59 -307 -59q-211 0 -385 97t-273.5 266t-99.5 374z" />
    <glyph glyph-name="R" unicode="R" horiz-adv-x="1351" 
d="M102 1260q0 74 50 124t124 50h461q160 0 282 -63t186.5 -171t64.5 -244q0 -147 -74.5 -259.5t-206.5 -168.5l207 -266q34 -44 37.5 -95t-18 -91.5t-63 -68t-91.5 -27.5q-82 0 -139 69l-338 432h-133v-327q0 -73 -50.5 -123.5t-124.5 -50.5t-124 50t-50 124v1106zM451 788
h286q77 0 124.5 47.5t47.5 120.5q0 74 -47.5 122t-124.5 48h-286v-338z" />
    <glyph glyph-name="S" unicode="S" horiz-adv-x="1304" 
d="M657 -20q-149 0 -273.5 47.5t-193.5 123.5t-69 160q0 73 49.5 118.5t124.5 45.5q45 0 76.5 -18.5t66.5 -55.5q34 -35 61.5 -57.5t79 -43.5t109.5 -21q85 0 129.5 37.5t44.5 95.5q0 36 -25 62.5t-67 43.5t-97 31.5t-115 31t-120.5 37t-115.5 54t-97 77.5t-67 112t-25 153
q0 124 72.5 225t197.5 158t275 57q139 0 259.5 -48t188.5 -124.5t68 -159.5q0 -73 -49.5 -118.5t-124.5 -45.5q-45 0 -76.5 18.5t-66.5 55.5q-34 35 -61 58t-71.5 44t-89.5 21q-76 0 -118.5 -33.5t-42.5 -87.5q0 -38 31.5 -65.5t82.5 -43t116.5 -34.5t134 -37t134 -53
t116.5 -81t82.5 -122.5t31.5 -175.5q0 -124 -75 -225.5t-204.5 -159t-286.5 -57.5z" />
    <glyph glyph-name="T" unicode="T" horiz-adv-x="1228" 
d="M440 154v972h-286q-64 0 -109 45t-45 109t45 109t109 45h921q65 0 109.5 -45t44.5 -109t-44.5 -109t-109.5 -45h-287v-972q0 -74 -50 -124t-124 -50t-124 50t-50 124z" />
    <glyph glyph-name="U" unicode="U" horiz-adv-x="1433" 
d="M82 1280q0 74 50 124t124 50t124 -50t50 -124v-702q0 -122 78.5 -200.5t208.5 -78.5q131 0 209 78.5t78 200.5v702q0 74 50 124t124 50t124 -50t50 -124v-702q0 -261 -178.5 -429.5t-456.5 -168.5t-456.5 168.5t-178.5 429.5v702z" />
    <glyph glyph-name="V" unicode="V" horiz-adv-x="1454" 
d="M981 162q-32 -86 -101 -134t-155 -48q-87 0 -155.5 48t-100.5 136l-389 1048q-33 91 19 166.5t143 75.5q54 0 98.5 -31.5t65.5 -91.5l329 -940l332 940q21 60 63.5 91.5t92.5 31.5q87 0 135 -70.5t16 -156.5z" />
    <glyph glyph-name="W" unicode="W" horiz-adv-x="2109" 
d="M96 1229q-22 84 27.5 154.5t140.5 70.5q69 0 114 -40t58 -101l201 -910l197 869q19 85 86 133.5t145 48.5q79 0 145.5 -48t85.5 -134l197 -869l201 916q13 58 55.5 96.5t108.5 38.5q87 0 133.5 -67t25.5 -148l-282 -1069q-25 -93 -95.5 -141.5t-154.5 -48.5t-153.5 49
t-92.5 141l-184 750l-185 -750q-22 -89 -93 -139.5t-154 -50.5t-153 48.5t-95 141.5z" />
    <glyph glyph-name="X" unicode="X" horiz-adv-x="1355" 
d="M74 266l377 451l-377 450q-51 68 -42 132t61 109.5t116 45.5q80 0 133 -65l336 -412l336 412q53 65 133 65q64 0 116 -45.5t61 -109.5t-42 -132l-377 -450l377 -451q38 -45 41.5 -97.5t-20 -93.5t-66.5 -68t-92 -27q-78 0 -131 65l-336 412l-336 -412q-53 -65 -131 -65
q-49 0 -92 27t-66.5 68t-20 93.5t41.5 97.5z" />
    <glyph glyph-name="Y" unicode="Y" horiz-adv-x="1396" 
d="M442 0q-64 0 -108.5 44.5t-44.5 109.5q0 64 44.5 108.5t108.5 44.5h82v189l-456 688q-30 45 -31.5 94.5t20.5 87.5t64 63t92 25q89 0 145 -82l340 -514l342 520q25 36 63.5 56t82.5 20q48 0 89 -25.5t63 -64t21.5 -87.5t-30.5 -93l-457 -688v-189h82q65 0 109.5 -44.5
t44.5 -108.5t-45 -109t-109 -45h-512z" />
    <glyph glyph-name="Z" unicode="Z" horiz-adv-x="1269" 
d="M119 258l594 868h-477q-64 0 -109 45t-45 109t45 109t109 45h798q64 0 109 -45t45 -109q0 -51 -37 -104l-594 -869h477q65 0 109.5 -44.5t44.5 -108.5t-45 -109t-109 -45h-798q-64 0 -109 45t-45 109q0 48 37 104z" />
    <glyph glyph-name="a" unicode="a" horiz-adv-x="1118" 
d="M41 291q0 74 26 133.5t67 97.5t98.5 64.5t114 39t120.5 17.5l145 12q45 3 65.5 19.5t20.5 50.5q0 41 -40.5 67.5t-100.5 26.5t-101.5 -22.5t-105.5 -79.5q-54 -47 -114 -47q-65 0 -109.5 44.5t-44.5 108.5q0 52 31.5 96t81.5 74t113 51.5t125.5 31t119.5 9.5
q103 0 188 -26t149.5 -78t100 -135.5t35.5 -192.5v-510q0 -69 -47.5 -116t-116.5 -47t-116.5 47t-47.5 116v107q-80 -270 -348 -270q-125 0 -217 86t-92 225zM369 319q0 -38 27.5 -60.5t78.5 -22.5q86 0 154.5 60.5t68.5 137.5v6q-20 -10 -75 -16l-158 -18q-48 -6 -72 -29.5
t-24 -57.5z" />
    <glyph glyph-name="b" unicode="b" 
d="M102 1372q0 69 47.5 116.5t116.5 47.5t116.5 -47.5t47.5 -116.5v-604q44 146 140 231.5t227 85.5q125 0 226 -72.5t157.5 -199t56.5 -281.5t-56.5 -281t-157.5 -198.5t-226 -72.5q-131 0 -227 85.5t-140 231.5v-154q0 -69 -47.5 -116t-116.5 -47t-116.5 47t-47.5 116
v1229zM430 532q0 -109 68.5 -181t175.5 -72q93 0 158 72.5t65 180.5t-65 181t-158 73q-107 0 -175.5 -72.5t-68.5 -181.5z" />
    <glyph glyph-name="c" unicode="c" horiz-adv-x="1187" 
d="M61 532q0 154 75 281t206.5 199.5t292.5 72.5q121 0 229.5 -46t179.5 -130q52 -61 52 -118q0 -65 -45 -109.5t-109 -44.5q-66 0 -121 59q-84 90 -186 90q-100 0 -167 -72.5t-67 -181.5t67 -181t167 -72q102 0 186 90q55 59 121 59q64 0 109 -45t45 -109q0 -57 -52 -118
q-71 -84 -179.5 -130t-229.5 -46q-161 0 -292.5 72t-206.5 199t-75 281z" />
    <glyph glyph-name="d" unicode="d" 
d="M61 532q0 155 57 281.5t158 199t226 72.5q131 0 226.5 -85.5t139.5 -231.5v604q0 69 47.5 116.5t116.5 47.5t116.5 -47.5t47.5 -116.5v-1229q0 -69 -47.5 -116t-116.5 -47t-116.5 47t-47.5 116v154q-44 -146 -139.5 -231.5t-226.5 -85.5q-125 0 -226 72.5t-158 198.5
t-57 281zM401 532q0 -108 65.5 -180.5t158.5 -72.5q107 0 175 72t68 181q0 110 -68 182t-175 72q-93 0 -158.5 -73t-65.5 -181z" />
    <glyph glyph-name="e" unicode="e" horiz-adv-x="1249" 
d="M61 532q0 154 74 281t203.5 199.5t286.5 72.5q225 0 380 -139t179 -350q8 -74 -40.5 -128t-123.5 -54h-617q30 -72 93.5 -114t148.5 -42q111 0 211 70q59 41 113 41q59 0 99 -39t40 -97q0 -62 -49 -108q-161 -145 -424 -145q-161 0 -292.5 72t-206.5 199t-75 281z
M408 659h436q-28 69 -85 108.5t-134 39.5q-72 0 -129.5 -40.5t-87.5 -107.5z" />
    <glyph glyph-name="f" unicode="f" horiz-adv-x="849" 
d="M225 1085q0 227 116.5 344t344.5 87q63 -8 103 -46t40 -98q0 -62 -42 -104.5t-101 -38.5q-133 9 -133 -123v-41h133q62 0 102.5 -40.5t40.5 -102.5t-41 -103t-102 -41h-133v-635q0 -69 -47.5 -116t-116.5 -47t-116.5 47t-47.5 116v635h-82q-61 0 -102 41t-41 103
t41 102.5t102 40.5h82v20z" />
    <glyph glyph-name="g" unicode="g" 
d="M61 553q0 149 57 270.5t158 191.5t226 70q131 0 226.5 -83t139.5 -224v144q0 69 47.5 116t116.5 47t116.5 -47t47.5 -116v-799q0 -116 -44 -218.5t-120 -176t-182.5 -116t-226.5 -42.5q-121 0 -230 46t-180 130q-57 72 -52 132.5t50 100t104 39.5q66 0 121 -59
q86 -92 187 -92q102 0 173.5 72t71.5 184v205q-44 -141 -139.5 -224.5t-226.5 -83.5q-125 0 -226 70t-158 192t-57 271zM401 553q0 -100 67 -167t167 -67t166.5 67t66.5 167t-66.5 166.5t-166.5 66.5t-167 -66.5t-67 -166.5z" />
    <glyph glyph-name="h" unicode="h" horiz-adv-x="1259" 
d="M102 1372q0 69 47.5 116.5t116.5 47.5t116.5 -47.5t47.5 -116.5v-573q43 133 137.5 209.5t220.5 76.5q173 0 276 -120.5t103 -311.5v-510q0 -69 -47 -116t-116 -47t-116.5 47t-47.5 116v449q0 87 -55 141.5t-140 54.5q-97 0 -156 -54t-59 -142v-449q0 -69 -47.5 -116
t-116.5 -47t-116.5 47t-47.5 116v1229z" />
    <glyph glyph-name="i" unicode="i" horiz-adv-x="532" 
d="M102 922q0 69 47.5 116t116.5 47t116.5 -47t47.5 -116v-779q0 -69 -47.5 -116t-116.5 -47t-116.5 47t-47.5 116v779zM72 1352q0 80 57 137t137 57t137.5 -57.5t57.5 -136.5q0 -78 -58 -136.5t-137 -58.5t-136.5 58.5t-57.5 136.5z" />
    <glyph glyph-name="j" unicode="j" horiz-adv-x="573" 
d="M143 922q0 69 47.5 116t116.5 47t116.5 -47t47.5 -116v-881q0 -109 -23.5 -195.5t-72 -152.5t-131 -98t-193.5 -25q-63 5 -103 44t-40 99q0 61 41.5 102.5t101.5 41.5q52 0 72 31.5t20 111.5v922zM113 1352q0 80 57.5 137t136.5 57q80 0 137.5 -57.5t57.5 -136.5
q0 -78 -58 -136.5t-137 -58.5t-136.5 58.5t-57.5 136.5z" />
    <glyph glyph-name="k" unicode="k" horiz-adv-x="1105" 
d="M102 1372q0 69 47.5 116.5t116.5 47.5t116.5 -47.5t47.5 -116.5v-690l315 326q73 77 140 77q62 0 105.5 -43t43.5 -104q0 -59 -43 -104l-225 -230l276 -360q33 -41 33 -101q0 -69 -47.5 -116t-116.5 -47q-78 0 -129 65l-250 326l-102 -105v-123q0 -69 -47.5 -116
t-116.5 -47t-116.5 47t-47.5 116v1229z" />
    <glyph glyph-name="l" unicode="l" horiz-adv-x="532" 
d="M102 1372q0 69 47.5 116.5t116.5 47.5t116.5 -47.5t47.5 -116.5v-1229q0 -69 -47.5 -116t-116.5 -47t-116.5 47t-47.5 116v1229z" />
    <glyph glyph-name="m" unicode="m" horiz-adv-x="1832" 
d="M102 922q0 69 47.5 116t116.5 47t116.5 -47t47.5 -116v-109q40 127 123.5 199.5t194.5 72.5q119 0 202.5 -73t116.5 -199q40 127 126.5 199.5t199.5 72.5q158 0 253 -120.5t95 -311.5v-510q0 -69 -47.5 -116t-116.5 -47t-116.5 47t-47.5 116v449q0 87 -43 141.5
t-110 54.5q-78 0 -126.5 -54t-48.5 -142v-449q0 -69 -47 -116t-116 -47t-116.5 47t-47.5 116v449q0 87 -43.5 141.5t-110.5 54.5q-78 0 -126 -54t-48 -142v-449q0 -69 -47.5 -116t-116.5 -47t-116.5 47t-47.5 116v779z" />
    <glyph glyph-name="n" unicode="n" horiz-adv-x="1259" 
d="M102 922q0 69 47.5 116t116.5 47t116.5 -47t47.5 -116v-123q43 133 137.5 209.5t220.5 76.5q173 0 276 -120.5t103 -311.5v-510q0 -69 -47 -116t-116 -47t-116.5 47t-47.5 116v449q0 87 -55 141.5t-140 54.5q-97 0 -156 -54t-59 -142v-449q0 -69 -47.5 -116t-116.5 -47
t-116.5 47t-47.5 116v779z" />
    <glyph glyph-name="o" unicode="o" horiz-adv-x="1269" 
d="M61 532q0 154 75 281t206.5 199.5t292.5 72.5q120 0 226.5 -42.5t182.5 -116t120 -176t44 -218.5t-44 -218t-120 -175.5t-182.5 -116t-226.5 -42.5q-161 0 -292.5 72t-206.5 199t-75 281zM401 532q0 -109 67 -181t167 -72t166.5 72t66.5 181t-66.5 181.5t-166.5 72.5
t-167 -72.5t-67 -181.5z" />
    <glyph glyph-name="p" unicode="p" 
d="M430 532q0 -109 68.5 -181t175.5 -72q93 0 158 72.5t65 180.5t-65 181t-158 73q-107 0 -175.5 -72.5t-68.5 -181.5zM102 -266v1188q0 69 47.5 116t116.5 47t116.5 -47t47.5 -116v-154q44 146 140 231.5t227 85.5q125 0 226 -72.5t157.5 -199t56.5 -281.5t-56.5 -281
t-157.5 -198.5t-226 -72.5q-131 0 -227 85.5t-140 231.5v-563q0 -69 -47.5 -116.5t-116.5 -47.5t-116.5 47.5t-47.5 116.5z" />
    <glyph glyph-name="q" unicode="q" 
d="M61 532q0 155 57 281.5t158 199t226 72.5q131 0 226.5 -85.5t139.5 -231.5v154q0 69 47.5 116t116.5 47t116.5 -47t47.5 -116v-1188q0 -69 -47.5 -116.5t-116.5 -47.5t-116.5 47.5t-47.5 116.5v563q-44 -146 -139.5 -231.5t-226.5 -85.5q-125 0 -226 72.5t-158 198.5
t-57 281zM401 532q0 -108 65.5 -180.5t158.5 -72.5q107 0 175 72t68 181q0 110 -68 182t-175 72q-93 0 -158.5 -73t-65.5 -181z" />
    <glyph glyph-name="r" unicode="r" horiz-adv-x="854" 
d="M102 922q0 69 47.5 116t116.5 47t116.5 -47t47.5 -116v-121q19 75 47.5 131t55.5 84.5t58.5 45t50 20t36.5 3.5q66 0 111 -44t45 -109q0 -69 -54 -117t-141 -37q-103 14 -156 -44.5t-53 -141.5v-449q0 -69 -47.5 -116t-116.5 -47t-116.5 47t-47.5 116v779z" />
    <glyph glyph-name="s" unicode="s" horiz-adv-x="1044" 
d="M522 -20q-199 0 -318.5 77t-119.5 172q0 62 41 103t102 41q42 0 88 -27q7 -5 48 -32t63 -39t62.5 -25.5t78.5 -13.5q46 0 76.5 20t30.5 55t-33 55.5t-86.5 30.5t-117.5 19t-128 28.5t-117.5 51t-86.5 93.5t-33 150q0 147 129.5 246.5t320.5 99.5q199 0 319 -77t120 -172
q0 -62 -41.5 -103t-102.5 -41q-42 0 -88 27q-17 10 -45.5 33t-48.5 37.5t-54.5 27t-72.5 12.5q-46 0 -76.5 -20t-30.5 -55t33.5 -55.5t86.5 -30.5t117 -19t128.5 -28.5t117.5 -51t86.5 -93.5t33.5 -150q0 -146 -141 -246t-341 -100z" />
    <glyph glyph-name="t" unicode="t" horiz-adv-x="870" 
d="M143 778q-61 0 -102 41t-41 103t41 102.5t102 40.5h82v225q0 69 47.5 116.5t116.5 47.5t116.5 -47.5t47.5 -116.5v-225h133q62 0 102.5 -40.5t40.5 -102.5t-41 -103t-102 -41h-133v-368q0 -132 133 -123q59 4 101 -39t42 -105q0 -60 -39.5 -97.5t-103.5 -45.5
q-228 -30 -344.5 86.5t-116.5 343.5v348h-82z" />
    <glyph glyph-name="u" unicode="u" horiz-adv-x="1208" 
d="M92 922q0 69 47.5 116t116.5 47t116.5 -47t47.5 -116v-467q0 -80 50.5 -128t133.5 -48q80 0 132 48.5t52 127.5v467q0 69 47.5 116t116.5 47t116.5 -47t47.5 -116v-467q0 -211 -144 -343t-368 -132q-226 0 -369 131.5t-143 343.5v467z" />
    <glyph glyph-name="v" unicode="v" horiz-adv-x="1126" 
d="M49 856q-37 91 17 160t135 69q51 0 91 -27.5t58 -80.5l221 -617l211 613q18 52 58 82t96 30q81 0 128 -69.5t15 -147.5l-295 -723q-34 -84 -92 -124.5t-131 -40.5t-131 40.5t-92 124.5z" />
    <glyph glyph-name="w" unicode="w" horiz-adv-x="1736" 
d="M61 864q-28 89 18.5 155t133.5 66q57 0 99 -33.5t57 -93.5l153 -591l156 567q22 77 78.5 114t122.5 37t122 -37t78 -114l154 -567l156 598q15 57 54 88.5t93 31.5q82 0 125.5 -62.5t17.5 -145.5l-231 -750q-22 -70 -84 -108.5t-135 -38.5t-135 39t-84 108l-142 438
l-141 -438q-22 -69 -84 -108t-135 -39t-135 38.5t-84 108.5z" />
    <glyph glyph-name="x" unicode="x" horiz-adv-x="1101" 
d="M80 250l252 282l-252 283q-34 38 -38 86.5t16.5 88.5t61.5 67.5t89 27.5q73 0 123 -59l219 -266l219 266q50 59 123 59q48 0 89 -27.5t61.5 -67.5t16.5 -88.5t-38 -86.5l-252 -283l252 -282q34 -38 38 -86.5t-16.5 -88.5t-61.5 -67.5t-89 -27.5q-73 0 -123 59l-219 266
l-219 -266q-50 -59 -123 -59q-49 0 -90 27.5t-61 67.5t-16 88.5t38 86.5z" />
    <glyph glyph-name="y" unicode="y" horiz-adv-x="1126" 
d="M49 856q-23 66 -4.5 117t62.5 81.5t94 30.5q51 0 91 -27.5t58 -80.5l221 -631l211 627q18 51 58 81.5t96 30.5q80 0 126.5 -69t16.5 -148l-458 -1190q-21 -53 -61 -80.5t-91 -27.5q-50 0 -95 31t-63.5 82t6.5 116l74 166z" />
    <glyph glyph-name="z" unicode="z" horiz-adv-x="1105" 
d="M117 242l440 536h-332q-61 0 -102 41t-41 103t41 102.5t102 40.5h656q61 0 102 -40.5t41 -102.5q0 -57 -33 -99l-442 -536h332q61 0 102 -41t41 -103q0 -61 -41 -102t-102 -41h-656q-61 0 -102 41t-41 102q0 52 35 99z" />
    <glyph glyph-name="uni00A0" unicode="&#xa0;" horiz-adv-x="614" 
 />
    <glyph glyph-name="uni00AD" unicode="&#xad;" horiz-adv-x="696" 
d="M184 393q-61 0 -102 41t-41 103q0 61 40.5 102t102.5 41h328q62 0 102.5 -41t40.5 -102q0 -62 -41 -103t-102 -41h-328z" />
    <glyph glyph-name="uni2011" unicode="&#x2011;" horiz-adv-x="696" 
d="M184 393q-61 0 -102 41t-41 103q0 61 40.5 102t102.5 41h328q62 0 102.5 -41t40.5 -102q0 -62 -41 -103t-102 -41h-328z" />
    </font>
</defs>
</svg>
