<svg width="30" height="30" viewBox="0 0 30 30" fill="none" xmlns="http://www.w3.org/2000/svg">
<path fill-rule="evenodd" clip-rule="evenodd" d="M28.8212 20.8388C29.5802 19.0442 30 17.071 30 15.0001H29.9998C29.9998 6.71571 23.284 0 14.9999 0C8.78662 0 3.45582 3.77768 1.17882 9.16142C0.419824 10.956 0 12.9292 0 15.0001C0 23.2843 6.71571 30 15.0001 30.0002C21.2131 30.0002 26.5439 26.2226 28.8212 20.8388ZM16.5941 13.9819V13.9821L22.8677 23.0772H18.1734L14.0234 17.0057L14.0233 17.0056L8.86158 23.077H7.40469L13.3794 16.0633L7.13207 6.92327H11.7251L15.9489 13.0467L15.949 13.0469L15.9491 13.0467L21.1656 6.92302H22.5956L16.5941 13.9819ZM18.713 22.0543L14.7101 16.1979L14.7102 16.1977L14.7104 16.1975L14.067 15.2562L14.0668 15.2563L14.0667 15.2562L9.07014 7.94623H11.1881L15.2624 13.8527L15.9078 14.7888L20.9192 22.0543H18.713Z" fill="#E5E5E5"/>
</svg>
