<svg width="64" height="64" viewBox="0 0 64 64" fill="none" xmlns="http://www.w3.org/2000/svg">
<path d="M32.5 25.9375C35.3995 25.9375 37.75 23.587 37.75 20.6875C37.75 17.788 35.3995 15.4375 32.5 15.4375C29.6005 15.4375 27.25 17.788 27.25 20.6875C27.25 23.587 29.6005 25.9375 32.5 25.9375Z" stroke="white" stroke-width="1.64778" stroke-linecap="round" stroke-linejoin="round"/>
<path d="M26.4139 31.0685H20.5673C19.1505 31.0685 18.002 29.9199 18.002 28.5031C18.002 27.0863 19.1505 25.9378 20.5673 25.9378L44.4308 25.9375C45.8476 25.9375 46.9962 27.0861 46.9962 28.5029C46.9962 29.9196 45.8476 31.0682 44.4308 31.0682H38.5842L37.2557 47.5423C37.1637 48.6836 36.2107 49.5628 35.0658 49.5628H32.4991H29.9323C28.7874 49.5628 27.8344 48.6836 27.7424 47.5424L26.4139 31.0685Z" stroke="white" stroke-width="1.64778" stroke-linecap="round" stroke-linejoin="round"/>
<path d="M32.5 49.5635V37.9492" stroke="white" stroke-width="1.64778" stroke-linecap="round" stroke-linejoin="round"/>
<path d="M11.319 18.1927H12.1429C12.1429 17.8296 11.9051 17.5093 11.5575 17.4041L11.319 18.1927ZM53.681 18.1927L53.4424 17.4041C53.0949 17.5093 52.8571 17.8296 52.8571 18.1927H53.681ZM52.8571 55.007C52.8571 55.4621 53.226 55.8309 53.681 55.8309C54.1361 55.8309 54.5049 55.4621 54.5049 55.007H52.8571ZM10.4951 55.0173C10.4951 55.4723 10.8639 55.8412 11.319 55.8412C11.774 55.8412 12.1429 55.4723 12.1429 55.0173H10.4951ZM4.44889 12.6889C4.44889 11.9961 4.95752 11.1463 6.34944 10.2234C7.70948 9.32161 9.73185 8.47755 12.3048 7.75597C17.4391 6.31602 24.5795 5.41471 32.5 5.41471V3.76693C24.4733 3.76693 17.1761 4.67843 11.8598 6.16941C9.20739 6.91329 7.00111 7.81421 5.43884 8.85009C3.90845 9.86484 2.80111 11.1454 2.80111 12.6889H4.44889ZM32.5 5.41471C40.4205 5.41471 47.5609 6.31602 52.6952 7.75597C55.2682 8.47755 57.2905 9.32161 58.6506 10.2234C60.0425 11.1463 60.5511 11.9961 60.5511 12.6889H62.1989C62.1989 11.1454 61.0915 9.86484 59.5612 8.85009C57.9989 7.81421 55.7926 6.91329 53.1402 6.16941C47.8239 4.67843 40.5267 3.76693 32.5 3.76693V5.41471ZM11.5575 17.4041C9.21052 16.6941 7.37989 15.8803 6.15422 15.0213C4.90465 14.1456 4.44889 13.346 4.44889 12.6889H2.80111C2.80111 14.157 3.80486 15.387 5.20853 16.3707C6.63611 17.3712 8.65246 18.2468 11.0804 18.9813L11.5575 17.4041ZM60.5511 12.6889C60.5511 13.346 60.0954 14.1456 58.8458 15.0213C57.6201 15.8803 55.7895 16.6941 53.4424 17.4041L53.9196 18.9813C56.3475 18.2468 58.3639 17.3712 59.7915 16.3707C61.1951 15.387 62.1989 14.157 62.1989 12.6889H60.5511ZM52.8571 18.1927V55.007H54.5049V18.1927H52.8571ZM10.4951 18.1927V55.0173H12.1429V18.1927H10.4951Z" fill="white"/>
<path d="M3.625 12.7691V49.5191C3.625 53.9916 16.5528 57.6172 32.5 57.6172C48.4472 57.6172 61.375 53.9916 61.375 49.5191V12.8121" stroke="white" stroke-width="1.64778" stroke-linecap="round"/>
<path d="M61.375 30.8047C61.375 32.9503 58.468 34.9055 53.6983 36.3774" stroke="white" stroke-width="1.64778" stroke-linecap="round"/>
<path d="M16.5857 42.9473C14.6575 43.3047 12.8915 43.7253 11.3252 44.1984" stroke="white" stroke-width="1.64778" stroke-linecap="round"/>
<path d="M48.4141 42.9473C50.3423 43.3047 52.1083 43.7253 53.6746 44.1984" stroke="white" stroke-width="1.64778" stroke-linecap="round"/>
<path d="M19.375 5.51855V18.6436" stroke="white" stroke-width="1.64778" stroke-linecap="round"/>
<path d="M45.625 5.51855V18.6436" stroke="white" stroke-width="1.64778" stroke-linecap="round"/>
<path d="M3.625 30.8047C3.625 32.954 6.54196 34.9122 11.3262 36.385" stroke="white" stroke-width="1.64778" stroke-linecap="round"/>
</svg>
