<svg width="17" height="22" viewBox="0 0 17 22" fill="none" xmlns="http://www.w3.org/2000/svg">
<path d="M16.8681 18.7692C16.8201 18.6346 16.7913 18.4904 16.7242 18.3654L11.9849 9.25V0.980769C11.9849 0.721154 11.8794 0.471154 11.6971 0.288462C11.5148 0.105769 11.2654 0 11.0064 0H6.00805C5.74902 0 5.49958 0.105769 5.3173 0.288462C5.13502 0.471154 5.02949 0.721154 5.02949 0.980769V9.25962L0.280621 18.3654C0.0791534 18.7404 -0.0167834 19.1635 0.002404 19.5962C0.0119977 20.0192 0.136716 20.4423 0.35737 20.8077C0.578025 21.1731 0.894616 21.4712 1.25918 21.6827C1.62374 21.8942 2.04586 22 2.47757 22H14.5272C14.9494 22 15.3715 21.8942 15.736 21.6827C16.1102 21.4712 16.4172 21.1731 16.6378 20.8077C16.7338 20.6442 16.8105 20.4712 16.8681 20.2981C16.9448 20.0769 16.9928 19.8462 17.0024 19.6058C17.0024 19.3269 16.9544 19.0481 16.8681 18.7788V18.7692ZM6.75635 10.1635C6.90026 9.88462 6.97701 9.56731 6.97701 9.25V2.19231C6.97701 2.06731 7.08254 1.96154 7.20726 1.96154H9.78796C9.91268 1.96154 10.0182 2.06731 10.0182 2.19231C10.0182 2.19231 10.0182 9.46154 10.047 9.56731L5.79699 12.0288L6.75635 10.1731V10.1635ZM2.03626 19.7788C1.9883 19.7019 1.96911 19.6154 1.95951 19.5288C1.95951 19.4423 1.9787 19.3462 2.01708 19.2692L4.13728 15.2019C4.22362 15.1827 4.30997 15.1442 4.39631 15.0962L10.8625 11.3558L14.9781 19.2692C15.0165 19.3462 15.0357 19.4423 15.0357 19.5288C15.0357 19.6154 15.0069 19.7019 14.959 19.7788C14.911 19.8558 14.8438 19.9231 14.7671 19.9615C14.6903 20 14.604 20.0288 14.508 20.0288H2.48717C2.40082 20.0288 2.31448 20.0096 2.23773 19.9615C2.16098 19.9135 2.09383 19.8558 2.04586 19.7788H2.03626Z" fill="#ffffff"/>
</svg>
