<svg width="411" height="411" viewBox="0 0 411 411" fill="none" xmlns="http://www.w3.org/2000/svg">
<path d="M308.116 307.632C364.799 250.998 364.799 159.177 308.116 102.544C251.434 45.9104 159.534 45.9104 102.851 102.544C46.1689 159.177 46.1689 250.998 102.851 307.632C159.534 364.265 251.434 364.265 308.116 307.632Z" fill="url(#paint0_radial_2336_9298)"/>
<mask id="mask0_2336_9298" style="mask-type:luminance" maskUnits="userSpaceOnUse" x="60" y="60" width="291" height="291">
<path d="M308.116 307.632C364.799 250.998 364.799 159.177 308.116 102.544C251.434 45.9104 159.534 45.9104 102.851 102.544C46.1689 159.177 46.1689 250.998 102.851 307.632C159.534 364.265 251.434 364.265 308.116 307.632Z" fill="white"/>
</mask>
<g mask="url(#mask0_2336_9298)">
<path d="M303.231 111.766C302.821 110.822 302.652 110.455 302.61 110.286C302.582 110.174 302.596 110.145 302.61 110.089C302.61 110.089 302.61 110.089 302.61 110.075C302.68 110.145 302.793 110.244 302.906 110.413C303.033 110.596 303.09 110.723 303.146 110.85C303.146 110.878 303.202 110.935 303.202 110.963C303.217 111.019 303.245 111.062 303.259 111.118C303.273 111.174 303.315 111.329 303.358 111.555C303.386 111.78 303.569 111.95 303.597 112.189C303.456 112.358 302.906 111.569 302.751 111.287C302.892 111.442 303.061 111.64 303.202 111.795L303.231 111.766ZM306.856 122.592C306.856 122.592 306.814 122.592 306.8 122.592C306.461 122.352 306.433 122.352 306.292 122.367C306.264 122.498 306.349 122.771 306.546 123.184C306.673 123.903 307.167 124.791 307.759 124.96C309.622 125.496 312.373 130.415 312.909 133.305C313.064 134.137 313.036 134.813 312.739 135.152C312.697 135.152 312.627 135.137 312.584 135.123C312.288 134.658 312.232 134.574 311.865 134.447C311.808 134.475 311.738 134.517 311.681 134.545C311.964 136.322 313.628 137.534 313.657 139.423C313.671 140.311 313.657 140.367 312.091 140.254C311.978 140.254 311.893 140.254 311.766 140.226C310.722 140.156 310.609 140.677 310.567 140.846C310.567 140.903 310.539 140.973 310.539 141.03C310.553 141.636 310.948 142.157 310.962 142.763C310.976 143.651 310.398 144.483 310.694 145.385C310.962 145.498 311.061 145.512 311.103 145.498C311.173 145.498 311.272 145.47 311.343 145.456C311.752 145.371 311.752 144.92 312.02 144.695C312.33 144.427 312.782 144.497 313.106 144.272C313.149 144.243 313.191 144.187 313.219 144.145C313.403 143.933 313.473 143.68 313.544 143.412C313.614 143.102 313.685 142.777 313.868 142.51C314.376 141.763 315.152 142.707 315.97 143.708C318.284 146.555 317.959 144.103 317.945 144.074C317.734 143.37 316.379 142.806 317.085 142.044C317.198 142.073 317.296 142.115 317.395 142.171C317.776 142.355 318.143 142.651 318.623 142.397C318.862 141.664 318.27 140.945 318.566 140.198C318.778 139.648 319.61 140.113 319.765 139.465C319.779 139.394 319.765 139.183 319.695 138.901C319.667 138.774 319.652 138.661 319.582 138.478C319.441 138.112 319.159 137.647 319.088 137.534C319.018 137.435 318.933 137.294 318.862 137.181C318.806 137.097 318.75 137.026 318.693 136.942C317.748 135.518 316.803 134.489 315.815 133.418C314.094 131.557 313.826 128.907 312.274 126.962C311.921 126.525 306.941 122.691 306.899 122.663C306.87 122.634 306.856 122.592 306.828 122.564L306.856 122.592ZM321.077 274.349C321.557 274.095 321.91 273.926 322.206 273.884C322.77 273.813 322.799 274.25 322.827 274.49C322.855 274.786 322.883 275.012 323.067 274.969C323.306 274.913 323.744 274.405 323.998 273.856C324.308 273.193 324.322 272.954 323.645 272.136C323.448 271.896 323.081 271.967 322.728 272.037C322.587 272.066 322.502 272.08 322.46 272.051C322.361 271.995 322.333 271.882 322.305 271.784C322.277 271.657 322.248 271.53 322.107 271.473C322.093 271.473 322.051 271.473 322.037 271.473C321.712 271.558 320.95 272.587 320.95 272.587C320.95 272.587 320.668 273.08 320.414 273.574C320.203 274.025 320.005 274.476 320.076 274.645C320.104 274.645 320.132 274.673 320.16 274.687C320.358 274.701 320.725 274.532 321.091 274.349H321.077ZM323.843 223.505C323.278 223.984 323.024 224.492 322.982 224.633C322.799 225.281 323.01 225.944 322.94 226.592C322.714 226.747 322.432 226.395 322.22 226.648C322.121 226.761 322.178 227.381 322.206 227.438C322.22 227.494 322.234 227.565 322.262 227.607C322.291 227.635 322.319 227.677 322.347 227.706C322.418 227.776 322.502 227.79 322.601 227.804C322.714 227.818 322.841 227.832 322.926 227.945C323.137 228.199 323.165 228.227 323.391 228.735C323.589 229.172 323.772 229.594 324.04 229.693C324.04 229.693 325.423 230.144 324.322 227.762C324.026 227.128 323.899 226.648 323.814 226.225C323.673 225.464 323.758 224.929 323.899 224.323C323.97 225.027 324.125 225.394 324.336 225.507C324.463 225.577 324.619 225.563 324.802 225.408C324.872 225.352 324.915 225.253 324.957 225.168C325.028 224.999 325.028 224.774 325.014 224.59C325.014 224.548 325.014 224.506 325.014 224.464L324.788 221.461C324.661 221.038 324.223 220.954 323.941 220.686C323.744 220.488 323.673 220.207 323.49 220.009C323.462 219.981 323.419 219.925 323.349 219.953C323.349 219.967 323.306 219.981 323.306 220.009L322.897 220.911C322.897 221.334 323.095 221.687 323.433 222.25C323.758 222.8 323.786 222.885 323.857 223.505H323.843ZM208.466 55.7068C208.607 55.735 208.749 55.6786 208.89 55.7209C209.003 55.7491 209.115 55.8055 209.228 55.8055C209.313 55.8055 209.355 55.7632 209.369 55.735C209.398 55.5518 210.569 55.8478 210.583 55.8619C210.554 55.9183 210.47 55.9042 210.427 55.9464C210.427 55.9605 210.47 56.0028 210.611 56.0028C211.175 55.9605 211.739 55.8337 212.304 55.8619C212.304 55.8619 212.29 55.8619 212.276 55.8619C212.332 55.8619 212.403 55.8619 212.445 55.8337C212.403 55.8055 211.81 55.735 211.598 55.8055C211.598 55.8055 210.949 55.9605 210.738 55.8055V55.7773C210.964 55.6786 211.203 55.7773 211.429 55.735C211.415 55.7068 211.401 55.6927 211.02 55.6927C210.837 55.6927 210.667 55.7209 210.484 55.6927C210.484 55.6927 210.484 55.6927 210.484 55.6786C210.526 55.6786 210.569 55.6786 210.611 55.6786C210.512 55.6363 208.481 55.6222 208.339 55.6786C208.368 55.6786 208.41 55.7068 208.452 55.7068H208.466ZM318.637 221.63V221.109L318.524 221.179C318.199 221.532 318.157 222.391 318.171 222.885C318.171 223.406 318.425 223.857 318.58 224.337C318.665 224.562 318.721 224.802 318.735 225.056C318.764 226.282 318.369 227.48 318.453 228.72C318.453 228.876 318.524 229.059 318.594 229.2C318.721 229.242 319.003 229.312 319.384 228.735C319.54 228.495 319.709 228.241 319.864 228.298C319.986 228.345 320.16 228.861 320.386 229.848C319.935 230.313 319.709 230.468 319.37 230.539C319.286 230.948 319.3 231.314 319.37 231.624C319.582 232.555 320.33 233.048 320.668 232.794C321.501 232.188 320.513 231.117 321.275 230.497C321.853 230.031 322.164 231.667 322.7 231.159C322.911 230.962 323.053 230.539 323.053 230.539C323.109 230.384 323.236 229.975 322.897 229.496C322.643 229.143 322.135 229.228 321.882 228.876C321.853 228.847 321.853 228.805 321.839 228.763C321.402 228.044 321.599 227.156 321.233 226.423C321.077 226.127 320.936 226.014 320.626 225.789C320.527 225.718 320.4 225.619 320.33 225.521C320.005 225.056 320.076 224.407 319.667 223.97C319.525 223.829 319.37 223.702 319.215 223.561C318.961 223.35 318.721 223.138 318.552 222.842L318.665 221.644V221.616L318.637 221.63ZM213.334 55.7773C213.574 55.7773 213.827 55.8055 214.067 55.8055C213.616 55.7773 213.179 55.7632 212.727 55.7209L211.895 55.6786C211.895 55.6786 211.965 55.6786 211.993 55.6786C212.445 55.7068 212.896 55.735 213.334 55.7632V55.7773ZM215.069 55.8619C214.759 55.8478 214.42 55.8196 214.096 55.8055C214.491 55.8337 214.886 55.8478 215.281 55.876C215.21 55.876 215.14 55.876 215.069 55.8619ZM239.307 64.7564C239.391 64.7141 239.377 64.5732 239.377 64.5732C239.349 64.545 239.321 64.5027 239.01 64.3758C237.6 63.7838 236.852 63.812 236.852 63.8261C236.951 63.9388 237.106 63.9529 237.233 64.0093C237.205 64.1926 239.081 64.8692 239.307 64.7564ZM292.381 96.4159C292.551 96.7965 294.187 98.2766 294.357 98.0792C294.413 98.0229 294.23 97.7691 293.877 97.4167C293.454 96.9797 292.466 96.134 292.156 96.1481C292.297 96.2186 292.466 96.3172 292.607 96.3877C292.523 96.3454 292.297 96.2609 292.381 96.43V96.4159ZM220.966 62.9098C220.966 62.9098 220.91 62.8817 220.882 62.8817C220.882 62.9239 220.938 62.9662 221.093 63.1072C220.924 63.079 220.74 63.0649 220.867 63.22C220.91 63.2622 221.248 63.5864 221.516 63.6851C221.531 63.6851 221.559 63.6851 221.573 63.6992C221.587 63.6992 221.601 63.6992 221.629 63.6992C221.742 63.7274 221.855 63.6992 221.968 63.7415C222.179 63.7979 222.363 63.8966 222.575 63.9388C222.575 63.9388 222.687 63.9529 222.687 63.9107C222.687 63.8261 222.448 63.6287 222.448 63.6287C222.278 63.4878 222.109 63.4032 222.024 63.3609C221.827 63.2622 221.629 63.2059 221.432 63.1213C221.277 63.0508 221.135 62.9521 220.966 62.8817V62.9098ZM296.416 112.189C296.134 111.837 296.078 111.696 296.205 111.442C296.336 111.386 296.459 111.362 296.572 111.372L296.67 111.4L296.995 111.513C298.617 113.148 300.367 113.683 301.777 113.951C302.173 114.022 302.539 114.078 302.864 114.12C303.894 114.261 304.768 114.388 305.53 115.643C305.784 116.052 305.827 116.277 305.714 116.46C305.601 116.629 305.53 116.742 305.685 117.095C306.038 117.926 306.814 118.476 307.139 119.322C307.266 119.66 307.28 119.801 307.251 119.872C307.251 119.914 307.223 119.928 307.209 119.942C306.729 119.886 306.49 119.308 305.968 119.35C305.728 119.364 305.516 119.547 305.262 119.491C305.248 119.491 305.22 119.491 305.206 119.477C305.065 119.435 304.909 119.35 304.684 119.237C304.5 119.139 304.049 118.899 303.936 119.054C303.936 119.054 303.682 119.59 304.641 120.323C305.065 120.647 305.841 121.225 305.869 121.887C305.869 121.887 305.841 121.915 305.827 121.93C305.756 121.93 305.657 121.873 305.601 121.845C305.206 121.634 304.909 121.267 304.514 121.042C304.317 120.929 304.091 120.858 303.865 120.788C303.682 120.731 303.499 120.661 303.329 120.562C302.455 120.013 302.469 119.801 302.61 119.378C302.61 119.35 302.61 119.336 302.624 119.308C302.723 119.012 302.426 118.645 302.412 118.645C302.102 118.279 301.636 118.11 301.312 117.757C300.564 116.94 300.832 116.601 300.945 116.474C301.058 116.333 301.34 115.981 300.113 114.586C299.182 113.514 297.94 113.021 297.475 112.838C296.755 112.542 296.43 112.189 296.43 112.175L296.416 112.189ZM297.545 112.062C297.728 112.26 297.982 112.513 298.166 112.711L298.138 112.683C297.884 112.316 297.7 112.175 297.545 112.077V112.062ZM219.993 61.9936C219.993 61.9936 221.079 62.3742 221.093 62.3742C221.262 62.4306 221.573 62.4024 221.643 62.3319C221.686 62.2896 221.672 62.2614 221.615 62.205C221.502 62.0923 220.966 61.9231 220.966 61.9231C220.844 61.8949 220.642 61.8949 220.36 61.9231C220.063 61.9513 219.838 61.754 219.569 61.6976C219.569 61.754 219.908 61.9513 220.021 61.9936H219.993ZM219.047 62.6279C219.09 62.5433 219.019 62.4447 219.09 62.3742C219.146 62.3037 219.273 62.2896 219.358 62.2755C219.626 62.2332 219.654 62.2332 219.696 62.1909C219.696 62.1909 219.767 62.1205 219.64 61.9936C219.513 61.8808 219.231 61.7963 219.189 61.7681C219.174 61.7681 219.16 61.7681 219.146 61.7681C218.921 61.7117 218.681 61.7258 218.455 61.7117C218.116 61.6835 217.877 61.4016 217.538 61.3734C217.538 61.4157 217.538 61.4157 217.594 61.4721C217.594 61.4721 217.933 61.7681 217.933 61.8245C217.933 61.8245 217.872 61.7916 217.75 61.7258V61.754C217.693 61.754 217.679 61.754 217.496 61.6412C217.312 61.5425 216.889 61.3029 216.776 61.3593C216.875 61.7399 218.949 62.8817 219.076 62.642L219.047 62.6279ZM318.086 214.822C318.072 213.497 317.169 212.426 316.732 211.213C316.535 210.678 316.422 210.128 316.535 209.494C316.718 208.422 317.621 207.591 317.536 206.435C317.522 206.195 317.48 205.857 317.437 205.617C317.24 204.616 316.619 203.742 316.478 202.728C316.464 202.615 316.422 202.502 316.422 202.389C316.422 201.684 316.887 201.022 316.591 200.303C316.422 199.908 315.575 200.275 315.349 200.486C315.321 200.514 315.293 200.557 315.279 200.585C314.997 200.402 314.813 200.106 314.503 199.937C314.475 199.965 314.432 199.993 314.404 200.021C314.432 199.697 314.489 199.034 313.896 199.147C313.755 199.204 312.542 199.697 313.219 202.107C313.276 202.291 313.826 205.082 313.995 207.14C314.08 208.211 314.066 209.071 313.812 209.268C313.459 209.099 313.417 208.69 313.191 208.408C313.149 208.366 313.12 208.31 313.078 208.267C313.022 208.267 312.951 208.281 312.895 208.295C312.895 208.295 312.909 208.507 312.951 208.775C313.106 209.973 313.642 213.102 314.856 213.173C314.997 213.173 315.152 213.229 315.307 213.3C315.476 213.384 315.632 213.483 315.674 213.624C315.928 214.441 315.025 214.977 315.124 215.752C315.208 216.485 315.998 216.795 316.154 217.486C315.063 218.163 314.541 218.661 314.588 218.98C314.616 219.206 315.138 220.122 315.674 220.911C316.097 221.517 316.535 222.067 316.774 222.138C317.325 222.307 317.423 221.489 317.423 221.151C317.409 220.503 317.184 219.896 316.972 219.29C316.831 218.853 316.69 218.43 316.662 217.965C316.662 217.951 316.662 217.937 316.662 217.909L316.901 217.585C317.212 216.88 317.014 215.964 317.762 215.428C317.748 215.527 317.72 215.654 317.706 215.752C317.706 215.879 317.706 216.02 317.706 216.147L317.536 216.824C317.536 217.002 317.555 217.152 317.593 217.275C317.818 217.373 318.044 217.486 318.27 217.585C319.145 217.993 320.005 218.43 320.922 218.741C320.922 218.825 320.95 218.938 320.95 219.022C320.922 219.868 320.245 220.559 320.33 221.433C320.344 221.602 320.4 221.771 320.471 221.926C320.668 222.434 320.993 222.913 320.753 223.491C321.36 224.069 321.67 223.35 321.98 221.997C322.248 222.377 322.305 222.857 322.545 223.265C322.587 223.265 322.643 223.265 322.686 223.265C322.77 223.096 322.841 222.871 322.883 222.617C323.109 221.109 322.502 220.784 321.938 220.77C321.712 220.77 321.529 220.742 321.402 220.672C321.049 220.503 321.021 220.066 321.36 218.924C321.538 218.99 321.891 218.891 322.418 218.628C322.432 218.501 322.46 218.332 322.418 218.205L321.642 216.133C321.458 215.978 320.64 215.583 319.892 215.259C319.243 214.963 318.651 214.709 318.637 214.709C318.34 214.596 318.157 214.737 318.086 214.794V214.822ZM263.389 277.295C263.46 277.619 263.559 277.929 263.714 278.225C263.784 278.366 263.883 278.55 263.968 278.676C264.715 279.903 266.056 280.622 266.803 281.862C266.86 281.961 266.888 282.074 266.93 282.186C267.198 282.933 267.015 283.822 267.551 284.498C268.031 285.104 269.329 286.246 269.964 286.218C273.505 286.063 273.66 285.781 273.999 285.175C274.238 284.738 274.704 283.032 275.043 281.256C275.409 279.381 275.649 277.422 275.381 276.774C275.057 275.998 274.253 276.506 273.646 276.435C273.42 276.407 273.237 276.308 273.096 276.041C272.531 274.955 273.519 273.757 272.842 272.672C272.461 272.051 271.544 272.192 271.092 271.657C271.008 271.544 270.923 271.431 270.895 271.262C270.838 271.037 271.036 270.388 271.487 269.317C271.784 268.598 271.854 268.034 270.02 267.498C269.047 267.202 268.666 267.033 268.327 266.624C268.144 266.413 267.989 266.131 267.749 265.722C267.608 265.487 266.949 264.806 265.774 263.678C265.435 263.354 265.336 263.256 264.49 261.691C264.222 261.198 263.897 260.563 263.446 259.732C263.008 258.9 262.289 257.955 261.753 257.293C261.358 256.8 261.061 256.461 261.047 256.447C259.425 254.643 258.409 253.501 257.718 252.754C256.476 251.415 256.363 251.429 256.095 251.514C255.813 251.598 255.658 251.711 255.475 251.852C253.669 252.228 252.658 252.373 252.441 252.289C251.496 251.937 251.948 250.71 251.172 250.231C251.059 250.259 250.918 250.287 250.805 250.315C250.805 250.315 250.029 251.26 249.888 252.444C249.817 252.98 249.874 253.572 250.198 254.164C251.087 255.728 253.076 255.883 254.163 257.208C254.219 257.279 254.29 257.335 254.346 257.42C255.249 258.773 255.489 260.465 256.434 261.804C256.519 261.931 256.589 262.072 256.688 262.198C256.942 262.494 257.224 262.734 258.268 263.58C258.719 263.946 259.778 264.806 260.116 265.567C260.328 266.047 260.412 266.54 260.483 267.047C260.61 267.949 260.638 268.866 260.991 269.711C261.386 270.656 262.148 271.347 262.726 272.178C262.952 272.502 263.149 272.827 263.276 273.207C263.375 273.503 263.474 274.053 263.361 275.026C263.291 275.604 263.206 276.463 263.389 277.309V277.295ZM318.552 273.813C318.552 273.813 318.496 273.813 318.467 273.799C318.369 273.785 318.157 273.757 317.748 273.828C317.748 273.828 317.748 273.828 317.734 273.828C317.734 273.828 317.734 273.828 317.72 273.828C317.72 273.828 317.72 273.828 317.706 273.828C317.706 273.828 317.706 273.828 317.691 273.828C317.677 273.828 317.691 273.828 317.677 273.828C317.677 273.828 317.677 273.828 317.663 273.828C317.663 273.828 317.663 273.828 317.649 273.828C317.649 273.828 317.649 273.828 317.635 273.828C317.409 273.87 317.141 273.926 316.915 274.913C316.901 274.969 316.774 275.533 317.169 275.801C317.437 275.984 317.72 275.914 317.988 275.745C318.101 275.674 318.185 275.589 318.284 275.491C318.482 275.279 318.651 275.04 318.75 274.828C318.82 274.659 319.046 274.095 318.806 273.842C318.778 273.813 318.707 273.785 318.665 273.785C318.637 273.785 318.608 273.785 318.58 273.785L318.552 273.813ZM300.635 292.871C300.635 292.871 302.568 292.406 303.343 291.631C303.428 291.546 303.527 291.405 303.597 291.321C303.527 291.25 303.442 291.151 303.217 291.137C303.085 291.137 302.624 291.194 301.834 291.306C301.185 291.405 300.592 291.053 299.958 291.053C299.266 291.053 298.66 291.391 297.997 291.462C297.319 291.546 296.67 291.208 295.993 291.321C295.951 291.321 292.974 293.012 293.369 293.421C293.369 293.421 293.524 293.59 293.863 293.562C294.865 293.491 295.485 292.505 296.501 292.434C298.97 292.279 299.548 292.589 299.816 292.73C300.141 292.899 300.381 292.913 300.635 292.857V292.871ZM270.359 290.263C271.064 290.461 271.812 289.728 272.489 290.362C272.828 290.672 273.011 291.137 273.307 291.49C273.477 291.687 273.674 291.856 273.984 291.913C274.21 291.96 275.536 291.762 277.963 291.321C279.571 291.025 280.714 292.406 282.195 292.533C282.929 292.603 283.634 292.406 284.354 292.335C285.92 292.18 286.527 292.335 286.978 292.66C287.176 292.801 287.359 292.913 287.528 292.984C287.683 293.054 287.853 293.097 288.05 293.083C288.459 293.054 288.869 292.73 289.165 292.434C289.405 292.195 289.574 291.955 289.588 291.955C289.87 291.532 289.856 291.166 289.546 290.996C288.869 290.63 288.107 291.053 287.415 290.785C286.442 290.404 287.458 289.22 286.752 288.656C286.752 288.656 286.569 288.53 286.329 288.375C285.737 288.008 284.65 287.402 284.029 287.501C282.703 287.726 282.252 289.432 280.771 289.389C279.783 289.361 278.443 289.009 277.723 287.529C277.258 286.57 276.326 286.627 276.016 286.655C275.988 286.655 272.842 286.923 271.106 288.854C270.627 289.093 269.978 289.023 269.667 289.587C269.555 289.784 269.78 290.094 270.345 290.263H270.359ZM320.132 259.788C320.316 259.28 320.259 259.14 320.189 258.97C320.132 258.956 320.033 258.942 319.977 258.956C318.693 259.633 318.58 261.423 317.141 261.945C317.127 261.945 315.081 262.664 313.868 261.846C313.431 261.55 313.318 261.522 313.008 261.508C313.036 261.465 313.064 261.423 313.092 261.381C312.81 261.367 312.457 261.395 311.992 261.818C311.935 261.874 311.851 261.959 311.794 262.015C311.427 262.438 311.315 263.002 310.962 263.439C310.623 263.848 310.017 263.946 309.749 264.44C308.973 265.863 308.944 267.569 308.14 268.979C307.313 270.435 306.842 271.295 306.729 271.558C306.109 273.066 305.163 274.405 304.557 275.914C304.402 276.308 304.359 276.562 304.359 276.745C304.359 276.999 304.444 277.126 304.486 277.168C305.069 277.788 305.201 278.545 304.881 279.438C304.783 279.734 304.698 279.973 304.613 280.199C303.964 282.031 303.978 282.074 304.134 282.271C304.204 282.37 305.431 282.356 306.08 279.339C306.109 279.24 306.123 279.156 306.151 279.057C306.151 279.029 306.842 276.548 307.548 274.941C307.844 274.25 308.154 273.701 308.408 273.616C308.465 273.644 308.549 273.687 308.606 273.729C308.606 273.842 308.648 273.983 308.648 274.081C308.648 274.166 308.634 274.236 308.62 274.307C308.549 275.251 308.126 276.125 308.112 277.084C308.112 277.394 308.451 277.507 308.549 277.774C308.563 277.817 308.592 277.859 308.592 277.915C308.592 278.113 308.493 278.352 308.366 278.676C307.985 279.649 308.112 279.832 308.253 280.058C308.366 280.077 309.165 279.503 310.651 278.338C310.835 278.07 310.948 277.901 311.061 277.507C311.202 276.999 311.173 276.52 311.089 276.055C310.905 275.096 310.44 274.194 310.383 273.221C310.383 273.038 310.383 272.869 310.383 272.672C310.553 271.361 311.653 270.67 312.457 270.177C315.505 268.26 314.305 267.09 313.84 267.16C313.501 267.202 313.134 267.583 312.627 268.105C310.736 270.064 310.341 269.838 310.2 269.768C309.988 269.655 309.847 268.823 309.805 267.893C309.763 266.85 309.876 265.68 310.242 265.158C310.595 264.665 311.837 263.129 313.332 263.622C314.066 263.862 314.757 263.904 315.406 263.819C317.706 263.552 319.455 261.592 320.104 259.858C320.104 259.83 320.118 259.802 320.132 259.774V259.788ZM327.468 266.709C327.751 266.812 327.91 266.93 327.948 267.061C328.103 267.639 327.68 268.246 328.033 268.823C328.103 268.936 328.428 269.246 328.78 269.148C330.135 268.795 331.009 266.54 331.334 265.694C331.828 264.411 331.701 264.158 331.56 263.89C331.546 263.848 331.489 263.819 331.447 263.791C331.151 263.566 330.727 263.678 330.431 263.439C330.29 263.326 330.234 263.171 330.163 263.016C330.092 262.861 330.022 262.692 329.867 262.593C329.824 262.565 329.754 262.593 329.712 262.593C329.246 262.847 329.288 263.425 328.964 263.777C328.597 264.172 328.033 264.327 327.666 264.736C327.525 264.891 327.37 265.13 327.257 265.314C327.257 265.314 326.932 266.117 327.243 266.526C327.299 266.596 327.341 266.681 327.44 266.723L327.468 266.709ZM312.373 297.128C312.556 296.917 312.528 296.818 312.288 296.846C312.189 296.846 312.091 296.888 311.992 296.917C311.907 296.945 311.78 296.973 311.695 297.015C311.653 297.029 311.583 297.058 311.54 297.072C311.343 297.142 311.145 297.213 310.934 297.283C310.934 297.283 310.934 297.283 310.92 297.283C310.821 297.283 310.75 297.297 310.708 297.311C310.623 297.34 310.525 297.424 310.482 297.452C310.228 297.65 310.003 298.129 310.242 298.298C310.454 298.453 311.695 297.96 312.401 297.128H312.373ZM290.35 278.747C290.731 278.817 291.436 278.197 292.071 277.633C293.454 276.407 293.75 276.534 295.415 277.253C295.584 277.323 295.796 277.563 295.372 278.324C294.568 279.776 295.387 280.269 296.854 279.198C297.206 278.944 300.282 276.604 300.719 273.687C300.748 273.461 300.776 273.264 300.804 273.095C301.002 271.854 301.058 271.713 301.481 271.008C301.961 270.219 302.92 269.937 303.442 269.204C304.105 268.26 304.289 267.118 304.641 266.047C304.825 265.469 305.051 264.905 305.446 264.411C306.193 263.481 307.661 264.059 308.338 263.016C308.338 263.016 308.563 262.579 308.295 261.747C307.957 260.69 307.703 259.887 307.491 259.21C306.701 256.687 306.687 256.475 306.715 255.714C306.715 255.587 306.997 254.009 307.407 252.726C307.717 251.753 308.126 250.964 308.563 251.119C308.789 251.204 308.944 251.387 309.1 251.556C309.241 251.725 309.396 251.88 309.622 251.937C309.946 251.739 310.031 251.669 309.974 250.936C309.946 250.654 309.918 250.287 309.861 249.78C309.763 248.849 310.962 249.019 311.371 248.469C311.625 248.117 311.583 247.609 311.54 247.539C311.3 247.102 310.849 247.158 310.158 247.243C309.734 247.285 309.043 247.369 308.521 246.552C308.451 246.439 308.422 246.326 308.38 246.214C307.957 245.001 309.1 243.69 308.281 242.492C308.197 242.379 308.027 242.238 307.886 242.238C307.858 242.238 307.816 242.253 307.773 242.267C307.548 242.379 307.364 242.492 307.096 242.901L302.836 249.893L301.975 251.302C301.58 253.374 300.085 254.093 299.689 253.388C299.619 253.402 299.52 253.388 299.464 253.445C298.25 254.347 297.813 255.841 296.741 256.856C295.683 257.871 293.736 257.237 293.016 258.872C292.65 259.703 292.367 260.338 292.142 260.831C291.38 262.466 291.182 262.537 290.364 262.776C289.489 263.03 289.179 262.438 289.01 262.114C288.996 262.086 288.967 262.072 288.953 262.043C288.347 261.085 287.401 262.184 287.034 262.692C286.95 262.819 286.879 262.917 286.879 262.917C285.849 264.905 285.821 267.231 286.329 268.401C286.371 268.513 286.414 268.598 286.456 268.682C286.978 269.923 286.978 270.022 286.795 271.234C286.668 272.08 287.5 272.601 287.528 273.391C287.528 273.433 287.556 273.461 287.542 273.503C287.472 274.532 286.851 275.434 286.879 276.478C286.879 276.618 286.893 277.027 287.26 277.225C287.994 277.619 288.474 276.83 289.108 276.816C289.645 276.816 289.715 277.211 289.757 277.662C289.814 278.127 289.856 278.62 290.392 278.719L290.35 278.747ZM324.717 233.217C324.506 233.795 323.73 233.485 323.49 234.021C323.433 234.162 323.377 234.415 323.335 234.627C323.165 235.472 322.841 235.839 322.686 236.022C321.36 235.444 320.852 235.233 320.569 235.233C320.386 235.233 320.301 235.346 320.174 235.515C320.076 235.642 320.005 235.783 319.949 235.938C319.794 236.332 319.709 236.755 319.483 237.122C319.159 237.629 318.467 237.742 318.256 238.348C318.242 238.404 318.199 238.489 318.199 238.545C318.143 239.053 318.242 239.574 318.185 240.096C318.101 240.899 317.593 241.618 317.776 242.478C318.171 241.703 318.171 240.758 318.834 240.096C319.229 239.701 319.794 239.603 320.217 239.236C320.612 238.898 320.852 238.404 321.261 238.066C321.303 238.038 321.36 237.996 321.402 237.967C321.613 237.855 321.896 237.939 321.994 238.292C322.192 238.954 322.093 239.603 321.952 240.251C321.726 241.266 321.331 242.267 321.656 243.324C321.98 244.423 322.488 244.127 323.25 243.69C323.673 243.451 323.772 243.564 323.772 243.564C324.012 243.93 323.828 244.367 323.941 244.762C323.97 244.762 323.998 244.776 324.026 244.79C324.971 244.113 324.492 242.647 324.322 242.168C323.857 240.787 324.224 239.673 324.858 239.743C324.929 240.279 324.802 240.829 325.014 241.336C325.056 241.435 325.211 241.717 325.493 241.266C325.606 241.083 325.663 240.815 325.719 240.603C325.86 239.927 325.973 237.432 326.029 235.472C326.072 234.077 326.086 232.935 326.086 232.907C326.043 232.075 325.648 230.215 325.183 230.412C324.252 231.23 325.084 232.301 324.746 233.203L324.717 233.217ZM313.092 227.015C313.05 227.184 313.022 227.466 313.008 227.649C312.979 228.044 312.909 228.692 312.5 229.693C312.217 230.37 311.695 231.385 311.442 231.864C311.413 231.906 311.399 231.963 311.371 232.005C310.962 232.822 310.651 233.696 310.242 234.5C309.607 235.754 308.225 236.544 307.985 238.052C308.07 237.967 310.369 235.035 310.383 235.021C310.567 234.768 310.807 234.415 310.976 234.147C311.752 232.963 312.387 231.709 313.12 230.511C313.332 230.158 313.642 229.862 313.91 229.552C314.023 229.411 314.164 229.284 314.235 229.129C314.616 228.34 313.657 227.861 313.769 227.142C313.812 226.874 313.967 226.648 314.08 226.479C314.305 226.127 314.602 225.69 314.715 224.083C314.799 222.857 314.644 222.631 314.475 222.391C314.432 222.462 314.362 222.575 314.32 222.645C314.108 223.279 314.094 223.998 314.277 224.774C314.334 225.037 314.282 225.29 314.122 225.535C313.784 226.028 313.276 226.409 313.106 227.029L313.092 227.015ZM307.802 176.157C307.378 176.255 307.378 176.833 307.378 176.833C307.393 177.51 307.646 178.144 307.703 178.807C307.773 179.568 308.041 180.301 308.041 181.076C308.041 181.978 307.788 182.88 308.013 183.783C308.041 183.895 308.098 184.022 308.154 184.149C308.733 185.629 310.595 187.8 310.849 187.899C310.877 187.899 310.905 187.913 310.934 187.927C311.004 187.885 311.075 187.842 311.047 187.462C311.047 187.391 311.047 187.292 311.032 187.236C310.934 185.982 310.567 184.755 310.482 183.501C310.383 182.077 310.567 180.639 310.412 179.216C310.256 177.89 309.847 177.158 309.396 176.721C308.747 176.1 308.027 176.143 307.802 176.171V176.157ZM302.017 296.832C302.017 296.832 302.017 296.832 302.031 296.832C301.947 296.832 301.862 296.86 301.777 296.874C301.777 296.903 301.735 296.987 301.904 296.903C301.947 296.888 301.975 296.86 302.017 296.846V296.832ZM304.712 294.633C305.77 293.83 306.899 293.139 307.971 292.378C308.041 292.321 308.126 292.279 308.197 292.223C308.648 291.884 309.1 291.532 309.551 291.208C310.228 290.729 311.032 290.404 311.625 289.784C311.625 289.784 312.232 289.136 311.625 289.164C311.484 289.164 311.357 289.206 311.23 289.234C310.398 289.474 309.932 289.742 309.932 289.742C309.551 289.967 309.283 290.348 308.916 290.602C308.352 291.01 307.675 291.236 307.096 291.631C306.997 291.701 306.871 291.786 306.772 291.856C306.377 292.18 304.783 293.675 303.485 294.971C302.652 295.803 301.947 296.536 301.777 296.818C301.834 296.846 301.919 296.832 302.003 296.818C302.991 296.198 303.753 295.324 304.684 294.633H304.712ZM289.108 197.357C288.911 197.385 288.742 197.512 288.53 197.54C288.29 197.583 288.064 197.498 287.825 197.54C287.712 197.568 287.571 197.611 287.458 197.667C287.458 197.667 287.43 197.667 287.415 197.681C287.218 197.78 286.752 198.034 286.4 198.795C286.23 199.161 286.132 199.57 286.089 199.979C285.962 201.008 286.188 202.037 286.738 202.432C287.204 202.756 287.768 202.601 288.318 202.178C289.108 201.586 289.828 200.472 290.11 199.485C290.167 199.26 290.223 199.049 290.237 198.851C290.237 198.781 290.336 197.244 289.123 197.357H289.108ZM310.722 149.36C310.849 149.388 310.962 149.417 311.103 149.445C311.752 149.572 311.822 149.586 313.332 151.714C313.826 152.405 314.164 153.18 314.729 153.815C314.87 153.97 315.223 154.364 315.519 154.139C315.857 153.871 315.73 153.392 315.646 153.11C315.462 152.433 315.039 151.869 314.799 151.221C314.616 150.728 314.517 150.206 314.348 149.699C314.023 148.655 313.487 147.993 313.388 147.866C312.909 147.288 312.189 147.006 311.653 146.499C311.075 146.583 310.51 146.668 309.932 146.767C309.763 146.795 309.607 146.823 309.438 146.837C309.368 147.612 310.059 149.022 310.073 149.036C310.214 149.205 310.468 149.29 310.736 149.36H310.722ZM311.625 146.471C311.032 145.897 310.633 145.634 310.426 145.681C310.327 145.709 309.988 145.836 309.72 146.175C309.593 146.344 309.466 146.541 309.424 146.837C309.593 146.809 309.749 146.781 309.918 146.753C310.496 146.654 311.061 146.569 311.625 146.471ZM314.418 145.033C314.404 145.146 314.39 145.258 314.376 145.371C314.376 145.399 314.376 145.428 314.376 145.456C314.348 145.639 314.32 145.822 314.291 146.005C314.249 146.203 314.235 146.273 314.136 146.457C314.037 146.654 313.967 146.781 314.037 147.02C314.094 147.204 314.574 147.951 314.856 147.767C314.884 147.739 314.969 147.669 315.096 147.302C315.124 147.232 315.138 147.175 315.166 147.091C315.223 146.894 315.166 146.696 315.223 146.499C315.364 146.471 315.505 146.442 315.66 146.414C315.674 146.344 315.702 146.203 315.66 145.85C315.66 145.85 315.66 145.78 315.646 145.752C315.505 144.991 315.307 144.652 315.293 144.624C315.237 144.525 315.138 144.427 315.11 144.314V144.173C315.11 144.173 315.053 144.173 315.025 144.187C314.827 143.919 314.757 143.863 314.658 143.905C314.644 143.933 314.616 143.962 314.616 143.99C314.588 144.145 314.658 144.3 314.616 144.469C314.616 144.497 314.588 144.511 314.574 144.539C314.531 144.61 314.475 144.751 314.432 145.061L314.418 145.033ZM298.307 293.844C298.123 293.886 297.954 293.942 297.46 294.534C296.374 294.563 296.092 294.788 295.88 295.028C295.909 295.084 295.937 295.169 295.979 295.211C296.261 295.535 296.699 295.408 297.023 295.606C297.263 295.747 297.277 295.972 297.305 296.339C297.319 296.592 297.333 296.846 297.489 296.903C297.757 297.015 298.462 296.522 298.688 296.184C298.871 295.916 298.843 295.676 298.829 295.62C298.829 295.578 298.815 295.521 298.801 295.493C298.744 295.197 298.547 294.957 298.462 294.675C298.392 294.422 298.547 294.154 298.462 293.9C298.462 293.872 298.42 293.83 298.293 293.858L298.307 293.844ZM297.432 138.168C297.503 137.971 297.601 137.703 297.672 137.506C297.573 137.308 297.432 137.04 297.333 136.843C293.087 136.011 292.396 134.729 290.745 131.656C289.997 130.274 288.516 129.119 287.43 129.598C286.978 129.795 286.583 130.246 286.371 131.134C285.92 132.896 285.666 132.967 284.989 133.136C282.741 129.133 281.278 127.126 280.601 127.117C279.995 127.864 279.882 128.738 279.825 129.64C279.755 130.993 279.868 132.403 278.795 133.474L284.368 137.816C284.537 137.943 284.82 137.971 285.017 138.041C285.158 137.943 285.342 137.816 285.483 137.717C285.553 137.308 285.595 136.759 285.61 136.35C285.779 136.307 286.005 136.265 286.174 136.237C286.541 136.491 286.95 136.618 287.373 136.688C288.417 136.857 289.574 136.73 290.406 137.576C290.378 137.773 290.35 138.041 290.322 138.253C289.955 138.464 289.616 138.718 289.334 139.028C287.952 140.55 288.107 143.426 293.976 148.811C295.584 150.305 296.416 151.136 296.868 151.63C297.249 152.039 297.39 152.236 297.475 152.363C299.515 155.36 300.489 157.028 300.395 157.367C299.873 159.256 302.215 159.439 303.104 160.538C303.16 160.595 303.216 160.651 303.259 160.722C303.259 160.722 303.851 162.399 304.035 163.583C304.035 163.625 304.232 165.303 304.331 167.756C304.5 172.435 304.317 179.991 301.735 184.924L299.153 186.588L294.836 189.379L290.858 191.944C290.533 192.071 290.279 192.17 290.068 192.254C289.362 192.536 289.193 192.677 288.502 193.255C289.137 195.102 288.502 195.257 287.43 195.51C287.26 195.553 286.724 195.567 286.216 194.622C286.103 194.425 286.005 194.185 285.906 193.875C285.539 192.762 285.045 192.17 284.509 191.902C283.38 191.324 282.068 192.198 281.349 192.818C281.024 193.1 280.813 193.34 280.799 193.354C279.317 195.327 278.527 196.779 278.175 198.005C277.78 199.373 277.949 200.444 278.344 201.558C278.527 202.051 278.739 202.558 278.979 203.094C279.148 203.461 279.331 203.869 279.585 204.306C279.938 204.941 280.446 205.617 281.208 206.28C281.518 206.548 281.857 206.815 282.252 207.069C282.717 207.365 283.098 207.689 283.507 208.014C284.227 208.577 284.89 209.184 285.44 209.818C286.23 210.72 286.865 211.693 287.373 212.764C287.853 213.751 288.248 214.822 288.53 215.978C288.84 217.232 289.052 218.614 289.207 220.08C289.348 221.489 289.447 222.955 289.489 224.576C289.489 224.816 289.489 225.098 289.461 225.38C289.433 225.76 289.391 226.141 289.32 226.451L282.393 234.162L279.148 237.784C278.273 237.375 278.146 236.642 278.09 235.895C278.034 235.233 278.019 234.556 277.582 234.049C276.947 233.33 275.988 233.231 275.17 232.851C274.845 232.71 274.549 232.526 274.309 232.244C274.14 232.047 273.956 231.765 273.815 231.568C273.533 231.173 273.18 230.13 272.799 229.016C272.799 228.988 272.771 228.974 272.771 228.946C272.376 227.861 271.572 227.255 270.683 226.733C269.879 226.254 269.018 225.845 268.369 225.182C268.158 224.971 267.989 224.731 267.833 224.478C267.495 223.928 267.227 223.35 266.747 222.899C266.592 222.744 266.296 222.589 266.07 222.575C265.999 222.575 265.943 222.617 265.886 222.631C265.774 222.673 265.675 222.716 265.576 222.758C265.026 223.167 264.56 224.28 264.165 225.732C263.883 226.747 263.643 227.903 263.446 229.087C263.291 230.003 263.149 230.934 263.037 231.807C262.74 234.077 262.585 235.938 262.571 236.29C262.571 236.318 262.571 236.375 262.571 236.389L264.123 239.546L265.901 243.155L266.423 244.212C266.987 245.086 268.003 245.692 268.906 246.242C269.315 246.481 269.724 246.749 270.119 247.017C271.008 247.623 271.826 248.342 272.39 249.47C272.616 249.935 272.842 250.569 273.039 251.288C273.42 252.655 273.731 254.375 273.984 256.081C274.224 257.702 274.408 259.295 274.535 260.535C274.676 261.916 274.746 262.861 274.732 262.875C274.069 264.13 271.121 262.875 269.033 261.339C268.2 260.718 267.495 260.056 267.142 259.464C266.705 258.731 266.408 257.913 266.197 257.067C265.83 255.587 265.717 253.98 265.618 252.359C265.534 250.781 265.435 249.216 265.153 247.75C264.828 246.157 264.25 244.705 263.121 243.535C262.275 242.675 261.146 241.957 259.58 241.463C259.397 240.984 259.27 240.646 259.256 240.152C259.256 239.701 259.354 239.123 259.622 238.165C259.764 237.671 259.848 237.164 259.961 236.671C260.286 235.205 260.483 233.739 260.568 232.273C260.61 231.413 260.624 230.567 260.61 229.735C260.582 228.72 260.511 227.72 260.412 226.733C260.342 226.042 260.257 225.38 260.144 224.717C259.989 223.759 259.806 222.828 259.594 221.926C259.397 221.109 259.199 220.305 258.973 219.544C258.719 218.67 258.466 217.838 258.183 217.049C257.986 216.485 257.788 215.935 257.577 215.414C257.309 214.723 257.041 214.075 256.773 213.483C256.307 212.426 255.87 211.538 255.489 210.819C255.08 210.043 254.741 209.494 254.544 209.198C254.459 209.085 254.388 208.986 254.36 208.958C254.332 209.071 254.304 209.155 254.275 209.268C254.064 210.086 253.739 210.762 253.344 211.34C251.115 214.54 246.587 214.23 246.544 214.216C246.431 213.892 246.417 213.835 246.587 212.383C246.615 212.144 246.643 211.876 246.685 211.538C246.714 211.242 246.756 210.889 246.784 210.494C246.812 210.043 246.826 209.522 246.784 208.944C246.756 208.366 246.685 207.732 246.544 207.013C246.417 206.364 246.234 205.66 245.994 204.912C245.726 204.095 245.373 203.207 244.908 202.262C244.583 201.6 244.216 200.909 243.779 200.19C243.553 199.81 243.313 199.415 243.045 199.02C242.566 198.287 242.016 197.512 241.409 196.709C240.845 195.976 240.238 195.214 239.561 194.425C238.855 193.607 238.108 192.762 237.261 191.874C236.584 191.169 235.864 190.45 235.103 189.703C234.877 189.491 234.059 189.548 233 189.745C232.154 189.9 231.166 190.14 230.193 190.394C229.276 190.647 228.387 190.901 227.653 191.127C226.694 191.423 226.017 191.634 226.003 191.648C225.862 191.719 225.749 191.817 225.622 191.902C225.227 192.17 224.888 192.48 224.606 192.86C224.126 193.509 223.774 194.27 223.393 195.003C223.012 195.722 222.589 196.413 221.982 196.934C221.799 197.089 221.615 197.244 221.404 197.371L220.557 198.386L219.217 199.979L217.806 201.656L216.677 203.009L215.549 204.363L215.055 204.955C214.73 205.349 214.476 205.66 214.194 205.998C213.785 206.505 213.418 206.942 213.094 207.323C212.586 207.929 212.149 208.451 211.824 208.817C211.471 209.212 211.217 209.48 210.992 209.691C210.554 210.1 210.272 210.212 209.835 210.368C209.581 210.466 209.214 210.635 208.833 210.861C208.212 211.213 207.507 211.707 206.872 212.355C206.139 213.116 205.56 214.075 205.391 215.202C205.32 215.668 205.306 216.147 205.419 216.668C205.49 217.035 205.518 217.613 205.518 218.304C205.518 219.065 205.461 220.009 205.391 221.024C205.306 222.18 205.193 223.434 205.052 224.703C204.911 225.972 204.77 227.226 204.615 228.382C204.446 229.721 204.29 230.919 204.163 231.807C204.022 232.78 203.924 233.414 203.924 233.414C203.557 233.386 203.063 233.386 202.696 233.414C202.372 234.077 202.358 234.613 202.499 235.064C202.809 236.05 203.98 236.558 204.855 236.797C204.883 236.783 204.897 236.741 204.911 236.727C205.179 236.445 205.447 236.036 205.588 235.698C205.617 235.726 206.519 236.84 207.521 238.404C208.565 240.025 209.708 242.14 210.117 244.071C210.413 245.481 210.315 246.791 209.482 247.736C209.383 247.835 209.285 247.919 209.2 248.004C207.817 249.286 206.139 249.005 205.574 247.806C205.207 247.017 205.038 246.228 204.982 245.438C204.869 243.986 205.123 242.52 205.25 241.054C205.32 240.279 205.349 239.518 205.25 238.743C205.095 237.361 204.389 234.909 201.158 238.207C200.636 238.743 200.058 239.419 199.395 240.279C199.127 240.632 198.845 240.857 198.577 240.998C197.504 241.505 196.418 240.406 195.402 238.517C194.33 236.558 193.342 233.739 192.538 231.018C191.903 228.876 191.367 226.803 191.001 225.253C190.634 223.688 190.408 222.645 190.408 222.589C190.112 220.559 189.265 218.741 188.278 216.979C186.571 213.877 184.483 210.917 184.342 207.224C184.342 207.027 184.313 206.829 184.327 206.632C184.327 206.59 184.313 204.01 184.215 201.022C184.116 197.723 183.918 193.918 183.566 192.381C183.467 191.958 183.326 191.38 183.227 190.957C183.058 190.281 182.423 189.449 181.83 189.097C181.111 190.309 180.561 191.225 180.067 191.874C179.093 193.171 178.331 193.382 177.019 192.48C176.145 191.874 175.002 190.76 173.394 189.153C173.253 189.012 173.14 188.899 172.999 188.758C173.041 188.589 173.083 188.392 173.126 188.195C173.168 187.997 173.224 187.8 173.253 187.631C173.831 187.363 174.55 187.053 175.199 186.799C175.341 186.743 175.51 186.672 175.651 186.616C175.679 186.362 175.707 186.01 175.736 185.756C175.439 185.728 175.157 185.657 174.889 185.587C173.746 185.263 172.843 184.572 171.969 183.797C171.038 182.979 170.149 182.091 169.034 181.57C166.537 180.385 169.034 177.482 167.285 175.988C167.228 175.945 167.186 175.931 167.13 175.889C165.803 174.93 164.661 176.241 163.433 176.523C163.363 176.537 163.292 176.565 163.222 176.58C162.276 176.692 160.414 176.467 158.256 176.1C156.591 175.804 154.743 175.424 153.022 175.043C150.468 174.465 148.197 173.887 147.096 173.563C146.814 173.478 146.574 173.408 146.475 173.366C146.109 173.211 145.629 172.985 145.276 172.802C143.428 171.829 143.357 169.729 142.37 168.207C141.904 168.136 141.481 168.066 141.086 167.995C138.095 167.502 137.15 167.262 135.894 166.374C135.429 166.036 134.921 165.613 134.244 165.035C131.761 162.949 131.93 159.129 129.644 156.916C129.235 156.521 128.77 156.155 128.163 155.887C128.149 155.887 128.149 155.887 127.895 155.887C126.301 156.028 126.202 156.084 125.186 156.62C125.539 161.807 126.484 166.938 126.766 172.125C127.048 172.224 127.429 172.365 127.726 172.478C128.304 171.731 128.346 170.702 128.967 169.983C130.688 171.716 129.39 175.494 131.224 176.876C131.577 177.143 132.029 177.327 132.649 177.383C134.794 177.58 135.979 176.453 136.995 175.099C138.222 173.464 139.196 171.505 141.312 171.082C141.481 171.843 141.622 172.52 141.763 173.168C143.245 180.047 143.343 180.089 144.5 180.245C149.099 180.865 148.704 185.545 146.955 188.66C146.362 189.717 146.264 189.971 145.996 190.957C145.967 191.042 145.953 191.084 145.939 191.183C145.445 191.253 144.712 191.112 144.303 190.816C143.343 192.029 142.497 193.086 141.721 194.059C139.689 196.61 138.25 198.4 137.263 199.641C135.005 202.46 134.921 202.516 134.695 202.643C134.131 203.009 133.524 203.179 132.889 203.277C131.281 203.531 129.546 203.249 128.036 204.024C127.697 204.208 127.415 204.433 127.161 204.701C125.821 206.04 125.341 208.239 123.253 208.859C119.261 210.043 117.836 210.466 116.594 211.072C115.903 211.411 115.254 211.805 114.267 212.411C112.912 213.243 111.713 213.835 110.655 214.216C109.103 214.78 107.876 214.864 106.987 214.441C105.167 205.758 104.744 196.85 102.895 188.166C102.458 186.123 100.469 184.826 100.201 182.697L99.58 156.507C99.58 156.507 99.4953 156.408 99.453 156.366C99.2978 156.592 99.1003 156.888 98.9451 157.099C98.6771 157.099 98.3243 157.071 98.0563 157.057C97.7741 156.634 97.2662 156.169 96.8148 155.887C96.7866 155.873 96.7583 155.844 96.7442 155.83C93.4712 165.091 95.0936 175.48 97.0828 185.686C97.2803 186.658 97.4638 187.645 97.6613 188.618C97.8588 189.59 97.9293 190.591 97.9434 191.606C98.014 195.637 97.2662 199.824 100.299 203.32C100.342 203.376 100.384 203.418 100.426 203.475C107.297 211.481 106.253 215.639 105.9 217.021C105.689 217.853 105.491 218.628 105.463 219.29C105.463 219.474 105.449 219.657 105.463 219.826C105.548 220.643 105.9 221.236 106.394 221.701C107.974 223.181 111.247 223.068 114.083 222.603C116.707 222.18 118.922 221.461 118.979 221.433C119.613 221.207 120.164 221.066 120.686 220.954C125.144 220.066 125.666 223.632 124.453 228.636C123.832 231.215 122.745 234.176 121.49 237.108C120.375 239.744 119.12 242.351 117.963 244.635C115.818 248.878 113.956 252.021 113.787 252.162C113.66 252.261 113.561 252.373 113.434 252.472C110.711 254.854 108.722 257.321 107.311 259.788C100.342 272.108 107.918 284.865 111.53 290.912C108.045 290.221 104.744 289.516 101.273 288.276C99.9938 286.284 99.2508 285.212 99.0439 285.062C99.3354 285.851 100.055 287.049 101.202 288.656C94.9525 287.148 89.5491 285.541 85.2038 283.836C81.8179 282.511 79.2078 281.2 77.2045 279.663C62.0665 254.446 58.1868 231.822 56.8465 221.616C56.6772 220.066 56.522 218.543 56.3527 217.204L56.3245 216.795C56.2257 215.16 56.1693 213.342 56.1129 211.467C56.1129 211.072 56.0846 210.678 56.0846 210.269C56 206.421 56 202.389 56 199.063C56.127 196.088 56.2116 194.115 56.3809 192.127C56.395 191.958 56.4091 191.789 56.4232 191.62C56.5361 190.365 56.7054 189.054 56.9311 187.462C57.3403 184.614 57.961 180.822 58.9909 174.62C59.1884 173.648 59.3718 172.802 59.5411 172.012C59.7528 171.026 59.9503 170.152 60.1478 169.32C60.3735 168.39 60.6134 167.445 60.8814 166.487C60.9943 166.092 61.1071 165.683 61.2341 165.261C61.3893 164.753 61.5445 164.217 61.7279 163.639C62.5603 160.975 63.7595 157.451 65.7064 151.686C65.7064 151.714 65.6782 151.757 65.6641 151.785C65.128 153.208 64.5777 154.83 64.0275 156.479C63.4914 157.973 63.0117 159.439 62.5462 160.905C62.4192 161.285 62.3063 161.68 62.1794 162.075C62.2781 161.694 62.3769 161.328 62.4756 160.989C62.9412 159.453 63.4491 157.804 63.9993 156.183C64.225 155.577 64.4508 154.928 64.7188 154.223C65.0151 153.434 65.3396 152.574 65.7346 151.559C65.7487 151.517 65.7628 151.489 65.7769 151.446C65.791 151.404 65.8051 151.376 65.8192 151.334C65.8475 151.249 65.8898 151.15 65.918 151.066C67.0184 148.204 68.2741 145.23 69.8683 141.819C69.9388 141.664 70.0235 141.509 70.1081 141.34C71.3355 138.873 73.0567 135.631 75.8783 130.317C75.8783 130.317 75.9066 130.274 75.9207 130.218L78.3331 126.313L79.3066 124.735L80.012 123.593C80.2095 123.283 80.407 122.973 80.6046 122.677L81.3805 121.535C81.4651 121.408 81.5639 121.267 81.6486 121.14C81.9448 120.703 82.2552 120.266 82.5515 119.829C82.9183 119.294 83.2851 118.772 83.5955 118.293C83.539 118.391 83.5249 118.448 83.4967 118.532C83.4685 118.589 83.4262 118.673 83.4262 118.716C84.4984 118.067 84.964 116.756 86.1631 116.221C86.6993 115.981 86.1632 117.052 86.2619 117.461C86.4735 117.574 86.7839 117.222 86.9109 117.503C86.9955 117.687 86.8403 118.011 87.1225 118.081C87.3341 118.124 87.447 118.039 87.7433 117.785C88.1101 117.489 88.1524 117.489 88.2512 117.532C88.3781 117.828 87.8561 119.392 87.842 119.406C87.8138 119.463 87.7715 119.561 87.7292 119.618C87.3059 120.266 86.7275 120.788 86.276 121.408C85.4719 122.508 85.1333 123.889 84.2303 124.932C84.0046 125.186 83.6519 125.482 83.3839 125.679C83.0029 125.961 81.8179 126.821 81.2394 128.371C79.9133 127.004 79.4195 125.679 79.7298 124.382C79.4195 125.707 79.885 127.201 81.1124 129.175C80.0967 135.899 79.5464 139.606 81.4087 142.425C84.2727 141.438 84.7947 135.532 87.4329 135.617C87.8279 135.617 88.2653 135.772 88.7732 136.082C88.5051 137.21 89.9582 142.256 92.4695 143.778C93.2878 144.272 94.233 144.399 95.2629 143.863C97.1816 142.862 97.9999 143.186 98.4372 143.919C98.6629 144.314 98.804 144.807 98.931 145.315C99.1567 145.442 99.453 145.611 99.6646 145.752C100.144 145.554 100.864 145.456 101.386 145.498C103.121 143.172 104.25 141.692 105.026 140.691L111.431 129.203C111.233 129.231 110.965 129.274 110.768 129.302C109.851 128.484 109.018 129.006 108.186 129.457C107.593 129.767 107.001 130.049 106.366 129.795C105.082 129.302 105.788 127.85 105.04 127.089C104.715 127.286 104.306 127.61 104.038 127.878C104.01 127.906 103.333 128.259 102.754 128.104C101.851 127.864 101.188 126.384 103.685 120.393C104.701 117.94 106.07 116.319 107.085 116.362C107.255 116.362 107.41 116.362 107.565 116.376C109.667 116.46 110.26 116.319 109.23 113.951C108.962 114.05 108.793 114.106 108.651 114.205C108.426 114.332 108.214 114.529 107.706 115.037C107.523 114.952 107.283 114.839 107.1 114.769C107.142 114.571 107.198 114.318 107.255 114.135C107.128 113.979 106.959 113.754 106.832 113.599C106.662 113.599 105.435 114.233 103.149 115.502C103.178 115.304 103.22 115.051 103.248 114.853C103.121 114.712 102.966 114.515 102.853 114.36C102.627 114.642 102.43 114.938 102.246 115.248C102.007 115.727 101.781 116.207 101.555 116.686C101.005 118.081 100.666 119.576 100.003 120.929C99.848 120.971 99.7069 121.042 99.5659 121.098C97.7036 121.845 97.1816 123.931 95.7567 125.115C95.0654 124.241 99.058 114.149 100.836 112.246C106.338 106.396 106.578 100.786 106.563 100.743C107.532 99.6815 108.134 98.9109 108.369 98.4316C107.777 98.6149 107.184 98.9814 106.592 99.4465C104.193 101.349 101.95 105.113 101.047 107.072C100.807 107.594 100.666 107.989 100.638 108.186C100.61 108.397 99.9891 113.331 97.9434 114.233C98.4137 113.237 98.6676 112.565 98.7053 112.217C97.887 112.809 97.2239 113.542 96.6173 114.346C94.6562 116.926 93.3301 120.139 89.7043 121.027C89.803 118.391 89.8454 117.405 91.623 116.996C93.6828 119.265 96.5326 113.19 98.0704 109.92C99.6787 106.49 101.781 103.21 104.377 100.081C104.349 99.8553 104.306 99.5734 104.278 99.3479C101.908 101.251 101.217 101.364 100.61 101.448C100.807 101.124 100.963 100.588 100.934 100.208C95.3758 104.183 91.3973 109.765 86.53 114.445C86.4312 114.529 86.3466 114.628 86.2478 114.727L86.3466 114.614L88.9283 111.329C88.9848 111.259 89.0553 111.174 89.1117 111.104C89.1541 111.048 89.2105 110.963 89.2669 110.907C89.2952 110.864 89.3375 110.836 89.3657 110.794C90.0006 110.061 90.6636 109.3 91.3549 108.538C94.4446 105.071 98.0704 101.209 101.202 97.9665C101.456 97.7127 101.696 97.459 101.936 97.2194C101.88 97.2617 101.837 97.3181 101.781 97.3603C101.992 97.1348 102.218 96.9093 102.43 96.6978C102.486 96.6414 102.529 96.5992 102.571 96.5569C102.529 96.5992 102.5 96.6273 102.458 96.6696C102.627 96.5005 102.797 96.3454 102.966 96.1763C102.853 96.289 102.74 96.4159 102.613 96.5428C102.416 96.726 102.218 96.9093 102.035 97.1066C101.978 97.163 101.936 97.2194 101.908 97.2758C101.71 97.5295 101.654 97.7127 101.569 98.1356C109.413 91.2004 114.379 87.0891 116.467 85.8017C116.34 85.9708 116.157 86.1963 116.03 86.3514C118.555 84.8008 121.448 83.2221 124.354 81.742C127.768 79.9941 131.182 78.3872 134.004 77.1045C137.855 75.3566 140.592 74.2148 140.635 74.2007L140.31 74.3417C137.361 76.7098 133.044 76.8507 130.745 80.2479C131.14 80.1633 131.676 80.1351 132.071 80.1774C131.775 80.4452 131.493 80.9245 131.366 81.3051C133.491 80.7694 134.672 80.5251 134.907 80.5721C134.907 80.5721 134.893 80.6284 134.878 80.6566C134.808 80.854 134.709 81.0795 134.639 81.2628C135.89 80.7365 136.764 80.558 137.263 80.7271C139.605 79.5854 141.072 76.8366 144.133 76.9917C144.035 77.1467 143.922 77.3723 143.823 77.5273C145.474 76.9353 146.856 75.6526 148.45 74.9196C149.339 74.5108 150.285 74.2712 151.399 74.4121C151.042 74.8256 150.223 75.4129 148.944 76.1741C152.09 74.7363 153.487 74.102 154.249 73.7073C154.856 73.3972 155.081 73.214 155.476 72.918C154.178 73.2281 151.413 73.2704 151.018 73.2704C150.99 73.2704 150.948 73.2704 150.934 73.2704C151.554 72.8334 152.485 72.2555 153.487 71.6634C155.589 70.423 158.016 69.1262 158.721 68.9147C164.129 67.3266 167.003 66.3446 167.341 65.9687C167.341 65.9687 167.313 65.9546 166.805 65.8982C166.749 65.8982 163.941 66.6171 160.696 67.5756C156.859 68.7033 152.387 70.1974 151.103 71.3251C151.06 71.3674 145.318 74.0597 140.649 76.1318C137.799 77.4005 135.358 78.4295 134.822 78.4859C134.963 78.3308 135.161 78.1053 135.302 77.9502C133.834 78.6644 132.983 79.0309 132.748 79.0497C135.612 77.7529 141.594 75.0605 145.389 71.9172C144.444 72.1991 143.541 72.5938 142.596 72.9039C142.412 72.8052 142.172 72.6783 141.989 72.5797C144.162 71.3392 146.518 70.4794 148.761 69.3799C148.352 69.5208 147.816 69.7041 147.406 69.831C149.678 68.8301 152.683 67.8293 155.984 66.899C160.273 65.6726 165.042 64.545 169.401 63.671C173.069 62.9239 176.399 62.3601 178.868 62.0641C179.756 61.9513 180.575 61.8667 181.21 61.8245C180.998 61.9231 180.702 62.0641 180.476 62.1628C181.463 61.9372 182.197 61.8245 182.677 61.8245C182.31 61.9795 181.844 62.2614 181.52 62.5152C181.492 62.5152 181.478 62.5011 181.435 62.5152C180.927 62.5433 180.292 62.6796 179.531 62.9239C179.432 63.2904 179.122 63.7274 178.811 63.9529C178.966 64.0516 179.192 64.1926 179.347 64.3053C178.995 64.545 178.515 64.8551 178.162 65.0947C178.134 65.2921 178.106 65.5458 178.078 65.7431C176.356 66.6594 174.565 67.6038 172.618 67.2514C172.862 66.3587 173.116 65.8042 173.38 65.5881C171.32 66.6171 167.863 68.5341 167.764 69.9437C168.555 69.5913 169.133 68.8019 170.092 68.8301C170.219 68.9711 170.374 69.1543 170.501 69.2953C170.882 69.1684 171.362 68.9006 171.701 68.661C173.873 67.8716 174.014 67.8293 174.988 67.5756C175.157 67.7025 175.383 67.8716 175.552 68.0126C179.455 66.3399 181.426 65.5082 181.463 65.5176C181.21 65.6867 180.354 66.0673 178.896 66.6594C178.868 66.758 178.839 66.8567 178.811 66.9695C178.783 67.0681 178.755 67.1809 178.726 67.2655C183.721 65.8559 184.116 65.8418 185.146 65.8136C185.047 65.9687 184.906 66.1942 184.807 66.3493C185.809 66.2083 186.81 66.0532 187.826 65.9264C187.53 66.1096 187.205 66.4197 186.966 66.7017C186.937 66.7439 186.895 66.7721 186.867 66.8144C189.209 66.0532 190.432 65.6914 190.535 65.729C190.464 65.9405 190.38 66.2224 190.309 66.4197C190.62 66.6876 191.071 66.9977 191.438 67.1809C192.581 65.9123 193.357 65.0524 193.991 64.4322C195.289 63.1777 195.924 62.9944 197.349 63.079C197.349 63.079 197.222 63.2904 197.039 63.5864C196.545 64.3476 195.501 65.8418 194.231 67.1245C192.99 68.365 191.551 69.4081 190.168 69.3658C189.872 69.3235 189.858 69.3235 190.168 69.8169C190.516 69.8638 192.256 68.863 195.388 66.8144C195.388 66.8144 195.332 66.7862 195.318 66.758C195.177 66.6594 194.993 66.5466 194.866 66.4479C195.543 65.7149 196.319 65.0806 196.926 64.2771C197.519 63.9388 198.083 63.5583 198.661 63.1918C198.873 63.0649 199.07 62.9239 199.282 62.8112C199.155 62.9239 199.028 63.0367 198.901 63.1495C198.323 63.6569 197.716 64.1221 197.208 64.7C197.363 64.8128 197.561 64.9538 197.716 65.0665C197.899 65.0242 198.139 64.9538 198.323 64.9115C198.182 64.7846 197.998 64.6014 197.857 64.4745C198.196 64.1644 198.765 63.9764 199.564 63.9107C199.705 64.0657 199.889 64.2631 200.03 64.4181C200.171 64.0516 200.185 64.0234 201.497 62.5715C201.568 62.5011 201.624 62.4306 201.695 62.346C202.231 62.4212 204.789 61.6271 209.369 59.9638C209.369 59.9638 209.412 59.9638 209.313 60.4149C209.44 60.4712 209.835 60.5699 210.103 60.6545C210.159 60.6827 210.244 60.7109 210.3 60.7391C210.526 60.8236 210.766 60.9223 210.949 61.0069C210.964 61.0633 210.964 61.1056 210.978 61.1478C211.203 62.0077 210.47 62.6561 210.371 63.4455C210.371 63.516 210.343 63.6005 210.357 63.671C210.653 63.5442 211.02 63.4032 211.344 63.3045C211.387 63.2904 211.443 63.2622 211.486 63.2481C211.669 63.3327 211.838 63.4032 211.965 63.4737C212.642 63.1542 213.343 63.3421 214.067 64.0375C215.008 63.9623 215.567 63.8731 215.746 63.7697C215.704 63.671 215.647 63.5724 216.071 63.5301C217.058 63.6146 217.82 64.2067 218.582 64.8128C219.541 65.5881 220.501 66.3774 221.926 66.1237C221.615 65.8982 221.305 65.4471 221.164 65.0947C222.391 65.8418 222.49 65.8982 224.084 65.6022C223.872 65.2357 223.562 64.9397 223.336 64.5873C223.238 64.4322 223.153 64.2631 223.111 64.0657C224.112 64.3335 224.536 64.4463 224.846 64.545C225.072 64.6155 225.241 64.6859 225.523 64.7987C225.523 64.7987 231.157 65.5505 242.425 67.0541C241.24 66.462 239.942 66.1801 238.771 65.5881C238.855 65.5881 244.668 66.307 250.368 67.3501C254.501 68.1112 258.578 69.0557 260.384 70.0283C260.427 70.0565 260.469 70.1129 260.525 70.1552C260.596 70.2256 260.666 70.2961 260.737 70.3525C258.861 70.2115 257.097 69.3799 255.192 69.5208C256.443 69.9907 257.299 70.4465 257.76 70.8881C257.619 70.8881 257.45 70.8881 257.295 70.9022C257.238 70.9022 257.196 70.9022 257.139 70.9022C262.642 73.3549 265.435 74.5954 267.057 75.4552C268.722 76.3433 269.188 76.8225 270.091 77.8093C269.15 77.5461 268.548 77.4334 268.285 77.471C268.468 77.7106 268.666 77.9079 268.877 78.1194C269.089 78.3167 269.301 78.5 269.484 78.7114C268.652 78.3872 267.876 77.9361 267.001 77.7529C272.277 81.8266 278.626 84.3921 284.142 88.1416C286.639 89.8472 288.967 91.7924 290.942 94.2451C291.168 94.5271 291.394 94.7949 291.606 95.0768C291.507 95.0486 278.019 88.2826 275.438 86.0272C275.297 85.9003 275.014 85.6466 274.605 85.3083C273.575 84.4203 271.77 82.912 269.71 81.3051C266.846 79.0638 263.502 76.6534 260.949 75.427C260.441 75.1874 259.961 74.976 259.538 74.835C259.764 74.976 259.947 75.0887 260.13 75.2015C261.471 76.0332 261.513 76.0614 261.809 76.2869C261.809 76.3433 261.837 76.4138 261.837 76.4701C262.9 77.2031 263.502 77.7388 263.643 78.0771C260.596 77.2125 259.044 76.7944 258.988 76.8225C259.665 77.3723 260.37 77.8656 261.09 78.3449C262.247 79.1061 263.418 79.825 264.546 80.6285C264.546 80.8963 264.433 81.2205 264.292 81.4742C264.25 81.5447 264.222 81.6293 264.179 81.6856C262.524 81.0184 261.297 80.7271 260.497 80.8117C260.695 81.1077 260.92 81.5165 261.061 81.8407C261.033 81.8407 257.563 81.3192 256.434 82.0239L256.928 82.7569L259.34 86.436L262.289 90.9185L262.416 91.1158C262.416 91.1158 266.366 94.1888 269.23 93.3007C269.103 93.1457 269.018 93.0611 268.92 92.9483C268.341 92.2858 268.285 92.1589 268.158 91.4823C268.186 91.4823 271.657 92.4831 273.462 93.4558C273.209 92.9671 272.715 92.2388 271.981 91.2709C272.094 91.3132 287.585 100.898 288.685 102.266C287.373 101.913 287.317 101.899 286.922 101.899C287.133 102.238 291.888 106.875 293.694 107.538C294.418 107.81 294.86 108.252 295.02 108.863C294.865 108.933 294.653 109.018 294.512 109.074C294.596 109.257 294.723 109.511 294.808 109.694C294.564 109.61 292.377 107.74 288.248 104.084C287.288 103.238 287.176 103.14 279.741 97.6564C278.965 97.0925 278.146 96.4723 277.201 95.7816C275.649 94.6398 275.409 94.5552 274.676 94.3015C275.367 94.8935 276.115 95.542 276.891 96.2186C279.98 98.9109 283.536 102.125 286.625 105.522C289.856 109.06 292.593 112.753 293.722 116.235C294.06 117.278 294.272 118.293 294.3 119.265C294.103 119.449 293.835 119.702 293.637 119.9C292.791 119.759 292.043 119.35 291.239 119.096C291.154 119.153 291.069 119.209 290.971 119.265C290.886 119.322 290.815 119.364 290.745 119.406L293.482 128.907L293.919 130.429C294.089 130.74 295.245 131.557 296.36 132.248C297.235 132.798 298.081 133.277 298.363 133.361C300.945 134.151 306.729 140.832 305.53 143.116C304.881 143.257 304.373 143.651 303.851 144.032C303.414 144.356 302.963 144.666 302.412 144.793C300.338 142.862 299.167 140.268 297.418 138.098L297.432 138.168ZM91.1715 277.267C91.1151 276.745 90.5508 276.097 90.2122 275.716C89.5491 274.969 89.5209 274.941 89.14 274.194C88.096 272.08 87.3764 269.824 86.3042 267.724C86.2196 267.569 86.1208 267.372 86.0362 267.217C85.7399 266.667 85.4577 266.455 85.3167 266.343C85.4436 266.596 85.627 266.949 85.754 267.202C85.5424 266.949 85.3308 266.794 84.9922 266.794C85.359 268.105 86.4171 269.049 86.8545 270.332C87.5975 272.578 88.0772 273.954 88.2935 274.462C88.3781 274.659 88.491 274.913 88.5897 275.11C88.9848 275.942 89.4503 276.562 89.9441 276.971C90.325 277.281 91.228 277.774 91.1715 277.239V277.267ZM91.2703 261.592C91.1856 260.775 90.8894 260.013 90.7906 259.21C90.706 258.505 90.7906 257.786 90.6919 257.067C90.6072 256.433 90.2686 254.868 89.2105 254.22C88.8437 253.995 88.3358 253.797 87.969 254.135C87.6727 254.403 87.6022 254.812 87.32 255.08C87.1225 255.263 86.8121 255.207 86.6146 255.39C86.5723 255.432 86.5159 255.475 86.4876 255.531C86.3607 255.757 86.4312 255.996 86.5864 256.588V256.208C86.7698 257.067 87.0943 257.899 87.2918 258.759C87.4752 259.605 87.4047 260.493 87.6304 261.339C87.715 261.635 87.8984 262.17 88.2512 262.424C88.5474 262.635 88.8578 262.607 89.0694 262.579C89.4927 262.523 89.8595 262.269 90.2827 262.184C90.5367 262.142 90.7765 262.255 91.0304 262.184C91.101 262.17 91.2139 262.114 91.2421 262.043C91.2985 261.916 91.2985 261.719 91.2844 261.592H91.2703ZM156.661 112.908C156.746 114.275 157.367 115.586 158.185 115.812C158.481 115.854 159.3 115.6 159.836 114.614C160.344 113.683 160.386 113.035 159.949 112.669C159.779 112.528 159.61 112.373 159.638 112.189C159.765 111.555 160.174 111.048 160.386 110.441L161.091 109.539L160.739 109.511C160.739 109.511 160.781 109.37 160.781 109.3C160.795 109.159 160.823 108.51 159.539 109.455C159.3 109.455 158.919 109.525 158.524 109.638C158.326 109.694 158.129 109.737 157.931 109.849C156.901 110.441 156.577 111.682 156.647 112.88L156.661 112.908ZM134.159 132.022C134.85 132.769 135.584 131.219 136.303 131.938C137.136 132.755 136.247 134.052 137.108 134.87C137.192 134.954 137.432 135.067 137.672 135.152C137.785 135.194 137.912 135.236 138.01 135.264C139.054 135.56 141.086 135.814 142.821 134.08C142.948 133.953 143.64 131.106 143.64 131.078L144.19 126.849C144.373 125.327 144.147 123.818 144.19 122.296C144.232 120.647 145.643 119.294 145.234 117.532C145.135 117.123 144.726 116.883 144.655 116.46L144.571 115.178L144.303 111.428L146.631 109.567C146.899 109.441 147.153 109.511 147.477 109.638C147.59 109.68 147.675 109.708 147.802 109.765C148.041 109.878 148.662 110.145 149.085 109.849C149.438 109.582 151.159 106.086 150.454 105.057C150.426 105.014 150.369 105.014 150.327 105C149.918 104.718 148.987 105.141 148.338 105.451C147.449 105.874 147.04 106.072 146.461 106.029C145.84 105.926 145.375 105.964 145.065 106.142C144.416 106.523 143.851 106.861 143.343 107.171C139.45 109.539 139.252 109.92 138.998 110.455C138.956 110.54 138.942 110.653 138.927 110.751C138.801 111.428 139.139 112.105 138.998 112.781C138.744 113.951 137.94 114.952 137.968 116.207C137.968 116.348 137.968 116.432 138.123 117.024C138.279 117.63 138.589 118.8 139.238 121.225C139.689 122.902 139.196 123.1 138.956 123.184C138.547 123.353 137.672 123.692 136.981 124.89L134.074 131.529C134.046 131.67 134.074 131.881 134.159 131.98V132.022ZM126.498 104.733C126.541 104.845 126.668 104.944 126.936 105.169C127.302 105.466 127.359 105.564 127.486 105.762C127.486 105.762 127.486 105.733 127.5 105.719C128.022 106.086 129.39 105.043 131.563 102.646C131.662 102.534 131.803 102.393 131.902 102.28C131.478 102.519 131.267 102.562 130.914 102.491C130.759 102.449 130.618 102.378 130.463 102.35C130.223 102.294 129.983 102.238 127.655 103.013C127.373 103.111 126.992 103.281 126.71 103.591C126.273 104.084 126.498 104.704 126.498 104.733ZM112.108 115.347C112.193 115.417 112.334 115.46 112.432 115.502C112.432 115.502 112.432 115.502 112.447 115.502C112.447 115.502 112.447 115.502 112.461 115.502C112.461 115.502 112.461 115.502 112.475 115.502C112.475 115.502 112.475 115.502 112.489 115.502C112.489 115.502 112.489 115.502 112.503 115.502C112.503 115.502 112.503 115.502 112.517 115.502C112.517 115.502 112.517 115.502 112.531 115.502C112.531 115.502 112.531 115.502 112.545 115.502C113.138 115.572 113.575 115.53 113.956 115.403C114.323 115.276 114.662 115.079 115.028 114.853C116.467 113.979 117.497 113.444 118.823 113.923C119.007 113.994 119.162 114.078 119.289 114.177C120.107 114.811 119.91 116.009 120.446 116.799C120.926 117.503 122.209 118.617 123.394 118.871C124.001 119.012 124.551 118.913 124.565 118.899C125.355 118.758 126.089 118.391 126.879 118.222C126.95 118.208 127.034 118.194 127.105 118.18C128.389 115.629 128.925 114.586 128.925 113.148C128.925 112.316 128.629 111.527 128.516 110.709C128.417 110.033 128.826 109.398 128.685 108.708C128.614 108.341 128.502 108.242 127.867 107.848C127.105 107.368 127.063 107.115 127.048 106.621C126.978 106.65 126.893 106.692 126.809 106.706C126.329 106.819 125.877 106.523 125.398 106.565C124.34 106.664 123.592 107.594 122.576 107.834C122.35 107.89 122.097 107.918 121.843 107.89C121.179 106.931 123.098 106.621 122.802 105.606C121.335 104.803 123.366 104.169 123.394 104.169C123.959 104.098 124.89 103.971 125.116 103.21C125.116 103.168 125.144 103.111 125.116 103.083C124.862 102.717 124.481 103.055 124.185 102.914C123.634 102.646 124.424 101.998 123.987 101.617C123.931 101.575 123.634 101.476 123.183 101.589C122.689 101.716 122.604 101.786 120.601 103.732C119.952 104.352 119.077 104.493 118.316 104.888C117.145 105.494 116.538 106.664 115.649 107.538C114.845 108.327 113.843 108.877 112.997 109.624C112.912 109.694 112.813 109.793 112.743 109.863C112.376 110.202 111.572 111.188 111.544 111.231C111.544 111.245 110.373 113.402 110.486 113.895C110.514 114.022 112.094 115.276 112.108 115.29V115.347ZM192.073 110.625L188.249 110.286L185.484 110.033C185.019 110.004 184.821 110.047 184.652 110.103C184.595 110.117 184.13 110.3 183.721 111.174C183.509 111.611 183.636 112.105 183.495 112.57C183.269 113.275 183.185 113.444 183.058 113.726C183.368 114.008 183.523 114.106 183.735 114.135C184.158 114.022 184.229 113.909 184.525 112.809C184.68 112.246 184.991 111.062 187.177 111.259C187.276 111.259 187.361 111.287 187.459 111.301C188.757 111.513 189.971 112.373 191.367 111.893C191.664 111.795 191.861 111.611 191.974 111.344C192.059 111.146 192.073 110.85 192.073 110.639V110.625ZM196.009 137.759C196.009 138.605 196.065 139.423 196.164 140.212C196.065 139.423 196.051 138.591 196.009 137.759ZM199.338 145.061C199.014 144.187 198.337 143.384 197.208 142.933C196.827 142.777 196.418 142.651 195.924 142.594C195.769 142.594 195.445 142.467 195.431 142.622C195.134 142.665 194.739 142.665 194.429 142.763C194.387 142.763 194.344 142.763 194.302 142.792C193.653 143.073 193.272 143.778 193.399 144.568C193.512 145.202 193.991 145.893 194.923 146.471C195.106 146.583 195.289 146.696 195.515 146.809C195.416 147.838 195.318 148.881 195.219 149.924C195.318 148.881 195.416 147.838 195.741 146.894C196.63 147.091 196.982 147.147 197.899 147.175C198.309 147.175 198.816 147.175 199.55 147.175C199.649 146.555 199.592 145.794 199.324 145.075L199.338 145.061ZM233.141 95.2318C233.099 95.0345 232.986 94.7103 232.859 94.3579C232.295 92.7792 231.082 90.1291 230.221 90.6084C230.207 90.5661 230.193 90.5097 230.179 90.4674V90.6648C230.179 90.6648 230.151 90.7916 230.151 90.8339C230.151 90.9655 230.325 91.675 230.673 92.9624C230.856 93.6108 230.983 94.231 231.053 94.7949C231.082 94.9781 231.124 95.2037 231.11 95.3587C231.068 96.9938 229.77 98.2625 229.77 99.9117C230.108 100.109 230.292 100.165 230.56 100.18C231.053 100.053 231.166 99.9822 231.378 98.7981C231.505 98.0933 231.547 97.8255 231.858 97.4449C232.21 97.0079 232.888 97.0079 233.156 96.4723C233.212 96.3454 233.353 96.1058 233.127 95.2318H233.141ZM89.281 299.073C89.408 299.242 89.535 299.398 89.662 299.567C90.2122 300.272 90.7765 300.976 91.369 301.667C94.2471 305.078 97.7177 308.574 103.135 313.804C110.387 320.809 117.723 326.25 123.747 330.183C123.987 330.338 124.213 330.479 124.438 330.634C132.029 335.54 137.376 337.964 137.46 338.006C137.39 337.95 137.291 337.879 137.22 337.823C137.446 337.851 137.742 337.908 137.954 337.978C137.869 337.851 137.757 337.682 137.644 337.569C134.667 334.285 130.985 331.818 127.796 328.788C124.565 325.715 123.07 321.373 120.009 318.173C117.949 316.031 116.453 314.466 115.635 313.028C115.198 312.267 114.718 307.305 116.51 306.995C118.457 306.643 118.471 304.867 116.594 300.638C115.113 297.297 112.884 294.351 111.473 290.968C107.904 290.094 104.602 289.375 101.499 288.642C101.964 289.22 106.197 297.762 106.211 297.791C106.126 297.805 105.999 297.833 105.9 297.847C102.768 295.578 103.079 291.532 101.118 288.656C94.7832 287.035 89.3798 285.414 85.0345 283.723C81.6486 282.398 79.0386 281.087 77.1763 279.79C82.749 289.333 85.7822 294.506 89.2669 299.087L89.281 299.073ZM95.9401 131.007C95.9401 131.007 96.0106 131.021 96.0388 131.036C96.0812 130.796 96.0812 130.584 96.0812 130.373C96.0247 128.907 94.9384 128.414 94.6845 128.315C94.6139 128.287 94.5434 128.259 94.4587 128.259C94.4305 128.357 94.3882 128.484 94.36 128.583C93.9367 128.541 93.457 129.133 93.457 129.147C93.457 129.147 93.3583 129.513 93.6828 129.922C94.1342 130.458 95.0513 130.754 95.8836 130.993C95.8978 130.993 95.926 130.993 95.9401 131.007ZM120.206 83.1657C120.074 83.4288 120.004 83.598 119.994 83.6732C120.164 83.6732 120.7 83.5886 121.871 82.616C122.689 81.9958 123.663 81.6434 124.523 81.1077C127.175 79.4585 129.63 77.5273 132.283 75.864C132.875 75.4834 133.496 75.1592 134.117 74.835C136.12 73.8201 138.236 72.9884 140.141 71.7903C140.056 71.7715 139.91 71.7856 139.703 71.8326H139.661C141.016 70.8177 142.793 70.8036 144.176 69.8591L143.879 69.986C142.708 70.4512 142.694 70.4371 142.539 70.3384C141.918 70.5498 141.241 70.8177 140.55 71.1137C137.093 72.5938 133.298 74.7363 133.256 74.7645C133.581 74.6659 133.863 74.4967 134.159 74.3558C133.341 75.1028 132.212 75.3002 131.337 75.9486C131.521 75.8922 131.69 75.8217 131.859 75.7513C131.634 76.005 127.133 78.5141 127.105 78.5282C127.161 78.4577 127.246 78.3731 127.317 78.3167L122.477 81.2064C122.576 81.2064 122.689 81.1641 122.774 81.1218C122.604 81.4319 121.321 82.179 120.954 82.3623C120.22 82.7287 118.852 83.4335 118.132 84.1101C118.838 83.8564 119.402 83.3349 120.121 83.0811C120.15 83.1093 120.178 83.1516 120.206 83.1798V83.1657ZM124.058 79.7968C124.523 79.6135 124.876 79.2189 125.37 79.092C125.37 79.1061 125.341 79.1343 125.341 79.1625C125.511 79.1061 125.539 79.1061 127.486 77.922C127.937 77.6401 128.389 77.3723 128.84 77.1045C129.517 76.7098 130.237 76.3997 130.928 76.0332C131.845 75.5398 133.059 74.835 133.439 74.5108C133.439 74.5108 133.454 74.4826 133.468 74.4685C133.454 74.4685 133.425 74.4544 133.411 74.4403C133.439 74.3698 133.51 74.3417 133.566 74.2853C132.381 74.6236 131.521 75.5539 130.392 75.9909C130.66 75.7794 130.971 75.6244 131.253 75.427C130.999 75.5539 130.477 75.8499 129.842 76.2164C128.473 77.0058 126.555 78.1617 125.257 78.9651C124.594 79.3739 124.1 79.684 123.945 79.8109C123.987 79.8109 124.029 79.7968 124.072 79.7827C124.072 79.7968 124.072 79.8109 124.072 79.825L124.058 79.7968ZM106.408 134.404C106.521 134.306 106.662 134.179 106.789 134.024C106.874 133.939 106.959 133.841 107.015 133.742C107.198 133.474 107.325 133.037 107.142 132.826C107.085 132.755 106.987 132.713 106.846 132.713C106.281 132.896 105.858 133.319 105.364 133.615C104.842 133.051 103.544 133.798 103.446 134.954C103.361 135.885 105.195 135.405 106.408 134.39V134.404ZM138.984 322.684C138.377 321.444 136.6 316.919 136.374 315.805C136.049 314.241 135.316 312.789 135.132 311.196C135.062 310.632 135.796 310.237 135.499 309.617C135.147 308.87 134.131 308.546 134.201 307.545C134.22 307.273 134.62 307.249 135.4 307.475C135.499 307.235 135.527 307.179 135.358 306.601C134.836 304.881 129.87 297.48 129.461 297.269C129.461 297.325 129.447 297.396 129.433 297.452C129.447 297.537 129.461 297.551 129.461 297.579C128.741 298.989 130.533 299.99 130.11 301.357C129.884 301.47 129.574 301.329 129.376 301.568C128.798 302.301 129.475 303.02 129.405 303.753C129.348 304.402 128.84 304.824 128.558 305.36C128.125 306.206 127.735 306.676 127.387 306.77C125.845 307.193 125.078 307.503 125.087 307.7C125.2 310.012 125.892 310.773 127.768 312.831C128.718 313.874 129.781 316.087 130.956 319.47C130.956 319.47 134.286 325.926 139.28 327.857C139.788 328.055 139.986 328.069 140.113 328.069C140.141 328.041 140.183 327.984 140.225 327.956C140.127 327.815 140 327.688 139.915 327.519C140.098 327.223 140.522 327.279 140.705 326.983C140.818 326.786 140.705 326.462 140.677 326.25C140.649 326.109 140.084 324.925 138.984 322.698V322.684ZM324.661 291.913C324.661 291.913 324.619 291.87 324.59 291.856C317.028 301.103 313.628 305.247 311.808 307.277C310.327 308.912 309.861 309.152 309.057 309.561C309.057 309.561 309.057 309.561 309.043 309.561C308.973 309.448 308.874 309.293 308.803 309.166C310.51 305.487 313.473 302.668 315.716 299.355C316.154 298.707 316.577 298.03 316.958 297.325C315.547 296.959 314.94 296.804 314.588 296.55C314.305 296.353 314.193 296.113 313.981 295.662C313.84 295.747 313.614 295.845 313.501 295.958C312.866 296.55 313.092 297.551 312.471 298.143C311.554 299.031 310.186 299.13 309.283 300.032C309.227 300.088 308.705 300.652 307.985 301.399C306.377 303.091 303.865 305.755 303.865 305.769C303.033 306.784 302.892 306.868 302.483 307.108C302.412 306.981 302.328 306.798 302.257 306.671C301.792 306.742 301.382 307.009 300.931 307.094C301.016 306.544 301.241 306.037 301.382 305.515C301.382 305.473 301.411 305.445 301.425 305.402C301.284 305.346 301.1 305.276 300.945 305.219C299.76 305.854 298.716 306.657 297.714 307.531C295.076 309.829 292.833 312.605 289.63 314.17C289.673 313.705 289.941 313.338 290.082 312.901C286.922 314.015 284.989 316.891 282.534 319.033C281.151 320.245 279.6 321.218 277.582 321.486C277.554 321.486 272.249 323.051 265.125 326.758C265.209 326.645 265.308 326.504 265.393 326.391C262.769 327.463 261.386 329.817 259.707 331.875C258.945 332.805 258.141 333.693 257.125 334.355C257.097 334.229 257.055 334.059 257.012 333.947C253.288 335.554 251.595 339.388 248.519 341.714C246.05 343.588 242.961 344.321 240.421 346.097C240.661 346.196 241.014 346.253 241.268 346.224C241.324 346.337 241.395 346.492 241.465 346.605C244.682 346.126 250.057 345.336 262.049 340.811C264.236 339.98 264.405 340.036 265.026 340.219C263.46 342.052 257.774 344.462 257.718 344.49C260.046 343.743 262.204 342.588 264.49 341.742C262.853 342.531 258.804 344.251 258.155 344.476C258.4 344.411 258.879 344.246 259.594 343.983C256.702 345.294 253.57 346.027 250.805 347.606C251.016 347.549 251.214 347.479 251.411 347.422C251.51 347.394 251.595 347.366 251.694 347.338C251.736 347.338 251.764 347.31 251.807 347.31C251.905 347.281 251.99 347.253 252.089 347.225C252.131 347.225 252.159 347.197 252.202 347.183C252.046 347.239 251.891 347.296 251.722 347.352C251.807 347.324 251.919 347.281 252.004 347.253L252.145 347.211C252.145 347.211 252.244 347.183 252.286 347.155C252.343 347.141 252.399 347.126 252.456 347.098C253.753 346.675 255.08 346.21 256.434 345.717C256.942 345.534 257.436 345.35 257.929 345.167C258.071 345.111 258.198 345.068 258.324 345.012C258.423 344.97 258.536 344.927 258.635 344.885H258.663C258.691 344.885 258.705 344.871 258.734 344.857C259.622 344.505 260.554 344.124 261.555 343.715C262.966 343.137 264.546 342.475 266.338 341.714C266.423 341.671 266.493 341.643 266.578 341.601C266.775 341.516 266.987 341.432 267.184 341.347C267.184 341.347 267.199 341.347 267.213 341.347C270.331 339.895 272.489 338.866 274.478 337.823C275.127 337.485 275.762 337.146 276.355 336.822C276.383 336.808 276.425 336.78 276.453 336.766C276.482 336.752 276.51 336.738 276.538 336.724C276.552 336.724 276.58 336.71 276.594 336.695C276.679 336.653 276.792 336.583 276.877 336.54C273.589 338.316 270.429 339.881 267.509 341.206C267.481 341.206 267.467 341.22 267.452 341.234C269.921 340.008 272.052 338.951 273.956 337.992C275.593 337.161 277.06 336.399 278.457 335.652C281.391 334.017 284.396 332.241 287.472 330.225C287.712 330.07 287.952 329.901 288.191 329.746C288.22 329.718 288.262 329.704 288.29 329.676C288.29 329.676 288.304 329.676 288.318 329.662C288.389 329.605 288.488 329.549 288.558 329.492C288.558 329.492 288.53 329.507 288.516 329.521C288.474 329.549 288.431 329.577 288.375 329.619C289.786 328.604 291.422 327.463 293.059 326.293C294.145 325.517 295.217 324.742 296.247 323.981C295.739 324.376 295.231 324.77 294.709 325.151C295.118 324.841 295.499 324.573 295.838 324.319C296.487 323.826 297.136 323.332 297.785 322.825C297.997 322.656 298.194 322.515 298.406 322.36H298.42L298.518 322.261L298.561 322.233C298.716 322.106 298.857 321.979 299.012 321.866C299.831 321.204 300.606 320.556 301.382 319.893C302.201 319.188 303.005 318.483 303.767 317.793C313.261 309.194 318.312 301.893 318.369 301.822C318.242 301.597 318.242 301.597 318.228 301.611C318.228 301.611 318.213 301.611 318.199 301.611C318.199 301.611 318.185 301.611 318.171 301.611C318.171 301.611 318.157 301.611 318.143 301.611C318.143 301.611 318.129 301.611 318.115 301.611C318.115 301.611 318.101 301.611 318.086 301.611C318.086 301.611 318.086 301.611 318.072 301.611C318.072 301.611 318.072 301.611 318.058 301.611C318.115 301.484 318.199 301.357 318.27 301.23C320.019 297.861 323.236 295.493 324.633 291.884L324.661 291.913ZM337.485 270.896C337.64 269.754 337.64 268.795 337.626 268.795C337.626 268.725 337.584 268.654 337.57 268.584C337.542 268.513 337.485 268.485 337.443 268.429C337.302 268.288 337.147 268.175 337.062 268.006C336.85 267.541 336.864 267.019 336.639 266.554C336.498 266.258 336.173 266.159 335.99 265.92C335.961 265.891 335.933 265.877 335.905 265.849C335.707 265.469 336.004 264.975 335.637 264.623C335.552 264.623 335.454 264.665 335.383 264.707C335.054 264.971 334.052 266.357 332.378 268.866C331.108 270.755 330.487 271.459 330.064 271.459C329.655 270.994 330.431 270.219 329.74 269.881C329.034 269.528 328.837 270.6 328.202 270.543C327.525 269.486 326.819 271.079 326.763 271.361C326.622 272.037 326.848 272.77 326.495 273.419C326.297 273.785 325.747 274.786 325.874 275.646C325.916 275.674 325.973 275.716 326.015 275.745C326.876 275.138 326.89 273.926 327.722 273.306C327.765 273.306 327.835 273.334 327.892 273.348C328.385 274.645 328.47 274.871 328.78 275.026C328.851 275.068 328.922 275.096 329.02 275.138C329.876 275.496 330.295 275.881 330.276 276.294C330.276 276.294 330.135 277.464 329.726 278.86C329.302 280.312 328.583 282.031 327.412 283.004C326.932 283.399 325.465 285.09 325.564 285.555C326.707 285.33 326.946 283.963 328.019 283.652C328.019 283.652 328.033 283.652 328.047 283.666C328.075 283.695 328.103 283.709 328.131 283.737C328.019 284.78 327.172 285.584 327.144 286.669C327.172 286.697 327.214 286.739 327.243 286.753L328.583 286.176L328.95 286.021C329.119 285.88 329.331 285.569 329.909 284.555C329.909 284.526 329.937 284.498 329.951 284.47C330.487 283.54 331.306 282.186 332.011 281.764C332.166 281.679 332.307 281.623 332.449 281.623C332.66 283.554 330.445 284.414 330.417 286.232C330.459 286.232 330.516 286.232 330.544 286.246C330.473 286.556 330.276 286.81 330.149 287.092C330.191 287.092 330.248 287.078 330.304 287.064C330.346 287.064 330.403 287.064 330.431 287.035C330.346 287.303 330.191 287.529 330.078 287.783C330.135 287.712 330.205 287.642 330.262 287.571C330.544 287.162 331.024 286.472 331.884 284.794C332.406 283.793 333.069 282.44 333.902 280.579C334.635 278.973 335.693 277.535 336.342 275.886L336.526 275.124L337.259 272.136C337.358 271.713 337.429 271.29 337.485 270.881V270.896ZM340.744 269.176C341.421 267.738 341.464 267.597 341.478 267.541C341.478 267.541 341.478 267.541 341.478 267.555C340.377 269.472 339.771 271.657 338.43 273.461C338.332 273.165 338.67 272.982 338.642 272.714C338.332 272.883 338.275 273.264 338.021 273.475C338.007 273.475 337.993 273.489 337.993 273.503C337.993 273.503 337.993 273.503 337.979 273.503C337.979 273.503 337.979 273.503 337.965 273.503C337.965 273.503 337.965 273.503 337.951 273.503C337.951 273.503 337.951 273.503 337.937 273.517C337.937 273.517 337.937 273.517 337.922 273.517C337.922 273.517 337.922 273.517 337.908 273.531C337.908 273.531 337.908 273.531 337.894 273.531C337.231 274.828 337.132 275.054 337.09 275.279C337.132 275.279 337.203 275.251 337.245 275.223C337.245 275.223 337.273 275.251 337.288 275.265C337.288 275.336 337.273 275.406 337.273 275.477C337.273 275.477 337.302 275.477 337.316 275.491C337.316 275.491 338.12 274.405 339.601 271.53C339.305 272.122 339.023 272.7 338.713 273.292C339.39 272.023 340.377 270.092 340.786 269.218C340.716 269.345 340.659 269.472 340.603 269.585C340.448 269.824 340.321 270.078 340.194 270.332C340.279 270.163 340.363 269.993 340.448 269.824C340.575 269.571 340.674 269.359 340.801 269.091L340.744 269.176ZM325.818 261.226C325.846 260.972 325.804 260.732 325.747 260.479C325.648 260.098 325.507 259.717 325.521 259.323C325.521 258.477 326.241 257.843 326.255 256.997C326.255 256.687 325.86 256.8 325.705 256.602C325.747 256.405 325.804 256.151 325.846 255.968C326.457 254.897 326.73 254.258 326.664 254.051C326.664 254.051 326.58 254.009 326.537 254.023C326.34 254.164 325.719 254.601 325.31 256.997L325.014 257.688C324.618 258.759 323.8 259.633 323.518 260.761C323.49 260.873 323.448 261.028 323.419 261.141C323.306 261.733 323.335 262.325 323.306 262.931C323.306 263.185 323.306 263.425 323.264 263.678C323.137 264.369 322.686 264.947 322.615 265.652C322.615 265.652 322.573 266.061 322.7 266.23C322.742 266.286 322.799 266.328 322.883 266.314C323.067 266.286 323.391 265.877 323.617 265.328C323.772 264.933 323.899 264.482 323.871 263.989C323.843 263.523 323.814 263.086 324.181 262.523C324.435 262.142 324.703 262.071 325.084 262.297C325.253 262.396 325.352 262.452 325.507 262.212C325.536 262.17 325.606 262.043 325.663 261.86C325.789 261.508 325.804 261.338 325.832 261.212L325.818 261.226ZM341.859 266.85C341.859 266.85 341.83 266.906 341.83 266.935C341.703 267.202 341.337 268.006 341.21 268.316C341.238 268.246 341.28 268.175 341.308 268.105C341.308 268.076 341.337 268.034 341.351 268.006C341.534 267.625 341.732 267.245 341.873 266.836L341.859 266.85ZM92.1168 112.824C92.272 112.711 92.4836 112.725 92.6388 112.584C93.0056 112.26 93.6546 111.499 93.9367 111.174C96.1376 108.609 96.2222 108.087 96.194 107.989L96.067 108.101C96.067 108.101 96.0388 108.073 96.0247 108.059C95.8978 108.087 95.0372 108.806 94.882 109.004C94.8537 109.046 91.4255 113.077 91.3549 113.486C91.369 113.486 91.3973 113.486 91.4114 113.486C91.4396 113.472 91.4678 113.444 91.496 113.43C91.7359 113.261 91.891 113.021 92.1309 112.852L92.1168 112.824ZM99.5235 104.225C99.1567 104.465 97.0687 106.903 97.0828 107.058C97.1816 107.115 97.4496 106.861 97.5907 106.734C98.0704 106.283 98.4795 105.762 98.9451 105.31C99.3825 104.888 99.848 104.507 100.285 104.07C100.497 103.859 101.146 103.196 101.019 103.027C100.963 103.027 100.934 103.027 100.765 103.21C100.807 103.182 100.878 103.154 100.934 103.14C100.709 103.281 100.299 103.638 99.7069 104.211L99.5376 104.239L99.5235 104.225ZM242.411 350.03L240.266 350.552C241.042 350.368 241.776 350.199 242.411 350.03ZM162.643 62.3601C162.855 62.3178 163.01 62.2755 163.024 62.2755C163.024 62.2755 167.214 61.0915 167.242 61.0774C166.805 61.1197 166.382 61.2606 165.945 61.317C165.902 61.317 165.86 61.3311 165.818 61.3452C166.043 61.1056 166.354 61.1619 166.622 61.0492C166.467 61.0492 166.325 61.1056 166.184 61.1197C166.213 61.1056 166.241 61.0774 166.269 61.0774C165.973 61.0774 165.691 61.1901 165.408 61.2465C166.382 60.8941 167.412 60.7532 168.399 60.4571C168.371 60.4571 162.94 61.7399 160.852 62.4447C160.88 62.4447 160.922 62.4447 160.95 62.4447C160.414 62.7407 159.779 62.7548 159.243 63.0649C159.398 63.1072 161.74 62.5715 162.657 62.3601H162.643ZM210.329 58.0608C210.018 58.1595 209.807 58.2159 209.44 58.4132C209.44 58.4132 208.664 58.8784 208.579 58.9489C208.579 58.9489 208.579 58.9489 208.579 58.963C208.622 58.9912 208.636 59.0476 208.664 59.0757C208.72 59.1321 208.805 59.0757 208.861 59.1462C208.904 59.2026 208.819 59.2449 208.833 59.3154C208.833 59.3154 208.876 59.3295 208.974 59.2731C209.073 59.2167 209.567 58.7233 209.567 58.7233C209.609 58.667 209.75 58.4978 209.75 58.4555C209.75 58.4555 209.75 58.4555 209.736 58.4555C209.905 58.2723 210.159 58.23 210.343 58.0608H210.329ZM206.731 55.5518C206.731 55.5518 206.689 55.5518 206.661 55.5518C206.421 55.5518 206.195 55.5518 205.969 55.5518C205.927 55.5518 205.885 55.5518 205.856 55.5518C205.927 55.5518 205.997 55.5518 206.068 55.5518C206.294 55.5518 206.519 55.5518 206.745 55.5518H206.731ZM207.14 55.5518C207.14 55.5518 207.112 55.5518 207.098 55.5518H206.999C206.999 55.5518 206.872 55.5518 206.802 55.5518C206.9 55.5518 206.999 55.5518 207.098 55.5518C207.112 55.5518 207.14 55.5518 207.154 55.5518H207.14ZM206.477 55.6786C206.477 55.6786 206.477 55.6786 206.477 55.6927C206.534 55.7209 206.59 55.735 206.646 55.7491C207.084 55.8337 207.211 55.8337 207.281 55.8337C207.324 55.8337 207.366 55.8337 207.408 55.8055C207.493 55.7914 207.592 55.8055 207.676 55.8055C207.648 55.7914 207.578 55.8055 207.578 55.7491C207.648 55.735 207.705 55.7491 207.775 55.735H207.747C207.803 55.735 207.86 55.735 207.902 55.735C207.86 55.7068 207.662 55.6927 207.662 55.6927C207.662 55.6927 207.634 55.6927 207.62 55.6927C207.549 55.6927 207.479 55.6927 207.408 55.6927C207.183 55.6927 206.971 55.6504 206.759 55.6363C206.505 55.6363 206.28 55.6645 206.28 55.6645C206.336 55.7068 206.421 55.6927 206.491 55.7209L206.477 55.6786ZM204.996 55.594C204.996 55.594 205.024 55.594 205.052 55.6081C205.08 55.6081 205.123 55.6222 205.151 55.6363C205.602 55.6833 205.918 55.7303 206.096 55.7773C205.997 55.8196 205.377 55.7209 205.363 55.7209C205.193 55.6645 204.855 55.6363 204.431 55.6222C203.303 55.5799 201.624 55.6786 201.384 55.6927C201.384 55.6927 201.384 55.6927 201.398 55.6927C201.441 55.7209 201.483 55.7209 201.92 55.7491C202.71 55.8055 203.049 55.7914 203.204 55.7773C203.204 55.7773 203.204 55.7632 203.204 55.7491C203.204 55.7491 203.204 55.735 203.19 55.7209C203.232 55.6927 203.232 55.6927 203.402 55.6927C203.684 55.6927 203.98 55.6927 204.262 55.6927C205.137 55.6645 205.983 55.9183 206.858 55.876C206.59 55.6927 206.266 55.735 205.969 55.6504C206.026 55.6363 206.082 55.6504 206.124 55.6222C205.969 55.5799 205.729 55.5659 205.518 55.5518C205.222 55.5518 204.953 55.5518 204.939 55.5518L204.996 55.594ZM208.17 56.2847C208.17 56.2847 208.212 56.2847 208.241 56.2847C208.085 56.2002 207.606 56.0874 207.563 56.1156C207.549 56.1297 207.521 56.1156 207.507 56.1156C207.451 56.1156 207.394 56.1156 207.352 56.1015C207.31 56.1015 207.253 56.0733 207.211 56.1015C207.239 56.1297 207.267 56.1297 207.295 56.1297C207.733 56.2425 208.015 56.2566 208.198 56.2707L208.17 56.2847ZM207.705 56.0169C207.705 56.0169 207.775 56.0592 207.846 56.0874C207.902 56.1156 207.973 56.1297 208.057 56.1579C208.227 56.2143 208.396 56.2566 208.565 56.2988C208.678 56.327 208.791 56.3129 208.89 56.3411C208.89 56.3411 208.861 56.327 208.847 56.3129C208.96 56.2847 209.059 56.3693 209.186 56.3693C209.087 56.2988 208.861 56.2143 208.678 56.172C208.678 56.172 208.452 56.1297 208.227 56.0874C207.987 56.0451 207.733 56.0028 207.69 56.0028L207.705 56.0169ZM203.514 55.5659C204.065 55.5659 204.601 55.5659 205.151 55.5659C205.165 55.5659 205.179 55.5659 205.193 55.5659H205.165H205.151C205.151 55.5659 205.137 55.5659 205.123 55.5659C204.558 55.5659 203.994 55.5659 203.43 55.5799C203.458 55.5799 203.486 55.5799 203.529 55.5799L203.514 55.5659ZM209.807 56.1861C209.807 56.1861 209.891 56.1297 209.948 56.1297C209.948 56.1297 210.061 56.1297 210.004 56.0874C210.004 56.0874 209.99 56.0874 209.976 56.0733C209.948 56.0169 209.835 56.0028 209.778 56.0028C209.778 56.0028 209.553 56.0028 209.539 56.0451C209.539 56.0592 209.553 56.0733 209.581 56.0874C209.595 56.1015 209.609 56.1156 209.623 56.1297C209.736 56.2002 209.778 56.2002 209.807 56.1861ZM205.941 56.4962C206.11 56.4962 206.28 56.5526 206.449 56.5526C206.449 56.5526 205.532 56.3693 204.685 56.2143C204.093 56.1015 203.529 56.0028 203.331 55.9887C203.058 55.9699 202.861 55.9323 202.739 55.876C203.021 55.876 203.303 55.9183 203.571 55.9042C203.712 55.7491 203.867 55.9042 204.008 55.8619C204.008 55.8619 203.98 55.8337 203.966 55.8337C204.417 55.7914 205.095 55.7491 205.306 55.9323C205.193 55.9323 205.095 55.9183 204.982 55.9323C205.222 55.9887 205.49 55.9887 205.729 56.0874C205.475 56.0874 205.222 56.031 204.968 56.031C204.968 56.031 205.461 56.1156 205.913 56.172C206.209 56.2143 206.477 56.2566 206.576 56.2566C206.519 56.2425 206.449 56.2143 206.393 56.2002C207.112 56.0733 209.383 56.764 209.75 57.0318C209.849 57.0459 209.934 57.0882 210.032 57.1305C210.173 57.1728 210.315 57.2151 210.442 57.2856C210.385 57.2715 210.315 57.2574 210.258 57.2433C210.258 57.2433 210.258 57.2433 210.286 57.2574C210.484 57.3278 210.695 57.3701 210.893 57.4406C210.837 57.4406 210.78 57.4124 210.71 57.3983C210.949 57.4688 211.203 57.5252 211.457 57.5957C210.978 57.5111 210.512 57.4406 210.032 57.3701L208.946 57.1587L206.336 56.6653C206.336 56.6653 206.336 56.6371 206.322 56.623C206.181 56.5949 206.04 56.5808 205.913 56.5385L205.941 56.4962ZM207.437 56.4962C207.69 56.5526 207.959 56.5949 208.212 56.6794C208.241 56.6794 208.269 56.6935 208.297 56.7076C208.212 56.6935 208.114 56.6653 208.015 56.6653C208.015 56.6653 208.043 56.6794 208.057 56.6935C207.973 56.6935 207.888 56.6653 207.803 56.6653C208.438 56.8909 209.115 56.8627 209.764 57.0036C207.93 56.5667 207.93 56.5667 207.437 56.4962ZM189.449 63.4455C187.756 64.2771 189.449 64.2349 189.519 64.2067C189.731 64.1221 189.9 63.967 190.013 63.8684C190.281 63.6146 191.015 62.9662 193.498 62.1346C193.568 62.1064 193.625 62.0923 193.695 62.0641C196.813 61.0492 197.984 60.8659 198.845 60.7391C199.705 60.6122 201.948 60.1611 201.963 60.1611C202.343 60.0343 202.4 59.992 202.485 59.9074C202.456 59.8651 202.456 59.8651 202.456 59.8651C202.09 59.8792 201.765 60.0625 201.412 60.1047C201.412 60.1047 201.412 60.0907 201.412 60.0766C201.469 60.0484 201.525 60.0061 201.568 59.9779C200.947 59.6537 190.803 62.2191 190.013 62.8957C190.013 62.9239 190.027 62.9662 190.041 62.9944C190.069 62.9944 190.112 63.0226 190.14 63.0367C190.098 63.1354 190.098 63.1495 189.477 63.4596L189.449 63.4455ZM196.573 55.8478C196.855 55.8337 197.152 55.8196 197.434 55.8055C198.21 55.7773 198.986 55.735 199.748 55.6927C199.804 55.6927 199.86 55.6927 199.917 55.6927C200.03 55.6927 200.143 55.6927 200.255 55.6786C200.538 55.6786 200.82 55.6927 201.102 55.6504C201.37 55.6504 201.638 55.6363 201.906 55.6222H201.991C202.174 55.6222 202.358 55.6222 202.555 55.6081H202.527C202.47 55.6081 202.428 55.6081 202.372 55.6081C202.372 55.6081 202.386 55.6081 202.4 55.6081C202.329 55.6081 202.259 55.6081 202.188 55.6081L201.06 55.6363C200.509 55.6504 199.973 55.6786 199.451 55.6927C199.211 55.6927 198.972 55.7068 198.774 55.7209C198.774 55.7209 198.774 55.7209 198.76 55.7209C198.76 55.7209 198.76 55.7209 198.746 55.7209C198.52 55.7209 198.309 55.7491 198.083 55.7632L196.926 55.8337H196.87L195.191 55.9464C195.148 55.9464 195.106 55.9464 195.064 55.9464C195.021 55.9464 194.852 55.9605 194.542 56.0028C195.035 55.9605 195.515 55.9323 196.009 55.8901C196.206 55.8901 196.418 55.8619 196.616 55.8478H196.573ZM197.885 58.4132C198.041 58.4132 198.196 58.4132 198.351 58.3991C198.492 58.3991 198.633 58.385 198.76 58.3709C198.774 58.3709 198.816 58.3709 198.802 58.3709C199.564 58.2864 200.312 58.1595 201.074 58.0749C200.834 58.1031 200.524 58.1313 200.284 58.1595C200.284 58.1595 200.284 58.1595 200.27 58.1595C200.27 58.1595 200.284 58.1454 200.298 58.1454C200.157 58.0749 198.012 58.3146 197.871 58.4132H197.885ZM206.661 57.6662C206.35 57.6521 203.119 57.8494 202.88 57.9481C202.88 57.9481 202.88 57.9622 202.88 57.9763C203.035 58.0185 203.571 57.9763 204.77 57.8917C205.955 57.8071 205.983 57.793 206.026 57.7789C206.026 57.7789 205.997 57.7789 205.983 57.7789C206.03 57.7413 206.261 57.7084 206.675 57.6802L206.661 57.6662ZM209.44 59.0335C209.44 59.0335 209.242 59.1462 209.228 59.1603C209.144 59.2308 209.073 59.3154 209.003 59.4C208.96 59.4422 208.918 59.4704 208.876 59.5127C208.819 59.555 208.763 59.5973 208.706 59.6537C208.706 59.6537 208.622 59.7383 208.622 59.7664C208.65 59.7664 208.664 59.7664 208.678 59.7664C208.749 59.7383 208.805 59.7101 208.876 59.6819C208.96 59.6537 209.045 59.6255 209.129 59.6255C209.2 59.6255 209.256 59.6537 209.327 59.6537H209.355C209.426 59.6396 209.496 59.5691 209.539 59.5268C209.539 59.5268 209.567 59.4704 209.581 59.4422C209.609 59.4 209.637 59.3718 209.651 59.3295C209.651 59.3295 209.651 59.3154 209.651 59.3013C209.651 59.2308 209.651 59.2308 209.496 59.1885C209.468 59.1885 209.482 59.1603 209.496 59.1321C209.525 59.0476 209.651 59.0194 209.623 58.9066C209.623 58.9066 209.595 58.9207 209.595 58.9348C209.539 58.9771 209.482 59.0194 209.44 59.0757C209.44 59.0757 209.44 59.0757 209.44 59.0616C209.44 59.0616 209.44 59.0476 209.44 59.0335ZM171.418 59.4986C171.334 59.5127 171.249 59.5409 171.179 59.555C171.658 59.4422 172.152 59.3295 172.646 59.2167C173.916 58.963 174.974 58.7938 174.988 58.7797C174.861 58.822 174.692 58.8643 174.565 58.9066C174.762 58.8925 174.96 58.8784 175.157 58.8502C177.189 58.6811 179.305 58.4837 179.827 58.2159C180.109 58.0749 181.449 57.8494 181.816 57.9481C181.21 58.2159 180.546 58.1454 179.926 58.3287C180.222 58.3428 180.532 58.3146 180.829 58.3146C184.144 58.3146 187.389 57.4547 190.704 57.3419C190.573 57.3701 190.215 57.4124 189.632 57.4688C190.874 57.4688 192.101 57.3842 193.342 57.2856C194.499 57.201 195.656 57.1164 196.813 57.1587C196.672 57.1728 196.475 57.201 196.319 57.201C196.432 57.2104 197.349 57.1963 199.07 57.1587C198.929 57.1587 198.76 57.1305 198.619 57.1305C199.268 57.1023 199.353 57.1023 205.024 57.2997C205.856 57.3278 206.816 57.356 207.916 57.3983C208.382 57.4124 208.847 57.4124 209.313 57.4265C208.819 57.3983 208.325 57.3842 207.832 57.3278C207.93 57.3278 208.043 57.3278 208.142 57.3278C208.396 57.3278 208.509 57.3419 208.636 57.356C209.581 57.4265 210.512 57.4829 211.457 57.5534C210.498 57.4406 209.539 57.3278 208.579 57.2292C209.228 57.2856 209.891 57.356 210.54 57.4406C209.976 57.356 209.412 57.2997 208.847 57.2292C209.087 57.2574 209.341 57.2856 209.581 57.3138C209.482 57.3138 209.369 57.2856 209.271 57.2715C209.581 57.3138 209.905 57.3419 210.216 57.3842C209.694 57.2997 209.172 57.2151 208.664 57.1305C208.41 57.0882 208.156 57.0459 207.902 57.0036C207.959 57.0036 208.029 57.0036 208.1 57.0177C208.057 57.0177 205.01 56.4821 203.345 56.2566C202.851 56.1861 202.47 56.1438 202.329 56.1579C202.386 56.1579 202.442 56.1861 202.499 56.2002C202.259 56.2002 202.09 56.2002 201.539 56.1297C201.69 56.0921 202.01 56.0874 202.499 56.1156C200.919 55.8901 199.324 56.172 197.744 56.1438H197.377C196.418 56.1438 195.543 56.1579 194.711 56.172C193.145 56.2002 191.805 56.2566 190.69 56.327C190.38 56.3411 190.126 56.3693 189.858 56.3975C189.773 56.3975 189.674 56.4116 189.59 56.4257C189.519 56.4257 189.463 56.4257 189.392 56.4398C189.463 56.4398 189.533 56.4398 189.59 56.4398C189.618 56.4398 189.646 56.4398 189.66 56.4398C189.181 56.5103 188.701 56.5526 188.221 56.609C188.094 56.609 187.967 56.6371 187.84 56.6512C187.713 56.6512 187.601 56.6794 187.474 56.6935C187.361 56.6935 187.248 56.7217 187.135 56.7217C187.107 56.7217 187.064 56.7217 187.036 56.7217C185.273 56.9332 183.622 57.1728 182.084 57.4124C181.901 57.4406 181.717 57.4688 181.534 57.5111C181.463 57.5111 181.379 57.5393 181.308 57.5534C181.167 57.5816 181.026 57.5957 180.885 57.6098C180.222 57.7225 179.573 57.8212 178.952 57.934C177.922 58.1172 176.878 58.3005 175.848 58.526C175.58 58.5824 175.27 58.6529 174.974 58.7093C174.762 58.7515 174.536 58.7938 174.339 58.8361C174.438 58.822 174.536 58.7938 174.649 58.7797C174.127 58.8925 173.591 59.0053 173.055 59.118C173.14 59.1039 173.224 59.0757 173.323 59.0616C173.14 59.1039 172.942 59.1462 172.773 59.1885C172.589 59.2308 172.406 59.2731 172.223 59.3154C172.096 59.3436 171.983 59.3718 171.87 59.4C171.574 59.4704 171.263 59.5409 170.995 59.5973C170.953 59.5973 170.911 59.6114 170.868 59.6255C170.755 59.6537 170.643 59.6819 170.544 59.7101C171.009 59.5973 171.461 59.4845 171.926 59.3859C171.757 59.4281 171.574 59.4704 171.404 59.5268L171.418 59.4986ZM204.728 57.7366C204.728 57.7366 204.798 57.7225 204.827 57.7084C204.305 57.638 203.768 57.7366 203.246 57.7366C203.627 57.6521 204.008 57.6943 204.403 57.638C203.656 57.6239 200.002 57.8071 199.324 57.934C199.719 57.9904 200.129 57.8917 200.524 57.934C198.986 58.0467 198.633 58.0326 198.52 58.0326C198.294 58.0467 198.083 58.0749 197.857 58.089C196.954 58.2018 196.291 58.3709 196.263 58.3709C196.333 58.385 196.446 58.3709 196.531 58.3709C198.21 58.2441 199.889 58.1031 201.582 57.9763C202.724 57.8917 203.853 57.7648 204.996 57.6943C204.925 57.6943 204.812 57.6943 204.742 57.6943L204.728 57.7366Z" fill="url(#paint1_radial_2336_9298)"/>
</g>
<defs>
<radialGradient id="paint0_radial_2336_9298" cx="0" cy="0" r="1" gradientUnits="userSpaceOnUse" gradientTransform="translate(232.991 136.891) scale(311.013 310.745)">
<stop offset="0.17" stop-color="#B0DEFF"/>
<stop offset="0.22" stop-color="#A9DAFB"/>
<stop offset="0.29" stop-color="#95CFF0"/>
<stop offset="0.37" stop-color="#76BEDE"/>
<stop offset="0.46" stop-color="#4AA5C6"/>
<stop offset="0.56" stop-color="#1287A7"/>
<stop offset="0.59" stop-color="#007D9D"/>
<stop offset="0.63" stop-color="#1588A8"/>
<stop offset="0.81" stop-color="#68B6D6"/>
<stop offset="0.94" stop-color="#9BD2F3"/>
<stop offset="1" stop-color="#B0DEFF"/>
</radialGradient>
<radialGradient id="paint1_radial_2336_9298" cx="0" cy="0" r="1" gradientUnits="userSpaceOnUse" gradientTransform="translate(226.017 133.686) scale(314.004 313.734)">
<stop stop-color="#63CAC5"/>
<stop offset="0.07" stop-color="#5DC3BF"/>
<stop offset="0.17" stop-color="#4DAFB1"/>
<stop offset="0.29" stop-color="#33909A"/>
<stop offset="0.43" stop-color="#0F6479"/>
<stop offset="0.48" stop-color="#00526C"/>
<stop offset="0.56" stop-color="#005672"/>
<stop offset="0.67" stop-color="#006486"/>
<stop offset="0.8" stop-color="#007AA4"/>
</radialGradient>
</defs>
</svg>
