<svg width="46" height="46" viewBox="0 0 46 46" fill="none" xmlns="http://www.w3.org/2000/svg">
<path fill-rule="evenodd" clip-rule="evenodd" d="M24.918 17.3457C24.918 16.9315 25.2538 16.5957 25.668 16.5957H32.5688C32.983 16.5957 33.3188 16.9315 33.3188 17.3457C33.3188 17.7599 32.983 18.0957 32.5688 18.0957H25.668C25.2538 18.0957 24.918 17.7599 24.918 17.3457Z" fill="#E76F51"/>
<path fill-rule="evenodd" clip-rule="evenodd" d="M13.4297 17.3457C13.4297 16.9315 13.7655 16.5957 14.1797 16.5957H21.0805C21.4947 16.5957 21.8305 16.9315 21.8305 17.3457C21.8305 17.7599 21.4947 18.0957 21.0805 18.0957H14.1797C13.7655 18.0957 13.4297 17.7599 13.4297 17.3457Z" fill="#E76F51"/>
<path fill-rule="evenodd" clip-rule="evenodd" d="M24.918 26.5312C24.918 26.117 25.2538 25.7812 25.668 25.7812H32.5688C32.983 25.7812 33.3188 26.117 33.3188 26.5312C33.3188 26.9455 32.983 27.2812 32.5688 27.2812H25.668C25.2538 27.2812 24.918 26.9455 24.918 26.5312Z" fill="#E76F51"/>
<path fill-rule="evenodd" clip-rule="evenodd" d="M24.918 32.2754C24.918 31.8612 25.2538 31.5254 25.668 31.5254H32.5688C32.983 31.5254 33.3188 31.8612 33.3188 32.2754C33.3188 32.6896 32.983 33.0254 32.5688 33.0254H25.668C25.2538 33.0254 24.918 32.6896 24.918 32.2754Z" fill="#E76F51"/>
<path fill-rule="evenodd" clip-rule="evenodd" d="M29.1484 13.1455C29.5627 13.1455 29.8984 13.4813 29.8984 13.8955V20.7869C29.8984 21.2011 29.5627 21.5369 29.1484 21.5369C28.7342 21.5369 28.3984 21.2011 28.3984 20.7869V13.8955C28.3984 13.4813 28.7342 13.1455 29.1484 13.1455Z" fill="#E76F51"/>
<path fill-rule="evenodd" clip-rule="evenodd" d="M21.6112 25.4329C21.9039 25.726 21.9036 26.2009 21.6105 26.4936L14.7097 33.3849C14.4166 33.6776 13.9417 33.6773 13.649 33.3842C13.3563 33.0911 13.3566 32.6162 13.6497 32.3236L20.5506 25.4322C20.8436 25.1395 21.3185 25.1398 21.6112 25.4329Z" fill="#E76F51"/>
<path fill-rule="evenodd" clip-rule="evenodd" d="M13.649 25.4329C13.9417 25.1398 14.4166 25.1395 14.7097 25.4322L21.6105 32.3236C21.9036 32.6162 21.9039 33.0911 21.6112 33.3842C21.3185 33.6773 20.8436 33.6776 20.5506 33.3849L13.6497 26.4936C13.3566 26.2009 13.3563 25.726 13.649 25.4329Z" fill="#E76F51"/>
</svg>
