<svg width="46" height="46" viewBox="0 0 46 46" fill="none" xmlns="http://www.w3.org/2000/svg">
<path d="M34.0304 11.9665C33.3087 11.2447 32.1135 11.1843 30.4783 11.7868C29.2348 12.245 27.7177 13.0955 26.0728 14.2549C22.9584 13.2243 19.3863 13.9451 16.9127 16.4186C14.4392 18.8921 13.7183 22.4643 14.749 25.5787C13.3064 27.6255 10.7 31.7758 12.4606 33.5363C13.8443 34.92 16.6333 33.5784 18.3375 32.5905C19.0057 32.2031 19.703 31.7526 20.4188 31.2481C23.5589 32.2871 27.1228 31.5399 29.5784 29.0843C32.0518 26.6109 32.7727 23.039 31.7422 19.9247C32.2467 19.2089 32.6972 18.5116 33.0846 17.8434C34.746 14.9776 35.0642 13.0003 34.0304 11.9665ZM17.5414 31.2172C15.1473 32.6052 13.8624 32.6933 13.5831 32.414C13.4126 32.2434 13.3593 31.6485 13.7704 30.533C14.1108 29.6093 14.7072 28.4973 15.5143 27.2735C16.2881 28.5971 17.3991 29.7085 18.7245 30.4833C18.321 30.7489 17.9259 30.9944 17.5414 31.2172ZM20.1891 29.4563C15.5133 27.3308 14.4115 21.1646 18.0351 17.5409C21.659 13.9171 27.8251 15.0195 29.9504 19.6949C28.6961 21.3857 27.1435 23.1706 25.4041 24.91C23.6648 26.6493 21.8798 28.2019 20.1891 29.4563ZM28.456 27.9619C26.7179 29.6999 24.3206 30.3861 22.0615 30.0213C23.5329 28.8619 25.0481 27.5108 26.5265 26.0324C28.0048 24.554 29.356 23.0387 30.5155 21.5674C30.8803 23.8265 30.1941 26.2238 28.456 27.9619ZM31.7114 17.0473C31.4884 17.4318 31.243 17.827 30.9774 18.2303C30.2036 16.9066 29.093 15.795 27.7676 15.0202C28.9914 14.2131 30.1034 13.6166 31.0271 13.2762C32.1425 12.8651 32.7374 12.9184 32.908 13.0889C33.1875 13.3683 33.0994 14.6531 31.7114 17.0473Z" fill="#023047"/>
</svg>
