<svg width="46" height="46" viewBox="0 0 46 46" fill="none" xmlns="http://www.w3.org/2000/svg">
<g clip-path="url(#clip0_60_281)">
<path d="M30.8681 30.7692C30.8201 30.6346 30.7913 30.4904 30.7242 30.3654L25.9849 21.25V12.9808C25.9849 12.7212 25.8794 12.4712 25.6971 12.2885C25.5148 12.1058 25.2654 12 25.0064 12H20.008C19.749 12 19.4996 12.1058 19.3173 12.2885C19.135 12.4712 19.0295 12.7212 19.0295 12.9808V21.2596L14.2806 30.3654C14.0792 30.7404 13.9832 31.1635 14.0024 31.5962C14.012 32.0192 14.1367 32.4423 14.3574 32.8077C14.578 33.1731 14.8946 33.4712 15.2592 33.6827C15.6237 33.8942 16.0459 34 16.4776 34H28.5272C28.9494 34 29.3715 33.8942 29.736 33.6827C30.1102 33.4712 30.4172 33.1731 30.6378 32.8077C30.7338 32.6442 30.8105 32.4712 30.8681 32.2981C30.9448 32.0769 30.9928 31.8462 31.0024 31.6058C31.0024 31.3269 30.9544 31.0481 30.8681 30.7788V30.7692ZM20.7564 22.1635C20.9003 21.8846 20.977 21.5673 20.977 21.25V14.1923C20.977 14.0673 21.0825 13.9615 21.2073 13.9615H23.788C23.9127 13.9615 24.0182 14.0673 24.0182 14.1923C24.0182 14.1923 24.0182 21.4615 24.047 21.5673L19.797 24.0288L20.7564 22.1731V22.1635ZM16.0363 31.7788C15.9883 31.7019 15.9691 31.6154 15.9595 31.5288C15.9595 31.4423 15.9787 31.3462 16.0171 31.2692L18.1373 27.2019C18.2236 27.1827 18.31 27.1442 18.3963 27.0962L24.8625 23.3558L28.9781 31.2692C29.0165 31.3462 29.0357 31.4423 29.0357 31.5288C29.0357 31.6154 29.0069 31.7019 28.959 31.7788C28.911 31.8558 28.8438 31.9231 28.7671 31.9615C28.6903 32 28.604 32.0288 28.508 32.0288H16.4872C16.4008 32.0288 16.3145 32.0096 16.2377 31.9615C16.161 31.9135 16.0938 31.8558 16.0459 31.7788H16.0363Z" fill="#C8B6FF"/>
</g>
<defs>
<clipPath id="clip0_60_281">
<rect width="46" height="46" fill="white"/>
</clipPath>
</defs>
</svg>
