<svg width="46" height="46" viewBox="0 0 46 46" fill="none" xmlns="http://www.w3.org/2000/svg">
<g clip-path="url(#clip0_46_295)">
<path d="M25.3794 24.8853L21.1133 20.6191L25.3794 24.8853Z" fill="#DEB887"/>
<path d="M25.3375 25.5525C25.1555 25.5525 24.9736 25.483 24.8347 25.3442L20.6575 21.1669C20.3798 20.8893 20.3798 20.4391 20.6575 20.1614C20.9351 19.8837 21.3854 19.8837 21.663 20.1614L25.8403 24.3387C26.118 24.6163 26.118 25.0665 25.8403 25.3442C25.7014 25.483 25.5195 25.5525 25.3375 25.5525Z" fill="#DEB887"/>
<path d="M18.2698 28.4408C18.0846 28.4408 17.9028 28.3685 17.7669 28.2325C17.5658 28.0314 17.5038 27.7298 17.6095 27.4657L20.4535 20.3555C20.5258 20.1748 20.669 20.0317 20.8496 19.9594L27.9598 17.1153C28.224 17.0097 28.5256 17.0716 28.7267 17.2727C28.9278 17.4739 28.9897 17.7755 28.8841 18.0396L26.04 25.1498C25.9677 25.3304 25.8246 25.4736 25.6439 25.5459L18.5337 28.3899C18.4481 28.4242 18.3586 28.4408 18.2698 28.4408ZM21.6607 21.1666L19.546 26.4535L24.8329 24.3387L26.9476 19.0518L21.6607 21.1666Z" fill="#DEB887"/>
<path d="M23.2474 34.1287C20.2087 34.1287 17.3519 32.9453 15.2031 30.7966C13.0544 28.6479 11.8711 25.791 11.8711 22.7523C11.8711 19.7136 13.0544 16.8568 15.2031 14.708C17.3518 12.5592 20.2087 11.376 23.2474 11.376C26.2862 11.376 29.143 12.5593 31.2918 14.708C33.4405 16.8567 34.6238 19.7136 34.6238 22.7523C34.6238 25.791 33.4405 28.6479 31.2918 30.7966C29.143 32.9454 26.2862 34.1287 23.2474 34.1287ZM23.2474 12.798C17.7586 12.798 13.2931 17.2635 13.2931 22.7523C13.2931 28.2411 17.7586 32.7066 23.2474 32.7066C28.7363 32.7066 33.2017 28.2411 33.2017 22.7523C33.2017 17.2635 28.7363 12.798 23.2474 12.798Z" fill="#DEB887"/>
</g>
<defs>
<clipPath id="clip0_46_295">
<rect width="22.7527" height="22.7527" fill="white" transform="translate(11.8711 11.376)"/>
</clipPath>
</defs>
</svg>
