<svg width="24" height="24" viewBox="0 0 24 24" fill="none" xmlns="http://www.w3.org/2000/svg">
<path d="M23.4285 5.43933C23.1682 5.17901 22.7462 5.17905 22.4859 5.43933C22.1715 5.75369 21.8254 6.00179 21.4537 6.19879L17.801 2.5461C17.9979 2.17437 18.246 1.82824 18.5604 1.51388C18.8207 1.25356 18.8207 0.831524 18.5604 0.571201C18.3001 0.310924 17.8781 0.310879 17.6177 0.571201C15.8848 2.30405 15.7332 4.63326 15.72 6.94923C13.4041 6.96251 11.075 7.11409 9.34213 8.84703C7.60924 10.5798 7.45761 12.9089 7.44433 15.2249C5.12836 15.2381 2.79915 15.3897 1.0663 17.1226C0.806024 17.3829 0.806024 17.805 1.0663 18.0653C1.32662 18.3256 1.74866 18.3256 2.00898 18.0653C2.32334 17.7509 2.66943 17.5028 3.04116 17.3059L6.69384 20.9585C6.49685 21.3303 6.24875 21.6764 5.93439 21.9908C5.67407 22.2511 5.67407 22.6731 5.93439 22.9334C6.19471 23.1937 6.61674 23.1938 6.87707 22.9334C8.61 21.2006 8.76158 18.8714 8.77482 16.5554C11.0907 16.5421 13.4198 16.3905 15.1527 14.6576C16.8856 12.9248 17.0372 10.5957 17.0505 8.27977C19.3664 8.26652 21.6957 8.11494 23.4285 6.38201C23.6889 6.12169 23.6888 5.69965 23.4285 5.43933ZM20.0655 6.69606C19.1373 6.90403 18.1148 6.94043 17.0531 6.9466C17.0593 5.88496 17.0957 4.86243 17.3037 3.93419L20.0655 6.69606ZM15.4668 11.2945L12.7052 8.53293C13.6334 8.325 14.6558 8.28857 15.7174 8.28239C15.7112 9.3439 15.6748 10.3663 15.4668 11.2945ZM9.02808 12.2101L11.7897 14.9717C10.8615 15.1796 9.83904 15.216 8.77753 15.2222C8.78371 14.1607 8.8201 13.1383 9.02808 12.2101ZM4.42934 16.8085C5.35757 16.6006 6.38011 16.5642 7.44175 16.558C7.43557 17.6196 7.39918 18.6422 7.1912 19.5704L4.42934 16.8085ZM13.1778 14.4744L9.5253 10.822C9.7223 10.4502 9.9704 10.1041 10.2849 9.78971C10.5993 9.4753 10.9454 9.2272 11.3171 9.03016L14.9696 12.6826C14.7726 13.0544 14.5245 13.4005 14.21 13.7149C13.8957 14.0293 13.5495 14.2774 13.1778 14.4744Z" fill="#292D32"/>
</svg>
