<svg width="24" height="24" viewBox="0 0 24 24" fill="none" xmlns="http://www.w3.org/2000/svg">
<g clip-path="url(#clip0_2655_2250)">
<path d="M14.3794 13.8853L10.1133 9.61914L14.3794 13.8853Z" fill="#292D32"/>
<path d="M14.3375 14.5525C14.1555 14.5525 13.9736 14.483 13.8347 14.3442L9.65749 10.1669C9.37979 9.88926 9.37979 9.43905 9.65749 9.1614C9.93515 8.8837 10.3854 8.8837 10.663 9.1614L14.8403 13.3387C15.118 13.6163 15.118 14.0665 14.8403 14.3442C14.7014 14.483 14.5195 14.5525 14.3375 14.5525Z" fill="#292D32"/>
<path d="M7.26978 17.4408C7.0846 17.4408 6.9028 17.3685 6.76686 17.2325C6.56578 17.0314 6.50383 16.7298 6.60946 16.4657L9.45355 9.35549C9.5258 9.17484 9.66899 9.03166 9.84963 8.9594L16.9598 6.11532C17.224 6.00969 17.5256 6.07164 17.7267 6.27272C17.9278 6.47385 17.9897 6.77546 17.8841 7.03956L15.04 14.1498C14.9677 14.3304 14.8246 14.4736 14.6439 14.5459L7.5337 17.3899C7.44811 17.4242 7.35857 17.4408 7.26978 17.4408ZM10.6607 10.1666L8.54597 15.4535L13.8329 13.3387L15.9476 8.05183L10.6607 10.1666Z" fill="#292D32"/>
<path d="M12.2474 23.1287C9.20871 23.1287 6.35187 21.9453 4.20312 19.7966C2.05437 17.6479 0.871094 14.791 0.871094 11.7523C0.871094 8.71359 2.05441 5.85675 4.20312 3.708C6.35183 1.55925 9.20871 0.375977 12.2474 0.375977C15.2862 0.375977 18.143 1.55929 20.2918 3.708C22.4405 5.85671 23.6238 8.71359 23.6238 11.7523C23.6238 14.791 22.4405 17.6479 20.2918 19.7966C18.143 21.9454 15.2862 23.1287 12.2474 23.1287ZM12.2474 1.79802C6.75862 1.79802 2.29314 6.2635 2.29314 11.7523C2.29314 17.2411 6.75862 21.7066 12.2474 21.7066C17.7363 21.7066 22.2017 17.2411 22.2017 11.7523C22.2017 6.2635 17.7363 1.79802 12.2474 1.79802Z" fill="#292D32"/>
</g>
<defs>
<clipPath id="clip0_2655_2250">
<rect width="22.7527" height="22.7527" fill="white" transform="translate(0.871094 0.375977)"/>
</clipPath>
</defs>
</svg>
