<svg width="46" height="46" viewBox="0 0 46 46" fill="none" xmlns="http://www.w3.org/2000/svg">
<path d="M32.7951 17.0864C31.7674 15.3061 28.8081 15.6224 26.8133 16.1218C26.2514 14.1373 25.0452 11.376 22.9814 11.376C20.9177 11.376 19.7115 14.1371 19.1495 16.1218C17.1555 15.6226 14.1956 15.3059 13.1677 17.0864C12.1391 18.868 13.8959 21.2746 15.3264 22.7523C13.8936 24.2324 12.1397 26.6377 13.1677 28.4183C14.1954 30.1983 17.1457 29.8845 19.1495 29.3829C19.7114 31.3674 20.9177 34.1287 22.9814 34.1287C25.0435 34.1287 26.2502 31.3718 26.8133 29.3829C28.8176 29.8846 31.7676 30.1981 32.7951 28.4183C33.8237 26.6367 32.0669 24.2301 30.6364 22.7523C32.0692 21.2722 33.8231 18.8669 32.7951 17.0864ZM31.6405 17.753C32.2681 18.8399 30.5547 20.9203 29.6749 21.8295C29.0261 21.2483 28.3055 20.6767 27.5289 20.1273C27.4418 19.1804 27.3077 18.2702 27.1296 17.4165C28.3748 17.1048 31.0166 16.6722 31.6405 17.753ZM22.9814 26.5274C21.8798 25.9876 20.7672 25.3487 19.712 24.6397C19.6701 24.0235 19.6485 23.3926 19.6485 22.7523C19.6485 22.1121 19.6701 21.4811 19.712 20.865C20.7302 20.1808 21.8397 19.5367 22.9814 18.9773C24.083 19.5171 25.1956 20.1559 26.2509 20.865C26.2927 21.4811 26.3143 22.1121 26.3143 22.7523C26.3143 23.3926 26.2927 24.0235 26.2509 24.6397C25.2326 25.3239 24.123 25.968 22.9814 26.5274ZM26.079 26.3361C26.0144 26.8095 25.9368 27.2692 25.8468 27.7124C25.4177 27.5693 24.9803 27.4069 24.5373 27.2262C25.0623 26.9439 25.5623 26.6556 26.079 26.3361ZM21.4255 27.2262C20.9825 27.4069 20.5451 27.5693 20.116 27.7124C20.026 27.2693 19.9484 26.8095 19.8838 26.3361C20.3895 26.6488 20.8894 26.9379 21.4255 27.2262ZM18.3289 23.6418C17.9516 23.349 17.5928 23.0518 17.2548 22.7523C17.5928 22.4528 17.9516 22.1556 18.3289 21.8628C18.32 22.1573 18.3153 22.4539 18.3153 22.7523C18.3153 23.0507 18.32 23.3473 18.3289 23.6418ZM19.8838 19.1685C19.9484 18.6952 20.026 18.2354 20.116 17.7923C20.5451 17.9353 20.9825 18.0977 21.4255 18.2784C20.9072 18.5572 20.4068 18.8452 19.8838 19.1685ZM24.5373 18.2784C24.9803 18.0978 25.4178 17.9353 25.8468 17.7923C25.9369 18.2354 26.0144 18.6951 26.079 19.1685C25.5794 18.8596 25.0799 18.5702 24.5373 18.2784ZM27.6339 21.8628C28.0113 22.1556 28.3701 22.4528 28.708 22.7523C28.3701 23.0518 28.0113 23.349 27.6339 23.6419C27.6428 23.3473 27.6475 23.0507 27.6475 22.7523C27.6475 22.4539 27.6428 22.1573 27.6339 21.8628ZM22.9814 12.7091C24.2409 12.7091 25.1894 15.2786 25.5332 16.4928C24.704 16.7643 23.8471 17.1031 22.9814 17.5018C22.1157 17.1031 21.2587 16.7643 20.4296 16.4928C20.7723 15.2825 21.7209 12.7091 22.9814 12.7091ZM14.3222 17.753C14.9465 16.6718 17.5727 17.1009 18.8332 17.4165C18.6552 18.2702 18.521 19.1804 18.4339 20.1273C17.6573 20.6767 16.9368 21.2483 16.2879 21.8295C15.4092 20.9214 13.6945 18.8402 14.3222 17.753ZM14.3222 27.7517C13.6948 26.6648 15.4081 24.5843 16.2879 23.6752C16.9368 24.2564 17.6573 24.828 18.4339 25.3773C18.521 26.3243 18.6552 27.2345 18.8332 28.0882C17.6096 28.3945 14.95 28.839 14.3222 27.7517ZM22.9814 32.7955C21.722 32.7955 20.7734 30.226 20.4296 29.0119C21.2588 28.7403 22.1157 28.4016 22.9814 28.0029C23.8471 28.4016 24.704 28.7403 25.5332 29.0119C25.1906 30.2221 24.2419 32.7955 22.9814 32.7955ZM31.6405 27.7517C31.0128 28.839 28.353 28.3944 27.1296 28.0882C27.3077 27.2345 27.4418 26.3243 27.5289 25.3773C28.3055 24.828 29.0261 24.2563 29.6749 23.6752C30.5537 24.5832 32.2683 26.6644 31.6405 27.7517Z" fill="#8ECAE6"/>
<path d="M22.9802 20.7529C21.8776 20.7529 20.9805 21.65 20.9805 22.7527C20.9805 23.8553 21.8776 24.7524 22.9802 24.7524C24.0829 24.7524 24.98 23.8553 24.98 22.7527C24.98 21.65 24.0829 20.7529 22.9802 20.7529ZM22.9802 23.4193C22.6127 23.4193 22.3136 23.1202 22.3136 22.7527C22.3136 22.3851 22.6127 22.0861 22.9802 22.0861C23.3478 22.0861 23.6468 22.3851 23.6468 22.7527C23.6468 23.1202 23.3478 23.4193 22.9802 23.4193Z" fill="#8ECAE6"/>
</svg>
