<svg width="46" height="46" viewBox="0 0 46 46" fill="none" xmlns="http://www.w3.org/2000/svg">
<path d="M34.4285 16.4393C34.1682 16.179 33.7462 16.1791 33.4859 16.4393C33.1715 16.7537 32.8254 17.0018 32.4537 17.1988L28.801 13.5461C28.9979 13.1744 29.246 12.8282 29.5604 12.5139C29.8207 12.2536 29.8207 11.8315 29.5604 11.5712C29.3001 11.3109 28.8781 11.3109 28.6177 11.5712C26.8848 13.304 26.7332 15.6333 26.72 17.9492C24.4041 17.9625 22.075 18.1141 20.3421 19.847C18.6092 21.5798 18.4576 23.9089 18.4443 26.2249C16.1284 26.2381 13.7991 26.3897 12.0663 28.1226C11.806 28.3829 11.806 28.805 12.0663 29.0653C12.3266 29.3256 12.7487 29.3256 13.009 29.0653C13.3233 28.7509 13.6694 28.5028 14.0412 28.3059L17.6938 31.9585C17.4968 32.3303 17.2487 32.6764 16.9344 32.9908C16.6741 33.2511 16.6741 33.6731 16.9344 33.9334C17.1947 34.1937 17.6167 34.1938 17.8771 33.9334C19.61 32.2006 19.7616 29.8714 19.7748 27.5554C22.0907 27.5421 24.4198 27.3905 26.1527 25.6576C27.8856 23.9248 28.0372 21.5957 28.0505 19.2798C30.3664 19.2665 32.6957 19.1149 34.4285 17.382C34.6889 17.1217 34.6888 16.6997 34.4285 16.4393ZM31.0655 17.6961C30.1373 17.904 29.1148 17.9404 28.0531 17.9466C28.0593 16.885 28.0957 15.8624 28.3037 14.9342L31.0655 17.6961ZM26.4668 22.2945L23.7052 19.5329C24.6334 19.325 25.6558 19.2886 26.7174 19.2824C26.7112 20.3439 26.6748 21.3663 26.4668 22.2945ZM20.0281 23.2101L22.7897 25.9717C21.8615 26.1796 20.839 26.216 19.7775 26.2222C19.7837 25.1607 19.8201 24.1383 20.0281 23.2101ZM15.4293 27.8085C16.3576 27.6006 17.3801 27.5642 18.4417 27.558C18.4356 28.6196 18.3992 29.6422 18.1912 30.5704L15.4293 27.8085ZM24.1778 25.4744L20.5253 21.822C20.7223 21.4502 20.9704 21.1041 21.2849 20.7897C21.5993 20.4753 21.9454 20.2272 22.3171 20.0302L25.9696 23.6826C25.7726 24.0544 25.5245 24.4005 25.21 24.7149C24.8957 25.0293 24.5495 25.2774 24.1778 25.4744Z" fill="#89D24E"/>
</svg>
