<svg width="24" height="24" viewBox="0 0 24 24" fill="none" xmlns="http://www.w3.org/2000/svg">
<path d="M23.4283 5.43982C23.168 5.1795 22.7459 5.17954 22.4856 5.43982C22.1713 5.75418 21.8252 6.00228 21.4534 6.19928L17.8007 2.54659C17.9977 2.17486 18.2458 1.82873 18.5602 1.51437C18.8205 1.25405 18.8205 0.832012 18.5602 0.57169C18.2998 0.311412 17.8778 0.311368 17.6175 0.57169C15.8846 2.30453 15.733 4.63375 15.7197 6.94971C13.4038 6.963 11.0747 7.11458 9.34188 8.84751C7.60899 10.5803 7.45737 12.9094 7.44408 15.2254C5.12811 15.2386 2.7989 15.3902 1.06606 17.1231C0.80578 17.3834 0.80578 17.8055 1.06606 18.0658C1.32638 18.3261 1.74841 18.3261 2.00874 18.0658C2.3231 17.7514 2.66919 17.5033 3.04092 17.3063L6.6936 20.959C6.4966 21.3308 6.2485 21.6768 5.93414 21.9912C5.67382 22.2516 5.67382 22.6736 5.93414 22.9339C6.19447 23.1942 6.6165 23.1942 6.87682 22.9339C8.60975 21.2011 8.76134 18.8719 8.77458 16.5559C11.0905 16.5426 13.4196 16.391 15.1524 14.6581C16.8853 12.9253 17.0369 10.5962 17.0502 8.28025C19.3662 8.26701 21.6954 8.11543 23.4282 6.3825C23.6886 6.12218 23.6886 5.70014 23.4283 5.43982ZM20.0653 6.69655C19.1371 6.90452 18.1145 6.94092 17.0529 6.94709C17.0591 5.88545 17.0955 4.86292 17.3034 3.93468L20.0653 6.69655ZM15.4666 11.295L12.705 8.53342C13.6332 8.32549 14.6556 8.28905 15.7171 8.28288C15.7109 9.34438 15.6745 10.3668 15.4666 11.295ZM9.02783 12.2105L11.7894 14.9721C10.8612 15.1801 9.8388 15.2165 8.77729 15.2227C8.78347 14.1612 8.81986 13.1387 9.02783 12.2105ZM4.42909 16.809C5.35733 16.6011 6.37986 16.5647 7.4415 16.5585C7.43533 17.6201 7.39893 18.6427 7.19096 19.5709L4.42909 16.809ZM13.1775 14.4749L9.52506 10.8225C9.72206 10.4507 9.97016 10.1046 10.2846 9.79019C10.599 9.47579 10.9451 9.22769 11.3169 9.03065L14.9693 12.6831C14.7723 13.0549 14.5242 13.401 14.2098 13.7154C13.8954 14.0298 13.5493 14.2779 13.1775 14.4749Z" fill="#ffffff"/>
</svg>
