<svg width="23" height="23" viewBox="0 0 23 23" fill="none" xmlns="http://www.w3.org/2000/svg">
<path fill-rule="evenodd" clip-rule="evenodd" d="M12.918 5.34619C12.918 4.93198 13.2538 4.59619 13.668 4.59619H20.5688C20.983 4.59619 21.3188 4.93198 21.3188 5.34619C21.3188 5.7604 20.983 6.09619 20.5688 6.09619H13.668C13.2538 6.09619 12.918 5.7604 12.918 5.34619Z" fill="white"/>
<path fill-rule="evenodd" clip-rule="evenodd" d="M1.42969 5.34668C1.42969 4.93247 1.76547 4.59668 2.17969 4.59668H9.08052C9.49473 4.59668 9.83052 4.93247 9.83052 5.34668C9.83052 5.76089 9.49473 6.09668 9.08052 6.09668H2.17969C1.76547 6.09668 1.42969 5.76089 1.42969 5.34668Z" fill="white"/>
<path fill-rule="evenodd" clip-rule="evenodd" d="M12.918 14.5317C12.918 14.1175 13.2538 13.7817 13.668 13.7817H20.5688C20.983 13.7817 21.3188 14.1175 21.3188 14.5317C21.3188 14.946 20.983 15.2817 20.5688 15.2817H13.668C13.2538 15.2817 12.918 14.946 12.918 14.5317Z" fill="white"/>
<path fill-rule="evenodd" clip-rule="evenodd" d="M12.918 20.2759C12.918 19.8617 13.2538 19.5259 13.668 19.5259H20.5688C20.983 19.5259 21.3188 19.8617 21.3188 20.2759C21.3188 20.6901 20.983 21.0259 20.5688 21.0259H13.668C13.2538 21.0259 12.918 20.6901 12.918 20.2759Z" fill="white"/>
<path fill-rule="evenodd" clip-rule="evenodd" d="M17.1484 1.146C17.5627 1.146 17.8984 1.48178 17.8984 1.896V8.78735C17.8984 9.20156 17.5627 9.53735 17.1484 9.53735C16.7342 9.53735 16.3984 9.20156 16.3984 8.78735V1.896C16.3984 1.48178 16.7342 1.146 17.1484 1.146Z" fill="white"/>
<path fill-rule="evenodd" clip-rule="evenodd" d="M9.61122 13.4329C9.90391 13.726 9.90358 14.2009 9.61049 14.4936L2.70965 21.3849C2.41656 21.6776 1.94168 21.6773 1.64899 21.3842C1.3563 21.0911 1.35663 20.6162 1.64972 20.3236L8.55056 13.4322C8.84365 13.1395 9.31852 13.1398 9.61122 13.4329Z" fill="white"/>
<path fill-rule="evenodd" clip-rule="evenodd" d="M1.64899 13.4329C1.94168 13.1398 2.41656 13.1395 2.70965 13.4322L9.61049 20.3236C9.90358 20.6162 9.90391 21.0911 9.61122 21.3842C9.31852 21.6773 8.84365 21.6776 8.55056 21.3849L1.64972 14.4936C1.35663 14.2009 1.3563 13.726 1.64899 13.4329Z" fill="white"/>
</svg>
