<svg width="24" height="24" viewBox="0 0 24 24" fill="none" xmlns="http://www.w3.org/2000/svg">
<path d="M23.0302 0.967018C22.3084 0.245181 21.1132 0.184831 19.478 0.787303C18.2346 1.24548 16.7175 2.09601 15.0725 3.25541C11.9581 2.2248 8.38601 2.94562 5.91244 5.41905C3.43891 7.89258 2.7181 11.4647 3.74875 14.5792C2.30619 16.626 -0.300216 20.7763 1.4604 22.5368C2.84409 23.9205 5.63309 22.5789 7.33727 21.591C8.00547 21.2036 8.70278 20.753 9.41857 20.2486C12.5587 21.2876 16.1226 20.5404 18.5782 18.0848C21.0516 15.6114 21.7725 12.0395 20.742 8.92518C21.2464 8.20939 21.697 7.51208 22.0843 6.84389C23.7458 3.97809 24.064 2.00082 23.0302 0.967018ZM6.54118 20.2177C4.14702 21.6057 2.86217 21.6938 2.58287 21.4144C2.41235 21.2439 2.35907 20.649 2.77018 19.5335C3.11055 18.6098 3.70693 17.4978 4.51409 16.274C5.28788 17.5976 6.39883 18.709 7.7243 19.4838C7.32078 19.7494 6.92567 19.9949 6.54118 20.2177ZM9.18882 18.4567C4.51303 16.3313 3.41123 10.1651 7.03481 6.54143C10.6587 2.91757 16.8249 4.02 18.9502 8.69543C17.6959 10.3861 16.1433 12.1711 14.4039 13.9105C12.6646 15.6498 10.8795 17.2024 9.18882 18.4567ZM17.4558 16.9624C15.7177 18.7004 13.3204 19.3866 11.0612 19.0218C12.5326 17.8624 14.0478 16.5113 15.5262 15.0329C17.0046 13.5545 18.3558 12.0392 19.5152 10.5679C19.8801 12.827 19.1939 15.2243 17.4558 16.9624ZM20.7111 6.04783C20.4882 6.43233 20.2428 6.82744 19.9771 7.23082C19.2034 5.90705 18.0927 4.79552 16.7673 4.02066C17.9912 3.21354 19.1031 2.61712 20.0268 2.27671C21.1422 1.86564 21.7372 1.91888 21.9078 2.08939C22.1873 2.36883 22.0991 3.65359 20.7111 6.04783Z" fill="#ffffff"/>
</svg>
