<svg width="22" height="24" viewBox="0 0 22 24" fill="none" xmlns="http://www.w3.org/2000/svg">
<path d="M20.7958 6.08686C19.7681 4.30659 16.8089 4.62291 14.8141 5.12227C14.2521 3.13781 13.0459 0.376465 10.9821 0.376465C8.9184 0.376465 7.7122 3.13763 7.15023 5.12227C5.15626 4.62313 2.19636 4.30637 1.16845 6.08686C0.139822 7.86845 1.89667 10.275 3.32715 11.7528C1.89436 13.2329 0.140445 15.6382 1.16845 17.4188C2.1961 19.1988 5.14639 18.885 7.15027 18.3834C7.71216 20.3679 8.9184 23.1292 10.9821 23.1292C13.0442 23.1292 14.2509 20.3723 14.8141 18.3834C16.8183 18.8851 19.7683 19.1986 20.7958 17.4188C21.8245 15.6372 20.0677 13.2306 18.6371 11.7528C20.07 10.2727 21.8238 7.86739 20.7958 6.08686ZM19.6413 6.75344C20.2688 7.84037 18.5555 9.92077 17.6756 10.8299C17.0268 10.2488 16.3063 9.67716 15.5296 9.12781C15.4426 8.18086 15.3084 7.27066 15.1303 6.41695C16.3755 6.1053 19.0174 5.67273 19.6413 6.75344ZM10.9821 15.5278C9.88055 14.9881 8.76798 14.3492 7.71269 13.6402C7.67087 13.024 7.64923 12.393 7.64923 11.7528C7.64923 11.1126 7.67087 10.4816 7.71269 9.86545C8.73092 9.18131 9.84047 8.53721 10.9821 7.97782C12.0837 8.51757 13.1963 9.15643 14.2516 9.86545C14.2934 10.4816 14.3151 11.1126 14.3151 11.7528C14.3151 12.393 14.2934 13.024 14.2516 13.6402C13.2333 14.3244 12.1238 14.9684 10.9821 15.5278ZM14.0797 15.3366C14.0151 15.8099 13.9375 16.2697 13.8475 16.7128C13.4185 16.5698 12.981 16.4074 12.538 16.2267C13.063 15.9444 13.563 15.6561 14.0797 15.3366ZM9.42625 16.2267C8.98324 16.4074 8.54578 16.5698 8.11673 16.7128C8.02669 16.2697 7.94915 15.81 7.88453 15.3366C8.3902 15.6493 8.8901 15.9384 9.42625 16.2267ZM6.32962 12.6423C5.95229 12.3495 5.59349 12.0523 5.25558 11.7528C5.59349 11.4533 5.95229 11.1561 6.32962 10.8633C6.32078 11.1578 6.31607 11.4544 6.31607 11.7528C6.31607 12.0512 6.32078 12.3478 6.32962 12.6423ZM7.88453 8.16904C7.94915 7.69568 8.02669 7.23591 8.11673 6.79277C8.54578 6.93582 8.98324 7.0982 9.42625 7.27888C8.90796 7.55765 8.40749 7.8457 7.88453 8.16904ZM12.538 7.27888C12.981 7.09824 13.4185 6.93582 13.8476 6.79277C13.9376 7.23587 14.0151 7.69563 14.0798 8.16904C13.5801 7.8601 13.0807 7.57071 12.538 7.27888ZM15.6347 10.8633C16.012 11.1561 16.3708 11.4532 16.7087 11.7528C16.3708 12.0523 16.012 12.3495 15.6347 12.6423C15.6435 12.3478 15.6482 12.0512 15.6482 11.7528C15.6482 11.4544 15.6435 11.1578 15.6347 10.8633ZM10.9821 1.70963C12.2416 1.70963 13.1902 4.27908 13.534 5.49324C12.7048 5.76481 11.8479 6.10357 10.9821 6.50227C10.1164 6.10357 9.25947 5.76481 8.43033 5.49324C8.773 4.28295 9.72164 1.70963 10.9821 1.70963ZM2.32297 6.75344C2.9472 5.67224 5.57345 6.10143 6.83396 6.41695C6.65589 7.27066 6.52173 8.18086 6.43467 9.12781C5.65802 9.67716 4.93748 10.2488 4.28868 10.8299C3.4099 9.92188 1.69527 7.84072 2.32297 6.75344ZM2.32297 16.7522C1.69549 15.6652 3.40883 13.5848 4.28868 12.6757C4.93748 13.2568 5.65802 13.8285 6.43467 14.3778C6.52173 15.3248 6.65589 16.235 6.83396 17.0887C5.61029 17.3949 2.95076 17.8395 2.32297 16.7522ZM10.9821 21.796C9.7227 21.796 8.77411 19.2265 8.43033 18.0124C9.25952 17.7408 10.1164 17.4021 10.9821 17.0033C11.8479 17.4021 12.7048 17.7408 13.534 18.0124C13.1913 19.2226 12.2427 21.796 10.9821 21.796ZM19.6413 16.7522C19.0135 17.8395 16.3538 17.3949 15.1303 17.0887C15.3084 16.235 15.4426 15.3248 15.5296 14.3778C16.3063 13.8285 17.0268 13.2568 17.6756 12.6757C18.5544 13.5837 20.269 15.6649 19.6413 16.7522Z" fill="url(#paint0_linear_2209_27465)"/>
<path d="M10.9822 9.75293C9.87951 9.75293 8.98242 10.65 8.98242 11.7527C8.98242 12.8553 9.87951 13.7524 10.9822 13.7524C12.0848 13.7524 12.9819 12.8553 12.9819 11.7527C12.9819 10.65 12.0849 9.75293 10.9822 9.75293ZM10.9822 12.4193C10.6146 12.4193 10.3156 12.1202 10.3156 11.7527C10.3156 11.3851 10.6146 11.0861 10.9822 11.0861C11.3497 11.0861 11.6488 11.3851 11.6488 11.7527C11.6488 12.1202 11.3497 12.4193 10.9822 12.4193Z" fill="url(#paint1_linear_2209_27465)"/>
<defs>
<linearGradient id="paint0_linear_2209_27465" x1="2.89862" y1="0.941794" x2="23.3611" y2="6.35784" gradientUnits="userSpaceOnUse">
<stop stop-color="#ECC243"/>
<stop offset="1" stop-color="#C6830E"/>
</linearGradient>
<linearGradient id="paint1_linear_2209_27465" x1="9.38516" y1="9.8523" x2="13.3593" y2="11.0345" gradientUnits="userSpaceOnUse">
<stop stop-color="#ECC243"/>
<stop offset="1" stop-color="#C6830E"/>
</linearGradient>
</defs>
</svg>
