<?xml version="1.0" standalone="no"?>
<!DOCTYPE svg PUBLIC "-//W3C//DTD SVG 20010904//EN"
 "http://www.w3.org/TR/2001/REC-SVG-20010904/DTD/svg10.dtd">
<svg version="1.0" xmlns="http://www.w3.org/2000/svg"
 width="512.000000pt" height="512.000000pt" viewBox="0 0 512.000000 512.000000"
 preserveAspectRatio="xMidYMid meet">
<metadata>
Created by potrace 1.14, written by Peter Selinger 2001-2017
</metadata>
<g transform="translate(0.000000,512.000000) scale(0.100000,-0.100000)"
fill="#000000" stroke="none">
<path d="M2370 4239 c-102 -21 -198 -40 -215 -43 -16 -3 -59 -12 -95 -20 -36
-8 -79 -18 -97 -21 -32 -5 -133 -25 -483 -96 -107 -22 -206 -42 -220 -45 -14
-2 -45 -9 -70 -14 -25 -5 -56 -12 -70 -14 -44 -8 -575 -116 -585 -119 -5 -2
42 -13 105 -25 63 -12 125 -24 136 -26 12 -3 37 -7 55 -10 174 -29 189 -34
190 -64 1 -15 3 -43 4 -62 6 -79 15 -221 21 -317 6 -96 5 -101 -15 -108 -40
-12 -57 -75 -33 -117 16 -27 50 -48 78 -48 29 0 73 34 83 63 13 36 -7 90 -39
107 -20 11 -21 16 -15 108 3 53 8 126 10 162 8 127 16 214 19 217 1 2 47 -6
102 -16 54 -11 119 -23 144 -27 25 -4 47 -8 50 -9 3 0 35 -7 73 -14 37 -7 67
-18 67 -23 0 -5 -9 -44 -19 -86 -11 -43 -23 -90 -26 -107 -3 -16 -20 -90 -38
-162 l-33 -133 105 -1 c136 -1 195 -7 329 -33 40 -8 145 -48 204 -77 102 -50
148 -86 277 -223 56 -59 118 -89 196 -92 103 -4 173 33 264 141 40 46 151 137
195 160 17 9 38 20 46 25 31 19 148 59 215 74 101 23 135 26 282 26 l131 1
-10 37 c-21 73 -107 456 -104 459 4 4 33 10 86 19 19 3 91 17 160 31 69 13
136 26 150 29 71 13 128 24 150 29 14 3 50 9 80 15 64 12 86 16 155 30 28 5
64 12 80 15 66 10 139 25 142 29 2 2 -9 6 -24 9 -120 25 -433 90 -453 93 -14
3 -32 7 -40 9 -8 2 -28 7 -45 9 -16 3 -75 15 -130 26 -55 12 -244 50 -420 86
-176 36 -327 67 -335 69 -8 2 -87 18 -175 35 -88 18 -167 34 -175 35 -73 16
-223 45 -228 44 -4 -1 -90 -19 -192 -40z"/>
<path d="M1356 2864 c-500 -97 -855 -536 -840 -1038 3 -101 11 -153 40 -253
50 -174 129 -309 259 -439 161 -161 324 -245 570 -293 91 -18 299 -6 406 22
207 54 388 167 527 327 l22 26 -56 79 c-30 44 -77 112 -104 152 -28 39 -54 74
-59 78 -6 3 -17 -8 -26 -24 -39 -77 -181 -200 -285 -248 -105 -48 -246 -68
-365 -49 -76 11 -98 17 -158 42 -390 165 -528 639 -287 989 142 206 399 311
653 268 140 -23 272 -96 365 -199 30 -32 138 -181 240 -329 218 -315 239 -345
337 -485 41 -58 103 -148 139 -201 105 -153 236 -269 391 -347 501 -250 1099
-63 1363 428 83 156 121 306 120 485 0 469 -305 866 -760 991 -119 32 -312 41
-436 19 -215 -39 -410 -143 -560 -298 -34 -36 -62 -68 -62 -71 0 -4 17 -30 37
-59 20 -28 65 -92 99 -142 89 -129 80 -124 121 -63 119 173 324 280 538 281
371 1 668 -302 659 -673 -9 -356 -285 -631 -646 -644 -112 -4 -321 57 -376
111 -7 7 -16 13 -20 13 -25 1 -119 111 -226 265 -69 99 -129 185 -133 190 -5
6 -18 24 -29 40 -240 351 -490 698 -538 748 -143 149 -321 249 -520 294 -93
20 -310 24 -400 7z"/>
</g>
</svg>
