<svg width="40" height="40" viewBox="0 0 40 40" fill="none" xmlns="http://www.w3.org/2000/svg">
<path d="M23.8523 29.273C26.8903 29.273 29.3531 26.8102 29.3531 23.7722C29.3531 20.7343 26.8903 18.2715 23.8523 18.2715C20.8143 18.2715 18.3516 20.7343 18.3516 23.7722C18.3516 26.8102 20.8143 29.273 23.8523 29.273Z" stroke="#F7FFE7" stroke-width="1.25" stroke-linecap="round" stroke-linejoin="round"/>
<path d="M21.2891 18.9039L16.7477 10.7275L10.6484 22.6723H18.461" stroke="#F7FFE7" stroke-width="1.25" stroke-linecap="round" stroke-linejoin="round"/>
<path d="M32.2812 32.0956L38.5182 38.3326" stroke="#F7FFE7" stroke-width="1.25" stroke-linecap="round" stroke-linejoin="round"/>
<path d="M7.71881 7.90436L1.48183 1.66738" stroke="#F7FFE7" stroke-width="1.25" stroke-linecap="round" stroke-linejoin="round"/>
<path d="M7.71881 32.0956L1.48183 38.3326" stroke="#F7FFE7" stroke-width="1.25" stroke-linecap="round" stroke-linejoin="round"/>
<path d="M32.2812 7.90436L38.5182 1.66738" stroke="#F7FFE7" stroke-width="1.25" stroke-linecap="round" stroke-linejoin="round"/>
<path d="M38.5195 27.965L38.5195 12.0359" stroke="#F7FFE7" stroke-width="1.25" stroke-linecap="round" stroke-linejoin="round"/>
<path d="M11.41 38.332L28.7903 38.332" stroke="#F7FFE7" stroke-width="1.25" stroke-linecap="round" stroke-linejoin="round"/>
<path d="M1.48047 27.965L1.48047 12.0359" stroke="#F7FFE7" stroke-width="1.25" stroke-linecap="round" stroke-linejoin="round"/>
<path d="M11.41 1.66797L28.7903 1.66797" stroke="#F7FFE7" stroke-width="1.25" stroke-linecap="round" stroke-linejoin="round"/>
<path d="M33.7891 38.3326H38.5182V33.6035" stroke="#F7FFE7" stroke-width="1.25" stroke-linecap="round" stroke-linejoin="round"/>
<path d="M6.21094 1.66739L1.48185 1.66739L1.48185 6.39648" stroke="#F7FFE7" stroke-width="1.25" stroke-linecap="round" stroke-linejoin="round"/>
<path d="M6.21094 38.3326H1.48185V33.6035" stroke="#F7FFE7" stroke-width="1.25" stroke-linecap="round" stroke-linejoin="round"/>
<path d="M33.7891 1.66739L38.5182 1.66739L38.5182 6.39648" stroke="#F7FFE7" stroke-width="1.25" stroke-linecap="round" stroke-linejoin="round"/>
</svg>
