<svg width="41" height="40" viewBox="0 0 41 40" fill="none" xmlns="http://www.w3.org/2000/svg">
<path d="M33.3167 29.9217V13.4832L17.5977 4.56152" stroke="#F7FFE7" stroke-width="1.25" stroke-linecap="round" stroke-linejoin="round"/>
<path d="M33.3463 13.469L39.9023 9.74805" stroke="#F7FFE7" stroke-width="1.25" stroke-linecap="round" stroke-linejoin="round"/>
<path d="M24.207 1.31055V3.66214" stroke="#F7FFE7" stroke-width="1.25" stroke-linecap="round" stroke-linejoin="round"/>
<path d="M24.207 6.9541V9.3057" stroke="#F7FFE7" stroke-width="1.25" stroke-linecap="round" stroke-linejoin="round"/>
<path d="M24.207 12.5977V14.9493" stroke="#F7FFE7" stroke-width="1.25" stroke-linecap="round" stroke-linejoin="round"/>
<path d="M25.137 1.02998L39.2466 9.03812C39.8354 9.37232 40.1992 9.99717 40.1992 10.6742V25.3385C40.1992 26.0157 39.8353 26.6406 39.2463 26.9747L34.2468 29.8114C33.6709 30.1382 32.9657 30.1382 32.3898 29.8113L18.28 21.8031C17.6912 21.4689 17.3274 20.8441 17.3274 20.1671L17.3265 5.50436C17.3265 4.82725 17.6903 4.20235 18.2792 3.86813L23.2798 1.02998C23.8557 0.703102 24.5611 0.703103 25.137 1.02998Z" stroke="#F7FFE7" stroke-width="1.25" stroke-linecap="round" stroke-linejoin="round"/>
<path d="M36.6727 24.5908L39.8164 26.3386" stroke="#F7FFE7" stroke-width="1.25" stroke-linecap="round" stroke-linejoin="round"/>
<path d="M33.8477 22.9893L31.0257 21.3877" stroke="#F7FFE7" stroke-width="1.25" stroke-linecap="round" stroke-linejoin="round"/>
<path d="M25.382 18.1465L27.9688 19.6528" stroke="#F7FFE7" stroke-width="1.25" stroke-linecap="round" stroke-linejoin="round"/>
<path d="M22.7969 18.1016L20.2101 19.6079" stroke="#F7FFE7" stroke-width="1.25" stroke-linecap="round" stroke-linejoin="round"/>
<path d="M37.9363 31.231C36.418 33.2603 33.1543 34.6638 29.3731 34.6638C24.1425 34.6638 19.9023 31.9783 19.9023 28.6656C19.9023 27.8731 20.1451 27.1164 20.586 26.4238" stroke="#F7FFE7" stroke-width="1.25" stroke-linecap="round" stroke-linejoin="round"/>
<path d="M2.48162 34.7666C2.28375 35.1098 2.17578 35.4804 2.17578 35.867C2.17578 37.6388 4.44369 39.0752 7.2413 39.0752C10.0389 39.0752 12.3068 37.6388 12.3068 35.867C12.3068 35.4963 12.2075 35.1402 12.0248 34.8089" stroke="#F7FFE7" stroke-width="1.25" stroke-linecap="round" stroke-linejoin="round"/>
<path d="M7.24229 20.3928C9.02001 20.3928 10.4611 18.9517 10.4611 17.1739C10.4611 15.3962 9.02001 13.9551 7.24229 13.9551C5.46457 13.9551 4.02344 15.3962 4.02344 17.1739C4.02344 18.9517 5.46457 20.3928 7.24229 20.3928Z" stroke="#F7FFE7" stroke-width="1.25" stroke-linecap="round" stroke-linejoin="round"/>
<path d="M12.8754 26.0256C12.8754 24.5316 12.2819 23.0988 11.2255 22.0424C10.1691 20.9861 8.73632 20.3926 7.24236 20.3926C5.7484 20.3926 4.31563 20.9861 3.25924 22.0424C2.20285 23.0988 1.60938 24.5316 1.60938 26.0256V28.4397H4.02351L4.82823 34.8774H9.6565L10.4612 28.4397H12.8754V26.0256Z" stroke="#F7FFE7" stroke-width="1.25" stroke-linecap="round" stroke-linejoin="round"/>
</svg>
