<svg width="40" height="41" viewBox="0 0 40 41" fill="none" xmlns="http://www.w3.org/2000/svg">
<path d="M13.372 12.8818L2.08618 19.2873C1.56451 19.5834 1.24219 20.137 1.24219 20.7368V28.097C1.24219 28.6968 1.56451 29.2504 2.08618 29.5464L19.1261 39.2177C19.6363 39.5073 20.2612 39.5073 20.7714 39.2177L37.8113 29.5464C38.333 29.2504 38.6553 28.6968 38.6553 28.097V20.7368C38.6553 20.137 38.333 19.5834 37.8113 19.2873L33.3843 16.7747" stroke="#F7FFE7" stroke-width="1.25" stroke-linecap="round" stroke-linejoin="round"/>
<path d="M1.24219 24.9014L19.1261 35.0517C19.6363 35.3413 20.2612 35.3413 20.7714 35.0517L38.6553 24.9014" stroke="#F7FFE7" stroke-width="1.25" stroke-linejoin="round"/>
<path d="M38.6562 20.1836L19.9497 30.8008L1.24313 20.1836" stroke="#F7FFE7" stroke-width="1.25" stroke-linejoin="round"/>
<path d="M19.9453 39.2685V30.8008" stroke="#F7FFE7" stroke-width="1.25" stroke-linejoin="round"/>
<path d="M30.0008 3.38965V15.5749C30.0008 16.5621 28.6801 17.4259 26.707 17.899" stroke="#F7FFE7" stroke-width="1.25" stroke-linecap="round"/>
<ellipse cx="23.2266" cy="3.39045" rx="6.76958" ry="2.70783" stroke="#F7FFE7" stroke-width="1.25"/>
<path d="M25.0643 21.0276C25.4315 21.6518 25.6744 22.438 25.1707 22.9583C24.1907 23.9708 21.7327 24.6888 18.8555 24.6888C15.9783 24.6888 13.5204 23.9708 12.5404 22.9583C12.0367 22.438 12.2796 21.6518 12.6467 21.0276L18.8555 10.4727L25.0643 21.0276Z" stroke="#F7FFE7" stroke-width="1.25" stroke-linejoin="round"/>
<path d="M16.457 3.38965V10.2668" stroke="#F7FFE7" stroke-width="1.25" stroke-linecap="round"/>
</svg>
