<svg width="40" height="40" viewBox="0 0 40 40" fill="none" xmlns="http://www.w3.org/2000/svg">
<path d="M20.2461 27.5V31" stroke="white" stroke-width="1.5" stroke-linecap="round" stroke-linejoin="round"/>
<path d="M11.9141 36.667H28.5807V35.0003C28.5807 33.167 27.0807 31.667 25.2474 31.667H15.2474C13.4141 31.667 11.9141 33.167 11.9141 35.0003V36.667V36.667Z" stroke="white" stroke-width="1.5" stroke-miterlimit="10"/>
<path d="M10.2461 36.667H30.2461" stroke="white" stroke-width="1.5" stroke-linecap="round" stroke-linejoin="round"/>
<path d="M19.9987 26.6663C13.5487 26.6663 8.33203 21.4497 8.33203 14.9997V9.99967C8.33203 6.31634 11.3154 3.33301 14.9987 3.33301H24.9987C28.682 3.33301 31.6654 6.31634 31.6654 9.99967V14.9997C31.6654 21.4497 26.4487 26.6663 19.9987 26.6663Z" stroke="white" stroke-width="1.5" stroke-linecap="round" stroke-linejoin="round"/>
<path d="M9.1151 19.4157C7.8651 19.0157 6.7651 18.2824 5.89844 17.4157C4.39844 15.749 3.39844 13.749 3.39844 11.4157C3.39844 9.08236 5.23177 7.24902 7.5651 7.24902H8.64844C8.3151 8.01569 8.14844 8.86569 8.14844 9.74902V14.749C8.14844 16.4157 8.49844 17.9824 9.1151 19.4157Z" stroke="white" stroke-width="1.5" stroke-linecap="round" stroke-linejoin="round"/>
<path d="M30.8867 19.4157C32.1367 19.0157 33.2367 18.2824 34.1034 17.4157C35.6034 15.749 36.6034 13.749 36.6034 11.4157C36.6034 9.08236 34.77 7.24902 32.4367 7.24902H31.3534C31.6867 8.01569 31.8534 8.86569 31.8534 9.74902V14.749C31.8534 16.4157 31.5034 17.9824 30.8867 19.4157Z" stroke="white" stroke-width="1.5" stroke-linecap="round" stroke-linejoin="round"/>
</svg>
