<svg width="40" height="37" viewBox="0 0 40 37" fill="none" xmlns="http://www.w3.org/2000/svg">
<path d="M29.0438 0H15.2701V4.37539H10.8072C4.84793 4.37539 0 11.6823 0 20.6693C0 29.6564 4.84793 36.9545 10.8072 36.9545H24.4322C30.1902 36.9545 34.8806 29.7964 34.8806 21.0019V20.1268H24.2484V17.5016H39.9998V16.6265C40.0348 7.47316 35.1081 0 29.0438 0ZM10.8072 35.2044C5.81052 35.2044 1.75016 28.6851 1.75016 20.6693C1.75016 13.0737 5.39048 6.81686 10.0196 6.17805V21.8769H19.8205C19.4355 29.3326 15.5414 35.2044 10.8072 35.2044ZM24.4322 35.2044H15.6814C18.9717 32.6929 21.2994 27.705 21.5794 21.8769H33.1129C32.8242 29.1926 28.9651 35.2044 24.4322 35.2044ZM22.4983 20.1268H11.7698V6.12555H15.2701V17.5016H22.4983V20.1268ZM17.0203 15.7514V2.15269C21.3957 2.83525 24.896 8.60202 25.176 15.7514H17.0203ZM26.9174 15.7514C26.6986 9.50335 24.1346 4.17412 20.5293 1.75016H29.0176C33.9443 1.75016 38.0221 7.95446 38.2672 15.7514H26.9174Z" fill="#F5FAFF"/>
</svg>
