<svg width="40" height="40" viewBox="0 0 40 40" fill="none" xmlns="http://www.w3.org/2000/svg">
<path d="M20.0013 26.8932C22.7764 26.8932 25.026 24.6436 25.026 21.8685C25.026 19.0934 22.7764 16.8438 20.0013 16.8438C17.2262 16.8438 14.9766 19.0934 14.9766 21.8685C14.9766 24.6436 17.2262 26.8932 20.0013 26.8932Z" stroke="#F5FAFF" stroke-width="1.25" stroke-linecap="round" stroke-linejoin="round"/>
<path d="M28.9321 37.4332C28.6413 35.2702 27.5755 33.2863 25.9327 31.8496C24.2899 30.4129 22.1817 29.6211 19.9993 29.6211C17.8169 29.6211 15.7086 30.4129 14.0658 31.8496C12.423 33.2863 11.3572 35.2702 11.0664 37.4332" stroke="#F5FAFF" stroke-width="1.25" stroke-linecap="round" stroke-linejoin="round"/>
<path d="M38.9531 2.56663L37.4553 2.94336" stroke="#F5FAFF" stroke-width="1.25" stroke-linecap="round"/>
<path d="M38.9604 30.4719L37.4648 30.0957" stroke="#F5FAFF" stroke-width="1.25" stroke-linecap="round"/>
<path d="M8.32671 10.0746L1.04297 8.04785V24.4284L8.32671 22.4017V10.0746Z" stroke="#F5FAFF" stroke-width="1.25" stroke-linecap="round" stroke-linejoin="round"/>
<path d="M27.3652 21.9757H28.1649V10.4991L11.8398 10.499L11.8398 21.9757H12.638" stroke="#F5FAFF" stroke-width="1.25" stroke-linecap="round" stroke-linejoin="round"/>
<path d="M31.6694 10.0746L38.9531 8.04785V24.4284L31.6694 22.4017V10.0746Z" stroke="#F5FAFF" stroke-width="1.25" stroke-linecap="round" stroke-linejoin="round"/>
<path d="M33.8984 3.88718C33.3207 4.0325 32.7427 4.16808 32.1645 4.29395" stroke="#F5FAFF" stroke-width="1.25" stroke-linecap="round"/>
<path d="M28.7227 4.9662C22.9108 5.94747 17.0834 5.94746 11.2716 4.9662" stroke="#F5FAFF" stroke-width="1.25" stroke-linecap="round"/>
<path d="M6.04738 3.87157C6.62512 4.01688 7.20309 4.15246 7.78125 4.27832" stroke="#F5FAFF" stroke-width="1.25" stroke-linecap="round"/>
<path d="M1.0435 2.56817L2.53906 2.94434" stroke="#F5FAFF" stroke-width="1.25" stroke-linecap="round"/>
<path d="M33.9526 29.1685C33.3749 29.0232 32.7969 28.8876 32.2188 28.7617" stroke="#F5FAFF" stroke-width="1.25" stroke-linecap="round"/>
<path d="M28.731 28.0754C27.4698 27.8625 26.2077 27.6957 24.9453 27.5752" stroke="#F5FAFF" stroke-width="1.25" stroke-linecap="round"/>
<path d="M11.2812 28.0754C12.5424 27.8625 13.8044 27.6957 15.0667 27.5752" stroke="#F5FAFF" stroke-width="1.25" stroke-linecap="round"/>
<path d="M6.10156 29.1529C6.67933 29.0075 7.25732 28.872 7.83551 28.7461" stroke="#F5FAFF" stroke-width="1.25" stroke-linecap="round"/>
<path d="M1.04297 30.4744L2.5408 30.0977" stroke="#F5FAFF" stroke-width="1.25" stroke-linecap="round"/>
</svg>
