<svg width="59" height="59" viewBox="0 0 59 59" fill="none" xmlns="http://www.w3.org/2000/svg">
<path d="M29.1737 43.4666C32.7344 43.4666 35.6209 40.5801 35.6209 37.0194C35.6209 33.4588 32.7344 30.5723 29.1737 30.5723C25.6131 30.5723 22.7266 33.4588 22.7266 37.0194C22.7266 40.5801 25.6131 43.4666 29.1737 43.4666Z" stroke="black" stroke-width="2" stroke-linecap="round" stroke-linejoin="round"/>
<path d="M40.4973 57.5785C40.1286 54.8369 38.7777 52.3221 36.6954 50.501C34.6131 48.68 31.9407 47.6763 29.1744 47.6763C26.4081 47.6763 23.7358 48.68 21.6534 50.501C19.5711 52.3221 18.2202 54.8369 17.8516 57.5785" stroke="black" stroke-width="2" stroke-linecap="round" stroke-linejoin="round"/>
<path d="M46.4534 24.2553C49.0013 24.2553 51.0669 22.1898 51.0669 19.6418C51.0669 17.0939 49.0013 15.0283 46.4534 15.0283C43.9054 15.0283 41.8398 17.0939 41.8398 19.6418C41.8398 22.1898 43.9054 24.2553 46.4534 24.2553Z" stroke="black" stroke-width="2" stroke-linecap="round" stroke-linejoin="round"/>
<path d="M46.4531 11.352V10.0767" stroke="black" stroke-width="2" stroke-linecap="round" stroke-linejoin="round"/>
<path d="M52.3164 13.7801L53.2185 12.8779" stroke="black" stroke-width="2" stroke-linecap="round" stroke-linejoin="round"/>
<path d="M54.7461 19.6421H56.0215" stroke="black" stroke-width="2" stroke-linecap="round" stroke-linejoin="round"/>
<path d="M52.3164 25.5039L53.2185 26.406" stroke="black" stroke-width="2" stroke-linecap="round" stroke-linejoin="round"/>
<path d="M46.4531 27.9321V29.2075" stroke="black" stroke-width="2" stroke-linecap="round" stroke-linejoin="round"/>
<path d="M40.5935 25.5039L39.6914 26.406" stroke="black" stroke-width="2" stroke-linecap="round" stroke-linejoin="round"/>
<path d="M38.166 19.6421H36.8906" stroke="black" stroke-width="2" stroke-linecap="round" stroke-linejoin="round"/>
<path d="M40.5935 13.7801L39.6914 12.8779" stroke="black" stroke-width="2" stroke-linecap="round" stroke-linejoin="round"/>
<path d="M5.81954 30.9206H4.74013C3.87035 30.8134 3.06858 30.3956 2.48251 29.7441C1.89644 29.0925 1.56555 28.2511 1.55078 27.3749C1.5506 26.899 1.64646 26.4279 1.83262 25.9899C2.01878 25.5518 2.29141 25.1559 2.6342 24.8257C2.97699 24.4955 3.38287 24.2379 3.82756 24.0683C4.27225 23.8987 4.7466 23.8206 5.2222 23.8386C5.68985 22.8396 6.47754 22.0254 7.4604 21.5248C8.44326 21.0243 9.56507 20.8661 10.648 21.0753C11.731 21.2845 12.7131 21.8492 13.4388 22.6799C14.1644 23.5106 14.5921 24.5596 14.654 25.6609C15.0406 25.5806 15.4401 25.5875 15.8237 25.681C16.2073 25.7745 16.5653 25.9522 16.8716 26.2013C17.1779 26.4504 17.4248 26.7646 17.5945 27.1211C17.7642 27.4776 17.8524 27.8674 17.8526 28.2622C17.8486 28.6253 17.7712 28.9838 17.625 29.3161C17.4788 29.6485 17.2669 29.9479 17.002 30.1962C16.7371 30.4445 16.4248 30.6367 16.0837 30.7612C15.7426 30.8857 15.3799 30.9399 15.0173 30.9206H5.81838H5.81954Z" stroke="black" stroke-width="2" stroke-linecap="round" stroke-linejoin="round"/>
<path d="M20.3699 19.3072H19.58C18.9435 19.2288 18.3568 18.923 17.9279 18.4462C17.499 17.9694 17.2569 17.3537 17.2461 16.7125C17.246 16.3642 17.3161 16.0194 17.4523 15.6989C17.5886 15.3784 17.7881 15.0886 18.0389 14.847C18.2898 14.6054 18.5868 14.4168 18.9122 14.2927C19.2377 14.1686 19.5848 14.1114 19.9328 14.1246C20.275 13.3936 20.8515 12.7977 21.5707 12.4314C22.29 12.0651 23.1109 11.9493 23.9034 12.1024C24.6959 12.2556 25.4146 12.6688 25.9457 13.2767C26.4767 13.8845 26.7897 14.6523 26.8349 15.4582C27.1178 15.3994 27.4103 15.4045 27.691 15.4729C27.9717 15.5413 28.2336 15.6714 28.4578 15.8536C28.6819 16.0359 28.8626 16.2659 28.9868 16.5267C29.111 16.7876 29.1755 17.0729 29.1757 17.3618C29.1728 17.6275 29.1161 17.8898 29.0091 18.133C28.9021 18.3763 28.7471 18.5953 28.5532 18.7771C28.3594 18.9588 28.1308 19.0994 27.8812 19.1905C27.6316 19.2816 27.3661 19.3213 27.1008 19.3072H20.3691H20.3699Z" stroke="black" stroke-width="2" stroke-linecap="round" stroke-linejoin="round"/>
<path d="M57.3477 48.5019L55.125 47.9429" stroke="black" stroke-width="2" stroke-linecap="round"/>
<path d="M49.9128 46.5659C49.0542 46.35 48.1952 46.1485 47.3359 45.9614" stroke="black" stroke-width="2" stroke-linecap="round"/>
<path d="M42.1491 44.9402C40.5974 44.6782 39.045 44.4633 37.4922 44.2954" stroke="black" stroke-width="2" stroke-linecap="round"/>
<path d="M16.2148 44.9401C17.7664 44.6782 19.3188 44.4633 20.8716 44.2954" stroke="black" stroke-width="2" stroke-linecap="round"/>
<path d="M57.3516 1.00015L55.1255 1.56006" stroke="black" stroke-width="2" stroke-linecap="round"/>
<path d="M49.8281 2.96284C48.9694 3.17881 48.1104 3.38033 47.2511 3.56738" stroke="black" stroke-width="2" stroke-linecap="round"/>
<path d="M42.1367 4.56541C33.499 6.02378 24.8383 6.02377 16.2006 4.56539" stroke="black" stroke-width="2" stroke-linecap="round"/>
<path d="M8.43872 2.9404C9.29736 3.15637 10.1563 3.35787 11.0156 3.54492" stroke="black" stroke-width="2" stroke-linecap="round"/>
<path d="M0.999916 1.00393L3.22266 1.56299" stroke="black" stroke-width="2" stroke-linecap="round"/>
<path d="M8.52344 46.5425C9.38212 46.3266 10.2411 46.125 11.1005 45.938" stroke="black" stroke-width="2" stroke-linecap="round"/>
<path d="M1 48.5052L3.2261 47.9453" stroke="black" stroke-width="2" stroke-linecap="round"/>
</svg>
