<svg width="65" height="64" viewBox="0 0 65 64" fill="none" xmlns="http://www.w3.org/2000/svg">
<path d="M52.7111 47.8752V21.5735L27.5605 7.29883" stroke="black" stroke-width="2" stroke-linecap="round" stroke-linejoin="round"/>
<path d="M52.7545 21.5503L63.2441 15.5967" stroke="black" stroke-width="2" stroke-linecap="round" stroke-linejoin="round"/>
<path d="M38.1328 2.09619V5.85875" stroke="black" stroke-width="2" stroke-linecap="round" stroke-linejoin="round"/>
<path d="M38.1328 11.1265V14.889" stroke="black" stroke-width="2" stroke-linecap="round" stroke-linejoin="round"/>
<path d="M38.1328 20.1567V23.9193" stroke="black" stroke-width="2" stroke-linecap="round" stroke-linejoin="round"/>
<path d="M39.6192 1.64845L62.1945 14.4615C63.1366 14.9962 63.7188 15.996 63.7188 17.0793V40.5421C63.7188 41.6255 63.1365 42.6254 62.1941 43.1601L54.1949 47.6988C53.2735 48.2216 52.145 48.2215 51.2237 47.6986L28.648 34.8854C27.706 34.3507 27.1238 33.351 27.1238 32.2678L27.1225 8.80746C27.1224 7.72408 27.7045 6.72425 28.6467 6.1895L36.6476 1.64845C37.5691 1.12545 38.6977 1.12545 39.6192 1.64845Z" stroke="black" stroke-width="2" stroke-linecap="round" stroke-linejoin="round"/>
<path d="M58.0756 39.3457L63.1055 42.1422" stroke="black" stroke-width="2" stroke-linecap="round" stroke-linejoin="round"/>
<path d="M53.5605 36.7833L49.0455 34.2207" stroke="black" stroke-width="2" stroke-linecap="round" stroke-linejoin="round"/>
<path d="M40.0155 29.0347L44.1543 31.4448" stroke="black" stroke-width="2" stroke-linecap="round" stroke-linejoin="round"/>
<path d="M35.877 28.9634L31.7381 31.3735" stroke="black" stroke-width="2" stroke-linecap="round" stroke-linejoin="round"/>
<path d="M60.0965 49.9703C57.6672 53.2172 52.4453 55.4627 46.3953 55.4627C38.0265 55.4627 31.2422 51.166 31.2422 45.8657C31.2422 44.5976 31.6305 43.3869 32.336 42.2788" stroke="black" stroke-width="2" stroke-linecap="round" stroke-linejoin="round"/>
<path d="M3.3702 55.627C3.0536 56.1761 2.88086 56.7691 2.88086 57.3876C2.88086 60.2225 6.50951 62.5207 10.9857 62.5207C15.4619 62.5207 19.0905 60.2225 19.0905 57.3876C19.0905 56.7944 18.9316 56.2247 18.6393 55.6946" stroke="black" stroke-width="2" stroke-linecap="round" stroke-linejoin="round"/>
<path d="M10.9841 32.6284C13.8285 32.6284 16.1343 30.3226 16.1343 27.4783C16.1343 24.6339 13.8285 22.3281 10.9841 22.3281C8.13979 22.3281 5.83398 24.6339 5.83398 27.4783C5.83398 30.3226 8.13979 32.6284 10.9841 32.6284Z" stroke="black" stroke-width="2" stroke-linecap="round" stroke-linejoin="round"/>
<path d="M19.9982 41.6412C19.9982 39.2509 19.0487 36.9584 17.3584 35.2682C15.6682 33.578 13.3758 32.6284 10.9854 32.6284C8.5951 32.6284 6.30266 33.578 4.61244 35.2682C2.92221 36.9584 1.97266 39.2509 1.97266 41.6412V45.5038H5.83528L7.12282 55.8041H14.8481L16.1356 45.5038H19.9982V41.6412Z" stroke="black" stroke-width="2" stroke-linecap="round" stroke-linejoin="round"/>
</svg>
