<svg width="41" height="40" viewBox="0 0 41 40" fill="none" xmlns="http://www.w3.org/2000/svg">
<path d="M20.8216 1.66699C10.6964 1.66699 2.48828 9.87511 2.48828 20.0003C2.48828 30.1255 10.6964 38.3337 20.8216 38.3337C29.8085 38.3337 37.2851 31.8674 38.8527 23.3337M13.0728 36.0417C13.2217 31.1928 14.6234 23.1711 19.9013 26.6559C26.4987 31.0118 25.1045 29.7755 28.7556 29.0284C31.6765 28.4307 34.2656 29.9296 35.1951 30.7538M4.92254 27.8186C5.03296 25.2599 6.11344 19.5103 9.55197 16.9808C13.8501 13.8188 18.4641 15.9179 15.0441 2.92326M34.1549 10.0003L29.8662 13.2414C29.7035 13.3644 29.4397 13.3644 29.277 13.2414L27.4883 11.8897M39.1549 11.667C39.1549 16.2694 35.424 20.0003 30.8216 20.0003C26.2192 20.0003 22.4883 16.2694 22.4883 11.667C22.4883 7.06462 26.2192 3.33366 30.8216 3.33366C35.424 3.33366 39.1549 7.06462 39.1549 11.667Z" stroke="white" stroke-width="1.33333" stroke-linecap="round"/>
</svg>
