<svg width="40" height="40" viewBox="0 0 40 40" fill="none" xmlns="http://www.w3.org/2000/svg">
<path d="M1.67188 36.0803L7.89546 25.3195C8.19334 24.8045 8.74321 24.4873 9.3382 24.4873H30.6722C31.2672 24.4873 31.8171 24.8045 32.115 25.3195L38.3385 36.0803H1.67188Z" stroke="white" stroke-width="1.25" stroke-linecap="round" stroke-linejoin="round"/>
<path d="M5.34766 29.709H34.6474" stroke="white" stroke-width="1.25" stroke-linecap="round"/>
<path d="M20 24.4854V36.0803" stroke="white" stroke-width="1.25" stroke-linecap="round"/>
<path d="M5.51172 11.1509V11.9769C5.51172 14.9189 7.44662 17.5106 10.2673 18.3467C12.7134 19.0717 15.3604 18.4823 17.2678 16.7879L18.5976 15.6066C19.3976 14.8959 20.6022 14.8941 21.4043 15.6025L22.7694 16.8081C24.6742 18.4904 27.3116 19.0722 29.7474 18.3473C32.559 17.5107 34.4866 14.9259 34.4866 11.9924V11.1545C34.4866 7.13817 31.4197 3.78662 27.4192 3.43101L25.0771 3.22283C21.4043 3.03188 21.457 3.04199 20.0645 3.04199L19.9338 3.04208C18.5413 3.04208 18.594 3.03213 14.9212 3.22307L12.5791 3.43126C8.57856 3.78686 5.51172 7.13842 5.51172 11.1547" stroke="white" stroke-width="1.25"/>
<path d="M26.8521 8.70656L24.6908 8.51445C23.1668 8.37898 21.6383 8.30973 20.1097 8.3067C18.5811 8.30973 17.0526 8.37892 15.5285 8.51439L13.3673 8.7065" stroke="white" stroke-width="1.25" stroke-linecap="round"/>
</svg>
