<svg width="61" height="56" viewBox="0 0 61 56" fill="none" xmlns="http://www.w3.org/2000/svg">
<path d="M30.5 22.9375C33.3995 22.9375 35.75 20.587 35.75 17.6875C35.75 14.788 33.3995 12.4375 30.5 12.4375C27.6005 12.4375 25.25 14.788 25.25 17.6875C25.25 20.587 27.6005 22.9375 30.5 22.9375Z" stroke="black" stroke-width="1.64778" stroke-linecap="round" stroke-linejoin="round"/>
<path d="M24.4158 28.068H18.5693C17.1525 28.068 16.0039 26.9194 16.0039 25.5026C16.0039 24.0858 17.1524 22.9373 18.5692 22.9373L42.4328 22.937C43.8496 22.937 44.9981 24.0856 44.9981 25.5024C44.9981 26.9192 43.8496 28.0677 42.4328 28.0677H36.5862L35.2577 44.5419C35.1657 45.6831 34.2127 46.5623 33.0678 46.5623H30.501H27.9343C26.7893 46.5623 25.8364 45.6831 25.7443 44.5419L24.4158 28.068Z" stroke="black" stroke-width="1.64778" stroke-linecap="round" stroke-linejoin="round"/>
<path d="M30.5 46.563V34.9487" stroke="black" stroke-width="1.64778" stroke-linecap="round" stroke-linejoin="round"/>
<path d="M9.31896 15.1927H10.1429C10.1429 14.8296 9.90512 14.5093 9.55755 14.4041L9.31896 15.1927ZM51.681 15.1927L51.4424 14.4041C51.0949 14.5093 50.8571 14.8296 50.8571 15.1927H51.681ZM50.8571 52.007C50.8571 52.4621 51.226 52.8309 51.681 52.8309C52.1361 52.8309 52.5049 52.4621 52.5049 52.007H50.8571ZM8.49508 52.0173C8.49508 52.4723 8.86394 52.8412 9.31896 52.8412C9.77399 52.8412 10.1429 52.4723 10.1429 52.0173H8.49508ZM2.44889 9.68888C2.44889 8.99612 2.95752 8.14633 4.34944 7.2234C5.70948 6.32161 7.73185 5.47755 10.3048 4.75597C15.4391 3.31602 22.5795 2.41471 30.5 2.41471V0.766932C22.4733 0.766932 15.1761 1.67843 9.85981 3.16941C7.20739 3.91329 5.00111 4.81421 3.43884 5.85009C1.90845 6.86484 0.801112 8.14542 0.801112 9.68888H2.44889ZM30.5 2.41471C38.4205 2.41471 45.5609 3.31602 50.6952 4.75597C53.2682 5.47755 55.2905 6.32161 56.6506 7.2234C58.0425 8.14633 58.5511 8.99612 58.5511 9.68888H60.1989C60.1989 8.14542 59.0915 6.86484 57.5612 5.85009C55.9989 4.81421 53.7926 3.91329 51.1402 3.16941C45.8239 1.67843 38.5267 0.766932 30.5 0.766932V2.41471ZM9.55755 14.4041C7.21052 13.6941 5.37989 12.8803 4.15422 12.0213C2.90465 11.1456 2.44889 10.346 2.44889 9.68888H0.801112C0.801112 11.157 1.80486 12.387 3.20853 13.3707C4.63611 14.3712 6.65246 15.2468 9.08038 15.9813L9.55755 14.4041ZM58.5511 9.68888C58.5511 10.346 58.0954 11.1456 56.8458 12.0213C55.6201 12.8803 53.7895 13.6941 51.4424 14.4041L51.9196 15.9813C54.3475 15.2468 56.3639 14.3712 57.7915 13.3707C59.1951 12.387 60.1989 11.157 60.1989 9.68888H58.5511ZM50.8571 15.1927V52.007H52.5049V15.1927H50.8571ZM8.49508 15.1927V52.0173H10.1429V15.1927H8.49508Z" fill="black"/>
<path d="M1.625 9.76912V46.5191C1.625 50.9916 14.5528 54.6172 30.5 54.6172C46.4472 54.6172 59.375 50.9916 59.375 46.5191V9.8121" stroke="black" stroke-width="1.64778" stroke-linecap="round"/>
<path d="M59.375 27.8042C59.375 29.9498 56.468 31.905 51.6983 33.377" stroke="black" stroke-width="1.64778" stroke-linecap="round"/>
<path d="M14.5847 39.9478C12.6565 40.3052 10.8905 40.7258 9.32422 41.1989" stroke="black" stroke-width="1.64778" stroke-linecap="round"/>
<path d="M46.4141 39.9478C48.3423 40.3052 50.1083 40.7258 51.6746 41.1989" stroke="black" stroke-width="1.64778" stroke-linecap="round"/>
<path d="M17.375 2.51855V15.6436" stroke="black" stroke-width="1.64778" stroke-linecap="round"/>
<path d="M43.625 2.51855V15.6436" stroke="black" stroke-width="1.64778" stroke-linecap="round"/>
<path d="M1.625 27.8042C1.625 29.9535 4.54196 31.9117 9.3262 33.3845" stroke="black" stroke-width="1.64778" stroke-linecap="round"/>
</svg>
