<svg width="64" height="64" viewBox="0 0 64 64" fill="none" xmlns="http://www.w3.org/2000/svg">
<path fill-rule="evenodd" clip-rule="evenodd" d="M36.646 24.7158C27.2009 24.7158 21.6094 27.6057 21.6094 32.3206C21.6849 36.2752 25.9919 36.8075 29.0899 36.8075C36.5704 36.8075 36.646 33.2332 36.646 33.0811C36.4949 32.0165 35.3614 31.8644 35.1348 33.0051C35.1348 33.0811 34.9081 35.3626 29.0899 35.3626C26.3697 35.3626 23.1206 34.8302 23.1206 32.3206C23.1206 28.5943 28.2587 26.2368 36.646 26.2368C47.6023 26.2368 54.6294 29.5069 54.6294 34.6021C54.6294 39.8494 46.4689 45.9333 31.3567 46.6938C30.2233 46.8459 30.2233 48.2147 31.4323 48.2147C47.6779 47.3782 56.1407 40.686 56.1407 34.6021C56.1407 28.5943 48.509 24.7158 36.646 24.7158Z" fill="white"/>
<path fill-rule="evenodd" clip-rule="evenodd" d="M44.127 33.0806C44.127 29.3542 39.7445 28.5177 36.6465 28.5177C29.166 28.5177 29.0904 32.168 29.0904 32.3201C29.0904 33.3088 30.6016 33.3088 30.6016 32.3201C30.6016 32.3201 30.8283 30.0387 36.6465 30.0387C39.3667 30.0387 42.6158 30.7992 42.6158 33.0806C42.6158 36.807 37.4776 39.0884 29.0904 39.0884C18.1341 39.0884 11.1069 35.8184 11.1069 30.7992C11.1069 25.4758 19.2675 19.468 34.3796 18.7075C35.5131 18.6314 35.4375 17.1865 34.3041 17.1865C18.0585 18.0231 9.5957 24.6393 9.5957 30.7992C9.5957 36.7309 17.2273 40.6094 29.0904 40.6094C38.5355 40.6094 44.127 37.7956 44.127 33.0806Z" fill="white"/>
<path d="M25.3117 50.3441C27.2314 50.3441 28.7875 48.7779 28.7875 46.8459C28.7875 44.9139 27.2314 43.3477 25.3117 43.3477C23.3921 43.3477 21.8359 44.9139 21.8359 46.8459C21.8359 48.7779 23.3921 50.3441 25.3117 50.3441Z" fill="white"/>
<path d="M39.9699 20.9896C41.8896 20.9896 43.4457 19.4234 43.4457 17.4914C43.4457 15.5594 41.8896 13.9932 39.9699 13.9932C38.0503 13.9932 36.4941 15.5594 36.4941 17.4914C36.4941 19.4234 38.0503 20.9896 39.9699 20.9896Z" fill="white"/>
<path d="M49.1891 36.6554C50.1489 36.6554 50.927 35.8723 50.927 34.9063C50.927 33.9403 50.1489 33.1572 49.1891 33.1572C48.2293 33.1572 47.4512 33.9403 47.4512 34.9063C47.4512 35.8723 48.2293 36.6554 49.1891 36.6554Z" fill="white"/>
<path d="M59.3905 29.8874C60.6007 29.8874 61.5817 28.9 61.5817 27.682C61.5817 26.464 60.6007 25.4766 59.3905 25.4766C58.1803 25.4766 57.1992 26.464 57.1992 27.682C57.1992 28.9 58.1803 29.8874 59.3905 29.8874Z" fill="white"/>
<path d="M53.1188 25.4767C54.0786 25.4767 54.8567 24.6936 54.8567 23.7276C54.8567 22.7616 54.0786 21.9785 53.1188 21.9785C52.1589 21.9785 51.3809 22.7616 51.3809 23.7276C51.3809 24.6936 52.1589 25.4767 53.1188 25.4767Z" fill="white"/>
<path d="M43.8996 41.5981C44.4839 41.5981 44.9575 41.1214 44.9575 40.5334C44.9575 39.9454 44.4839 39.4688 43.8996 39.4688C43.3154 39.4688 42.8418 39.9454 42.8418 40.5334C42.8418 41.1214 43.3154 41.5981 43.8996 41.5981Z" fill="white"/>
<path d="M16.6219 33.3092C18.166 33.3092 19.4177 32.0494 19.4177 30.4954C19.4177 28.9414 18.166 27.6816 16.6219 27.6816C15.0779 27.6816 13.8262 28.9414 13.8262 30.4954C13.8262 32.0494 15.0779 33.3092 16.6219 33.3092Z" fill="white"/>
<path d="M22.1383 26.3888C23.0981 26.3888 23.8762 25.6057 23.8762 24.6397C23.8762 23.6737 23.0981 22.8906 22.1383 22.8906C21.1785 22.8906 20.4004 23.6737 20.4004 24.6397C20.4004 25.6057 21.1785 26.3888 22.1383 26.3888Z" fill="white"/>
<path d="M46.6965 31.4077C47.2808 31.4077 47.7544 30.931 47.7544 30.343C47.7544 29.755 47.2808 29.2783 46.6965 29.2783C46.1123 29.2783 45.6387 29.755 45.6387 30.343C45.6387 30.931 46.1123 31.4077 46.6965 31.4077Z" fill="white"/>
<path d="M27.3528 23.6508C27.937 23.6508 28.4106 23.1742 28.4106 22.5862C28.4106 21.9982 27.937 21.5215 27.3528 21.5215C26.7685 21.5215 26.2949 21.9982 26.2949 22.5862C26.2949 23.1742 26.7685 23.6508 27.3528 23.6508Z" fill="white"/>
<path d="M19.1164 36.2749C19.7007 36.2749 20.1743 35.7982 20.1743 35.2102C20.1743 34.6222 19.7007 34.1455 19.1164 34.1455C18.5322 34.1455 18.0586 34.6222 18.0586 35.2102C18.0586 35.7982 18.5322 36.2749 19.1164 36.2749Z" fill="white"/>
<path d="M18.7375 47.9106C19.3218 47.9106 19.7954 47.4339 19.7954 46.8459C19.7954 46.2579 19.3218 45.7812 18.7375 45.7812C18.1533 45.7812 17.6797 46.2579 17.6797 46.8459C17.6797 47.4339 18.1533 47.9106 18.7375 47.9106Z" fill="white"/>
<path d="M11.7867 45.7053C12.7465 45.7053 13.5246 44.9221 13.5246 43.9561C13.5246 42.9901 12.7465 42.207 11.7867 42.207C10.8269 42.207 10.0488 42.9901 10.0488 43.9561C10.0488 44.9221 10.8269 45.7053 11.7867 45.7053Z" fill="white"/>
<path d="M46.5442 23.0424C47.1284 23.0424 47.602 22.5658 47.602 21.9778C47.602 21.3898 47.1284 20.9131 46.5442 20.9131C45.9599 20.9131 45.4863 21.3898 45.4863 21.9778C45.4863 22.5658 45.9599 23.0424 46.5442 23.0424Z" fill="white"/>
<path d="M62.6387 33.9941C63.3064 33.9941 63.8476 33.4493 63.8476 32.7773C63.8476 32.1053 63.3064 31.5605 62.6387 31.5605C61.971 31.5605 61.4297 32.1053 61.4297 32.7773C61.4297 33.4493 61.971 33.9941 62.6387 33.9941Z" fill="white"/>
<path d="M37.1754 44.7922C38.1352 44.7922 38.9133 44.0091 38.9133 43.0431C38.9133 42.077 38.1352 41.2939 37.1754 41.2939C36.2156 41.2939 35.4375 42.077 35.4375 43.0431C35.4375 44.0091 36.2156 44.7922 37.1754 44.7922Z" fill="white"/>
<path d="M59.54 40.0771C60.5416 40.0771 61.3535 39.2599 61.3535 38.2519C61.3535 37.2439 60.5416 36.4268 59.54 36.4268C58.5385 36.4268 57.7266 37.2439 57.7266 38.2519C57.7266 39.2599 58.5385 40.0771 59.54 40.0771Z" fill="white"/>
<path d="M2.6439 34.2975C4.02102 34.2975 5.1374 33.1739 5.1374 31.7879C5.1374 30.4019 4.02102 29.2783 2.6439 29.2783C1.26677 29.2783 0.150391 30.4019 0.150391 31.7879C0.150391 33.1739 1.26677 34.2975 2.6439 34.2975Z" fill="white"/>
<path d="M5.96801 25.7807C6.55224 25.7807 7.02586 25.304 7.02586 24.716C7.02586 24.128 6.55224 23.6514 5.96801 23.6514C5.38377 23.6514 4.91016 24.128 4.91016 24.716C4.91016 25.304 5.38377 25.7807 5.96801 25.7807Z" fill="white"/>
<path d="M12.5422 21.0659C13.1265 21.0659 13.6001 20.5892 13.6001 20.0012C13.6001 19.4132 13.1265 18.9365 12.5422 18.9365C11.958 18.9365 11.4844 19.4132 11.4844 20.0012C11.4844 20.5892 11.958 21.0659 12.5422 21.0659Z" fill="white"/>
<path d="M39.6692 34.4497C40.2534 34.4497 40.727 33.973 40.727 33.385C40.727 32.797 40.2534 32.3203 39.6692 32.3203C39.0849 32.3203 38.6113 32.797 38.6113 33.385C38.6113 33.973 39.0849 34.4497 39.6692 34.4497Z" fill="white"/>
<path d="M26.2937 33.309C27.0448 33.309 27.6538 32.6962 27.6538 31.9402C27.6538 31.1842 27.0448 30.5713 26.2937 30.5713C25.5425 30.5713 24.9336 31.1842 24.9336 31.9402C24.9336 32.6962 25.5425 33.309 26.2937 33.309Z" fill="white"/>
<path d="M29.0149 30.1157C29.5991 30.1157 30.0727 29.639 30.0727 29.051C30.0727 28.463 29.5991 27.9863 29.0149 27.9863C28.4306 27.9863 27.957 28.463 27.957 29.051C27.957 29.639 28.4306 30.1157 29.0149 30.1157Z" fill="white"/>
<path d="M34.4543 22.8901C35.0386 22.8901 35.5122 22.4134 35.5122 21.8254C35.5122 21.2374 35.0386 20.7607 34.4543 20.7607C33.8701 20.7607 33.3965 21.2374 33.3965 21.8254C33.3965 22.4134 33.8701 22.8901 34.4543 22.8901Z" fill="white"/>
</svg>
