<svg width="64" height="64" viewBox="0 0 64 64" fill="none" xmlns="http://www.w3.org/2000/svg">
<path fill-rule="evenodd" clip-rule="evenodd" d="M36.646 24.7158C27.2009 24.7158 21.6094 27.6057 21.6094 32.3206C21.6849 36.2752 25.9919 36.8075 29.0899 36.8075C36.5704 36.8075 36.646 33.2332 36.646 33.0811C36.4949 32.0165 35.3614 31.8644 35.1348 33.0051C35.1348 33.0811 34.9081 35.3626 29.0899 35.3626C26.3697 35.3626 23.1206 34.8302 23.1206 32.3206C23.1206 28.5943 28.2587 26.2368 36.646 26.2368C47.6023 26.2368 54.6294 29.5069 54.6294 34.6021C54.6294 39.8494 46.4689 45.9333 31.3567 46.6938C30.2233 46.8459 30.2233 48.2147 31.4323 48.2147C47.6779 47.3782 56.1407 40.686 56.1407 34.6021C56.1407 28.5943 48.509 24.7158 36.646 24.7158Z" fill="#292D32"/>
<path fill-rule="evenodd" clip-rule="evenodd" d="M44.1289 33.0811C44.1289 29.3547 39.7464 28.5182 36.6484 28.5182C29.1679 28.5182 29.0923 32.1685 29.0923 32.3206C29.0923 33.3092 30.6036 33.3092 30.6036 32.3206C30.6036 32.3206 30.8302 30.0392 36.6484 30.0392C39.3686 30.0392 42.6177 30.7997 42.6177 33.0811C42.6177 36.8075 37.4796 39.0889 29.0923 39.0889C18.136 39.0889 11.1089 35.8188 11.1089 30.7997C11.1089 25.4763 19.2694 19.4685 34.3816 18.708C35.515 18.6319 35.4395 17.187 34.306 17.187C18.0605 18.0235 9.59766 24.6397 9.59766 30.7997C9.59766 36.7314 17.2293 40.6099 29.0923 40.6099C38.5374 40.6099 44.1289 37.7961 44.1289 33.0811Z" fill="#292D32"/>
<path d="M25.3156 50.3441C27.2353 50.3441 28.7914 48.7779 28.7914 46.8459C28.7914 44.9139 27.2353 43.3477 25.3156 43.3477C23.396 43.3477 21.8398 44.9139 21.8398 46.8459C21.8398 48.7779 23.396 50.3441 25.3156 50.3441Z" fill="#292D32"/>
<path d="M39.9719 20.9896C41.8915 20.9896 43.4477 19.4234 43.4477 17.4914C43.4477 15.5594 41.8915 13.9932 39.9719 13.9932C38.0523 13.9932 36.4961 15.5594 36.4961 17.4914C36.4961 19.4234 38.0523 20.9896 39.9719 20.9896Z" fill="#292D32"/>
<path d="M49.191 36.6554C50.1508 36.6554 50.9289 35.8723 50.9289 34.9063C50.9289 33.9403 50.1508 33.1572 49.191 33.1572C48.2312 33.1572 47.4531 33.9403 47.4531 34.9063C47.4531 35.8723 48.2312 36.6554 49.191 36.6554Z" fill="#292D32"/>
<path d="M59.3905 29.8869C60.6007 29.8869 61.5817 28.8995 61.5817 27.6815C61.5817 26.4635 60.6007 25.4761 59.3905 25.4761C58.1803 25.4761 57.1992 26.4635 57.1992 27.6815C57.1992 28.8995 58.1803 29.8869 59.3905 29.8869Z" fill="#292D32"/>
<path d="M53.1207 25.4762C54.0805 25.4762 54.8586 24.6931 54.8586 23.7271C54.8586 22.7611 54.0805 21.978 53.1207 21.978C52.1609 21.978 51.3828 22.7611 51.3828 23.7271C51.3828 24.6931 52.1609 25.4762 53.1207 25.4762Z" fill="#292D32"/>
<path d="M43.9016 41.5986C44.4858 41.5986 44.9595 41.1219 44.9595 40.5339C44.9595 39.9459 44.4858 39.4692 43.9016 39.4692C43.3174 39.4692 42.8438 39.9459 42.8438 40.5339C42.8438 41.1219 43.3174 41.5986 43.9016 41.5986Z" fill="#292D32"/>
<path d="M16.6239 33.3092C18.1679 33.3092 19.4196 32.0494 19.4196 30.4954C19.4196 28.9414 18.1679 27.6816 16.6239 27.6816C15.0798 27.6816 13.8281 28.9414 13.8281 30.4954C13.8281 32.0494 15.0798 33.3092 16.6239 33.3092Z" fill="#292D32"/>
<path d="M22.1402 26.3888C23.1001 26.3888 23.8781 25.6057 23.8781 24.6397C23.8781 23.6737 23.1001 22.8906 22.1402 22.8906C21.1804 22.8906 20.4023 23.6737 20.4023 24.6397C20.4023 25.6057 21.1804 26.3888 22.1402 26.3888Z" fill="#292D32"/>
<path d="M46.6985 31.4077C47.2827 31.4077 47.7563 30.931 47.7563 30.343C47.7563 29.755 47.2827 29.2783 46.6985 29.2783C46.1142 29.2783 45.6406 29.755 45.6406 30.343C45.6406 30.931 46.1142 31.4077 46.6985 31.4077Z" fill="#292D32"/>
<path d="M27.3547 23.6513C27.939 23.6513 28.4126 23.1747 28.4126 22.5866C28.4126 21.9986 27.939 21.522 27.3547 21.522C26.7705 21.522 26.2969 21.9986 26.2969 22.5866C26.2969 23.1747 26.7705 23.6513 27.3547 23.6513Z" fill="#292D32"/>
<path d="M19.1164 36.2753C19.7007 36.2753 20.1743 35.7987 20.1743 35.2107C20.1743 34.6227 19.7007 34.146 19.1164 34.146C18.5322 34.146 18.0586 34.6227 18.0586 35.2107C18.0586 35.7987 18.5322 36.2753 19.1164 36.2753Z" fill="#292D32"/>
<path d="M18.7414 47.9106C19.3257 47.9106 19.7993 47.4339 19.7993 46.8459C19.7993 46.2579 19.3257 45.7812 18.7414 45.7812C18.1572 45.7812 17.6836 46.2579 17.6836 46.8459C17.6836 47.4339 18.1572 47.9106 18.7414 47.9106Z" fill="#292D32"/>
<path d="M11.7887 45.7053C12.7485 45.7053 13.5266 44.9221 13.5266 43.9561C13.5266 42.9901 12.7485 42.207 11.7887 42.207C10.8289 42.207 10.0508 42.9901 10.0508 43.9561C10.0508 44.9221 10.8289 45.7053 11.7887 45.7053Z" fill="#292D32"/>
<path d="M46.5461 23.0424C47.1304 23.0424 47.604 22.5658 47.604 21.9778C47.604 21.3898 47.1304 20.9131 46.5461 20.9131C45.9619 20.9131 45.4883 21.3898 45.4883 21.9778C45.4883 22.5658 45.9619 23.0424 46.5461 23.0424Z" fill="#292D32"/>
<path d="M62.6426 33.9936C63.3103 33.9936 63.8515 33.4488 63.8515 32.7768C63.8515 32.1048 63.3103 31.5601 62.6426 31.5601C61.9749 31.5601 61.4336 32.1048 61.4336 32.7768C61.4336 33.4488 61.9749 33.9936 62.6426 33.9936Z" fill="#292D32"/>
<path d="M37.1754 44.7927C38.1352 44.7927 38.9133 44.0096 38.9133 43.0435C38.9133 42.0775 38.1352 41.2944 37.1754 41.2944C36.2156 41.2944 35.4375 42.0775 35.4375 43.0435C35.4375 44.0096 36.2156 44.7927 37.1754 44.7927Z" fill="#292D32"/>
<path d="M59.5439 40.0776C60.5455 40.0776 61.3574 39.2604 61.3574 38.2524C61.3574 37.2444 60.5455 36.4272 59.5439 36.4272C58.5424 36.4272 57.7305 37.2444 57.7305 38.2524C57.7305 39.2604 58.5424 40.0776 59.5439 40.0776Z" fill="#292D32"/>
<path d="M2.64585 34.2975C4.02298 34.2975 5.13936 33.1739 5.13936 31.7879C5.13936 30.4019 4.02298 29.2783 2.64585 29.2783C1.26872 29.2783 0.152344 30.4019 0.152344 31.7879C0.152344 33.1739 1.26872 34.2975 2.64585 34.2975Z" fill="#292D32"/>
<path d="M5.97191 25.7807C6.55615 25.7807 7.02976 25.304 7.02976 24.716C7.02976 24.128 6.55615 23.6514 5.97191 23.6514C5.38768 23.6514 4.91406 24.128 4.91406 24.716C4.91406 25.304 5.38768 25.7807 5.97191 25.7807Z" fill="#292D32"/>
<path d="M12.5422 21.0654C13.1265 21.0654 13.6001 20.5887 13.6001 20.0007C13.6001 19.4127 13.1265 18.936 12.5422 18.936C11.958 18.936 11.4844 19.4127 11.4844 20.0007C11.4844 20.5887 11.958 21.0654 12.5422 21.0654Z" fill="#292D32"/>
<path d="M39.6711 34.4502C40.2554 34.4502 40.729 33.9735 40.729 33.3855C40.729 32.7975 40.2554 32.3208 39.6711 32.3208C39.0869 32.3208 38.6133 32.7975 38.6133 33.3855C38.6133 33.9735 39.0869 34.4502 39.6711 34.4502Z" fill="#292D32"/>
<path d="M26.2976 33.3095C27.0488 33.3095 27.6577 32.6967 27.6577 31.9406C27.6577 31.1846 27.0488 30.5718 26.2976 30.5718C25.5464 30.5718 24.9375 31.1846 24.9375 31.9406C24.9375 32.6967 25.5464 33.3095 26.2976 33.3095Z" fill="#292D32"/>
<path d="M29.0149 30.1152C29.5991 30.1152 30.0727 29.6385 30.0727 29.0505C30.0727 28.4625 29.5991 27.9858 29.0149 27.9858C28.4306 27.9858 27.957 28.4625 27.957 29.0505C27.957 29.6385 28.4306 30.1152 29.0149 30.1152Z" fill="#292D32"/>
<path d="M34.4563 22.8906C35.0405 22.8906 35.5141 22.4139 35.5141 21.8259C35.5141 21.2379 35.0405 20.7612 34.4563 20.7612C33.8721 20.7612 33.3984 21.2379 33.3984 21.8259C33.3984 22.4139 33.8721 22.8906 34.4563 22.8906Z" fill="#292D32"/>
</svg>
