<svg width="64" height="65" viewBox="0 0 64 65" fill="none" xmlns="http://www.w3.org/2000/svg">
<path d="M12.7285 33.9075C12.7285 28.3072 17.0049 23.6337 22.5833 23.1379L25.8557 22.847C30.5693 22.428 35.3108 22.428 40.0244 22.847L43.2919 23.1374C48.8731 23.6336 53.1516 28.3093 53.1516 33.9125V35.0814C53.1516 39.1739 50.4624 42.78 46.5399 43.9472V43.9472C43.1417 44.9584 39.4623 44.1468 36.8049 41.7999L34.9004 40.1179C33.7814 39.1296 32.1009 39.132 30.9848 40.1235L29.1295 41.7717C26.4686 44.1355 22.7756 44.9578 19.3631 43.9463V43.9463C15.4279 42.7798 12.7285 39.1642 12.7285 35.0598V33.9075Z" stroke="#292D32" stroke-width="2"/>
<path d="M41.3351 37.7122C40.9785 37.7122 40.6895 37.4231 40.6895 37.0665C40.6895 36.71 40.9785 36.4209 41.3351 36.4209" stroke="#292D32" stroke-width="2"/>
<path d="M41.334 37.7122C41.6906 37.7122 41.9796 37.4231 41.9796 37.0665C41.9796 36.71 41.6906 36.4209 41.334 36.4209" stroke="#292D32" stroke-width="2"/>
<path d="M24.548 37.7126C24.1914 37.7126 23.9023 37.4236 23.9023 37.067C23.9023 36.7104 24.1914 36.4214 24.548 36.4214" stroke="#292D32" stroke-width="2"/>
<path d="M24.5469 37.7122C24.9034 37.7122 25.1925 37.4231 25.1925 37.0665C25.1925 36.71 24.9034 36.4209 24.5469 36.4209" stroke="#292D32" stroke-width="2"/>
<path d="M20.0273 31.9017C20.673 31.2561 22.4807 29.9648 24.5468 29.9648C26.6128 29.9648 28.6357 31.2561 29.0662 31.9017" stroke="#292D32" stroke-width="2" stroke-linecap="round"/>
<path d="M45.8516 31.9017C45.2059 31.2561 43.3982 29.9648 41.3322 29.9648C39.2661 29.9648 37.2432 31.2561 36.8127 31.9017" stroke="#292D32" stroke-width="2" stroke-linecap="round"/>
<path d="M27.7754 51.4253C28.2058 51.8557 29.8414 52.7166 32.9404 52.7166C36.0395 52.7166 37.675 51.8557 38.1055 51.4253" stroke="#292D32" stroke-width="2" stroke-linecap="round"/>
<path d="M13.9082 28.9998L13.7321 29.088C10.6477 30.549 6.53293 29.3555 5.44666 26.5586C8.87143 25.674 10.6557 23.8047 12.6949 21.0009C8.14944 21.3255 5.38543 16.5525 4.70898 14.7263C11.8112 14.7263 14.6521 4.37725 29.0594 1.73936C40.5853 -0.370945 45.3608 8.57101 46.3078 13.3058C48.6752 12.4941 53.8159 12.2912 55.4393 17.973C57.4685 25.0752 55.2363 30.1482 59.2948 30.1482C58.4831 31.2305 56.2104 32.9891 53.613 31.3658C53.3826 31.2277 52.8569 30.8543 52.5973 30.4648" stroke="#292D32" stroke-width="2" stroke-linecap="round" stroke-linejoin="round"/>
<path d="M39.3125 22.7865C39.25 22.6698 39.0577 22.3743 38.9694 22.2412C37.1794 19.6456 31.8004 16.1461 24.6045 22.9124L24.5469 22.9687" stroke="#292D32" stroke-width="2" stroke-linecap="round" stroke-linejoin="round"/>
<path d="M46.2194 13.2466L43.1315 16.0659L44.4742 19.2879L40.5809 22.1072L39.5781 22.8117" stroke="#292D32" stroke-width="2" stroke-linecap="round" stroke-linejoin="round"/>
<path d="M15.9902 42.1094L16.154 42.8777C18.0191 51.6178 20.0278 63.047 32.9404 63.047C45.853 63.047 47.8616 51.6178 49.7267 42.8777L49.8905 42.1094" stroke="#292D32" stroke-width="2" stroke-linecap="round"/>
<path d="M22.9336 59.458V62.9711" stroke="#292D32" stroke-width="2" stroke-linecap="round"/>
<path d="M17.3463 48.2485H15.2137C9.65223 48.2485 6.38795 38.0725 12.6303 36.5119L12.8294 36.4741" stroke="#292D32" stroke-width="2" stroke-linecap="round"/>
<path d="M48.5345 48.2485H50.6672C56.2286 48.2485 59.4929 38.0725 53.2505 36.5119L53.0514 36.4741" stroke="#292D32" stroke-width="2" stroke-linecap="round"/>
<path d="M42.9492 59.4585V62.9716" stroke="#292D32" stroke-width="2" stroke-linecap="round"/>
</svg>
