<svg width="24" height="24" viewBox="0 0 24 24" fill="none" xmlns="http://www.w3.org/2000/svg">
<path d="M23.0304 0.96653C22.3087 0.244692 21.1135 0.184343 19.4783 0.786815C18.2348 1.24499 16.7177 2.09553 15.0728 3.25492C11.9584 2.22431 8.38625 2.94513 5.91268 5.41856C3.43916 7.89209 2.71834 11.4643 3.74899 14.5787C2.30643 16.6255 -0.299972 20.7758 1.46065 22.5363C2.84433 23.92 5.63333 22.5784 7.33752 21.5905C8.00571 21.2031 8.70302 20.7526 9.41881 20.2481C12.5589 21.2871 16.1228 20.5399 18.5784 18.0843C21.0518 15.6109 21.7727 12.039 20.7422 8.9247C21.2467 8.2089 21.6972 7.5116 22.0846 6.8434C23.746 3.9776 24.0642 2.00034 23.0304 0.96653ZM6.54142 20.2172C4.14726 21.6052 2.86242 21.6933 2.58311 21.414C2.4126 21.2434 2.35931 20.6485 2.77043 19.533C3.11079 18.6093 3.70718 17.4973 4.51434 16.2735C5.28813 17.5971 6.39908 18.7085 7.72454 19.4833C7.32103 19.7489 6.92591 19.9944 6.54142 20.2172ZM9.18906 18.4563C4.51327 16.3308 3.41147 10.1646 7.03506 6.54094C10.659 2.91709 16.8251 4.01951 18.9504 8.69494C17.6961 10.3857 16.1435 12.1706 14.4041 13.91C12.6648 15.6493 10.8798 17.2019 9.18906 18.4563ZM17.456 16.9619C15.7179 18.6999 13.3206 19.3861 11.0615 19.0213C12.5329 17.8619 14.0481 16.5108 15.5265 15.0324C17.0048 13.554 18.356 12.0387 19.5155 10.5674C19.8803 12.8265 19.1941 15.2238 17.456 16.9619ZM20.7114 6.04735C20.4884 6.43184 20.243 6.82695 19.9774 7.23034C19.2036 5.90656 18.093 4.79503 16.7676 4.02017C17.9914 3.21306 19.1034 2.61663 20.0271 2.27622C21.1425 1.86515 21.7374 1.91839 21.908 2.0889C22.1875 2.36834 22.0994 3.6531 20.7114 6.04735Z" fill="#333338"/>
</svg>
