<svg width="23" height="23" viewBox="0 0 23 23" fill="none" xmlns="http://www.w3.org/2000/svg">
<path fill-rule="evenodd" clip-rule="evenodd" d="M12.918 5.3457C12.918 4.93149 13.2538 4.5957 13.668 4.5957H20.5688C20.983 4.5957 21.3188 4.93149 21.3188 5.3457C21.3188 5.75992 20.983 6.0957 20.5688 6.0957H13.668C13.2538 6.0957 12.918 5.75992 12.918 5.3457Z" fill="#292D32"/>
<path fill-rule="evenodd" clip-rule="evenodd" d="M1.42969 5.3457C1.42969 4.93149 1.76547 4.5957 2.17969 4.5957H9.08052C9.49473 4.5957 9.83052 4.93149 9.83052 5.3457C9.83052 5.75992 9.49473 6.0957 9.08052 6.0957H2.17969C1.76547 6.0957 1.42969 5.75992 1.42969 5.3457Z" fill="#292D32"/>
<path fill-rule="evenodd" clip-rule="evenodd" d="M12.918 14.5312C12.918 14.117 13.2538 13.7812 13.668 13.7812H20.5688C20.983 13.7812 21.3188 14.117 21.3188 14.5312C21.3188 14.9455 20.983 15.2812 20.5688 15.2812H13.668C13.2538 15.2812 12.918 14.9455 12.918 14.5312Z" fill="#292D32"/>
<path fill-rule="evenodd" clip-rule="evenodd" d="M12.918 20.2754C12.918 19.8612 13.2538 19.5254 13.668 19.5254H20.5688C20.983 19.5254 21.3188 19.8612 21.3188 20.2754C21.3188 20.6896 20.983 21.0254 20.5688 21.0254H13.668C13.2538 21.0254 12.918 20.6896 12.918 20.2754Z" fill="#292D32"/>
<path fill-rule="evenodd" clip-rule="evenodd" d="M17.1484 1.14551C17.5627 1.14551 17.8984 1.48129 17.8984 1.89551V8.78686C17.8984 9.20108 17.5627 9.53686 17.1484 9.53686C16.7342 9.53686 16.3984 9.20108 16.3984 8.78686V1.89551C16.3984 1.48129 16.7342 1.14551 17.1484 1.14551Z" fill="#292D32"/>
<path fill-rule="evenodd" clip-rule="evenodd" d="M9.61122 13.4329C9.90391 13.726 9.90358 14.2009 9.61049 14.4936L2.70965 21.3849C2.41656 21.6776 1.94168 21.6773 1.64899 21.3842C1.3563 21.0911 1.35663 20.6162 1.64972 20.3236L8.55056 13.4322C8.84365 13.1395 9.31852 13.1398 9.61122 13.4329Z" fill="#292D32"/>
<path fill-rule="evenodd" clip-rule="evenodd" d="M1.64899 13.4329C1.94168 13.1398 2.41656 13.1395 2.70965 13.4322L9.61049 20.3236C9.90358 20.6162 9.90391 21.0911 9.61122 21.3842C9.31852 21.6773 8.84365 21.6776 8.55056 21.3849L1.64972 14.4936C1.35663 14.2009 1.3563 13.726 1.64899 13.4329Z" fill="#292D32"/>
</svg>
