<svg width="47" height="42" viewBox="0 0 47 42" fill="none" xmlns="http://www.w3.org/2000/svg">
<path d="M45.5014 30.4382L46.3613 30.9486L45.5014 30.4382ZM21.1927 26.7991L21.6824 25.9271L21.1927 26.7991ZM5.79839 8.14105L6.65832 8.65146L5.79839 8.14105ZM16.7531 10.5486L15.7813 10.3129C15.7143 10.5892 15.7681 10.881 15.9292 11.1153L16.7531 10.5486ZM18.1233 7.19573L17.2634 6.68532L18.1233 7.19573ZM35.5193 2.66165L35.0296 3.53357L35.5193 2.66165ZM40.1805 19.583L41.0405 20.0935L40.1805 19.583ZM37.8805 22.4137L37.8163 23.4117C38.088 23.4292 38.3551 23.3351 38.5559 23.1512L37.8805 22.4137ZM25.9683 18.7533L26.4579 17.8813L25.9683 18.7533ZM18.3344 6.85284L19.1775 7.39057L18.3344 6.85284ZM7.40809 15.3389L8.22651 14.7643L7.40809 15.3389ZM35.3192 40.7666C35.1903 41.3036 35.5211 41.8435 36.0582 41.9724C36.5952 42.1013 37.135 41.7704 37.2639 41.2334L35.3192 40.7666ZM0.326326 20.4413C-0.0818285 20.8133 -0.111088 21.4458 0.260972 21.854C0.633032 22.2621 1.26552 22.2914 1.67367 21.9193L0.326326 20.4413ZM18.4226 29.507C18.1407 29.9819 18.2972 30.5954 18.7721 30.8773C19.247 31.1592 19.8606 31.0027 20.1424 30.5278L18.4226 29.507ZM17.725 10.7844C17.9803 9.73162 18.3963 8.69505 18.9833 7.70614L17.2634 6.68532C16.5744 7.8461 16.0833 9.06793 15.7813 10.3129L17.725 10.7844ZM39.3206 19.0726C38.7336 20.0616 38.0177 20.9321 37.2051 21.6763L38.5559 23.1512C39.5104 22.277 40.3515 21.2542 41.0405 20.0935L39.3206 19.0726ZM37.9447 21.4158C34.2644 21.1791 30.2667 20.0203 26.4579 17.8813L25.4786 19.6252C29.5332 21.9022 33.82 23.1547 37.8163 23.4117L37.9447 21.4158ZM26.4579 17.8813C22.649 15.7423 19.6228 12.9564 17.5771 9.98196L15.9292 11.1153C18.1614 14.3608 21.4241 17.3482 25.4786 19.6252L26.4579 17.8813ZM35.0296 3.53357C40.5331 6.6243 42.4675 13.3725 39.5044 18.7513L41.2562 19.7164C44.7606 13.355 42.4493 5.40664 36.009 1.78974L35.0296 3.53357ZM39.5044 18.7513C39.4451 18.859 39.3839 18.9661 39.3206 19.0726L41.0405 20.0935C41.1147 19.9685 41.1866 19.8427 41.2562 19.7164L39.5044 18.7513ZM39.6883 19.9557C41.9001 22.0759 43.4747 24.1282 44.3118 25.9106C45.1592 27.7149 45.1675 29.0416 44.6414 29.9278L46.3613 30.9486C47.3812 29.2304 47.0909 27.1231 46.1221 25.0604C45.1432 22.9759 43.3843 20.7282 41.0723 18.5119L39.6883 19.9557ZM18.9833 7.70614C19.0465 7.59955 19.1113 7.49436 19.1775 7.39057L17.4912 6.31511C17.4135 6.43692 17.3376 6.56033 17.2634 6.68532L18.9833 7.70614ZM19.1775 7.39057C22.4964 2.18684 29.5119 0.434791 35.0296 3.53357L36.009 1.78974C29.5829 -1.81911 21.391 0.200562 17.4912 6.31511L19.1775 7.39057ZM6.65832 8.65146C7.19052 7.75481 8.39676 7.08977 10.4424 6.89999C12.4587 6.71294 15.0801 7.01515 18.0752 7.81869L18.5935 5.887C15.4658 5.04791 12.5923 4.69196 10.2577 4.90854C7.95251 5.12239 5.95215 5.92276 4.93845 7.63065L6.65832 8.65146ZM21.6824 25.9271C15.528 22.4708 10.7429 18.3483 8.22651 14.7643L6.58968 15.9135C9.33236 19.8198 14.3851 24.1228 20.7031 27.671L21.6824 25.9271ZM8.22651 14.7643C7.27401 13.4077 6.67843 12.1731 6.43133 11.1179C6.18637 10.0718 6.29483 9.26387 6.65832 8.65146L4.93845 7.63065C4.2405 8.80656 4.15711 10.1779 4.48401 11.5739C4.80877 12.9607 5.54876 14.431 6.58968 15.9135L8.22651 14.7643ZM44.6414 29.9278C44.2756 30.5442 43.6004 31.0485 42.5306 31.37C41.4559 31.693 40.0496 31.8082 38.3617 31.6838L38.2147 33.6784C40.0512 33.8137 41.7208 33.7017 43.1062 33.2854C44.4966 32.8675 45.6657 32.1206 46.3613 30.9486L44.6414 29.9278ZM38.3617 31.6838C33.9026 31.3553 27.8356 29.3828 21.6824 25.9271L20.7031 27.671C27.0222 31.2198 33.3755 33.3219 38.2147 33.6784L38.3617 31.6838ZM37.3158 32.4477L35.3192 40.7666L37.2639 41.2334L39.2606 32.9145L37.3158 32.4477ZM6.73442 14.5999L0.326326 20.4413L1.67367 21.9193L8.08177 16.0779L6.73442 14.5999ZM20.3328 26.2886L18.4226 29.507L20.1424 30.5278L22.0527 27.3095L20.3328 26.2886Z" fill="black"/>
</svg>
