<svg width="60" height="60" viewBox="0 0 60 60" fill="none" xmlns="http://www.w3.org/2000/svg">
<path d="M20 22.5V17.5C20 11.9772 24.4772 7.5 30 7.5H31.25C36.0825 7.5 40 11.4175 40 16.25M22.5 52.5H37.5C42.1594 52.5 44.4891 52.5 46.3268 51.7388C48.7771 50.7239 50.7239 48.7771 51.7388 46.3268C52.5 44.4891 52.5 42.1594 52.5 37.5C52.5 32.8406 52.5 30.5109 51.7388 28.6732C50.7239 26.2229 48.7771 24.2761 46.3268 23.2612C44.4891 22.5 42.1594 22.5 37.5 22.5H22.5C17.8406 22.5 15.5109 22.5 13.6732 23.2612C11.2229 24.2761 9.27614 26.2229 8.2612 28.6732C7.5 30.5109 7.5 32.8406 7.5 37.5C7.5 42.1594 7.5 44.4891 8.2612 46.3268C9.27614 48.7771 11.2229 50.7239 13.6732 51.7388C15.5109 52.5 17.8406 52.5 22.5 52.5ZM35 37.5C35 40.2614 32.7614 42.5 30 42.5C27.2386 42.5 25 40.2614 25 37.5C25 34.7386 27.2386 32.5 30 32.5C32.7614 32.5 35 34.7386 35 37.5Z" stroke="black" stroke-width="2" stroke-linecap="round"/>
</svg>
