<svg width="22" height="24" viewBox="0 0 22 24" fill="none" xmlns="http://www.w3.org/2000/svg">
<path d="M20.7951 6.08637C19.7674 4.3061 16.8081 4.62242 14.8133 5.12178C14.2514 3.13732 13.0452 0.375977 10.9814 0.375977C8.91767 0.375977 7.71147 3.13714 7.14949 5.12178C5.15552 4.62264 2.19563 4.30588 1.16772 6.08637C0.13909 7.86797 1.89594 10.2746 3.32642 11.7523C1.89362 13.2324 0.139712 15.6377 1.16772 17.4183C2.19536 19.1983 5.14566 18.8845 7.14954 18.3829C7.71142 20.3674 8.91767 23.1287 10.9814 23.1287C13.0435 23.1287 14.2502 20.3718 14.8133 18.3829C16.8176 18.8846 19.7676 19.1981 20.7951 17.4183C21.8237 15.6367 20.0669 13.2301 18.6364 11.7523C20.0692 10.2722 21.8231 7.8669 20.7951 6.08637ZM19.6405 6.75295C20.2681 7.83988 18.5547 9.92028 17.6749 10.8295C17.0261 10.2483 16.3055 9.67667 15.5289 9.12732C15.4418 8.18037 15.3077 7.27017 15.1296 6.41646C16.3748 6.10481 19.0166 5.67224 19.6405 6.75295ZM10.9814 15.5274C9.87982 14.9876 8.76725 14.3487 7.71196 13.6397C7.67014 13.0235 7.6485 12.3926 7.6485 11.7523C7.6485 11.1121 7.67014 10.4811 7.71196 9.86496C8.73018 9.18082 9.83973 8.53673 10.9814 7.97733C12.083 8.51708 13.1956 9.15594 14.2509 9.86496C14.2927 10.4811 14.3143 11.1121 14.3143 11.7523C14.3143 12.3926 14.2927 13.0235 14.2509 13.6397C13.2326 14.3239 12.123 14.968 10.9814 15.5274ZM14.079 15.3361C14.0144 15.8095 13.9368 16.2692 13.8468 16.7124C13.4177 16.5693 12.9803 16.4069 12.5373 16.2262C13.0623 15.9439 13.5623 15.6556 14.079 15.3361ZM9.42552 16.2262C8.98251 16.4069 8.54505 16.5693 8.11599 16.7124C8.02596 16.2693 7.94842 15.8095 7.8838 15.3361C8.38947 15.6488 8.88936 15.9379 9.42552 16.2262ZM6.32889 12.6418C5.95156 12.349 5.59276 12.0518 5.25484 11.7523C5.59276 11.4528 5.95156 11.1556 6.32889 10.8628C6.32004 11.1573 6.31533 11.4539 6.31533 11.7523C6.31533 12.0507 6.32004 12.3473 6.32889 12.6418ZM7.8838 8.16855C7.94842 7.69519 8.02596 7.23542 8.11599 6.79228C8.54505 6.93533 8.98251 7.09771 9.42552 7.2784C8.90723 7.55716 8.40676 7.84521 7.8838 8.16855ZM12.5373 7.2784C12.9803 7.09775 13.4178 6.93533 13.8468 6.79228C13.9369 7.23538 14.0144 7.69514 14.079 8.16855C13.5794 7.85961 13.0799 7.57023 12.5373 7.2784ZM15.6339 10.8628C16.0113 11.1556 16.3701 11.4528 16.708 11.7523C16.3701 12.0518 16.0113 12.349 15.6339 12.6419C15.6428 12.3473 15.6475 12.0507 15.6475 11.7523C15.6475 11.4539 15.6428 11.1573 15.6339 10.8628ZM10.9814 1.70914C12.2409 1.70914 13.1894 4.2786 13.5332 5.49275C12.704 5.76432 11.8471 6.10308 10.9814 6.50178C10.1157 6.10308 9.25874 5.76432 8.4296 5.49275C8.77227 4.28246 9.7209 1.70914 10.9814 1.70914ZM2.32224 6.75295C2.94647 5.67175 5.57272 6.10094 6.83322 6.41646C6.65516 7.27017 6.521 8.18037 6.43394 9.12732C5.65728 9.67667 4.93675 10.2483 4.28794 10.8295C3.40917 9.9214 1.69454 7.84024 2.32224 6.75295ZM2.32224 16.7517C1.69476 15.6648 3.4081 13.5843 4.28794 12.6752C4.93675 13.2564 5.65728 13.828 6.43394 14.3773C6.521 15.3243 6.65516 16.2345 6.83322 17.0882C5.60956 17.3945 2.95002 17.839 2.32224 16.7517ZM10.9814 21.7955C9.72197 21.7955 8.77338 19.226 8.4296 18.0119C9.25878 17.7403 10.1157 17.4016 10.9814 17.0029C11.8471 17.4016 12.704 17.7403 13.5332 18.0119C13.1906 19.2221 12.2419 21.7955 10.9814 21.7955ZM19.6405 16.7517C19.0128 17.839 16.353 17.3944 15.1296 17.0882C15.3077 16.2345 15.4418 15.3243 15.5289 14.3773C16.3055 13.828 17.0261 13.2563 17.6749 12.6752C18.5537 13.5832 20.2683 15.6644 19.6405 16.7517Z" fill="#333338"/>
</svg>
