<svg width="34" height="44" viewBox="0 0 34 44" fill="none" xmlns="http://www.w3.org/2000/svg">
<path d="M33.7362 37.5385C33.6403 37.2692 33.5827 36.9808 33.4484 36.7308L23.9698 18.5V1.96154C23.9698 1.44231 23.7588 0.942308 23.3942 0.576923C23.0296 0.211539 22.5308 0 22.0127 0H12.0161C11.498 0 10.9992 0.211539 10.6346 0.576923C10.27 0.942308 10.059 1.44231 10.059 1.96154V18.5192L0.561241 36.7308C0.158307 37.4808 -0.0335667 38.3269 0.004808 39.1923C0.0239954 40.0385 0.273431 40.8846 0.71474 41.6154C1.15605 42.3462 1.78923 42.9423 2.51835 43.3654C3.24747 43.7885 4.09171 44 4.95515 44H29.0545C29.8987 44 30.743 43.7885 31.4721 43.3654C32.2204 42.9423 32.8344 42.3462 33.2757 41.6154C33.4676 41.2885 33.6211 40.9423 33.7362 40.5962C33.8897 40.1539 33.9856 39.6923 34.0048 39.2115C34.0048 38.6538 33.9089 38.0962 33.7362 37.5577V37.5385ZM13.5127 20.3269C13.8005 19.7692 13.954 19.1346 13.954 18.5V4.38462C13.954 4.13462 14.1651 3.92308 14.4145 3.92308H19.5759C19.8253 3.92308 20.0364 4.13462 20.0364 4.38462C20.0364 4.38462 20.0364 18.9231 20.094 19.1346L11.594 24.0577L13.5127 20.3462V20.3269ZM4.07253 39.5577C3.97659 39.4038 3.93822 39.2308 3.91903 39.0577C3.91903 38.8846 3.9574 38.6923 4.03415 38.5385L8.27456 30.4038C8.44725 30.3654 8.61993 30.2885 8.79262 30.1923L21.7249 22.7115L29.9563 38.5385C30.033 38.6923 30.0714 38.8846 30.0714 39.0577C30.0714 39.2308 30.0138 39.4038 29.9179 39.5577C29.822 39.7115 29.6877 39.8462 29.5342 39.9231C29.3807 40 29.208 40.0577 29.0161 40.0577H4.97433C4.80165 40.0577 4.62896 40.0192 4.47546 39.9231C4.32196 39.8269 4.18765 39.7115 4.09172 39.5577H4.07253Z" fill="#2D7FA5"/>
</svg>
