<svg width="42" height="47" viewBox="0 0 42 47" fill="none" xmlns="http://www.w3.org/2000/svg">
<path d="M40.5902 12.1737C38.5347 8.61318 32.6163 9.24581 28.6267 10.2445C27.5028 6.27561 25.0904 0.75293 20.9628 0.75293C16.8353 0.75293 14.4229 6.27526 13.299 10.2445C9.31105 9.24626 3.39126 8.61274 1.33543 12.1737C-0.72182 15.7369 2.79187 20.5501 5.65284 23.5056C2.78725 26.4659 -0.720576 31.2765 1.33543 34.8375C3.39073 38.3975 9.29132 37.7699 13.2991 36.7667C14.4228 40.7357 16.8353 46.2583 20.9628 46.2583C25.087 46.2583 27.5003 40.7445 28.6267 36.7667C32.6352 37.7701 38.5352 38.3972 40.5902 34.8375C42.6475 31.2743 39.1339 26.4612 36.2728 23.5056C39.1385 20.5454 42.6462 15.7348 40.5902 12.1737ZM38.2811 13.5069C39.5361 15.6807 36.1094 19.8415 34.3498 21.6599C33.0521 20.4976 31.6111 19.3543 30.0578 18.2556C29.8837 16.3617 29.6153 14.5413 29.2592 12.8339C31.7496 12.2106 37.0332 11.3455 38.2811 13.5069ZM20.9628 31.0557C18.7596 29.9762 16.5345 28.6985 14.4239 27.2804C14.3403 26.048 14.297 24.7861 14.297 23.5056C14.297 22.2252 14.3403 20.9632 14.4239 19.7309C16.4604 18.3626 18.6795 17.0744 20.9628 15.9556C23.166 17.0351 25.3912 18.3128 27.5017 19.7309C27.5854 20.9632 27.6287 22.2252 27.6287 23.5056C27.6287 24.7861 27.5854 26.048 27.5017 27.2804C25.4652 28.6487 23.2461 29.9369 20.9628 31.0557ZM27.158 30.6732C27.0287 31.6199 26.8735 32.5394 26.6936 33.4257C25.8355 33.1396 24.9605 32.8148 24.0745 32.4535C25.1245 31.8888 26.1246 31.3122 27.158 30.6732ZM17.851 32.4535C16.965 32.8148 16.0901 33.1396 15.232 33.4257C15.0519 32.5395 14.8968 31.62 14.7676 30.6732C15.7789 31.2985 16.7787 31.8768 17.851 32.4535ZM11.6578 25.2846C10.9031 24.699 10.1855 24.1047 9.50969 23.5056C10.1855 22.9066 10.9031 22.3123 11.6578 21.7266C11.6401 22.3156 11.6307 22.9088 11.6307 23.5056C11.6307 24.1024 11.6401 24.6956 11.6578 25.2846ZM14.7676 16.3381C14.8968 15.3913 15.0519 14.4718 15.232 13.5855C16.0901 13.8716 16.965 14.1964 17.851 14.5578C16.8145 15.1153 15.8135 15.6914 14.7676 16.3381ZM24.0746 14.5578C24.9606 14.1965 25.8355 13.8716 26.6937 13.5855C26.8737 14.4717 27.0288 15.3913 27.158 16.3381C26.1588 15.7202 25.1599 15.1414 24.0746 14.5578ZM30.2679 21.7266C31.0225 22.3123 31.7401 22.9065 32.416 23.5056C31.7401 24.1047 31.0225 24.699 30.2679 25.2847C30.2856 24.6956 30.295 24.1024 30.295 23.5056C30.295 22.9088 30.2856 22.3156 30.2679 21.7266ZM20.9628 3.41926C23.4817 3.41926 25.3789 8.55817 26.0664 10.9865C24.4081 11.5296 22.6943 12.2071 20.9628 13.0045C19.2314 12.2071 17.5175 11.5296 15.8592 10.9865C16.5445 8.5659 18.4418 3.41926 20.9628 3.41926ZM3.64447 13.5069C4.89294 11.3445 10.1454 12.2029 12.6664 12.8339C12.3103 14.5413 12.042 16.3617 11.8679 18.2556C10.3146 19.3543 8.8735 20.4976 7.57589 21.6599C5.81833 19.8438 2.38908 15.6814 3.64447 13.5069ZM3.64447 33.5044C2.38952 31.3305 5.8162 27.1696 7.57589 25.3513C8.8735 26.5137 10.3146 27.6569 11.8679 28.7556C12.042 30.6495 12.3103 32.4699 12.6664 34.1773C10.2191 34.7899 4.90005 35.6789 3.64447 33.5044ZM20.9628 43.592C18.4439 43.592 16.5468 38.4531 15.8592 36.0247C17.5176 35.4816 19.2314 34.8041 20.9628 34.0067C22.6943 34.8041 24.4081 35.4816 26.0664 36.0247C25.3811 38.4452 23.4838 43.592 20.9628 43.592ZM38.2811 33.5044C37.0256 35.6789 31.7061 34.7898 29.2592 34.1773C29.6153 32.4699 29.8837 30.6495 30.0578 28.7556C31.6111 27.6569 33.0521 26.5136 34.3498 25.3513C36.1073 27.1675 39.5366 31.3298 38.2811 33.5044Z" fill="#9E8FCB"/>
<path d="M20.9643 19.5059C18.759 19.5059 16.9648 21.3 16.9648 23.5054C16.9648 25.7107 18.759 27.5049 20.9643 27.5049C23.1697 27.5049 24.9638 25.7107 24.9638 23.5054C24.9638 21.3 23.1698 19.5059 20.9643 19.5059ZM20.9643 24.8385C20.2292 24.8385 19.6312 24.2405 19.6312 23.5054C19.6312 22.7702 20.2292 22.1722 20.9643 22.1722C21.6994 22.1722 22.2975 22.7702 22.2975 23.5054C22.2975 24.2405 21.6994 24.8385 20.9643 24.8385Z" fill="#9E8FCB"/>
</svg>
