<svg width="47" height="47" viewBox="0 0 47 47" fill="none" xmlns="http://www.w3.org/2000/svg">
<path d="M45.0609 1.93404C43.6173 0.490361 41.227 0.369662 37.9566 1.57461C35.4696 2.49096 32.4354 4.19203 29.1455 6.51081C22.9168 4.4496 15.7725 5.89123 10.8254 10.8381C5.87832 15.7852 4.43669 22.9295 6.49799 29.1584C3.61286 33.2519 -1.59994 41.5527 1.9213 45.0736C4.68866 47.841 10.2667 45.1578 13.675 43.1819C15.0114 42.4072 16.406 41.5061 17.8376 40.4972C24.1179 42.5751 31.2456 41.0807 36.1568 36.1696C41.1036 31.2228 42.5454 24.079 40.4845 17.8504C41.4934 16.4188 42.3944 15.0242 43.1692 13.6878C46.492 7.95618 47.1284 4.00165 45.0609 1.93404ZM12.0828 40.4355C7.29453 43.2114 4.72483 43.3876 4.16622 42.8289C3.82519 42.4879 3.71863 41.2979 4.54085 39.067C5.22158 37.2196 6.41435 34.9956 8.02868 32.548C9.57625 35.1952 11.7982 37.4181 14.4491 38.9676C13.6421 39.4987 12.8518 39.9897 12.0828 40.4355ZM17.3781 36.9135C8.02654 32.6626 5.82294 20.3302 13.0701 13.0829C20.3179 5.83515 32.6503 8.03999 36.9008 17.3909C34.3923 20.7723 31.287 24.3422 27.8083 27.821C24.3296 31.2997 20.7596 34.4049 17.3781 36.9135ZM33.9121 33.9248C30.4359 37.4008 25.6412 38.7732 21.123 38.0436C24.0657 35.7248 27.0962 33.0225 30.0529 30.0658C33.0097 27.109 35.7121 24.0784 38.031 21.1357C38.7607 25.6539 37.3883 30.4486 33.9121 33.9248ZM40.4227 12.0957C39.9769 12.8647 39.486 13.6549 38.9548 14.4616C37.4073 11.8141 35.1859 9.59103 32.5352 8.04133C34.9828 6.42709 37.2068 5.23423 39.0541 4.55341C41.2849 3.73128 42.4749 3.83775 42.8161 4.17879C43.375 4.73766 43.1988 7.30718 40.4227 12.0957Z" fill="#023047"/>
</svg>
