<svg width="47" height="47" viewBox="0 0 47 47" fill="none" xmlns="http://www.w3.org/2000/svg">
<g clip-path="url(#clip0_3326_8196)">
<path d="M27.6711 29.1049C27.3071 29.1049 26.9432 28.9661 26.6656 28.6883L18.3111 20.3338C17.7557 19.7785 17.7557 18.8781 18.3111 18.3228C18.8664 17.7674 19.7668 17.7674 20.3221 18.3228L28.6766 26.6773C29.232 27.2326 29.232 28.133 28.6766 28.6883C28.3989 28.9661 28.035 29.1049 27.6711 29.1049Z" fill="#786349"/>
<path d="M13.5396 34.8816C13.1692 34.8816 12.8056 34.737 12.5337 34.4651C12.1316 34.0628 12.0077 33.4596 12.2189 32.9314L17.9071 18.711C18.0516 18.3497 18.338 18.0633 18.6993 17.9188L32.9197 12.2306C33.448 12.0194 34.0511 12.1433 34.4534 12.5454C34.8555 12.9477 34.9794 13.5509 34.7682 14.0791L29.08 28.2995C28.9355 28.6608 28.6491 28.9472 28.2878 29.0917L14.0674 34.7799C13.8962 34.8484 13.7171 34.8816 13.5396 34.8816ZM20.3215 20.3332L16.0919 30.9069L26.6657 26.6774L30.8952 16.1037L20.3215 20.3332Z" fill="#786349"/>
<path d="M23.4949 46.2583C17.4174 46.2583 11.7037 43.8917 7.40624 39.5942C3.10873 35.2968 0.742188 29.5831 0.742188 23.5056C0.742188 17.4282 3.10882 11.7145 7.40624 7.41698C11.7037 3.11948 17.4174 0.75293 23.4949 0.75293C29.5723 0.75293 35.286 3.11956 39.5835 7.41698C43.881 11.7144 46.2476 17.4282 46.2476 23.5056C46.2476 29.5831 43.8809 35.2967 39.5835 39.5942C35.2861 43.8918 29.5723 46.2583 23.4949 46.2583ZM23.4949 3.59702C12.5172 3.59702 3.58627 12.528 3.58627 23.5056C3.58627 34.4833 12.5172 43.4142 23.4949 43.4142C34.4725 43.4142 43.4035 34.4833 43.4035 23.5056C43.4035 12.528 34.4725 3.59702 23.4949 3.59702Z" fill="#786349"/>
</g>
<defs>
<clipPath id="clip0_3326_8196">
<rect width="45.5054" height="45.5054" fill="white" transform="translate(0.742188 0.75293)"/>
</clipPath>
</defs>
</svg>
