<svg width="46" height="46" viewBox="0 0 46 46" fill="none" xmlns="http://www.w3.org/2000/svg">
<path fill-rule="evenodd" clip-rule="evenodd" d="M25.8359 10.6914C25.8359 9.86298 26.5075 9.19141 27.3359 9.19141H41.1376C41.966 9.19141 42.6376 9.86298 42.6376 10.6914C42.6376 11.5198 41.966 12.1914 41.1376 12.1914H27.3359C26.5075 12.1914 25.8359 11.5198 25.8359 10.6914Z" fill="#E76F51"/>
<path fill-rule="evenodd" clip-rule="evenodd" d="M2.85938 10.6914C2.85938 9.86298 3.53095 9.19141 4.35938 9.19141H18.161C18.9895 9.19141 19.661 9.86298 19.661 10.6914C19.661 11.5198 18.9895 12.1914 18.161 12.1914H4.35938C3.53095 12.1914 2.85938 11.5198 2.85938 10.6914Z" fill="#E76F51"/>
<path fill-rule="evenodd" clip-rule="evenodd" d="M25.8359 29.0625C25.8359 28.2341 26.5075 27.5625 27.3359 27.5625H41.1376C41.966 27.5625 42.6376 28.2341 42.6376 29.0625C42.6376 29.8909 41.966 30.5625 41.1376 30.5625H27.3359C26.5075 30.5625 25.8359 29.8909 25.8359 29.0625Z" fill="#E76F51"/>
<path fill-rule="evenodd" clip-rule="evenodd" d="M25.8359 40.5508C25.8359 39.7224 26.5075 39.0508 27.3359 39.0508H41.1376C41.966 39.0508 42.6376 39.7224 42.6376 40.5508C42.6376 41.3792 41.966 42.0508 41.1376 42.0508H27.3359C26.5075 42.0508 25.8359 41.3792 25.8359 40.5508Z" fill="#E76F51"/>
<path fill-rule="evenodd" clip-rule="evenodd" d="M34.2969 2.29102C35.1253 2.29102 35.7969 2.96259 35.7969 3.79102V17.5737C35.7969 18.4022 35.1253 19.0737 34.2969 19.0737C33.4684 19.0737 32.7969 18.4022 32.7969 17.5737V3.79102C32.7969 2.96259 33.4684 2.29102 34.2969 2.29102Z" fill="#E76F51"/>
<path fill-rule="evenodd" clip-rule="evenodd" d="M19.2224 26.8659C19.8078 27.452 19.8072 28.4018 19.221 28.9872L5.41931 42.7699C4.83312 43.3553 3.88337 43.3546 3.29799 42.7684C2.7126 42.1822 2.71326 41.2325 3.29944 40.6471L17.1011 26.8644C17.6873 26.279 18.637 26.2797 19.2224 26.8659Z" fill="#E76F51"/>
<path fill-rule="evenodd" clip-rule="evenodd" d="M3.29799 26.8659C3.88337 26.2797 4.83312 26.279 5.41931 26.8644L19.221 40.6471C19.8072 41.2325 19.8078 42.1822 19.2224 42.7684C18.637 43.3546 17.6873 43.3553 17.1011 42.7699L3.29944 28.9872C2.71326 28.4018 2.7126 27.452 3.29799 26.8659Z" fill="#E76F51"/>
</svg>
