<svg width="64" height="64" viewBox="0 0 64 64" fill="none" xmlns="http://www.w3.org/2000/svg">
<path d="M2.67188 57.7285L12.6296 40.5113C13.1062 39.6872 13.986 39.1797 14.938 39.1797H49.0724C50.0244 39.1797 50.9042 39.6872 51.3808 40.5113L61.3385 57.7285H2.67188Z" stroke="black" stroke-width="2" stroke-linecap="round" stroke-linejoin="round"/>
<path d="M8.55469 47.5352H55.4342" stroke="black" stroke-width="2" stroke-linecap="round"/>
<path d="M32 39.1768V57.7287" stroke="black" stroke-width="2" stroke-linecap="round"/>
<path d="M8.82031 17.8415V19.163C8.82031 23.8703 11.9162 28.0169 16.4293 29.3547C20.343 30.5148 24.5783 29.5717 27.63 26.8607L29.7577 24.9705C31.0377 23.8334 32.9651 23.8306 34.2485 24.964L36.4326 26.893C39.4803 29.5847 43.7001 30.5155 47.5973 29.3558C52.0959 28.0171 55.1801 23.8814 55.1801 19.1878V17.8472C55.1801 11.4211 50.2732 6.05859 43.8723 5.48962L40.125 5.15652C34.2485 4.85102 34.3328 4.86719 32.1048 4.86719L31.8956 4.86734C29.6677 4.86734 29.752 4.85141 23.8754 5.15691L20.1281 5.49001C13.7273 6.05898 8.82031 11.4215 8.82031 17.8476" stroke="black" stroke-width="2"/>
<path d="M42.9626 13.9309L39.5046 13.6235C37.066 13.4068 34.6205 13.296 32.1748 13.2911C29.729 13.296 27.2834 13.4067 24.8449 13.6234L21.3869 13.9308" stroke="black" stroke-width="2" stroke-linecap="round"/>
</svg>
