<svg width="64" height="65" viewBox="0 0 64 65" fill="none" xmlns="http://www.w3.org/2000/svg">
<path d="M21.3921 20.6113L3.33476 30.8601C2.50009 31.3338 1.98438 32.2195 1.98438 33.1793V44.9555C1.98438 45.9153 2.5001 46.801 3.33476 47.2747L30.5986 62.7487C31.415 63.2121 32.4148 63.2121 33.2312 62.7487L60.495 47.2747C61.3297 46.801 61.8454 45.9153 61.8454 44.9555V33.1793C61.8454 32.2195 61.3297 31.3338 60.495 30.8601L53.4117 26.8399" stroke="#292D32" stroke-width="2" stroke-linecap="round" stroke-linejoin="round"/>
<path d="M1.98438 39.8418L30.5986 56.0823C31.415 56.5456 32.4148 56.5456 33.2312 56.0823L61.8454 39.8418" stroke="#292D32" stroke-width="2" stroke-linejoin="round"/>
<path d="M61.8477 32.293L31.9172 49.2805L1.98666 32.293" stroke="#292D32" stroke-width="2" stroke-linejoin="round"/>
<path d="M31.9141 62.8296V49.2812" stroke="#292D32" stroke-width="2" stroke-linejoin="round"/>
<path d="M48.0004 5.42383V24.9202C48.0004 26.4997 45.8874 27.8818 42.7305 28.6388" stroke="#292D32" stroke-width="2" stroke-linecap="round"/>
<ellipse cx="37.1634" cy="5.42433" rx="10.8313" ry="4.33253" stroke="#292D32" stroke-width="2"/>
<path d="M40.1013 33.6438C40.6888 34.6425 41.0774 35.9004 40.2715 36.733C38.7035 38.3529 34.7708 39.5017 30.1673 39.5017C25.5638 39.5017 21.6311 38.3529 20.063 36.733C19.2571 35.9004 19.6457 34.6425 20.2332 33.6438L30.1673 16.7559L40.1013 33.6438Z" stroke="#292D32" stroke-width="2" stroke-linejoin="round"/>
<path d="M26.332 5.42383V16.4272" stroke="#292D32" stroke-width="2" stroke-linecap="round"/>
</svg>
