<svg width="64" height="64" viewBox="0 0 64 64" fill="none" xmlns="http://www.w3.org/2000/svg">
<path d="M32.0005 43.0293C36.4406 43.0293 40.0401 39.4299 40.0401 34.9898C40.0401 30.5496 36.4406 26.9502 32.0005 26.9502C27.5604 26.9502 23.9609 30.5496 23.9609 34.9898C23.9609 39.4299 27.5604 43.0293 32.0005 43.0293Z" stroke="#292D32" stroke-width="2" stroke-linecap="round" stroke-linejoin="round"/>
<path d="M46.2922 59.8929C45.8268 56.4322 44.1216 53.2579 41.4932 50.9592C38.8647 48.6605 35.4914 47.3936 31.9996 47.3936C28.5078 47.3936 25.1345 48.6605 22.506 50.9592C19.8776 53.2579 18.1724 56.4322 17.707 59.8929" stroke="#292D32" stroke-width="2" stroke-linecap="round" stroke-linejoin="round"/>
<path d="M62.3281 4.10621L59.9316 4.70898" stroke="#292D32" stroke-width="2" stroke-linecap="round"/>
<path d="M62.3343 48.7552L59.9414 48.1533" stroke="#292D32" stroke-width="2" stroke-linecap="round"/>
<path d="M13.322 16.1197L1.66797 12.877V39.0858L13.322 35.8432V16.1197Z" stroke="#292D32" stroke-width="2" stroke-linecap="round" stroke-linejoin="round"/>
<path d="M43.782 35.1616H45.0615V16.7989L18.9414 16.7988L18.9414 35.1615H20.2184" stroke="#292D32" stroke-width="2" stroke-linecap="round" stroke-linejoin="round"/>
<path d="M50.6741 16.1197L62.3281 12.877V39.0858L50.6741 35.8432V16.1197Z" stroke="#292D32" stroke-width="2" stroke-linecap="round" stroke-linejoin="round"/>
<path d="M54.2344 6.21929C53.31 6.4518 52.3852 6.66874 51.4601 6.87012" stroke="#292D32" stroke-width="2" stroke-linecap="round"/>
<path d="M45.957 7.94554C36.6581 9.51556 27.3343 9.51555 18.0353 7.94552" stroke="#292D32" stroke-width="2" stroke-linecap="round"/>
<path d="M9.67503 6.1949C10.5994 6.4274 11.5242 6.64433 12.4492 6.8457" stroke="#292D32" stroke-width="2" stroke-linecap="round"/>
<path d="M1.6696 4.11005L4.0625 4.71191" stroke="#292D32" stroke-width="2" stroke-linecap="round"/>
<path d="M54.3211 46.6694C53.3967 46.4369 52.4719 46.2199 51.5469 46.0186" stroke="#292D32" stroke-width="2" stroke-linecap="round"/>
<path d="M45.9673 44.9205C43.9493 44.5797 41.93 44.313 39.9102 44.1201" stroke="#292D32" stroke-width="2" stroke-linecap="round"/>
<path d="M18.0469 44.9204C20.0648 44.5797 22.0838 44.313 24.1036 44.1201" stroke="#292D32" stroke-width="2" stroke-linecap="round"/>
<path d="M9.76562 46.645C10.69 46.4125 11.6148 46.1955 12.5399 45.9941" stroke="#292D32" stroke-width="2" stroke-linecap="round"/>
<path d="M1.66797 48.759L4.06449 48.1562" stroke="#292D32" stroke-width="2" stroke-linecap="round"/>
</svg>
