<svg width="62" height="62" viewBox="0 0 62 62" fill="none" xmlns="http://www.w3.org/2000/svg">
<path d="M1 54.0305C1 55.8785 1.73412 57.651 3.04089 58.9577C4.34764 60.2644 6.11996 60.9985 7.96801 60.9985C9.81604 60.9985 11.5884 60.2644 12.8951 58.9577C14.2019 57.651 14.936 55.8785 14.936 54.0305C14.936 52.1825 14.2019 50.4102 12.8951 49.1036C11.5884 47.7966 9.81604 47.0625 7.96801 47.0625C6.11996 47.0625 4.34764 47.7966 3.04089 49.1036C1.73412 50.4102 1 52.1825 1 54.0305Z" stroke="#292D32" stroke-width="2" stroke-linecap="round" stroke-linejoin="round"/>
<path d="M24.2305 47.4541H37.5025V60.7261H24.2305V47.4541Z" stroke="#292D32" stroke-width="2" stroke-linecap="round" stroke-linejoin="round"/>
<path d="M60.7288 60.725H44.8008L52.7634 46.125L60.7288 60.725Z" stroke="#292D32" stroke-width="2" stroke-linecap="round" stroke-linejoin="round"/>
<path d="M40.8155 11.2267C40.8187 9.43125 40.336 7.66834 39.419 6.12477C38.5019 4.58119 37.1843 3.31439 35.6059 2.45855C34.0275 1.60271 32.2472 1.18969 30.4531 1.26324C28.6592 1.33679 26.9184 1.89415 25.4155 2.87634C23.9124 3.8585 22.7031 5.2289 21.9153 6.84237C21.1277 8.45583 20.791 10.2523 20.9411 12.0415C21.0911 13.8307 21.7223 15.546 22.7677 17.0058C23.8132 18.4655 25.234 19.6153 26.8795 20.3334V25.1627H34.8422V20.3334C36.6155 19.5607 38.1251 18.2877 39.1859 16.6702C40.247 15.0528 40.8134 13.1611 40.8155 11.2267Z" stroke="#292D32" stroke-width="2" stroke-linecap="round" stroke-linejoin="round"/>
<path d="M8.30078 40.1513V33.5166H53.4261V40.1513" stroke="#292D32" stroke-width="2" stroke-linecap="round" stroke-linejoin="round"/>
<path d="M51.5977 12.9424H55.579" stroke="#292D32" stroke-width="2" stroke-linecap="round" stroke-linejoin="round"/>
<path d="M50.7734 22.0732L53.5868 24.8892" stroke="#292D32" stroke-width="2" stroke-linecap="round" stroke-linejoin="round"/>
<path d="M50.7734 3.816L53.5868 1" stroke="#292D32" stroke-width="2" stroke-linecap="round" stroke-linejoin="round"/>
<path d="M10.1298 12.9424H6.14844" stroke="#292D32" stroke-width="2" stroke-linecap="round" stroke-linejoin="round"/>
<path d="M10.9488 22.0732L8.13281 24.8892" stroke="#292D32" stroke-width="2" stroke-linecap="round" stroke-linejoin="round"/>
<path d="M10.9488 3.816L8.13281 1" stroke="#292D32" stroke-width="2" stroke-linecap="round" stroke-linejoin="round"/>
<path d="M30.8672 25.1641V38.828" stroke="#292D32" stroke-width="2" stroke-linecap="round" stroke-linejoin="round"/>
</svg>
