<svg width="24" height="24" viewBox="0 0 24 24" fill="none" xmlns="http://www.w3.org/2000/svg">
<g clip-path="url(#clip0_2209_27497)">
<path d="M14.3801 13.8858L10.114 9.61963L14.3801 13.8858Z" fill="#ffffff"/>
<path d="M14.3358 14.5525C14.1538 14.5525 13.9719 14.483 13.833 14.3442L9.65578 10.1669C9.37809 9.88926 9.37809 9.43905 9.65578 9.1614C9.93344 8.8837 10.3836 8.8837 10.6613 9.1614L14.8386 13.3387C15.1163 13.6163 15.1163 14.0665 14.8386 14.3442C14.6997 14.483 14.5177 14.5525 14.3358 14.5525Z" fill="#ffffff"/>
<path d="M7.27026 17.4408C7.08509 17.4408 6.90329 17.3685 6.76735 17.2325C6.56626 17.0314 6.50432 16.7298 6.60995 16.4657L9.45403 9.35549C9.52629 9.17484 9.66947 9.03166 9.85012 8.9594L16.9603 6.11532C17.2245 6.00969 17.526 6.07164 17.7272 6.27272C17.9283 6.47385 17.9902 6.77546 17.8846 7.03956L15.0405 14.1498C14.9682 14.3304 14.825 14.4736 14.6444 14.5459L7.53419 17.3899C7.4486 17.4242 7.35905 17.4408 7.27026 17.4408ZM10.6612 10.1666L8.54646 15.4535L13.8333 13.3387L15.9481 8.05183L10.6612 10.1666Z" fill="#ffffff"/>
<path d="M12.2472 23.1292C9.20847 23.1292 6.35163 21.9458 4.20287 19.7971C2.05412 17.6484 0.87085 14.7915 0.87085 11.7528C0.87085 8.71408 2.05417 5.85724 4.20287 3.70849C6.35158 1.55974 9.20847 0.376465 12.2472 0.376465C15.2859 0.376465 18.1428 1.55978 20.2915 3.70849C22.4403 5.8572 23.6235 8.71408 23.6235 11.7528C23.6235 14.7915 22.4402 17.6484 20.2915 19.7971C18.1428 21.9459 15.2859 23.1292 12.2472 23.1292ZM12.2472 1.79851C6.75837 1.79851 2.29289 6.26399 2.29289 11.7528C2.29289 17.2416 6.75837 21.7071 12.2472 21.7071C17.736 21.7071 22.2015 17.2416 22.2015 11.7528C22.2015 6.26399 17.736 1.79851 12.2472 1.79851Z" fill="#ffffff"/>
</g>
</svg>
