<svg width="40" height="41" viewBox="0 0 40 41" fill="none" xmlns="http://www.w3.org/2000/svg">
<path d="M7.95703 21.1921C7.95703 17.6919 10.6298 14.771 14.1163 14.4611L16.1615 14.2793C19.1075 14.0174 22.071 14.0175 25.017 14.2793L27.0592 14.4608C30.5474 14.7709 33.2215 17.6933 33.2215 21.1952V21.9258C33.2215 24.4836 31.5407 26.7374 29.0891 27.4669V27.4669C26.9653 28.099 24.6656 27.5917 23.0048 26.1248L21.8145 25.0736C21.1151 24.4559 20.0647 24.4575 19.3672 25.0772L18.2077 26.1072C16.5446 27.5846 14.2365 28.0986 12.1036 27.4664V27.4664C9.64416 26.7373 7.95703 24.4776 7.95703 21.9123V21.1921Z" stroke="#F7FFE7" stroke-width="1.25"/>
<path d="M25.8332 23.5697C25.6103 23.5697 25.4297 23.3891 25.4297 23.1662C25.4297 22.9434 25.6103 22.7627 25.8332 22.7627" stroke="#F7FFE7" stroke-width="1.25"/>
<path d="M25.8359 23.5697C26.0588 23.5697 26.2395 23.3891 26.2395 23.1662C26.2395 22.9434 26.0588 22.7627 25.8359 22.7627" stroke="#F7FFE7" stroke-width="1.25"/>
<path d="M15.341 23.5697C15.1182 23.5697 14.9375 23.3891 14.9375 23.1662C14.9375 22.9434 15.1182 22.7627 15.341 22.7627" stroke="#F7FFE7" stroke-width="1.25"/>
<path d="M15.3438 23.5707C15.5666 23.5707 15.7473 23.39 15.7473 23.1672C15.7473 22.9443 15.5666 22.7637 15.3438 22.7637" stroke="#F7FFE7" stroke-width="1.25"/>
<path d="M12.5156 19.9391C12.9191 19.5356 14.049 18.7285 15.3403 18.7285C16.6315 18.7285 17.8959 19.5356 18.1649 19.9391" stroke="#F7FFE7" stroke-width="1.25" stroke-linecap="round"/>
<path d="M28.6562 19.9391C28.2527 19.5356 27.1229 18.7285 25.8316 18.7285C24.5404 18.7285 23.276 19.5356 23.007 19.9391" stroke="#F7FFE7" stroke-width="1.25" stroke-linecap="round"/>
<path d="M17.3594 32.1406C17.6284 32.4096 18.6506 32.9477 20.5875 32.9477C22.5244 32.9477 23.5467 32.4096 23.8157 32.1406" stroke="#F7FFE7" stroke-width="1.25" stroke-linecap="round"/>
<path d="M8.69092 18.1256L8.58083 18.1806C6.65308 19.0938 4.08137 18.3478 3.40246 16.5998C5.54293 16.0469 6.6581 14.8786 7.93258 13.1262C5.09169 13.3291 3.36418 10.346 2.94141 9.20458C7.3803 9.20458 9.15585 2.73645 18.1604 1.08777C25.3641 -0.231169 28.3488 5.35755 28.9407 8.31678C30.4203 7.80949 33.6332 7.68268 34.6478 11.2338C35.9161 15.6727 34.521 18.8433 37.0575 18.8433C36.5502 19.5197 35.1298 20.6189 33.5064 19.6043C33.3624 19.518 33.0339 19.2846 32.8716 19.0412" stroke="#F7FFE7" stroke-width="1.25" stroke-linecap="round" stroke-linejoin="round"/>
<path d="M24.5723 14.2418C24.5332 14.1689 24.413 13.9842 24.3578 13.901C23.2391 12.2788 19.8772 10.0915 15.3798 14.3205L15.3438 14.3557" stroke="#F7FFE7" stroke-width="1.25" stroke-linecap="round" stroke-linejoin="round"/>
<path d="M28.8852 8.2793L26.9553 10.0414L27.7944 12.0551L25.3611 13.8172L24.7344 14.2575" stroke="#F7FFE7" stroke-width="1.25" stroke-linecap="round" stroke-linejoin="round"/>
<path d="M9.99609 26.3184L10.0984 26.7986C11.2641 32.2611 12.5195 39.4044 20.5899 39.4044C28.6603 39.4044 29.9157 32.2611 31.0814 26.7986L31.1838 26.3184" stroke="#F7FFE7" stroke-width="1.25" stroke-linecap="round"/>
<path d="M14.332 37.1611V39.3568" stroke="#F7FFE7" stroke-width="1.25" stroke-linecap="round"/>
<path d="M10.8422 30.1549H9.50929C6.03338 30.1549 3.9932 23.7949 7.89469 22.8195L8.01912 22.7959" stroke="#F7FFE7" stroke-width="1.25" stroke-linecap="round"/>
<path d="M30.3336 30.1549H31.6665C35.1424 30.1549 37.1826 23.7949 33.2811 22.8195L33.1567 22.7959" stroke="#F7FFE7" stroke-width="1.25" stroke-linecap="round"/>
<path d="M26.8438 37.1611V39.3568" stroke="#F7FFE7" stroke-width="1.25" stroke-linecap="round"/>
</svg>
