<svg width="61" height="61" viewBox="0 0 61 61" fill="none" xmlns="http://www.w3.org/2000/svg">
<path d="M50.5697 35.7839C53.5152 35.7839 55.903 33.396 55.903 30.4505C55.903 27.505 53.5152 25.1172 50.5697 25.1172C47.6241 25.1172 45.2363 27.505 45.2363 30.4505C45.2363 33.396 47.6241 35.7839 50.5697 35.7839Z" stroke="white" stroke-width="2" stroke-linecap="round" stroke-linejoin="round"/>
<path d="M59.903 45.117C59.903 42.6417 58.9197 40.2677 57.1693 38.5174C55.419 36.767 53.045 35.7837 50.5697 35.7837C48.0943 35.7837 45.7203 36.767 43.97 38.5174C42.2197 40.2677 41.2363 42.6417 41.2363 45.117V49.117H45.2363L46.5697 59.7837H54.5697L55.903 49.117H59.903V45.117Z" stroke="white" stroke-width="2" stroke-linecap="round" stroke-linejoin="round"/>
<path d="M13.3828 15.6201C15.5013 15.6201 17.2187 13.9027 17.2187 11.7842C17.2187 9.66565 15.5013 7.94824 13.3828 7.94824C11.2643 7.94824 9.54688 9.66565 9.54688 11.7842C9.54688 13.9027 11.2643 15.6201 13.3828 15.6201Z" stroke="white" stroke-width="2" stroke-linecap="round" stroke-linejoin="round"/>
<path d="M13.3828 36.9536C15.5013 36.9536 17.2187 35.2362 17.2187 33.1177C17.2187 30.9991 15.5013 29.2817 13.3828 29.2817C11.2643 29.2817 9.54688 30.9991 9.54688 33.1177C9.54688 35.2362 11.2643 36.9536 13.3828 36.9536Z" stroke="white" stroke-width="2" stroke-linecap="round" stroke-linejoin="round"/>
<path d="M39.7129 15.6201C41.8314 15.6201 43.5488 13.9027 43.5488 11.7842C43.5488 9.66565 41.8314 7.94824 39.7129 7.94824C37.5944 7.94824 35.877 9.66565 35.877 11.7842C35.877 13.9027 37.5944 15.6201 39.7129 15.6201Z" stroke="white" stroke-width="2" stroke-linecap="round" stroke-linejoin="round"/>
<path d="M20.0955 22.3335C20.0955 20.5531 19.3883 18.8457 18.1294 17.5868C16.8704 16.3279 15.163 15.6206 13.3826 15.6206C11.6023 15.6206 9.89499 16.3279 8.63608 17.5868C7.37717 18.8457 6.66992 20.5531 6.66992 22.3335" stroke="white" stroke-width="2" stroke-linecap="round" stroke-linejoin="round"/>
<path d="M20.0955 43.6665C20.0955 41.8861 19.3883 40.1787 18.1294 38.9198C16.8704 37.6609 15.163 36.9536 13.3826 36.9536C11.6023 36.9536 9.89499 37.6609 8.63608 38.9198C7.37717 40.1787 6.66992 41.8861 6.66992 43.6665" stroke="white" stroke-width="2" stroke-linecap="round" stroke-linejoin="round"/>
<path d="M44.4594 17.5868C43.2005 16.3279 41.4931 15.6206 39.7127 15.6206C37.9323 15.6206 36.2251 16.3279 34.9662 17.5868C33.7072 18.8457 33 20.5531 33 22.3335" stroke="white" stroke-width="2" stroke-linecap="round" stroke-linejoin="round"/>
<path d="M51.6667 14.3333V2.81062C51.6667 1.81064 50.856 1 49.856 1H2.81062C1.81064 1 1 1.81064 1 2.81062V41.856C1 42.856 1.81064 43.6667 2.81062 43.6667H33" stroke="white" stroke-width="2" stroke-linecap="round"/>
<path d="M26.334 1V43.6667" stroke="white" stroke-width="2"/>
<path d="M1 22.3335H38.3333" stroke="white" stroke-width="2" stroke-linecap="round"/>
</svg>
