<svg width="42" height="42" viewBox="0 0 42 42" fill="none" xmlns="http://www.w3.org/2000/svg">
<path d="M1 36.3544C1 37.5864 1.48943 38.7681 2.36063 39.6392C3.23182 40.5103 4.4134 40.9997 5.64547 40.9997C6.87752 40.9997 8.0591 40.5103 8.93031 39.6392C9.80149 38.7681 10.2909 37.5864 10.2909 36.3544C10.2909 35.1223 9.80149 33.9408 8.93031 33.0697C8.0591 32.1984 6.87752 31.709 5.64547 31.709C4.4134 31.709 3.23182 32.1984 2.36063 33.0697C1.48943 33.9408 1 35.1223 1 36.3544Z" stroke="#F5FAFF" stroke-width="1.33341" stroke-linecap="round" stroke-linejoin="round"/>
<path d="M16.4883 31.9707H25.3365V40.8188H16.4883V31.9707Z" stroke="#F5FAFF" stroke-width="1.33341" stroke-linecap="round" stroke-linejoin="round"/>
<path d="M40.8221 40.8174H30.2031L35.5117 31.084L40.8221 40.8174Z" stroke="#F5FAFF" stroke-width="1.33341" stroke-linecap="round" stroke-linejoin="round"/>
<path d="M27.5427 7.81787C27.5449 6.62088 27.2231 5.4456 26.6117 4.41654C26.0003 3.38748 25.1219 2.54294 24.0696 1.97238C23.0173 1.40181 21.8304 1.12646 20.6343 1.17549C19.4383 1.22453 18.2778 1.59611 17.2758 2.2509C16.2737 2.90568 15.4674 3.81929 14.9423 4.89494C14.4171 5.9706 14.1927 7.16826 14.2928 8.36107C14.3928 9.55388 14.8136 10.6974 15.5106 11.6706C16.2075 12.6438 17.1547 13.4103 18.2518 13.889V17.1086H23.5604V13.889C24.7427 13.3739 25.7491 12.5252 26.4563 11.4469C27.1637 10.3686 27.5413 9.10744 27.5427 7.81787Z" stroke="#F5FAFF" stroke-width="1.33341" stroke-linecap="round" stroke-linejoin="round"/>
<path d="M5.86719 27.102V22.6787H35.9531V27.102" stroke="#F5FAFF" stroke-width="1.33341" stroke-linecap="round" stroke-linejoin="round"/>
<path d="M34.7344 8.96191H37.3887" stroke="#F5FAFF" stroke-width="1.33341" stroke-linecap="round" stroke-linejoin="round"/>
<path d="M34.1836 15.0498L36.0592 16.9272" stroke="#F5FAFF" stroke-width="1.33341" stroke-linecap="round" stroke-linejoin="round"/>
<path d="M34.1836 2.87735L36.0592 1" stroke="#F5FAFF" stroke-width="1.33341" stroke-linecap="round" stroke-linejoin="round"/>
<path d="M7.08789 8.96191H4.43359" stroke="#F5FAFF" stroke-width="1.33341" stroke-linecap="round" stroke-linejoin="round"/>
<path d="M7.63129 15.0498L5.75391 16.9272" stroke="#F5FAFF" stroke-width="1.33341" stroke-linecap="round" stroke-linejoin="round"/>
<path d="M7.63129 2.87735L5.75391 1" stroke="#F5FAFF" stroke-width="1.33341" stroke-linecap="round" stroke-linejoin="round"/>
<path d="M20.9102 17.1104V26.2197" stroke="#F5FAFF" stroke-width="1.33341" stroke-linecap="round" stroke-linejoin="round"/>
</svg>
