<svg width="64" height="64" viewBox="0 0 64 64" fill="none" xmlns="http://www.w3.org/2000/svg">
<path d="M45.9317 35.1644L43.4649 29.7209C43.0674 28.8433 42.1884 28.2759 41.2242 28.2759C40.875 28.2759 40.533 28.3513 40.2108 28.4963L34.5717 31.0513C33.3387 31.6103 32.789 33.0716 33.3472 34.3054L35.9022 39.9438C36.3004 40.8213 37.1787 41.3881 38.1429 41.3881C38.4935 41.3881 38.8348 41.3141 39.1563 41.1676L44.7939 38.6126C45.3941 38.3417 45.8506 37.8538 46.0818 37.2401C46.3136 36.6243 46.2908 35.9566 46.0199 35.3571L45.9317 35.1644ZM34.2567 33.8929C33.9246 33.1605 34.251 32.2929 34.9842 31.9601L40.624 29.4058C40.8146 29.3191 41.0165 29.275 41.2242 29.275C41.798 29.275 42.3193 29.6121 42.5568 30.1333L44.8153 35.121L36.5173 38.8814L34.2567 33.8929ZM45.1481 36.8896C45.0108 37.2537 44.7392 37.5431 44.3843 37.7045L38.7452 40.2595C38.5532 40.3463 38.3506 40.3911 38.1436 40.3911C37.6672 40.3911 37.2299 40.1543 36.9575 39.7781L45.2028 36.0419C45.269 36.3214 45.2512 36.6137 45.1481 36.8896Z" fill="#292D32"/>
<path d="M39.4892 32.7422C39.2034 32.7422 38.9253 32.8019 38.6651 32.9207C38.1779 33.1411 37.8053 33.5386 37.6183 34.0385C37.4291 34.5377 37.4469 35.081 37.6681 35.5674C37.9909 36.2807 38.7063 36.7422 39.4914 36.7422C39.7765 36.7422 40.0539 36.6825 40.3155 36.5637C41.3189 36.1079 41.7655 34.9203 41.3111 33.9162C40.9875 33.203 40.2729 32.7422 39.4892 32.7422ZM39.9038 35.6563C39.4096 35.8789 38.7987 35.6435 38.5783 35.1557C38.4674 34.9125 38.4581 34.6409 38.5527 34.3905C38.6473 34.1402 38.8329 33.9411 39.0761 33.8302C39.2091 33.7712 39.3463 33.7406 39.4892 33.7406C39.8818 33.7406 40.2409 33.9717 40.4023 34.3301C40.6306 34.8329 40.408 35.4259 39.9038 35.6563Z" fill="#292D32"/>
<path d="M52.238 15.4042C53.2186 15.4042 54.0158 14.6063 54.0158 13.6257C54.0158 12.6458 53.2186 11.8486 52.238 11.8486C51.2588 11.8486 50.4609 12.6458 50.4609 13.6257C50.4609 14.6063 51.2588 15.4042 52.238 15.4042ZM52.238 12.8463C52.6675 12.8463 53.0181 13.1962 53.0181 13.625C53.0181 14.0552 52.6675 14.4051 52.238 14.4051C51.8085 14.4051 51.4593 14.0552 51.4593 13.625C51.4593 13.1969 51.8078 12.8463 52.238 12.8463Z" fill="#292D32"/>
<path d="M41.3162 11.555C41.5815 11.555 41.8716 11.5251 42.1695 11.4832C42.9496 12.259 44.017 12.7184 45.1591 12.7184C45.7407 12.7184 46.3082 12.6003 46.8458 12.3671C48.4643 11.6645 49.4236 10.0674 49.398 8.40406C50.3928 7.63749 51.052 6.79838 50.7349 6.0638C50.4554 5.41811 49.5722 5.21473 48.1223 5.44442C47.3443 4.68353 46.2869 4.2334 45.1555 4.2334C44.5745 4.2334 44.0078 4.35073 43.4702 4.58398C41.8289 5.29509 40.8696 6.92709 40.923 8.61526C39.8655 9.47002 39.4567 10.2188 39.724 10.8389C39.9502 11.3566 40.5475 11.555 41.3162 11.555ZM46.4483 11.4512C46.038 11.629 45.6035 11.72 45.1591 11.72C44.5361 11.72 43.9438 11.5379 43.4375 11.2208C44.3676 10.9747 45.3048 10.6327 46.0373 10.3148C46.7271 10.0154 47.5576 9.60229 48.332 9.1294C48.1237 10.1278 47.4538 11.016 46.4483 11.4512ZM49.8147 6.44567C49.8247 6.57153 49.6348 6.86238 49.2159 7.24709C49.1697 7.09278 49.1157 6.93989 49.051 6.78771C48.9855 6.6398 48.9116 6.49829 48.8327 6.36033C49.4933 6.31126 49.7735 6.41082 49.8147 6.44567ZM43.8677 5.49918C44.2787 5.32069 44.7125 5.23038 45.1562 5.23038C46.4497 5.23038 47.6195 5.99838 48.1351 7.18451C48.2396 7.42771 48.3093 7.67731 48.3534 7.92833C47.697 8.38344 46.8053 8.89331 45.6405 9.3982C44.3989 9.93651 43.3656 10.2437 42.5628 10.4058C42.4156 10.2074 42.2833 9.99695 42.1823 9.76442C41.4712 8.12389 42.2279 6.21029 43.8677 5.49918ZM41.1199 9.77011C41.1626 9.90166 41.2103 10.0325 41.2664 10.1626C41.3255 10.2985 41.3937 10.4286 41.4641 10.5552C40.9991 10.5794 40.716 10.5282 40.6442 10.4535C40.6378 10.3874 40.7367 10.1506 41.1199 9.77011Z" fill="#292D32"/>
<path d="M57.2185 50.2872C56.789 49.3364 55.8375 48.7241 54.795 48.7241C54.5191 48.7241 54.251 48.7675 53.9908 48.8507C53.5222 47.816 51.2644 42.8333 49.2121 38.3056L50.4516 37.7453C50.5895 37.682 50.7189 37.6088 50.8448 37.5298C51.3433 37.874 51.9392 38.103 52.6646 38.0703C53.4574 38.0333 54.7829 37.608 54.7374 35.1739C54.7061 33.5398 53.9012 32.21 53.0073 30.8788C51.9513 29.3037 50.7218 27.9881 49.3081 26.8937L46.5412 20.7867C46.1572 19.9405 45.4489 19.3083 44.6069 18.9933L42.9245 15.2784C42.8697 15.1583 42.768 15.0637 42.645 15.0175C42.5205 14.9712 42.3833 14.9748 42.2631 15.0296L40.917 15.639C39.1733 13.2127 36.3396 11.7144 33.2818 11.7144C31.9413 11.7144 30.6372 11.9981 29.4084 12.5549C27.1207 13.591 25.3749 15.4555 24.4903 17.805C23.8261 19.57 23.7088 21.4495 24.1291 23.245L22.9109 23.7976C22.7908 23.8516 22.6969 23.9526 22.6493 24.0763C22.603 24.2 22.6073 24.3373 22.6628 24.4582L24.341 28.1624C24.3389 28.168 24.3353 28.1737 24.3332 28.1794C24.0103 29.0384 24.0402 29.9728 24.4192 30.8091L27.0788 36.6793C26.9877 37.8285 27.0212 38.9833 27.1783 40.1481L21.6125 34.4749L15.7095 28.4589C15.6661 28.4155 15.6171 28.3849 15.5645 28.3608C15.5495 28.3536 15.5353 28.3472 15.5204 28.343C15.4734 28.3259 15.4251 28.3152 15.3753 28.3131C15.3682 28.3124 15.3604 28.3103 15.3525 28.3103C15.3063 28.3103 15.2594 28.316 15.2132 28.3295C15.2046 28.3316 15.1961 28.3373 15.1876 28.3408C15.1733 28.3458 15.1598 28.3529 15.1463 28.3586C15.1015 28.3792 15.0596 28.4056 15.0212 28.4397C15.0155 28.4447 15.0077 28.4461 15.0027 28.4525C15.0005 28.4546 15.0005 28.4568 14.9977 28.4596C14.9557 28.5016 14.9252 28.5506 14.9017 28.6018C14.8946 28.616 14.8903 28.6317 14.8853 28.6466C14.8789 28.6651 14.8697 28.6829 14.8654 28.7035C14.7424 29.2752 14.6734 29.8491 14.6073 30.4052C14.4409 31.794 14.283 33.1053 13.3095 34.061C13.168 34.2004 13.008 34.3334 12.8352 34.4543C12.2528 34.8646 11.5801 35.1711 10.8683 35.4946C9.88055 35.9412 8.8601 36.4048 8.0665 37.1828C7.68037 37.5625 7.38312 37.98 7.15699 38.4578C7.0681 38.6477 7.10579 38.8717 7.25228 39.0203L13.1545 45.0356C13.269 45.1522 13.4333 45.2063 13.594 45.1785C13.7547 45.1522 13.8933 45.0477 13.9623 44.8998C14.1365 44.5293 14.3677 44.2064 14.6685 43.912C15.3355 43.2571 16.2329 42.8496 17.1829 42.418C17.9061 42.0895 18.795 41.7503 19.4549 41.2845C19.6725 41.1359 20.1945 40.968 20.1945 40.7924C20.1945 40.791 20.1945 40.791 20.1945 40.791C21.6167 39.5906 21.4645 38.0404 21.6445 36.5414C21.6715 36.3209 21.6288 36.0976 21.6594 35.8744L27.5445 41.9067C27.5822 42.0639 27.6021 42.2203 27.6434 42.3789C28.0551 43.9284 28.5152 45.4104 29.7234 46.5112C31.0965 47.7606 32.112 47.6404 32.7634 47.2585L35.6597 50.2125C35.8532 50.4102 36.1675 50.4123 36.3645 50.2196C36.5607 50.0269 36.5643 49.7104 36.3716 49.5135L33.4951 46.5837C33.84 46.1236 34.0036 45.6201 34.0583 45.1138C34.2397 45.0662 34.4189 45.0079 34.5931 44.9282L35.7124 44.4205C37.7988 49.0271 40.1049 54.1151 40.5159 55.0239C39.5822 55.7641 39.2295 57.0704 39.7437 58.204C40.1739 59.1526 41.1239 59.767 42.1678 59.767C42.5461 59.767 42.9145 59.6873 43.2629 59.5295L46.6869 57.9771C47.3341 57.6834 47.8276 57.1565 48.0772 56.4909C48.3275 55.8267 48.3033 55.1049 48.0103 54.4578C47.8155 54.0262 47.5083 53.6699 47.1371 53.4032L44.3232 47.1931C44.0893 46.7167 43.7778 45.7837 43.947 45.3115C43.9869 45.202 44.048 45.1344 44.1497 45.0882C44.2514 45.0427 44.3417 45.042 44.4512 45.0832C44.9177 45.2681 45.4141 46.1165 45.6245 46.6221L48.8224 53.6799C48.858 53.8 48.8971 53.916 48.9497 54.0312C49.3799 54.9819 50.3314 55.5956 51.3746 55.5956C51.7536 55.5956 52.1227 55.5145 52.4704 55.3574L55.893 53.8057C57.2292 53.2006 57.8244 51.6212 57.2185 50.2872ZM20.5117 36.4219C20.3453 37.8121 20.1881 39.1234 19.2132 40.0799C19.0717 40.2185 18.9117 40.3522 18.7396 40.4731C18.1572 40.8841 17.4837 41.1892 16.7719 41.512C15.7842 41.9608 14.763 42.4223 13.9701 43.2016C13.7568 43.4114 13.5698 43.6326 13.4069 43.8701L8.22152 38.5844C8.37086 38.3362 8.55006 38.1094 8.76695 37.8975C9.43397 37.2425 10.3321 36.8358 11.2821 36.4041C12.0046 36.0763 12.752 35.7364 13.4112 35.2713C13.6281 35.1184 13.8286 34.952 14.0093 34.775C15.2331 33.5746 15.4194 32.0237 15.6 30.5254C15.6256 30.3042 15.6526 30.0809 15.6832 29.8569L20.7165 34.9876C20.6254 35.4697 20.5678 35.954 20.5117 36.4219ZM50.0391 36.8344L48.8011 37.3954C47.9115 35.4306 47.0873 33.6144 46.5056 32.3288C47.2096 33.1224 48.1518 34.2793 49.2996 35.8658C49.5122 36.1588 49.7604 36.5008 50.0576 36.8272C50.0512 36.8287 50.0455 36.8315 50.0391 36.8344ZM53.3472 33.4694C53.5783 34.0198 53.7284 34.5823 53.739 35.1917C53.7732 37.0185 52.9333 37.0576 52.6176 37.0733C52.2542 37.0882 51.9335 37.0022 51.6405 36.8457C51.4955 36.7689 51.3582 36.6751 51.2253 36.5663C51.1001 36.4632 50.9792 36.3472 50.8619 36.2221C50.7026 36.0543 50.5511 35.8694 50.4018 35.6752L51.4535 34.8888L51.9691 34.5026L52.4384 34.152L53.3472 33.4694ZM45.6324 21.1984L47.7138 25.7915C47.0226 25.3769 46.2944 25.0057 45.5221 24.6779C44.2059 24.1183 43.0183 23.7343 41.9125 23.5088C42.3264 22.6036 42.5518 21.6457 42.5753 20.663L44.2293 19.9135C44.8402 20.1332 45.3557 20.5869 45.6324 21.1984ZM42.2212 16.1446L43.4087 18.7664L43.5687 19.117L43.2196 19.2756L42.5227 19.5906C42.5156 19.5316 42.5077 19.4719 42.4985 19.4128C42.475 19.2486 42.4459 19.0843 42.411 18.9193C42.2887 18.359 42.1031 17.7965 41.85 17.2361C41.7333 16.9787 41.6025 16.7312 41.4645 16.488L42.2212 16.1446ZM29.8215 13.4637C30.9195 12.9652 32.0857 12.7128 33.2825 12.7128C35.9477 12.7128 38.4253 13.9835 39.9933 16.0578C40.0949 16.1922 40.1902 16.3323 40.2848 16.4738C40.3773 16.6132 40.4647 16.7568 40.5493 16.9019C40.6887 17.1437 40.8224 17.3904 40.939 17.6486C41.1915 18.2061 41.3607 18.7615 41.4653 19.3126C41.498 19.4832 41.5314 19.6532 41.5499 19.8224C41.5577 19.8907 41.5563 19.9583 41.562 20.0265C41.5705 20.1368 41.5769 20.2477 41.5797 20.3572C41.5819 20.4255 41.5883 20.4952 41.5869 20.5634C41.5861 20.7519 41.5733 20.9396 41.5549 21.1259C41.4788 21.8982 41.2548 22.647 40.8928 23.3567C40.7762 23.5856 40.6425 23.8104 40.4981 24.0301C40.4889 24.0443 40.4789 24.0578 40.469 24.072C39.5595 25.4324 38.1131 26.6178 36.1774 27.4946C34.6841 28.1716 33.1559 28.5293 31.7579 28.5293C31.4208 28.5293 31.0937 28.508 30.7758 28.4674C30.7573 28.4653 30.7396 28.4632 30.7218 28.4603C30.4601 28.4255 30.2062 28.3736 29.9581 28.3124C29.1787 28.1176 28.4676 27.7904 27.8397 27.341C27.6875 27.2322 27.5389 27.1177 27.3966 26.994C27.3433 26.9485 27.2928 26.9016 27.2423 26.8532C27.1613 26.7785 27.0802 26.7046 27.0034 26.6249C26.9572 26.5773 26.9138 26.5247 26.8683 26.4756C26.7524 26.349 26.6414 26.2168 26.5348 26.0781C26.1906 25.6351 25.8877 25.138 25.6366 24.584C25.5193 24.3252 25.4169 24.0642 25.3273 23.7997C25.2733 23.6397 25.2256 23.479 25.1815 23.3183C25.1367 23.1533 25.0976 22.9883 25.0635 22.8233C24.2827 19.0594 26.1771 15.1149 29.8215 13.4637ZM23.7785 24.5001L24.4149 24.2128C24.5074 24.476 24.6098 24.7369 24.7271 24.9951C24.9838 25.5618 25.2861 26.0781 25.6281 26.5446C25.7277 26.6804 25.8301 26.8134 25.936 26.9407C25.9709 26.9819 26.0085 27.0189 26.0434 27.0594L25.4738 27.3168L25.1268 27.4747L24.9689 27.1256L23.7785 24.5001ZM27.3355 34.824L25.3294 30.3981C25.0599 29.8043 25.0386 29.1408 25.2683 28.5307C25.2725 28.5186 25.2797 28.5094 25.2839 28.498L26.8036 27.8089C27.5538 28.4461 28.4213 28.9126 29.3885 29.197C28.8352 30.1705 28.3438 31.3133 27.8994 32.663C27.6619 33.3848 27.4756 34.1044 27.3355 34.824ZM28.8231 33.8178L30.0505 34.0425L29.5108 36.9837L28.2834 36.7597L28.8231 33.8178ZM33.0258 45.2262C32.9803 45.4495 32.9042 45.6621 32.7833 45.8584C32.7172 45.9672 32.6354 46.071 32.5408 46.1698C32.5202 46.1926 32.4939 46.2189 32.464 46.2466C32.3637 46.3419 32.2201 46.4543 32.0139 46.4998C31.6676 46.5773 31.1499 46.4678 30.3869 45.7744C29.941 45.3663 29.616 44.8856 29.3572 44.3529L29.8066 44.2491L30.3755 44.1168L30.5952 44.0664L30.9458 43.9846L31.1591 43.9355L31.7792 43.7912L32.9412 43.5216C32.9895 43.762 33.0293 43.9988 33.0535 44.2285C33.072 44.4006 33.0813 44.5684 33.0784 44.7305C33.0734 44.9019 33.0585 45.0662 33.0258 45.2262ZM34.1806 44.0187C34.1351 44.0386 34.0896 44.0543 34.0448 44.072C33.9943 43.6383 33.9019 43.2294 33.8222 42.8774C33.3842 40.9688 33.1353 39.4953 33.0037 38.4436C33.584 39.725 34.4089 41.5433 35.2999 43.5117L34.1806 44.0187ZM47.0731 54.8176C47.0816 54.8347 47.0937 54.8518 47.1015 54.8703C47.1662 55.0118 47.2025 55.1611 47.2245 55.3133C47.2658 55.5892 47.2437 55.8722 47.1435 56.1403C46.9877 56.5563 46.6784 56.8848 46.2738 57.069L42.8512 58.6207C42.6336 58.7181 42.4039 58.77 42.1678 58.77C41.5157 58.77 40.9205 58.3867 40.6525 57.7922C40.2749 56.9588 40.6461 55.9725 41.4795 55.5942L41.8123 55.4434L42.9778 54.9165L44.1419 54.3881L44.9042 54.0425C45.1218 53.9437 45.3522 53.8946 45.5876 53.8946C45.8592 53.8946 46.1181 53.9643 46.3513 54.0845C46.6578 54.2431 46.9131 54.4962 47.0731 54.8176ZM49.0208 51.6987L48.0061 49.4601L51.4208 47.912C51.6718 47.7997 51.7835 47.5024 51.6697 47.2514C51.5559 47.0011 51.2601 46.888 51.0084 47.0018L47.5943 48.5506L46.9358 47.0971L48.6589 46.3163C48.9106 46.2025 49.0215 45.9081 48.9085 45.6564C48.7947 45.4047 48.4981 45.293 48.2471 45.4068L46.5255 46.1876C46.4046 45.9053 45.7781 44.5343 44.8203 44.1552C44.4612 44.0137 44.0871 44.0201 43.7387 44.178C43.3902 44.3359 43.1371 44.6111 43.0077 44.9773C42.6436 45.9977 43.3483 47.4712 43.4222 47.6205L43.9833 48.8571L40.7321 50.3305C40.4804 50.4443 40.3694 50.7401 40.4825 50.9919C40.5664 51.1753 40.7485 51.2841 40.9383 51.2841C41.008 51.2841 41.0777 51.2699 41.1445 51.2393L44.395 49.7666L45.8201 52.9119C45.7433 52.9055 45.6651 52.8955 45.5876 52.8955C45.2085 52.8955 44.8395 52.9752 44.4917 53.1323L41.5861 54.4507L41.3543 54.4557C40.7947 53.2205 38.608 48.3956 36.6219 44.0102C36.5522 43.8573 36.4839 43.7065 36.4157 43.5551C36.346 43.4029 36.2777 43.25 36.2094 43.0992C34.603 39.5558 33.2192 36.5001 33.0763 36.1837C32.8267 35.6326 32.41 35.7392 32.3289 35.767C31.9328 35.9007 31.7771 36.2783 31.9584 38.0632C32.0466 38.93 32.2535 40.3977 32.7257 42.5467L31.0269 42.9414L30.5227 43.0594L30.1266 43.1504L30.0242 43.1746L29.5563 43.2813L28.9881 43.415L28.9753 43.4185C28.9717 43.4093 28.9703 43.4022 28.9668 43.3944C28.8551 43.0644 28.7541 42.7224 28.6581 42.3682C28.6354 42.2857 28.6126 42.2068 28.5913 42.1236C28.528 41.8861 28.4718 41.6479 28.4185 41.4104C28.2258 40.5435 28.1056 39.6852 28.0558 38.8312C28.0345 38.4628 28.026 38.0952 28.0309 37.7282L28.1099 37.7424L28.7065 37.8512L29.8222 38.056C29.8521 38.0624 29.882 38.0653 29.9133 38.0653C30.1493 38.0653 30.3591 37.8975 30.4025 37.6557L31.1221 33.7318C31.1463 33.6016 31.1179 33.468 31.0418 33.3592C30.9671 33.2496 30.8526 33.1757 30.7211 33.1508L28.8999 32.8173C29.3529 31.474 29.8507 30.3561 30.4139 29.4239C30.8462 29.49 31.2935 29.5277 31.7572 29.5277C33.296 29.5277 34.9671 29.1394 36.5885 28.4048C38.7723 27.415 40.4071 26.0297 41.4119 24.4297C42.5326 24.6288 43.7536 25.0121 45.1303 25.5974C46.3655 26.1222 47.482 26.77 48.501 27.5352C48.7975 27.757 49.0862 27.9903 49.3657 28.2328C49.6992 28.5236 50.0206 28.8301 50.33 29.1515C50.997 29.8427 51.6157 30.5965 52.1781 31.4349C52.4349 31.8182 52.6745 32.1908 52.89 32.5634L52.1333 33.1302L51.723 33.4381L51.3092 33.7481L49.8073 34.8724C48.4839 33.0733 47.5047 31.9334 46.906 31.2898C45.685 29.9778 45.2967 29.8441 44.9362 30.0553C44.8622 30.0987 44.506 30.3398 44.7549 30.8916C44.8992 31.2073 46.2837 34.2637 47.8901 37.8093C47.9584 37.96 48.0274 38.1115 48.0964 38.2637C48.1646 38.4152 48.2329 38.5659 48.3019 38.7195C50.2894 43.1028 52.4754 47.9277 53.0357 49.1636L52.8786 49.3343L50.2745 50.514C49.7291 50.76 49.2946 51.1753 49.0208 51.6987ZM55.4813 52.8976L52.058 54.4486C51.8411 54.5474 51.6114 54.5965 51.3753 54.5965C50.8356 54.5965 50.3371 54.3312 50.0292 53.9032C49.9652 53.8157 49.9054 53.7211 49.8599 53.6201C49.8315 53.5554 49.8137 53.4886 49.7931 53.4232C49.7255 53.2056 49.7035 52.9801 49.7277 52.7561C49.7426 52.6196 49.7689 52.4816 49.8194 52.3508C49.9744 51.9341 50.283 51.6056 50.6877 51.4221L51.1485 51.213L52.314 50.6847L53.4781 50.1577L54.111 49.8704C54.3293 49.773 54.5589 49.7225 54.7957 49.7225C55.4471 49.7225 56.0416 50.1058 56.3097 50.6989C56.6866 51.5316 56.3154 52.5193 55.4813 52.8976Z" fill="#292D32"/>
<path d="M26.5437 22.6993C26.5871 22.8615 26.6312 23.0236 26.6859 23.1829C26.7563 23.3848 26.8338 23.5861 26.9234 23.7838C27.2093 24.4124 27.5698 24.9564 27.9937 25.4151C28.1153 25.5473 28.2411 25.6739 28.3734 25.7912C28.4274 25.8389 28.4836 25.8816 28.5391 25.9264C28.6294 26.0003 28.7226 26.0707 28.8171 26.1376C28.8783 26.1802 28.938 26.225 29.0006 26.2648C29.1748 26.3765 29.3576 26.4753 29.546 26.5656C30.3019 26.9304 31.1617 27.1232 32.1074 27.1232C32.901 27.1232 33.7416 26.9795 34.5828 26.7093C34.937 26.5955 35.289 26.4618 35.6402 26.3032C35.9908 26.144 36.3186 25.9669 36.633 25.7792C37.8909 25.0325 38.8516 24.0739 39.4319 22.9617C39.6125 22.6154 39.7483 22.2584 39.85 21.8965C39.9048 21.696 39.9496 21.4933 39.9802 21.2892C39.9915 21.2152 39.9994 21.1413 40.0072 21.0666C40.0207 20.95 40.0278 20.8334 40.0335 20.7168C40.0356 20.6456 40.0392 20.576 40.0392 20.5048C40.0392 20.3271 40.0335 20.1479 40.0143 19.968C39.9496 19.345 39.7754 18.715 39.4916 18.0878C39.402 17.8901 39.2996 17.7002 39.1944 17.5139C39.1105 17.3674 39.0216 17.2252 38.9284 17.0858C38.8324 16.9443 38.7329 16.8071 38.6276 16.6741C37.337 15.0357 35.3473 14.0352 33.2047 14.0352C32.2212 14.0352 31.2641 14.2428 30.361 14.651C28.6834 15.4112 27.4006 16.78 26.7521 18.5052C26.3012 19.7034 26.2017 20.9735 26.4328 22.2001C26.4634 22.3694 26.4996 22.5351 26.5437 22.6993ZM27.6858 18.8586C28.2397 17.3838 29.337 16.2133 30.772 15.5626C31.545 15.212 32.3627 15.0357 33.204 15.0357C34.9519 15.0357 36.5825 15.8129 37.6882 17.1022C37.7992 17.2316 37.9037 17.3674 38.0033 17.5075C38.1021 17.644 38.1938 17.7856 38.2799 17.9306C38.3887 18.1148 38.4925 18.304 38.5821 18.5024C38.873 19.1431 39.0187 19.7859 39.0337 20.4138C39.0379 20.6016 39.0322 20.7872 39.0131 20.972C39.0045 21.0474 38.9924 21.1214 38.9803 21.196C38.9597 21.3205 38.9377 21.4456 38.9064 21.568C38.885 21.6504 38.8552 21.7308 38.8289 21.8126C38.7549 22.0401 38.6682 22.2656 38.5551 22.4853C38.5515 22.491 38.5494 22.4967 38.5466 22.5016C37.9343 23.675 36.7553 24.7032 35.2264 25.3952C34.1718 25.8737 33.093 26.1262 32.1067 26.1262C31.6637 26.1262 31.2463 26.0728 30.8516 25.9747C30.6098 25.9143 30.3773 25.8375 30.1562 25.7415C30.0786 25.708 30.004 25.6718 29.93 25.6348C29.8148 25.5765 29.7039 25.5153 29.5965 25.4478C29.5325 25.408 29.4706 25.3653 29.4095 25.3226C29.2573 25.216 29.1101 25.0993 28.9714 24.9728C28.5085 24.5482 28.1238 24.012 27.8322 23.3713C27.7426 23.1729 27.6673 22.9717 27.5997 22.769C27.5478 22.6083 27.4994 22.4462 27.4618 22.284C27.4219 22.1162 27.3928 21.9477 27.3679 21.7784C27.2271 20.8042 27.3302 19.8058 27.6858 18.8586Z" fill="#292D32"/>
<path d="M28.7097 22.2669C28.7374 22.449 28.7708 22.6353 28.8163 22.8294C28.8697 23.0591 29.0745 23.2148 29.3013 23.2148C29.3383 23.2148 29.3767 23.2113 29.4151 23.202C29.6825 23.1394 29.851 22.8714 29.7884 22.6026C29.7259 22.3309 29.6882 22.0778 29.6626 21.8346C29.6434 21.6482 29.6327 21.4698 29.632 21.3012C29.6313 21.1021 29.6419 20.9158 29.6619 20.7387C29.8275 19.3051 30.6119 18.6232 30.661 18.5812C30.8743 18.4084 30.9063 18.0955 30.7335 17.8815C30.5614 17.6667 30.2478 17.6326 30.0331 17.8061C29.9655 17.8602 28.6613 18.9474 28.6329 21.2045C28.6322 21.3773 28.6371 21.5572 28.6514 21.7442C28.6642 21.9135 28.6827 22.087 28.7097 22.2669Z" fill="#292D32"/>
</svg>
